<svg width="24" height="24" viewBox="0 0 24 24" fill="none" xmlns="http://www.w3.org/2000/svg">
<path fill-rule="evenodd" clip-rule="evenodd" d="M6.99982 5.74609C6.66721 5.74609 6.34823 5.87822 6.11304 6.11341C5.87785 6.3486 5.74573 6.66758 5.74573 7.00019C5.74573 7.33279 5.87806 7.65198 6.11325 7.88717L10.2359 12.0002L6.11353 16.1129C5.99648 16.2291 5.90357 16.3672 5.84015 16.5195C5.77669 16.6718 5.74402 16.8352 5.74402 17.0002C5.74402 17.1652 5.77669 17.3286 5.84015 17.4809C5.90348 17.6329 5.99622 17.7709 6.11304 17.887C6.22909 18.0038 6.36709 18.0965 6.5191 18.1598C6.67142 18.2233 6.8348 18.256 6.99982 18.256C7.16483 18.256 7.32821 18.2233 7.48054 18.1598C7.63271 18.0965 7.77119 18.0032 7.88732 17.8862L11.9998 13.7641L16.1126 17.8865C16.2288 18.0036 16.3669 18.0964 16.5191 18.1598C16.6714 18.2233 16.8348 18.256 16.9998 18.256C17.1648 18.256 17.3282 18.2233 17.4805 18.1598C17.6325 18.0965 17.7705 18.0038 17.8866 17.887C18.0034 17.7709 18.0962 17.6329 18.1595 17.4809C18.2229 17.3286 18.2556 17.1652 18.2556 17.0002C18.2556 16.8352 18.2229 16.6718 18.1595 16.5195C18.0961 16.3673 18.0029 16.2288 17.8859 16.1127L13.7638 12.0002L17.8866 7.88696C18.1218 7.65177 18.2539 7.33279 18.2539 7.00019C18.2539 6.66758 18.1218 6.3486 17.8866 6.11341C17.6514 5.87822 17.3324 5.74609 16.9998 5.74609C16.6672 5.74609 16.348 5.87843 16.1128 6.11361L11.9998 10.2362L7.88659 6.11341C7.65141 5.87822 7.33242 5.74609 6.99982 5.74609ZM17.8866 17.887L17.8873 17.8862L17.7098 17.7102L17.8859 17.8877L17.8866 17.887Z" fill="black"/>
</svg>
