<svg width="16" height="14" viewBox="0 0 16 14" fill="none" xmlns="http://www.w3.org/2000/svg">
<path d="M2.33345 13.6656C2.00011 13.6656 1.66678 13.599 1.33345 13.399C0.400114 12.8656 0.0667801 11.599 0.600113 10.6656L6.26678 1.19896C6.46678 0.932292 6.66678 0.665625 6.93345 0.532292C7.40011 0.265625 7.93345 0.198958 8.46678 0.332292C9.00011 0.465625 9.40011 0.798958 9.73345 1.26563L15.3334 10.6656C15.5334 10.999 15.6001 11.3323 15.6001 11.6656C15.6001 12.199 15.4001 12.7323 15.0001 13.0656C14.6668 13.4656 14.2001 13.6656 13.6668 13.6656H2.33345ZM7.40011 1.93229L1.80011 11.3323C1.60011 11.6656 1.73345 12.0656 2.06678 12.2656C2.13345 12.3323 2.26678 12.3323 2.33345 12.3323H13.6001C13.8001 12.3323 13.9334 12.2656 14.0668 12.1323C14.2001 11.999 14.2668 11.8656 14.2668 11.6656C14.2668 11.5323 14.2668 11.4656 14.2001 11.3323L8.60011 1.93229C8.40011 1.59896 8.00011 1.53229 7.66678 1.66562C7.53345 1.73229 7.46678 1.79896 7.40011 1.93229Z" fill="#FF3B30"/>
<path d="M8.00011 8.33229C7.60011 8.33229 7.33345 8.06563 7.33345 7.66563V4.99896C7.33345 4.59896 7.60011 4.33229 8.00011 4.33229C8.40011 4.33229 8.66678 4.59896 8.66678 4.99896V7.66563C8.66678 8.06563 8.40011 8.33229 8.00011 8.33229Z" fill="#FF3B30"/>
<path d="M8.00011 10.999C7.80011 10.999 7.66678 10.9323 7.53345 10.799C7.40011 10.6656 7.33345 10.5323 7.33345 10.3323C7.33345 10.2656 7.33345 10.1323 7.40011 10.0656C7.46678 9.99896 7.46678 9.93229 7.53345 9.86563C7.60011 9.79896 7.66678 9.73229 7.73345 9.73229C7.86678 9.66563 8.00011 9.66563 8.13345 9.66563C8.20011 9.66563 8.20011 9.66563 8.26678 9.73229C8.33345 9.73229 8.33345 9.73229 8.40011 9.79896C8.40011 9.79896 8.46678 9.86563 8.53345 9.86563C8.60011 9.93229 8.66678 9.99896 8.66678 10.0656C8.66678 10.1323 8.73345 10.2656 8.73345 10.3323C8.73345 10.5323 8.66678 10.6656 8.53345 10.799C8.33345 10.9323 8.20011 10.999 8.00011 10.999Z" fill="#FF3B30"/>
</svg>
