<svg width="20" height="20" viewBox="0 0 20 20" fill="none" xmlns="http://www.w3.org/2000/svg">
<path d="M10 19.75C11.9284 19.75 13.8134 19.1782 15.4168 18.1068C17.0202 17.0355 18.2699 15.5127 19.0078 13.7312C19.7458 11.9496 19.9389 9.98919 19.5627 8.09787C19.1864 6.20656 18.2579 4.46927 16.8943 3.10571C15.5307 1.74215 13.7934 0.813554 11.9021 0.437348C10.0108 0.061142 8.05041 0.254225 6.26884 0.992179C4.48726 1.73013 2.96451 2.97981 1.89317 4.58319C0.821827 6.18657 0.25 8.07163 0.25 10C0.25 12.5859 1.27723 15.0658 3.10571 16.8943C4.93419 18.7228 7.41414 19.75 10 19.75ZM4.93886 10.257C5.10493 10.092 5.32958 9.9993 5.56375 9.9993C5.79791 9.9993 6.02256 10.092 6.18864 10.257L8.22727 12.2957L13.3593 7.16364C13.5289 7.01843 13.747 6.94255 13.9701 6.95117C14.1931 6.95978 14.4048 7.05226 14.5626 7.21012C14.7205 7.36797 14.8129 7.57958 14.8216 7.80266C14.8302 8.02574 14.7543 8.24385 14.6091 8.41341L8.84773 14.1748C8.68165 14.3399 8.457 14.4325 8.22284 14.4325C7.98868 14.4325 7.76402 14.3399 7.59795 14.1748L4.93886 11.5157C4.85579 11.4333 4.78985 11.3353 4.74485 11.2272C4.69985 11.1192 4.67668 11.0034 4.67668 10.8864C4.67668 10.7694 4.69985 10.6535 4.74485 10.5455C4.78985 10.4375 4.85579 10.3394 4.93886 10.257Z" fill="black"/>
</svg>
