<svg width="24" height="24" viewBox="0 0 24 24" fill="none" xmlns="http://www.w3.org/2000/svg">
<path d="M18.5342 15.6848C17.4003 14.7263 16.75 13.3252 16.75 11.841V9.75C16.75 7.11081 14.7895 4.92604 12.25 4.56006V3.74995C12.25 3.33522 11.914 3 11.5 3C11.086 3 10.75 3.33522 10.75 3.74995V4.56006C8.20969 4.92604 6.25 7.11081 6.25 9.75V11.841C6.25 13.3252 5.59975 14.7263 4.45895 15.6907C4.16727 15.9405 4 16.3035 4 16.6875C4 17.4113 4.58873 18 5.31245 18H17.6875C18.4113 18 19 17.4113 19 16.6875C19 16.3035 18.8328 15.9405 18.5342 15.6848Z" fill="black"/>
<path d="M11.5001 21C12.8585 21 13.9947 20.0317 14.2556 18.75H8.74463C9.00569 20.0317 10.142 21 11.5001 21Z" fill="black"/>
</svg>
