<svg width="24" height="26" viewBox="0 0 24 26" fill="none" xmlns="http://www.w3.org/2000/svg">
<path d="M19.3846 5.5H17.5385V3.625C17.5385 3.28 17.2628 3 16.9231 3H5.84615C4.82831 3 4 3.84125 4 4.875V20.5C4 21.8787 5.104 23 6.46154 23H19.3846C19.7243 23 20 22.72 20 22.375V6.125C20 5.78 19.7243 5.5 19.3846 5.5ZM15.6923 19.25H8.30769C7.968 19.25 7.69231 18.97 7.69231 18.625C7.69231 18.28 7.968 18 8.30769 18H15.6923C16.032 18 16.3077 18.28 16.3077 18.625C16.3077 18.97 16.032 19.25 15.6923 19.25ZM7.69231 10.5C7.69231 9.0975 8.50338 8 9.53846 8C10.5735 8 11.3846 9.0975 11.3846 10.5C11.3846 11.6062 10.8763 12.515 10.1538 12.8512V16.125C10.1538 16.47 9.87815 16.75 9.53846 16.75C9.19877 16.75 8.92308 16.47 8.92308 16.125V12.8512C8.20062 12.515 7.69231 11.6062 7.69231 10.5ZM16.3077 13.625C16.3077 13.97 16.032 14.25 15.6923 14.25H13.8462V16.125C13.8462 16.47 13.5705 16.75 13.2308 16.75C12.8911 16.75 12.6154 16.47 12.6154 16.125V8.625C12.6154 8.28 12.8911 8 13.2308 8C14.928 8 16.3077 9.4025 16.3077 11.125V13.625ZM16.3077 5.5H5.84615C5.50646 5.5 5.23077 5.22 5.23077 4.875C5.23077 4.53 5.50646 4.25 5.84615 4.25H16.3077V5.5Z" fill="black"/>
</svg>
