<svg width="24" height="24" viewBox="0 0 24 24" fill="none" xmlns="http://www.w3.org/2000/svg">
<path d="M20.5051 9.04915C19.8005 9.55757 18.9352 9.85714 18 9.85714C15.6331 9.85714 13.7143 7.93836 13.7143 5.57143C13.7143 4.74218 13.9498 3.96794 14.3576 3.31195C13.6062 3.10853 12.8158 3 12 3C7.02944 3 3 7.02944 3 12C3 16.9706 7.02944 21 12 21C16.9706 21 21 16.9706 21 12C21 10.9664 20.8258 9.97357 20.5051 9.04915Z" fill="black"/>
<path d="M20.5714 5.57143C20.5714 6.99159 19.4202 8.14286 18 8.14286C16.5798 8.14286 15.4286 6.99159 15.4286 5.57143C15.4286 4.15127 16.5798 3 18 3C19.4202 3 20.5714 4.15127 20.5714 5.57143Z" fill="black"/>
</svg>
