<svg width="21" height="14" viewBox="0 0 21 14" fill="none" xmlns="http://www.w3.org/2000/svg">
<path d="M20.375 3.23439V3.4375C20.375 3.74814 20.1648 4 19.9056 4H0.844361C0.585156 4 0.375 3.74814 0.375 3.4375V3.23439C0.375 1.44807 1.58329 0 3.07382 0H17.6762C19.1667 0 20.375 1.44807 20.375 3.23439Z" fill="black"/>
<path fill-rule="evenodd" clip-rule="evenodd" d="M0.375 11.0891V5.50625C0.375 5.22667 0.585156 5 0.844361 5H19.9056C20.1648 5 20.375 5.22667 20.375 5.50625V11.0891C20.375 12.6967 19.1667 14 17.6762 14H3.07382C1.58329 14 0.375 12.6967 0.375 11.0891ZM4.11686 9.05001H5.36849C5.82212 9.05001 6.18987 8.65336 6.18987 8.16407C6.18987 7.67478 5.82212 7.27813 5.36849 7.27813H4.11686C3.66322 7.27813 3.29548 7.67478 3.29548 8.16407C3.29548 8.65336 3.66322 9.05001 4.11686 9.05001Z" fill="black"/>
</svg>
