<svg width="161" height="37" viewBox="0 0 161 37" fill="none" xmlns="http://www.w3.org/2000/svg">
<g clip-path="url(#clip0_12326_47678)">
<path d="M7.92936 24.8256L6.58948 25.9059C6.23433 25.5377 5.91247 25.2636 5.62492 25.0826C5.33636 24.9015 4.92068 24.8125 4.37685 24.8135C3.78157 24.8145 3.2993 24.9501 2.93002 25.2201C2.56075 25.4902 2.37611 25.8371 2.37611 26.262C2.37611 26.6302 2.53855 26.9539 2.86242 27.2361C3.18629 27.5173 3.73718 27.8258 4.5171 28.1596C5.29601 28.4934 5.90339 28.8049 6.33724 29.0932C6.77109 29.3815 7.12826 29.7001 7.40673 30.0491C7.68621 30.3981 7.89405 30.7662 8.03026 31.1537C8.16748 31.5411 8.23608 31.9507 8.23709 32.3826C8.23911 33.3931 7.87387 34.2549 7.14238 34.9671C6.4109 35.6802 5.52504 36.0372 4.48582 36.0393C3.47082 36.0413 2.57487 35.7641 1.79697 35.2098C1.01907 34.6545 0.419755 33.821 -0.000976562 32.7094L1.6537 32.239C2.25907 33.6045 3.18226 34.2863 4.42528 34.2843C5.02763 34.2843 5.52806 34.1022 5.92761 33.7401C6.32614 33.378 6.52491 32.9218 6.52491 32.3695C6.52491 32.0397 6.41897 31.709 6.20911 31.3762C5.99924 31.0444 5.73793 30.7703 5.42717 30.5548C5.1154 30.3404 4.62001 30.0936 3.94099 29.8154C3.26196 29.5383 2.73933 29.2834 2.37308 29.0517C2.00683 28.8201 1.68901 28.545 1.42164 28.2243C1.15427 27.9037 0.957525 27.585 0.832415 27.2674C0.707306 26.9498 0.644751 26.6099 0.644751 26.2478C0.643742 25.3779 0.99082 24.6345 1.687 24.0205C2.38317 23.4065 3.22968 23.098 4.22551 23.096C4.88536 23.0949 5.5543 23.2366 6.23332 23.5218C6.91234 23.807 7.47735 24.241 7.92936 24.8256Z" fill="#4A4949"/>
<path d="M10.9053 23.4661L12.5599 23.4641L12.569 28.3993L17.7016 23.454L20.009 23.45L14.1612 29.0992L20.0685 35.6012L17.9609 35.6043L12.571 29.6869L12.5821 35.6144L10.9265 35.6174L10.9053 23.4661Z" fill="#4A4949"/>
<path d="M21.5859 23.4479L23.4182 23.4438L26.4047 28.3304L29.3407 23.4337L31.176 23.4307L27.2108 30.0176L27.2209 35.588L25.5652 35.5911L25.5551 30.0399L21.5859 23.4479Z" fill="#4A4949"/>
<path d="M46.0998 26.4562C45.2522 25.561 44.4703 25.3173 43.6722 25.3183C41.2961 25.3223 39.7212 27.1532 39.7252 29.4543C39.7293 31.9184 41.3113 33.7421 43.6874 33.7381C44.6146 33.7361 45.5095 33.3102 46.2723 32.3301L47.9673 33.5348C46.9281 34.9721 45.3673 35.5952 43.6742 35.5983C40.1268 35.6043 37.5832 33.1949 37.5772 29.5889C37.5701 25.8847 40.1056 23.4652 43.6531 23.4591C45.2149 23.4561 46.5508 23.9598 47.6929 25.2798L46.0998 26.4562Z" fill="#4A4949"/>
<path d="M57.6531 23.4338C61.25 23.362 63.7935 25.7724 63.7996 29.4766C63.8056 33.0826 61.2711 35.5022 57.6742 35.574C54.1268 35.58 51.5832 33.1706 51.5772 29.5646C51.5701 25.8604 54.1046 23.4409 57.6531 23.4348V23.4338ZM57.6874 33.7138C60.0796 33.7098 61.6556 31.8799 61.6505 29.4159C61.6465 27.1157 60.0644 25.2899 57.6722 25.294C55.2961 25.298 53.7202 27.1289 53.7252 29.4301C53.7292 31.8941 55.3113 33.7179 57.6874 33.7138Z" fill="#4A4949"/>
<path d="M74.3133 26.178C73.8724 25.559 73.0905 25.2657 72.2934 25.2677C71.35 25.2697 70.4067 25.6956 70.4087 26.7566C70.4127 29.073 75.8792 27.7418 75.8863 31.8536C75.8903 34.3339 73.94 35.5446 71.6779 35.5477C70.2452 35.5507 68.8448 35.1127 67.8994 33.9879L69.4431 32.4838C69.9486 33.2495 70.8123 33.6895 71.7233 33.6875C72.6677 33.6855 73.7402 33.1615 73.7382 32.1004C73.7332 29.5717 68.2677 31.0333 68.2606 26.9063C68.2566 24.5232 70.3703 23.4105 72.5022 23.4065C73.7059 23.4045 74.9116 23.7443 75.8086 24.592L74.3143 26.178H74.3133Z" fill="#4A4949"/>
<path d="M83.6476 25.5408L80.1163 25.5479L80.1133 23.6877L89.2271 23.6715L89.2301 25.5307L85.6988 25.5377L85.716 35.229L83.6648 35.2331L83.6476 25.5408Z" fill="#4A4949"/>
<path d="M96.2667 23.6582L98.0404 23.6552L103.025 35.1985L100.681 35.2026L99.6023 32.5615L94.606 32.5706L93.5688 35.2157L91.2744 35.2198L96.2667 23.6592V23.6582ZM98.8839 30.7995L97.1021 26.104L95.3042 30.8065L98.8849 30.8005L98.8839 30.7995Z" fill="#4A4949"/>
<path d="M107.454 23.6391L110.172 23.634L115.77 32.2056H115.802L115.787 23.6239L117.838 23.6199L117.858 35.1723L115.254 35.1764L109.542 26.3267H109.509L109.525 35.1865L107.474 35.1906L107.454 23.6391Z" fill="#4A4949"/>
<path d="M123.522 23.6097L131.155 23.5966L131.159 25.4557L125.577 25.4658L125.582 28.3051L130.871 28.296L130.875 30.1552L125.585 30.1653L125.591 33.298L131.466 33.2879L131.469 35.148L123.543 35.1622L123.522 23.6097Z" fill="#4A4949"/>
<path d="M136.582 23.5864L140.586 23.5794C142.799 23.5753 144.884 24.2894 144.889 26.883C144.892 28.5469 143.933 29.7728 142.225 30.0207L145.294 35.1217L142.82 35.1258L140.143 30.2361L138.645 30.2392L138.654 35.1339L136.603 35.1379L136.583 23.5864H136.582ZM140.236 28.4751C141.392 28.4731 142.743 28.3719 142.74 26.8708C142.738 25.5002 141.467 25.3394 140.41 25.3414L138.636 25.3445L138.642 28.4771L140.237 28.4741L140.236 28.4751Z" fill="#4A4949"/>
<path d="M154.242 23.5552L156.016 23.5521L161 35.0955L158.656 35.0995L157.578 32.4585L152.582 32.4676L151.544 35.1127L149.249 35.1167L154.241 23.5562L154.242 23.5552ZM156.86 30.6964L155.077 26.001L153.279 30.7035L156.86 30.6974V30.6964Z" fill="#4A4949"/>
<path d="M119.466 15.0432C118.589 14.6709 118.023 14.1763 117.709 13.626C114.504 12.5528 111.177 11.6637 107.733 10.985C107.09 10.8595 106.444 10.7372 105.793 10.6249C98.2881 9.33115 90.7937 9.10053 83.501 9.80656C89.589 9.72362 95.7567 10.1899 101.929 11.253C109.436 12.5488 116.508 14.6608 123.073 17.4516C122.06 16.4805 120.884 15.644 119.466 15.0442" fill="#C4D100"/>
<path d="M86.8949 10.6096C79.804 9.04787 72.4044 8.52492 64.8665 9.20365C64.2117 9.26333 63.5619 9.33413 62.9132 9.40898C58.0097 9.98554 53.2817 11.0537 48.7627 12.5538C46.326 13.9557 43.9923 15.5195 41.7666 17.228C50.0592 13.5653 59.065 11.1781 68.5905 10.3183C74.7915 9.75998 80.9158 9.87832 86.8939 10.6096" fill="#D90047"/>
<path d="M55.1865 11.4584C62.1725 9.02973 74.6098 7.42446 82.3989 7.13922C83.0759 7.11595 83.7499 7.10381 84.4228 7.09471C89.51 7.04211 94.4932 7.49223 99.329 8.39855C102.029 9.46671 105.361 10.5399 107.891 11.9378C98.873 9.3868 88.616 8.34595 78.7747 8.70504C72.3669 8.9387 61.1686 9.9846 55.1865 11.4574" fill="#00ADB9"/>
<path d="M112.031 12.3474C115.378 13.5966 118.599 15.0481 121.675 16.6878C115.012 11.9377 107.137 8.48643 98.5332 6.75574C103.322 8.12229 107.849 10.0108 112.031 12.3474Z" fill="#685EA6"/>
<path d="M85.6983 5.49846C82.8642 5.50554 80.0825 5.69773 77.3594 6.05682C77.9103 6.04367 78.4632 6.03355 79.0181 6.03254C85.4098 6.01737 91.5775 6.83568 97.3941 8.36104C102.477 9.2623 107.374 10.6086 112.03 12.3474C107.848 10.0098 103.321 8.12232 98.5322 6.75577C94.4036 5.92532 90.1085 5.48835 85.6973 5.49846" fill="#C4D100"/>
<path d="M75.0777 3.88198C75.0141 3.89614 74.9475 3.90828 74.8809 3.92244C74.3401 4.03573 73.8034 4.15508 73.2646 4.27444C73.1556 4.29973 73.0466 4.32401 72.9377 4.34828C72.4342 4.46157 71.9368 4.57891 71.4364 4.69725C71.2931 4.73063 71.1488 4.76604 71.0065 4.79942C70.5354 4.91574 70.0662 5.03308 69.598 5.15041C69.4275 5.19289 69.258 5.2374 69.0895 5.27989C68.6456 5.3952 68.1996 5.51456 67.7567 5.6329C67.568 5.68449 67.3794 5.73507 67.1927 5.78564C66.768 5.90298 66.3452 6.02233 65.9224 6.14372C65.7166 6.20137 65.5118 6.26004 65.308 6.31972C64.9034 6.43705 64.5008 6.55742 64.0983 6.67982C63.8793 6.74557 63.6584 6.81334 63.4374 6.8801C63.052 7.00047 62.6666 7.11982 62.2822 7.24222C62.0501 7.31808 61.818 7.39192 61.586 7.46576C61.2167 7.58613 60.8454 7.70852 60.4761 7.83193C60.236 7.91386 59.9918 7.99579 59.7517 8.07874C59.3956 8.20113 59.0404 8.32352 58.6873 8.44895C58.433 8.53695 58.1818 8.62698 57.9306 8.71902C57.5895 8.84142 57.2485 8.96482 56.9085 9.09025C56.6482 9.18533 56.3889 9.28345 56.1276 9.38359C55.8017 9.50598 55.4738 9.62938 55.1479 9.75582C54.8765 9.86001 54.6081 9.96622 54.3427 10.0724C54.0269 10.1968 53.7142 10.3192 53.4024 10.4467C53.1239 10.559 52.8485 10.6743 52.572 10.7876C52.2724 10.913 51.9727 11.0354 51.6741 11.1618C51.3865 11.2832 51.103 11.4076 50.8185 11.532C50.5319 11.6544 50.2484 11.7778 49.9649 11.9023C49.6683 12.0327 49.3747 12.1673 49.0821 12.3008C48.8107 12.4212 48.5393 12.5425 48.2719 12.667C47.9642 12.8076 47.6635 12.9522 47.3588 13.0948C47.1045 13.2152 46.8513 13.3325 46.5991 13.4549C46.2742 13.6097 45.9533 13.7685 45.6325 13.9283C45.4024 14.0406 45.1724 14.1498 44.9444 14.2651C44.5862 14.4452 45.0271 14.4937 44.673 14.6778C44.4843 14.7749 43.2403 15.743 42.7055 16.0323C41.9872 16.628 41.9508 17.0235 41.2617 17.6385C50.538 13.1181 58.9627 9.61826 69.6828 7.02677C73.0971 5.48522 76.6425 4.10249 80.3101 2.89575C78.5484 3.19111 76.807 3.51884 75.0777 3.87995" fill="#B1CC44"/>
<path d="M56.3033 9.76404C56.0622 9.84496 55.824 9.92891 55.5859 10.0129C55.824 9.92993 56.0622 9.84597 56.3033 9.76404Z" fill="#D9D9D9"/>
<path d="M55.1958 10.1515C54.9678 10.2334 54.7388 10.3164 54.5098 10.4013C54.7388 10.3164 54.9668 10.2334 55.1958 10.1515Z" fill="#D9D9D9"/>
<path d="M57.4206 9.39575C57.1684 9.47667 56.9192 9.55962 56.6689 9.64155C56.9182 9.55962 57.1684 9.47667 57.4206 9.39575Z" fill="#D9D9D9"/>
<path d="M58.5449 9.0459C58.2826 9.12581 58.0192 9.20774 57.7549 9.29068C58.0182 9.20774 58.2816 9.12581 58.5449 9.0459Z" fill="#D9D9D9"/>
<path d="M61.9781 8.10413C61.6572 8.18302 61.3374 8.26496 61.0186 8.34891C61.3374 8.26496 61.6572 8.18201 61.9781 8.10413Z" fill="#D9D9D9"/>
<path d="M60.8264 8.39954C60.5278 8.47945 60.2321 8.56037 59.9365 8.64331C60.2321 8.56037 60.5278 8.47945 60.8264 8.39954Z" fill="#D9D9D9"/>
<path d="M59.6801 8.71313C59.4016 8.79304 59.1232 8.87397 58.8457 8.9559C59.1222 8.87397 59.4016 8.79304 59.6801 8.71313Z" fill="#D9D9D9"/>
<path d="M54.0993 10.556C53.8783 10.639 53.6584 10.7239 53.4404 10.8079C53.6584 10.725 53.8783 10.639 54.0993 10.556Z" fill="#D9D9D9"/>
<path d="M53.0105 10.9779C52.7996 11.0629 52.5878 11.1468 52.3789 11.2328C52.5878 11.1468 52.7996 11.0629 53.0105 10.9779Z" fill="#D9D9D9"/>
<path d="M62.0957 8.07788C63.1188 7.82702 64.154 7.59943 65.1962 7.3941C65.2033 7.39207 65.2063 7.39005 65.2113 7.38904C64.163 7.59539 63.1228 7.82601 62.0957 8.07889" fill="#D9D9D9"/>
<path d="M51.9315 11.4188C51.7287 11.5028 51.528 11.5888 51.3262 11.6747C51.527 11.5888 51.7287 11.5028 51.9315 11.4188Z" fill="#D9D9D9"/>
<path d="M102.445 9.29977C95.3182 7.12299 87.7551 5.94054 79.9126 5.93042C79.2315 5.93042 78.5535 5.94155 77.8775 5.95672C72.7621 6.08316 67.7699 6.70827 62.9441 7.78047C60.2734 8.9427 58.0759 9.99063 55.5898 11.4735C64.5473 8.61194 74.3432 7.48714 84.2541 7.49927C90.7043 7.50737 96.3685 8.04043 102.445 9.30078" fill="#75C5C1"/>
<path d="M76.0642 4.35553C72.2948 5.04235 68.6646 6.06498 65.2109 7.38804C69.1337 6.61525 73.1947 6.16108 77.3597 6.05689C80.0818 5.69781 82.8645 5.50461 85.6987 5.49854C90.1088 5.48842 94.4039 5.92438 98.5335 6.75585C92.729 5.1 86.5431 4.20987 80.1202 4.22504C78.7561 4.22808 77.4051 4.27259 76.0642 4.35553Z" fill="#AA99C7"/>
<path d="M65.1963 7.39297C69.1241 6.61815 73.1912 6.16095 77.3602 6.05676C73.1952 6.16095 69.1332 6.61512 65.2114 7.38791C65.2064 7.38892 65.2034 7.39196 65.1963 7.39297Z" fill="#D9D9D9"/>
<path d="M108.662 7.04309C101.187 3.33893 92.5834 1.15912 83.4141 0.977051C87.235 1.61936 90.9438 2.54591 94.5115 3.73342C99.4543 4.29076 104.201 5.4186 108.662 7.04309Z" fill="#219391"/>
<path d="M106.211 8.81729C111.842 10.721 117.05 13.3903 121.676 16.6869C122.146 16.9377 122.611 17.1906 123.075 17.4495C119.024 13.2892 114.146 9.758 108.663 7.04209C104.203 5.41861 99.4555 4.29078 94.5127 3.73242C98.6151 5.09695 102.529 6.80438 106.212 8.81628" fill="#97172D"/>
<path d="M87.2577 3.33491C83.4247 3.343 79.6835 3.69501 76.0654 4.35552C77.4053 4.27157 78.7573 4.22807 80.1214 4.22403C86.5444 4.20886 92.7302 5.1 98.5347 6.75483C101.166 7.28385 103.731 7.97674 106.213 8.8173C102.529 6.80541 98.6154 5.09797 94.5131 3.73344C92.137 3.46641 89.7155 3.32884 87.2577 3.33491Z" fill="#D90047"/>
<path d="M42.7058 16.0334C42.5756 16.1548 42.4455 16.2742 42.3193 16.3966C42.6372 16.1983 42.954 16.0021 43.2738 15.8079C43.3848 15.7411 43.4968 15.6764 43.6068 15.6106C43.8176 15.4842 44.0285 15.3588 44.2424 15.2354C44.3756 15.1565 44.5118 15.0806 44.647 15.0037C44.8377 14.8935 45.0284 14.7852 45.2191 14.677C45.3684 14.5941 45.5207 14.5121 45.6711 14.4302C45.8507 14.3321 46.0292 14.2319 46.2109 14.1348C46.3703 14.0499 46.5297 13.9669 46.6901 13.884C46.8647 13.7919 47.0372 13.6999 47.2127 13.6099C47.3812 13.5239 47.5497 13.4399 47.7182 13.355C47.8877 13.27 48.0562 13.184 48.2267 13.1021C48.4013 13.0151 48.5809 12.9301 48.7574 12.8452C48.9209 12.7663 49.0853 12.6863 49.2508 12.6085C49.4344 12.5225 49.6191 12.4375 49.8037 12.3515C49.9652 12.2787 50.1236 12.2059 50.284 12.1341C50.4757 12.0471 50.6704 11.9611 50.8641 11.8761C51.0175 11.8084 51.1719 11.7426 51.3262 11.6758C51.527 11.5899 52.1768 11.3178 52.3786 11.2338C52.5289 11.1721 52.2292 11.2955 52.3786 11.2338C52.5874 11.1478 52.7993 11.0639 53.0102 10.9789C53.1524 10.9233 53.2947 10.8646 53.439 10.809C53.5045 10.7837 53.5711 10.7604 53.6377 10.7351C54.8364 9.86727 56.0814 9.04592 57.3678 8.27515C52.0527 10.2385 47.1209 12.8634 42.7058 16.0355" fill="#2C4D95"/>
<path d="M76.741 1.20251C63.3118 2.37789 51.3508 7.8613 42.7051 16.0343C47.1212 12.8622 52.052 10.2373 57.3671 8.27399C63.1151 4.82777 69.6773 2.3789 76.741 1.20353" fill="#0079BE"/>
<path d="M54.5093 10.4014C54.7384 10.3164 54.9664 10.2335 55.1954 10.1516C55.3256 10.105 55.4557 10.0585 55.5869 10.013C55.825 9.93003 56.0631 9.84608 56.3042 9.76516C56.4243 9.72368 56.5464 9.68322 56.6695 9.64175C56.9187 9.55982 57.1689 9.47687 57.4212 9.39595C57.5342 9.36055 57.6441 9.32515 57.7561 9.29076C58.0205 9.20781 58.2828 9.12588 58.5461 9.04597C58.647 9.01664 58.7469 8.98528 58.8478 8.95696C59.1243 8.87503 59.4037 8.7941 59.6822 8.71419C59.768 8.69194 59.8517 8.66665 59.9385 8.64339C60.2341 8.56044 60.5297 8.47952 60.8284 8.39961C60.8919 8.38242 60.9565 8.36725 61.0211 8.35005C61.3399 8.2661 61.6597 8.18416 61.9806 8.10526C62.0199 8.09616 62.0583 8.08706 62.0976 8.07795C63.1247 7.82508 64.165 7.59445 65.2133 7.3881C68.6669 6.06505 72.2971 5.0414 76.0665 4.35559C69.4841 4.76323 63.1974 6.12169 57.3707 8.27318C56.0853 9.04395 54.8403 9.86529 53.6406 10.7332C53.792 10.6735 53.9463 10.6138 54.1007 10.5562C54.2369 10.5046 54.3741 10.453 54.5113 10.4014" fill="#685EA6"/>
<path d="M76.064 4.35553C79.6821 3.69502 83.4233 3.34402 87.2563 3.33492C89.7141 3.32885 92.1355 3.46642 94.5116 3.73345C90.944 2.54594 87.2351 1.62041 83.4142 0.977085C82.9541 0.967982 82.495 0.95989 82.0329 0.960901C80.2481 0.964947 78.4834 1.0489 76.742 1.20265C69.6783 2.37803 63.1172 4.82791 57.3682 8.27312C63.1948 6.12062 69.4826 4.76216 76.064 4.35553Z" fill="#00ADB9"/>
<path d="M96.5041 7.82405C96.5526 7.83215 96.601 7.84125 96.6525 7.84934C97.055 7.92217 97.4566 8.00006 97.8582 8.07794C97.9399 8.09312 98.0196 8.10829 98.1013 8.12447C98.4756 8.19932 98.8489 8.2762 99.2212 8.3551C99.3302 8.37634 99.4372 8.40062 99.5421 8.42186C99.8942 8.49873 100.245 8.57561 100.595 8.65552C100.722 8.68283 100.849 8.71317 100.975 8.74251C101.309 8.81938 101.641 8.89828 101.972 8.9792C102.114 9.0146 102.255 9.04697 102.395 9.08136C102.713 9.16127 103.029 9.24118 103.345 9.32413C103.498 9.36256 103.654 9.40302 103.805 9.44551C104.108 9.5244 104.408 9.60735 104.712 9.68928C104.876 9.7348 105.041 9.78133 105.205 9.82786C105.493 9.90878 105.783 9.99172 106.071 10.0767C106.246 10.1283 106.418 10.1799 106.591 10.2315C106.87 10.3144 107.148 10.3984 107.425 10.4853C107.606 10.542 107.787 10.5976 107.969 10.6553C108.234 10.7402 108.501 10.8262 108.766 10.9132C108.956 10.9739 109.145 11.0366 109.333 11.1014C109.59 11.1873 109.845 11.2743 110.1 11.3613C110.295 11.4291 110.491 11.4989 110.685 11.5677C110.931 11.6536 111.178 11.7416 111.421 11.8296C111.625 11.9035 111.826 11.9793 112.028 12.0532C112.265 12.1412 112.5 12.2282 112.733 12.3172C112.942 12.3971 113.151 12.479 113.359 12.5589C113.584 12.6469 113.81 12.7349 114.034 12.824C114.25 12.9089 114.463 12.9989 114.677 13.0869C114.894 13.1749 115.105 13.2619 115.322 13.351C115.544 13.444 115.766 13.5401 115.986 13.6352C116.191 13.7222 116.395 13.8092 116.596 13.8972C116.827 13.9983 117.054 14.1015 117.284 14.2057C117.475 14.2906 117.668 14.3756 117.859 14.4646C118.102 14.5759 118.344 14.6902 118.586 14.8045C118.759 14.8844 118.932 14.9643 119.106 15.0473C119.376 15.1767 119.645 15.3082 119.914 15.4417C120.055 15.5115 120.197 15.5793 120.34 15.6501C120.747 15.8534 121.153 16.0598 121.559 16.2702C122.106 16.7142 122.648 17.1613 123.177 17.6216C116.179 14.3706 108.596 11.8296 100.587 10.1192C98.0156 9.01663 95.3499 8.04153 92.6025 7.20703C93.9142 7.38708 95.2137 7.59242 96.5021 7.82506" fill="#2C4D95"/>
</g>
<defs>
<clipPath id="clip0_12326_47678">
<rect width="161" height="35.0782" fill="white" transform="translate(0 0.960938)"/>
</clipPath>
</defs>
</svg>
