<svg width="24" height="24" viewBox="0 0 24 24" fill="none" xmlns="http://www.w3.org/2000/svg">
<path fill-rule="evenodd" clip-rule="evenodd" d="M2 3C2 2.44772 2.44772 2 3 2H10C10.5523 2 11 2.44772 11 3V10C11 10.5523 10.5523 11 10 11H3C2.44772 11 2 10.5523 2 10V3ZM4 4V9H9V4H4Z" fill="#DCDCDC"/>
<path fill-rule="evenodd" clip-rule="evenodd" d="M12.998 3C12.998 2.44772 13.4458 2 13.998 2H20.998C21.5503 2 21.998 2.44772 21.998 3V10C21.998 10.5523 21.5503 11 20.998 11H13.998C13.4458 11 12.998 10.5523 12.998 10V3ZM14.998 4V9H19.998V4H14.998Z" fill="#DCDCDC"/>
<path fill-rule="evenodd" clip-rule="evenodd" d="M12.999 14.001C12.999 13.4487 13.4467 13.001 13.999 13.001H20.999C21.5513 13.001 21.999 13.4487 21.999 14.001V21.001C21.999 21.5533 21.5513 22.001 20.999 22.001H13.999C13.4467 22.001 12.999 21.5533 12.999 21.001V14.001ZM14.999 15.001V20.001H19.999V15.001H14.999Z" fill="#DCDCDC"/>
<path fill-rule="evenodd" clip-rule="evenodd" d="M2 14.001C2 13.4487 2.44772 13.001 3 13.001H10C10.5523 13.001 11 13.4487 11 14.001V21.001C11 21.5533 10.5523 22.001 10 22.001H3C2.44772 22.001 2 21.5533 2 21.001V14.001ZM4 15.001V20.001H9V15.001H4Z" fill="#DCDCDC"/>
</svg>
