<svg xmlns="http://www.w3.org/2000/svg" width="56" height="56">
    <defs>
        <style>
            .cls-2{fill:none}.cls-3{fill:#343127}
        </style>
    </defs>
    <g id="icon-truck" transform="translate(-86.852 -393.999)">
        <g id="symbol">
            <path id="Trazado_447" data-name="Trazado 447" class="cls-2" d="M105.932 428.546a2.752 2.752 0 0 0-2.752 2.752v.007a2.752 2.752 0 1 0 2.752-2.759zm.748 3.466a.937.937 0 0 1-.321.214 1.012 1.012 0 0 1-.387.08 1 1 0 0 1-.708-.294 1.013 1.013 0 0 1-.294-.708 1 1 0 0 1 .294-.708l-.045-.02a.856.856 0 0 1 .194-.107l.174-.094a.581.581 0 0 1 .187-.053.977.977 0 0 1 .2-.021 1 1 0 0 1 1 1 .982.982 0 0 1-.294.711z"/>
            <path id="Trazado_448" data-name="Trazado 448" class="cls-2" d="M97.676 412.449h8.924a3.52 3.52 0 0 1-.115-2.45h-8.809z"/>
            <path id="Trazado_449" data-name="Trazado 449" class="cls-2" d="M127.307 428.546a2.752 2.752 0 0 0-2.752 2.752v.007a2.752 2.752 0 1 0 2.752-2.759zm.748 3.466a.937.937 0 0 1-.321.214 1.012 1.012 0 0 1-.387.08.94.94 0 0 1-.381-.08.907.907 0 0 1-.327-.214 1.013 1.013 0 0 1-.294-.708.991.991 0 0 1 .294-.708l-.04-.02a1.034 1.034 0 0 1 1.456.02 1 1 0 0 1 .294.708.982.982 0 0 1-.294.708z"/>
            <path id="Trazado_450" data-name="Trazado 450" class="cls-3" d="M127.024 424.322h2.238a1 1 0 1 0 0-2h-2.236a1 1 0 0 0-1 1 1 1 0 0 0 .998 1z"/>
            <path id="Trazado_451" data-name="Trazado 451" class="cls-3" d="m126.6 430.576.04.02a.991.991 0 0 0-.294.708 1.013 1.013 0 0 0 .294.708.907.907 0 0 0 .327.214.94.94 0 0 0 .381.08 1.012 1.012 0 0 0 .387-.08.937.937 0 0 0 .321-.214.982.982 0 0 0 .294-.708 1 1 0 0 0-.294-.708 1.034 1.034 0 0 0-1.456-.02z"/>
            <path id="Trazado_452" data-name="Trazado 452" class="cls-3" d="M97.676 410h8.811a3.342 3.342 0 0 1 1.65-2H96.651a1 1 0 0 0-.977 1.022v3.428h2z"/>
            <path id="Trazado_453" data-name="Trazado 453" class="cls-3" d="M105.976 430.3a.977.977 0 0 0-.2.021.581.581 0 0 0-.187.053l-.174.094a.856.856 0 0 0-.194.107l.045.02a1 1 0 0 0-.294.708 1.013 1.013 0 0 0 .294.708 1 1 0 0 0 .708.294 1.012 1.012 0 0 0 .387-.08.937.937 0 0 0 .321-.214.982.982 0 0 0 .294-.708 1 1 0 0 0-1-1.003z"/>
            <path id="Trazado_454" data-name="Trazado 454" class="cls-3" d="m135.392 418.119-3-4.62a2.987 2.987 0 0 0-2.52-1.334h-6.334V409a1 1 0 0 0-1-1h-11.032a3.5 3.5 0 0 1 .746.532l1.467 1.468h7.841v14.982h-10.6a1 1 0 1 0 0 2h11.6a1 1 0 0 0 1-1v-11.757h6.312a1.014 1.014 0 0 1 .842.454l3 4.589a4.636 4.636 0 0 1 .261.474h-7.525v-4.158a1 1 0 1 0-2 0v5.13a1 1 0 0 0 1 1h9.2a6.089 6.089 0 0 1 .08.982v6.176a1 1 0 0 1-1 1h-1.9a4.756 4.756 0 0 0-9.071 0h-12.3a4.756 4.756 0 0 0-9.071 0h-2.14l-.02-2.936h2.338a1 1 0 1 0 0-2h-3.89v-5.472h-2v6.476a1 1 0 0 0 1 1h.556v3.87a1 1 0 0 0 1 1h2.986a4.749 4.749 0 0 0 9.432 0h11.94a4.749 4.749 0 0 0 9.432 0h1.7a3.014 3.014 0 0 0 3.006-3.006v-6.132a8.308 8.308 0 0 0-1.336-4.553zm-29.46 15.931a2.752 2.752 0 0 1-2.752-2.745v-.005a2.752 2.752 0 1 1 2.752 2.752zm21.375 0a2.752 2.752 0 0 1-2.752-2.745v-.005a2.752 2.752 0 1 1 2.752 2.752z"/>
            <path id="Trazado_455" data-name="Trazado 455" class="cls-3" d="M93.047 417.153h18.818l-2.911 2.907a1.195 1.195 0 0 0 .789 2.062h.033a1.233 1.233 0 0 0 .874-.381l4.884-4.889a1.246 1.246 0 0 0 .345-.924 1.182 1.182 0 0 0-.346-.842l-4.9-4.894a1.164 1.164 0 0 0-.859-.314 1.187 1.187 0 0 0-.829.386 1.206 1.206 0 0 0 .014 1.632l2.859 2.867H93.047a1.2 1.2 0 0 0 0 2.39z"/>
        </g>
    </g>
</svg>
