<svg width="187" height="188" viewBox="0 0 187 188" fill="none" xmlns="http://www.w3.org/2000/svg">
<path opacity="0.1" d="M7.37805 94.1503C7.37805 141.728 45.9095 180.296 93.4398 180.296C140.97 180.296 179.502 141.728 179.502 94.1503C179.502 46.5729 140.97 8.00434 93.4398 8.00434C45.9095 8.00434 7.37805 46.5729 7.37805 94.1503Z" stroke="url(#paint0_linear_5874_29792)" stroke-width="0.754778"/>
<path opacity="0.05" d="M0.407806 94.1507C0.407806 145.581 42.0598 187.273 93.4394 187.273C144.819 187.273 186.471 145.581 186.471 94.1507C186.471 42.7201 144.819 1.02807 93.4394 1.02807C42.0598 1.02807 0.407806 42.7201 0.407806 94.1507Z" stroke="url(#paint1_linear_5874_29792)" stroke-width="0.815905"/>
<g clip-path="url(#clip0_5874_29792)">
<path d="M93.437 174.211C49.1601 174.211 13.2666 138.283 13.2666 93.9629C13.2666 49.6428 49.1601 13.7144 93.437 13.7144C137.714 13.7144 173.607 49.6428 173.607 93.9629C173.607 138.283 137.714 174.211 93.437 174.211Z" fill="white"/>
<path opacity="0.1" d="M93.437 174.211C49.1601 174.211 13.2666 138.283 13.2666 93.9629C13.2666 49.6428 49.1601 13.7144 93.437 13.7144C137.714 13.7144 173.607 49.6428 173.607 93.9629C173.607 138.283 137.714 174.211 93.437 174.211Z" fill="url(#paint2_linear_5874_29792)"/>
<path opacity="0.1" d="M13.6166 93.9629C13.6166 138.09 49.3538 173.861 93.437 173.861C137.52 173.861 173.257 138.09 173.257 93.9629C173.257 49.8358 137.52 14.0644 93.437 14.0644C49.3538 14.0644 13.6166 49.8358 13.6166 93.9629Z" stroke="url(#paint3_linear_5874_29792)" stroke-width="0.70004"/>
<path opacity="0.1" d="M13.6166 94.1509C13.6166 138.278 49.3538 174.049 93.437 174.049C137.52 174.049 173.257 138.278 173.257 94.1509C173.257 50.0238 137.52 14.2524 93.437 14.2524C49.3538 14.2524 13.6166 50.0238 13.6166 94.1509Z" stroke="url(#paint4_linear_5874_29792)" stroke-width="0.70004"/>
</g>
<mask id="mask0_5874_29792" style="mask-type:alpha" maskUnits="userSpaceOnUse" x="13" y="13" width="161" height="162">
<path d="M93.4351 174.399C49.1582 174.399 13.2647 138.471 13.2647 94.1509C13.2647 49.8308 49.1582 13.9023 93.4351 13.9023C137.712 13.9023 173.605 49.8308 173.605 94.1509C173.605 138.471 137.712 174.399 93.4351 174.399Z" fill="#C4C4C4"/>
</mask>
<g mask="url(#mask0_5874_29792)">
<ellipse opacity="0.15" cx="95.5" cy="126" rx="55.5" ry="30" fill="#080326"/>
<path d="M122.142 95.6349C101.905 86.1621 72.0564 87.9374 55.6099 99.5933C39.1633 111.249 42.2451 128.437 62.4812 137.91C82.7173 147.382 112.57 145.61 129.016 133.955C145.463 122.299 142.381 105.108 122.142 95.6349Z" fill="#F99711"/>
<path d="M114.229 92.6323C113.14 92.2896 112.03 92.0086 110.91 91.7344V141.809C112.035 141.533 113.141 141.232 114.229 140.908V92.6323Z" fill="#F8760F"/>
<path d="M108.418 91.1691C107.324 90.9406 106.217 90.7362 105.1 90.5557V142.992C106.216 142.81 107.326 142.612 108.418 142.385V91.1691Z" fill="#F8760F"/>
<path d="M131.656 131.884V101.653C130.599 100.749 129.489 99.9066 128.334 99.1304V134.41C128.561 134.259 128.794 134.112 129.021 133.954C129.962 133.283 130.839 132.59 131.656 131.884Z" fill="#F8760F"/>
<path d="M120.038 94.7095C118.955 94.2571 117.846 93.839 116.719 93.4448V140.106C117.848 139.713 118.954 139.291 120.038 138.838V94.7095Z" fill="#F8760F"/>
<path d="M134.145 129.482C135.44 128.084 136.556 126.531 137.467 124.858V108.706C136.554 107.031 135.439 105.475 134.145 104.072V129.482Z" fill="#F8760F"/>
<path d="M102.608 90.1953C101.509 90.0559 100.402 89.9416 99.2891 89.8525V143.701C100.402 143.605 101.509 143.481 102.608 143.358V90.1953Z" fill="#F8760F"/>
<path d="M122.529 137.728C123.673 137.179 124.783 136.6 125.848 135.983V97.5677C124.817 96.9611 123.691 96.3819 122.529 95.8267V137.728Z" fill="#F8760F"/>
<path d="M93.4805 143.986C94.5902 143.968 95.6965 143.934 96.7993 143.873V89.6678C95.6965 89.6095 94.5868 89.5752 93.4805 89.5581V143.986Z" fill="#F8760F"/>
<path d="M85.1836 89.8564C84.067 89.9558 82.9642 90.0826 81.8613 90.2266V143.348C82.963 143.49 84.0705 143.604 85.1836 143.691V89.8564Z" fill="#F8760F"/>
<path d="M90.9888 89.5649C89.8825 89.5649 88.7728 89.6163 87.6699 89.6815V143.869C88.7762 143.931 89.8825 143.97 90.9888 143.986V89.5649Z" fill="#F8760F"/>
<path d="M79.375 90.5898C78.255 90.7715 77.1487 90.9737 76.0527 91.2033V142.344C77.1521 142.573 78.2596 142.78 79.375 142.968V90.5898Z" fill="#F8760F"/>
<path d="M47.0078 124.55C47.9072 126.268 49.0225 127.864 50.3267 129.3V104.227C49.0214 105.658 47.9059 107.251 47.0078 108.966V124.55Z" fill="#F8760F"/>
<path d="M73.563 91.7754C72.4395 92.053 71.3298 92.3546 70.2441 92.6836V140.863C71.3332 141.206 72.443 141.497 73.563 141.775V91.7754Z" fill="#F8760F"/>
<path d="M64.4355 138.776C65.5178 139.232 66.6275 139.65 67.7544 140.044V93.4961C66.6206 93.8914 65.5143 94.3152 64.4355 94.7676V138.776Z" fill="#F8760F"/>
<path d="M52.8301 101.786V131.757C53.8845 132.673 54.9928 133.526 56.1489 134.31V99.2227C55.9737 99.3426 55.8054 99.4557 55.6233 99.5654C54.6539 100.256 53.7215 100.998 52.8301 101.786V101.786Z" fill="#F8760F"/>
<path d="M61.9439 95.8921C60.7998 96.4473 59.6901 97.0333 58.625 97.6571V135.894C59.6557 136.504 60.7792 137.091 61.9439 137.653V95.8921Z" fill="#F8760F"/>
<path d="M139.444 107.493H45.0391V118.186H139.444V107.493Z" fill="#F99711"/>
<path d="M125.952 125.27C110.519 136.203 82.6178 137.862 63.6323 128.975C44.6469 120.088 41.7643 104.022 57.1939 93.0922C72.6235 82.1628 100.528 80.5006 119.513 89.3874C138.499 98.2741 141.381 114.344 125.952 125.27Z" fill="url(#paint5_linear_5874_29792)"/>
<path d="M62.4826 130.322C42.2466 120.849 39.1613 103.661 55.6113 92.0054C72.0613 80.3495 101.907 78.5742 122.143 88.047C142.379 97.5198 145.468 114.711 129.014 126.367C112.561 138.023 82.7221 139.798 62.4826 130.322ZM118.367 90.7237C100.691 82.4538 74.6277 84.0029 60.2598 94.1817C45.8918 104.361 48.5785 119.372 66.2619 127.645C83.9452 135.918 110.001 134.369 124.369 124.19C138.737 114.012 136.04 99.0004 118.367 90.7237Z" fill="#FFBF47"/>
<path d="M118.365 90.7235C100.689 82.4536 74.6257 84.0027 60.2577 94.1815C53.7815 98.7706 50.7856 104.343 51.0536 109.834C51.3319 104.816 54.3484 99.809 60.2577 95.6175C74.6257 85.4387 100.689 83.8896 118.365 92.1629C128.071 96.704 133.245 103.281 133.571 109.984C133.97 102.794 128.758 95.5935 118.365 90.7235Z" fill="#F8760F"/>
<path d="M129.017 126.366C112.57 138.019 82.7213 139.797 62.4817 130.321C51.333 125.105 45.403 117.545 45.0664 109.857C44.6816 118.031 50.639 126.215 62.4817 131.761C82.7213 141.233 112.57 139.458 129.017 127.802C136.404 122.569 139.839 116.218 139.561 109.95C139.293 115.745 135.84 121.53 129.017 126.366Z" fill="#FFE3B2"/>
<path d="M114.101 109.611V106.526L112.799 106.338C112.045 105.406 111.179 104.572 110.219 103.853L110.033 103.709L113.668 101.619V98.6164L111.064 100.118L108.697 98.7466L105.052 100.861L104.801 100.748C102.234 99.5829 93.3361 96.0803 86.6262 99.9461C86.1709 100.206 85.7326 100.495 85.3138 100.81L83.2799 100.923V104.168C83.3692 106.602 86.4373 109.083 90.1237 111.729C94.8444 115.156 95.8957 117.415 93.4357 118.83C90.4433 120.544 85.6265 119.92 80.8646 117.178C77.9512 115.502 75.2817 112.555 76.3089 110.05L76.4739 109.645V106.643L69.0391 107.959V110.937V111.393H69.0562C69.228 114.454 72.1483 116.979 74.1823 118.381L74.3953 118.525L70.4065 120.814L75.3813 123.68L79.5797 121.26L79.8339 121.387C85.1558 124.046 93.099 125.249 98.8435 121.942C105.756 117.96 101.001 113.717 95.0642 109.371C91.4293 106.729 88.88 104.573 91.7729 102.907C94.4493 101.365 98.5789 101.975 103.111 104.576C105.859 106.167 107.646 108.511 107.429 110.279L107.385 110.642L113.514 111.972L113.741 111.434C113.96 110.917 114.084 110.364 114.105 109.803L114.101 109.611Z" fill="#F8760F"/>
<path d="M114.098 106.533V106.65C114.093 107.263 113.967 107.87 113.727 108.435L113.504 108.973L107.378 107.644L107.419 107.277C107.639 105.508 105.856 103.164 103.1 101.577C98.5824 98.9728 94.4562 98.3662 91.7626 99.9118C90.1238 100.854 90.2337 101.968 91.3057 103.219C89.179 104.823 91.6493 106.886 95.0506 109.388C98.1598 111.667 100.943 113.915 101.905 116.105C102.767 118.107 102.118 120.057 98.8298 121.952C93.0888 125.259 85.1421 124.06 79.8168 121.4L79.566 121.277L75.3676 123.697L70.4065 120.814L73.0108 119.313L74.385 118.518L74.1789 118.374C73.4723 117.895 72.7996 117.369 72.1656 116.798L74.385 115.523L74.1789 115.375C72.1175 113.977 69.2178 111.455 69.0254 108.408V107.959L76.467 106.643V109.642L76.4258 109.744L76.3021 110.05C75.2714 112.551 77.9409 115.502 80.8544 117.175C85.6162 119.916 90.433 120.554 93.422 118.83C94.8822 117.99 95.1021 116.859 94.0645 115.355C95.6346 113.943 94.3497 111.808 90.1135 108.733C86.3755 106.043 83.2662 103.521 83.2662 101.053V100.937L85.2898 100.82C85.7121 100.509 86.1514 100.222 86.6057 99.9598C93.3121 96.0905 102.21 99.5931 104.784 100.758L105.031 100.875L108.673 98.7808L111.037 100.152L113.648 98.6472V101.622L112.071 102.534L110.009 103.719L110.188 103.857C111.148 104.577 112.016 105.413 112.772 106.345L114.064 106.53L114.098 106.533Z" fill="#F8760F"/>
<path d="M102.258 117.898V114.55L99.6367 114.526V118.176L102.258 117.898Z" fill="#F8760F"/>
<path d="M70.4078 117.815L74.3966 115.519L74.1836 115.375C71.5416 113.562 67.4428 109.892 69.6829 105.601L69.9543 105.087L76.4821 106.643L76.3172 107.047C75.2865 109.552 77.9594 112.5 80.8729 114.179C85.6347 116.921 90.4515 117.551 93.444 115.828C95.9039 114.412 94.8526 112.157 90.132 108.73C84.2914 104.542 80.0036 100.762 86.631 96.9436C93.3409 93.0812 102.239 96.5804 104.806 97.7456L105.057 97.8587L108.698 95.7613L113.67 98.6264L110.038 100.72L110.22 100.861C113.656 103.534 114.773 105.94 113.732 108.435L113.505 108.97L107.376 107.64L107.42 107.297C107.637 105.525 105.86 103.185 103.102 101.591C98.5837 98.9897 94.454 98.3831 91.7639 99.9253C88.8745 101.588 91.4204 103.743 95.0553 106.386C100.989 110.742 105.744 114.978 98.8345 118.957C93.0901 122.264 85.1468 121.061 79.825 118.401L79.5707 118.278L75.3724 120.694L70.4078 117.815Z" fill="#F3F3F3"/>
<path d="M75.3816 120.677V123.679L70.4102 120.814V117.815L75.3816 120.677Z" fill="#F8760F"/>
<path d="M74.3933 115.523L72.1739 116.798C70.6209 115.389 69.178 113.514 69.0577 111.386H69.0371V110.93V108.401C69.2192 111.448 72.1292 113.97 74.1906 115.368L74.3933 115.523Z" fill="#F8760F"/>
<path d="M94.0829 115.354C93.3717 114.326 92.0593 113.123 90.1319 111.732C88.4405 110.572 86.8437 109.28 85.3563 107.869C84.1195 106.615 83.3258 105.388 83.2949 104.168V101.053C83.2949 103.52 86.4042 106.043 90.1422 108.733C94.3681 111.807 95.653 113.96 94.0829 115.354Z" fill="#F8760F"/>
<path d="M114.097 106.65C114.092 107.263 113.966 107.87 113.726 108.435L113.503 108.973L107.377 107.643L107.418 107.277C107.638 105.508 105.855 103.164 103.099 101.577C98.5815 98.9726 94.4553 98.366 91.7617 99.9116C90.1229 100.854 90.2328 101.968 91.3047 103.219C92.119 104.175 93.4795 105.231 95.0496 106.368C99.5881 109.696 103.436 112.962 101.904 116.091C101.433 117.051 100.454 118.004 98.8289 118.939C93.0879 122.247 85.1412 121.04 79.8159 118.388L79.5651 118.257L75.3667 120.677L72.9961 119.306L70.3918 117.809L72.1578 116.78L74.3772 115.505L74.1711 115.358C72.1097 113.96 69.21 111.437 69.0176 108.391V107.942C69.0465 107.119 69.2639 106.313 69.6532 105.587L69.9246 105.07L76.4524 106.626L76.2874 107.027C76.1216 107.461 76.047 107.925 76.0683 108.39C76.0896 108.854 76.2063 109.309 76.4111 109.727C77.1361 111.441 78.9329 113.065 80.8397 114.159C85.6015 116.9 90.4183 117.538 93.4074 115.814C93.6424 115.685 93.8586 115.525 94.0498 115.337C95.6199 113.925 94.335 111.79 90.0988 108.716C86.3608 106.026 83.2515 103.503 83.2515 101.036C83.2481 100.992 83.2481 100.949 83.2515 100.906C83.3065 99.5689 84.2822 98.2529 86.591 96.93C93.2974 93.0641 102.196 96.5633 104.769 97.7285L105.016 97.8382L108.658 95.7441L113.633 98.6093L111.022 100.114L109.991 100.7L110.17 100.844C110.838 101.354 111.466 101.915 112.049 102.52C113.362 103.891 114.011 105.2 114.045 106.516C114.067 106.558 114.085 106.603 114.097 106.65Z" fill="#FFEDD2"/>
<path d="M107.377 110.642V107.64L113.506 108.97V111.972L107.377 110.642Z" fill="#F8760F"/>
<path d="M110.109 82.4775C89.8698 73.0047 60.0242 74.78 43.5742 86.4325C27.1242 98.085 30.2094 115.279 50.4455 124.752C70.6816 134.225 100.534 132.467 116.984 120.814C133.434 109.162 130.345 91.9503 110.109 82.4775Z" fill="#F99711"/>
<path d="M102.194 79.4756C101.105 79.1329 99.995 78.8518 98.875 78.5742V128.649C99.9985 128.375 101.108 128.077 102.194 127.748V79.4756Z" fill="#F8760F"/>
<path d="M96.3868 78.0085C95.2873 77.78 94.1799 77.5755 93.0645 77.395V129.831C94.181 129.653 95.2908 129.454 96.3868 129.228V78.0085Z" fill="#F8760F"/>
<path d="M119.624 118.727V88.4956C118.567 87.5916 117.459 86.7494 116.305 85.9731V121.253C116.531 121.099 116.762 120.951 116.992 120.797C117.93 120.129 118.796 119.443 119.624 118.727Z" fill="#F8760F"/>
<path d="M108.004 81.5488C106.922 81.0964 105.812 80.6783 104.686 80.2876V126.946C105.819 126.555 106.926 126.13 108.004 125.681V81.5488Z" fill="#F8760F"/>
<path d="M122.113 116.325C123.409 114.927 124.524 113.373 125.432 111.698V95.5491C124.523 93.872 123.408 92.3143 122.113 90.9121V116.325Z" fill="#F8760F"/>
<path d="M90.5781 77.039C89.4753 76.8985 88.369 76.7785 87.2559 76.6963V130.541C88.3725 130.445 89.4753 130.322 90.5781 130.198V77.039Z" fill="#F8760F"/>
<path d="M110.494 124.584C111.638 124.036 112.748 123.457 113.813 122.84V84.407C112.782 83.8039 111.659 83.2247 110.494 82.666V124.584Z" fill="#F8760F"/>
<path d="M81.4492 130.825C82.5555 130.825 83.6652 130.774 84.7681 130.715V76.5106C83.6618 76.4489 82.5555 76.4146 81.4492 76.4009V130.825Z" fill="#F8760F"/>
<path d="M73.147 76.6997C72.0338 76.7957 70.9275 76.9259 69.8281 77.0664V130.171C70.9275 130.315 72.0373 130.435 73.147 130.531V76.6997Z" fill="#F8760F"/>
<path d="M78.9575 76.4048C77.8478 76.4253 76.7415 76.4596 75.6387 76.5213V130.709C76.7415 130.771 77.8512 130.808 78.9575 130.825V76.4048Z" fill="#F8760F"/>
<path d="M67.3384 77.4326C66.2218 77.6143 65.1121 77.8165 64.0195 78.0461V129.187C65.1155 129.417 66.2218 129.629 67.3384 129.811V77.4326Z" fill="#F8760F"/>
<path d="M34.9648 111.393C35.8647 113.11 36.9812 114.705 38.2871 116.14V91.0698C36.9819 92.4972 35.8654 94.0855 34.9648 95.7959V111.393Z" fill="#F8760F"/>
<path d="M61.5298 78.6187C60.4063 78.8963 59.3 79.1944 58.2109 79.5234V127.707C59.3 128.049 60.4098 128.337 61.5298 128.615V78.6187Z" fill="#F8760F"/>
<path d="M52.4004 125.613C53.4826 126.069 54.5923 126.487 55.7192 126.881V80.3394C54.5889 80.7335 53.4792 81.155 52.4004 81.6108V125.613Z" fill="#F8760F"/>
<path d="M40.7812 88.6294V118.597C41.8359 119.516 42.9453 120.371 44.1035 121.157V86.0796C43.9283 86.1995 43.76 86.3126 43.5744 86.4223C42.6069 87.1108 41.6746 87.8475 40.7812 88.6294V88.6294Z" fill="#F8760F"/>
<path d="M49.9087 82.7349C48.7646 83.2866 47.6549 83.8761 46.5898 84.4965V122.73C47.6377 123.34 48.7474 123.926 49.9087 124.489V82.7349Z" fill="#F8760F"/>
<path d="M127.409 94.3325H33.0039V105.025H127.409V94.3325Z" fill="#F99711"/>
<path d="M113.915 112.12C98.4857 123.056 70.5846 124.715 51.5957 115.828C32.6068 106.942 29.7277 90.8715 45.1607 79.9352C60.5937 68.999 88.4913 67.3505 107.477 76.2304C126.462 85.1103 129.348 101.187 113.915 112.12Z" fill="url(#paint6_linear_5874_29792)"/>
<path d="M50.4505 117.165C30.211 107.692 27.1292 90.5011 43.5792 78.8486C60.0292 67.1961 89.8714 65.4174 110.111 74.8902C130.35 84.363 133.432 101.554 116.982 113.21C100.532 124.866 70.6969 126.641 50.4505 117.165ZM106.332 77.5668C88.6586 69.2935 62.5922 70.8461 48.2277 81.0249C33.8631 91.2037 36.5464 106.215 54.2263 114.488C71.9063 122.761 97.9692 121.212 112.334 111.034C126.698 100.855 124.008 85.8572 106.332 77.5668Z" fill="#FFCB5D"/>
<path d="M106.328 77.5667C88.655 69.2934 62.5886 70.846 48.2241 81.0248C41.7478 85.6138 38.7485 91.183 39.0165 96.6768C39.2948 91.656 42.3113 86.6488 48.2241 82.4608C62.5886 72.282 88.655 70.7294 106.328 79.0027C116.044 83.5472 121.198 90.124 121.541 96.8242C121.936 89.6271 116.731 82.4299 106.328 77.5667Z" fill="#F8760F"/>
<path d="M116.983 113.209C100.533 124.865 70.6942 126.64 50.4478 117.164C39.299 111.944 33.3691 104.384 33.0289 96.7002C32.6476 104.871 38.605 113.058 50.4478 118.6C70.6942 128.076 100.533 126.298 116.983 114.645C124.37 109.412 127.802 103.061 127.527 96.7927C127.256 102.588 123.803 108.373 116.983 113.209Z" fill="#FFE3B2"/>
<path d="M102.069 96.4501V93.3657L100.767 93.1772C100.011 92.2454 99.1434 91.4097 98.1833 90.689L98.0012 90.5485L101.636 88.4545V85.4557L99.0284 86.9568L96.6613 85.5859L93.0263 87.7039L92.7755 87.5874C90.2056 86.4221 81.3073 82.923 74.5974 86.7854C74.1431 87.0465 73.7059 87.3361 73.2884 87.6525L71.2545 87.7656V90.9975C71.3438 93.4308 74.4119 95.9155 78.1018 98.5613C82.819 101.989 83.8703 104.244 81.4103 105.659C78.4179 107.373 73.6011 106.752 68.8427 104.011C65.9258 102.331 63.2597 99.3838 64.287 96.8785L64.4519 96.4776V93.4788L57.0137 94.7914V97.7696V98.2117H57.0343C57.2026 101.269 60.1264 103.798 62.1603 105.2L62.3699 105.344L58.3845 107.64L63.3456 110.533L67.5474 108.113L67.7982 108.24C73.1235 110.899 81.0668 112.099 86.8112 108.792C93.7203 104.813 88.9688 100.566 83.032 96.224C79.4005 93.5782 76.8478 91.4259 79.7406 89.7603C82.4204 88.218 86.5467 88.8246 91.0783 91.4293C93.8268 93.0161 95.6168 95.3637 95.4004 97.1322L95.3557 97.4749L101.485 98.8081L101.708 98.27C101.929 97.7529 102.053 97.2002 102.076 96.6387V96.6387L102.069 96.4501Z" fill="#F8760F"/>
<path d="M102.068 93.3765V93.493C102.064 94.1072 101.937 94.7143 101.694 95.2786L101.474 95.8167L95.3445 94.4869L95.3858 94.1202C95.6091 92.3483 93.826 90.0076 91.0671 88.4208C86.5492 85.8161 82.423 85.2095 79.7294 86.7517C78.0941 87.6976 78.204 88.808 79.2725 90.059C77.1458 91.6663 79.616 93.7261 83.0174 96.2279C86.1266 98.5105 88.913 100.759 89.8887 102.949C90.7545 104.947 90.1051 106.897 86.7966 108.796C81.0556 112.103 73.1123 110.903 67.7836 108.244L67.5362 108.117L63.3482 110.533L58.3733 107.668L60.9776 106.163L62.3518 105.372L62.1457 105.228C61.4402 104.748 60.7687 104.22 60.1358 103.648L62.3518 102.373L62.1457 102.229C60.1015 100.831 57.1846 98.3083 56.9922 95.2615V94.8022L64.4338 93.4862V96.485L64.3926 96.5878L64.2655 96.8894C63.2348 99.3912 65.9043 102.342 68.8212 104.018C73.5796 106.76 78.3964 107.394 81.3889 105.673C82.8456 104.83 83.0689 103.699 82.0313 102.198C83.598 100.786 82.313 98.6475 78.0803 95.5733C74.3423 92.8864 71.233 90.364 71.233 87.8964V87.7662L73.2566 87.6496C73.6771 87.3367 74.1153 87.0484 74.5691 86.786C81.2789 82.9201 90.1773 86.4227 92.7472 87.5879L92.9945 87.7045L96.6363 85.607L99.0001 86.9779L101.611 85.4734V88.4722L100.038 89.3804L97.9762 90.5662L98.1583 90.7067C99.1184 91.4274 99.9862 92.2631 100.742 93.1949L102.034 93.3799L102.068 93.3765Z" fill="#F8760F"/>
<path d="M90.2284 104.738V101.393L87.6035 101.369V105.015L90.2284 104.738Z" fill="#F8760F"/>
<path d="M58.3763 104.655L62.3616 102.359L62.1521 102.215C59.5066 100.405 55.4079 96.7315 57.6513 92.4441L57.9193 91.9266L64.4471 93.486L64.2822 93.8904C63.2515 96.3957 65.921 99.3431 68.8379 101.019C73.5963 103.761 78.4131 104.395 81.4056 102.671C83.8655 101.255 82.8142 98.9969 78.097 95.5697C72.2564 91.3817 67.9652 87.6049 74.5926 83.787C81.3025 79.9211 90.2009 83.4237 92.7707 84.5889L93.0215 84.702L96.6599 82.6046L101.635 85.4697L98.0033 87.5706L98.1853 87.7145C101.621 90.3878 102.738 92.7937 101.697 95.2852L101.473 95.8233L95.344 94.4936L95.3887 94.1303C95.6052 92.3618 93.8289 90.0176 91.0666 88.4274C86.5487 85.8261 82.4225 85.2161 79.7289 86.7584C76.8395 88.424 79.3854 90.5797 83.0203 93.2221C88.9571 97.5746 93.7087 101.811 86.7995 105.793C81.0551 109.1 73.1118 107.897 67.7866 105.238L67.5358 105.111L63.3339 107.531L58.3763 104.655Z" fill="#F3F3F3"/>
<path d="M63.3498 107.52V110.523L58.375 107.658V104.655L63.3498 107.52Z" fill="#F8760F"/>
<path d="M62.3586 102.362L60.1426 103.637C58.5863 102.232 57.1433 100.358 57.0265 98.2292H57.0059V97.7734V95.2441C57.1845 98.2909 60.098 100.813 62.1594 102.212L62.3586 102.362Z" fill="#F8760F"/>
<path d="M82.0497 102.198C81.3385 101.17 80.0261 99.9631 78.0987 98.5717C76.4067 97.4139 74.8098 96.1235 73.3231 94.7127C72.0863 93.4583 71.2926 92.2314 71.2617 91.0113V87.9131C71.2617 90.3807 74.371 92.9031 78.109 95.59C82.3314 98.6471 83.6164 100.786 82.0497 102.198Z" fill="#F8760F"/>
<path d="M102.067 93.4928C102.063 94.107 101.936 94.7141 101.693 95.2784L101.473 95.8165L95.3436 94.4867L95.3848 94.12C95.6081 92.3481 93.825 90.0073 91.0662 88.4205C86.5483 85.8159 82.422 85.2092 79.7285 86.7515C78.0931 87.6974 78.203 88.8078 79.2715 90.0588C80.0892 91.0184 81.4497 92.074 83.0164 93.2118C87.5584 96.5396 91.4063 99.8057 89.8877 102.935C89.4205 103.894 88.4379 104.844 86.7956 105.783C81.0546 109.09 73.1114 107.884 67.7827 105.231L67.5353 105.101L63.3335 107.517L60.9629 106.146L58.3586 104.652L60.128 103.624L62.344 102.349L62.1379 102.205C60.0937 100.806 57.1768 98.284 56.9844 95.2373V94.802C57.0121 93.9778 57.2295 93.171 57.62 92.4441L57.888 91.93L64.4157 93.486L64.2474 93.8869C64.0821 94.3218 64.0081 94.7859 64.0299 95.2504C64.0518 95.715 64.1691 96.1701 64.3745 96.5876C65.0994 98.3012 66.8963 99.9223 68.8031 101.019C73.5615 103.761 78.3783 104.395 81.3707 102.674C81.6037 102.542 81.8195 102.382 82.0132 102.198C83.5799 100.786 82.2949 98.6473 78.0622 95.5731C74.3242 92.8862 71.2149 90.3638 71.2149 87.8962C71.2115 87.8528 71.2115 87.8093 71.2149 87.766C71.2699 86.4293 72.2456 85.1133 74.5509 83.787C81.2608 79.9211 90.1592 83.4237 92.729 84.5889L92.9764 84.6986L96.6182 82.6046L101.593 85.4697L98.9819 86.9743L97.9512 87.5569L98.1333 87.7043C98.8003 88.2148 99.4284 88.7738 100.013 89.3767C101.325 90.7476 101.974 92.0602 102.009 93.3763C102.032 93.4131 102.052 93.4522 102.067 93.4928V93.4928Z" fill="#FFEDD2"/>
<path d="M95.3438 97.4817V94.4829L101.473 95.8127V98.8115L95.3438 97.4817Z" fill="#F8760F"/>
<path d="M117.465 51.6911C95.6103 47.0061 66.9157 55.4337 53.5166 70.4825C40.1175 85.5314 46.9888 101.588 68.8568 106.276C90.7248 110.965 119.395 102.534 132.791 87.4849C146.187 72.436 139.322 56.383 117.465 51.6911Z" fill="#F99711"/>
<path d="M109.078 50.5565C107.941 50.4811 106.794 50.4434 105.643 50.4263L116.939 99.216C117.97 98.6951 118.983 98.157 119.969 97.5949L109.078 50.5565Z" fill="#F8760F"/>
<path d="M103.089 50.4194C101.969 50.4434 100.842 50.4914 99.7148 50.5668L111.54 101.649C112.571 101.224 113.626 100.782 114.633 100.313L103.089 50.4194Z" fill="#F8760F"/>
<path d="M134.91 84.8765L128.09 55.4197C126.857 54.7755 125.587 54.2033 124.287 53.7061L132.248 88.0809C132.433 87.8787 132.625 87.6834 132.804 87.4812C133.567 86.6175 134.275 85.747 134.91 84.8765Z" fill="#F8760F"/>
<path d="M115.204 51.2625C114.046 51.0638 112.871 50.9198 111.686 50.7759L122.23 96.2378C123.242 95.6049 124.225 94.9457 125.177 94.2603L115.204 51.2625Z" fill="#F8760F"/>
<path d="M136.799 81.9774C137.743 80.3244 138.478 78.5607 138.987 76.7269L135.345 60.9892C134.082 59.5593 132.643 58.2928 131.064 57.2192L136.799 81.9774Z" fill="#F8760F"/>
<path d="M97.21 50.7793C96.1037 50.889 94.9974 51.0192 93.8945 51.1769L106.043 103.654C107.108 103.312 108.156 102.941 109.197 102.558L97.21 50.7793Z" fill="#F8760F"/>
<path d="M127.336 92.6188C128.328 91.8306 129.275 91.0149 130.178 90.1718L121.513 52.7433C120.355 52.4006 119.142 52.0578 117.885 51.7905L127.336 92.6188Z" fill="#F8760F"/>
<path d="M100.444 105.234C101.522 104.972 102.592 104.687 103.653 104.381L91.425 51.585C90.3359 51.7735 89.2502 51.9894 88.168 52.2224L100.444 105.234Z" fill="#F8760F"/>
<path d="M80.15 54.3608C79.085 54.7036 78.0371 55.0771 76.9961 55.4644L88.9763 107.215C90.0825 107.109 91.1888 106.975 92.2917 106.821L80.15 54.3608Z" fill="#F8760F"/>
<path d="M85.7441 52.7705C84.6687 53.0344 83.5968 53.3189 82.5352 53.6273L94.7455 106.42C95.8346 106.232 96.9237 106.019 98.006 105.786L85.7441 52.7705Z" fill="#F8760F"/>
<path d="M74.6526 56.3828C73.6059 56.8124 72.5752 57.2602 71.5605 57.7263L83.0975 107.558C84.2176 107.534 85.3445 107.493 86.4714 107.421L74.6526 56.3828Z" fill="#F8760F"/>
<path d="M50.7681 96.7316C52.0319 98.2031 53.4785 99.508 55.0729 100.615L49.4281 76.1855C48.4795 77.8724 47.752 79.6739 47.2637 81.5457L50.7681 96.7316Z" fill="#F8760F"/>
<path d="M69.2627 58.8369C68.232 59.3613 67.2013 59.8993 66.2324 60.4648L77.0994 107.418C78.2366 107.496 79.3842 107.541 80.5351 107.558L69.2627 58.8369Z" fill="#F8760F"/>
<path d="M70.9701 106.681C72.1245 106.883 73.3029 107.023 74.4882 107.171L63.9888 61.8149C62.9581 62.4558 61.9893 63.1173 61.041 63.7993L70.9701 106.681Z" fill="#F8760F"/>
<path d="M51.3066 73.248L58.068 102.448C59.3018 103.105 60.5741 103.688 61.8782 104.192L53.9762 70.0195C53.8319 70.1738 53.6841 70.3246 53.5433 70.4822C52.7505 71.3651 52.0039 72.2883 51.3066 73.248Z" fill="#F8760F"/>
<path d="M58.8691 65.4546C57.8773 66.252 56.9314 67.0734 56.0312 67.9188L64.6548 105.169C65.8137 105.528 67.0242 105.851 68.2863 106.139L58.8691 65.4546Z" fill="#F8760F"/>
<path d="M136.986 59.3812L45 80.5654L47.4113 90.9842L139.397 69.8L136.986 59.3812Z" fill="#F99711"/>
<path d="M127.861 79.722C115.293 93.8387 88.481 101.718 67.9769 97.3208C47.4728 92.9237 41.0378 77.9125 53.6089 63.7958C66.18 49.6792 92.9886 41.7966 113.493 46.1937C133.997 50.5908 140.439 65.602 127.861 79.722Z" fill="url(#paint7_linear_5874_29792)"/>
<path d="M67.1602 98.8803C45.3059 94.1918 38.4209 78.1354 51.82 63.0865C65.2191 48.0376 93.8966 39.6101 115.754 44.2951C137.612 48.9801 144.494 65.04 131.095 80.0889C117.695 95.1377 89.0145 103.569 67.1602 98.8803ZM112.676 47.7566C93.5908 43.6611 68.5414 51.0228 56.8395 64.1661C45.1376 77.3094 51.15 91.3335 70.2386 95.4256C89.3271 99.5177 114.373 92.1595 126.072 79.0025C137.77 65.8454 131.764 51.8487 112.676 47.7566Z" fill="#FFD579"/>
<path d="M112.677 47.7563C93.5916 43.6608 68.5421 51.0224 56.8402 64.1658C51.5665 70.0914 49.9036 76.1918 51.4016 81.4835C50.5427 76.5311 52.3498 70.9756 57.1666 65.5675C68.8651 52.4242 93.9283 45.0625 113 49.1546C123.482 51.4029 130.01 56.6499 131.837 63.0965C130.607 56.0125 123.908 50.1656 112.677 47.7563Z" fill="#F8760F"/>
<path d="M131.096 80.0925C117.697 95.1413 89.0163 103.569 67.162 98.8838C55.1372 96.2997 47.6371 90.2644 45.5723 82.8514C47.0462 90.9019 54.6974 97.5404 67.4849 100.282C89.3427 104.971 118.024 96.5396 131.419 81.4942C137.439 74.7357 139.352 67.7854 137.669 61.7329C138.723 67.4358 136.662 73.8618 131.096 80.0925Z" fill="#FFEDD2"/>
<path d="M112.784 67.1135V67.0656L112.097 64.1182L110.784 64.2278C109.833 63.4891 108.795 62.8698 107.692 62.384L107.483 62.288L110.551 59.4332L109.863 56.5098L107.665 58.5661L105.071 57.7538L101.996 60.6156L101.728 60.5607C98.9621 60.0021 89.5037 58.5901 83.8383 63.8611C83.4522 64.2154 83.0895 64.5944 82.7526 64.9955L80.7977 65.5644L81.5295 68.7243C82.1651 71.0754 85.7142 72.8061 89.9057 74.5506C95.2756 76.8297 96.8079 78.79 94.7328 80.7196C92.2041 83.0706 87.3667 83.5367 82.1102 81.9328C78.8944 80.9526 75.627 78.6804 76.0634 76.0072L76.1355 75.5787L75.4484 72.6553L68.498 75.6027L69.1646 78.5056L69.2608 78.9374H69.2779C70.1334 81.878 73.5382 83.6875 75.8504 84.5957L76.0874 84.6883L72.7205 87.8173L78.2175 89.4932L81.7769 86.1997L82.0517 86.2682C87.8374 87.6631 95.8494 87.053 100.701 82.5394C106.541 77.1107 100.948 74.0502 94.1728 71.1405C90.05 69.3789 87.0678 67.8504 89.5071 65.5816C91.7712 63.4773 95.9284 63.1448 100.92 64.6631C103.968 65.5919 106.229 67.4803 106.417 69.2521L106.459 69.6154L112.729 69.5366L112.825 68.9608C112.927 68.4079 112.927 67.8412 112.825 67.2883L112.784 67.1135Z" fill="#F8760F"/>
<path d="M112.087 64.1177L112.111 64.2308C112.245 64.8299 112.259 65.4496 112.152 66.0541L112.056 66.6264L105.786 66.7053L105.745 66.342C105.559 64.5667 103.295 62.6817 100.248 61.7564C95.2555 60.2313 91.1018 60.5671 88.8377 62.6749C87.4634 63.9601 87.807 65.0122 89.14 65.9992C87.4222 68.0556 90.2875 69.4984 94.1767 71.1572C97.7189 72.6823 100.938 74.2417 102.371 76.1643C103.663 77.9191 103.47 79.9651 100.691 82.5492C95.843 87.0629 87.831 87.69 82.0419 86.2815L81.7705 86.2163L78.2249 89.5167L72.7278 87.8374L74.9267 85.7811L76.0913 84.6981L75.8577 84.6021C75.0613 84.2944 74.2876 83.9314 73.5421 83.5157L75.418 81.7747L75.1809 81.6822C72.8721 80.7774 69.4639 78.9747 68.6016 76.0444L68.502 75.6091L75.4523 72.6583L76.1223 75.5783V75.688L76.0707 76.0101C75.631 78.6799 78.8948 80.9556 82.1141 81.9323C87.3706 83.5363 92.2081 83.0736 94.7333 80.7225C95.9632 79.5779 95.9254 78.4263 94.5752 77.1959C95.7846 75.4823 94.053 73.6728 89.2328 71.6267C84.9828 69.848 81.3857 68.0898 80.8291 65.6839L80.7982 65.5571L82.7428 64.9882C83.0834 64.5915 83.4459 64.2139 83.8285 63.8572C89.4939 58.5828 98.9454 59.9948 101.721 60.5534L101.989 60.6117L105.064 57.7534L107.675 58.5519L109.881 56.4956L110.568 59.4156L109.239 60.6562L107.5 62.2739L107.706 62.3698C108.809 62.8563 109.847 63.4755 110.798 64.2137L112.101 64.104L112.087 64.1177Z" fill="#F8760F"/>
<path d="M103.114 77.8477L102.358 74.5884L99.7988 75.1504L100.62 78.7045L103.114 77.8477Z" fill="#F8760F"/>
<path d="M72.0685 84.9146L75.4354 81.7821L75.1984 81.6896C72.2128 80.5209 67.3925 77.8545 68.6088 73.1798L68.7531 72.6143L75.4698 72.6692L75.3976 73.0976C74.9613 75.7708 78.2286 78.043 81.4444 79.0232C86.701 80.6271 91.5384 80.161 94.0636 77.81C96.1422 75.877 94.6099 73.9167 89.2537 71.641C82.6228 68.8718 77.5724 66.1575 83.1829 60.9447C88.8483 55.6736 98.2998 57.0891 101.072 57.6477L101.34 57.7025L104.415 54.8408L109.912 56.5167L106.844 59.3716L107.054 59.4675C111.008 61.3011 112.637 63.3951 112.183 66.0581L112.087 66.6304L105.814 66.7127L105.776 66.3494C105.587 64.5775 103.33 62.6891 100.279 61.7604C95.2867 60.2387 91.1296 60.5745 88.8655 62.6788C86.4261 64.9477 89.3945 66.4762 93.5311 68.2378C100.296 71.1475 105.882 74.208 100.059 79.6367C95.2077 84.1469 87.1957 84.7603 81.4101 83.362L81.1352 83.2969L77.5655 86.5905L72.0685 84.9146Z" fill="#F3F3F3"/>
<path d="M77.5546 86.5905L78.2315 89.5139L72.7413 87.838L72.0645 84.9146L77.5546 86.5905Z" fill="#F8760F"/>
<path d="M75.4243 81.7855L73.5484 83.5265C71.7172 82.4983 69.8894 81.0041 69.2916 78.9546H69.2744L69.1748 78.5262L68.6113 76.0586C69.4737 78.9889 72.8819 80.7916 75.1906 81.6964L75.4243 81.7855Z" fill="#F8760F"/>
<path d="M94.5741 77.2073C93.658 76.3642 92.1016 75.4823 89.9051 74.5615C87.9965 73.8112 86.1504 72.9117 84.384 71.8711C82.8963 70.9287 81.845 69.9108 81.5289 68.7318L80.8418 65.6953C81.3984 68.0944 84.9955 69.8594 89.2454 71.6381C94.0588 73.6841 95.7766 75.4766 94.5741 77.2073Z" fill="#F8760F"/>
<path d="M112.113 64.2314C112.248 64.8304 112.262 65.4502 112.155 66.0547L112.058 66.627L105.788 66.7058L105.747 66.3426C105.562 64.5673 103.297 62.6823 100.25 61.7569C95.2579 60.2318 91.1042 60.5677 88.8401 62.6754C87.4659 63.9606 87.8094 65.0128 89.1425 65.9998C90.1526 66.7504 91.7158 67.4735 93.4989 68.2275C98.673 70.4518 103.16 72.772 102.373 76.1649C102.129 77.1931 101.391 78.3515 100.02 79.6298C95.1721 84.14 87.1567 84.7501 81.3676 83.3586L81.0961 83.2867L77.5677 86.5871L74.9532 85.792L72.0706 84.918L73.5617 83.5266L75.4376 81.7855L75.2005 81.693C72.8918 80.7882 69.4836 78.9855 68.6212 76.0553L68.5216 75.62C68.3614 74.8109 68.3908 73.9758 68.6075 73.1798L68.7552 72.6178L75.472 72.6692L75.4032 73.0942C75.3396 73.5549 75.3714 74.0238 75.4967 74.4718C75.6219 74.9199 75.838 75.3375 76.1316 75.6988C77.2241 77.1931 79.344 78.3823 81.4466 79.0232C86.7066 80.6272 91.5406 80.1645 94.0658 77.8134C94.2641 77.6343 94.4385 77.4304 94.5846 77.2068C95.7939 75.4932 94.0623 73.6836 89.2421 71.6376C84.9922 69.8589 81.395 68.1007 80.8385 65.6948C80.8268 65.6521 80.8188 65.6086 80.8144 65.5646C80.5671 64.2519 81.2267 62.7474 83.1678 60.9413C88.8333 55.6702 98.2848 57.0822 101.061 57.6409L101.329 57.6923L104.404 54.834L109.901 56.5099L107.695 58.5662L106.829 59.3682L107.039 59.4676C107.804 59.8161 108.542 60.2205 109.248 60.6774C110.835 61.7056 111.763 62.8502 112.096 64.1252C112.105 64.16 112.111 64.1956 112.113 64.2314V64.2314Z" fill="#FFEDD2"/>
<path d="M106.462 69.6292L105.785 66.7058L112.055 66.6235L112.732 69.5469L106.462 69.6292Z" fill="#F8760F"/>
</g>
<defs>
<linearGradient id="paint0_linear_5874_29792" x1="18.2133" y1="173.123" x2="169.436" y2="19.3125" gradientUnits="userSpaceOnUse">
<stop offset="0.0416667" stop-color="#47BAD8"/>
<stop offset="0.34375" stop-color="#6A6CE9"/>
<stop offset="0.609375" stop-color="#9454E6"/>
<stop offset="1" stop-color="#CE57D3"/>
</linearGradient>
<linearGradient id="paint1_linear_5874_29792" x1="12.1205" y1="179.519" x2="175.591" y2="13.2521" gradientUnits="userSpaceOnUse">
<stop offset="0.0416667" stop-color="#47BAD8"/>
<stop offset="0.34375" stop-color="#6A6CE9"/>
<stop offset="0.609375" stop-color="#9454E6"/>
<stop offset="1" stop-color="#CE57D3"/>
</linearGradient>
<linearGradient id="paint2_linear_5874_29792" x1="159.433" y1="158.2" x2="56.3721" y2="58.0908" gradientUnits="userSpaceOnUse">
<stop offset="0.01" stop-color="#FF55AA"/>
<stop offset="0.25" stop-color="#B850C9"/>
<stop offset="0.62" stop-color="#6572D6"/>
<stop offset="1" stop-color="#4EAEB8"/>
</linearGradient>
<linearGradient id="paint3_linear_5874_29792" x1="23.6661" y1="167.209" x2="163.922" y2="24.5525" gradientUnits="userSpaceOnUse">
<stop offset="0.0416667" stop-color="#47BAD8"/>
<stop offset="0.34375" stop-color="#6A6CE9"/>
<stop offset="0.609375" stop-color="#9454E6"/>
<stop offset="1" stop-color="#CE57D3"/>
</linearGradient>
<linearGradient id="paint4_linear_5874_29792" x1="23.6661" y1="167.397" x2="163.922" y2="24.7405" gradientUnits="userSpaceOnUse">
<stop offset="0.0416667" stop-color="#47BAD8"/>
<stop offset="0.34375" stop-color="#6A6CE9"/>
<stop offset="0.609375" stop-color="#9454E6"/>
<stop offset="1" stop-color="#CE57D3"/>
</linearGradient>
<linearGradient id="paint5_linear_5874_29792" x1="47.2717" y1="109.186" x2="135.874" y2="109.186" gradientUnits="userSpaceOnUse">
<stop stop-color="#FFD253"/>
<stop offset="1" stop-color="#FF7D00"/>
</linearGradient>
<linearGradient id="paint6_linear_5874_29792" x1="20432.9" y1="32660.5" x2="41092" y2="32660.5" gradientUnits="userSpaceOnUse">
<stop stop-color="#FFD253"/>
<stop offset="1" stop-color="#FF7D00"/>
</linearGradient>
<linearGradient id="paint7_linear_5874_29792" x1="35564.4" y1="23049.4" x2="57447.7" y2="17984.7" gradientUnits="userSpaceOnUse">
<stop stop-color="#FFD253"/>
<stop offset="1" stop-color="#FF7D00"/>
</linearGradient>
<clipPath id="clip0_5874_29792">
<rect width="160.309" height="172.21" fill="white" transform="matrix(-1 0 0 1 173.607 2.00146)"/>
</clipPath>
</defs>
</svg>
