<svg width="187" height="188" viewBox="0 0 187 188" fill="none" xmlns="http://www.w3.org/2000/svg">
<path opacity="0.1" d="M7.49915 93.5302C7.49915 141.108 46.0306 179.676 93.5609 179.676C141.091 179.676 179.623 141.108 179.623 93.5302C179.623 45.9527 141.091 7.38422 93.5609 7.38422C46.0306 7.38422 7.49915 45.9527 7.49915 93.5302Z" stroke="url(#paint0_linear_6425_33330)" stroke-width="0.754778"/>
<path opacity="0.05" d="M0.5289 93.5306C0.5289 144.961 42.1809 186.653 93.5605 186.653C144.94 186.653 186.592 144.961 186.592 93.5306C186.592 42.1 144.94 0.407952 93.5605 0.407952C42.1809 0.407952 0.5289 42.1 0.5289 93.5306Z" stroke="url(#paint1_linear_6425_33330)" stroke-width="0.815905"/>
<g clip-path="url(#clip0_6425_33330)">
<path d="M93.5581 173.591C49.2812 173.591 13.3877 137.662 13.3877 93.3423C13.3877 49.0222 49.2812 13.0938 93.5581 13.0938C137.835 13.0938 173.729 49.0222 173.729 93.3423C173.729 137.662 137.835 173.591 93.5581 173.591Z" fill="white"/>
<path opacity="0.1" d="M93.5581 173.591C49.2812 173.591 13.3877 137.662 13.3877 93.3423C13.3877 49.0222 49.2812 13.0938 93.5581 13.0938C137.835 13.0938 173.729 49.0222 173.729 93.3423C173.729 137.662 137.835 173.591 93.5581 173.591Z" fill="url(#paint2_linear_6425_33330)"/>
<path opacity="0.1" d="M13.7377 93.3423C13.7377 137.469 49.4749 173.241 93.5581 173.241C137.641 173.241 173.378 137.469 173.378 93.3423C173.378 49.2152 137.641 13.4438 93.5581 13.4438C49.4749 13.4438 13.7377 49.2152 13.7377 93.3423Z" stroke="url(#paint3_linear_6425_33330)" stroke-width="0.70004"/>
<path opacity="0.1" d="M13.7377 93.5298C13.7377 137.657 49.4749 173.428 93.5581 173.428C137.641 173.428 173.378 137.657 173.378 93.5298C173.378 49.4027 137.641 13.6313 93.5581 13.6313C49.4749 13.6313 13.7377 49.4027 13.7377 93.5298Z" stroke="url(#paint4_linear_6425_33330)" stroke-width="0.70004"/>
</g>
<g clip-path="url(#clip1_6425_33330)">
<rect x="13" y="52.125" width="152.793" height="98.4547" rx="10.7601" transform="rotate(-7.94706 13 52.125)" fill="#363737"/>
<rect x="13.002" y="52.126" width="152.793" height="98.4547" rx="10.7601" transform="rotate(-7.94706 13.002 52.126)" fill="url(#paint5_linear_6425_33330)"/>
<path d="M149.238 115.76L146.258 116.176L146.181 115.626L147.484 114.075C147.674 113.849 147.825 113.623 147.937 113.399C148.048 113.171 148.088 112.941 148.056 112.711L148.045 112.634C148.008 112.366 147.909 112.169 147.748 112.044C147.586 111.914 147.367 111.869 147.09 111.907C146.817 111.945 146.616 112.045 146.486 112.207C146.36 112.363 146.277 112.562 146.237 112.802L145.732 112.69C145.757 112.552 145.796 112.416 145.851 112.282C145.91 112.144 145.991 112.017 146.092 111.903C146.193 111.789 146.321 111.691 146.475 111.609C146.632 111.526 146.82 111.469 147.037 111.439C147.259 111.408 147.46 111.412 147.639 111.453C147.823 111.492 147.98 111.561 148.111 111.66C148.247 111.759 148.355 111.883 148.437 112.032C148.523 112.181 148.579 112.349 148.605 112.537C148.629 112.707 148.626 112.871 148.596 113.027C148.569 113.183 148.521 113.335 148.451 113.484C148.384 113.632 148.299 113.781 148.194 113.931C148.092 114.075 147.976 114.222 147.844 114.37L146.749 115.631L149.173 115.293L149.238 115.76ZM153.072 115.225L150.092 115.641L150.015 115.091L151.318 113.54C151.508 113.314 151.659 113.088 151.771 112.864C151.882 112.636 151.922 112.406 151.89 112.176L151.879 112.099C151.842 111.831 151.743 111.634 151.582 111.508C151.42 111.379 151.201 111.334 150.924 111.372C150.651 111.41 150.45 111.51 150.32 111.672C150.194 111.828 150.111 112.027 150.071 112.267L149.566 112.155C149.591 112.017 149.63 111.881 149.685 111.747C149.744 111.609 149.824 111.482 149.926 111.368C150.027 111.254 150.155 111.156 150.308 111.073C150.466 110.991 150.654 110.934 150.871 110.904C151.093 110.873 151.294 110.877 151.473 110.917C151.657 110.957 151.814 111.026 151.945 111.125C152.081 111.224 152.189 111.348 152.271 111.497C152.357 111.646 152.413 111.814 152.439 112.002C152.463 112.172 152.46 112.335 152.429 112.492C152.403 112.648 152.355 112.8 152.285 112.949C152.218 113.097 152.133 113.246 152.028 113.395C151.926 113.54 151.81 113.686 151.678 113.835L150.583 115.096L153.007 114.758L153.072 115.225ZM154.171 115.971L155.594 109.918L156.055 109.854L154.631 115.907L154.171 115.971ZM159.235 114.443C158.962 114.481 158.72 114.462 158.51 114.387C158.299 114.308 158.116 114.179 157.961 114.001C157.806 113.823 157.678 113.595 157.579 113.318C157.479 113.041 157.404 112.719 157.352 112.352C157.302 111.99 157.287 111.662 157.306 111.368C157.326 111.07 157.385 110.813 157.486 110.6C157.586 110.386 157.728 110.214 157.909 110.084C158.091 109.95 158.318 109.864 158.59 109.826C158.863 109.788 159.105 109.809 159.316 109.888C159.526 109.963 159.709 110.089 159.864 110.267C160.02 110.446 160.147 110.676 160.248 110.957C160.347 111.234 160.422 111.554 160.473 111.917C160.524 112.283 160.54 112.613 160.52 112.907C160.5 113.201 160.44 113.455 160.339 113.669C160.239 113.883 160.098 114.057 159.917 114.191C159.735 114.321 159.508 114.404 159.235 114.443ZM159.17 113.976C159.349 113.951 159.497 113.895 159.616 113.809C159.734 113.719 159.822 113.604 159.881 113.466C159.944 113.327 159.982 113.165 159.996 112.981C160.008 112.792 159.999 112.585 159.967 112.359L159.866 111.63C159.835 111.408 159.787 111.208 159.723 111.03C159.659 110.852 159.578 110.705 159.479 110.589C159.385 110.471 159.269 110.388 159.131 110.337C158.993 110.283 158.835 110.268 158.656 110.293C158.477 110.318 158.328 110.375 158.21 110.466C158.092 110.552 158.001 110.664 157.938 110.804C157.879 110.942 157.843 111.106 157.831 111.295C157.818 111.483 157.827 111.688 157.858 111.91L157.96 112.639C157.991 112.865 158.039 113.067 158.103 113.245C158.166 113.418 158.245 113.564 158.34 113.681C158.439 113.798 158.557 113.883 158.695 113.938C158.832 113.988 158.991 114.001 159.17 113.976ZM158.965 112.512C158.816 112.532 158.708 112.517 158.639 112.466C158.576 112.414 158.538 112.345 158.526 112.26L158.506 112.119C158.494 112.034 158.512 111.958 158.559 111.89C158.611 111.822 158.711 111.778 158.86 111.757C159.009 111.736 159.116 111.752 159.179 111.804C159.247 111.855 159.287 111.923 159.299 112.009L159.319 112.149C159.331 112.235 159.311 112.311 159.26 112.379C159.213 112.447 159.114 112.491 158.965 112.512ZM161.683 114.023L161.618 113.556L162.897 113.377L162.394 109.777L162.35 109.784L161.371 110.989L161.01 110.694L162.039 109.423L162.876 109.306L163.434 113.302L164.611 113.138L164.676 113.605L161.683 114.023Z" fill="white"/>
<path d="M38.5066 130.675L37.9518 129.455L36.3852 129.674L36.1856 130.999L35.6293 131.077L36.3746 126.423L37.0844 126.324L39.0757 130.596L38.5066 130.675ZM36.8313 126.939L36.7738 126.947L36.4479 129.189L37.7587 129.006L36.8313 126.939ZM40.3776 130.414L39.8405 130.489L39.2175 126.026L40.8416 125.799C41.255 125.741 41.5862 125.81 41.8352 126.006C42.0841 126.202 42.2369 126.502 42.2934 126.907C42.344 127.269 42.2906 127.572 42.1334 127.816C41.9762 128.059 41.721 128.223 41.3677 128.307L42.7754 130.079L42.1743 130.163L40.8213 128.409L40.1116 128.509L40.3776 130.414ZM41.1224 127.905C41.3484 127.873 41.5154 127.793 41.6235 127.665C41.7354 127.532 41.7767 127.361 41.7475 127.152L41.7011 126.82C41.6719 126.611 41.5857 126.46 41.4423 126.367C41.3027 126.269 41.1198 126.236 40.8939 126.268L39.8197 126.418L40.0482 128.055L41.1224 127.905ZM45.6958 127.39L45.4986 125.977L45.4474 125.984L44.8279 128.411L43.5676 126.246L43.5164 126.254L43.7137 127.667L44.0261 129.905L43.5338 129.973L42.9107 125.51L43.6013 125.414L44.6627 127.273L44.701 127.268L45.2126 125.189L45.8776 125.096L46.5006 129.559L46.0083 129.628L45.6958 127.39ZM50.0084 129.07L49.4536 127.85L47.887 128.068L47.6874 129.394L47.1311 129.471L47.8764 124.817L48.5861 124.718L50.5775 128.99L50.0084 129.07ZM48.3331 125.334L48.2755 125.342L47.9497 127.584L49.2605 127.401L48.3331 125.334ZM51.2815 125.039L51.2368 125.046L51.7643 128.824L51.2783 128.892L50.6553 124.429L51.4162 124.323L53.4602 127.851L53.5049 127.845L52.9827 124.104L53.4687 124.036L54.0917 128.499L53.3308 128.606L51.2815 125.039ZM54.5852 123.881L55.832 123.707C56.3776 123.63 56.8109 123.761 57.1318 124.099C57.4527 124.436 57.6646 124.974 57.7676 125.711C57.8705 126.449 57.8139 127.024 57.5977 127.436C57.3816 127.849 57.0006 128.093 56.455 128.17L55.2082 128.344L54.5852 123.881ZM56.3643 127.706C56.7224 127.656 56.9736 127.495 57.1182 127.223C57.2669 126.95 57.3098 126.588 57.2467 126.136L57.1503 125.445C57.0872 124.994 56.9468 124.657 56.729 124.435C56.5154 124.213 56.2296 124.127 55.8716 124.177L55.1874 124.272L55.6801 127.802L56.3643 127.706ZM60.3636 127.702C60.0908 127.74 59.8492 127.722 59.6388 127.647C59.4279 127.568 59.2448 127.439 59.0895 127.261C58.9343 127.083 58.8069 126.855 58.7073 126.578C58.6078 126.3 58.5324 125.978 58.4812 125.612C58.4306 125.249 58.4153 124.921 58.4351 124.627C58.4543 124.329 58.5141 124.073 58.6147 123.859C58.7152 123.645 58.8563 123.473 59.0381 123.344C59.2193 123.21 59.4463 123.124 59.7191 123.086C59.992 123.048 60.2338 123.068 60.4448 123.147C60.6552 123.222 60.838 123.349 60.9932 123.527C61.1485 123.705 61.2762 123.935 61.3763 124.217C61.4759 124.494 61.5509 124.814 61.6015 125.176C61.6527 125.543 61.6684 125.873 61.6486 126.167C61.6288 126.461 61.5686 126.715 61.4681 126.929C61.3676 127.143 61.2267 127.317 61.0455 127.451C60.8637 127.58 60.6364 127.664 60.3636 127.702ZM60.2984 127.235C60.4775 127.21 60.624 127.155 60.7381 127.07C60.8516 126.98 60.94 126.866 61.0031 126.726C61.0662 126.587 61.1024 126.426 61.1115 126.242C61.1242 126.053 61.1149 125.846 61.0833 125.62L60.9816 124.891C60.9506 124.669 60.9032 124.47 60.8392 124.292C60.7795 124.113 60.7003 123.966 60.6014 123.849C60.5026 123.732 60.3866 123.649 60.2535 123.598C60.1197 123.543 59.9633 123.527 59.7843 123.552C59.6053 123.577 59.459 123.635 59.3455 123.725C59.2314 123.81 59.1428 123.922 59.0796 124.061C59.0165 124.201 58.9786 124.365 58.9658 124.553C58.9573 124.741 58.9685 124.946 58.9994 125.168L59.1012 125.897C59.1327 126.123 59.1783 126.325 59.238 126.503C59.3014 126.677 59.3825 126.822 59.4813 126.939C59.5802 127.055 59.6965 127.141 59.8302 127.196C59.9633 127.247 60.1194 127.26 60.2984 127.235ZM66.678 126.742L66.055 122.279L67.6791 122.053C68.0925 121.995 68.4237 122.064 68.6727 122.259C68.9216 122.455 69.0743 122.755 69.1309 123.16C69.1874 123.565 69.1227 123.896 68.9369 124.152C68.751 124.408 68.4514 124.565 68.0379 124.623L66.9509 124.775L67.2151 126.667L66.678 126.742ZM66.8857 124.308L67.9599 124.158C68.1859 124.127 68.3529 124.047 68.461 123.919C68.5728 123.786 68.6142 123.615 68.585 123.406L68.5386 123.073C68.5094 122.865 68.4232 122.714 68.2798 122.621C68.1402 122.523 67.9573 122.49 67.7314 122.521L66.6572 122.671L66.8857 124.308ZM73.012 125.858L72.4571 124.638L70.8906 124.857L70.691 126.182L70.1347 126.26L70.88 121.606L71.5897 121.507L73.5811 125.779L73.012 125.858ZM71.3367 122.122L71.2791 122.13L70.9533 124.373L72.2641 124.19L71.3367 122.122ZM74.883 125.597L74.3459 125.672L73.7228 121.209L75.3469 120.982C75.7604 120.925 76.0916 120.993 76.3405 121.189C76.5895 121.385 76.7422 121.685 76.7987 122.09C76.8493 122.452 76.796 122.755 76.6388 122.999C76.4816 123.242 76.2263 123.406 75.873 123.49L77.2807 125.262L76.6797 125.346L75.3267 123.593L74.617 123.692L74.883 125.597ZM75.6278 123.088C75.8537 123.056 76.0207 122.976 76.1289 122.848C76.2407 122.715 76.282 122.544 76.2529 122.336L76.2065 122.003C76.1773 121.794 76.091 121.643 75.9477 121.55C75.808 121.452 75.6252 121.419 75.3993 121.451L74.3251 121.601L74.5536 123.238L75.6278 123.088ZM78.1798 125.137L77.5567 120.674L80.3062 120.29L80.3713 120.757L78.159 121.066L78.3688 122.568L80.5044 122.27L80.5695 122.737L78.4339 123.035L78.6517 124.595L80.8641 124.286L80.9292 124.753L78.1798 125.137ZM81.4226 120.134L82.6695 119.96C83.2151 119.884 83.6484 120.015 83.9693 120.352C84.2902 120.69 84.5021 121.227 84.6051 121.965C84.708 122.702 84.6514 123.277 84.4352 123.69C84.2191 124.103 83.8381 124.347 83.2925 124.423L82.0457 124.597L81.4226 120.134ZM83.2018 123.96C83.5599 123.91 83.8111 123.749 83.9557 123.477C84.1044 123.204 84.1473 122.841 84.0842 122.39L83.9878 121.699C83.9247 121.247 83.7843 120.91 83.5665 120.689C83.3529 120.467 83.0671 120.38 82.7091 120.43L82.0249 120.526L82.5176 124.055L83.2018 123.96ZM85.8476 124.066L85.2246 119.603L87.974 119.22L88.0392 119.686L85.8269 119.995L86.0366 121.498L88.1722 121.2L88.2374 121.666L86.1018 121.965L86.3196 123.525L88.5319 123.216L88.5971 123.683L85.8476 124.066ZM91.0222 123.422C90.6215 123.478 90.2832 123.452 90.0072 123.342C89.7306 123.229 89.4931 123.069 89.2948 122.862L89.6402 122.487C89.8453 122.68 90.0512 122.817 90.2579 122.897C90.4689 122.976 90.7086 122.997 90.9772 122.959C91.3011 122.914 91.5379 122.805 91.6876 122.632C91.8373 122.459 91.8934 122.238 91.8559 121.97C91.8256 121.752 91.7402 121.592 91.6 121.49C91.4591 121.384 91.2316 121.327 90.9176 121.318L90.4072 121.305C90.1845 121.297 89.9932 121.265 89.8332 121.209C89.6776 121.152 89.5476 121.077 89.4432 120.983C89.3382 120.885 89.2576 120.774 89.2014 120.652C89.1446 120.525 89.1063 120.391 89.0867 120.251C89.0296 119.841 89.1207 119.514 89.3601 119.267C89.5995 119.021 89.9473 118.866 90.4034 118.802C90.7614 118.752 91.0703 118.77 91.3299 118.855C91.5938 118.94 91.8155 119.081 91.9951 119.277L91.6633 119.656C91.5171 119.512 91.3495 119.4 91.1604 119.322C90.9714 119.244 90.7383 119.225 90.4612 119.263C90.1586 119.306 89.9352 119.402 89.7911 119.553C89.6469 119.703 89.5927 119.906 89.6284 120.162C89.6564 120.362 89.739 120.518 89.8762 120.629C90.0171 120.736 90.2491 120.795 90.5723 120.806L91.0634 120.822C91.2862 120.83 91.4775 120.862 91.6374 120.918C91.7973 120.974 91.9295 121.049 92.0339 121.143C92.1425 121.236 92.2252 121.347 92.2821 121.473C92.3389 121.6 92.3774 121.736 92.3976 121.881C92.4553 122.294 92.3642 122.637 92.1241 122.91C91.8883 123.182 91.521 123.353 91.0222 123.422Z" fill="white"/>
<path d="M35.8538 118.553C35.5852 118.59 35.3387 118.583 35.1143 118.532C34.8935 118.476 34.7 118.381 34.5336 118.248C34.3667 118.111 34.2296 117.939 34.1226 117.732C34.0155 117.525 33.9432 117.288 33.9057 117.019C33.8623 116.708 33.8702 116.407 33.9296 116.116C33.9884 115.821 34.0781 115.546 34.1988 115.29C34.3232 115.029 34.4683 114.792 34.6339 114.577C34.8038 114.362 34.9757 114.178 35.1497 114.023L36.4733 113.838C36.223 114.069 35.9995 114.289 35.8028 114.499C35.6098 114.704 35.4427 114.908 35.3014 115.11C35.1639 115.307 35.0549 115.507 34.9745 115.71C34.8984 115.911 34.852 116.124 34.8355 116.348L34.8957 116.359C34.9222 116.269 34.9575 116.179 35.0016 116.09C35.0457 116.002 35.1041 115.922 35.1767 115.851C35.2488 115.776 35.3354 115.711 35.4366 115.658C35.5421 115.604 35.6673 115.567 35.8123 115.547C35.9998 115.521 36.1793 115.531 36.3508 115.576C36.5218 115.617 36.6734 115.692 36.8057 115.799C36.9417 115.902 37.0558 116.034 37.1478 116.195C37.2398 116.356 37.3007 116.543 37.3304 116.756C37.3619 116.982 37.3506 117.197 37.2964 117.4C37.2422 117.603 37.1503 117.785 37.0207 117.947C36.8948 118.103 36.7328 118.235 36.5347 118.34C36.3365 118.446 36.1095 118.517 35.8538 118.553ZM35.743 117.806C35.9731 117.773 36.1396 117.689 36.2423 117.553C36.3444 117.413 36.3799 117.232 36.349 117.01L36.3365 116.921C36.3056 116.699 36.2202 116.54 36.0806 116.442C35.9445 116.339 35.7636 116.303 35.5377 116.335C35.3203 116.365 35.1581 116.449 35.0511 116.585C34.9436 116.718 34.9053 116.895 34.9362 117.116L34.9487 117.206C34.9796 117.428 35.0613 117.592 35.1936 117.7C35.3297 117.802 35.5128 117.838 35.743 117.806ZM43.4132 117.419L40.2034 117.867L40.0812 116.991L41.3245 115.625C41.5383 115.382 41.6878 115.177 41.7729 115.008C41.8581 114.84 41.8888 114.67 41.8649 114.5L41.856 114.436C41.8298 114.248 41.7548 114.116 41.6309 114.037C41.5064 113.955 41.3503 113.926 41.1628 113.953C40.9496 113.982 40.7941 114.067 40.6963 114.207C40.5985 114.346 40.538 114.505 40.5149 114.682L39.6327 114.479C39.6624 114.319 39.7125 114.164 39.783 114.015C39.8529 113.862 39.9489 113.724 40.071 113.603C40.1974 113.481 40.348 113.378 40.523 113.292C40.6974 113.203 40.9039 113.141 41.1426 113.108C41.3856 113.074 41.6078 113.078 41.8091 113.119C42.0104 113.161 42.1855 113.232 42.3343 113.333C42.4831 113.434 42.6032 113.563 42.6946 113.719C42.7855 113.872 42.8443 114.044 42.871 114.236C42.8972 114.423 42.8893 114.6 42.8474 114.767C42.8092 114.929 42.7442 115.086 42.6524 115.237C42.5648 115.389 42.4554 115.539 42.3241 115.687C42.197 115.836 42.0592 115.985 41.9109 116.136L41.1524 116.914L43.3008 116.614L43.4132 117.419ZM46.4309 116.998L46.3229 116.224L47.5249 116.057L47.1072 113.064L47.0497 113.072L46.3077 114.388L45.627 113.994L46.4984 112.439L47.969 112.233L48.4841 115.923L49.4304 115.791L49.5384 116.564L46.4309 116.998ZM55.0021 112.979C55.0461 113.294 55.0384 113.597 54.9791 113.888C54.9197 114.179 54.8278 114.455 54.7034 114.715C54.5827 114.971 54.4374 115.207 54.2675 115.422C54.1018 115.636 53.932 115.821 53.7581 115.975L52.4345 116.16C52.6848 115.929 52.9065 115.712 53.0995 115.507C53.2961 115.297 53.4632 115.093 53.6008 114.895C53.7421 114.693 53.8508 114.491 53.9269 114.289C54.0073 114.087 54.0557 113.874 54.0723 113.65L54.0121 113.639C53.9856 113.729 53.9482 113.819 53.8998 113.909C53.8557 113.997 53.7976 114.079 53.7255 114.155C53.6571 114.225 53.5702 114.287 53.4647 114.341C53.3635 114.394 53.2405 114.431 53.0955 114.451C52.908 114.477 52.7287 114.47 52.5578 114.428C52.3863 114.383 52.2326 114.309 52.0965 114.206C51.9642 114.098 51.852 113.964 51.76 113.803C51.668 113.642 51.6071 113.455 51.5774 113.242C51.5458 113.016 51.5572 112.801 51.6114 112.598C51.6656 112.395 51.7556 112.215 51.8815 112.059C52.0111 111.897 52.175 111.764 52.3731 111.658C52.5713 111.552 52.7982 111.481 53.054 111.445C53.3225 111.408 53.5672 111.417 53.788 111.473C54.0124 111.524 54.2081 111.619 54.3751 111.756C54.5414 111.889 54.6781 112.059 54.7852 112.266C54.8923 112.473 54.9646 112.71 55.0021 112.979ZM53.3701 113.663C53.5875 113.633 53.75 113.551 53.8575 113.419C53.9645 113.282 54.0025 113.103 53.9716 112.882L53.9591 112.792C53.9281 112.57 53.8446 112.408 53.7086 112.306C53.5763 112.198 53.395 112.16 53.1648 112.192C52.9346 112.225 52.7685 112.311 52.6664 112.451C52.5637 112.587 52.5278 112.766 52.5588 112.988L52.5713 113.077C52.6022 113.299 52.6857 113.461 52.8217 113.564C52.9614 113.661 53.1442 113.695 53.3701 113.663ZM71.6199 113.56C71.3513 113.597 71.1081 113.599 70.8903 113.564C70.6719 113.525 70.4822 113.458 70.3212 113.363C70.1602 113.268 70.0304 113.147 69.9316 113C69.8366 112.848 69.7759 112.679 69.7497 112.491C69.7093 112.201 69.76 111.957 69.9018 111.759C70.0431 111.557 70.2386 111.402 70.4886 111.293L70.4814 111.242C70.2484 111.192 70.05 111.093 69.8861 110.947C69.7223 110.8 69.6222 110.597 69.5859 110.337C69.5621 110.166 69.5742 110.004 69.6221 109.849C69.6701 109.695 69.753 109.557 69.8709 109.437C69.9882 109.312 70.1388 109.208 70.3229 109.126C70.5064 109.039 70.7239 108.979 70.9754 108.943C71.2226 108.909 71.4463 108.908 71.6465 108.941C71.8503 108.969 72.0257 109.027 72.1727 109.115C72.3192 109.199 72.4366 109.309 72.525 109.444C72.6135 109.58 72.6696 109.733 72.6934 109.903C72.7297 110.163 72.6891 110.386 72.5716 110.572C72.4542 110.758 72.2903 110.907 72.0799 111.019L72.0871 111.07C72.3572 111.106 72.5879 111.202 72.7791 111.358C72.9698 111.509 73.0853 111.73 73.1258 112.02C73.152 112.207 73.138 112.388 73.0839 112.56C73.0334 112.728 72.9438 112.88 72.8149 113.015C72.6861 113.15 72.522 113.267 72.3226 113.364C72.1227 113.457 71.8884 113.522 71.6199 113.56ZM71.5172 112.825C71.7389 112.794 71.9001 112.719 72.0009 112.601C72.106 112.482 72.1463 112.335 72.1219 112.16L72.1041 112.032C72.0791 111.853 72.0022 111.723 71.8734 111.641C71.744 111.554 71.5664 111.527 71.3405 111.559C71.1146 111.59 70.9512 111.665 70.8504 111.783C70.749 111.898 70.7108 112.044 70.7358 112.223L70.7536 112.351C70.778 112.526 70.8549 112.656 70.9843 112.743C71.1179 112.828 71.2955 112.856 71.5172 112.825ZM71.2423 110.855C71.4554 110.825 71.6106 110.754 71.7077 110.64C71.8048 110.527 71.8418 110.387 71.8186 110.221L71.8052 110.125C71.782 109.959 71.7063 109.837 71.5781 109.759C71.4536 109.676 71.2869 109.65 71.078 109.679C70.8692 109.708 70.714 109.78 70.6126 109.894C70.5149 110.003 70.4776 110.141 70.5008 110.307L70.5142 110.403C70.5374 110.569 70.6113 110.693 70.7358 110.776C70.8603 110.859 71.0292 110.885 71.2423 110.855ZM77.6107 112.724C77.3422 112.761 77.0957 112.754 76.8712 112.703C76.6504 112.647 76.4569 112.552 76.2905 112.419C76.1236 112.282 75.9866 112.109 75.8795 111.903C75.7724 111.696 75.7001 111.458 75.6626 111.19C75.6192 110.879 75.6272 110.578 75.6865 110.287C75.7453 109.992 75.835 109.717 75.9558 109.461C76.0802 109.2 76.2252 108.962 76.3908 108.748C76.5607 108.533 76.7327 108.348 76.9066 108.194L78.2302 108.009C77.9799 108.239 77.7564 108.46 77.5597 108.67C77.3667 108.875 77.1996 109.078 77.0584 109.281C76.9208 109.478 76.8118 109.678 76.7314 109.88C76.6553 110.082 76.609 110.295 76.5924 110.519L76.6526 110.53C76.6791 110.44 76.7144 110.35 76.7585 110.261C76.8026 110.172 76.861 110.093 76.9337 110.022C77.0057 109.946 77.0924 109.882 77.1936 109.829C77.299 109.775 77.4243 109.738 77.5692 109.718C77.7567 109.692 77.9363 109.701 78.1078 109.747C78.2787 109.788 78.4303 109.863 78.5627 109.97C78.6987 110.073 78.8127 110.205 78.9047 110.366C78.9967 110.527 79.0576 110.714 79.0873 110.927C79.1189 111.153 79.1075 111.367 79.0533 111.57C78.9991 111.774 78.9072 111.956 78.7777 112.117C78.6518 112.274 78.4898 112.405 78.2916 112.511C78.0934 112.617 77.8665 112.688 77.6107 112.724ZM77.4999 111.976C77.7301 111.944 77.8965 111.86 77.9992 111.724C78.1013 111.584 78.1369 111.403 78.1059 111.181L78.0934 111.092C78.0625 110.87 77.9772 110.71 77.8375 110.613C77.7015 110.51 77.5205 110.474 77.2946 110.506C77.0772 110.536 76.915 110.62 76.8081 110.756C76.7005 110.889 76.6622 111.066 76.6931 111.287L76.7056 111.377C76.7366 111.598 76.8182 111.763 76.9506 111.871C77.0866 111.973 77.2697 112.009 77.4999 111.976ZM82.2225 112.002L82.1145 111.228L83.3166 111.06L82.8989 108.068L82.8413 108.076L82.0994 109.392L81.4186 108.998L82.29 107.442L83.7607 107.237L84.2757 110.926L85.222 110.794L85.33 111.568L82.2225 112.002ZM89.5157 111.062C88.9189 111.145 88.4495 111.004 88.1073 110.639C87.7694 110.273 87.5496 109.726 87.4479 108.997C87.3461 108.268 87.4076 107.682 87.6325 107.237C87.8615 106.793 88.2744 106.528 88.8712 106.445C89.468 106.362 89.9353 106.503 90.2732 106.869C90.6153 107.234 90.8373 107.781 90.939 108.51C91.0408 109.239 90.9771 109.826 90.7481 110.27C90.5233 110.715 90.1125 110.978 89.5157 111.062ZM89.4104 110.307C89.696 110.267 89.8802 110.139 89.963 109.924C90.0502 109.707 90.0687 109.42 90.0188 109.062L89.9027 108.231C89.8527 107.873 89.7562 107.601 89.6132 107.417C89.4744 107.232 89.2622 107.16 88.9766 107.2C88.691 107.24 88.5046 107.368 88.4175 107.584C88.3346 107.8 88.3182 108.087 88.3681 108.445L88.4842 109.276C88.5342 109.634 88.6286 109.906 88.7674 110.091C88.9104 110.275 89.1248 110.347 89.4104 110.307ZM89.2461 109.131C89.0969 109.152 88.9883 109.136 88.9203 109.085C88.8566 109.033 88.8187 108.964 88.8068 108.879L88.7872 108.738C88.7753 108.653 88.7929 108.577 88.84 108.509C88.8913 108.441 88.9916 108.397 89.1408 108.376C89.29 108.355 89.3965 108.371 89.4602 108.423C89.5282 108.474 89.5682 108.543 89.5801 108.628L89.5997 108.768C89.6116 108.854 89.5919 108.93 89.5405 108.998C89.4935 109.066 89.3953 109.11 89.2461 109.131ZM109.031 108.259L105.821 108.707L105.699 107.831L106.943 106.465C107.156 106.222 107.306 106.016 107.391 105.848C107.476 105.68 107.507 105.51 107.483 105.34L107.474 105.276C107.448 105.088 107.373 104.955 107.249 104.877C107.124 104.794 106.968 104.766 106.781 104.792C106.568 104.822 106.412 104.907 106.314 105.047C106.216 105.186 106.156 105.345 106.133 105.522L105.251 105.319C105.28 105.158 105.331 105.004 105.401 104.855C105.471 104.702 105.567 104.564 105.689 104.443C105.815 104.321 105.966 104.217 106.141 104.132C106.315 104.043 106.522 103.981 106.761 103.948C107.004 103.914 107.226 103.918 107.427 103.959C107.628 104.001 107.804 104.072 107.952 104.173C108.101 104.274 108.221 104.402 108.313 104.559C108.403 104.712 108.462 104.884 108.489 105.075C108.515 105.263 108.507 105.44 108.465 105.607C108.427 105.769 108.362 105.925 108.27 106.077C108.183 106.229 108.073 106.379 107.942 106.527C107.815 106.675 107.677 106.825 107.529 106.976L106.77 107.753L108.919 107.453L109.031 108.259ZM113.377 107.731C113.108 107.768 112.865 107.77 112.647 107.735C112.429 107.696 112.239 107.629 112.078 107.534C111.917 107.439 111.787 107.318 111.689 107.171C111.593 107.019 111.533 106.85 111.507 106.662C111.466 106.372 111.517 106.128 111.659 105.93C111.8 105.728 111.996 105.572 112.245 105.464L112.238 105.413C112.005 105.363 111.807 105.264 111.643 105.118C111.479 104.971 111.379 104.768 111.343 104.508C111.319 104.337 111.331 104.175 111.379 104.02C111.427 103.866 111.51 103.728 111.628 103.607C111.745 103.482 111.896 103.379 112.08 103.297C112.263 103.21 112.481 103.149 112.732 103.114C112.98 103.08 113.203 103.079 113.403 103.112C113.607 103.14 113.783 103.198 113.93 103.286C114.076 103.37 114.194 103.48 114.282 103.615C114.37 103.75 114.427 103.903 114.45 104.074C114.487 104.334 114.446 104.557 114.329 104.743C114.211 104.929 114.047 105.077 113.837 105.189L113.844 105.241C114.114 105.277 114.345 105.373 114.536 105.529C114.727 105.68 114.842 105.901 114.883 106.191C114.909 106.378 114.895 106.558 114.841 106.731C114.79 106.899 114.701 107.05 114.572 107.186C114.443 107.321 114.279 107.437 114.08 107.535C113.88 107.628 113.645 107.693 113.377 107.731ZM113.274 106.995C113.496 106.964 113.657 106.89 113.758 106.771C113.863 106.652 113.903 106.506 113.879 106.331L113.861 106.203C113.836 106.024 113.759 105.893 113.63 105.811C113.501 105.725 113.323 105.698 113.097 105.729C112.871 105.761 112.708 105.836 112.607 105.954C112.506 106.068 112.468 106.215 112.493 106.394L112.511 106.522C112.535 106.697 112.612 106.827 112.741 106.913C112.875 106.999 113.052 107.026 113.274 106.995ZM112.999 105.026C113.212 104.996 113.367 104.925 113.465 104.811C113.562 104.698 113.599 104.558 113.576 104.391L113.562 104.296C113.539 104.129 113.463 104.007 113.335 103.93C113.211 103.847 113.044 103.82 112.835 103.85C112.626 103.879 112.471 103.95 112.37 104.064C112.272 104.174 112.235 104.311 112.258 104.478L112.271 104.574C112.294 104.74 112.368 104.864 112.493 104.947C112.617 105.029 112.786 105.056 112.999 105.026ZM119.342 106.898C119.074 106.935 118.83 106.937 118.613 106.902C118.394 106.863 118.204 106.796 118.043 106.701C117.882 106.606 117.753 106.485 117.654 106.338C117.559 106.186 117.498 106.017 117.472 105.829C117.431 105.539 117.482 105.295 117.624 105.097C117.765 104.895 117.961 104.74 118.211 104.631L118.204 104.58C117.971 104.53 117.772 104.431 117.608 104.285C117.444 104.138 117.344 103.935 117.308 103.675C117.284 103.504 117.296 103.342 117.344 103.187C117.392 103.033 117.475 102.895 117.593 102.775C117.71 102.65 117.861 102.546 118.045 102.464C118.229 102.377 118.446 102.317 118.698 102.281C118.945 102.247 119.169 102.246 119.369 102.279C119.573 102.307 119.748 102.365 119.895 102.453C120.041 102.537 120.159 102.647 120.247 102.782C120.336 102.918 120.392 103.071 120.416 103.241C120.452 103.501 120.411 103.724 120.294 103.91C120.176 104.096 120.012 104.245 119.802 104.357L119.809 104.408C120.079 104.444 120.31 104.54 120.501 104.696C120.692 104.847 120.808 105.068 120.848 105.358C120.874 105.545 120.86 105.726 120.806 105.898C120.756 106.066 120.666 106.218 120.537 106.353C120.408 106.488 120.244 106.605 120.045 106.702C119.845 106.795 119.611 106.86 119.342 106.898ZM119.239 106.163C119.461 106.132 119.622 106.057 119.723 105.939C119.828 105.82 119.869 105.673 119.844 105.498L119.826 105.37C119.801 105.191 119.724 105.061 119.596 104.979C119.466 104.892 119.289 104.865 119.063 104.897C118.837 104.928 118.673 105.003 118.573 105.121C118.471 105.236 118.433 105.382 118.458 105.561L118.476 105.689C118.5 105.864 118.577 105.994 118.706 106.081C118.84 106.166 119.018 106.194 119.239 106.163ZM118.964 104.193C119.178 104.164 119.333 104.092 119.43 103.978C119.527 103.865 119.564 103.725 119.541 103.559L119.527 103.463C119.504 103.297 119.429 103.175 119.3 103.097C119.176 103.014 119.009 102.988 118.8 103.017C118.591 103.046 118.436 103.118 118.335 103.232C118.237 103.341 118.2 103.479 118.223 103.645L118.236 103.741C118.26 103.907 118.334 104.031 118.458 104.114C118.583 104.197 118.751 104.223 118.964 104.193ZM125.307 106.065C125.039 106.103 124.796 106.104 124.578 106.069C124.359 106.03 124.17 105.963 124.009 105.868C123.848 105.774 123.718 105.653 123.619 105.506C123.524 105.354 123.463 105.184 123.437 104.996C123.397 104.707 123.447 104.463 123.589 104.265C123.731 104.062 123.926 103.907 124.176 103.798L124.169 103.747C123.936 103.697 123.738 103.599 123.574 103.452C123.41 103.305 123.31 103.102 123.273 102.842C123.25 102.672 123.262 102.509 123.31 102.355C123.358 102.2 123.441 102.063 123.558 101.942C123.676 101.817 123.826 101.713 124.01 101.631C124.194 101.545 124.411 101.484 124.663 101.449C124.91 101.414 125.134 101.413 125.334 101.446C125.538 101.474 125.713 101.532 125.86 101.621C126.007 101.704 126.124 101.814 126.213 101.949C126.301 102.085 126.357 102.238 126.381 102.408C126.417 102.668 126.377 102.891 126.259 103.077C126.142 103.263 125.978 103.412 125.767 103.524L125.775 103.575C126.045 103.611 126.275 103.707 126.467 103.863C126.657 104.015 126.773 104.235 126.813 104.525C126.839 104.713 126.825 104.893 126.771 105.066C126.721 105.233 126.631 105.385 126.502 105.52C126.374 105.656 126.209 105.772 126.01 105.869C125.81 105.962 125.576 106.028 125.307 106.065ZM125.205 105.33C125.426 105.299 125.588 105.224 125.688 105.106C125.793 104.987 125.834 104.84 125.809 104.665L125.792 104.537C125.767 104.358 125.69 104.228 125.561 104.146C125.432 104.06 125.254 104.032 125.028 104.064C124.802 104.095 124.639 104.17 124.538 104.289C124.436 104.403 124.398 104.549 124.423 104.728L124.441 104.856C124.465 105.031 124.542 105.162 124.672 105.248C124.805 105.333 124.983 105.361 125.205 105.33ZM124.93 103.361C125.143 103.331 125.298 103.259 125.395 103.146C125.492 103.032 125.529 102.892 125.506 102.726L125.493 102.63C125.469 102.464 125.394 102.342 125.266 102.264C125.141 102.182 124.974 102.155 124.766 102.184C124.557 102.213 124.402 102.285 124.3 102.399C124.202 102.508 124.165 102.646 124.188 102.812L124.202 102.908C124.225 103.074 124.299 103.199 124.423 103.281C124.548 103.364 124.717 103.39 124.93 103.361ZM143.203 103.567C142.935 103.604 142.691 103.606 142.474 103.571C142.255 103.532 142.066 103.465 141.905 103.37C141.744 103.275 141.614 103.154 141.515 103.007C141.42 102.856 141.359 102.686 141.333 102.498C141.293 102.208 141.343 101.964 141.485 101.766C141.626 101.564 141.822 101.409 142.072 101.3L142.065 101.249C141.832 101.199 141.633 101.1 141.469 100.954C141.306 100.807 141.205 100.604 141.169 100.344C141.145 100.173 141.157 100.011 141.205 99.8565C141.253 99.702 141.336 99.5644 141.454 99.4436C141.571 99.3186 141.722 99.215 141.906 99.1328C142.09 99.0464 142.307 98.9856 142.559 98.9505C142.806 98.916 143.03 98.9152 143.23 98.9481C143.434 98.9761 143.609 99.0342 143.756 99.1223C143.902 99.2062 144.02 99.3158 144.108 99.4512C144.197 99.5866 144.253 99.7396 144.277 99.9101C144.313 100.17 144.272 100.393 144.155 100.579C144.037 100.765 143.874 100.914 143.663 101.026L143.67 101.077C143.941 101.113 144.171 101.209 144.362 101.365C144.553 101.516 144.669 101.737 144.709 102.027C144.735 102.215 144.721 102.395 144.667 102.567C144.617 102.735 144.527 102.887 144.398 103.022C144.269 103.157 144.105 103.274 143.906 103.371C143.706 103.464 143.472 103.529 143.203 103.567ZM143.101 102.832C143.322 102.801 143.483 102.726 143.584 102.608C143.689 102.489 143.73 102.342 143.705 102.167L143.687 102.039C143.662 101.86 143.586 101.73 143.457 101.648C143.327 101.561 143.15 101.534 142.924 101.566C142.698 101.597 142.534 101.672 142.434 101.791C142.332 101.905 142.294 102.051 142.319 102.23L142.337 102.358C142.361 102.533 142.438 102.663 142.568 102.75C142.701 102.835 142.879 102.863 143.101 102.832ZM142.826 100.862C143.039 100.833 143.194 100.761 143.291 100.647C143.388 100.534 143.425 100.394 143.402 100.228L143.389 100.132C143.365 99.9656 143.29 99.8436 143.161 99.7659C143.037 99.6834 142.87 99.6566 142.661 99.6858C142.452 99.715 142.297 99.7866 142.196 99.9007C142.098 100.01 142.061 100.148 142.084 100.314L142.098 100.41C142.121 100.576 142.195 100.701 142.319 100.783C142.444 100.866 142.612 100.892 142.826 100.862ZM149.168 102.734C148.572 102.818 148.102 102.677 147.76 102.312C147.422 101.946 147.202 101.399 147.101 100.67C146.999 99.9408 147.06 99.3542 147.285 98.9099C147.514 98.4651 147.927 98.2011 148.524 98.1177C149.121 98.0344 149.588 98.1756 149.926 98.5413C150.268 98.9064 150.49 99.4534 150.592 100.182C150.694 100.911 150.63 101.498 150.401 101.943C150.176 102.387 149.765 102.651 149.168 102.734ZM149.063 101.98C149.349 101.94 149.533 101.812 149.616 101.596C149.703 101.38 149.722 101.093 149.672 100.734L149.555 99.9033C149.505 99.5452 149.409 99.274 149.266 99.0897C149.127 98.9049 148.915 98.8324 148.629 98.8722C148.344 98.9121 148.157 99.0403 148.07 99.2567C147.987 99.4725 147.971 99.7594 148.021 100.117L148.137 100.949C148.187 101.307 148.281 101.578 148.42 101.763C148.563 101.947 148.778 102.02 149.063 101.98ZM148.899 100.803C148.75 100.824 148.641 100.809 148.573 100.757C148.509 100.706 148.472 100.637 148.46 100.552L148.44 100.411C148.428 100.326 148.446 100.249 148.493 100.182C148.544 100.114 148.644 100.07 148.794 100.049C148.943 100.028 149.049 100.043 149.113 100.095C149.181 100.147 149.221 100.215 149.233 100.3L149.252 100.441C149.264 100.526 149.245 100.603 149.193 100.671C149.146 100.738 149.048 100.782 148.899 100.803ZM154.253 101.946L155.274 98.049L153.829 98.2507L153.942 99.0627L153.13 99.1761L152.908 97.584L156.118 97.1359L156.234 97.9671L155.264 101.805L154.253 101.946ZM162.021 97.1658L159.956 97.4541L160.051 98.8814L160.108 98.8734C160.141 98.7646 160.181 98.6633 160.229 98.5698C160.276 98.4719 160.336 98.3875 160.408 98.3165C160.48 98.2413 160.567 98.1791 160.669 98.1302C160.771 98.0812 160.89 98.0472 161.027 98.0281C161.21 98.0026 161.387 98.0104 161.558 98.0517C161.733 98.0925 161.891 98.166 162.032 98.2724C162.176 98.3739 162.297 98.5091 162.395 98.678C162.492 98.8427 162.556 99.0358 162.587 99.2575C162.618 99.4834 162.609 99.6976 162.559 99.9002C162.509 100.103 162.419 100.285 162.29 100.446C162.164 100.607 161.999 100.743 161.793 100.855C161.586 100.962 161.344 101.035 161.067 101.073C160.85 101.104 160.652 101.107 160.475 101.084C160.298 101.061 160.138 101.02 159.995 100.962C159.856 100.899 159.731 100.823 159.618 100.734C159.51 100.641 159.413 100.544 159.33 100.442L159.95 99.7951C160.013 99.8732 160.078 99.9467 160.144 100.016C160.214 100.084 160.29 100.143 160.37 100.193C160.455 100.237 160.544 100.271 160.639 100.292C160.737 100.309 160.845 100.309 160.965 100.292C161.203 100.259 161.373 100.17 161.475 100.025C161.58 99.876 161.617 99.6927 161.587 99.4753L161.58 99.4241C161.551 99.2152 161.466 99.0597 161.326 98.9576C161.185 98.8555 161.007 98.8197 160.789 98.85C160.61 98.875 160.466 98.9321 160.357 99.0212C160.251 99.1055 160.173 99.1859 160.123 99.2624L159.322 99.2635L159.135 96.7146L161.904 96.3281L162.021 97.1658Z" fill="white"/>
<path fill-rule="evenodd" clip-rule="evenodd" d="M37.501 75.3069L34.6282 75.708L31.3083 67.6591C31.1524 67.2893 30.8879 66.98 30.5462 66.8646C29.693 66.5737 28.7701 66.3762 27.7894 66.3485L27.7446 66.0271L32.3726 65.381C33.0113 65.2918 33.5577 65.7078 33.7159 66.2575L35.6744 72.1243L37.5594 64.6569L40.3525 64.267L37.501 75.3069ZM43.4064 74.4827L40.6932 74.8615L41.4701 64.1111L44.1833 63.7324L43.4064 74.4827ZM48.0969 66.1338C48.0982 65.5605 48.5324 65.1721 49.0913 65.0941C49.9583 64.8908 50.9375 64.9187 51.7919 65.208L51.9572 62.8937C51.1139 62.6837 50.2131 62.6449 49.4161 62.7561C46.7827 63.1237 45.0684 64.8371 45.3485 66.8438C45.5616 68.3704 47.0308 68.9825 48.0563 69.3316C49.1601 69.6684 49.6042 69.9342 49.5915 70.4268C49.6924 71.1491 48.9388 71.582 48.1418 71.6932C47.1837 71.827 46.192 71.72 45.259 71.4402L45.0939 73.7559C46.1079 74.023 47.167 74.0397 48.1251 73.9059C51.0889 73.5731 52.7222 71.8724 52.4195 69.7043C52.0384 66.974 48.2649 67.3376 48.0969 66.1338ZM62.3978 71.8314L58.7863 61.6937L56.4723 62.0167C55.9932 62.0836 55.5591 62.472 55.4666 62.9757L52.8224 73.1681L55.6155 72.7782L55.9601 71.1752L59.3918 70.6961L59.9241 72.1767L62.3978 71.8314ZM57.264 64.772L58.6102 68.5948L56.3761 68.9067L57.264 64.772Z" fill="white"/>
</g>
<defs>
<linearGradient id="paint0_linear_6425_33330" x1="18.3344" y1="172.503" x2="169.558" y2="18.6924" gradientUnits="userSpaceOnUse">
<stop offset="0.0416667" stop-color="#47BAD8"/>
<stop offset="0.34375" stop-color="#6A6CE9"/>
<stop offset="0.609375" stop-color="#9454E6"/>
<stop offset="1" stop-color="#CE57D3"/>
</linearGradient>
<linearGradient id="paint1_linear_6425_33330" x1="12.2416" y1="178.899" x2="175.712" y2="12.632" gradientUnits="userSpaceOnUse">
<stop offset="0.0416667" stop-color="#47BAD8"/>
<stop offset="0.34375" stop-color="#6A6CE9"/>
<stop offset="0.609375" stop-color="#9454E6"/>
<stop offset="1" stop-color="#CE57D3"/>
</linearGradient>
<linearGradient id="paint2_linear_6425_33330" x1="159.554" y1="157.58" x2="56.4932" y2="57.4701" gradientUnits="userSpaceOnUse">
<stop offset="0.01" stop-color="#FF55AA"/>
<stop offset="0.25" stop-color="#B850C9"/>
<stop offset="0.62" stop-color="#6572D6"/>
<stop offset="1" stop-color="#4EAEB8"/>
</linearGradient>
<linearGradient id="paint3_linear_6425_33330" x1="23.7872" y1="166.588" x2="164.043" y2="23.9319" gradientUnits="userSpaceOnUse">
<stop offset="0.0416667" stop-color="#47BAD8"/>
<stop offset="0.34375" stop-color="#6A6CE9"/>
<stop offset="0.609375" stop-color="#9454E6"/>
<stop offset="1" stop-color="#CE57D3"/>
</linearGradient>
<linearGradient id="paint4_linear_6425_33330" x1="23.7872" y1="166.775" x2="164.043" y2="24.1194" gradientUnits="userSpaceOnUse">
<stop offset="0.0416667" stop-color="#47BAD8"/>
<stop offset="0.34375" stop-color="#6A6CE9"/>
<stop offset="0.609375" stop-color="#9454E6"/>
<stop offset="1" stop-color="#CE57D3"/>
</linearGradient>
<linearGradient id="paint5_linear_6425_33330" x1="13.002" y1="150.581" x2="177.544" y2="79.2132" gradientUnits="userSpaceOnUse">
<stop stop-color="#1C0D68"/>
<stop offset="0.489583" stop-color="#3C1DAA"/>
<stop offset="1" stop-color="#824EF1"/>
</linearGradient>
<clipPath id="clip0_6425_33330">
<rect width="160.309" height="172.21" fill="white" transform="matrix(-1 0 0 1 173.729 1.38086)"/>
</clipPath>
<clipPath id="clip1_6425_33330">
<rect x="13" y="52.125" width="152.793" height="98.4547" rx="10.7601" transform="rotate(-7.94706 13 52.125)" fill="white"/>
</clipPath>
</defs>
</svg>
