<svg width="188" height="188" viewBox="0 0 188 188" fill="none" xmlns="http://www.w3.org/2000/svg">
<path opacity="0.1" d="M7.49915 93.5302C7.49915 141.108 46.0306 179.676 93.5609 179.676C141.091 179.676 179.623 141.108 179.623 93.5302C179.623 45.9527 141.091 7.38422 93.5609 7.38422C46.0306 7.38422 7.49915 45.9527 7.49915 93.5302Z" stroke="url(#paint0_linear_5968_30476)" stroke-width="0.754778"/>
<path opacity="0.05" d="M0.5289 93.5306C0.5289 144.961 42.1809 186.653 93.5605 186.653C144.94 186.653 186.592 144.961 186.592 93.5306C186.592 42.1 144.94 0.407952 93.5605 0.407952C42.1809 0.407952 0.5289 42.1 0.5289 93.5306Z" stroke="url(#paint1_linear_5968_30476)" stroke-width="0.815905"/>
<g clip-path="url(#clip0_5968_30476)">
<path d="M93.5581 173.591C49.2812 173.591 13.3877 137.663 13.3877 93.3428C13.3877 49.0227 49.2812 13.0942 93.5581 13.0942C137.835 13.0942 173.729 49.0227 173.729 93.3428C173.729 137.663 137.835 173.591 93.5581 173.591Z" fill="white"/>
<path opacity="0.1" d="M93.5581 173.591C49.2812 173.591 13.3877 137.663 13.3877 93.3428C13.3877 49.0227 49.2812 13.0942 93.5581 13.0942C137.835 13.0942 173.729 49.0227 173.729 93.3428C173.729 137.663 137.835 173.591 93.5581 173.591Z" fill="url(#paint2_linear_5968_30476)"/>
<path opacity="0.1" d="M13.7377 93.3428C13.7377 137.47 49.4749 173.241 93.5581 173.241C137.641 173.241 173.378 137.47 173.378 93.3428C173.378 49.2157 137.641 13.4443 93.5581 13.4443C49.4749 13.4443 13.7377 49.2157 13.7377 93.3428Z" stroke="url(#paint3_linear_5968_30476)" stroke-width="0.70004"/>
<path opacity="0.1" d="M13.7377 93.5308C13.7377 137.658 49.4749 173.429 93.5581 173.429C137.641 173.429 173.378 137.658 173.378 93.5308C173.378 49.4037 137.641 13.6322 93.5581 13.6322C49.4749 13.6322 13.7377 49.4037 13.7377 93.5308Z" stroke="url(#paint4_linear_5968_30476)" stroke-width="0.70004"/>
</g>
<rect x="4.14331" y="24.06" width="182.208" height="66.7634" rx="3.82499" transform="rotate(0.929472 4.14331 24.06)" fill="white" stroke="#1C0D68" stroke-width="2.08636"/>
<path d="M27.7398 58.8814L22.2057 39.7472L22.0563 39.7447C22.2038 43.6213 22.267 46.207 22.246 47.5018L22.0628 58.7893L17.4648 58.7147L17.8585 34.4464L24.8635 34.5601L30.3058 53.2114L30.4054 53.213L36.7984 34.7537L43.8034 34.8674L43.4096 59.1357L38.6124 59.0578L38.7988 47.5711C38.8076 47.0288 38.8233 46.4037 38.8458 45.6956C38.8794 44.9877 38.9874 43.1077 39.1698 40.0556L39.0204 40.0532L32.4541 58.9579L27.7398 58.8814ZM62.0726 35.1638L67.2682 35.2481L58.6246 59.3825L53.014 59.2915L45.1745 34.8896L50.3701 34.9739L54.7006 49.4894C54.9413 50.3457 55.1852 51.3458 55.4323 52.49C55.6907 53.6232 55.8494 54.4117 55.9086 54.8554C56.0469 53.8393 56.4908 52.0644 57.2403 49.5306L62.0726 35.1638ZM87.8726 46.3582L89.5325 46.3851C91.1592 46.4115 92.3643 46.1599 93.1478 45.6302C93.9312 45.1005 94.3323 44.2547 94.3512 43.0927C94.3699 41.9418 93.9848 41.1165 93.1959 40.6166C92.4181 40.117 91.1992 39.8537 89.5393 39.8267L87.9789 39.8014L87.8726 46.3582ZM87.8047 50.5412L87.6536 59.8535L82.5078 59.77L82.9015 35.5017L89.9729 35.6164C93.2706 35.6699 95.7009 36.3126 97.2638 37.5445C98.8269 38.7653 99.5886 40.5986 99.549 43.0442C99.5258 44.4718 99.1123 45.738 98.3085 46.843C97.5048 47.9368 96.3786 48.7875 94.9297 49.3949C98.4931 54.9098 100.815 58.473 101.896 60.0845L96.1857 59.9919L90.5436 50.5857L87.8047 50.5412ZM126.888 60.49L121.028 60.3949L117.948 47.5933C117.834 47.1376 117.639 46.1991 117.363 44.7778C117.099 43.3455 116.948 42.3856 116.912 41.898C116.836 42.4945 116.654 43.4546 116.367 44.7782C116.08 46.0908 115.86 47.0281 115.707 47.5901L112.231 60.2522L106.388 60.1574L100.59 35.7887L105.653 35.8708L108.542 49.1675C109.044 51.6219 109.403 53.7475 109.617 55.5441C109.694 54.9144 109.859 53.943 110.113 52.6299C110.378 51.3059 110.621 50.2804 110.843 49.5535L114.6 36.016L119.463 36.0949L122.778 49.7471C122.923 50.3583 123.102 51.291 123.314 52.5452C123.526 53.7995 123.686 54.8758 123.793 55.7741C123.918 54.9128 124.112 53.8422 124.377 52.5625C124.641 51.2717 124.879 50.2295 125.091 49.436L128.394 36.2397L133.457 36.3219L126.888 60.49ZM152.537 60.9061L147.408 60.8229L147.636 46.7798L147.723 44.4733L147.847 41.9516C146.981 42.7898 146.38 43.3391 146.044 43.5993L143.219 45.795L140.795 42.6674L148.715 36.5694L152.931 36.6378L152.537 60.9061ZM157.578 50.677C157.656 45.8742 158.727 42.3163 160.79 40.0031C162.864 37.6901 165.926 36.5664 169.976 36.6321C171.36 36.6546 172.443 36.7551 173.226 36.9339L173.159 41.0339C172.178 40.7966 171.206 40.6702 170.243 40.6545C168.484 40.626 167.041 40.8683 165.915 41.3813C164.799 41.8945 163.957 42.6668 163.386 43.698C162.816 44.7293 162.466 46.2013 162.335 48.1142L162.551 48.1177C163.677 46.2542 165.446 45.342 167.859 45.3811C170.028 45.4163 171.715 46.1245 172.922 47.5055C174.128 48.8866 174.712 50.7778 174.673 53.1792C174.631 55.7687 173.867 57.8097 172.382 59.302C170.896 60.7834 168.859 61.503 166.27 61.461C164.477 61.4319 162.918 60.9915 161.592 60.1398C160.278 59.2883 159.268 58.0599 158.564 56.4545C157.87 54.8493 157.542 52.9234 157.578 50.677ZM166.236 57.3593C167.332 57.3771 168.179 57.0256 168.777 56.3047C169.376 55.5728 169.686 54.5262 169.708 53.1651C169.727 51.981 169.466 51.047 168.924 50.3629C168.392 49.668 167.574 49.3116 166.467 49.2936C165.427 49.2768 164.53 49.5998 163.778 50.2628C163.037 50.926 162.659 51.7058 162.644 52.6022C162.623 53.9191 162.948 55.0368 163.619 55.9554C164.302 56.8741 165.174 57.3421 166.236 57.3593Z" fill="#1C0D68"/>
<path d="M74.5245 72.3529C73.2788 72.3327 72.2874 72.7328 71.5503 73.5532C70.8184 74.3686 70.4408 75.4973 70.4174 76.9394C70.3933 78.4229 70.721 79.5759 71.4004 80.3987C72.0851 81.2163 73.071 81.6356 74.358 81.6565C75.1489 81.6693 76.0531 81.5418 77.0708 81.274L77.0521 82.4292C76.2616 82.7111 75.2901 82.8426 74.1375 82.8239C72.4679 82.7969 71.1865 82.2694 70.2933 81.2415C69.4052 80.2138 68.9763 78.7669 69.0065 76.901C69.0255 75.7329 69.2592 74.713 69.7076 73.8413C70.1612 72.9697 70.8028 72.3029 71.6323 71.8407C72.4671 71.3786 73.4426 71.1566 74.5591 71.1747C75.7479 71.194 76.7833 71.4279 77.6653 71.8765L77.0887 72.9994C76.2373 72.5823 75.3825 72.3668 74.5245 72.3529ZM90.6636 82.937L89.3455 82.9156L89.4321 77.5814L83.4621 77.4845L83.3756 82.8187L82.0575 82.7973L82.2414 71.4622L83.5595 71.4836L83.4812 76.306L89.4512 76.4029L89.5294 71.5804L90.8475 71.6018L90.6636 82.937ZM96.3172 83.0287L96.5011 71.6935L97.8191 71.7149L97.6352 83.0501L96.3172 83.0287ZM103.289 83.1418L103.473 71.8066L104.791 71.828L104.626 81.9692L109.627 82.0503L109.608 83.2443L103.289 83.1418ZM120.394 83.4193L114.075 83.3168L114.259 71.9816L120.578 72.0841L120.559 73.2549L115.558 73.1737L115.499 76.8255L120.197 76.9017L120.178 78.0647L115.48 77.9885L115.412 82.1597L120.413 82.2408L120.394 83.4193Z" fill="#1C0D68"/>
<circle cx="73.1206" cy="49.1199" r="2.08636" transform="rotate(0.929472 73.1206 49.1199)" fill="#1C0D68"/>
<circle cx="137.121" cy="51.1199" r="2.08636" transform="rotate(0.929472 137.121 51.1199)" fill="#1C0D68"/>
<g clip-path="url(#clip1_5968_30476)">
<rect x="32" y="95.8833" width="122.114" height="78.686" rx="8.59956" transform="rotate(-7.94706 32 95.8833)" fill="#363737"/>
<rect x="32.002" y="95.8838" width="122.114" height="78.686" rx="8.59956" transform="rotate(-7.94706 32.002 95.8838)" fill="url(#paint5_linear_5968_30476)"/>
<path d="M140.912 146.943L138.531 147.275L138.469 146.836L139.51 145.597C139.662 145.416 139.783 145.235 139.872 145.056C139.962 144.874 139.993 144.69 139.968 144.506L139.959 144.445C139.929 144.23 139.85 144.073 139.721 143.973C139.592 143.869 139.417 143.833 139.195 143.864C138.977 143.894 138.817 143.974 138.713 144.103C138.612 144.228 138.546 144.387 138.514 144.579L138.111 144.489C138.13 144.379 138.162 144.27 138.206 144.164C138.253 144.053 138.317 143.952 138.398 143.861C138.479 143.769 138.581 143.691 138.704 143.625C138.83 143.559 138.98 143.514 139.154 143.489C139.331 143.465 139.491 143.468 139.634 143.5C139.781 143.532 139.907 143.587 140.012 143.667C140.12 143.745 140.207 143.844 140.272 143.964C140.341 144.083 140.386 144.217 140.407 144.367C140.426 144.503 140.423 144.634 140.399 144.759C140.378 144.883 140.339 145.005 140.283 145.124C140.23 145.242 140.162 145.361 140.078 145.481C139.996 145.596 139.903 145.714 139.798 145.832L138.923 146.84L140.86 146.57L140.912 146.943ZM143.976 146.515L141.595 146.848L141.533 146.408L142.574 145.169C142.726 144.988 142.847 144.808 142.937 144.628C143.026 144.446 143.057 144.263 143.032 144.079L143.023 144.017C142.993 143.803 142.914 143.645 142.785 143.545C142.656 143.442 142.481 143.405 142.259 143.436C142.041 143.467 141.881 143.546 141.777 143.675C141.677 143.801 141.61 143.959 141.578 144.151L141.175 144.062C141.194 143.951 141.226 143.843 141.27 143.736C141.317 143.625 141.381 143.524 141.462 143.433C141.543 143.342 141.645 143.263 141.768 143.197C141.894 143.131 142.044 143.086 142.218 143.062C142.395 143.037 142.555 143.041 142.698 143.073C142.845 143.104 142.971 143.16 143.076 143.239C143.184 143.318 143.271 143.417 143.336 143.536C143.405 143.655 143.45 143.789 143.471 143.939C143.49 144.075 143.487 144.206 143.463 144.331C143.442 144.455 143.403 144.577 143.347 144.696C143.294 144.815 143.226 144.934 143.142 145.053C143.061 145.169 142.967 145.286 142.863 145.405L141.987 146.413L143.924 146.142L143.976 146.515ZM144.854 147.112L145.992 142.274L146.36 142.223L145.222 147.06L144.854 147.112ZM148.902 145.89C148.684 145.921 148.491 145.906 148.323 145.846C148.154 145.783 148.008 145.68 147.884 145.537C147.759 145.395 147.658 145.213 147.578 144.991C147.499 144.77 147.438 144.512 147.397 144.219C147.357 143.93 147.345 143.668 147.361 143.433C147.376 143.194 147.424 142.99 147.504 142.819C147.584 142.648 147.697 142.51 147.842 142.407C147.987 142.3 148.169 142.231 148.387 142.201C148.605 142.17 148.798 142.187 148.967 142.25C149.135 142.31 149.281 142.411 149.405 142.553C149.529 142.696 149.631 142.879 149.711 143.104C149.791 143.326 149.851 143.582 149.891 143.871C149.932 144.164 149.945 144.428 149.929 144.663C149.913 144.898 149.865 145.101 149.785 145.272C149.704 145.443 149.592 145.582 149.447 145.689C149.302 145.793 149.12 145.86 148.902 145.89ZM148.85 145.517C148.993 145.497 149.112 145.453 149.206 145.384C149.3 145.312 149.371 145.22 149.418 145.109C149.468 144.998 149.499 144.869 149.51 144.722C149.52 144.571 149.512 144.405 149.487 144.225L149.406 143.642C149.381 143.465 149.343 143.305 149.292 143.163C149.241 143.021 149.176 142.903 149.097 142.81C149.021 142.716 148.929 142.649 148.819 142.609C148.709 142.565 148.582 142.554 148.439 142.574C148.296 142.594 148.177 142.64 148.083 142.712C147.988 142.781 147.916 142.871 147.865 142.982C147.818 143.093 147.79 143.223 147.78 143.374C147.769 143.525 147.777 143.689 147.801 143.866L147.883 144.449C147.908 144.629 147.946 144.791 147.997 144.933C148.048 145.072 148.111 145.188 148.186 145.281C148.265 145.375 148.36 145.443 148.47 145.487C148.58 145.527 148.707 145.537 148.85 145.517ZM148.686 144.347C148.567 144.363 148.48 144.351 148.426 144.31C148.375 144.269 148.345 144.214 148.335 144.146L148.32 144.033C148.31 143.965 148.324 143.904 148.362 143.85C148.403 143.796 148.483 143.76 148.602 143.744C148.721 143.727 148.807 143.74 148.857 143.781C148.912 143.822 148.944 143.877 148.953 143.945L148.969 144.057C148.978 144.125 148.963 144.187 148.922 144.241C148.884 144.295 148.806 144.33 148.686 144.347ZM150.859 145.554L150.807 145.181L151.829 145.039L151.427 142.162L151.391 142.167L150.609 143.13L150.321 142.894L151.143 141.878L151.812 141.785L152.258 144.979L153.198 144.847L153.25 145.221L150.859 145.554Z" fill="white"/>
<path d="M52.4149 158.863L51.9715 157.888L50.7195 158.063L50.5599 159.122L50.1153 159.184L50.711 155.465L51.2782 155.386L52.8697 158.8L52.4149 158.863ZM51.076 155.877L51.03 155.884L50.7696 157.676L51.8172 157.53L51.076 155.877ZM53.9102 158.655L53.4809 158.714L52.983 155.148L54.281 154.966C54.6115 154.92 54.8762 154.975 55.0751 155.132C55.2741 155.288 55.3961 155.528 55.4413 155.852C55.4817 156.141 55.4391 156.383 55.3135 156.578C55.1878 156.773 54.9838 156.903 54.7015 156.971L55.8265 158.387L55.3462 158.454L54.2648 157.052L53.6976 157.132L53.9102 158.655ZM54.5055 156.649C54.686 156.624 54.8195 156.56 54.906 156.458C54.9953 156.351 55.0284 156.215 55.0051 156.048L54.968 155.782C54.9447 155.615 54.8757 155.495 54.7611 155.42C54.6495 155.342 54.5034 155.316 54.3229 155.341L53.4643 155.461L53.647 156.769L54.5055 156.649ZM58.1606 156.238L58.0029 155.108L57.9621 155.114L57.467 157.054L56.4597 155.324L56.4188 155.33L56.5764 156.459L56.8261 158.247L56.4326 158.302L55.9347 154.735L56.4866 154.658L57.3349 156.145L57.3655 156.14L57.7744 154.479L58.3058 154.404L58.8038 157.971L58.4103 158.026L58.1606 156.238ZM61.6073 157.58L61.1638 156.605L59.9118 156.78L59.7523 157.839L59.3077 157.901L59.9033 154.181L60.4705 154.102L62.0621 157.517L61.6073 157.58ZM60.2683 154.594L60.2223 154.601L59.9619 156.393L61.0095 156.246L60.2683 154.594ZM62.6247 154.359L62.589 154.364L63.0106 157.384L62.6222 157.438L62.1242 153.871L62.7324 153.787L64.3659 156.606L64.4017 156.601L63.9844 153.612L64.3727 153.558L64.8707 157.124L64.2626 157.209L62.6247 154.359ZM65.265 153.433L66.2615 153.294C66.6976 153.233 67.0438 153.337 67.3003 153.607C67.5568 153.877 67.7262 154.307 67.8085 154.896C67.8907 155.485 67.8455 155.945 67.6727 156.275C67.4999 156.605 67.1955 156.8 66.7594 156.861L65.763 157L65.265 153.433ZM66.6869 156.491C66.9731 156.451 67.1739 156.322 67.2894 156.104C67.4083 155.886 67.4426 155.597 67.3922 155.236L67.3151 154.684C67.2647 154.323 67.1525 154.053 66.9784 153.876C66.8077 153.699 66.5793 153.63 66.2931 153.67L65.7463 153.746L66.1401 156.567L66.6869 156.491ZM69.8832 156.487C69.6652 156.518 69.4721 156.503 69.304 156.443C69.1354 156.38 68.989 156.277 68.8649 156.134C68.7409 155.992 68.639 155.81 68.5595 155.588C68.4799 155.367 68.4197 155.109 68.3788 154.816C68.3384 154.527 68.3261 154.265 68.3419 154.03C68.3573 153.791 68.4051 153.587 68.4854 153.416C68.5658 153.245 68.6786 153.108 68.8239 153.004C68.9687 152.897 69.1501 152.828 69.3682 152.798C69.5862 152.767 69.7795 152.784 69.9481 152.847C70.1162 152.907 70.2623 153.008 70.3864 153.15C70.5105 153.293 70.6126 153.477 70.6926 153.702C70.7722 153.923 70.8321 154.179 70.8726 154.468C70.9135 154.761 70.926 155.025 70.9102 155.26C70.8943 155.495 70.8463 155.698 70.7659 155.869C70.6856 156.04 70.573 156.179 70.4282 156.286C70.2829 156.39 70.1012 156.457 69.8832 156.487ZM69.8311 156.114C69.9742 156.094 70.0914 156.05 70.1825 155.982C70.2733 155.91 70.3438 155.819 70.3943 155.707C70.4448 155.596 70.4736 155.467 70.4809 155.32C70.4911 155.169 70.4836 155.004 70.4584 154.823L70.3771 154.241C70.3524 154.063 70.3144 153.904 70.2633 153.762C70.2156 153.619 70.1523 153.501 70.0733 153.408C69.9943 153.315 69.9016 153.248 69.7952 153.207C69.6883 153.163 69.5633 153.151 69.4202 153.171C69.2771 153.191 69.1602 153.237 69.0695 153.308C68.9783 153.377 68.9075 153.466 68.8571 153.578C68.8066 153.689 68.7763 153.82 68.7661 153.971C68.7592 154.121 68.7682 154.285 68.7929 154.462L68.8743 155.044C68.8995 155.225 68.9359 155.386 68.9836 155.529C69.0343 155.668 69.0991 155.784 69.1781 155.877C69.2571 155.97 69.35 156.039 69.4569 156.083C69.5633 156.124 69.688 156.134 69.8311 156.114ZM74.9297 155.72L74.4318 152.153L75.7298 151.972C76.0602 151.926 76.325 151.981 76.5239 152.137C76.7229 152.294 76.8449 152.534 76.8901 152.857C76.9353 153.181 76.8836 153.445 76.7351 153.65C76.5865 153.855 76.347 153.98 76.0166 154.026L75.1478 154.148L75.359 155.66L74.9297 155.72ZM75.0958 153.775L75.9543 153.655C76.1348 153.63 76.2683 153.566 76.3548 153.463C76.4441 153.357 76.4772 153.221 76.4538 153.054L76.4168 152.788C76.3934 152.621 76.3245 152.5 76.2099 152.426C76.0983 152.348 75.9522 152.321 75.7716 152.347L74.9131 152.466L75.0958 153.775ZM79.9919 155.014L79.5485 154.039L78.2965 154.213L78.1369 155.272L77.6924 155.335L78.288 151.615L78.8552 151.536L80.4467 154.95L79.9919 155.014ZM78.653 152.028L78.607 152.034L78.3466 153.826L79.3942 153.68L78.653 152.028ZM81.4872 154.805L81.058 154.865L80.56 151.298L81.858 151.117C82.1885 151.07 82.4532 151.126 82.6521 151.282C82.8511 151.438 82.9732 151.678 83.0183 152.002C83.0588 152.291 83.0161 152.533 82.8905 152.728C82.7649 152.923 82.5609 153.054 82.2785 153.121L83.4035 154.537L82.9232 154.604L81.8419 153.203L81.2746 153.282L81.4872 154.805ZM82.0825 152.799C82.2631 152.774 82.3966 152.71 82.483 152.608C82.5723 152.502 82.6054 152.365 82.5821 152.198L82.545 151.932C82.5217 151.765 82.4527 151.645 82.3382 151.571C82.2265 151.492 82.0804 151.466 81.8999 151.491L81.0414 151.611L81.224 152.919L82.0825 152.799ZM84.1221 154.437L83.6241 150.87L85.8215 150.563L85.8736 150.936L84.1055 151.183L84.2731 152.384L85.9799 152.146L86.032 152.519L84.3252 152.757L84.4993 154.004L86.2674 153.757L86.3195 154.13L84.1221 154.437ZM86.7138 150.439L87.7103 150.3C88.1464 150.239 88.4926 150.343 88.7491 150.613C89.0056 150.883 89.175 151.313 89.2572 151.902C89.3395 152.491 89.2943 152.951 89.1215 153.281C88.9487 153.61 88.6443 153.806 88.2082 153.867L87.2117 154.006L86.7138 150.439ZM88.1357 153.496C88.4219 153.456 88.6227 153.328 88.7382 153.11C88.8571 152.892 88.8914 152.602 88.841 152.241L88.7639 151.689C88.7135 151.328 88.6013 151.059 88.4272 150.882C88.2565 150.704 88.0281 150.636 87.7419 150.676L87.1951 150.752L87.5889 153.573L88.1357 153.496ZM90.2503 153.581L89.7524 150.015L91.9497 149.708L92.0018 150.081L90.2337 150.328L90.4013 151.529L92.1081 151.29L92.1602 151.663L90.4534 151.902L90.6275 153.149L92.3956 152.902L92.4477 153.275L90.2503 153.581ZM94.3859 153.067C94.0657 153.111 93.7953 153.09 93.5747 153.003C93.3536 152.912 93.1638 152.784 93.0053 152.619L93.2813 152.32C93.4453 152.474 93.6098 152.583 93.775 152.647C93.9436 152.71 94.1352 152.727 94.3499 152.697C94.6088 152.66 94.7981 152.573 94.9177 152.435C95.0373 152.297 95.0821 152.12 95.0522 151.906C95.0279 151.732 94.9597 151.604 94.8476 151.523C94.735 151.438 94.5532 151.392 94.3022 151.385L93.8944 151.374C93.7164 151.368 93.5634 151.342 93.4356 151.298C93.3113 151.253 93.2073 151.192 93.1239 151.117C93.04 151.039 92.9756 150.95 92.9307 150.852C92.8852 150.751 92.8547 150.644 92.839 150.532C92.7933 150.205 92.8662 149.943 93.0575 149.746C93.2488 149.549 93.5268 149.425 93.8913 149.374C94.1775 149.334 94.4243 149.348 94.6318 149.417C94.8427 149.485 95.0199 149.597 95.1634 149.754L94.8983 150.057C94.7814 149.941 94.6474 149.852 94.4963 149.79C94.3452 149.728 94.159 149.712 93.9375 149.743C93.6957 149.777 93.5171 149.854 93.4019 149.974C93.2867 150.094 93.2434 150.257 93.2719 150.461C93.2943 150.621 93.3603 150.746 93.47 150.835C93.5825 150.92 93.768 150.967 94.0263 150.976L94.4188 150.989C94.5968 150.995 94.7497 151.021 94.8775 151.065C95.0053 151.11 95.111 151.17 95.1944 151.245C95.2812 151.32 95.3473 151.408 95.3928 151.509C95.4382 151.61 95.4689 151.719 95.4851 151.835C95.5312 152.165 95.4584 152.439 95.2665 152.657C95.078 152.875 94.7845 153.011 94.3859 153.067Z" fill="white"/>
<path d="M50.1843 148.383C49.9697 148.413 49.7727 148.408 49.5933 148.367C49.4169 148.322 49.2622 148.246 49.1292 148.14C48.9958 148.03 48.8863 147.893 48.8007 147.727C48.7151 147.562 48.6574 147.372 48.6274 147.158C48.5927 146.909 48.599 146.668 48.6465 146.436C48.6935 146.2 48.7652 145.98 48.8617 145.776C48.9611 145.567 49.077 145.377 49.2094 145.206C49.3452 145.034 49.4826 144.887 49.6216 144.763L50.6794 144.615C50.4794 144.8 50.3008 144.976 50.1436 145.143C49.9893 145.307 49.8558 145.47 49.7429 145.632C49.6329 145.79 49.5458 145.949 49.4816 146.111C49.4207 146.272 49.3837 146.443 49.3705 146.622L49.4186 146.63C49.4398 146.558 49.468 146.486 49.5032 146.415C49.5385 146.345 49.5851 146.281 49.6432 146.224C49.7008 146.164 49.77 146.113 49.8509 146.07C49.9352 146.027 50.0353 145.997 50.1511 145.981C50.301 145.96 50.4445 145.968 50.5816 146.004C50.7182 146.037 50.8393 146.097 50.9451 146.183C51.0538 146.265 51.1449 146.37 51.2185 146.499C51.292 146.628 51.3407 146.777 51.3644 146.948C51.3897 147.128 51.3806 147.3 51.3373 147.462C51.2939 147.624 51.2205 147.77 51.117 147.899C51.0163 148.024 50.8869 148.129 50.7285 148.214C50.5701 148.298 50.3887 148.355 50.1843 148.383ZM50.0957 147.786C50.2797 147.761 50.4127 147.693 50.4948 147.585C50.5764 147.473 50.6048 147.328 50.5801 147.151L50.5701 147.079C50.5454 146.902 50.4772 146.774 50.3656 146.696C50.2569 146.614 50.1122 146.586 49.9317 146.611C49.7579 146.635 49.6283 146.702 49.5428 146.811C49.4569 146.917 49.4262 147.058 49.451 147.235L49.461 147.307C49.4857 147.484 49.5509 147.616 49.6567 147.702C49.7654 147.784 49.9118 147.812 50.0957 147.786ZM56.2259 147.478L53.6606 147.836L53.5629 147.136L54.5566 146.043C54.7274 145.849 54.8469 145.685 54.915 145.551C54.983 145.416 55.0075 145.281 54.9885 145.144L54.9814 145.093C54.9604 144.943 54.9005 144.837 54.8014 144.775C54.7019 144.709 54.5772 144.686 54.4273 144.707C54.257 144.731 54.1327 144.798 54.0545 144.91C53.9763 145.022 53.928 145.148 53.9095 145.29L53.2044 145.128C53.2282 144.999 53.2682 144.876 53.3246 144.757C53.3804 144.634 53.4571 144.525 53.5547 144.428C53.6557 144.33 53.7762 144.247 53.916 144.179C54.0554 144.108 54.2204 144.059 54.4112 144.032C54.6054 144.005 54.7829 144.008 54.9439 144.041C55.1048 144.074 55.2447 144.131 55.3636 144.212C55.4826 144.292 55.5785 144.395 55.6516 144.52C55.7242 144.642 55.7712 144.78 55.7926 144.933C55.8135 145.083 55.8072 145.225 55.7737 145.358C55.7431 145.487 55.6912 145.612 55.6178 145.734C55.5479 145.855 55.4604 145.975 55.3554 146.093C55.2539 146.212 55.1438 146.331 55.0252 146.452L54.419 147.073L56.136 146.834L56.2259 147.478ZM58.6376 147.141L58.5513 146.523L59.512 146.388L59.1782 143.997L59.1322 144.003L58.5392 145.055L57.9951 144.74L58.6916 143.497L59.8669 143.333L60.2786 146.281L61.0349 146.176L61.1212 146.794L58.6376 147.141ZM65.4878 143.929C65.523 144.181 65.5169 144.423 65.4694 144.655C65.422 144.888 65.3486 145.108 65.2491 145.317C65.1527 145.521 65.0365 145.709 64.9007 145.881C64.7684 146.052 64.6326 146.2 64.4936 146.323L63.4358 146.471C63.6358 146.287 63.813 146.113 63.9672 145.949C64.1244 145.781 64.258 145.618 64.3679 145.46C64.4808 145.299 64.5677 145.137 64.6285 144.976C64.6928 144.814 64.7315 144.644 64.7447 144.465L64.6966 144.456C64.6754 144.528 64.6455 144.6 64.6069 144.672C64.5716 144.743 64.5252 144.808 64.4676 144.868C64.4129 144.925 64.3435 144.974 64.2592 145.017C64.1783 145.06 64.0799 145.089 63.9641 145.105C63.8142 145.126 63.6709 145.12 63.5343 145.087C63.3973 145.051 63.2744 144.991 63.1657 144.909C63.0599 144.823 62.9703 144.716 62.8967 144.587C62.8232 144.459 62.7745 144.309 62.7508 144.139C62.7256 143.958 62.7346 143.787 62.7779 143.625C62.8213 143.462 62.8932 143.318 62.9939 143.193C63.0974 143.064 63.2284 142.957 63.3867 142.873C63.5451 142.788 63.7265 142.732 63.9309 142.703C64.1455 142.673 64.3411 142.68 64.5175 142.725C64.6969 142.766 64.8533 142.842 64.9867 142.952C65.1197 143.058 65.2289 143.194 65.3145 143.359C65.4001 143.524 65.4578 143.714 65.4878 143.929ZM64.1835 144.476C64.3573 144.451 64.4871 144.386 64.5731 144.28C64.6586 144.171 64.689 144.028 64.6642 143.851L64.6542 143.779C64.6295 143.602 64.5628 143.473 64.4541 143.391C64.3483 143.305 64.2034 143.274 64.0195 143.3C63.8355 143.326 63.7027 143.395 63.6211 143.507C63.539 143.616 63.5104 143.758 63.5351 143.936L63.5451 144.007C63.5698 144.184 63.6365 144.314 63.7453 144.396C63.8569 144.474 64.003 144.501 64.1835 144.476ZM78.7689 144.393C78.5543 144.423 78.3599 144.424 78.1859 144.396C78.0113 144.365 77.8597 144.312 77.7311 144.236C77.6024 144.16 77.4986 144.063 77.4197 143.946C77.3437 143.824 77.2952 143.689 77.2743 143.539C77.242 143.307 77.2825 143.112 77.3958 142.954C77.5087 142.792 77.665 142.668 77.8648 142.581L77.8591 142.54C77.6729 142.5 77.5143 142.422 77.3833 142.305C77.2523 142.187 77.1724 142.025 77.1433 141.817C77.1243 141.681 77.134 141.551 77.1723 141.428C77.2107 141.304 77.2769 141.194 77.3711 141.098C77.4648 140.998 77.5853 140.915 77.7324 140.849C77.879 140.78 78.0529 140.732 78.2539 140.704C78.4515 140.676 78.6302 140.675 78.7902 140.702C78.9531 140.724 79.0933 140.77 79.2108 140.841C79.3278 140.908 79.4217 140.995 79.4923 141.104C79.563 141.212 79.6079 141.334 79.6269 141.47C79.6559 141.678 79.6235 141.856 79.5296 142.005C79.4357 142.154 79.3047 142.273 79.1366 142.362L79.1423 142.403C79.3582 142.432 79.5426 142.509 79.6954 142.633C79.8478 142.754 79.9401 142.931 79.9725 143.162C79.9934 143.312 79.9822 143.456 79.939 143.594C79.8987 143.728 79.827 143.849 79.724 143.958C79.621 144.066 79.4899 144.159 79.3306 144.237C79.1708 144.311 78.9835 144.363 78.7689 144.393ZM78.6869 143.805C78.864 143.781 78.9929 143.721 79.0735 143.626C79.1574 143.531 79.1897 143.414 79.1702 143.274L79.1559 143.172C79.1359 143.029 79.0745 142.925 78.9716 142.859C78.8682 142.79 78.7262 142.768 78.5456 142.794C78.3651 142.819 78.2345 142.879 78.1539 142.973C78.0729 143.064 78.0424 143.182 78.0623 143.325L78.0766 143.427C78.0961 143.567 78.1575 143.671 78.2609 143.74C78.3677 143.808 78.5097 143.83 78.6869 143.805ZM78.4672 142.231C78.6375 142.208 78.7615 142.15 78.8391 142.06C78.9168 141.969 78.9463 141.857 78.9278 141.724L78.9171 141.648C78.8985 141.515 78.838 141.417 78.7356 141.355C78.6361 141.289 78.5028 141.268 78.3359 141.291C78.169 141.314 78.045 141.372 77.9639 141.463C77.8858 141.55 77.856 141.66 77.8746 141.793L77.8853 141.87C77.9038 142.003 77.9629 142.102 78.0624 142.168C78.1619 142.234 78.2968 142.255 78.4672 142.231ZM83.5569 143.725C83.3422 143.755 83.1452 143.749 82.9659 143.708C82.7894 143.663 82.6347 143.588 82.5018 143.481C82.3683 143.371 82.2588 143.234 82.1733 143.069C82.0877 142.903 82.0299 142.714 82 142.499C81.9652 142.25 81.9716 142.01 82.019 141.777C82.066 141.542 82.1377 141.321 82.2342 141.117C82.3336 140.909 82.4495 140.719 82.5819 140.547C82.7177 140.376 82.8551 140.228 82.9942 140.104L84.052 139.957C83.8519 140.141 83.6733 140.317 83.5161 140.485C83.3619 140.649 83.2283 140.811 83.1154 140.973C83.0055 141.131 82.9184 141.291 82.8541 141.452C82.7933 141.614 82.7563 141.784 82.743 141.963L82.7912 141.972C82.8123 141.899 82.8405 141.828 82.8758 141.757C82.911 141.686 82.9577 141.622 83.0158 141.565C83.0734 141.505 83.1426 141.454 83.2235 141.411C83.3078 141.368 83.4078 141.339 83.5237 141.322C83.6736 141.301 83.8171 141.309 83.9541 141.346C84.0907 141.379 84.2119 141.438 84.3177 141.524C84.4264 141.606 84.5175 141.712 84.591 141.84C84.6646 141.969 84.7132 142.118 84.737 142.289C84.7622 142.469 84.7531 142.641 84.7098 142.803C84.6665 142.965 84.5931 143.111 84.4895 143.24C84.3889 143.365 84.2594 143.47 84.101 143.555C83.9427 143.64 83.7613 143.696 83.5569 143.725ZM83.4683 143.128C83.6523 143.102 83.7853 143.035 83.8673 142.926C83.9489 142.814 83.9774 142.669 83.9527 142.492L83.9427 142.42C83.9179 142.243 83.8497 142.116 83.7381 142.037C83.6294 141.955 83.4848 141.927 83.3042 141.952C83.1305 141.976 83.0009 142.043 82.9154 142.152C82.8294 142.258 82.7988 142.4 82.8235 142.577L82.8335 142.648C82.8583 142.825 82.9235 142.957 83.0293 143.043C83.138 143.125 83.2843 143.153 83.4683 143.128ZM87.2427 143.148L87.1564 142.529L88.1171 142.395L87.7832 140.004L87.7372 140.01L87.1443 141.062L86.6002 140.747L87.2966 139.504L88.472 139.34L88.8836 142.288L89.6399 142.183L89.7262 142.801L87.2427 143.148ZM93.0714 142.396C92.5945 142.463 92.2193 142.35 91.9459 142.059C91.6758 141.766 91.5002 141.329 91.4188 140.746C91.3375 140.164 91.3867 139.695 91.5663 139.34C91.7494 138.985 92.0794 138.773 92.5564 138.707C93.0333 138.64 93.4068 138.753 93.6769 139.045C93.9503 139.337 94.1277 139.774 94.209 140.357C94.2903 140.939 94.2394 141.409 94.0564 141.764C93.8767 142.119 93.5484 142.33 93.0714 142.396ZM92.9873 141.793C93.2155 141.762 93.3628 141.659 93.429 141.487C93.4986 141.314 93.5135 141.084 93.4735 140.798L93.3808 140.134C93.3408 139.848 93.2637 139.631 93.1493 139.484C93.0384 139.336 92.8688 139.278 92.6406 139.31C92.4123 139.342 92.2634 139.444 92.1937 139.617C92.1275 139.79 92.1144 140.019 92.1543 140.305L92.2471 140.969C92.287 141.256 92.3624 141.473 92.4734 141.62C92.5877 141.768 92.759 141.825 92.9873 141.793ZM92.856 140.853C92.7368 140.87 92.65 140.858 92.5956 140.817C92.5447 140.775 92.5144 140.72 92.5049 140.652L92.4892 140.54C92.4797 140.472 92.4938 140.411 92.5314 140.357C92.5724 140.302 92.6526 140.267 92.7718 140.25C92.8911 140.234 92.9762 140.246 93.0271 140.287C93.0815 140.329 93.1134 140.383 93.1229 140.451L93.1386 140.564C93.1481 140.632 93.1323 140.693 93.0913 140.747C93.0537 140.801 92.9752 140.837 92.856 140.853ZM108.669 140.157L106.103 140.515L106.005 139.815L106.999 138.723C107.17 138.528 107.289 138.364 107.358 138.23C107.426 138.095 107.45 137.96 107.431 137.823L107.424 137.772C107.403 137.622 107.343 137.516 107.244 137.454C107.144 137.388 107.02 137.365 106.87 137.386C106.7 137.41 106.575 137.478 106.497 137.589C106.419 137.701 106.371 137.827 106.352 137.969L105.647 137.807C105.671 137.678 105.711 137.555 105.767 137.436C105.823 137.313 105.9 137.204 105.997 137.107C106.098 137.009 106.219 136.926 106.359 136.858C106.498 136.787 106.663 136.738 106.854 136.711C107.048 136.684 107.226 136.687 107.386 136.72C107.547 136.753 107.687 136.81 107.806 136.891C107.925 136.971 108.021 137.074 108.094 137.199C108.167 137.321 108.214 137.459 108.235 137.612C108.256 137.762 108.25 137.904 108.216 138.037C108.186 138.166 108.134 138.291 108.06 138.413C107.99 138.534 107.903 138.654 107.798 138.773C107.696 138.891 107.586 139.01 107.468 139.131L106.862 139.752L108.579 139.513L108.669 140.157ZM112.141 139.734C111.927 139.764 111.732 139.765 111.558 139.738C111.384 139.706 111.232 139.653 111.104 139.577C110.975 139.501 110.871 139.405 110.792 139.287C110.716 139.166 110.668 139.03 110.647 138.88C110.615 138.649 110.655 138.454 110.768 138.295C110.881 138.134 111.038 138.009 111.237 137.922L111.232 137.882C111.045 137.842 110.887 137.763 110.756 137.646C110.625 137.529 110.545 137.366 110.516 137.158C110.497 137.022 110.507 136.892 110.545 136.769C110.583 136.645 110.649 136.535 110.744 136.439C110.837 136.339 110.958 136.256 111.105 136.19C111.252 136.121 111.425 136.073 111.626 136.045C111.824 136.017 112.003 136.017 112.163 136.043C112.326 136.065 112.466 136.112 112.583 136.182C112.7 136.249 112.794 136.337 112.865 136.445C112.936 136.553 112.98 136.675 112.999 136.812C113.028 137.019 112.996 137.198 112.902 137.346C112.808 137.495 112.677 137.614 112.509 137.703L112.515 137.744C112.731 137.773 112.915 137.85 113.068 137.974C113.22 138.095 113.313 138.272 113.345 138.504C113.366 138.653 113.355 138.797 113.312 138.935C113.271 139.07 113.2 139.191 113.097 139.299C112.994 139.407 112.862 139.5 112.703 139.578C112.543 139.652 112.356 139.704 112.141 139.734ZM112.059 139.147C112.237 139.122 112.365 139.062 112.446 138.968C112.53 138.873 112.562 138.755 112.543 138.616L112.528 138.513C112.508 138.37 112.447 138.266 112.344 138.2C112.241 138.131 112.099 138.11 111.918 138.135C111.738 138.16 111.607 138.22 111.526 138.315C111.445 138.406 111.415 138.523 111.435 138.666L111.449 138.768C111.469 138.908 111.53 139.012 111.633 139.081C111.74 139.15 111.882 139.171 112.059 139.147ZM111.84 137.573C112.01 137.549 112.134 137.492 112.212 137.401C112.289 137.31 112.319 137.198 112.3 137.066L112.29 136.989C112.271 136.856 112.211 136.759 112.108 136.696C112.009 136.63 111.875 136.609 111.708 136.632C111.542 136.656 111.418 136.713 111.336 136.804C111.258 136.891 111.229 137.002 111.247 137.134L111.258 137.211C111.276 137.344 111.335 137.443 111.435 137.509C111.534 137.575 111.669 137.596 111.84 137.573ZM116.909 139.069C116.694 139.099 116.5 139.1 116.326 139.072C116.151 139.041 116 138.987 115.871 138.911C115.742 138.836 115.639 138.739 115.56 138.622C115.484 138.5 115.435 138.365 115.414 138.215C115.382 137.983 115.423 137.788 115.536 137.63C115.649 137.468 115.805 137.344 116.005 137.257L115.999 137.216C115.813 137.176 115.654 137.097 115.523 136.98C115.392 136.863 115.312 136.701 115.283 136.493C115.264 136.357 115.274 136.227 115.312 136.103C115.351 135.98 115.417 135.87 115.511 135.773C115.605 135.673 115.725 135.591 115.872 135.525C116.019 135.456 116.193 135.407 116.394 135.379C116.592 135.352 116.77 135.351 116.93 135.377C117.093 135.4 117.233 135.446 117.351 135.517C117.468 135.584 117.562 135.671 117.632 135.779C117.703 135.888 117.748 136.01 117.767 136.146C117.796 136.354 117.764 136.532 117.67 136.681C117.576 136.829 117.445 136.948 117.277 137.038L117.282 137.079C117.498 137.108 117.683 137.184 117.835 137.309C117.988 137.43 118.08 137.606 118.113 137.838C118.133 137.988 118.122 138.132 118.079 138.27C118.039 138.404 117.967 138.525 117.864 138.633C117.761 138.741 117.63 138.834 117.471 138.912C117.311 138.987 117.124 139.039 116.909 139.069ZM116.827 138.481C117.004 138.456 117.133 138.397 117.214 138.302C117.297 138.207 117.33 138.09 117.31 137.95L117.296 137.848C117.276 137.705 117.215 137.6 117.112 137.535C117.008 137.466 116.866 137.444 116.686 137.469C116.505 137.494 116.375 137.554 116.294 137.649C116.213 137.74 116.182 137.857 116.202 138L116.217 138.103C116.236 138.242 116.298 138.347 116.401 138.416C116.508 138.484 116.65 138.506 116.827 138.481ZM116.607 136.907C116.778 136.883 116.902 136.826 116.979 136.735C117.057 136.645 117.086 136.533 117.068 136.4L117.057 136.323C117.039 136.191 116.978 136.093 116.876 136.031C116.776 135.965 116.643 135.944 116.476 135.967C116.309 135.99 116.185 136.047 116.104 136.139C116.026 136.226 115.996 136.336 116.015 136.469L116.025 136.546C116.044 136.678 116.103 136.778 116.202 136.844C116.302 136.91 116.437 136.931 116.607 136.907ZM121.676 138.403C121.462 138.433 121.268 138.434 121.093 138.406C120.919 138.375 120.767 138.322 120.639 138.246C120.51 138.17 120.406 138.073 120.327 137.956C120.251 137.835 120.203 137.699 120.182 137.549C120.15 137.317 120.19 137.122 120.303 136.964C120.416 136.803 120.573 136.678 120.772 136.591L120.767 136.551C120.58 136.511 120.422 136.432 120.291 136.315C120.16 136.198 120.08 136.035 120.051 135.827C120.032 135.691 120.042 135.561 120.08 135.438C120.118 135.314 120.185 135.204 120.279 135.108C120.372 135.008 120.493 134.925 120.64 134.859C120.787 134.79 120.96 134.742 121.161 134.714C121.359 134.686 121.538 134.685 121.698 134.712C121.861 134.734 122.001 134.781 122.118 134.851C122.235 134.918 122.329 135.006 122.4 135.114C122.471 135.222 122.515 135.344 122.534 135.481C122.563 135.688 122.531 135.867 122.437 136.015C122.343 136.164 122.212 136.283 122.044 136.372L122.05 136.413C122.266 136.442 122.45 136.519 122.603 136.643C122.755 136.764 122.848 136.941 122.88 137.172C122.901 137.322 122.89 137.466 122.847 137.604C122.806 137.738 122.735 137.86 122.632 137.968C122.529 138.076 122.397 138.169 122.238 138.247C122.078 138.321 121.891 138.373 121.676 138.403ZM121.594 137.816C121.772 137.791 121.9 137.731 121.981 137.637C122.065 137.541 122.097 137.424 122.078 137.284L122.063 137.182C122.044 137.039 121.982 136.935 121.879 136.869C121.776 136.8 121.634 136.779 121.453 136.804C121.273 136.829 121.142 136.889 121.062 136.983C120.98 137.075 120.95 137.192 120.97 137.335L120.984 137.437C121.004 137.577 121.065 137.681 121.169 137.75C121.275 137.818 121.417 137.84 121.594 137.816ZM121.375 136.242C121.545 136.218 121.669 136.161 121.747 136.07C121.824 135.979 121.854 135.867 121.835 135.734L121.825 135.658C121.806 135.525 121.746 135.427 121.643 135.365C121.544 135.299 121.41 135.278 121.243 135.301C121.077 135.325 120.953 135.382 120.872 135.473C120.793 135.56 120.764 135.671 120.782 135.803L120.793 135.88C120.811 136.013 120.87 136.112 120.97 136.178C121.069 136.244 121.204 136.265 121.375 136.242ZM135.979 136.407C135.764 136.437 135.57 136.438 135.396 136.41C135.221 136.379 135.07 136.325 134.941 136.249C134.812 136.174 134.709 136.077 134.63 135.959C134.554 135.838 134.505 135.702 134.484 135.552C134.452 135.321 134.493 135.126 134.606 134.968C134.719 134.806 134.875 134.682 135.075 134.595L135.069 134.554C134.883 134.514 134.724 134.435 134.593 134.318C134.462 134.201 134.382 134.039 134.353 133.831C134.334 133.694 134.344 133.565 134.382 133.441C134.421 133.318 134.487 133.208 134.581 133.111C134.675 133.011 134.795 132.928 134.942 132.863C135.089 132.794 135.263 132.745 135.464 132.717C135.662 132.689 135.84 132.689 136 132.715C136.163 132.738 136.303 132.784 136.421 132.854C136.538 132.921 136.632 133.009 136.702 133.117C136.773 133.225 136.818 133.348 136.837 133.484C136.866 133.692 136.834 133.87 136.74 134.019C136.646 134.167 136.515 134.286 136.347 134.376L136.352 134.416C136.568 134.445 136.753 134.522 136.906 134.647C137.058 134.768 137.15 134.944 137.183 135.176C137.203 135.326 137.192 135.47 137.149 135.608C137.109 135.742 137.037 135.863 136.934 135.971C136.831 136.079 136.7 136.172 136.541 136.25C136.381 136.324 136.194 136.377 135.979 136.407ZM135.897 135.819C136.074 135.794 136.203 135.735 136.284 135.64C136.368 135.545 136.4 135.427 136.38 135.288L136.366 135.186C136.346 135.043 136.285 134.938 136.182 134.873C136.078 134.804 135.936 134.782 135.756 134.807C135.575 134.832 135.445 134.892 135.364 134.987C135.283 135.078 135.252 135.195 135.272 135.338L135.287 135.44C135.306 135.58 135.368 135.684 135.471 135.753C135.578 135.822 135.72 135.844 135.897 135.819ZM135.677 134.245C135.848 134.221 135.972 134.164 136.049 134.073C136.127 133.983 136.156 133.871 136.138 133.738L136.127 133.661C136.109 133.528 136.048 133.431 135.946 133.369C135.846 133.303 135.713 133.281 135.546 133.305C135.379 133.328 135.255 133.385 135.174 133.476C135.096 133.564 135.066 133.674 135.085 133.807L135.095 133.883C135.114 134.016 135.173 134.116 135.272 134.182C135.372 134.248 135.507 134.269 135.677 134.245ZM140.747 135.741C140.27 135.808 139.894 135.695 139.621 135.403C139.351 135.111 139.175 134.674 139.094 134.091C139.013 133.508 139.062 133.04 139.241 132.685C139.424 132.329 139.755 132.118 140.231 132.052C140.708 131.985 141.082 132.098 141.352 132.39C141.625 132.682 141.803 133.119 141.884 133.702C141.965 134.284 141.915 134.753 141.731 135.109C141.552 135.464 141.223 135.675 140.747 135.741ZM140.662 135.138C140.891 135.106 141.038 135.004 141.104 134.832C141.174 134.659 141.189 134.429 141.149 134.143L141.056 133.479C141.016 133.192 140.939 132.976 140.824 132.828C140.713 132.681 140.544 132.623 140.316 132.655C140.087 132.686 139.938 132.789 139.869 132.962C139.803 133.134 139.789 133.364 139.829 133.65L139.922 134.314C139.962 134.6 140.038 134.817 140.148 134.965C140.263 135.112 140.434 135.17 140.662 135.138ZM140.531 134.198C140.412 134.214 140.325 134.202 140.271 134.161C140.22 134.12 140.19 134.065 140.18 133.997L140.164 133.884C140.155 133.816 140.169 133.755 140.206 133.701C140.248 133.647 140.328 133.611 140.447 133.595C140.566 133.578 140.651 133.591 140.702 133.632C140.757 133.673 140.788 133.728 140.798 133.796L140.814 133.908C140.823 133.976 140.807 134.038 140.766 134.092C140.729 134.146 140.65 134.181 140.531 134.198ZM144.81 135.111L145.626 131.997L144.471 132.158L144.562 132.807L143.913 132.897L143.735 131.625L146.3 131.267L146.393 131.931L145.618 134.999L144.81 135.111ZM151.018 131.291L149.368 131.521L149.444 132.662L149.49 132.655C149.516 132.568 149.548 132.488 149.586 132.413C149.624 132.335 149.672 132.267 149.73 132.21C149.787 132.15 149.857 132.101 149.938 132.061C150.019 132.022 150.115 131.995 150.224 131.98C150.37 131.959 150.512 131.966 150.648 131.999C150.788 132.031 150.915 132.09 151.027 132.175C151.143 132.256 151.239 132.364 151.317 132.499C151.395 132.631 151.446 132.785 151.47 132.962C151.496 133.143 151.488 133.314 151.448 133.476C151.408 133.638 151.337 133.783 151.233 133.912C151.133 134.041 151.001 134.15 150.836 134.239C150.671 134.324 150.477 134.383 150.256 134.414C150.082 134.438 149.925 134.441 149.783 134.422C149.642 134.404 149.514 134.371 149.4 134.325C149.288 134.274 149.188 134.214 149.098 134.143C149.011 134.068 148.934 133.99 148.868 133.909L149.363 133.392C149.414 133.454 149.465 133.513 149.518 133.568C149.574 133.623 149.635 133.67 149.699 133.71C149.767 133.746 149.838 133.772 149.914 133.789C149.992 133.803 150.079 133.803 150.174 133.789C150.365 133.763 150.501 133.692 150.582 133.576C150.666 133.457 150.696 133.31 150.672 133.136L150.666 133.096C150.643 132.929 150.575 132.804 150.463 132.723C150.351 132.641 150.208 132.613 150.034 132.637C149.891 132.657 149.776 132.702 149.688 132.774C149.604 132.841 149.542 132.905 149.502 132.966L148.861 132.967L148.712 130.93L150.925 130.621L151.018 131.291Z" fill="white"/>
<path fill-rule="evenodd" clip-rule="evenodd" d="M51.5802 114.409L49.2841 114.729L46.6308 108.296C46.5063 108.001 46.2949 107.754 46.0218 107.661C45.3399 107.429 44.6023 107.271 43.8186 107.249L43.7827 106.992L47.4814 106.476C47.9919 106.405 48.4287 106.737 48.555 107.176L50.1203 111.865L51.6269 105.897L53.8591 105.585L51.5802 114.409ZM56.2998 113.75L54.1314 114.053L54.7523 105.461L56.9207 105.158L56.2998 113.75ZM60.0485 107.078C60.0496 106.619 60.3966 106.309 60.8432 106.247C61.5361 106.084 62.3187 106.107 63.0016 106.338L63.1337 104.488C62.4597 104.32 61.7398 104.289 61.1028 104.378C58.9982 104.672 57.6281 106.041 57.852 107.645C58.0223 108.865 59.1965 109.354 60.0161 109.633C60.8982 109.903 61.2531 110.115 61.243 110.509C61.3236 111.086 60.7214 111.432 60.0844 111.521C59.3187 111.628 58.5261 111.542 57.7804 111.319L57.6485 113.169C58.4589 113.383 59.3053 113.396 60.071 113.289C62.4397 113.023 63.7451 111.664 63.5032 109.931C63.1986 107.749 60.1828 108.04 60.0485 107.078ZM71.4779 111.631L68.5916 103.529L66.7422 103.787C66.3593 103.841 66.0123 104.151 65.9384 104.554L63.8252 112.7L66.0574 112.388L66.3328 111.107L69.0755 110.724L69.5009 111.907L71.4779 111.631ZM67.375 105.989L68.4509 109.045L66.6653 109.294L67.375 105.989Z" fill="white"/>
</g>
<defs>
<linearGradient id="paint0_linear_5968_30476" x1="18.3344" y1="172.503" x2="169.558" y2="18.6924" gradientUnits="userSpaceOnUse">
<stop offset="0.0416667" stop-color="#47BAD8"/>
<stop offset="0.34375" stop-color="#6A6CE9"/>
<stop offset="0.609375" stop-color="#9454E6"/>
<stop offset="1" stop-color="#CE57D3"/>
</linearGradient>
<linearGradient id="paint1_linear_5968_30476" x1="12.2416" y1="178.899" x2="175.712" y2="12.632" gradientUnits="userSpaceOnUse">
<stop offset="0.0416667" stop-color="#47BAD8"/>
<stop offset="0.34375" stop-color="#6A6CE9"/>
<stop offset="0.609375" stop-color="#9454E6"/>
<stop offset="1" stop-color="#CE57D3"/>
</linearGradient>
<linearGradient id="paint2_linear_5968_30476" x1="159.554" y1="157.58" x2="56.4932" y2="57.4706" gradientUnits="userSpaceOnUse">
<stop offset="0.01" stop-color="#FF55AA"/>
<stop offset="0.25" stop-color="#B850C9"/>
<stop offset="0.62" stop-color="#6572D6"/>
<stop offset="1" stop-color="#4EAEB8"/>
</linearGradient>
<linearGradient id="paint3_linear_5968_30476" x1="23.7872" y1="166.588" x2="164.043" y2="23.9324" gradientUnits="userSpaceOnUse">
<stop offset="0.0416667" stop-color="#47BAD8"/>
<stop offset="0.34375" stop-color="#6A6CE9"/>
<stop offset="0.609375" stop-color="#9454E6"/>
<stop offset="1" stop-color="#CE57D3"/>
</linearGradient>
<linearGradient id="paint4_linear_5968_30476" x1="23.7872" y1="166.776" x2="164.043" y2="24.1204" gradientUnits="userSpaceOnUse">
<stop offset="0.0416667" stop-color="#47BAD8"/>
<stop offset="0.34375" stop-color="#6A6CE9"/>
<stop offset="0.609375" stop-color="#9454E6"/>
<stop offset="1" stop-color="#CE57D3"/>
</linearGradient>
<linearGradient id="paint5_linear_5968_30476" x1="32.002" y1="174.57" x2="163.505" y2="117.532" gradientUnits="userSpaceOnUse">
<stop stop-color="#1C0D68"/>
<stop offset="0.489583" stop-color="#3C1DAA"/>
<stop offset="1" stop-color="#824EF1"/>
</linearGradient>
<clipPath id="clip0_5968_30476">
<rect width="160.309" height="172.21" fill="white" transform="matrix(-1 0 0 1 173.729 1.38135)"/>
</clipPath>
<clipPath id="clip1_5968_30476">
<rect x="32" y="95.8833" width="122.114" height="78.686" rx="8.59956" transform="rotate(-7.94706 32 95.8833)" fill="white"/>
</clipPath>
</defs>
</svg>
