<svg width="27" height="19" viewBox="0 0 27 19" fill="none" xmlns="http://www.w3.org/2000/svg">
<path d="M20.291 3.70959C19.1224 3.01476 17.7362 2.78197 16.4046 3.05694C15.3397 3.28564 14.3657 3.82314 13.6046 4.60225L13.4319 4.77488L13.2888 4.63172C12.5119 3.83114 11.5132 3.28124 10.4213 3.05273C9.10353 2.79461 7.73683 3.02988 6.58122 3.7138C5.31803 4.47593 3.67588 6.10544 1.62109 8.17286L0 9.79817L0.581067 10.8971C0.753703 11.2214 4.93907 18.9479 13.4361 18.9479C21.9332 18.9479 26.1186 11.2214 26.2954 10.8929L26.8765 9.79396L25.2512 8.16444C23.1922 6.10123 21.5711 4.47172 20.291 3.70959ZM13.4361 15.5794C8.5518 15.5794 5.47382 12.1224 4.21063 10.3413C5.89489 8.65709 7.42756 7.12863 8.30758 6.6023C8.75074 6.34308 9.27335 6.25473 9.77709 6.35387C10.2106 6.45772 10.6043 6.68604 10.9097 7.01073L13.4361 9.53711L15.9878 6.98546C16.2822 6.67434 16.6614 6.45624 17.0783 6.35808C17.5869 6.25339 18.1163 6.34037 18.5647 6.6023C19.4447 7.12863 20.9942 8.66972 22.6574 10.3371C21.39 12.114 18.2868 15.5794 13.4361 15.5794Z" fill="url(#paint0_linear_3004:24932)"/>
<path d="M25.2262 3.36851C26.1564 3.36851 26.9105 2.61444 26.9105 1.68425C26.9105 0.754066 26.1564 0 25.2262 0C24.2961 0 23.542 0.754066 23.542 1.68425C23.542 2.61444 24.2961 3.36851 25.2262 3.36851Z" fill="url(#paint1_linear_3004:24932)"/>
<defs>
<linearGradient id="paint0_linear_3004:24932" x1="26.8765" y1="11.7002" x2="0.000142059" y2="11.8008" gradientUnits="userSpaceOnUse">
<stop stop-color="#00AAE4"/>
<stop offset="1" stop-color="#8255BE"/>
</linearGradient>
<linearGradient id="paint1_linear_3004:24932" x1="26.9105" y1="1.84298" x2="23.542" y2="1.85049" gradientUnits="userSpaceOnUse">
<stop stop-color="#00AAE4"/>
<stop offset="1" stop-color="#8255BE"/>
</linearGradient>
</defs>
</svg>
