<svg width="32" height="24" viewBox="0 0 32 24" fill="none" xmlns="http://www.w3.org/2000/svg">
<path d="M15.6 0C0.282353 0 0 1.34118 0 12C0 22.6588 0.282353 24 15.6 24C30.9176 24 31.2 22.6588 31.2 12C31.2 1.34118 30.9882 0 15.6 0ZM20.6118 12.7765L13.5529 16.1647C12.9882 16.4471 12.3529 16.0235 12.3529 15.3882V8.75294C12.3529 8.11765 12.9882 7.69412 13.5529 7.97647L20.6118 11.2235C20.8941 11.3647 21.0353 11.5765 21.1059 11.8588C21.1059 11.9294 21.1059 12 21.1059 12.0706C21.0353 12.3529 20.8941 12.6353 20.6118 12.7765Z" fill="#328AD6"/>
</svg>
