<svg width="40" height="40" viewBox="0 0 40 40" fill="none" xmlns="http://www.w3.org/2000/svg">
<path d="M11.6536 8.34673C11.6354 8.36618 11.6186 8.38684 11.6032 8.40857C11.6032 8.40857 11.0232 9.21245 10.7318 10.3201C10.4403 11.4278 10.4579 12.9594 11.6663 14.1678L15.6729 18.1744L19.006 14.8414L12.4992 8.33459C12.4434 8.27881 12.377 8.23478 12.304 8.20511C12.2309 8.17545 12.1526 8.16074 12.0738 8.16188C11.995 8.16301 11.9171 8.17995 11.845 8.2117C11.7728 8.24346 11.7077 8.28937 11.6536 8.34673ZM9.58448 22.9168C7.74867 24.7526 7.74887 27.7489 9.58501 29.585C11.4211 31.4211 14.4142 31.4181 16.25 29.5823C17.478 28.3542 17.8797 26.6106 17.4646 25.0406L28.3336 14.1716C29.5419 12.9633 29.56 11.4276 29.2684 10.3199C28.9768 9.21225 28.3983 8.4099 28.3983 8.4099C28.3485 8.33995 28.284 8.28173 28.2093 8.23931C28.1347 8.19688 28.0517 8.17128 27.9661 8.1643C27.8805 8.15732 27.7944 8.16912 27.7139 8.19888C27.6334 8.22864 27.5603 8.27564 27.4999 8.33659L14.1319 21.7046C12.56 21.2871 10.8134 21.6878 9.58448 22.9168ZM11.2521 24.5844C12.1676 23.6689 13.6706 23.6682 14.5862 24.5838C15.5018 25.4994 15.5019 27.0033 14.5865 27.9187C13.671 28.8342 12.168 28.8333 11.2523 27.9177C10.3367 27.0021 10.3366 25.4998 11.2521 24.5844ZM20.9964 23.4979L22.5362 25.0377C22.1206 26.6101 22.5228 28.3574 23.7516 29.5861C25.5877 31.4222 28.5807 31.4192 30.4165 29.5834C32.2524 27.7475 32.2521 24.7578 30.416 22.9217C29.1871 21.6928 27.4408 21.2897 25.8692 21.7047L24.3294 20.1649L20.9964 23.4979ZM25.4186 24.5855C26.3341 23.67 27.8371 23.6693 28.7528 24.5849C29.6684 25.5005 29.6685 27.0044 28.753 27.9199C27.8375 28.8353 26.3345 28.8344 25.4189 27.9188C24.5033 27.0032 24.5032 25.501 25.4186 24.5855Z" fill="url(#paint0_linear_3201:24111)"/>
<defs>
<linearGradient id="paint0_linear_3201:24111" x1="30.9424" y1="10.9424" x2="10.9869" y2="30.987" gradientUnits="userSpaceOnUse">
<stop stop-color="#00AAE4"/>
<stop offset="1" stop-color="#8255BE"/>
</linearGradient>
</defs>
</svg>
