<svg width="25" height="24" viewBox="0 0 25 24" fill="none" xmlns="http://www.w3.org/2000/svg">
<path d="M19.1091 4.92358H20.5716V7.36099H19.1091V4.92358Z" fill="url(#paint0_linear_3004:24925)"/>
<path d="M4.387 4.92358H5.84945V7.36099H4.387V4.92358Z" fill="url(#paint1_linear_3004:24925)"/>
<path d="M12.4796 12.2358C10.4636 12.2358 8.82352 13.8759 8.82352 15.8919C8.82352 17.9079 10.4636 19.548 12.4796 19.548C14.4957 19.548 16.1358 17.9079 16.1358 15.8919C16.1358 13.8759 14.4957 12.2358 12.4796 12.2358ZM13.9421 16.6232H13.2109V17.3544C13.2109 17.7583 12.8835 18.0856 12.4796 18.0856C12.0758 18.0856 11.7484 17.7583 11.7484 17.3544V16.6232H11.0172C10.6133 16.6232 10.286 16.2958 10.286 15.8919C10.286 15.488 10.6133 15.1607 11.0172 15.1607H11.7484V14.4295C11.7484 14.0256 12.0758 13.6983 12.4796 13.6983C12.8835 13.6983 13.2109 14.0256 13.2109 14.4295V15.1607H13.9421C14.346 15.1607 14.6733 15.488 14.6733 15.8919C14.6733 16.2958 14.346 16.6232 13.9421 16.6232Z" fill="url(#paint2_linear_3004:24925)"/>
<path d="M22.6325 4.92358H22.0342V8.09221C22.0342 8.4961 21.7069 8.82343 21.303 8.82343H18.3781C17.9742 8.82343 17.6469 8.4961 17.6469 8.09221V4.92358H7.31223V8.09221C7.31223 8.4961 6.9849 8.82343 6.58101 8.82343H3.65612C3.25223 8.82343 2.92489 8.4961 2.92489 8.09221V4.92358H2.32659C1.04371 4.92358 0 5.96728 0 7.25016V21.6088C0 22.8917 1.04371 23.9354 2.32659 23.9354H22.6325C23.9154 23.9354 24.9591 22.8917 24.9591 21.6088V7.25016C24.9591 5.96728 23.9154 4.92358 22.6325 4.92358ZM12.4795 21.0105C9.6571 21.0105 7.36098 18.7144 7.36098 15.8919C7.36098 13.0695 9.6571 10.7734 12.4795 10.7734C15.302 10.7734 17.5981 13.0695 17.5981 15.8919C17.5981 18.7144 15.302 21.0105 12.4795 21.0105Z" fill="url(#paint3_linear_3004:24925)"/>
<path d="M7.36103 2.19367C7.36103 1.79055 7.68912 1.46245 8.09225 1.46245H16.8669C17.2701 1.46245 17.5982 1.79055 17.5982 2.19367V3.46018H19.0606V2.19367C19.0606 0.984107 18.0765 0 16.8669 0H8.09225C6.88268 0 5.89858 0.984107 5.89858 2.19367V3.46018H7.36103V2.19367Z" fill="url(#paint4_linear_3004:24925)"/>
<defs>
<linearGradient id="paint0_linear_3004:24925" x1="24.9591" y1="13.0955" x2="-8.30135e-05" y2="13.1536" gradientUnits="userSpaceOnUse">
<stop stop-color="#00AAE4"/>
<stop offset="1" stop-color="#8255BE"/>
</linearGradient>
<linearGradient id="paint1_linear_3004:24925" x1="24.9591" y1="13.0955" x2="-8.30135e-05" y2="13.1536" gradientUnits="userSpaceOnUse">
<stop stop-color="#00AAE4"/>
<stop offset="1" stop-color="#8255BE"/>
</linearGradient>
<linearGradient id="paint2_linear_3004:24925" x1="24.9591" y1="13.0955" x2="-8.30135e-05" y2="13.1536" gradientUnits="userSpaceOnUse">
<stop stop-color="#00AAE4"/>
<stop offset="1" stop-color="#8255BE"/>
</linearGradient>
<linearGradient id="paint3_linear_3004:24925" x1="24.9591" y1="13.0955" x2="-8.30135e-05" y2="13.1536" gradientUnits="userSpaceOnUse">
<stop stop-color="#00AAE4"/>
<stop offset="1" stop-color="#8255BE"/>
</linearGradient>
<linearGradient id="paint4_linear_3004:24925" x1="24.9591" y1="13.0955" x2="-8.30135e-05" y2="13.1536" gradientUnits="userSpaceOnUse">
<stop stop-color="#00AAE4"/>
<stop offset="1" stop-color="#8255BE"/>
</linearGradient>
</defs>
</svg>
