<svg width="31" height="23" viewBox="0 0 31 23" fill="none" xmlns="http://www.w3.org/2000/svg">
<path d="M5.25386 6.5616C5.25386 8.74697 7.02947 10.5226 9.21484 10.5226C11.4002 10.5226 13.1758 8.74697 13.1758 6.5616C13.1758 4.37623 11.4002 2.60062 9.21484 2.60062C7.02947 2.60062 5.25386 4.37623 5.25386 6.5616ZM11.0587 6.5616C11.0587 7.58599 10.2392 8.40551 9.21484 8.40551C8.19045 8.40551 7.37094 7.58599 7.37094 6.5616C7.37094 5.53721 8.19045 4.7177 9.21484 4.7177C10.2392 4.7177 11.0587 5.53721 11.0587 6.5616ZM18.6051 4.10306C18.6051 5.94697 20.1075 7.44941 21.9515 7.44941C23.7954 7.44941 25.2978 5.94697 25.2978 4.10306C25.2978 2.25916 23.7954 0.756714 21.9515 0.756714C20.1075 0.756714 18.6051 2.25916 18.6051 4.10306ZM23.1807 4.10306C23.1807 4.78599 22.6344 5.33233 21.9515 5.33233C21.2685 5.33233 20.7222 4.78599 20.7222 4.10306C20.7222 3.42013 21.2685 2.87379 21.9515 2.87379C22.6344 2.87379 23.1807 3.42013 23.1807 4.10306ZM30.01 14.1762H27.5173C26.7319 8.81526 23.7271 7.99575 21.9515 7.99575C20.1758 7.99575 17.2051 8.81526 16.3856 14.1762H14.3709C12.9368 11.7519 10.9563 11.1031 9.21484 11.1031C7.47338 11.1031 5.45874 11.7519 4.05874 14.1762H1.25873C0.678245 14.1762 0.200195 14.6543 0.200195 15.2348C0.200195 15.8153 0.678245 16.2933 1.25873 16.2933H3.10264C2.69288 17.5226 2.41971 19.025 2.24898 20.8348C2.21483 21.4153 2.62459 21.9275 3.20508 21.9958C3.78557 22.0641 4.29776 21.6202 4.36606 21.0397C4.80996 15.8494 6.41484 13.2201 9.1807 13.2201C11.9466 13.2201 13.5856 15.8494 13.9953 21.0397C14.0295 21.586 14.5075 22.0299 15.0539 22.0299C15.088 22.0299 15.1222 22.0299 15.1563 22.0299C15.7368 21.9958 16.1807 21.4836 16.1124 20.8689C15.9758 19.025 15.6685 17.5567 15.2588 16.3275H29.9417C30.5222 16.3275 31.0002 15.8494 31.0002 15.2689C31.0002 14.6884 30.5905 14.1762 30.01 14.1762ZM18.5368 14.1762C19.0149 11.4787 20.1417 10.1128 21.9515 10.1128C23.7612 10.1128 24.888 11.4787 25.3661 14.1762H18.5368Z" fill="url(#paint0_linear_3004:25066)"/>
<defs>
<linearGradient id="paint0_linear_3004:25066" x1="31.0002" y1="12.3957" x2="0.200247" y2="12.4951" gradientUnits="userSpaceOnUse">
<stop stop-color="#00AAE4"/>
<stop offset="1" stop-color="#8255BE"/>
</linearGradient>
</defs>
</svg>
