<svg width="27" height="25" viewBox="0 0 27 25" fill="none" xmlns="http://www.w3.org/2000/svg">
<path d="M0.939081 0.479044C-0.175938 0.445079 -0.362905 2.06046 0.73037 2.28221L2.74455 2.72339C3.81 7.82027 4.9714 12.8964 6.09762 17.9804C6.19022 18.3973 6.56001 18.6939 6.98701 18.6938H22.9813C24.2135 18.712 24.2135 16.8541 22.9813 16.8722H7.71809L7.3149 15.0512H23.7882C24.2153 15.0513 24.585 14.7547 24.6776 14.3378L26.6948 5.23101C26.8205 4.66258 26.3881 4.12371 25.806 4.12336C18.8374 4.12353 11.8689 4.12323 4.9005 4.11993L4.4054 1.77098C4.33162 1.42041 4.05919 1.14569 3.70931 1.06892L1.11939 0.502015C1.06018 0.48836 0.999851 0.480465 0.939139 0.478974L0.939081 0.479044ZM10.7781 19.3017C9.44763 19.3017 8.3495 20.3999 8.3495 21.7305C8.3495 23.0611 9.44763 24.1593 10.7781 24.1593C12.1087 24.1593 13.2068 23.0611 13.2068 21.7305C13.2068 20.3999 12.1087 19.3017 10.7781 19.3017ZM19.2784 19.3017C17.9479 19.3017 16.8497 20.3999 16.8497 21.7305C16.8497 23.0611 17.9479 24.1593 19.2784 24.1593C20.6089 24.1593 21.707 23.0611 21.707 21.7305C21.707 20.3999 20.6089 19.3017 19.2784 19.3017Z" fill="url(#paint0_linear_3004:25061)"/>
<defs>
<linearGradient id="paint0_linear_3004:25061" x1="26.7167" y1="13.4347" x2="-6.42366e-05" y2="13.5019" gradientUnits="userSpaceOnUse">
<stop stop-color="#00AAE4"/>
<stop offset="1" stop-color="#8255BE"/>
</linearGradient>
</defs>
</svg>
