<svg width="23" height="29" viewBox="0 0 23 29" fill="none" xmlns="http://www.w3.org/2000/svg">
<path d="M7.96139 5.30758H6.1922C6.1922 3.89992 6.75139 2.54992 7.74675 1.55455C8.74212 0.55919 10.0921 0 11.4998 0C12.9074 0 14.2574 0.55919 15.2528 1.55455C16.2482 2.54992 16.8074 3.89992 16.8074 5.30758H15.0382C15.0382 4.36914 14.6654 3.46914 14.0018 2.80556C13.3382 2.14199 12.4382 1.76919 11.4998 1.76919C10.5613 1.76919 9.66134 2.14199 8.99776 2.80556C8.33419 3.46914 7.96139 4.36914 7.96139 5.30758ZM22.9818 23.4837C23.0375 24.0958 22.9649 24.7128 22.7688 25.2953C22.5727 25.8778 22.2574 26.4131 21.8429 26.8669C21.4284 27.3207 20.9238 27.6832 20.3615 27.9311C19.7991 28.1791 19.1912 28.3072 18.5766 28.3071H4.42345C3.80882 28.3072 3.20093 28.1791 2.63854 27.9311C2.07616 27.6832 1.57163 27.3207 1.15713 26.8669C0.74264 26.4131 0.427282 25.8778 0.231177 25.2953C0.0350711 24.7128 -0.0374777 24.0958 0.0181583 23.4837L1.21723 10.2951C1.2934 9.4142 1.69814 8.59418 2.35105 7.99793C3.00397 7.40169 3.85727 7.07286 4.74146 7.07677H18.2581C19.1422 7.07288 19.9954 7.40165 20.6483 7.9978C21.3012 8.59395 21.706 9.41386 21.7822 10.2947L22.9818 23.4837ZM16.8074 11.4998C16.8074 11.2651 16.7142 11.0401 16.5483 10.8743C16.3824 10.7084 16.1574 10.6152 15.9228 10.6152C15.6882 10.6152 15.4632 10.7084 15.2973 10.8743C15.1314 11.0401 15.0382 11.2651 15.0382 11.4998C15.0382 12.4382 14.6654 13.3382 14.0018 14.0018C13.3382 14.6653 12.4382 15.0381 11.4998 15.0381C10.5613 15.0381 9.66134 14.6653 8.99776 14.0018C8.33419 13.3382 7.96139 12.4382 7.96139 11.4998C7.96139 11.2651 7.86819 11.0401 7.7023 10.8743C7.53641 10.7084 7.31141 10.6152 7.0768 10.6152C6.84219 10.6152 6.61719 10.7084 6.45129 10.8743C6.2854 11.0401 6.1922 11.2651 6.1922 11.4998C6.1922 12.9074 6.75139 14.2574 7.74675 15.2528C8.74212 16.2481 10.0921 16.8073 11.4998 16.8073C12.9074 16.8073 14.2574 16.2481 15.2528 15.2528C16.2482 14.2574 16.8074 12.9074 16.8074 11.4998Z" fill="url(#paint0_linear_3004:25071)"/>
<defs>
<linearGradient id="paint0_linear_3004:25071" x1="23" y1="15.4874" x2="-0.00012532" y2="15.529" gradientUnits="userSpaceOnUse">
<stop stop-color="#00AAE4"/>
<stop offset="1" stop-color="#8255BE"/>
</linearGradient>
</defs>
</svg>
