<svg width="27" height="25" viewBox="0 0 27 25" fill="none" xmlns="http://www.w3.org/2000/svg">
<path d="M13.5703 2.46297C14.7337 2.46297 15.7387 1.67284 16.0997 0.510498C15.4109 0.712435 14.5331 0.834313 13.5703 0.834313C12.6076 0.834313 11.7297 0.712435 11.041 0.510498C11.4018 1.67275 12.4067 2.46297 13.5703 2.46297Z" fill="url(#paint0_linear_3004:25068)"/>
<path d="M26.9662 3.89172C26.911 3.72656 26.796 3.59075 26.6462 3.51679L21.5253 0.998871C20.436 0.60584 19.3262 0.295384 18.2056 0.0684719C18.1662 0.0602434 18.1269 0.0562744 18.0882 0.0562744C17.8108 0.0562744 17.5624 0.260244 17.5006 0.559373C17.0914 2.47806 15.4968 3.91456 13.5696 3.91456C11.6425 3.91456 10.0477 2.47816 9.63865 0.559373C9.57612 0.260244 9.32817 0.0562744 9.05096 0.0562744C9.01224 0.0562744 8.97298 0.0602434 8.93353 0.0684719C7.81306 0.295384 6.70331 0.60584 5.61228 0.998871L0.493155 3.51669C0.342462 3.59065 0.22667 3.72647 0.174045 3.89162C0.119603 4.0587 0.129419 4.23905 0.206129 4.39665L2.42927 9.06966C2.53333 9.29144 2.74501 9.42455 2.96896 9.42455C3.02677 9.42455 3.08539 9.41564 3.1432 9.39715L5.61237 8.61767V24.2973C5.61237 24.6533 5.88513 24.9438 6.22033 24.9438H20.9191C21.2534 24.9438 21.5253 24.6532 21.5253 24.2973V8.61786L23.9962 9.39734C24.0541 9.41583 24.1126 9.42474 24.1703 9.42474C24.3938 9.42474 24.6047 9.29163 24.7102 9.06985L26.9341 4.39685C27.009 4.23915 27.0198 4.0588 26.9662 3.89172Z" fill="url(#paint1_linear_3004:25068)"/>
<defs>
<linearGradient id="paint0_linear_3004:25068" x1="16.0997" y1="1.57874" x2="11.0411" y2="1.60795" gradientUnits="userSpaceOnUse">
<stop stop-color="#00AAE4"/>
<stop offset="1" stop-color="#8255BE"/>
</linearGradient>
<linearGradient id="paint1_linear_3004:25068" x1="26.9997" y1="13.6727" x2="0.139569" y2="13.7373" gradientUnits="userSpaceOnUse">
<stop stop-color="#00AAE4"/>
<stop offset="1" stop-color="#8255BE"/>
</linearGradient>
</defs>
</svg>
