<svg width="20" height="22" viewBox="0 0 20 22" fill="none" xmlns="http://www.w3.org/2000/svg">
<path d="M19.6762 7.2444C19.5817 7.42754 19.4772 7.60538 19.3633 7.77712L16.6993 11.507C16.4765 11.8182 16.1828 12.0719 15.8425 12.247C15.5022 12.422 15.125 12.5135 14.7423 12.5138C14.5058 12.51 14.2711 12.4709 14.0461 12.3978V20.1101L18.6757 21.5644C18.7505 21.587 18.8281 21.5985 18.9062 21.5983C19.0115 21.5984 19.1157 21.5777 19.213 21.5374C19.3102 21.4971 19.3986 21.4381 19.473 21.3637C19.5474 21.2892 19.6065 21.2009 19.6467 21.1036C19.687 21.0064 19.7077 20.9021 19.7077 20.7969V7.43748C19.7052 7.37207 19.6947 7.30721 19.6762 7.2444Z" fill="white"/>
<path d="M9.24958 5.92237L7.56553 6.38597V21.4072L12.443 20.0647V11.0274L10.1215 7.77754C9.72103 7.21696 9.42562 6.5884 9.24958 5.92237Z" fill="white"/>
<path d="M0.615346 5.01305C0.515043 5.08762 0.433582 5.18462 0.377477 5.2963C0.321372 5.40799 0.29218 5.53125 0.292236 5.65623V19.0156C0.292189 19.1879 0.347718 19.3557 0.45058 19.494C0.553442 19.6322 0.698152 19.7337 0.863225 19.7832L5.96236 21.3848V6.34573L1.32419 4.88868C1.20454 4.85259 1.07809 4.84505 0.954993 4.86665C0.831895 4.88825 0.71557 4.93839 0.615346 5.01305Z" fill="white"/>
<path d="M14.0898 10.5751C14.164 10.6789 14.2618 10.7636 14.3753 10.822C14.4888 10.8804 14.6145 10.9108 14.7421 10.9108C14.8697 10.9108 14.9955 10.8804 15.1089 10.822C15.2224 10.7636 15.3203 10.6789 15.3944 10.5751L18.0585 6.84562C18.4936 6.2363 18.7525 5.51887 18.8067 4.77209C18.8609 4.0253 18.7083 3.27802 18.3656 2.61227C18.023 1.94652 17.5036 1.38804 16.8644 0.998116C16.2251 0.608197 15.4909 0.401917 14.7421 0.401917C13.9934 0.401917 13.2591 0.608197 12.6199 0.998116C11.9807 1.38804 11.4612 1.94652 11.1186 2.61227C10.776 3.27802 10.6234 4.0253 10.6775 4.77209C10.7317 5.51887 10.9906 6.2363 11.4258 6.84562L14.0898 10.5751ZM14.7421 3.14113C15.0063 3.14113 15.2646 3.21948 15.4843 3.36628C15.704 3.51307 15.8752 3.72172 15.9764 3.96583C16.0775 4.20994 16.1039 4.47855 16.0524 4.7377C16.0008 4.99684 15.8736 5.23488 15.6868 5.42172C15.4999 5.60855 15.2619 5.73579 15.0027 5.78734C14.7436 5.83888 14.475 5.81243 14.2309 5.71131C13.9868 5.6102 13.7781 5.43897 13.6313 5.21928C13.4845 4.99958 13.4062 4.74129 13.4062 4.47707C13.4062 4.30163 13.4407 4.12791 13.5079 3.96582C13.575 3.80374 13.6734 3.65646 13.7975 3.53241C13.9215 3.40835 14.0688 3.30995 14.2309 3.24281C14.393 3.17568 14.5667 3.14113 14.7421 3.14113Z" fill="white"/>
</svg>
