<svg width="27" height="22" viewBox="0 0 27 22" fill="none" xmlns="http://www.w3.org/2000/svg">
<path d="M4.23168 19.7914V19.7916H7.68419C8.18563 19.7916 8.63338 19.6162 8.98184 19.2668L8.9818 19.2668L8.98435 19.2644L19.8778 9.08088C20.0009 8.95808 20.1572 8.8945 20.3157 8.8945H22.8421C23.8919 8.8945 24.7684 8.01594 24.7684 6.96279C24.7684 5.9096 23.8918 5.03109 22.8421 5.03109H19.2894C18.788 5.03109 18.3402 5.2065 17.9917 5.55589L17.9918 5.55593L17.9892 5.55832L7.09583 15.7418C6.97271 15.8646 6.81639 15.9282 6.65788 15.9282H4.13149C3.08171 15.9282 2.20514 16.8068 2.20514 17.8599C2.20532 18.9394 3.05548 19.7914 4.13168 19.7914H4.23168ZM4.13179 14.6202H6.40814L8.295 12.8562L8.29482 7.93921C8.29482 6.97302 8.76755 6.13317 9.47189 5.58542C8.92655 5.09419 8.58429 4.3886 8.58429 3.5857C8.58429 2.10601 9.78675 0.9 11.2632 0.9C12.7396 0.9 13.9421 2.10601 13.9421 3.5857C13.9421 4.38765 13.6006 5.09256 13.0563 5.58375C13.6294 6.01516 14.0306 6.66521 14.1525 7.39046L17.115 4.62164C17.1152 4.6215 17.1153 4.62137 17.1155 4.62123C17.7138 4.04869 18.5018 3.74946 19.3157 3.74946H22.8684C24.6608 3.74946 26.1 5.19289 26.1 6.98934C26.1 8.78578 24.6608 10.2292 22.8684 10.2292H20.592L9.88497 20.2278C9.88482 20.228 9.88468 20.2281 9.88454 20.2282C9.2862 20.8008 8.49815 21.1 7.6843 21.1H4.1316C2.33925 21.1 0.9 19.6566 0.9 17.8601C0.9 16.0906 2.33871 14.6202 4.1316 14.6202H4.13179ZM12.637 3.5857C12.637 2.82279 12.0236 2.20818 11.2634 2.20818C10.5031 2.20818 9.88973 2.82279 9.88973 3.5857C9.88973 4.34861 10.5031 4.96322 11.2634 4.96322C12.0236 4.96322 12.637 4.34861 12.637 3.5857ZM12.9 7.93916C12.9 7.01793 12.155 6.27135 11.2369 6.27135C10.3187 6.27135 9.57374 7.01793 9.57374 7.93916V11.6414L12.9 8.55515L12.9 7.93916Z" fill="black" stroke="black" stroke-width="0.2"/>
</svg>
