<svg width="16" height="16" viewBox="0 0 16 16" fill="none" xmlns="http://www.w3.org/2000/svg">
<path d="M0.573831 15.1993C0.804484 15.4573 1.16888 15.5482 1.49344 15.4282L8.00013 13.0138L14.5064 15.428C14.8155 15.5422 15.1621 15.4655 15.3933 15.2342L15.426 15.1992C15.5386 15.0732 15.6106 14.9162 15.6327 14.7486C15.6547 14.5811 15.6258 14.4108 15.5496 14.26L8.7505 0.809279C8.60723 0.526914 8.31654 0.347977 7.99971 0.347372C7.68287 0.346767 7.39457 0.526872 7.24894 0.809228L0.450751 14.2606C0.374287 14.4113 0.345124 14.5815 0.367088 14.749C0.389052 14.9165 0.461116 15.0734 0.573831 15.1993Z" fill="white"/>
</svg>
