<svg width="20" height="20" viewBox="0 0 20 20" fill="none" xmlns="http://www.w3.org/2000/svg">
<circle cx="10" cy="10" r="8.33333" fill="black" stroke="black" stroke-width="3.33333"/>
<path fill-rule="evenodd" clip-rule="evenodd" d="M13.92 13.0967C13.92 14.7447 11.66 14.9352 9.9605 14.9352L9.83888 14.9351C8.7561 14.9325 6 14.8641 6 13.0867C6 11.4723 8.16918 11.2566 9.85574 11.2484L10.0821 11.2483C11.1648 11.2509 13.92 11.3193 13.92 13.0967ZM9.9605 5C11.4245 5 12.615 6.191 12.615 7.655C12.615 9.119 11.4245 10.3095 9.9605 10.3095H9.9445C8.4835 10.305 7.3 9.1135 7.30498 7.6535C7.30498 6.191 8.496 5 9.9605 5ZM9.9445 8.06756C9.9445 8.06756 9.9445 8.06756 9.9605 8.06745L9.9445 8.06756Z" fill="white"/>
</svg>
