<svg width="24" height="24" viewBox="0 0 24 24" fill="none" xmlns="http://www.w3.org/2000/svg">
<path d="M9.75 4.12499H21V6.375H9.75V4.12499ZM9.75 10.875H21V13.125H9.75V10.875ZM9.75 17.625H21V19.875H9.75V17.625ZM3 5.25001C3 6.49265 4.00737 7.50003 5.25001 7.50003C6.49265 7.50003 7.50003 6.49265 7.50003 5.25001C7.49999 4.00737 6.49262 3 5.25001 3C4.0074 3 3 4.00737 3 5.25001ZM3 12C3 13.2426 4.00737 14.25 5.25001 14.25C6.49265 14.25 7.50003 13.2426 7.50003 12C7.50003 10.7574 6.49265 9.75 5.25001 9.75C4.00737 9.75 3 10.7574 3 12ZM3 18.75C3 19.9927 4.00737 21 5.25001 21C6.49265 21 7.50003 19.9927 7.50003 18.75C7.50003 17.5074 6.49262 16.5 5.25001 16.5C4.0074 16.5 3 17.5074 3 18.75Z" fill="black"/>
</svg>
