<svg width="128" height="128" viewBox="0 0 128 128" fill="none" xmlns="http://www.w3.org/2000/svg">
<circle cx="64" cy="64" r="64" fill="white"/>
<circle cx="64" cy="64" r="64" fill="url(#paint0_linear_1756_12792)" fill-opacity="0.1"/>
<rect x="51.0977" y="33.0127" width="38.3802" height="44.7195" transform="rotate(11.8345 51.0977 33.0127)" fill="url(#paint1_linear_1756_12792)"/>
<rect x="43.8545" y="84.0283" width="27.7528" height="5.89199" transform="rotate(11.8345 43.8545 84.0283)" fill="url(#paint2_linear_1756_12792)"/>
<path d="M36.9357 27.1175L42.3273 28.2472L43.8469 20.995C44.0738 19.9123 45.1355 19.2184 46.2183 19.4453L53.5703 20.9858L54.721 15.4944L44.9182 13.4403C42.2113 12.8731 39.557 14.6077 38.9898 17.3147L36.9357 27.1175Z" fill="url(#paint3_linear_1756_12792)"/>
<path d="M103.594 41.0857L98.2029 39.956L99.7225 32.7038C99.9494 31.621 99.2556 30.5593 98.1728 30.3324L90.8207 28.7919L91.9714 23.3004L101.774 25.3545C104.481 25.9217 106.216 28.576 105.649 31.2829L103.594 41.0857Z" fill="url(#paint4_linear_1756_12792)"/>
<path d="M29.798 88.0445L24.4064 86.9148L22.3524 96.7175C21.7852 99.4245 23.5198 102.079 26.2267 102.646L36.0295 104.7L37.1802 99.2086L29.8281 97.668C28.7453 97.4411 28.0515 96.3794 28.2784 95.2967L29.798 88.0445Z" fill="url(#paint5_linear_1756_12792)"/>
<path d="M91.0651 100.883L85.6736 99.7532L84.154 107.005C83.9271 108.088 82.8654 108.782 81.7826 108.555L74.4305 107.015L73.2799 112.506L83.0827 114.56C85.7896 115.127 88.4439 113.393 89.0111 110.686L91.0651 100.883Z" fill="url(#paint6_linear_1756_12792)"/>
<path fill-rule="evenodd" clip-rule="evenodd" d="M77.5405 104.189C79.4569 104.59 81.3783 103.16 81.8321 100.995L95.1835 37.2766C95.6372 35.1111 94.4515 33.03 92.5351 32.6284L50.4612 23.8123C48.5448 23.4108 46.6234 24.8408 46.1696 27.0063L32.8182 90.7244C32.3644 92.89 33.5502 94.971 35.4666 95.3726L77.5405 104.189ZM51.1124 33.6703L87.9812 41.3958L79.0461 84.0378L42.1772 76.3124L51.1124 33.6703ZM55.1599 42.705L52.9005 53.488L63.6835 55.7475L65.943 44.9644L55.1599 42.705ZM61.7931 47.6765L57.872 46.8549L57.0504 50.776L60.9715 51.5976L61.7931 47.6765ZM49.9221 67.702L52.1816 56.919L62.9646 59.1785L60.7051 69.9615L49.9221 67.702ZM54.8936 61.0689L58.8147 61.8905L57.9931 65.8116L54.072 64.99L54.8936 61.0689ZM69.8641 45.7861L80.6472 48.0455L78.3877 58.8286L67.6046 56.5691L69.8641 45.7861ZM72.5762 49.936L76.4973 50.7576L75.6756 54.6787L71.7545 53.8571L72.5762 49.936ZM70.214 61.2091L66.783 60.4902L66.0641 63.9212L69.4951 64.6401L68.7761 68.0711L72.6973 68.8927L71.8756 72.8138L75.3066 73.5327L76.8471 66.1807L69.4951 64.6401L70.214 61.2091ZM65.2425 67.8423L68.6734 68.5612L67.9545 71.9922L64.5235 71.2733L65.2425 67.8423ZM54.1691 86.5C52.8156 86.2164 51.4885 87.0837 51.2049 88.4372C50.9213 89.7907 51.7886 91.1178 53.142 91.4014L62.9448 93.4555C64.2983 93.7391 65.6254 92.8718 65.909 91.5183C66.1926 90.1648 65.3253 88.8377 63.9718 88.5541L54.1691 86.5Z" fill="url(#paint7_linear_1756_12792)"/>
<defs>
<linearGradient id="paint0_linear_1756_12792" x1="11.3157" y1="115.231" x2="93.5111" y2="35.3111" gradientUnits="userSpaceOnUse">
<stop offset="0.01" stop-color="#FF55AA"/>
<stop offset="0.25" stop-color="#B850C9"/>
<stop offset="0.62" stop-color="#6572D6"/>
<stop offset="1" stop-color="#4EAEB8"/>
</linearGradient>
<linearGradient id="paint1_linear_1756_12792" x1="70.2878" y1="33.0127" x2="70.2878" y2="77.7322" gradientUnits="userSpaceOnUse">
<stop stop-color="#FFF4FF"/>
<stop offset="1" stop-color="#FEC1FF"/>
</linearGradient>
<linearGradient id="paint2_linear_1756_12792" x1="57.7309" y1="84.0283" x2="57.7309" y2="89.9203" gradientUnits="userSpaceOnUse">
<stop stop-color="#FFF4FF"/>
<stop offset="1" stop-color="#FEC1FF"/>
</linearGradient>
<linearGradient id="paint3_linear_1756_12792" x1="28.4365" y1="33.6" x2="111.407" y2="123.124" gradientUnits="userSpaceOnUse">
<stop stop-color="#CE57D3"/>
<stop offset="0.349738" stop-color="#9454E6"/>
<stop offset="0.635417" stop-color="#6A6CE9"/>
<stop offset="1" stop-color="#47BAD8"/>
</linearGradient>
<linearGradient id="paint4_linear_1756_12792" x1="28.4365" y1="33.6" x2="111.407" y2="123.124" gradientUnits="userSpaceOnUse">
<stop stop-color="#CE57D3"/>
<stop offset="0.349738" stop-color="#9454E6"/>
<stop offset="0.635417" stop-color="#6A6CE9"/>
<stop offset="1" stop-color="#47BAD8"/>
</linearGradient>
<linearGradient id="paint5_linear_1756_12792" x1="28.4365" y1="33.6" x2="111.407" y2="123.124" gradientUnits="userSpaceOnUse">
<stop stop-color="#CE57D3"/>
<stop offset="0.349738" stop-color="#9454E6"/>
<stop offset="0.635417" stop-color="#6A6CE9"/>
<stop offset="1" stop-color="#47BAD8"/>
</linearGradient>
<linearGradient id="paint6_linear_1756_12792" x1="28.4365" y1="33.6" x2="111.407" y2="123.124" gradientUnits="userSpaceOnUse">
<stop stop-color="#CE57D3"/>
<stop offset="0.349738" stop-color="#9454E6"/>
<stop offset="0.635417" stop-color="#6A6CE9"/>
<stop offset="1" stop-color="#47BAD8"/>
</linearGradient>
<linearGradient id="paint7_linear_1756_12792" x1="37.1799" y1="39.8305" x2="103.281" y2="107.555" gradientUnits="userSpaceOnUse">
<stop stop-color="#CE57D3"/>
<stop offset="0.349738" stop-color="#9454E6"/>
<stop offset="0.635417" stop-color="#6A6CE9"/>
<stop offset="1" stop-color="#47BAD8"/>
</linearGradient>
</defs>
</svg>
