<svg width="229" height="224" viewBox="0 0 229 224" fill="none" xmlns="http://www.w3.org/2000/svg">
<circle opacity="0.2" cx="114.719" cy="110.323" r="97.4412" stroke="url(#paint0_linear_1359_11694)"/>
<circle opacity="0.2" cx="114.719" cy="110.323" r="103.5" stroke="url(#paint1_linear_1359_11694)"/>
<circle cx="114.601" cy="110.206" r="91.3824" fill="url(#paint2_linear_1359_11694)" fill-opacity="0.2" stroke="url(#paint3_linear_1359_11694)"/>
<circle opacity="0.1" cx="114.327" cy="111.931" r="90.6078" fill="url(#paint4_linear_1359_11694)"/>
<mask id="mask0_1359_11694" style="mask-type:alpha" maskUnits="userSpaceOnUse" x="20" y="20" width="183" height="183">
<circle cx="111.525" cy="111.524" r="90.6078" transform="rotate(15.4984 111.525 111.524)" fill="url(#paint5_linear_1359_11694)"/>
</mask>
<g mask="url(#mask0_1359_11694)">
<path fill-rule="evenodd" clip-rule="evenodd" d="M179.55 15.784C178.462 13.8613 176.022 13.1845 174.099 14.2724L112.876 48.9127C109.775 50.6676 110.343 55.2964 113.777 56.2487L137.235 62.7534C139.364 63.3437 140.611 65.548 140.021 67.6768L100.58 209.913C99.9894 212.042 101.237 214.246 103.365 214.836L137.093 224.189C139.222 224.779 141.426 223.532 142.016 221.403L181.457 79.1669C182.048 77.0381 184.252 75.7909 186.381 76.3812L209.64 82.8309C213.074 83.7831 215.945 80.1081 214.19 77.0066L179.55 15.784Z" fill="url(#paint6_linear_1359_11694)"/>
</g>
<mask id="mask1_1359_11694" style="mask-type:alpha" maskUnits="userSpaceOnUse" x="23" y="21" width="182" height="182">
<circle cx="114.327" cy="111.931" r="90.6078" fill="#F2F0FB"/>
</mask>
<g mask="url(#mask1_1359_11694)">
<path d="M100.813 59.3708C103.198 57.7965 105.659 56.2223 107.299 53.9733C109.909 50.5999 110.505 45.7271 108.79 41.829C107.821 39.505 105.733 37.3311 103.198 37.3311C101.633 37.3311 100.142 38.1557 98.7995 39.0553C92.8349 42.8035 86.4976 47.0765 79.4146 46.9266C78.0726 46.9266 76.7306 46.7017 75.3885 46.9266C72.6299 47.3014 70.3186 49.4004 68.9766 51.8743C67.6346 54.3481 67.2618 57.1968 67.1127 60.0455C66.9636 63.269 67.0381 66.7923 65.1742 69.3411C63.6085 71.4402 60.999 72.4147 58.8368 73.914C54.1397 77.0625 51.3065 83.5845 53.6924 88.7571C54.5125 90.5563 55.9291 92.1305 56.5255 94.0047C57.1966 96.1037 56.7492 98.4276 56.6001 100.602C56.451 102.851 56.6747 105.249 58.3149 106.824C60.328 108.698 63.5339 108.323 66.1434 107.423C72.3317 105.324 77.8489 101.126 81.4277 95.6539C85.0064 90.1814 86.7212 83.4346 86.1993 76.9126L100.813 59.3708Z" fill="#281616"/>
<path d="M94.9968 68.1412V68.3661L95.5187 74.5882L96.1152 81.7848L81.9493 80.6604V59.8201C81.9493 59.8201 73.748 53.8229 76.5066 49.3999C79.2652 45.052 87.9884 41.1538 87.9884 41.1538L104.316 40.0293C104.316 40.1792 106.479 65.9672 94.9968 68.1412Z" fill="#FFD3CA"/>
<path d="M74.4941 47.3014C75.7616 48.8007 78.222 49.0256 80.0859 49.7003C82.6209 50.5249 85.3795 51.1996 88.0636 50.8998C92.9843 50.375 98.8744 47.3014 102.379 43.7781C104.093 42.0539 105.808 39.1302 104.839 36.8813C104.093 35.1571 101.26 31.9336 98.6507 31.3339C90.4494 29.5347 81.2043 32.2335 76.5072 40.0298C75.2397 42.1288 74.4941 47.3014 74.4941 47.3014Z" fill="#281616"/>
<path d="M140.029 178.565L140.477 187.486C140.477 187.486 138.911 186.737 138.538 185.537L137.569 180.439L135.854 176.916L136.973 180.964L137.047 188.686C137.047 188.686 135.929 188.536 135.109 186.737L134.661 181.714L133.468 178.265L133.767 181.789L133.916 187.186C133.916 187.186 133.17 186.811 132.872 186.512C132.275 185.837 131.903 185.312 131.679 183.063L130.635 178.49L130.113 182.314L129.964 183.438C129.964 183.438 128.995 182.763 128.622 181.039C128.324 179.315 128.548 177.141 128.548 177.141C128.548 177.141 124.522 169.944 126.385 164.697L119.004 154.427L117.289 152.103L111.176 143.782L114.158 131.412L115.426 126.39L120.048 136.06L133.096 163.048L138.762 169.869L140.551 174.817C140.551 174.817 139.284 175.792 137.345 173.843L140.029 178.565Z" fill="#FFD3CA"/>
<path d="M120.048 135.985L119.004 154.426L117.29 152.102L114.158 131.412L115.426 126.314L120.048 135.985Z" fill="#F9B2B2"/>
<path d="M115.873 125.34L116.768 141.533H79.1908C79.1908 141.533 79.2654 140.408 79.34 138.534C79.34 137.935 79.34 137.185 79.4145 136.435C79.4891 133.587 79.4891 129.838 79.1908 125.715C79.1163 124.966 79.0417 124.141 78.9672 123.316C78.4453 117.769 77.476 111.772 75.5375 106.824C75.463 106.674 75.463 106.599 75.3884 106.449L74.0464 118.219L56.3018 117.919C56.3018 117.919 61.7444 89.4321 66.1433 84.4844C66.1433 84.4844 69.4238 77.8875 81.9495 76.2383C81.9495 76.2383 90.6727 81.186 95.5934 76.2383C95.5934 76.2383 111.4 89.9569 115.724 94.3049C115.724 94.3049 118.11 94.6797 116.768 111.697C116.693 112.971 116.544 114.321 116.395 115.82C116.246 117.094 116.097 118.519 115.948 119.943C115.873 120.693 115.798 121.517 115.649 122.342L115.873 125.34Z" fill="#FF8685"/>
<path d="M116.022 120.018C115.947 120.768 115.873 121.593 115.723 122.417L115.873 125.341L103.198 128.19L79.3395 138.535C79.3395 137.935 79.3395 137.185 79.4141 136.436C79.4887 133.587 79.4887 129.839 79.1904 125.716L116.469 115.82C116.32 117.17 116.171 118.594 116.022 120.018Z" fill="#EF6C6C"/>
<path d="M83.8136 123.692C83.2171 129.314 82.5461 138.685 82.397 141.533H79.2656C79.2656 141.533 79.3402 140.409 79.4147 138.535C79.4147 137.935 79.4147 137.185 79.4893 136.436C79.5638 133.587 79.5638 129.839 79.2656 125.716C79.1911 124.966 79.1165 124.141 79.0419 123.317C78.52 117.769 77.5508 111.772 75.6123 106.824L75.6869 105.625C75.6123 105.7 84.5592 116.945 83.8136 123.692Z" fill="#EF6C6C"/>
<path d="M122.285 121.292H110.803L114.605 96.1035H126.087L122.285 121.292Z" fill="#281616"/>
<path d="M119.005 113.046C119.005 113.046 118.483 117.469 117.364 119.044C117.141 119.418 116.619 119.718 116.022 119.943C114.68 120.543 112.667 120.843 111.325 121.068C110.431 121.218 109.76 121.218 109.76 121.218C108.119 121.742 100.514 123.991 100.514 123.991L79.4147 136.435L75.3886 138.834C64.5033 146.481 60.4026 139.659 60.4026 139.659C56.0037 135.611 56.7493 123.991 57.4203 118.144C57.4203 118.069 57.4203 118.069 57.4203 117.994H73.6738L72.8537 122.567L72.3318 125.416L78.8928 123.392L99.8434 116.945C106.106 111.997 108.716 110.722 109.387 110.423C109.536 110.348 109.61 110.348 109.61 110.348C112.966 110.573 115.202 111.247 116.693 111.847C118.408 112.447 119.005 113.046 119.005 113.046Z" fill="#FFD3CA"/>
<path d="M108.641 314.178H94.4753V238.013L90.6729 185.912L96.4138 168.071L116.842 141.458C116.842 141.458 123.925 182.014 115.202 230.217L108.641 314.178Z" fill="#281616"/>
<path d="M116.842 141.533L80.3088 140.783C80.3088 140.783 61.2222 145.881 63.3843 204.578C63.3843 204.578 60.1038 233.59 57.4197 243.485C54.6611 253.381 45.416 314.177 45.416 314.177H59.06L101.036 166.721C101.036 166.796 112.443 155.851 116.842 141.533Z" fill="#7F2684"/>
<path d="M55.3322 314.328L54.2139 314.103C54.5121 312.978 80.8308 201.28 102.378 142.208L103.422 142.583C81.8746 201.58 55.5559 313.203 55.3322 314.328Z" fill="white"/>
<path d="M95.5195 74.5884C92.8354 73.2391 89.1821 70.0905 88.2129 62.3691C88.2129 62.3691 90.6733 66.2673 95.0722 68.3663L95.5195 74.5884Z" fill="#F9B2B2"/>
<path d="M119.004 113.045C119.004 113.045 118.482 117.393 117.364 119.042C117.14 119.417 116.618 119.717 116.022 119.942C114.68 120.542 112.667 120.842 111.325 121.066C111.623 116.793 110.355 112.52 109.535 110.346C109.684 110.271 109.759 110.271 109.759 110.271C113.114 110.496 115.351 111.171 116.842 111.771C118.407 112.445 119.004 113.045 119.004 113.045Z" fill="#F9B2B2"/>
<path d="M73.7486 117.993L72.9285 122.566L57.4951 118.143C57.4951 118.068 57.4951 118.068 57.4951 117.993H73.7486Z" fill="#F9B2B2"/>
</g>
<path d="M110.301 18.3232C110.33 21.4393 110.224 24.4395 105.719 25.1437C110.475 25.0762 110.118 28.0764 110.349 31.8388C110.475 28.0861 110.803 25.3849 114.517 25.2113C110.677 24.5746 110.783 22.7995 110.301 18.3232Z" fill="#FF9600"/>
<path d="M74.3011 18.3232C74.3301 21.4393 74.2239 24.4395 69.7188 25.1437C74.4748 25.0762 74.1178 28.0764 74.3494 31.8388C74.4748 28.0861 74.8028 25.3849 78.5169 25.2113C74.6773 24.5746 74.7835 22.7995 74.3011 18.3232Z" fill="#7F2684"/>
<path d="M131.432 62.3677C131.43 65.4838 131.295 68.4829 126.783 69.1434C131.54 69.122 131.154 72.1186 131.349 75.8831C131.511 72.1317 131.865 69.4339 135.581 69.2962C131.747 68.6223 131.871 66.8484 131.432 62.3677Z" fill="#FF9600"/>
<path d="M89.4318 91.3677C89.4305 94.4838 89.2953 97.4829 84.7835 98.1434C89.5399 98.122 89.1539 101.119 89.349 104.883C89.5108 101.132 89.8649 98.4339 93.5806 98.2962C89.7474 97.6223 89.8707 95.8484 89.4318 91.3677Z" fill="white"/>
<path d="M58.6029 69.3232C58.6415 72.7094 58.5161 75.9701 53.625 76.7322C58.7958 76.6647 58.4003 79.9254 58.6608 84.0061C58.7958 79.9254 59.1624 76.9927 63.1853 76.7997C59.0177 76.1051 59.1238 74.1757 58.6029 69.3232Z" fill="#7F2684"/>
<path d="M114.697 76.3329C114.735 79.719 114.61 82.9894 109.719 83.7419C114.89 83.6743 114.504 86.935 114.755 91.0158C114.89 86.935 115.256 84.0023 119.279 83.8094C115.111 83.1148 115.218 81.1854 114.697 76.3232V76.3329Z" fill="white"/>
<path fill-rule="evenodd" clip-rule="evenodd" d="M174.007 14.2474C175.93 13.1596 178.37 13.8363 179.458 15.759L214.098 76.9816C215.853 80.0832 212.982 83.7582 209.548 82.8059L196.041 79.0605C187.618 57.1431 170.798 38.7279 148.374 28.7507L174.007 14.2474Z" fill="url(#paint7_linear_1359_11694)"/>
<defs>
<linearGradient id="paint0_linear_1359_11694" x1="57.2001" y1="-6.65267" x2="188.394" y2="304.852" gradientUnits="userSpaceOnUse">
<stop offset="0.219581" stop-color="#DDF5FB"/>
<stop offset="1" stop-color="#DA0095"/>
</linearGradient>
<linearGradient id="paint1_linear_1359_11694" x1="53.6054" y1="-13.9634" x2="192.999" y2="317.01" gradientUnits="userSpaceOnUse">
<stop offset="0.219581" stop-color="#DDF5FB"/>
<stop offset="1" stop-color="#DA0095"/>
</linearGradient>
<linearGradient id="paint2_linear_1359_11694" x1="60.6776" y1="0.540891" x2="183.672" y2="292.576" gradientUnits="userSpaceOnUse">
<stop offset="0.219581" stop-color="#DDF5FB"/>
<stop offset="1" stop-color="#DA0095"/>
</linearGradient>
<linearGradient id="paint3_linear_1359_11694" x1="60.6776" y1="0.540891" x2="183.672" y2="292.576" gradientUnits="userSpaceOnUse">
<stop offset="0.219581" stop-color="#DDF5FB"/>
<stop offset="1" stop-color="#DA0095"/>
</linearGradient>
<linearGradient id="paint4_linear_1359_11694" x1="39.7389" y1="184.461" x2="156.107" y2="71.3149" gradientUnits="userSpaceOnUse">
<stop offset="0.01" stop-color="#FF55AA"/>
<stop offset="0.25" stop-color="#B850C9"/>
<stop offset="0.62" stop-color="#6572D6"/>
<stop offset="1" stop-color="#4EAEB8"/>
</linearGradient>
<linearGradient id="paint5_linear_1359_11694" x1="36.9369" y1="184.054" x2="153.305" y2="70.9084" gradientUnits="userSpaceOnUse">
<stop offset="0.01" stop-color="#FF55AA"/>
<stop offset="0.25" stop-color="#B850C9"/>
<stop offset="0.62" stop-color="#6572D6"/>
<stop offset="1" stop-color="#4EAEB8"/>
</linearGradient>
<linearGradient id="paint6_linear_1359_11694" x1="126.226" y1="41.293" x2="245.857" y2="190.654" gradientUnits="userSpaceOnUse">
<stop stop-color="#CE57D3"/>
<stop offset="0.349738" stop-color="#9454E6"/>
<stop offset="0.635417" stop-color="#6A6CE9"/>
<stop offset="1" stop-color="#47BAD8"/>
</linearGradient>
<linearGradient id="paint7_linear_1359_11694" x1="159.691" y1="20.2966" x2="176.041" y2="97.0803" gradientUnits="userSpaceOnUse">
<stop stop-color="#CE57D3"/>
<stop offset="0.349738" stop-color="#9454E6"/>
<stop offset="0.635417" stop-color="#6A6CE9"/>
<stop offset="1" stop-color="#47BAD8"/>
</linearGradient>
</defs>
</svg>
