<svg width="243" height="54" viewBox="0 0 243 54" fill="none" xmlns="http://www.w3.org/2000/svg">
<path d="M116.917 5C116.785 5 116.697 5.00005 116.565 5.04453C114.686 5.04453 112.852 5.08811 111.017 5.13167L110.98 5.13257L110.859 5.1374C109.797 5.17971 108.697 5.22353 107.638 5.30833C106.582 5.30833 105.527 5.74821 104.735 6.40771C103.548 7.37515 102.888 8.87022 102.845 10.3653C102.745 11.1285 102.721 11.8667 102.696 12.6176C102.688 12.8618 102.68 13.1073 102.669 13.3554C102.625 14.2787 102.625 15.1582 102.625 16.0818C102.625 16.1229 102.629 16.1683 102.634 16.2167C102.644 16.3234 102.655 16.4445 102.625 16.5655V20.3913C102.625 22.0185 102.669 23.6894 102.757 25.3605C102.801 25.6685 102.845 26.02 102.845 26.328C102.889 27.5592 103.417 28.7905 104.296 29.7141C105.132 30.5496 106.231 31.0772 107.374 31.1653C107.55 31.1653 107.715 31.1873 107.88 31.2093C108.045 31.2313 108.21 31.2533 108.386 31.2533C109.508 31.3523 110.63 31.377 111.752 31.4017C112.125 31.4099 112.498 31.4181 112.871 31.4291C115.956 31.4718 119.083 31.4729 122.17 31.4729C121.676 30.8444 121.24 30.1673 120.872 29.4499C120.741 29.4499 120.61 29.4499 120.479 29.4499C117.092 29.4499 113.707 29.4061 110.321 29.318C109.642 29.2782 108.999 29.2381 108.361 29.1983L108.358 29.1981L108.166 29.1861C108.078 29.1861 107.99 29.1752 107.902 29.1642C107.814 29.1532 107.726 29.1423 107.638 29.1423C107.286 29.1423 106.891 29.0542 106.583 28.8785C105.703 28.4386 105.087 27.5152 104.911 26.5478C104.868 26.3282 104.868 26.1082 104.868 25.8883C104.809 25.3337 104.79 24.7598 104.77 24.1922C104.76 23.9047 104.75 23.6187 104.736 23.3378C104.692 21.051 104.692 18.7203 104.692 16.4335H121.864C123.456 14.2316 125.748 12.569 128.414 11.7721H104.867C104.867 11.3355 104.911 10.8993 104.954 10.4628L104.955 10.4527C104.955 9.88098 105.087 9.30921 105.395 8.78161C105.747 8.166 106.319 7.6384 106.978 7.41847C107.242 7.33043 107.55 7.28657 107.858 7.28657C108.416 7.22781 108.973 7.20827 109.531 7.18872C109.809 7.17899 110.087 7.16925 110.365 7.15467C113.126 7.06724 115.93 7.06691 118.778 7.0666L118.807 7.0666C120.099 7.03732 121.371 7.04713 122.637 7.05689C123.267 7.06175 123.895 7.0666 124.524 7.0666C126.187 7.0666 127.808 7.10811 129.468 7.1506L129.625 7.15463C130.28 7.15463 130.936 7.19824 131.591 7.24182L131.604 7.24267C131.692 7.24267 131.78 7.25364 131.868 7.2646C131.956 7.27557 132.044 7.28653 132.132 7.28653C132.747 7.28653 133.363 7.5945 133.803 7.9902C134.463 8.56164 134.858 9.48527 134.858 10.3647C134.858 10.4526 134.869 10.5296 134.88 10.6066C134.891 10.6836 134.902 10.7605 134.902 10.8484C134.938 11.102 134.975 11.3554 134.986 11.609C135.682 11.7795 136.355 12.0083 137 12.2899C136.978 11.7293 136.945 11.174 136.882 10.6287C136.86 10.4743 136.849 10.3309 136.837 10.1874C136.826 10.0451 136.816 9.90267 136.794 9.74932C136.662 8.42999 136.002 7.19877 134.991 6.36317C134.199 5.70368 133.144 5.30767 132.088 5.2638C131.121 5.17607 130.153 5.1319 129.186 5.08804C127.295 5.04386 125.36 5 123.469 5H116.917Z" fill="#979797"/>
<path d="M109.234 24.9614C109.234 24.0941 109.938 23.3909 110.805 23.3909H115.516C116.384 23.3909 117.087 24.0941 117.087 24.9614C117.087 25.8288 116.384 26.532 115.516 26.532H110.805C109.938 26.532 109.234 25.8288 109.234 24.9614Z" fill="#979797"/>
<path fill-rule="evenodd" clip-rule="evenodd" d="M132 13.75C126.477 13.75 122 18.2272 122 23.75C122 29.2728 126.477 33.75 132 33.75C137.523 33.75 142 29.2728 142 23.75C142 18.2272 137.523 13.75 132 13.75ZM133.111 19.8611C133.111 19.2475 132.614 18.75 132 18.75C131.386 18.75 130.889 19.2475 130.889 19.8611V22.6389H128.111C127.497 22.6389 127 23.1363 127 23.75C127 24.3636 127.497 24.8611 128.111 24.8611H130.889V27.6389C130.889 28.2525 131.386 28.75 132 28.75C132.614 28.75 133.111 28.2525 133.111 27.6389V24.8611H135.889C136.503 24.8611 137 24.3636 137 23.75C137 23.1363 136.503 22.6389 135.889 22.6389H133.111V19.8611Z" fill="#979797"/>
<path d="M70.8926 51L70.0371 48.6211H66.7617L65.9238 51H64.4473L67.6523 42.3984H69.1758L72.3809 51H70.8926ZM69.668 47.4141L68.8652 45.082C68.8066 44.9258 68.7246 44.6797 68.6191 44.3438C68.5176 44.0078 68.4473 43.7617 68.4082 43.6055C68.3027 44.0859 68.1484 44.6113 67.9453 45.1816L67.1719 47.4141H69.668ZM78.2379 44.5195V45.2754L77.1305 45.4805C77.232 45.6172 77.316 45.7852 77.3824 45.9844C77.4488 46.1836 77.482 46.3945 77.482 46.6172C77.482 47.2852 77.2516 47.8105 76.7906 48.1934C76.3297 48.5762 75.6949 48.7676 74.8863 48.7676C74.6793 48.7676 74.4918 48.752 74.3238 48.7207C74.027 48.9043 73.8785 49.1191 73.8785 49.3652C73.8785 49.5137 73.9469 49.625 74.0836 49.6992C74.2242 49.7734 74.4801 49.8105 74.8512 49.8105H75.982C76.6969 49.8105 77.2398 49.9629 77.6109 50.2676C77.982 50.5723 78.1676 51.0117 78.1676 51.5859C78.1676 52.3203 77.8648 52.8867 77.2594 53.2852C76.6539 53.6836 75.7789 53.8828 74.6344 53.8828C73.7516 53.8828 73.0777 53.7266 72.6129 53.4141C72.148 53.1016 71.9156 52.6562 71.9156 52.0781C71.9156 51.6797 72.0406 51.3438 72.2906 51.0703C72.5445 50.8008 72.898 50.6133 73.3512 50.5078C73.1676 50.4297 73.0152 50.3047 72.8941 50.1328C72.777 49.957 72.7184 49.7734 72.7184 49.582C72.7184 49.3398 72.7867 49.1348 72.9234 48.9668C73.0602 48.7988 73.2633 48.6328 73.5328 48.4688C73.1969 48.3242 72.9234 48.0898 72.7125 47.7656C72.5055 47.4375 72.402 47.0547 72.402 46.6172C72.402 45.9141 72.6227 45.3691 73.0641 44.9824C73.5094 44.5957 74.1422 44.4023 74.9625 44.4023C75.1461 44.4023 75.3375 44.416 75.5367 44.4434C75.7398 44.4668 75.8922 44.4922 75.9938 44.5195H78.2379ZM73.1461 52.0078C73.1461 52.3047 73.2789 52.5332 73.5445 52.6934C73.8141 52.8535 74.191 52.9336 74.6754 52.9336C75.4254 52.9336 75.984 52.8262 76.3512 52.6113C76.7184 52.3965 76.902 52.1113 76.902 51.7559C76.902 51.4746 76.8004 51.2734 76.5973 51.1523C76.398 51.0352 76.025 50.9766 75.4781 50.9766H74.4352C74.0406 50.9766 73.7262 51.0684 73.4918 51.252C73.2613 51.4395 73.1461 51.6914 73.1461 52.0078ZM73.7379 46.6172C73.7379 47.0234 73.8414 47.3359 74.0484 47.5547C74.2594 47.7734 74.5602 47.8828 74.9508 47.8828C75.7477 47.8828 76.1461 47.457 76.1461 46.6055C76.1461 46.1836 76.0465 45.8594 75.8473 45.6328C75.652 45.4023 75.3531 45.2871 74.9508 45.2871C74.5523 45.2871 74.2496 45.4004 74.0426 45.627C73.8395 45.8535 73.7379 46.1836 73.7379 46.6172ZM82.132 44.4023C82.4094 44.4023 82.6379 44.4219 82.8176 44.4609L82.6828 45.7441C82.4875 45.6973 82.2844 45.6738 82.0734 45.6738C81.5227 45.6738 81.0754 45.8535 80.7316 46.2129C80.3918 46.5723 80.2219 47.0391 80.2219 47.6133V51H78.8449V44.5195H79.923L80.1047 45.6621H80.175C80.3898 45.2754 80.6691 44.9688 81.0129 44.7422C81.3605 44.5156 81.7336 44.4023 82.132 44.4023ZM86.2547 51.1172C85.2469 51.1172 84.4578 50.8242 83.8875 50.2383C83.3211 49.6484 83.0379 48.8379 83.0379 47.8066C83.0379 46.748 83.3016 45.916 83.8289 45.3105C84.3562 44.7051 85.0809 44.4023 86.0027 44.4023C86.8582 44.4023 87.534 44.6621 88.0301 45.1816C88.5262 45.7012 88.7742 46.416 88.7742 47.3262V48.0703H84.4559C84.4754 48.6992 84.6453 49.1836 84.9656 49.5234C85.2859 49.8594 85.7371 50.0273 86.3191 50.0273C86.702 50.0273 87.0574 49.9922 87.3855 49.9219C87.7176 49.8477 88.073 49.7266 88.452 49.5586V50.6777C88.116 50.8379 87.7762 50.9512 87.4324 51.0176C87.0887 51.084 86.6961 51.1172 86.2547 51.1172ZM86.0027 45.4453C85.5652 45.4453 85.2137 45.584 84.948 45.8613C84.6863 46.1387 84.5301 46.543 84.4793 47.0742H87.4207C87.4129 46.5391 87.284 46.1348 87.034 45.8613C86.784 45.584 86.4402 45.4453 86.0027 45.4453ZM95.2113 44.5195V45.2754L94.1039 45.4805C94.2055 45.6172 94.2895 45.7852 94.3559 45.9844C94.4223 46.1836 94.4555 46.3945 94.4555 46.6172C94.4555 47.2852 94.225 47.8105 93.7641 48.1934C93.3031 48.5762 92.6684 48.7676 91.8598 48.7676C91.6527 48.7676 91.4652 48.752 91.2973 48.7207C91.0004 48.9043 90.852 49.1191 90.852 49.3652C90.852 49.5137 90.9203 49.625 91.057 49.6992C91.1977 49.7734 91.4535 49.8105 91.8246 49.8105H92.9555C93.6703 49.8105 94.2133 49.9629 94.5844 50.2676C94.9555 50.5723 95.141 51.0117 95.141 51.5859C95.141 52.3203 94.8383 52.8867 94.2328 53.2852C93.6273 53.6836 92.7523 53.8828 91.6078 53.8828C90.725 53.8828 90.0512 53.7266 89.5863 53.4141C89.1215 53.1016 88.8891 52.6562 88.8891 52.0781C88.8891 51.6797 89.0141 51.3438 89.2641 51.0703C89.518 50.8008 89.8715 50.6133 90.3246 50.5078C90.141 50.4297 89.9887 50.3047 89.8676 50.1328C89.7504 49.957 89.6918 49.7734 89.6918 49.582C89.6918 49.3398 89.7602 49.1348 89.8969 48.9668C90.0336 48.7988 90.2367 48.6328 90.5062 48.4688C90.1703 48.3242 89.8969 48.0898 89.6859 47.7656C89.4789 47.4375 89.3754 47.0547 89.3754 46.6172C89.3754 45.9141 89.5961 45.3691 90.0375 44.9824C90.4828 44.5957 91.1156 44.4023 91.9359 44.4023C92.1195 44.4023 92.3109 44.416 92.5102 44.4434C92.7133 44.4668 92.8656 44.4922 92.9672 44.5195H95.2113ZM90.1195 52.0078C90.1195 52.3047 90.2523 52.5332 90.518 52.6934C90.7875 52.8535 91.1645 52.9336 91.6488 52.9336C92.3988 52.9336 92.9574 52.8262 93.3246 52.6113C93.6918 52.3965 93.8754 52.1113 93.8754 51.7559C93.8754 51.4746 93.7738 51.2734 93.5707 51.1523C93.3715 51.0352 92.9984 50.9766 92.4516 50.9766H91.4086C91.0141 50.9766 90.6996 51.0684 90.4652 51.252C90.2348 51.4395 90.1195 51.6914 90.1195 52.0078ZM90.7113 46.6172C90.7113 47.0234 90.8148 47.3359 91.0219 47.5547C91.2328 47.7734 91.5336 47.8828 91.9242 47.8828C92.7211 47.8828 93.1195 47.457 93.1195 46.6055C93.1195 46.1836 93.0199 45.8594 92.8207 45.6328C92.6254 45.4023 92.3266 45.2871 91.9242 45.2871C91.5258 45.2871 91.223 45.4004 91.016 45.627C90.8129 45.8535 90.7113 46.1836 90.7113 46.6172ZM99.873 51L99.5977 50.0977H99.5508C99.2383 50.4922 98.9238 50.7617 98.6074 50.9062C98.291 51.0469 97.8848 51.1172 97.3887 51.1172C96.752 51.1172 96.2539 50.9453 95.8945 50.6016C95.5391 50.2578 95.3613 49.7715 95.3613 49.1426C95.3613 48.4746 95.6094 47.9707 96.1055 47.6309C96.6016 47.291 97.3574 47.1055 98.373 47.0742L99.4922 47.0391V46.6934C99.4922 46.2793 99.3945 45.9707 99.1992 45.7676C99.0078 45.5605 98.709 45.457 98.3027 45.457C97.9707 45.457 97.6523 45.5059 97.3477 45.6035C97.043 45.7012 96.75 45.8164 96.4688 45.9492L96.0234 44.9648C96.375 44.7812 96.7598 44.6426 97.1777 44.5488C97.5957 44.4512 97.9902 44.4023 98.3613 44.4023C99.1855 44.4023 99.8066 44.582 100.225 44.9414C100.646 45.3008 100.857 45.8652 100.857 46.6348V51H99.873ZM97.8223 50.0625C98.3223 50.0625 98.7227 49.9238 99.0234 49.6465C99.3281 49.3652 99.4805 48.9727 99.4805 48.4688V47.9062L98.6484 47.9414C98 47.9648 97.5273 48.0742 97.2305 48.2695C96.9375 48.4609 96.791 48.7559 96.791 49.1543C96.791 49.4434 96.877 49.668 97.0488 49.8281C97.2207 49.9844 97.4785 50.0625 97.8223 50.0625ZM105.466 44.4023C105.744 44.4023 105.972 44.4219 106.152 44.4609L106.017 45.7441C105.822 45.6973 105.619 45.6738 105.408 45.6738C104.857 45.6738 104.41 45.8535 104.066 46.2129C103.726 46.5723 103.556 47.0391 103.556 47.6133V51H102.179V44.5195H103.257L103.439 45.6621H103.509C103.724 45.2754 104.004 44.9688 104.347 44.7422C104.695 44.5156 105.068 44.4023 105.466 44.4023ZM114.977 51H113.595V47.0156C113.595 46.5156 113.493 46.1426 113.29 45.8965C113.091 45.6504 112.772 45.5273 112.335 45.5273C111.753 45.5273 111.327 45.6992 111.057 46.043C110.788 46.3867 110.653 46.9629 110.653 47.7715V51H109.276V44.5195H110.354L110.548 45.3691H110.618C110.813 45.0605 111.091 44.8223 111.45 44.6543C111.809 44.4863 112.208 44.4023 112.645 44.4023C114.2 44.4023 114.977 45.1934 114.977 46.7754V51ZM120.864 51L120.67 50.1504H120.6C120.409 50.4512 120.135 50.6875 119.78 50.8594C119.428 51.0312 119.026 51.1172 118.573 51.1172C117.787 51.1172 117.202 50.9219 116.815 50.5312C116.428 50.1406 116.235 49.5488 116.235 48.7559V44.5195H117.623V48.5156C117.623 49.0117 117.725 49.3848 117.928 49.6348C118.131 49.8809 118.45 50.0039 118.883 50.0039C119.461 50.0039 119.885 49.832 120.155 49.4883C120.428 49.1406 120.565 48.5605 120.565 47.748V44.5195H121.948V51H120.864ZM126.141 51.1172C125.133 51.1172 124.344 50.8242 123.773 50.2383C123.207 49.6484 122.924 48.8379 122.924 47.8066C122.924 46.748 123.188 45.916 123.715 45.3105C124.242 44.7051 124.967 44.4023 125.889 44.4023C126.744 44.4023 127.42 44.6621 127.916 45.1816C128.412 45.7012 128.66 46.416 128.66 47.3262V48.0703H124.342C124.361 48.6992 124.531 49.1836 124.852 49.5234C125.172 49.8594 125.623 50.0273 126.205 50.0273C126.588 50.0273 126.943 49.9922 127.271 49.9219C127.604 49.8477 127.959 49.7266 128.338 49.5586V50.6777C128.002 50.8379 127.662 50.9512 127.318 51.0176C126.975 51.084 126.582 51.1172 126.141 51.1172ZM125.889 45.4453C125.451 45.4453 125.1 45.584 124.834 45.8613C124.572 46.1387 124.416 46.543 124.365 47.0742H127.307C127.299 46.5391 127.17 46.1348 126.92 45.8613C126.67 45.584 126.326 45.4453 125.889 45.4453ZM131.101 51L128.64 44.5195H130.093L131.412 48.2871C131.638 48.9199 131.775 49.4316 131.822 49.8223H131.869C131.904 49.541 132.041 49.0293 132.279 48.2871L133.597 44.5195H135.062L132.589 51H131.101ZM139.501 51L139.226 50.0977H139.179C138.866 50.4922 138.552 50.7617 138.236 50.9062C137.919 51.0469 137.513 51.1172 137.017 51.1172C136.38 51.1172 135.882 50.9453 135.523 50.6016C135.167 50.2578 134.989 49.7715 134.989 49.1426C134.989 48.4746 135.238 47.9707 135.734 47.6309C136.23 47.291 136.986 47.1055 138.001 47.0742L139.12 47.0391V46.6934C139.12 46.2793 139.023 45.9707 138.827 45.7676C138.636 45.5605 138.337 45.457 137.931 45.457C137.599 45.457 137.28 45.5059 136.976 45.6035C136.671 45.7012 136.378 45.8164 136.097 45.9492L135.652 44.9648C136.003 44.7812 136.388 44.6426 136.806 44.5488C137.224 44.4512 137.618 44.4023 137.989 44.4023C138.814 44.4023 139.435 44.582 139.853 44.9414C140.275 45.3008 140.486 45.8652 140.486 46.6348V51H139.501ZM137.45 50.0625C137.95 50.0625 138.351 49.9238 138.652 49.6465C138.956 49.3652 139.109 48.9727 139.109 48.4688V47.9062L138.277 47.9414C137.628 47.9648 137.155 48.0742 136.859 48.2695C136.566 48.4609 136.419 48.7559 136.419 49.1543C136.419 49.4434 136.505 49.668 136.677 49.8281C136.849 49.9844 137.107 50.0625 137.45 50.0625ZM146.739 50.0039C147.075 50.0039 147.411 49.9512 147.746 49.8457V50.8828C147.594 50.9492 147.397 51.0039 147.155 51.0469C146.916 51.0938 146.668 51.1172 146.411 51.1172C145.106 51.1172 144.454 50.4297 144.454 49.0547V45.5625H143.569V44.9531L144.518 44.4492L144.987 43.0781H145.836V44.5195H147.682V45.5625H145.836V49.0312C145.836 49.3633 145.918 49.6094 146.082 49.7695C146.25 49.9258 146.469 50.0039 146.739 50.0039ZM152.502 51L152.227 50.0977H152.18C151.867 50.4922 151.553 50.7617 151.236 50.9062C150.92 51.0469 150.514 51.1172 150.018 51.1172C149.381 51.1172 148.883 50.9453 148.523 50.6016C148.168 50.2578 147.99 49.7715 147.99 49.1426C147.99 48.4746 148.238 47.9707 148.734 47.6309C149.23 47.291 149.986 47.1055 151.002 47.0742L152.121 47.0391V46.6934C152.121 46.2793 152.023 45.9707 151.828 45.7676C151.637 45.5605 151.338 45.457 150.932 45.457C150.6 45.457 150.281 45.5059 149.977 45.6035C149.672 45.7012 149.379 45.8164 149.098 45.9492L148.652 44.9648C149.004 44.7812 149.389 44.6426 149.807 44.5488C150.225 44.4512 150.619 44.4023 150.99 44.4023C151.814 44.4023 152.436 44.582 152.854 44.9414C153.275 45.3008 153.486 45.8652 153.486 46.6348V51H152.502ZM150.451 50.0625C150.951 50.0625 151.352 49.9238 151.652 49.6465C151.957 49.3652 152.109 48.9727 152.109 48.4688V47.9062L151.277 47.9414C150.629 47.9648 150.156 48.0742 149.859 48.2695C149.566 48.4609 149.42 48.7559 149.42 49.1543C149.42 49.4434 149.506 49.668 149.678 49.8281C149.85 49.9844 150.107 50.0625 150.451 50.0625ZM158.095 44.4023C158.373 44.4023 158.601 44.4219 158.781 44.4609L158.646 45.7441C158.451 45.6973 158.248 45.6738 158.037 45.6738C157.486 45.6738 157.039 45.8535 156.695 46.2129C156.355 46.5723 156.185 47.0391 156.185 47.6133V51H154.808V44.5195H155.886L156.068 45.6621H156.138C156.353 45.2754 156.632 44.9688 156.976 44.7422C157.324 44.5156 157.697 44.4023 158.095 44.4023ZM158.726 53.8828C158.312 53.8828 157.968 53.834 157.695 53.7363V52.6465C157.96 52.7168 158.232 52.752 158.509 52.752C159.095 52.752 159.388 52.4199 159.388 51.7559V44.5195H160.765V51.8496C160.765 52.5176 160.589 53.0234 160.238 53.3672C159.89 53.7109 159.386 53.8828 158.726 53.8828ZM159.306 42.8027C159.306 42.5566 159.372 42.3672 159.505 42.2344C159.642 42.1016 159.835 42.0352 160.085 42.0352C160.327 42.0352 160.515 42.1016 160.648 42.2344C160.784 42.3672 160.853 42.5566 160.853 42.8027C160.853 43.0371 160.784 43.2227 160.648 43.3594C160.515 43.4922 160.327 43.5586 160.085 43.5586C159.835 43.5586 159.642 43.4922 159.505 43.3594C159.372 43.2227 159.306 43.0371 159.306 42.8027ZM164.97 51.1172C163.962 51.1172 163.173 50.8242 162.602 50.2383C162.036 49.6484 161.753 48.8379 161.753 47.8066C161.753 46.748 162.016 45.916 162.544 45.3105C163.071 44.7051 163.796 44.4023 164.718 44.4023C165.573 44.4023 166.249 44.6621 166.745 45.1816C167.241 45.7012 167.489 46.416 167.489 47.3262V48.0703H163.171C163.19 48.6992 163.36 49.1836 163.68 49.5234C164.001 49.8594 164.452 50.0273 165.034 50.0273C165.417 50.0273 165.772 49.9922 166.1 49.9219C166.432 49.8477 166.788 49.7266 167.167 49.5586V50.6777C166.831 50.8379 166.491 50.9512 166.147 51.0176C165.804 51.084 165.411 51.1172 164.97 51.1172ZM164.718 45.4453C164.28 45.4453 163.929 45.584 163.663 45.8613C163.401 46.1387 163.245 46.543 163.194 47.0742H166.136C166.128 46.5391 165.999 46.1348 165.749 45.8613C165.499 45.584 165.155 45.4453 164.718 45.4453ZM170.868 50.0039C171.204 50.0039 171.539 49.9512 171.875 49.8457V50.8828C171.723 50.9492 171.526 51.0039 171.284 51.0469C171.045 51.0938 170.797 51.1172 170.539 51.1172C169.235 51.1172 168.582 50.4297 168.582 49.0547V45.5625H167.698V44.9531L168.647 44.4492L169.116 43.0781H169.965V44.5195H171.811V45.5625H169.965V49.0312C169.965 49.3633 170.047 49.6094 170.211 49.7695C170.379 49.9258 170.598 50.0039 170.868 50.0039ZM176.631 51L176.355 50.0977H176.309C175.996 50.4922 175.682 50.7617 175.365 50.9062C175.049 51.0469 174.643 51.1172 174.146 51.1172C173.51 51.1172 173.012 50.9453 172.652 50.6016C172.297 50.2578 172.119 49.7715 172.119 49.1426C172.119 48.4746 172.367 47.9707 172.863 47.6309C173.359 47.291 174.115 47.1055 175.131 47.0742L176.25 47.0391V46.6934C176.25 46.2793 176.152 45.9707 175.957 45.7676C175.766 45.5605 175.467 45.457 175.061 45.457C174.729 45.457 174.41 45.5059 174.105 45.6035C173.801 45.7012 173.508 45.8164 173.227 45.9492L172.781 44.9648C173.133 44.7812 173.518 44.6426 173.936 44.5488C174.354 44.4512 174.748 44.4023 175.119 44.4023C175.943 44.4023 176.564 44.582 176.982 44.9414C177.404 45.3008 177.615 45.8652 177.615 46.6348V51H176.631ZM174.58 50.0625C175.08 50.0625 175.48 49.9238 175.781 49.6465C176.086 49.3652 176.238 48.9727 176.238 48.4688V47.9062L175.406 47.9414C174.758 47.9648 174.285 48.0742 173.988 48.2695C173.695 48.4609 173.549 48.7559 173.549 49.1543C173.549 49.4434 173.635 49.668 173.807 49.8281C173.979 49.9844 174.236 50.0625 174.58 50.0625Z" fill="#979797"/>
</svg>
