<svg width="13" height="15" viewBox="0 0 13 15" fill="none" xmlns="http://www.w3.org/2000/svg">
<path d="M11.1363 0.0681152H4.45446C3.83953 0.0681152 3.34082 0.566825 3.34082 1.18175V2.29539H7.79537C9.02351 2.29539 10.0226 3.29452 10.0226 4.52266V11.2045H11.1363C11.7512 11.2045 12.2499 10.7058 12.2499 10.0908V1.18175C12.2499 0.566825 11.7512 0.0681152 11.1363 0.0681152Z" fill="black"/>
<path d="M7.79545 3.40894H1.11364C0.49871 3.40894 0 3.90765 0 4.52257V13.4317C0 14.0466 0.49871 14.5453 1.11364 14.5453H7.79545C8.41038 14.5453 8.90909 14.0466 8.90909 13.4317V4.52257C8.90909 3.90765 8.41038 3.40894 7.79545 3.40894Z" fill="black"/>
</svg>
