<svg width="19" height="23" viewBox="0 0 19 23" fill="none" xmlns="http://www.w3.org/2000/svg">
<path d="M18.2692 2.875H16.0769V0.71875C16.0769 0.322 15.7495 0 15.3462 0H2.19231C0.983615 0 0 0.967437 0 2.15625V20.125C0 21.7106 1.311 23 2.92308 23H18.2692C18.6726 23 19 22.678 19 22.2812V3.59375C19 3.197 18.6726 2.875 18.2692 2.875ZM13.8846 18.6875H5.11538C4.712 18.6875 4.38462 18.3655 4.38462 17.9688C4.38462 17.572 4.712 17.25 5.11538 17.25H13.8846C14.288 17.25 14.6154 17.572 14.6154 17.9688C14.6154 18.3655 14.288 18.6875 13.8846 18.6875ZM4.38462 8.625C4.38462 7.01213 5.34777 5.75 6.57692 5.75C7.80608 5.75 8.76923 7.01213 8.76923 8.625C8.76923 9.89719 8.16562 10.9423 7.30769 11.3289V15.0938C7.30769 15.4905 6.98031 15.8125 6.57692 15.8125C6.17354 15.8125 5.84615 15.4905 5.84615 15.0938V11.3289C4.98823 10.9423 4.38462 9.89719 4.38462 8.625ZM14.6154 12.2188C14.6154 12.6155 14.288 12.9375 13.8846 12.9375H11.6923V15.0938C11.6923 15.4905 11.3649 15.8125 10.9615 15.8125C10.5582 15.8125 10.2308 15.4905 10.2308 15.0938V6.46875C10.2308 6.072 10.5582 5.75 10.9615 5.75C12.977 5.75 14.6154 7.36287 14.6154 9.34375V12.2188ZM14.6154 2.875H2.19231C1.78892 2.875 1.46154 2.553 1.46154 2.15625C1.46154 1.7595 1.78892 1.4375 2.19231 1.4375H14.6154V2.875Z" fill="url(#paint0_linear_435_70238)"/>
<defs>
<linearGradient id="paint0_linear_435_70238" x1="17.7677" y1="21.9965" x2="-2.03709" y2="5.33984" gradientUnits="userSpaceOnUse">
<stop offset="0.0416667" stop-color="#47BAD8"/>
<stop offset="0.34375" stop-color="#6A6CE9"/>
<stop offset="0.609375" stop-color="#9454E6"/>
<stop offset="1" stop-color="#CE57D3"/>
</linearGradient>
</defs>
</svg>
