<svg width="15" height="14" viewBox="0 0 15 14" fill="none" xmlns="http://www.w3.org/2000/svg">
    <path fill-rule="evenodd" clip-rule="evenodd" d="M3.825 3.28788C3.53505 3.28788 3.3 3.52531 3.3 3.81819V11.2424C3.3 11.5353 3.53505 11.7727 3.825 11.7727H11.175C11.4649 11.7727 11.7 11.5353 11.7 11.2424V3.81819C11.7 3.52531 11.4649 3.28788 11.175 3.28788H3.825ZM2.25 3.81819C2.25 2.93955 2.95515 2.22728 3.825 2.22728H11.175C12.0448 2.22728 12.75 2.93955 12.75 3.81819V11.2424C12.75 12.1211 12.0448 12.8333 11.175 12.8333H3.825C2.95515 12.8333 2.25 12.1211 2.25 11.2424V3.81819Z" fill="white"/>
    <path fill-rule="evenodd" clip-rule="evenodd" d="M9.6 1.16667C9.88995 1.16667 10.125 1.4041 10.125 1.69697V3.81819C10.125 4.11107 9.88995 4.34849 9.6 4.34849C9.31005 4.34849 9.075 4.11107 9.075 3.81819V1.69697C9.075 1.4041 9.31005 1.16667 9.6 1.16667Z" fill="white"/>
    <path fill-rule="evenodd" clip-rule="evenodd" d="M5.4 1.16667C5.68995 1.16667 5.925 1.4041 5.925 1.69697V3.81819C5.925 4.11107 5.68995 4.34849 5.4 4.34849C5.11005 4.34849 4.875 4.11107 4.875 3.81819V1.69697C4.875 1.4041 5.11005 1.16667 5.4 1.16667Z" fill="white"/>
    <path fill-rule="evenodd" clip-rule="evenodd" d="M2.25 5.9394C2.25 5.64652 2.48505 5.4091 2.775 5.4091H12.225C12.5149 5.4091 12.75 5.64652 12.75 5.9394C12.75 6.23228 12.5149 6.4697 12.225 6.4697H2.775C2.48505 6.4697 2.25 6.23228 2.25 5.9394Z" fill="white"/>
    </svg>
    