<svg width="16" height="17" viewBox="0 0 16 17" fill="none" xmlns="http://www.w3.org/2000/svg">
<path fill-rule="evenodd" clip-rule="evenodd" d="M3.72813 0.000311614C3.71003 0.000433694 3.69195 0.00147671 3.67396 0.00343661C3.54214 0.0184554 3.42066 0.0820578 3.33322 0.181828C3.24577 0.281598 3.19865 0.410375 3.20104 0.54302V1.07427H1.60313C0.725968 1.07427 0 1.80024 0 2.6774V4.27635H16V2.6774C16 1.80024 15.2792 1.07427 14.4021 1.07427H12.8031V0.54302C12.8045 0.467074 12.7896 0.391711 12.7595 0.321974C12.7294 0.252237 12.6848 0.189735 12.6286 0.13865C12.5723 0.0875648 12.5059 0.049075 12.4336 0.0257563C12.3613 0.0024377 12.2848 -0.00517193 12.2094 0.00343661C12.0776 0.0184554 11.9561 0.0820577 11.8686 0.181828C11.7812 0.281598 11.7341 0.410375 11.7365 0.54302V1.07427H8.53542V0.54302C8.53679 0.467074 8.52192 0.391711 8.49182 0.321974C8.46171 0.252237 8.41706 0.189735 8.36084 0.13865C8.30463 0.0875648 8.23815 0.049075 8.16586 0.0257563C8.09357 0.0024377 8.01714 -0.00517193 7.94167 0.00343661C7.80985 0.0184554 7.68837 0.0820577 7.60092 0.181828C7.51348 0.281598 7.46636 0.410375 7.46875 0.54302V1.07427H4.26771V0.54302C4.26896 0.47167 4.25588 0.400793 4.22925 0.334588C4.20261 0.268384 4.16297 0.208196 4.11265 0.157591C4.06234 0.106985 4.00238 0.0669901 3.93633 0.0399744C3.87028 0.0129587 3.79948 -0.000528415 3.72813 0.000311614ZM0 5.34302V14.4097C0 15.2868 0.725968 16.0118 1.60313 16.0118H14.4021C15.2792 16.0118 16 15.2868 16 14.4097V5.34302H0ZM2.61667 6.94406C2.63438 6.94353 2.65211 6.94387 2.66979 6.9451H4.80313C4.94385 6.94567 5.07865 7.00182 5.17815 7.10133C5.27766 7.20083 5.33381 7.33563 5.33438 7.47635V9.60969C5.33381 9.75041 5.27766 9.88521 5.17815 9.98472C5.07865 10.0842 4.94385 10.1404 4.80313 10.1409H2.66979C2.52835 10.1415 2.39248 10.0858 2.29207 9.98619C2.19167 9.88656 2.13494 9.75113 2.13438 9.60969V7.47635C2.13425 7.34401 2.18332 7.21634 2.27207 7.11816C2.36082 7.01998 2.4829 6.9583 2.61458 6.9451C2.61528 6.94476 2.61597 6.94441 2.61667 6.94406ZM6.88438 6.94406C6.90209 6.94353 6.91982 6.94387 6.9375 6.9451H9.06667C9.13679 6.9447 9.20631 6.95813 9.27124 6.98462C9.33616 7.01111 9.39523 7.05014 9.44506 7.09948C9.49489 7.14883 9.5345 7.20751 9.56162 7.27218C9.58874 7.33685 9.60285 7.40623 9.60313 7.47635V9.60969C9.60285 9.67981 9.58874 9.74919 9.56162 9.81386C9.5345 9.87853 9.49489 9.93721 9.44506 9.98656C9.39523 10.0359 9.33616 10.0749 9.27124 10.1014C9.20631 10.1279 9.13679 10.1413 9.06667 10.1409H6.9375C6.79606 10.1415 6.66019 10.0858 6.55978 9.98619C6.45937 9.88656 6.40265 9.75113 6.40208 9.60969V7.47635C6.40195 7.34401 6.45103 7.21634 6.53978 7.11816C6.62853 7.01998 6.75061 6.9583 6.88229 6.9451C6.88299 6.94476 6.88368 6.94441 6.88438 6.94406ZM11.15 6.9451C11.167 6.94429 11.184 6.94429 11.201 6.9451H13.3344C13.4045 6.9447 13.474 6.95813 13.5389 6.98462C13.6039 7.01111 13.6629 7.05014 13.7128 7.09948C13.7626 7.14883 13.8022 7.20751 13.8293 7.27218C13.8565 7.33685 13.8706 7.40623 13.8708 7.47635V9.60969C13.8706 9.67981 13.8565 9.74919 13.8293 9.81386C13.8022 9.87853 13.7626 9.93721 13.7128 9.98656C13.6629 10.0359 13.6039 10.0749 13.5389 10.1014C13.474 10.1279 13.4045 10.1413 13.3344 10.1409H11.201C11.0603 10.1404 10.9255 10.0842 10.826 9.98472C10.7265 9.88521 10.6704 9.75041 10.6698 9.60969V7.47635C10.6697 7.34401 10.7187 7.21634 10.8075 7.11816C10.8962 7.01998 11.0183 6.9583 11.15 6.9451ZM3.20104 8.01177V9.07427H4.26771V8.01177H3.20104ZM7.46875 8.01177V9.07427H8.53542V8.01177H7.46875ZM11.7365 8.01177V9.07427H12.8031V8.01177H11.7365ZM2.66979 11.2086H4.80313C4.94457 11.2092 5.08 11.2659 5.17962 11.3663C5.27925 11.4668 5.33491 11.6026 5.33438 11.7441V13.8774C5.33409 14.0183 5.27806 14.1534 5.17852 14.2531C5.07898 14.3528 4.94403 14.4091 4.80313 14.4097H2.66979C2.59967 14.41 2.53018 14.3964 2.4653 14.3698C2.40043 14.3432 2.34144 14.304 2.2917 14.2546C2.24197 14.2051 2.20248 14.1464 2.17548 14.0816C2.14849 14.0169 2.13452 13.9475 2.13438 13.8774V11.7441C2.13411 11.6737 2.14777 11.6039 2.17458 11.5388C2.2014 11.4738 2.24083 11.4146 2.2906 11.3649C2.34037 11.3151 2.3995 11.2757 2.46458 11.2489C2.52966 11.222 2.5994 11.2084 2.66979 11.2086ZM6.9375 11.2086H9.06667C9.13714 11.2082 9.207 11.2218 9.2722 11.2486C9.3374 11.2753 9.39666 11.3147 9.44654 11.3645C9.49642 11.4143 9.53594 11.4735 9.56282 11.5386C9.58969 11.6038 9.60339 11.6736 9.60313 11.7441V13.8774C9.60298 13.9476 9.58898 14.0171 9.56192 14.0819C9.53485 14.1467 9.49527 14.2055 9.44543 14.2549C9.39559 14.3044 9.33647 14.3435 9.27148 14.3701C9.20648 14.3966 9.13688 14.4101 9.06667 14.4097H6.9375C6.86738 14.41 6.79789 14.3964 6.73301 14.3698C6.66813 14.3432 6.60914 14.304 6.55941 14.2546C6.50968 14.2051 6.47019 14.1464 6.44319 14.0816C6.4162 14.0169 6.40223 13.9475 6.40208 13.8774V11.7441C6.40182 11.6737 6.41548 11.6039 6.44229 11.5388C6.46911 11.4738 6.50853 11.4146 6.55831 11.3649C6.60808 11.3151 6.66721 11.2757 6.73229 11.2489C6.79737 11.222 6.86711 11.2084 6.9375 11.2086ZM11.201 11.2086H13.3344C13.4049 11.2082 13.4747 11.2218 13.5399 11.2486C13.6051 11.2753 13.6644 11.3147 13.7142 11.3645C13.7641 11.4143 13.8036 11.4735 13.8305 11.5386C13.8574 11.6038 13.8711 11.6736 13.8708 11.7441V13.8774C13.8707 13.9476 13.8567 14.0171 13.8296 14.0819C13.8026 14.1467 13.763 14.2055 13.7131 14.2549C13.6633 14.3044 13.6042 14.3435 13.5392 14.3701C13.4742 14.3966 13.4046 14.4101 13.3344 14.4097H11.201C11.0601 14.4091 10.9252 14.3528 10.8256 14.2531C10.7261 14.1534 10.6701 14.0183 10.6698 13.8774V11.7441C10.6693 11.6026 10.7249 11.4668 10.8245 11.3663C10.9242 11.2659 11.0596 11.2092 11.201 11.2086ZM3.20104 12.2753V13.342H4.26771V12.2753H3.20104ZM7.46875 12.2753V13.342H8.53542V12.2753H7.46875ZM11.7365 12.2753V13.342H12.8031V12.2753H11.7365Z" fill="white"/>
</svg>
