<svg width="19" height="19" viewBox="0 0 19 19" fill="none" xmlns="http://www.w3.org/2000/svg">
<g clip-path="url(#clip0_12269_47702)">
<path d="M10.7938 7.57027C10.304 7.57027 9.92442 7.94984 9.92442 8.41848C9.92442 8.88712 10.304 9.2667 10.7938 9.2667C11.2413 9.2667 11.6209 8.88712 11.6209 8.41848C11.6209 7.94984 11.2413 7.57027 10.7938 7.57027ZM4.85634 7.57027C4.3665 7.57027 3.98692 7.94984 3.98692 8.41848C3.98692 8.88712 4.3665 9.2667 4.85634 9.2667C5.30377 9.2667 5.68335 8.88712 5.68335 8.41848C5.68335 7.94984 5.30377 7.57027 4.85634 7.57027Z" fill="black" fill-opacity="0.85"/>
<path d="M17.6002 5.957C16.6191 4.60652 15.2044 3.63347 13.5924 3.20031V3.20243C13.2297 2.79953 12.8205 2.42843 12.3624 2.09763C8.89112 -0.425809 4.01813 0.343945 1.48409 3.81526C-0.557984 6.63557 -0.471042 10.4292 1.61132 13.1244L1.62829 15.9362C1.62829 16.0041 1.63889 16.072 1.6601 16.1356C1.68677 16.2205 1.72993 16.2994 1.78712 16.3677C1.84431 16.436 1.9144 16.4923 1.99337 16.5335C2.07235 16.5746 2.15867 16.5998 2.24739 16.6076C2.33612 16.6154 2.4255 16.6056 2.51043 16.5788L5.19503 15.7327C5.90541 15.985 6.63912 16.1292 7.36858 16.1695L7.35798 16.178C9.24737 17.5542 11.7242 17.9677 13.9953 17.217L16.6905 18.0949C16.7583 18.1162 16.8283 18.1289 16.9004 18.1289C17.2757 18.1289 17.579 17.8256 17.579 17.4503V14.6088C19.4472 12.0726 19.4959 8.56738 17.6002 5.957ZM5.49191 14.2271L5.23744 14.1211L3.13811 14.7784L3.1169 12.5731L2.94726 12.3822C1.15329 10.1938 1.03454 7.0406 2.714 4.72709C4.7582 1.92374 8.67695 1.30455 11.4718 3.32754C14.2752 5.36537 14.8965 9.27776 12.8714 12.0641C11.1728 14.3946 8.13197 15.2556 5.49191 14.2271ZM16.2006 13.8666L16.031 14.0787L16.0522 16.284L13.974 15.5842L13.7196 15.6903C12.5321 16.1313 11.2661 16.1674 10.0935 15.8387L10.0892 15.8366C11.7009 15.3423 13.1087 14.3385 14.1013 12.976C15.7214 10.7431 15.9843 7.93758 15.0428 5.54562L15.0555 5.5541C15.5432 5.90399 15.9907 6.34082 16.3703 6.86883C17.9098 8.98089 17.8228 11.8563 16.2006 13.8666Z" fill="black" fill-opacity="0.85"/>
<path d="M7.82509 7.57027C7.33525 7.57027 6.95567 7.94984 6.95567 8.41848C6.95567 8.88712 7.33525 9.2667 7.82509 9.2667C8.27252 9.2667 8.6521 8.88712 8.6521 8.41848C8.6521 7.94984 8.27252 7.57027 7.82509 7.57027Z" fill="black" fill-opacity="0.85"/>
</g>
<defs>
<clipPath id="clip0_12269_47702">
<rect width="19" height="19" fill="white"/>
</clipPath>
</defs>
</svg>
