<svg width="183" height="182" viewBox="0 0 183 182" fill="none" xmlns="http://www.w3.org/2000/svg">
<circle opacity="0.2" cx="91.5" cy="91" r="80.5" stroke="url(#paint0_linear_3120_34622)"/>
<circle opacity="0.2" cx="91.5" cy="91" r="85.5" stroke="url(#paint1_linear_3120_34622)"/>
<circle cx="91.5" cy="91" r="75.5" fill="url(#paint2_linear_3120_34622)" fill-opacity="0.2" stroke="url(#paint3_linear_3120_34622)"/>
<mask id="mask0_3120_34622" style="mask-type:alpha" maskUnits="userSpaceOnUse" x="16" y="4" width="151" height="162">
<path d="M166.501 91C166.501 132.421 132.922 166 91.5006 166C50.0792 166 16.5006 132.421 16.5006 91C16.5006 49.5786 12.001 4 79.0006 4C173.501 4 166.501 49.5786 166.501 91Z" fill="#D9D9D9"/>
</mask>
<g mask="url(#mask0_3120_34622)">
<path d="M65.5715 91.6478C64.5915 96.0383 60.3041 100.295 57.9628 102.039L78.3825 141.733C79.9861 141.178 84.1519 139.413 87.9859 136.793C92.7784 133.518 96.035 136.701 99.8948 136.335C102.983 136.041 107.596 133.992 109.517 133.004L137.357 117.872C137.357 117.872 146.01 114.231 143.357 107.499C140.703 100.768 135.911 104.043 135.252 102.762C134.593 101.482 140.355 98.5177 138.031 92.4263C135.708 86.3349 130.897 88.0001 130.238 86.7196C129.579 85.4392 136 83.7555 133.036 77.9934C130.072 72.2314 125.581 73.7319 125.572 72.927C125.562 72.1221 130.675 68.6824 128.369 64.2008C126.064 59.7192 123.485 59.4268 120.594 60.104C117.704 60.7811 100.345 68.9017 93.6862 72.3269C91.8916 56.2473 81.4818 47.0288 79.1948 44.157C76.9078 41.2852 67.2859 44.6157 70.2686 51.9876C73.2512 59.3595 73.6914 69.6585 71.8077 73.8662C69.9239 78.0739 66.7966 86.1597 65.5715 91.6478Z" fill="#FDD7BD"/>
<mask id="mask1_3120_34622" style="mask-type:alpha" maskUnits="userSpaceOnUse" x="57" y="43" width="87" height="99">
<path d="M65.5696 91.6478C64.5896 96.0383 60.3022 100.295 57.9608 102.039L78.3805 141.733C79.9842 141.178 84.15 139.413 87.984 136.793C92.7765 133.518 96.033 136.701 99.8929 136.335C102.981 136.041 107.594 133.992 109.515 133.004L137.356 117.872C137.356 117.872 146.008 114.231 143.355 107.499C140.701 100.768 135.909 104.043 135.25 102.762C134.591 101.482 140.353 98.5177 138.03 92.4263C135.706 86.3349 130.895 88.0001 130.236 86.7196C129.577 85.4392 135.998 83.7555 133.034 77.9934C130.07 72.2314 125.579 73.7319 125.57 72.927C125.56 72.1221 130.673 68.6824 128.367 64.2008C126.062 59.7192 123.483 59.4268 120.592 60.104C117.702 60.7811 100.343 68.9017 93.6842 72.3269C91.8897 56.2473 81.4799 47.0288 79.1929 44.157C76.9059 41.2852 67.284 44.6157 70.2666 51.9876C73.2492 59.3595 73.6894 69.6585 71.8057 73.8662C69.922 78.0739 66.7946 86.1597 65.5696 91.6478Z" fill="#FDD7BD"/>
</mask>
<g mask="url(#mask1_3120_34622)">
<path d="M116.288 78.4928L125.562 72.9123L128.782 72.8753L130.74 75.1069C128.819 76.0949 125.113 78.6491 121.776 79.7178C118.44 80.7865 116.727 79.3464 116.288 78.4928Z" fill="#FAC5AA"/>
<path d="M121.284 92.9258L132.168 87.3271C133.968 87.0486 135.729 89.0034 136.705 89.851C134.571 90.9489 129.981 93.1482 128.693 93.163C127.083 93.1815 124.212 95.4683 122.272 94.8465C120.721 94.3491 120.967 93.3588 121.284 92.9258Z" fill="#FAC5AA"/>
<path d="M126.92 107.029L135.243 102.748C138.463 102.711 140.072 102.692 141.701 104.284C140.75 105.583 133.048 107.925 131.768 108.584C130.487 109.242 129.518 108.932 129.188 108.291C128.925 107.779 127.566 107.237 126.92 107.029Z" fill="#FAC5AA"/>
</g>
<rect x="-21.5195" y="134.829" width="70.5577" height="57.5981" transform="rotate(-27.2226 -21.5195 134.829)" fill="#87DBFF"/>
<path d="M62.7128 97.111C61.4519 94.6599 58.4427 93.695 55.9916 94.9559L41.2228 102.553L67.571 153.772L82.3397 146.174C84.7908 144.913 85.7557 141.904 84.4947 139.453L62.7128 97.111Z" fill="#6FC7FF"/>
<rect x="93.7257" y="14.7257" width="56.5486" height="34.5486" rx="17.2743" fill="#FBE8E8"/>
<path d="M124.972 22.5159C125.764 22.1753 126.613 22 127.471 22C128.328 22 129.177 22.1753 129.969 22.5159C130.761 22.8565 131.481 23.3556 132.087 23.9848C132.693 24.6138 133.175 25.3609 133.503 26.1828C133.831 27.0048 134 27.8859 134 28.7758C134 29.6656 133.831 30.5467 133.503 31.3688C133.175 32.1907 132.694 32.9376 132.087 33.5666L123.21 40.6948C122.818 41.1017 122.182 41.1017 121.79 40.6948L112.912 33.5666C111.688 32.296 111 30.5727 111 28.7758C111 26.9789 111.688 25.2556 112.912 23.985C114.137 22.7144 115.797 22.0006 117.529 22.0006C119.26 22.0006 120.921 22.7144 122.145 23.985L122.5 24.3527L122.854 23.9851C123.46 23.3559 124.18 22.8565 124.972 22.5159Z" fill="#E14848"/>
<rect x="93.7257" y="14.7257" width="56.5486" height="34.5486" rx="17.2743" stroke="#E8C7C7" stroke-width="1.45144"/>
</g>
<defs>
<linearGradient id="paint0_linear_3120_34622" x1="44.0333" y1="-5.53333" x2="152.3" y2="251.533" gradientUnits="userSpaceOnUse">
<stop offset="0.219581" stop-color="#DDF5FB"/>
<stop offset="1" stop-color="#DA0095"/>
</linearGradient>
<linearGradient id="paint1_linear_3120_34622" x1="41.0667" y1="-11.5667" x2="156.1" y2="261.567" gradientUnits="userSpaceOnUse">
<stop offset="0.219581" stop-color="#DDF5FB"/>
<stop offset="1" stop-color="#DA0095"/>
</linearGradient>
<linearGradient id="paint2_linear_3120_34622" x1="47" y1="0.500002" x2="148.5" y2="241.5" gradientUnits="userSpaceOnUse">
<stop offset="0.219581" stop-color="#DDF5FB"/>
<stop offset="1" stop-color="#DA0095"/>
</linearGradient>
<linearGradient id="paint3_linear_3120_34622" x1="47" y1="0.500002" x2="148.5" y2="241.5" gradientUnits="userSpaceOnUse">
<stop offset="0.219581" stop-color="#DDF5FB"/>
<stop offset="1" stop-color="#DA0095"/>
</linearGradient>
</defs>
</svg>
