<svg width="187" height="185" viewBox="0 0 187 185" fill="none" xmlns="http://www.w3.org/2000/svg">
<circle opacity="0.2" cx="91.5" cy="91" r="80.5" stroke="url(#paint0_linear_2179_18995)"/>
<circle opacity="0.2" cx="91.5" cy="91" r="85.5" stroke="url(#paint1_linear_2179_18995)"/>
<circle cx="91.5" cy="91" r="75.5" fill="url(#paint2_linear_2179_18995)" fill-opacity="0.2" stroke="url(#paint3_linear_2179_18995)"/>
<mask id="mask0_2179_18995" style="mask-type:alpha" maskUnits="userSpaceOnUse" x="17" y="18" width="148" height="147">
<path d="M41 18C25.4352 29.8141 18 76.8317 18 97.4998C16.5 129.5 48.7811 164.5 85.5 164.5C122.219 164.5 164.5 137.149 164.5 101.5C164.5 75.6271 151.637 28.2947 129 18H41Z" fill="#C4C4C4"/>
</mask>
<g mask="url(#mask0_2179_18995)">
<path d="M27 154.544C29.1468 151.373 30.9533 148.464 32.1315 146.132C38.2316 133.893 47.1331 108.316 52.1337 98.1216C57.1343 87.9273 68.0779 77.1826 68.0779 77.1826L77.503 105.643L78.8906 142.07C78.8906 142.07 76.482 145.87 72.3192 154.937C68.1564 164.031 64.6482 164.948 58.4433 170.871C56.9772 172.286 55.4587 174.094 53.9664 176.06C43.1798 171.342 33.8856 163.874 27 154.544Z" fill="#F7DAC1"/>
<path d="M115.544 65.9401C115.544 65.9401 119.942 64.7346 121.749 65.9401C123.529 67.1456 123.136 74.9813 117.089 76.1606L115.544 65.9401Z" fill="#F5C9AA"/>
<path d="M116.643 80.8258C119.366 79.07 120.859 78.9389 121.67 80.3279C122.482 81.7168 125.964 87.2464 116.853 92.5139C107.742 97.7814 112.402 89.2643 112.402 89.2643L116.643 80.8258Z" fill="#F5C9AA"/>
<path d="M115.046 96.8909C115.046 96.8909 118.581 95.6854 120.413 96.6812C122.246 97.6771 123.372 104.962 116.539 107.216C109.732 109.47 112.559 102.473 112.559 102.473L115.046 96.8909Z" fill="#F5C9AA"/>
<path d="M116.172 111.095C116.172 111.095 118.66 110.623 119.366 111.855C120.073 113.086 119.523 116.31 116.879 118.721C114.235 121.132 113.947 114.554 113.947 114.554L116.172 111.095Z" fill="#F5C9AA"/>
<path d="M65.8262 96.8115C65.8262 96.8115 64.8052 104.254 60.8257 107.661C56.8462 111.068 48.4683 120.45 47.5258 123.595L54.6208 122.101L63.3129 114.317L69.2297 104.673L65.8262 96.8115Z" fill="#D8A988"/>
<path d="M62.2919 132.321C62.2919 132.321 63.3915 136.305 63.6009 140.288C63.8104 144.271 60.0927 157.348 60.0927 157.348C60.0927 157.348 68.1826 143.459 68.0778 134.287C67.9731 125.115 62.2919 132.321 62.2919 132.321Z" fill="#D8A988"/>
<path d="M117.141 63.8437V46.2592C117.141 42.2496 113.894 39 109.889 39H72.3713C68.3657 39 65.1192 42.2496 65.1192 46.2592V53.5708C64.8836 53.6756 64.7527 53.9115 64.7527 54.1735V57.0562C64.7527 57.3183 64.9098 57.5542 65.1192 57.659V60.7514C64.8836 60.8562 64.7527 61.092 64.7527 61.3541V67.8271C64.7527 68.0892 64.9098 68.325 65.1192 68.4298V70.6312C64.8836 70.736 64.7527 70.9719 64.7527 71.2339V77.7069C64.7527 77.969 64.9098 78.2048 65.1192 78.3097V137.379C65.1192 141.389 68.3657 144.638 72.3713 144.638H109.889C113.894 144.638 117.141 141.389 117.141 137.379V75.9249C117.376 75.8201 117.507 75.5842 117.507 75.3221V64.4203C117.507 64.1582 117.35 63.9485 117.141 63.8437Z" fill="#0B080F"/>
<path d="M115.046 137.379C115.046 140.236 112.742 142.542 109.889 142.542H72.3713C69.5175 142.542 67.2136 140.236 67.2136 137.379V46.2594C67.2136 43.4028 69.5175 41.0967 72.3713 41.0967H79.0474L79.6234 43.0098C79.9637 44.1366 81.011 44.9228 82.1891 44.9228H100.045C101.223 44.9228 102.27 44.1366 102.61 43.0098L103.186 41.0967H109.862C112.716 41.0967 115.02 43.4028 115.02 46.2594V137.379H115.046Z" fill="white"/>
<path d="M115.046 137.379C115.046 140.236 112.742 142.542 109.889 142.542H72.3713C69.5175 142.542 67.2136 140.236 67.2136 137.379V46.2594C67.2136 43.4028 69.5175 41.0967 72.3713 41.0967H79.0474L79.6234 43.0098C79.9637 44.1366 81.011 44.9228 82.1891 44.9228H100.045C101.223 44.9228 102.27 44.1366 102.61 43.0098L103.186 41.0967H109.862C112.716 41.0967 115.02 43.4028 115.02 46.2594V137.379H115.046Z" fill="#7F2684" fill-opacity="0.2"/>
<mask id="mask1_2179_18995" style="mask-type:alpha" maskUnits="userSpaceOnUse" x="67" y="41" width="49" height="102">
<path d="M115.046 137.379C115.046 140.236 112.743 142.542 109.889 142.542H72.3715C69.5178 142.542 67.2139 140.236 67.2139 137.379V46.2594C67.2139 43.4028 69.5178 41.0967 72.3715 41.0967H79.0476L79.6236 43.0098C79.964 44.1366 81.0112 44.9228 82.1894 44.9228H100.045C101.223 44.9228 102.27 44.1366 102.61 43.0098L103.186 41.0967H109.863C112.716 41.0967 115.02 43.4028 115.02 46.2594V137.379H115.046Z" fill="#7F2684"/>
</mask>
<g mask="url(#mask1_2179_18995)">
<circle opacity="0.4" cx="146" cy="124" r="80" fill="#7F2684"/>
<path d="M60.4077 95.5127L54.0002 140.527L95.8926 148.768L102.296 103.668L60.4077 95.5127Z" fill="#7F2684"/>
<path d="M55.5499 129.221C59.4543 134.289 64.8687 137.985 71.011 139.775C81.176 142.656 92.2444 147.793 92.2444 147.793L54 139.96L55.5499 129.221Z" fill="#651B69"/>
<path d="M95.8923 148.201L116.43 143.358L122.834 98.9561L102.296 103.802L95.8923 148.201Z" fill="#400E43"/>
<path d="M102.296 103.802L122.834 98.9557L80.9414 90.7148L60.4072 95.5573L102.296 103.802Z" fill="#09020A"/>
<path d="M68.637 142.841L78.7339 144.829C79.9965 137.995 85.3758 108.8 86.8878 100.767L76.6813 98.7637L68.637 142.841Z" fill="#EBEBEB"/>
</g>
<path d="M137.047 88.9021L131.694 95.6725L91.6997 72.7871L97.0487 66.0205L137.047 88.9021Z" fill="#7F2684"/>
<path d="M91.6999 72.7866L78.3708 54.3203L83.7199 47.5537L97.0489 66.0201L91.6999 72.7866Z" fill="#400E43"/>
<path d="M97.0485 66.0201L83.7195 47.5537L123.714 70.4353L137.047 88.9017L97.0485 66.0201Z" fill="#671B6B"/>
<path d="M110.529 73.7314C110.529 73.7314 107.573 78.4643 108.457 82.373L110.348 83.4617C110.348 83.4617 110.673 77.0165 111.693 74.3892L110.529 73.7314Z" fill="#651B69"/>
<path d="M111.705 74.4043C111.705 74.4043 108.571 88.7691 111.432 91.918L122.017 96.7C122.017 96.7 120.664 84.3916 124.391 81.6623L111.705 74.4043Z" fill="#EBEBEB"/>
<path d="M99.7402 56.2139L111.705 74.4043L124.391 81.6623L111.553 62.9729L99.7402 56.2139Z" fill="white"/>
<path d="M81.6403 58.8535C81.6403 58.8535 79.8788 60.9289 78 60.5395L83.7989 68.2814L87.4014 66.8524L81.6403 58.8535Z" fill="#EBEBEB"/>
<path d="M99.7853 63.5404C99.3808 63.2607 98.9612 62.9582 98.5189 62.6369C92.6142 58.3237 89.2498 46.9982 91.0454 41.6908C91.8469 39.3281 93.6916 37.9521 95.9597 38.0013C100.182 38.0958 101.812 43.1499 103.872 49.5536C105.932 55.9573 108.491 63.8882 113.549 65.5742L112.003 70.2163C110.215 69.6094 108.589 68.6007 107.251 67.2677C105.97 67.2034 103.841 66.3793 99.7853 63.5404ZM95.8312 42.9156C95.6762 43.1197 95.3436 44.008 95.4532 45.8981C95.7367 50.1811 98.1901 56.3353 101.388 58.6677L102.144 59.2045C101.01 56.5243 100.076 53.6778 99.2334 51.0544C98.2846 48.1096 96.8708 43.7132 95.8312 42.9156Z" fill="white"/>
<path d="M104.518 66.422C105.372 66.8804 106.306 67.168 107.27 67.2688C105.69 65.5488 102.144 59.2207 102.144 59.2207C102.356 62.1088 103.8 65.0952 104.518 66.422Z" fill="#DBDBDB"/>
<path d="M95.8315 42.9156C95.8315 42.9156 94.8789 39.9104 92.6523 39.1846C94.3399 41.0294 95.3364 43.4017 95.4724 45.8982L95.8315 42.9156Z" fill="#DBDBDB"/>
<path d="M112.498 69.9446C110.623 69.7236 108.823 69.0771 107.236 68.0544L109.924 63.9643C114.381 66.8864 122.202 63.9643 128.488 61.6243C134.775 59.2843 139.769 57.4169 142.475 60.6717C143.934 62.437 143.987 64.7392 142.642 66.8297C139.591 71.5285 128.617 75.9022 121.571 73.9478C121.045 73.8004 120.546 73.6567 120.077 73.5169C115.322 72.0879 113.356 70.9274 112.498 69.9446ZM130.201 66.2021C127.623 67.1661 124.818 68.2094 121.986 68.973L122.867 69.2263C126.682 70.2886 133.032 68.3984 136.571 65.9678C138.128 64.8942 138.619 64.0777 138.684 63.8357C137.425 63.5031 133.097 65.121 130.201 66.2021Z" fill="white"/>
<path d="M114.869 71.581C113.98 71.195 113.174 70.639 112.499 69.9442C114.827 70.1181 121.987 68.9727 121.987 68.9727C119.594 70.6019 116.358 71.3202 114.869 71.581Z" fill="#DBDBDB"/>
<path d="M44.4364 125.351C44.4364 125.351 61.6635 108.421 68.1301 107.661C74.623 106.901 90.9861 105.617 91.6406 112.195C92.2951 118.773 82.4773 122.389 72.5809 123.307C72.5809 123.307 63.7841 130.251 63.7056 135.729C63.6008 141.206 50.3795 137.222 50.3795 137.222L44.4364 125.351Z" fill="#F7DAC1"/>
</g>
<path d="M124.624 43.5511C124.669 44.288 124.624 45.0249 124.691 45.7841C124.868 47.8161 125.334 49.8034 126.065 51.7238C126.73 53.4208 127.595 55.0509 128.659 56.547C130.1 58.6237 131.917 60.3877 134.001 61.8168C135.863 63.0896 137.924 64.0944 140.075 64.7643C141.781 65.3002 143.533 65.6129 145.328 65.6798C147.656 65.8138 149.983 65.5459 152.222 64.9206C154.572 64.2731 156.788 63.2236 158.805 61.8391C160.313 60.7896 161.687 59.5615 162.906 58.1771C163.682 57.3062 164.369 56.3907 164.99 55.3858C165.877 53.9791 166.586 52.483 167.14 50.9199C167.827 48.9102 168.248 46.8336 168.359 44.7123C168.448 43.0599 168.315 41.4075 168.027 39.7774C167.473 36.5619 166.209 33.5027 164.303 30.8678C164.103 30.6445 164.081 30.3096 164.258 30.0863C164.923 28.8135 164.813 27.2504 163.948 26.1116C162.773 24.7048 160.933 24.2359 159.227 25.3077C159.027 25.4641 158.761 25.4641 158.584 25.3077C158.118 24.9728 157.631 24.6825 157.121 24.4146C154.727 23.0971 152.111 22.2039 149.429 21.8466C147.589 21.601 145.749 21.601 143.909 21.802C141.804 22.0253 139.742 22.5835 137.791 23.432C135.575 24.3922 133.513 25.732 131.74 27.3844C130.055 28.8805 128.659 30.6445 127.528 32.5649C126.531 34.2843 125.777 36.1153 125.267 38.0357C124.78 39.8444 124.558 41.6977 124.624 43.5511Z" fill="#EEEEEE"/>
<path d="M124.624 43.5526C124.558 41.6993 124.779 39.8459 125.289 38.0372C125.777 36.1168 126.531 34.2635 127.55 32.5664C128.659 30.6461 130.055 28.882 131.695 27.3413C133.469 25.6889 135.53 24.3491 137.747 23.3889C139.698 22.5404 141.759 21.9821 143.865 21.7588C145.705 21.5579 147.545 21.5579 149.385 21.8035C152.089 22.1831 154.705 23.054 157.076 24.3714C157.586 24.6394 158.052 24.952 158.539 25.2646C158.717 25.4209 159.005 25.4209 159.182 25.2646C160.889 24.2151 162.729 24.684 163.904 26.0685C164.768 27.2296 164.879 28.7704 164.214 30.0432C164.037 30.2888 164.059 30.6014 164.258 30.8247C166.165 33.4819 167.428 36.5188 167.982 39.7343C168.293 41.3643 168.404 43.0167 168.315 44.6691C168.204 46.7904 167.783 48.8671 167.096 50.8768C166.542 52.4399 165.832 53.9359 164.946 55.3427C164.325 56.3252 163.638 57.2631 162.862 58.1339C161.643 59.5184 160.268 60.7465 158.761 61.796C156.766 63.2028 154.527 64.2299 152.178 64.8775C149.939 65.5027 147.611 65.7707 145.284 65.6367C143.51 65.5474 141.737 65.2348 140.03 64.7212C137.858 64.0513 135.818 63.0465 133.956 61.7737C131.873 60.3669 130.055 58.5805 128.614 56.5039C127.55 55.0078 126.686 53.4 126.021 51.6806C125.289 49.7826 124.824 47.7729 124.646 45.7409C124.624 45.0487 124.646 44.2895 124.624 43.5526ZM126.752 43.642C126.752 44.0662 126.752 44.5128 126.752 44.9371C126.752 45.1604 126.797 45.406 126.819 45.6293C127.196 50.0282 129.08 54.1816 132.161 57.3301C136.749 62.0863 142.358 64.096 148.897 63.3591C152.843 62.9348 156.544 61.2601 159.47 58.5582C164.547 53.9136 166.763 48.1079 166.032 41.208C165.655 37.8809 164.436 34.7324 162.485 32.0305C162.374 31.8295 162.13 31.7402 161.931 31.8072C160.025 32.2761 158.118 31.115 157.653 29.1946C157.52 28.7034 157.498 28.1898 157.608 27.6985C157.697 27.4083 157.542 27.118 157.276 27.0063C153.042 24.1705 147.855 23.121 142.845 24.1035C133.491 25.8228 126.708 34.0625 126.752 43.642ZM161.089 30.2441C162.153 30.2665 163.017 29.4179 163.017 28.3461C163.017 28.3238 163.017 28.3238 163.017 28.3014C162.995 27.2296 162.153 26.3811 161.089 26.3811C160.025 26.3811 159.16 27.2296 159.16 28.3014V28.3238C159.182 29.3956 160.025 30.2441 161.089 30.2441Z" fill="#FEFDFE"/>
<path d="M126.752 43.642C126.708 34.0625 133.491 25.8452 142.845 24.1035C147.855 23.121 153.02 24.1705 157.276 27.0063C157.542 27.118 157.675 27.4083 157.608 27.6985C157.254 29.6412 158.517 31.4944 160.445 31.8517C160.933 31.941 161.443 31.9412 161.931 31.8072C162.153 31.7402 162.396 31.8294 162.507 32.0303C164.457 34.7322 165.676 37.903 166.053 41.2078C166.785 48.1077 164.59 53.9134 159.492 58.558C156.566 61.2599 152.864 62.9346 148.918 63.3589C142.379 64.0958 136.771 62.0861 132.183 57.3299C129.101 54.1591 127.217 50.0281 126.84 45.6291C126.818 45.4058 126.774 45.1602 126.774 44.9369C126.752 44.5126 126.752 44.0662 126.752 43.642ZM145.549 41.1408L145.638 41.2302L146.015 41.8107C145.992 41.8777 146.037 41.967 146.081 42.0117L146.103 45.3611C146.635 45.4951 147.189 45.4951 147.699 45.3611C147.744 44.334 147.744 43.3068 147.699 42.2796C147.721 42.2573 147.721 42.2127 147.699 42.1903C147.677 42.0117 147.655 41.8107 147.633 41.6321L147.566 41.4758L147.544 41.3418C147.566 41.2748 147.522 41.1855 147.478 41.1408C147.389 40.8282 147.212 40.5379 146.968 40.3146C146.901 40.1583 146.768 40.0467 146.635 39.9797L146.458 39.8457L146.347 39.7564C145.882 39.3991 145.327 39.2205 144.773 39.2205H144.419L144.197 39.2651C144.175 39.2428 144.153 39.2428 144.13 39.2651L143.953 39.2875C143.887 39.2651 143.798 39.2875 143.754 39.3545C143.443 39.3991 143.177 39.5331 142.933 39.7341L142.823 39.8234C142.712 39.8457 142.623 39.935 142.579 40.0244L142.49 40.1137C142.357 40.203 142.246 40.3146 142.202 40.4709L142.113 40.5826C141.847 40.9175 141.67 41.3418 141.648 41.7884C141.47 42.5699 141.581 43.3738 141.581 44.1553C141.559 45.4951 141.581 45.4951 142.933 45.4505C143.177 45.4505 143.244 45.3611 143.244 45.1379C143.222 44.2893 143.222 43.4185 143.222 42.5699C143.111 41.7437 143.687 41.0069 144.507 40.8952C144.84 40.8506 145.172 40.9175 145.438 41.0738L145.549 41.1408ZM128.791 44.6913C128.791 45.2718 128.769 45.8301 128.791 46.4106C128.813 46.8349 128.614 47.3932 128.88 47.6165C129.146 47.8174 129.678 47.6611 130.077 47.7058C130.365 47.7281 130.454 47.6388 130.454 47.3485C130.431 46.8349 130.454 46.3213 130.431 45.8077C130.431 45.5398 130.476 45.4058 130.786 45.4281C131.163 45.4505 131.518 45.4505 131.894 45.4281C133.601 45.4058 134.953 43.999 134.931 42.2796C134.909 40.5826 133.535 39.2205 131.85 39.1982C130.143 39.1982 128.769 40.5826 128.769 42.2796V42.302C128.769 43.1059 128.791 43.9097 128.791 44.6913ZM162.152 39.1982C161.62 39.1982 161.066 39.1982 160.534 39.1982C159.47 39.1758 158.561 40.0244 158.539 41.0962C158.539 41.1185 158.539 41.1185 158.539 41.1408C158.539 42.235 159.403 43.1059 160.467 43.1282H160.489C161.177 43.1282 161.886 43.1282 162.573 43.1282C162.795 43.1282 163.039 43.1505 163.039 43.4408C163.039 43.7311 162.795 43.7534 162.573 43.7534C161.819 43.7534 161.066 43.7534 160.312 43.7534C159.913 43.7534 159.381 43.5748 159.159 43.8427C158.96 44.0884 159.115 44.6243 159.071 45.0039C159.049 45.2942 159.115 45.4281 159.448 45.4058C160.512 45.3835 161.576 45.4058 162.64 45.3835C162.883 45.3835 163.127 45.3388 163.371 45.2718C164.236 44.9815 164.79 44.133 164.701 43.2175C164.59 42.2127 163.77 41.4535 162.773 41.4535C162.085 41.4311 161.376 41.4535 160.689 41.4311C160.467 41.4311 160.223 41.4535 160.201 41.1408C160.201 40.8282 160.445 40.8506 160.667 40.8506C161.398 40.8506 162.152 40.8506 162.883 40.8506C164.213 40.8506 164.213 40.8506 164.169 39.4884C164.169 39.2428 164.103 39.1758 163.859 39.1758C163.282 39.1982 162.706 39.1982 162.152 39.1982ZM155.192 45.7184C156.898 45.7184 158.295 44.334 158.317 42.6146V42.5923C158.295 40.8952 156.921 39.5331 155.236 39.5108C153.529 39.5108 152.133 40.8729 152.133 42.5923C152.11 44.3117 153.463 45.6961 155.169 45.7184H155.192ZM135.175 41.2748C135.175 41.7437 135.175 42.2127 135.175 42.6816C135.219 44.3117 136.505 45.6291 138.101 45.7184C139.431 45.8077 141.071 44.8029 141.293 43.1059C141.36 42.3243 141.382 41.5651 141.337 40.7836C141.36 39.4661 141.337 39.4661 140.03 39.4884C139.741 39.4884 139.675 39.5778 139.675 39.868C139.697 40.7389 139.697 41.6098 139.675 42.4806C139.741 43.2845 139.121 43.999 138.323 44.066C138.278 44.066 138.256 44.066 138.212 44.066C137.392 44.066 136.815 43.4185 136.815 42.4806C136.815 41.6098 136.793 40.7389 136.815 39.868C136.815 39.5778 136.749 39.4661 136.461 39.4884C136.128 39.5108 135.774 39.5108 135.441 39.4884C135.219 39.4884 135.153 39.5778 135.153 39.7787C135.175 40.27 135.175 40.7612 135.175 41.2748ZM147.965 39.8457C147.965 40.6273 147.965 41.4311 147.965 42.2127C147.943 43.9097 149.251 45.3388 150.936 45.4058C151.889 45.4728 151.889 45.4728 151.889 44.535C151.889 44.401 151.889 44.2447 151.889 44.1107C151.911 43.8427 151.822 43.7088 151.534 43.7311C151.379 43.7534 151.224 43.7534 151.069 43.7311C150.315 43.7534 149.694 43.1728 149.65 42.4136C149.606 41.9447 149.628 41.4758 149.606 41.0069C149.606 40.8059 149.672 40.7389 149.872 40.7389C150.226 40.7612 150.581 40.7389 150.936 40.7389C151.889 40.7389 151.889 40.7389 151.889 39.7564C151.889 39.0418 151.955 39.1535 151.312 39.1535C151.091 39.1535 150.847 39.1535 150.625 39.1535C149.628 39.1535 149.628 39.1535 149.628 38.1487C149.628 36.8312 149.628 36.8535 148.298 36.8982C148.032 36.8982 147.965 36.9875 147.965 37.2555C147.987 38.1263 147.987 38.9749 147.965 39.8457ZM157.519 49.8271C157.519 49.4475 157.519 49.0902 157.519 48.7106C157.519 48.5543 157.497 48.4426 157.297 48.4426C157.142 48.4426 157.031 48.465 157.031 48.6659C157.009 48.9339 157.142 49.2465 156.965 49.4252C156.765 49.6038 156.433 49.4475 156.167 49.5145C156.123 49.5145 156.078 49.5145 156.034 49.5368C155.391 49.6485 154.926 50.229 154.97 50.8989C155.036 51.5688 155.591 52.1047 156.256 52.1047C156.943 52.1047 157.497 51.5688 157.541 50.8989C157.519 50.5416 157.519 50.1844 157.519 49.8271ZM150.603 52.1271C150.847 52.1271 151.091 52.127 151.335 52.1047C151.734 52.0824 152.044 51.7251 152.022 51.3232C152.022 50.9212 151.689 50.5863 151.29 50.5863C150.98 50.564 150.67 50.5863 150.359 50.5863C150.182 50.5863 150.005 50.564 149.982 50.3407C149.96 50.0727 150.16 50.0504 150.359 50.0504C150.736 50.0504 151.135 50.0504 151.512 50.0504C151.689 50.0504 151.756 49.9834 151.756 49.8048C151.756 49.6485 151.756 49.5145 151.556 49.5145C151.069 49.5145 150.559 49.5145 150.071 49.5591C149.672 49.6038 149.406 49.9387 149.428 50.3407C149.428 50.7426 149.761 51.0776 150.182 51.0776C150.514 51.0999 150.825 51.0776 151.157 51.0776C151.357 51.0776 151.512 51.1445 151.49 51.3678C151.468 51.5688 151.312 51.6135 151.157 51.6135C150.78 51.6135 150.381 51.6135 150.005 51.6135C149.827 51.6135 149.716 51.6135 149.716 51.8591C149.716 52.0824 149.805 52.1717 150.027 52.1494C150.204 52.1047 150.404 52.1271 150.603 52.1271ZM140.185 49.5368C139.586 49.4921 139.032 49.8717 138.877 50.4523C138.7 51.0106 138.943 51.6358 139.453 51.9484C139.941 52.2387 140.584 52.1717 140.983 51.7921C141.071 51.7028 141.293 51.6358 141.094 51.4348C140.961 51.3009 140.85 51.1669 140.65 51.3902C140.517 51.5465 140.318 51.6358 140.118 51.6135C140.052 51.6135 139.941 51.5911 139.919 51.5465C139.852 51.4572 139.941 51.3902 140.007 51.3232C140.273 51.0552 140.517 50.7873 140.783 50.5416C141.249 50.0727 141.182 49.8048 140.539 49.6038C140.406 49.5591 140.296 49.5368 140.185 49.5368ZM147.965 49.5368C147.256 49.5368 146.68 50.1174 146.68 50.8319C146.702 51.5465 147.278 52.1271 148.01 52.1271C148.719 52.1047 149.273 51.5018 149.273 50.7873C149.273 50.095 148.719 49.5145 148.032 49.5145C148.01 49.5368 147.987 49.5368 147.965 49.5368ZM152.199 50.3407C152.199 50.497 152.199 50.6533 152.199 50.8096C152.177 51.5018 152.731 52.1047 153.418 52.1271C154.105 52.1494 154.682 51.6358 154.748 50.9659C154.793 50.564 154.748 50.162 154.77 49.7601C154.77 49.5368 154.637 49.5145 154.482 49.5145C154.305 49.5145 154.238 49.5815 154.238 49.7601C154.238 50.095 154.238 50.4077 154.238 50.7426C154.283 51.1669 153.95 51.5688 153.529 51.6135C153.507 51.6135 153.485 51.6135 153.463 51.6135C153.041 51.6135 152.687 51.2562 152.687 50.8096V50.7873C152.665 50.4523 152.687 50.1397 152.687 49.8048C152.687 49.6261 152.642 49.5145 152.443 49.5145C152.243 49.5145 152.177 49.6038 152.177 49.7824C152.221 49.9611 152.221 50.1397 152.199 50.3407ZM143.953 51.3455C143.953 51.1669 143.953 50.9659 143.953 50.7873C143.931 50.0727 143.332 49.5145 142.623 49.5368C142.601 49.5368 142.601 49.5368 142.579 49.5368C141.892 49.5591 141.36 50.1397 141.382 50.8319V50.8543C141.382 51.1892 141.382 51.5018 141.382 51.8368C141.382 51.9931 141.382 52.1494 141.603 52.1494C141.847 52.1494 141.892 52.0601 141.892 51.8368C141.892 51.5018 141.869 51.1445 141.892 50.8096C141.892 50.3853 142.246 50.0504 142.667 50.0504C143.089 50.0504 143.443 50.4077 143.421 50.8543V50.8766C143.421 51.2115 143.421 51.5688 143.421 51.9037C143.421 52.127 143.532 52.1494 143.709 52.1494C143.887 52.1494 143.975 52.1047 143.975 51.9037C143.953 51.7028 143.953 51.5241 143.953 51.3455ZM137.503 49.5145C136.904 49.5145 136.394 49.9164 136.261 50.497C136.128 51.0552 136.372 51.6358 136.86 51.9261C137.37 52.2164 137.99 52.1271 138.411 51.7474C138.522 51.6358 138.655 51.5465 138.478 51.3902C138.345 51.2562 138.256 51.1892 138.057 51.3455C137.636 51.6805 137.259 51.6581 136.948 51.3232C136.682 51.0329 136.682 50.5863 136.926 50.296C137.17 49.9834 137.636 49.9164 137.946 50.162C137.968 50.1844 138.012 50.2067 138.035 50.229C138.234 50.4077 138.345 50.3407 138.478 50.1844C138.7 49.9611 138.434 49.8941 138.345 49.8048C138.123 49.6038 137.813 49.4921 137.503 49.5145ZM144.13 50.8096C144.108 51.3455 144.441 51.8144 144.928 52.0154C145.394 52.2164 145.948 52.1047 146.303 51.7474C146.414 51.6358 146.547 51.5465 146.369 51.3678C146.236 51.2339 146.125 51.1445 145.97 51.3232C145.793 51.5465 145.483 51.6358 145.217 51.5241C144.906 51.4348 144.685 51.1669 144.662 50.8543C144.618 50.5416 144.773 50.2514 145.061 50.1174C145.35 49.9164 145.726 49.9611 145.948 50.229C146.125 50.4077 146.236 50.3853 146.391 50.2067C146.591 49.9834 146.369 49.8941 146.281 49.8048C145.904 49.4475 145.35 49.3805 144.906 49.6038C144.396 49.8271 144.108 50.296 144.13 50.8096Z" fill="#7F2684"/>
<path d="M161.089 30.2441C160.047 30.2441 159.182 29.3959 159.16 28.3464C159.16 28.3464 159.16 28.3461 159.16 28.3238C159.16 27.2519 160.002 26.3814 161.066 26.3814L161.089 26.3811C162.153 26.3811 162.995 27.2296 163.017 28.3014C163.017 29.3733 162.174 30.2444 161.11 30.2444C161.132 30.2444 161.111 30.2441 161.089 30.2441Z" fill="#E2890A"/>
<path d="M128.791 44.69C128.791 43.9085 128.791 43.1046 128.791 42.3231C128.791 40.6037 130.144 39.2193 131.85 39.2193H131.873C133.557 39.2193 134.932 40.6037 134.954 42.3008C134.976 44.0202 133.624 45.4269 131.917 45.4493C131.54 45.4493 131.185 45.4716 130.809 45.4493C130.498 45.4269 130.454 45.5386 130.454 45.8289C130.476 46.3424 130.454 46.856 130.476 47.3696C130.498 47.6599 130.387 47.7492 130.099 47.7269C129.678 47.7046 129.146 47.8609 128.902 47.6376C128.636 47.4143 128.836 46.856 128.814 46.4318C128.769 45.8512 128.769 45.2706 128.791 44.69ZM130.432 42.8144C130.454 43.7522 130.454 43.7522 131.363 43.7522C131.562 43.7522 131.762 43.7522 131.961 43.7522C132.693 43.7075 133.269 43.0823 133.313 42.3454C133.313 41.6085 132.804 41.0056 132.072 40.8717C131.363 40.7823 130.676 41.2289 130.476 41.9212C130.432 42.2338 130.41 42.5241 130.432 42.8144Z" fill="#FEFDFE"/>
<path d="M162.152 39.1997C162.728 39.1997 163.305 39.1997 163.859 39.1997C164.103 39.1997 164.169 39.2667 164.169 39.5123C164.213 40.8745 164.213 40.8745 162.883 40.8745C162.152 40.8745 161.398 40.8745 160.667 40.8745C160.445 40.8745 160.201 40.8745 160.201 41.1647C160.201 41.4774 160.467 41.455 160.689 41.455C161.376 41.455 162.085 41.4327 162.773 41.4774C163.77 41.4774 164.612 42.2366 164.701 43.2414C164.79 44.1569 164.236 45.0055 163.371 45.2957C163.127 45.3627 162.883 45.4074 162.64 45.4074C161.576 45.4297 160.512 45.4074 159.448 45.4297C159.115 45.4297 159.049 45.3181 159.071 45.0278C159.093 44.6258 158.96 44.1123 159.159 43.8666C159.381 43.5987 159.913 43.7773 160.312 43.7773C161.066 43.755 161.819 43.7773 162.573 43.7773C162.795 43.7773 163.039 43.755 163.039 43.4647C163.039 43.1744 162.795 43.1521 162.573 43.1521C161.886 43.1521 161.177 43.1521 160.489 43.1521C159.403 43.1521 158.539 42.2812 158.517 41.2094C158.517 41.1871 158.517 41.1871 158.517 41.1647C158.517 40.0929 159.403 39.2221 160.467 39.2221C160.489 39.2221 160.489 39.2221 160.512 39.2221C161.066 39.1774 161.598 39.1997 162.152 39.1997Z" fill="#FEFDFE"/>
<path d="M155.192 45.7197C153.485 45.7197 152.133 44.3129 152.133 42.6159V42.5935C152.155 40.8742 153.529 39.4897 155.236 39.512C156.921 39.5344 158.273 40.8965 158.317 42.5935C158.317 44.3129 156.943 45.7197 155.236 45.7197C155.214 45.7197 155.192 45.7197 155.192 45.7197ZM155.192 44.045C155.99 44.0673 156.633 43.4197 156.655 42.6382C156.655 42.6382 156.655 42.6382 156.655 42.6159C156.633 41.812 155.99 41.1644 155.214 41.1644C154.438 41.1868 153.818 41.812 153.795 42.5935C153.773 43.3751 154.372 44.0226 155.148 44.045C155.148 44.045 155.17 44.045 155.192 44.045Z" fill="#FEFDFE"/>
<path d="M135.176 41.2743C135.176 40.783 135.176 40.2695 135.176 39.7782C135.176 39.5549 135.243 39.4656 135.465 39.4879C135.797 39.5102 136.152 39.5102 136.484 39.4879C136.772 39.4656 136.861 39.5772 136.839 39.8675C136.817 40.7384 136.839 41.6092 136.839 42.4801C136.839 43.4179 137.415 44.0432 138.235 44.0655C139.033 44.0655 139.698 43.4179 139.698 42.5917C139.698 42.5471 139.698 42.5247 139.698 42.4801C139.698 41.6092 139.698 40.7384 139.698 39.8675C139.698 39.5996 139.765 39.4879 140.053 39.4879C141.361 39.4656 141.361 39.4656 141.361 40.783C141.383 41.5646 141.383 42.3461 141.317 43.1053C141.095 44.78 139.455 45.7849 138.125 45.7179C136.506 45.6286 135.243 44.3111 135.199 42.6811C135.176 42.1898 135.176 41.7432 135.176 41.2743Z" fill="#FEFDFE"/>
<path d="M146.126 45.34C146.126 44.2235 146.104 43.107 146.104 41.9905C146.126 41.9235 146.104 41.8342 146.037 41.7896L145.661 41.209L145.572 41.1197L145.461 41.0304C144.752 40.6061 143.843 40.8517 143.422 41.5663C143.267 41.8566 143.2 42.1915 143.244 42.5041C143.089 43.04 143.178 43.6206 143.178 44.1565C143.156 45.2283 143.178 45.2283 142.092 45.206C141.804 45.206 141.693 45.1167 141.693 44.8041C141.715 43.7769 141.693 42.7497 141.693 41.7226C141.715 41.276 141.892 40.8741 142.158 40.5168L142.247 40.4051C142.313 40.2488 142.402 40.1372 142.535 40.0479L142.624 39.9585C142.668 39.8469 142.779 39.7799 142.868 39.7576L142.978 39.6682C143.2 39.4673 143.488 39.3333 143.799 39.2886C143.865 39.311 143.954 39.2886 143.998 39.2217L144.175 39.1993C144.198 39.1993 144.22 39.1993 144.242 39.1993L144.464 39.1547C144.574 39.244 144.707 39.244 144.818 39.1547C145.395 39.1547 145.949 39.3333 146.392 39.6906L146.503 39.7799L146.68 39.9139C146.68 40.1595 146.791 40.2712 147.013 40.2488C147.257 40.4721 147.434 40.7624 147.5 41.075C147.478 41.142 147.523 41.2313 147.567 41.276L147.589 41.41L147.656 41.5663L147.722 42.1245L147.7 42.1468C147.7 42.1692 147.722 42.1915 147.722 42.2138C147.744 43.241 147.766 44.2682 147.722 45.2953L146.126 45.34Z" fill="white"/>
<path d="M147.989 39.846C147.989 38.9975 147.989 38.1266 147.989 37.2781C147.989 37.0102 148.055 36.9432 148.321 36.9208C149.651 36.8762 149.651 36.8762 149.651 38.1713C149.651 39.1761 149.651 39.1761 150.649 39.1761C150.87 39.1761 151.114 39.1761 151.336 39.1761C151.979 39.1761 151.912 39.0868 151.912 39.779C151.912 40.7615 151.912 40.7615 150.959 40.7615C150.604 40.7615 150.25 40.7615 149.895 40.7615C149.696 40.7615 149.629 40.8285 149.629 41.0295C149.651 41.4984 149.629 41.9673 149.673 42.4363C149.718 43.1955 150.338 43.7761 151.092 43.7537C151.247 43.7761 151.402 43.7761 151.558 43.7537C151.846 43.7091 151.934 43.843 151.912 44.1333C151.912 44.2673 151.912 44.4236 151.912 44.5576C151.912 45.4954 151.912 45.4954 150.959 45.4284C149.274 45.3615 147.944 43.9324 147.989 42.2353C147.967 41.4314 147.989 40.6276 147.989 39.846Z" fill="#FAFAFA"/>
<path d="M157.519 49.8271C157.519 50.1844 157.541 50.542 157.519 50.8993C157.475 51.5915 156.921 52.1051 156.234 52.1051C155.546 52.0828 154.992 51.5692 154.948 50.8993C154.904 50.2294 155.369 49.6488 156.012 49.5372C156.056 49.5372 156.101 49.5372 156.145 49.5149C156.411 49.4479 156.743 49.6042 156.943 49.4255C157.12 49.2469 157.009 48.9343 157.009 48.6663C157.009 48.4654 157.12 48.443 157.275 48.443C157.475 48.443 157.497 48.5547 157.497 48.711C157.519 49.0906 157.519 49.4698 157.519 49.8271ZM157.032 50.5644C156.965 50.3634 157.12 50.1401 156.899 50.0285C156.477 49.9391 156.034 50.0284 155.679 50.2517C155.458 50.475 155.391 50.7877 155.524 51.0779C155.635 51.3906 155.923 51.5915 156.234 51.5692C156.544 51.5915 156.854 51.3682 156.943 51.0779C156.987 50.9216 157.032 50.743 157.032 50.5644Z" fill="#FAFAFA"/>
<path d="M150.603 52.1271C150.404 52.1271 150.204 52.1277 150.005 52.1277C149.783 52.1501 149.695 52.0607 149.695 51.8374C149.695 51.5918 149.828 51.5918 149.983 51.5918C150.36 51.5918 150.759 51.5918 151.135 51.5918C151.313 51.5918 151.446 51.5472 151.468 51.3462C151.49 51.1229 151.335 51.0559 151.135 51.0559C150.803 51.0559 150.493 51.0559 150.16 51.0559C149.761 51.0559 149.429 50.721 149.406 50.319C149.384 49.9171 149.65 49.5821 150.049 49.5375C150.537 49.4928 151.025 49.5152 151.534 49.4928C151.734 49.4928 151.734 49.6268 151.734 49.7831C151.734 49.9618 151.667 50.0287 151.49 50.0287C151.113 50.0287 150.714 50.0287 150.337 50.0287C150.138 50.0287 149.938 50.0511 149.961 50.319C149.983 50.5423 150.16 50.5647 150.337 50.5647C150.648 50.5647 150.958 50.5647 151.268 50.5647C151.667 50.5647 152 50.8996 152 51.3015C152.022 51.7035 151.712 52.0607 151.313 52.0831C151.091 52.1054 150.847 52.1047 150.603 52.1271Z" fill="#FAFAFA"/>
<path d="M140.186 49.5359C140.297 49.5359 140.408 49.5582 140.518 49.5805C141.161 49.7815 141.228 50.0495 140.762 50.5184C140.496 50.7863 140.23 51.0543 139.986 51.2999C139.92 51.3669 139.831 51.4339 139.898 51.5232C139.942 51.5679 140.031 51.5679 140.097 51.5902C140.297 51.6125 140.496 51.5232 140.629 51.3669C140.829 51.1436 140.917 51.2776 141.073 51.4116C141.272 51.6125 141.073 51.6795 140.962 51.7688C140.541 52.1708 139.92 52.2378 139.432 51.9251C138.922 51.6125 138.701 51.0096 138.856 50.4291C139.033 49.8708 139.587 49.4912 140.186 49.5359ZM139.388 51.1436C139.743 50.831 140.075 50.496 140.385 50.1164C139.676 49.9378 139.277 50.3174 139.388 51.1436Z" fill="#FAFAFA"/>
<path d="M147.965 49.5368C148.652 49.5145 149.229 50.0502 149.273 50.7424C149.273 50.7647 149.273 50.787 149.273 50.8094C149.273 51.5239 148.719 52.1268 148.009 52.1491C147.3 52.1491 146.724 51.5686 146.679 50.854C146.679 50.1171 147.256 49.5368 147.965 49.5368ZM148.785 50.8094C148.763 50.3851 148.431 50.0502 148.009 50.0278C147.566 50.0278 147.211 50.4074 147.234 50.8317C147.256 51.256 147.588 51.5909 148.009 51.5909C148.431 51.5909 148.763 51.2336 148.785 50.8094Z" fill="#FAFAFA"/>
<path d="M152.223 50.3406C152.223 50.1619 152.223 49.961 152.223 49.7823C152.201 49.5814 152.267 49.5144 152.489 49.5144C152.711 49.5144 152.755 49.626 152.733 49.8046C152.733 50.1396 152.711 50.4522 152.733 50.7872C152.711 51.2114 153.043 51.591 153.487 51.6134H153.509C153.952 51.6134 154.285 51.2561 154.285 50.8095C154.285 50.7872 154.285 50.7648 154.285 50.7425C154.285 50.4076 154.285 50.0949 154.285 49.76C154.285 49.5814 154.351 49.5144 154.528 49.5144C154.684 49.5144 154.839 49.5144 154.817 49.76C154.794 50.1619 154.839 50.5639 154.794 50.9658C154.728 51.6357 154.129 52.1493 153.464 52.1269C152.777 52.1046 152.223 51.5017 152.245 50.8095C152.201 50.6532 152.223 50.4969 152.223 50.3406Z" fill="#FAFAFA"/>
<path d="M143.953 51.3455C143.953 51.5241 143.953 51.725 143.953 51.9037C143.953 52.0823 143.864 52.1493 143.687 52.1493C143.51 52.1493 143.399 52.1269 143.399 51.9037C143.421 51.5687 143.399 51.2114 143.399 50.8765C143.421 50.4522 143.089 50.0727 142.667 50.0504L142.645 50.0503C142.224 50.0503 141.869 50.3852 141.869 50.8095C141.847 51.1444 141.847 51.5017 141.869 51.8367C141.869 52.0376 141.825 52.1493 141.581 52.1493C141.36 52.1493 141.36 51.993 141.36 51.8367C141.36 51.5017 141.36 51.1891 141.36 50.8542C141.315 50.1619 141.847 49.559 142.534 49.5367H142.557C143.266 49.492 143.887 50.028 143.931 50.7425C143.931 50.7648 143.931 50.7648 143.931 50.7872C143.975 50.9658 143.953 51.1445 143.953 51.3455Z" fill="#FAFAFA"/>
<path d="M137.503 49.5154C137.813 49.493 138.124 49.6047 138.345 49.828C138.434 49.9173 138.7 49.9843 138.478 50.2076C138.323 50.3639 138.235 50.4309 138.035 50.2523C137.769 49.962 137.304 49.9396 137.015 50.2299C136.993 50.2523 136.971 50.2746 136.949 50.3192C136.705 50.6095 136.705 51.0561 136.971 51.3464C137.281 51.6814 137.658 51.7037 138.079 51.3687C138.279 51.2124 138.345 51.2794 138.501 51.4134C138.7 51.592 138.545 51.6814 138.434 51.7707C138.013 52.1726 137.392 52.2396 136.882 51.9493C136.395 51.659 136.129 51.0785 136.284 50.5202C136.395 49.9173 136.905 49.5154 137.503 49.5154Z" fill="#FAFAFA"/>
<path d="M144.131 50.8105C144.109 50.2969 144.397 49.828 144.862 49.627C145.328 49.4037 145.86 49.4707 146.237 49.828C146.348 49.9173 146.569 50.0066 146.348 50.2299C146.192 50.3862 146.082 50.4309 145.904 50.2523C145.66 50.0066 145.284 49.962 145.018 50.1406C144.752 50.2746 144.596 50.5649 144.619 50.8775C144.641 51.1901 144.862 51.4581 145.173 51.5474C145.439 51.6367 145.749 51.5697 145.926 51.3464C146.104 51.1678 146.192 51.2348 146.325 51.3911C146.503 51.5697 146.392 51.659 146.259 51.7707C145.904 52.128 145.35 52.2396 144.885 52.0386C144.441 51.8377 144.109 51.3464 144.131 50.8105Z" fill="#FAFAFA"/>
<path d="M141.648 41.7872C141.648 42.8144 141.67 43.8415 141.648 44.8687C141.648 45.1813 141.759 45.2706 142.047 45.2706C143.133 45.293 143.111 45.293 143.133 44.2211C143.133 43.6629 143.045 43.1047 143.2 42.5688C143.2 43.4173 143.2 44.2881 143.222 45.1367C143.222 45.3823 143.155 45.4493 142.912 45.4493C141.559 45.4939 141.559 45.5163 141.559 44.1542C141.582 43.3503 141.471 42.5688 141.648 41.7872Z" fill="#FAFAFA"/>
<path d="M146.126 45.3385H147.722C147.212 45.4725 146.658 45.4725 146.126 45.3385Z" fill="#FAFAFA"/>
<path d="M147.013 40.3133C146.769 40.3133 146.658 40.2016 146.68 39.9783C146.813 40.0453 146.924 40.157 147.013 40.3133Z" fill="#FAFAFA"/>
<path d="M144.797 39.2193C144.686 39.3086 144.553 39.3086 144.442 39.2193H144.797Z" fill="#FAFAFA"/>
<path d="M147.588 41.3188C147.521 41.2742 147.499 41.2072 147.521 41.1179C147.566 41.1848 147.588 41.2518 147.588 41.3188Z" fill="#FAFAFA"/>
<path d="M146.036 41.8105C146.103 41.8552 146.125 41.9445 146.103 42.0115C146.036 41.9445 146.014 41.8775 146.036 41.8105Z" fill="#FAFAFA"/>
<path d="M143.977 39.2875C143.932 39.3545 143.844 39.3768 143.777 39.3545C143.821 39.3098 143.91 39.2875 143.977 39.2875Z" fill="#FAFAFA"/>
<path d="M147.744 42.2588C147.744 42.2364 147.721 42.2141 147.721 42.1918L147.744 42.1694C147.766 42.1918 147.766 42.2364 147.744 42.2588Z" fill="#FAFAFA"/>
<path d="M144.22 39.2665C144.198 39.2665 144.176 39.2889 144.154 39.2665C144.176 39.2442 144.198 39.2442 144.22 39.2665Z" fill="#FAFAFA"/>
<path d="M130.432 42.8163C130.432 42.526 130.454 42.2357 130.498 41.9454C130.698 41.2532 131.363 40.8066 132.094 40.8959C132.804 41.0076 133.336 41.6328 133.336 42.3697C133.313 43.1066 132.737 43.7095 131.983 43.7764C131.784 43.7988 131.584 43.7764 131.385 43.7764C130.432 43.7541 130.432 43.7541 130.432 42.8163Z" fill="#7F2684"/>
<path d="M155.192 44.045C154.416 44.0673 153.796 43.4421 153.773 42.6606C153.773 42.6383 153.773 42.6159 153.773 42.5936C153.796 41.8121 154.416 41.1868 155.192 41.1645C155.99 41.1645 156.633 41.8121 156.633 42.6159C156.655 43.4198 156.012 44.045 155.192 44.045C155.214 44.045 155.214 44.045 155.192 44.045Z" fill="#7F2684"/>
<path d="M157.031 50.5626C157.009 50.7412 156.987 50.9199 156.943 51.0762C156.854 51.3888 156.566 51.5897 156.233 51.5674C155.923 51.5897 155.613 51.3664 155.524 51.0762C155.391 50.7859 155.457 50.4733 155.679 50.25C156.034 50.0043 156.477 49.915 156.898 50.0267C157.12 50.1606 156.965 50.3616 157.031 50.5626Z" fill="#7F2684"/>
<path d="M139.387 51.1448C139.299 50.3186 139.675 49.939 140.385 50.1176C140.074 50.4972 139.742 50.8321 139.387 51.1448Z" fill="#7F2684"/>
<path d="M148.785 50.8094C148.763 51.2336 148.431 51.5686 148.009 51.5909C147.588 51.5909 147.234 51.256 147.234 50.8317C147.234 50.3851 147.588 50.0278 148.009 50.0278C148.431 50.0502 148.763 50.4074 148.785 50.8094Z" fill="#7F2684"/>
<defs>
<linearGradient id="paint0_linear_2179_18995" x1="44.0333" y1="-5.53333" x2="152.3" y2="251.533" gradientUnits="userSpaceOnUse">
<stop offset="0.219581" stop-color="#DDF5FB"/>
<stop offset="1" stop-color="#DA0095"/>
</linearGradient>
<linearGradient id="paint1_linear_2179_18995" x1="41.0667" y1="-11.5667" x2="156.1" y2="261.567" gradientUnits="userSpaceOnUse">
<stop offset="0.219581" stop-color="#DDF5FB"/>
<stop offset="1" stop-color="#DA0095"/>
</linearGradient>
<linearGradient id="paint2_linear_2179_18995" x1="47" y1="0.500002" x2="148.5" y2="241.5" gradientUnits="userSpaceOnUse">
<stop offset="0.219581" stop-color="#DDF5FB"/>
<stop offset="1" stop-color="#DA0095"/>
</linearGradient>
<linearGradient id="paint3_linear_2179_18995" x1="47" y1="0.500002" x2="148.5" y2="241.5" gradientUnits="userSpaceOnUse">
<stop offset="0.219581" stop-color="#DDF5FB"/>
<stop offset="1" stop-color="#DA0095"/>
</linearGradient>
</defs>
</svg>
