<svg width="128" height="128" viewBox="0 0 128 128" fill="none" xmlns="http://www.w3.org/2000/svg">
<path d="M92.6538 34.625H85.6154V27.4062C85.6154 26.078 84.5643 25 83.2692 25H41.0385C37.1579 25 34 28.2388 34 32.2188V92.375C34 97.6832 38.209 102 43.3846 102H92.6538C93.9489 102 95 100.922 95 99.5938V37.0312C95 35.703 93.9489 34.625 92.6538 34.625ZM78.5769 87.5625H50.4231C49.128 87.5625 48.0769 86.4845 48.0769 85.1562C48.0769 83.828 49.128 82.75 50.4231 82.75H78.5769C79.872 82.75 80.9231 83.828 80.9231 85.1562C80.9231 86.4845 79.872 87.5625 78.5769 87.5625ZM48.0769 53.875C48.0769 48.4754 51.1692 44.25 55.1154 44.25C59.0616 44.25 62.1538 48.4754 62.1538 53.875C62.1538 58.1341 60.2159 61.6328 57.4615 62.9273V75.5312C57.4615 76.8595 56.4105 77.9375 55.1154 77.9375C53.8203 77.9375 52.7692 76.8595 52.7692 75.5312V62.9273C50.0148 61.6328 48.0769 58.1341 48.0769 53.875ZM80.9231 65.9062C80.9231 67.2345 79.872 68.3125 78.5769 68.3125H71.5385V75.5312C71.5385 76.8595 70.4874 77.9375 69.1923 77.9375C67.8972 77.9375 66.8462 76.8595 66.8462 75.5312V46.6562C66.8462 45.328 67.8972 44.25 69.1923 44.25C75.663 44.25 80.9231 49.6496 80.9231 56.2812V65.9062ZM80.9231 34.625H41.0385C39.7434 34.625 38.6923 33.547 38.6923 32.2188C38.6923 30.8905 39.7434 29.8125 41.0385 29.8125H80.9231V34.625Z" fill="url(#paint0_linear_436_9841)"/>
<circle opacity="0.1" cx="64" cy="64" r="64" fill="url(#paint1_linear_436_9841)"/>
<mask id="mask0_436_9841" style="mask-type:alpha" maskUnits="userSpaceOnUse" x="0" y="0" width="128" height="128">
<circle cx="64" cy="64" r="64" fill="#EEEEEE"/>
</mask>
<g mask="url(#mask0_436_9841)">
</g>
<defs>
<linearGradient id="paint0_linear_436_9841" x1="91.0436" y1="98.6403" x2="25.2706" y2="45.5912" gradientUnits="userSpaceOnUse">
<stop offset="0.0416667" stop-color="#47BAD8"/>
<stop offset="0.34375" stop-color="#6A6CE9"/>
<stop offset="0.609375" stop-color="#9454E6"/>
<stop offset="1" stop-color="#CE57D3"/>
</linearGradient>
<linearGradient id="paint1_linear_436_9841" x1="11.3157" y1="115.231" x2="93.5111" y2="35.3111" gradientUnits="userSpaceOnUse">
<stop offset="0.01" stop-color="#FF55AA"/>
<stop offset="0.25" stop-color="#B850C9"/>
<stop offset="0.62" stop-color="#6572D6"/>
<stop offset="1" stop-color="#4EAEB8"/>
</linearGradient>
</defs>
</svg>
