<svg width="24" height="24" viewBox="0 0 24 24" fill="none" xmlns="http://www.w3.org/2000/svg">
<path d="M17.0739 3.62284C17.2633 3.81263 17.2843 4.08652 17.1581 4.29734C16.6949 5.03508 16.8002 5.96238 17.4318 6.59469C18.0423 7.20583 18.9684 7.31123 19.7053 6.84756C19.9159 6.72098 20.2106 6.76317 20.379 6.9318L21.621 8.17524C22.1263 8.6811 22.1263 9.5241 21.621 10.03L18.4633 13.1914L10.8216 5.54079L13.9793 2.3794C14.4846 1.87353 15.3266 1.87353 15.8319 2.3794L17.0739 3.62284Z" fill="#909090"/>
<path d="M3.62345 17.0893L2.38153 15.8459C1.87638 15.34 1.87638 14.5181 2.36053 13.9701L10.0443 6.27742L17.6861 13.928L10.0022 21.6207C9.74966 21.8736 9.41279 22 9.07593 22C8.73907 22 8.4022 21.8736 8.14963 21.6207L6.88646 20.3561C6.69703 20.1875 6.67603 19.9136 6.80232 19.7028C7.24432 18.965 7.11804 18.0377 6.5286 17.4476C5.91803 16.8574 4.99173 16.7309 4.27601 17.1735C4.06561 17.3001 3.79188 17.2579 3.62345 17.0893Z" fill="#909090"/>
</svg>
