<svg width="16" height="20" viewBox="0 0 16 20" fill="none" xmlns="http://www.w3.org/2000/svg">
<path d="M15.3846 2.5H13.5385V0.625C13.5385 0.28 13.2628 0 12.9231 0H1.84615C0.828308 0 0 0.84125 0 1.875V17.5C0 18.8787 1.104 20 2.46154 20H15.3846C15.7243 20 16 19.72 16 19.375V3.125C16 2.78 15.7243 2.5 15.3846 2.5ZM11.6923 16.25H4.30769C3.968 16.25 3.69231 15.97 3.69231 15.625C3.69231 15.28 3.968 15 4.30769 15H11.6923C12.032 15 12.3077 15.28 12.3077 15.625C12.3077 15.97 12.032 16.25 11.6923 16.25ZM3.69231 7.5C3.69231 6.0975 4.50338 5 5.53846 5C6.57354 5 7.38462 6.0975 7.38462 7.5C7.38462 8.60625 6.87631 9.515 6.15385 9.85125V13.125C6.15385 13.47 5.87815 13.75 5.53846 13.75C5.19877 13.75 4.92308 13.47 4.92308 13.125V9.85125C4.20062 9.515 3.69231 8.60625 3.69231 7.5ZM12.3077 10.625C12.3077 10.97 12.032 11.25 11.6923 11.25H9.84615V13.125C9.84615 13.47 9.57046 13.75 9.23077 13.75C8.89108 13.75 8.61539 13.47 8.61539 13.125V5.625C8.61539 5.28 8.89108 5 9.23077 5C10.928 5 12.3077 6.4025 12.3077 8.125V10.625ZM12.3077 2.5H1.84615C1.50646 2.5 1.23077 2.22 1.23077 1.875C1.23077 1.53 1.50646 1.25 1.84615 1.25H12.3077V2.5Z" fill="black"/>
</svg>
