<svg width="60" height="60" viewBox="0 0 60 60" fill="none" xmlns="http://www.w3.org/2000/svg">
<g opacity="0.6">
<path d="M30 60C13.4167 60 0 46.5001 0 30C0 13.5 13.4999 0 30 0C46.5 0 60 13.4999 60 30C60 46.5 46.5833 60 30 60ZM30 3.33333C15.2499 3.33333 3.33333 15.3335 3.33333 30C3.33333 44.7501 15.3335 56.6667 30 56.6667C44.7502 56.6667 56.6667 44.6665 56.6667 30C56.6667 15.2499 44.7503 3.33333 30 3.33333V3.33333Z" fill="white"/>
<path d="M21.7499 20.1668C21.7499 22.417 19.9166 18.9171 17.7501 18.9171C15.4999 18.9171 13.7502 22.4171 13.7502 20.1668C13.7502 17.9166 15.5836 16.167 17.7501 16.167C19.9166 16.1664 21.7499 17.9167 21.7499 20.1668Z" fill="white"/>
<path d="M46.3334 20.1668C46.3334 22.417 44.5001 18.9171 42.3336 18.9171C40.1671 18.9171 38.3337 22.4171 38.3337 20.1668C38.3337 17.9166 40.1671 16.167 42.3336 16.167C44.5001 16.1664 46.3334 17.9167 46.3334 20.1668Z" fill="white"/>
<path d="M17.4167 30.5827C17.4167 23.5829 23.0831 30.8327 29.9999 30.8327C36.9167 30.8327 42.5831 23.5828 42.5831 30.5827C42.5831 37.5826 36.9998 43.1659 29.9999 43.1659C23.0001 43.1659 17.4167 37.4989 17.4167 30.5827V30.5827Z" fill="white"/>
</g>
</svg>
