<svg width="96" height="97" viewBox="0 0 96 97" fill="none" xmlns="http://www.w3.org/2000/svg">
<path d="M48 96.5C21.4667 96.5 0 74.9002 0 48.5C0 22.1 21.5998 0.5 48 0.5C74.4 0.5 96 22.0998 96 48.5C96 74.9 74.5333 96.5 48 96.5ZM48 5.83333C24.3998 5.83333 5.33334 25.0336 5.33334 48.5C5.33334 72.1002 24.5336 91.1667 48 91.1667C71.6002 91.1667 90.6667 71.9664 90.6667 48.5C90.6667 24.8998 71.6005 5.83333 48 5.83333Z" fill="black"/>
<path d="M34.799 32.7669C34.799 36.3672 31.8657 30.7673 28.3993 30.7673C24.799 30.7673 21.9995 36.3673 21.9995 32.7669C21.9995 29.1666 24.9328 26.3672 28.3993 26.3672C31.8657 26.3663 34.799 29.1667 34.799 32.7669Z" fill="black"/>
<path d="M74.1325 32.7669C74.1325 36.3672 71.1992 30.7673 67.7328 30.7673C64.2663 30.7673 61.333 36.3673 61.333 32.7669C61.333 29.1666 64.2663 26.3672 67.7328 26.3672C71.1992 26.3663 74.1325 29.1667 74.1325 32.7669Z" fill="black"/>
<path d="M27.8652 49.4327C27.8652 38.233 36.9314 49.8327 47.9983 49.8327C59.0652 49.8327 68.1314 38.2329 68.1314 49.4327C68.1314 60.6326 59.1981 69.5658 47.9983 69.5658C36.7986 69.5658 27.8652 60.4987 27.8652 49.4327Z" fill="black"/>
</svg>
