<svg width="207" height="202" viewBox="0 0 207 202" fill="none" xmlns="http://www.w3.org/2000/svg">
<path opacity="0.1" d="M27.0695 108.15C27.0695 155.728 65.601 194.296 113.131 194.296C160.661 194.296 199.193 155.728 199.193 108.15C199.193 60.5729 160.661 22.0043 113.131 22.0043C65.601 22.0043 27.0695 60.5729 27.0695 108.15Z" stroke="url(#paint0_linear_5916_29905)" stroke-width="0.754778"/>
<path opacity="0.05" d="M20.0992 108.151C20.0992 159.581 61.7512 201.273 113.131 201.273C164.51 201.273 206.162 159.581 206.162 108.151C206.162 56.7201 164.51 15.0281 113.131 15.0281C61.7512 15.0281 20.0992 56.7201 20.0992 108.151Z" stroke="url(#paint1_linear_5916_29905)" stroke-width="0.815905"/>
<g clip-path="url(#clip0_5916_29905)">
<path d="M113.128 188.211C68.8515 188.211 32.958 152.283 32.958 107.963C32.958 63.6428 68.8515 27.7144 113.128 27.7144C157.405 27.7144 193.299 63.6428 193.299 107.963C193.299 152.283 157.405 188.211 113.128 188.211Z" fill="white"/>
<path opacity="0.1" d="M113.128 188.211C68.8515 188.211 32.958 152.283 32.958 107.963C32.958 63.6428 68.8515 27.7144 113.128 27.7144C157.405 27.7144 193.299 63.6428 193.299 107.963C193.299 152.283 157.405 188.211 113.128 188.211Z" fill="url(#paint2_linear_5916_29905)"/>
<path opacity="0.1" d="M33.308 107.963C33.308 152.09 69.0452 187.861 113.128 187.861C157.212 187.861 192.949 152.09 192.949 107.963C192.949 63.8358 157.212 28.0644 113.128 28.0644C69.0452 28.0644 33.308 63.8358 33.308 107.963Z" stroke="url(#paint3_linear_5916_29905)" stroke-width="0.70004"/>
<path opacity="0.1" d="M33.308 108.151C33.308 152.278 69.0452 188.049 113.128 188.049C157.212 188.049 192.949 152.278 192.949 108.151C192.949 64.0238 157.212 28.2524 113.128 28.2524C69.0452 28.2524 33.308 64.0238 33.308 108.151Z" stroke="url(#paint4_linear_5916_29905)" stroke-width="0.70004"/>
</g>
<mask id="mask0_5916_29905" style="mask-type:alpha" maskUnits="userSpaceOnUse" x="0" y="0" width="205" height="189">
<path fill-rule="evenodd" clip-rule="evenodd" d="M205 0H0V132H36.6196C46.824 164.577 77.2203 188.211 113.131 188.211C149.042 188.211 179.439 164.577 189.643 132H205V0Z" fill="#C4C4C4"/>
</mask>
<g mask="url(#mask0_5916_29905)">
<path d="M19.4024 170.873C21.9957 167.043 24.1779 163.529 25.601 160.711C32.9697 145.928 43.7224 115.031 49.7628 102.717C55.8033 90.4029 69.0227 77.4238 69.0227 77.4238L80.4078 111.802L82.084 155.805C82.084 155.805 79.1744 160.395 74.146 171.348C69.1176 182.333 64.8798 183.441 57.3845 190.595C55.6135 192.304 53.7792 194.489 51.9766 196.863C38.9469 191.165 27.7199 182.143 19.4024 170.873Z" fill="#F7DAC1"/>
<path d="M126.361 63.8435C126.361 63.8435 131.674 62.3873 133.856 63.8435C136.006 65.2997 135.532 74.7649 128.227 76.1894L126.361 63.8435Z" fill="#F5C9AA"/>
<path d="M127.689 81.824C130.978 79.703 132.78 79.5447 133.761 81.2225C134.741 82.9003 138.947 89.5798 127.942 95.9427C116.936 102.306 122.565 92.0173 122.565 92.0173L127.689 81.824Z" fill="#F5C9AA"/>
<path d="M125.758 101.23C125.758 101.23 130.027 99.7736 132.241 100.977C134.455 102.179 135.815 110.98 127.56 113.702C119.338 116.425 122.753 107.973 122.753 107.973L125.758 101.23Z" fill="#F5C9AA"/>
<path d="M127.118 118.387C127.118 118.387 130.122 117.817 130.976 119.305C131.83 120.793 131.166 124.687 127.972 127.599C124.777 130.511 124.43 122.566 124.43 122.566L127.118 118.387Z" fill="#F5C9AA"/>
<path d="M66.3028 101.134C66.3028 101.134 65.0694 110.125 60.2623 114.24C55.4553 118.355 45.3351 129.688 44.1966 133.487L52.7671 131.683L63.2667 122.281L70.4141 110.631L66.3028 101.134Z" fill="#D8A988"/>
<path d="M62.0311 144.028C62.0311 144.028 63.3593 148.84 63.6123 153.652C63.8653 158.464 59.3745 174.26 59.3745 174.26C59.3745 174.26 69.1468 157.482 69.0203 146.403C68.8938 135.323 62.0311 144.028 62.0311 144.028Z" fill="#D8A988"/>
<path d="M128.288 61.3109V40.0696C128.288 35.2262 124.367 31.3008 119.528 31.3008H74.2088C69.3702 31.3008 65.4486 35.2262 65.4486 40.0696V48.9016C65.164 49.0283 65.0059 49.3132 65.0059 49.6297V53.1119C65.0059 53.4285 65.1956 53.7134 65.4486 53.84V57.5754C65.164 57.7021 65.0059 57.987 65.0059 58.3035V66.1226C65.0059 66.4392 65.1956 66.7241 65.4486 66.8507V69.5098C65.164 69.6365 65.0059 69.9214 65.0059 70.2379V78.057C65.0059 78.3736 65.1956 78.6585 65.4486 78.7851V150.138C65.4486 154.982 69.3702 158.907 74.2088 158.907H119.528C124.367 158.907 128.288 154.982 128.288 150.138V75.9044C128.573 75.7778 128.731 75.4929 128.731 75.1763V62.0073C128.731 61.6908 128.541 61.4375 128.288 61.3109Z" fill="#0B080F"/>
<path d="M125.758 150.138C125.758 153.588 122.975 156.374 119.528 156.374H74.2087C70.7615 156.374 67.9785 153.588 67.9785 150.138V40.0693C67.9785 36.6188 70.7615 33.833 74.2087 33.833H82.2732L82.969 36.1439C83.3801 37.5051 84.6451 38.4548 86.0682 38.4548H107.637C109.06 38.4548 110.325 37.5051 110.736 36.1439L111.432 33.833H119.496C122.943 33.833 125.726 36.6188 125.726 40.0693V150.138H125.758Z" fill="white"/>
<path d="M40.4654 135.608C40.4654 135.608 61.2749 115.158 69.0864 114.24C76.9295 113.322 96.6953 111.77 97.486 119.716C98.2766 127.662 86.4171 132.03 74.4627 133.138C74.4627 133.138 63.8366 141.527 63.7417 148.143C63.6152 154.76 47.6443 149.948 47.6443 149.948L40.4654 135.608Z" fill="#F7DAC1"/>
<path d="M180.408 195.162C179.873 189.946 179.578 185.267 179.669 181.69C180.24 162.976 186.076 126.356 186.649 110.819C187.223 95.2825 171.163 85.1101 171.163 85.1101L151.175 103.454L120.572 131.557C120.572 131.557 126.342 152.638 125.488 166.272C124.617 179.938 128.254 183.318 131.901 194.482C132.753 197.139 133.413 200.304 133.939 203.642C150.007 204.941 166.057 201.954 180.408 195.162Z" fill="#F7DAC1"/>
<path d="M170.984 100.366C170.984 100.366 167.393 110.005 169.986 116.693C172.579 123.381 176.606 140.126 175.705 144.53L168.114 138.131L162.673 123.111L161.785 107.644L170.984 100.366Z" fill="#D8A988"/>
<path d="M152.24 145.491C152.24 145.491 148.333 149.583 145.499 154.252C142.666 158.921 138.677 177.104 138.677 177.104C138.677 177.104 137.918 155.108 143.988 144.113C150.057 133.117 152.24 145.491 152.24 145.491Z" fill="#D8A988"/>
<rect x="74.8066" y="63.2012" width="109.425" height="70.5099" rx="7.706" transform="rotate(7.37788 74.8066 63.2012)" fill="white"/>
<g opacity="0.2">
<rect x="74.8066" y="63.2012" width="109.425" height="70.5099" rx="7.706" transform="rotate(7.37788 74.8066 63.2012)" fill="url(#paint5_linear_5916_29905)"/>
</g>
<rect opacity="0.5" x="81.1738" y="85.0283" width="31.9157" height="38.4625" transform="rotate(7.37788 81.1738 85.0283)" fill="white"/>
<mask id="mask1_5916_29905" style="mask-type:alpha" maskUnits="userSpaceOnUse" x="76" y="85" width="37" height="43">
<rect x="81.1738" y="85.0278" width="31.9157" height="38.4625" transform="rotate(7.37788 81.1738 85.0278)" fill="#C4C4C4"/>
</mask>
<g mask="url(#mask1_5916_29905)">
<path d="M72.9671 119.724L90.3948 116.41L95.7565 117.063L111.921 125.098L111.585 127.695L72.5887 122.645L72.9671 119.724Z" fill="#3C1DAA"/>
<path d="M106.556 106.95C106.851 107.854 107.182 108.805 107.508 109.796C108.463 112.932 105.611 112.975 105.611 112.975C105.611 112.975 106.565 115.162 105.178 116.632C103.751 118.098 101.913 116.993 101.913 116.993C101.913 116.993 101.27 117.818 99.5097 117.714C96.9728 117.55 96.0085 116.394 96.0085 116.394L93.3175 115.509C92.9666 115.67 92.0304 116.209 89.8835 116.22C87.9448 116.216 86.5341 115.002 86.5341 115.002C85.8738 116.278 82.2269 115.765 81.8051 113.606C81.408 111.574 82.3247 110.867 82.4216 110.756C80.8084 111.744 77.9719 108.158 80.8361 105.476C82.0082 104.39 82.6498 103.896 83.0533 103.329C81.7533 103.491 80.3298 101.738 80.8684 100.447C81.5813 98.7648 82.9934 99.6491 84.2878 97.2998C86.0119 94.1811 87.3764 93.2025 87.4681 93.1319C89.7454 91.1575 93.1861 90.0764 96.969 90.8138C100.189 91.4371 102.063 93.5363 103.188 95.0436C104.131 96.3622 104.632 97.9124 104.727 99.41C104.725 99.7399 104.77 100.034 104.809 100.37C105.276 101.544 106.241 103.649 107.344 104.37C108.897 105.438 108.097 107.479 106.556 106.95Z" fill="#32324C"/>
<path d="M88.0608 103.194C88.0608 103.194 86.7485 101.539 85.4509 102.32C83.8835 103.272 84.8595 107.524 87.3874 107.439L88.0608 103.194Z" fill="#FFA378"/>
<path d="M87.2822 106.062C87.1582 105.427 86.7529 104.096 85.4062 103.344C85.4062 103.344 86.7238 104.958 86.6984 106.11C86.6774 106.273 86.7886 106.37 86.9509 106.391L86.9915 106.396C87.1996 106.382 87.3424 106.235 87.2822 106.062Z" fill="#F88968"/>
<path d="M100.721 104.833C100.721 104.833 102.412 103.567 103.468 104.653C104.741 105.973 102.714 109.836 100.291 109.11L100.721 104.833Z" fill="#FFA378"/>
<path d="M100.749 107.808C101.031 107.225 101.762 106.041 103.256 105.657C103.256 105.657 101.57 106.883 101.302 108.003C101.281 108.165 101.148 108.231 100.986 108.21L100.945 108.205C100.788 108.143 100.688 107.965 100.749 107.808Z" fill="#F88968"/>
<path d="M96.5575 113.125L96.1835 115.057L95.7413 117.517C95.7413 117.517 95.1335 118.387 92.9422 118.103C90.751 117.819 90.3481 117.107 90.3481 117.107L90.4088 116.001L90.5977 112.312L96.5627 113.084L96.5575 113.125Z" fill="#FFAF82"/>
<path d="M96.559 113.124L96.1851 115.056C95.1624 115.625 92.8384 116.686 90.3698 115.995L90.5586 112.306L96.5643 113.083L96.559 113.124Z" fill="#F88968"/>
<path d="M102.627 103.512C102.595 103.755 102.523 103.993 102.451 104.232C101.313 109.2 98.8998 115.407 93.3405 114.687C87.903 113.983 86.5352 107.658 86.4405 102.654C86.4472 102.283 86.454 101.913 86.4554 101.583C86.578 96.8126 90.766 93.1465 95.4784 93.7154L95.8842 93.768C99.3687 94.2604 101.996 96.9111 102.647 100.172C102.721 100.553 102.79 100.975 102.784 101.345C102.857 102.056 102.803 102.792 102.627 103.512Z" fill="#FFAF82"/>
<path d="M91.2275 104.181C90.73 104.199 90.2904 103.771 90.3128 103.279C90.2933 103.111 90.3601 102.914 90.457 102.802C89.7371 102.627 89.7949 102.18 89.7949 102.18C89.8904 102.399 90.7583 102.387 91.1288 102.394C91.1693 102.399 91.2099 102.405 91.2505 102.41L91.2911 102.415C91.7833 102.438 92.1418 102.855 92.1651 103.312C92.1073 103.759 91.7249 104.163 91.2275 104.181Z" fill="#32324C"/>
<path d="M93.6452 111.054C92.6871 110.806 92.0092 110.306 91.9687 110.301C91.8169 110.199 91.7973 110.031 91.8995 109.879C91.9964 109.768 92.1692 109.708 92.321 109.81C92.3969 109.861 94.1675 111.163 96.1865 110.228C96.3188 110.163 96.5164 110.23 96.5818 110.362C96.6472 110.494 96.5803 110.692 96.4481 110.757C95.3901 111.28 94.4463 111.241 93.6452 111.054Z" fill="#F88968"/>
<path d="M94.8931 107.462L93.7975 107.32C93.6757 107.305 93.6051 107.213 93.6208 107.091C93.6366 106.97 93.7283 106.899 93.85 106.915L94.9456 107.057C94.9862 107.062 94.9862 107.062 94.9862 107.062L94.9915 107.021L94.4981 103.822C94.4732 103.695 94.5702 103.583 94.6972 103.559C94.8241 103.534 94.9354 103.631 94.9602 103.758L95.4536 106.957C95.4732 107.125 95.4116 107.282 95.3146 107.393C95.1824 107.459 95.0554 107.483 94.8931 107.462Z" fill="#F88968"/>
<path d="M92.9415 100.237C92.9505 100.486 92.7161 100.703 92.4726 100.671C91.6152 100.602 89.8546 100.497 88.9222 101.326C88.9222 101.326 89.4059 99.8204 92.5372 99.8545C92.7453 99.8402 92.9272 100.029 92.9415 100.237Z" fill="#32324C"/>
<path d="M97.2944 100.718C97.2223 100.956 97.399 101.185 97.6424 101.217C98.4946 101.327 100.224 101.675 100.966 102.637C100.966 102.637 100.841 101.053 97.7934 100.37C97.5499 100.338 97.326 100.475 97.2944 100.718Z" fill="#32324C"/>
<path d="M97.7869 104.906C98.2634 105.05 98.7976 104.748 98.9012 104.266C98.9628 104.109 98.9485 103.901 98.8831 103.769C99.624 103.782 99.6818 103.336 99.6818 103.336C99.5338 103.523 98.6974 103.291 98.3375 103.203C98.2969 103.198 98.2563 103.193 98.2158 103.188L98.1752 103.182C97.6935 103.079 97.2404 103.391 97.1014 103.827C97.0031 104.268 97.2699 104.757 97.7869 104.906Z" fill="#32324C"/>
<path d="M101.977 101.199C99.9337 100.728 94.7522 98.3653 90.0733 95.9441C90.0733 95.9441 89.8682 101.034 86.6207 103.171C86.6207 103.171 86.6117 102.922 86.4861 102.617C86.4928 102.247 86.4996 101.876 86.501 101.547C86.5777 96.8117 90.7658 93.1456 95.4782 93.7145L95.8839 93.767C99.3685 94.2595 101.996 96.9102 102.646 100.171C102.721 100.552 102.79 100.974 102.783 101.344C102.824 101.35 102.499 101.308 101.977 101.199Z" fill="#32324C"/>
<path d="M102.63 103.511C102.599 103.755 102.527 103.993 102.454 104.231C101.852 103.782 101.854 102.173 101.94 101.194C101.962 100.702 102.045 100.383 102.045 100.383C102.045 100.383 102.107 100.225 102.645 100.213C102.719 100.594 102.788 101.015 102.782 101.386C102.86 102.056 102.806 102.792 102.63 103.511Z" fill="#32324C"/>
</g>
<g opacity="0.3">
<rect opacity="0.5" x="156.512" y="106.787" width="12.1584" height="14.6524" transform="rotate(7.37788 156.512 106.787)" fill="white"/>
<mask id="mask2_5916_29905" style="mask-type:alpha" maskUnits="userSpaceOnUse" x="154" y="106" width="15" height="17">
<rect x="156.512" y="106.788" width="12.1584" height="14.6524" transform="rotate(7.37788 156.512 106.788)" fill="#C4C4C4"/>
</mask>
<g mask="url(#mask2_5916_29905)">
<path d="M153.386 120.004L160.025 118.742L162.068 118.991L168.226 122.051L168.098 123.041L153.242 121.117L153.386 120.004Z" fill="#3C1DAA"/>
<path d="M166.179 115.136C166.292 115.481 166.418 115.843 166.542 116.22C166.906 117.415 165.819 117.431 165.819 117.431C165.819 117.431 166.183 118.264 165.655 118.825C165.111 119.383 164.411 118.962 164.411 118.962C164.411 118.962 164.166 119.276 163.495 119.237C162.529 119.174 162.161 118.734 162.161 118.734L161.136 118.397C161.003 118.458 160.646 118.663 159.828 118.667C159.089 118.666 158.552 118.204 158.552 118.204C158.301 118.69 156.911 118.494 156.751 117.672C156.599 116.898 156.948 116.629 156.985 116.586C156.371 116.962 155.29 115.597 156.381 114.575C156.828 114.161 157.072 113.973 157.226 113.757C156.731 113.818 156.189 113.151 156.394 112.659C156.665 112.018 157.203 112.355 157.696 111.46C158.353 110.272 158.873 109.899 158.908 109.872C159.775 109.12 161.086 108.708 162.527 108.989C163.754 109.226 164.468 110.026 164.896 110.6C165.256 111.103 165.446 111.693 165.483 112.264C165.482 112.389 165.499 112.502 165.514 112.629C165.692 113.077 166.059 113.879 166.48 114.153C167.071 114.56 166.766 115.338 166.179 115.136Z" fill="#32324C"/>
<path d="M159.14 113.702C159.14 113.702 158.64 113.071 158.145 113.369C157.548 113.732 157.92 115.352 158.883 115.319L159.14 113.702Z" fill="#FFA378"/>
<path d="M158.842 114.797C158.794 114.555 158.64 114.048 158.127 113.762C158.127 113.762 158.629 114.377 158.619 114.816C158.611 114.878 158.654 114.914 158.715 114.922L158.731 114.924C158.81 114.919 158.865 114.863 158.842 114.797Z" fill="#F88968"/>
<path d="M163.961 114.327C163.961 114.327 164.605 113.845 165.007 114.258C165.492 114.761 164.72 116.233 163.797 115.956L163.961 114.327Z" fill="#FFA378"/>
<path d="M163.969 115.463C164.076 115.241 164.355 114.79 164.924 114.643C164.924 114.643 164.282 115.11 164.179 115.537C164.171 115.599 164.121 115.624 164.059 115.616L164.044 115.614C163.984 115.59 163.945 115.522 163.969 115.463Z" fill="#F88968"/>
<path d="M162.37 117.489L162.228 118.225L162.059 119.162C162.059 119.162 161.828 119.493 160.993 119.385C160.158 119.277 160.005 119.006 160.005 119.006L160.028 118.584L160.1 117.179L162.372 117.473L162.37 117.489Z" fill="#FFAF82"/>
<path d="M162.37 117.489L162.227 118.225C161.838 118.442 160.952 118.846 160.012 118.583L160.084 117.177L162.372 117.473L162.37 117.489Z" fill="#F88968"/>
<path d="M164.684 113.827C164.672 113.919 164.645 114.01 164.617 114.101C164.183 115.994 163.264 118.358 161.146 118.084C159.075 117.816 158.554 115.406 158.518 113.5C158.52 113.358 158.523 113.217 158.524 113.092C158.57 111.274 160.166 109.878 161.961 110.095L162.115 110.115C163.443 110.302 164.444 111.312 164.692 112.554C164.72 112.699 164.746 112.86 164.744 113.001C164.772 113.272 164.751 113.552 164.684 113.827Z" fill="#FFAF82"/>
<path d="M160.337 114.079C160.147 114.086 159.98 113.923 159.988 113.735C159.981 113.672 160.006 113.596 160.043 113.554C159.769 113.487 159.791 113.317 159.791 113.317C159.827 113.4 160.158 113.396 160.299 113.398C160.315 113.4 160.33 113.402 160.346 113.404L160.361 113.406C160.548 113.415 160.685 113.574 160.694 113.748C160.672 113.918 160.526 114.072 160.337 114.079Z" fill="#32324C"/>
<path d="M161.262 116.7C160.897 116.605 160.639 116.415 160.623 116.413C160.566 116.374 160.558 116.31 160.597 116.252C160.634 116.21 160.7 116.187 160.758 116.226C160.787 116.245 161.461 116.741 162.23 116.385C162.281 116.36 162.356 116.386 162.381 116.436C162.406 116.486 162.38 116.562 162.33 116.587C161.927 116.786 161.567 116.771 161.262 116.7Z" fill="#F88968"/>
<path d="M161.738 115.33L161.32 115.276C161.274 115.27 161.247 115.235 161.253 115.189C161.259 115.143 161.294 115.116 161.34 115.122L161.758 115.176C161.773 115.178 161.773 115.178 161.773 115.178L161.775 115.162L161.587 113.943C161.578 113.895 161.615 113.853 161.663 113.843C161.711 113.834 161.754 113.871 161.763 113.919L161.951 115.138C161.959 115.202 161.935 115.262 161.898 115.304C161.848 115.329 161.799 115.338 161.738 115.33Z" fill="#F88968"/>
<path d="M160.993 112.578C160.997 112.673 160.908 112.756 160.815 112.744C160.488 112.717 159.817 112.678 159.462 112.993C159.462 112.993 159.647 112.42 160.839 112.433C160.919 112.427 160.988 112.499 160.993 112.578Z" fill="#32324C"/>
<path d="M162.652 112.761C162.624 112.852 162.692 112.939 162.784 112.951C163.109 112.993 163.768 113.126 164.05 113.492C164.05 113.492 164.003 112.889 162.842 112.629C162.749 112.617 162.664 112.669 162.652 112.761Z" fill="#32324C"/>
<path d="M162.84 114.356C163.021 114.411 163.225 114.296 163.264 114.112C163.288 114.053 163.282 113.973 163.257 113.923C163.539 113.928 163.561 113.758 163.561 113.758C163.505 113.829 163.186 113.741 163.049 113.707C163.034 113.705 163.018 113.703 163.003 113.701L162.987 113.699C162.804 113.66 162.631 113.779 162.578 113.945C162.541 114.113 162.643 114.299 162.84 114.356Z" fill="#32324C"/>
<path d="M164.436 112.946C163.657 112.767 161.683 111.867 159.901 110.944C159.901 110.944 159.823 112.883 158.586 113.697C158.586 113.697 158.582 113.603 158.534 113.486C158.537 113.345 158.539 113.204 158.54 113.079C158.569 111.275 160.165 109.878 161.96 110.095L162.114 110.115C163.442 110.302 164.443 111.312 164.691 112.555C164.719 112.7 164.745 112.86 164.743 113.002C164.758 113.004 164.635 112.987 164.436 112.946Z" fill="#32324C"/>
<path d="M164.683 113.826C164.671 113.919 164.643 114.01 164.616 114.1C164.386 113.929 164.387 113.316 164.42 112.943C164.428 112.756 164.46 112.634 164.46 112.634C164.46 112.634 164.483 112.574 164.688 112.569C164.716 112.715 164.743 112.875 164.74 113.016C164.77 113.272 164.75 113.552 164.683 113.826Z" fill="#32324C"/>
</g>
</g>
<rect x="108.76" y="79.0884" width="11.3985" height="3.94562" transform="rotate(7.37788 108.76 79.0884)" fill="#824EF1"/>
<rect x="109.266" y="75.1763" width="11.3985" height="3.94562" transform="rotate(7.37788 109.266 75.1763)" fill="white"/>
<rect x="109.266" y="75.1763" width="4.82243" height="3.94562" transform="rotate(7.37788 109.266 75.1763)" fill="#1C0D68"/>
<path d="M111.604 75.9226L111.809 77.0183L112.915 77.1615L111.936 77.6955L112.142 78.7912L111.331 78.0256L110.353 78.5596L110.831 77.5524L110.02 76.7867L111.126 76.9299L111.604 75.9226Z" fill="white"/>
<path fill-rule="evenodd" clip-rule="evenodd" d="M159.611 130.188L170.162 131.555L169.789 134.432L166.867 134.054C166.787 132.93 165.926 131.981 164.766 131.831C163.606 131.681 162.532 132.379 162.168 133.445L159.239 133.066L159.611 130.188ZM162.043 134.405L159.115 134.025L158.743 136.903L169.293 138.269L169.666 135.392L166.743 135.013C166.379 136.079 165.305 136.777 164.145 136.627C162.985 136.477 162.124 135.528 162.043 134.405Z" fill="#1C0D68"/>
<circle cx="164.456" cy="134.228" r="1.45071" transform="rotate(7.37788 164.456 134.228)" fill="#1C0D68"/>
<path d="M170.862 83.8861C171.084 83.4561 171.723 83.5387 171.828 84.0111L172.322 86.2229C172.368 86.4292 172.535 86.5869 172.743 86.6212L174.98 86.9891C175.457 87.0676 175.576 87.7 175.159 87.9463L173.208 89.0994C173.026 89.207 172.928 89.4144 172.96 89.6234L173.301 91.8638C173.374 92.3423 172.809 92.6505 172.446 92.3303L170.746 90.8312C170.588 90.6914 170.36 90.6619 170.171 90.7568L168.146 91.7736C167.713 91.9907 167.246 91.5488 167.438 91.1046L168.339 89.0251C168.423 88.831 168.38 88.6054 168.232 88.455L166.639 86.8431C166.299 86.4988 166.574 85.9174 167.056 85.9631L169.312 86.1769C169.523 86.1969 169.724 86.0869 169.821 85.8991L170.862 83.8861Z" fill="#824EF1"/>
<path d="M83.3019 75.2846C82.9106 75.2339 82.6371 75.054 82.4813 74.7447C82.3286 74.4359 82.2869 74.014 82.3562 73.4791C82.4254 72.9441 82.5732 72.5468 82.7996 72.287C83.029 72.0277 83.3393 71.9233 83.7306 71.974C83.8773 71.993 84.0016 72.0293 84.1035 72.0829C84.2053 72.1365 84.2901 72.2018 84.3578 72.279C84.4255 72.3561 84.4798 72.4409 84.5207 72.5332C84.562 72.6224 84.5969 72.7125 84.6256 72.8032L84.2759 72.9118C84.2575 72.8379 84.2339 72.768 84.2051 72.7021C84.1767 72.6332 84.1395 72.5724 84.0935 72.5198C84.0509 72.4646 83.9963 72.4187 83.9295 72.382C83.8658 72.3458 83.7851 72.3214 83.6872 72.3087C83.4335 72.2759 83.2315 72.3476 83.0813 72.524C82.9341 72.7007 82.8397 72.9496 82.7981 73.2705L82.7304 73.7933C82.6889 74.1142 82.7167 74.3789 82.8141 74.5874C82.9145 74.7962 83.0915 74.917 83.3453 74.9499C83.4431 74.9625 83.5274 74.9595 83.5982 74.9407C83.6721 74.9222 83.7364 74.8933 83.7913 74.8538C83.8496 74.8116 83.901 74.7623 83.9456 74.7059C83.9906 74.6465 84.0314 74.5834 84.0681 74.5166L84.3786 74.7107C84.3274 74.7942 84.2704 74.8738 84.2078 74.9496C84.1451 75.0255 84.0712 75.092 83.9861 75.1494C83.901 75.2067 83.8024 75.2484 83.6902 75.2743C83.5781 75.3001 83.4486 75.3036 83.3019 75.2846ZM84.9901 75.4472L85.4045 72.2467L87.3762 72.502L87.3328 72.8367L85.7463 72.6313L85.6068 73.7088L87.1383 73.9071L87.0949 74.2419L85.5634 74.0436L85.4186 75.1624L87.0051 75.3678L86.9618 75.7025L84.9901 75.4472ZM86.4563 72.1171L86.2321 71.9762L86.7228 71.2472L87.0367 71.451L86.4563 72.1171ZM88.1768 72.6056L89.071 72.7214C89.4622 72.7721 89.7368 72.9444 89.8945 73.2383C90.0523 73.5323 90.0969 73.9437 90.0284 74.4725C89.9599 75.0014 89.812 75.3878 89.5846 75.6319C89.3572 75.8759 89.0478 75.9726 88.6565 75.922L87.7624 75.8062L88.1768 72.6056ZM88.6815 75.5849C88.9383 75.6181 89.1424 75.5544 89.2937 75.3937C89.4481 75.2335 89.5463 74.9913 89.5883 74.6673L89.6524 74.1721C89.6943 73.848 89.6611 73.5889 89.5526 73.3945C89.4472 73.2006 89.266 73.087 89.0093 73.0538L88.5186 72.9902L88.1909 75.5213L88.6815 75.5849ZM91.2426 73.0026L90.9938 74.9239C90.9736 75.0798 90.9602 75.2195 90.9536 75.3429C90.9469 75.4664 90.9577 75.575 90.986 75.6688C91.0146 75.7595 91.0672 75.8332 91.1438 75.8897C91.2235 75.9467 91.3382 75.9848 91.488 76.0042C91.6378 76.0236 91.7569 76.0157 91.8454 75.9806C91.9369 75.9458 92.0081 75.8882 92.0589 75.8077C92.1101 75.7242 92.1483 75.6219 92.1733 75.5008C92.1983 75.3798 92.2209 75.2413 92.241 75.0854L92.4898 73.1641L92.875 73.214L92.6381 75.0435C92.6072 75.282 92.5681 75.4883 92.5207 75.6624C92.4763 75.8369 92.4097 75.979 92.3209 76.0888C92.2352 76.1989 92.1211 76.2758 91.9787 76.3195C91.8397 76.3606 91.6617 76.3671 91.4447 76.3389C91.2276 76.3108 91.0556 76.259 90.9286 76.1835C90.8051 76.1054 90.7144 76.002 90.6564 75.8732C90.6016 75.7449 90.5734 75.5905 90.5719 75.4101C90.5735 75.23 90.5897 75.0207 90.6205 74.7823L90.8574 72.9527L91.2426 73.0026ZM93.3758 76.5331L93.7903 73.3325L94.1754 73.3824L93.8043 76.2482L95.3221 76.4447L95.2787 76.7795L93.3758 76.5331ZM97.7805 77.1034L97.6282 76.1559L96.5047 76.0104L96.1161 76.8879L95.7171 76.8362L97.1128 73.7627L97.6218 73.8286L98.1886 77.1562L97.7805 77.1034ZM97.3305 74.2058L97.2892 74.2005L96.6398 75.6876L97.5798 75.8093L97.3305 74.2058ZM101.924 74.3857L102.818 74.5015C103.209 74.5521 103.484 74.7244 103.642 75.0184C103.799 75.3123 103.844 75.7237 103.775 76.2525C103.707 76.7814 103.559 77.1678 103.332 77.4119C103.104 77.656 102.795 77.7527 102.404 77.702L101.509 77.5862L101.924 74.3857ZM102.429 77.3649C102.685 77.3982 102.889 77.3344 103.041 77.1738C103.195 77.0135 103.293 76.7713 103.335 76.4473L103.399 75.9521C103.441 75.6281 103.408 75.3689 103.3 75.1746C103.194 74.9806 103.013 74.8671 102.756 74.8338L102.266 74.7703L101.938 77.3014L102.429 77.3649ZM104.236 77.9393L104.65 74.7387L106.622 74.994L106.579 75.3287L104.992 75.1233L104.853 76.2009L106.384 76.3992L106.341 76.7339L104.809 76.5356L104.664 77.6544L106.251 77.8598L106.208 78.1946L104.236 77.9393ZM81.5711 80.0463L81.6109 79.739L82.4087 79.8424L82.7436 77.2562L81.9457 77.1529L81.9855 76.8457L83.9664 77.1022L83.9266 77.4094L83.1287 77.3061L82.7939 79.8922L83.5917 79.9955L83.5519 80.3028L81.5711 80.0463ZM84.7854 77.2082L85.6795 77.324C86.0708 77.3747 86.3453 77.547 86.503 77.8409C86.6608 78.1349 86.7054 78.5463 86.6369 79.0751C86.5685 79.6039 86.4205 79.9904 86.1931 80.2345C85.9657 80.4785 85.6563 80.5752 85.2651 80.5246L84.3709 80.4088L84.7854 77.2082ZM85.2901 80.1875C85.5468 80.2207 85.7509 80.157 85.9023 79.9963C86.0567 79.8361 86.1548 79.5939 86.1968 79.2699L86.2609 78.7747C86.3029 78.4506 86.2696 78.1915 86.1611 77.9971C86.0557 77.8032 85.8746 77.6896 85.6178 77.6564L85.1272 77.5928L84.7994 80.1239L85.2901 80.1875ZM87.0974 80.7618L87.5118 77.5613L89.4835 77.8166L89.4402 78.1513L87.8537 77.9459L87.7141 79.0234L89.2456 79.2217L89.2023 79.5565L87.6708 79.3582L87.5259 80.477L89.1124 80.6824L89.0691 81.0171L87.0974 80.7618ZM90.5324 78.4513L90.5003 78.4471L90.1494 81.157L89.801 81.1119L90.2154 77.9114L90.761 77.982L91.505 80.8057L91.5371 80.8099L91.8844 78.1275L92.2329 78.1726L91.8185 81.3731L91.2728 81.3025L90.5324 78.4513ZM94.1228 78.7576L93.7517 81.6235L93.3665 81.5736L93.7376 78.7078L92.6692 78.5694L92.7126 78.2347L95.2345 78.5613L95.1912 78.896L94.1228 78.7576ZM95.3181 81.8263L95.3579 81.5191L96.1557 81.6224L96.4906 79.0363L95.6927 78.933L95.7325 78.6257L97.7134 78.8822L97.6736 79.1894L96.8758 79.0861L96.5409 81.6723L97.3387 81.7756L97.299 82.0828L95.3181 81.8263ZM98.5324 78.9883L99.4265 79.1041C99.8178 79.1547 100.092 79.327 100.25 79.621C100.408 79.9149 100.452 80.3263 100.384 80.8551C100.315 81.384 100.168 81.7704 99.9401 82.0145C99.7127 82.2586 99.4034 82.3553 99.0121 82.3046L98.1179 82.1888L98.5324 78.9883ZM99.0371 81.9675C99.2939 82.0008 99.4979 81.937 99.6493 81.7764C99.8037 81.6161 99.9018 81.3739 99.9438 81.0499L100.008 80.5547C100.05 80.2307 100.017 79.9715 99.9081 79.7772C99.8027 79.5832 99.6216 79.4697 99.3648 79.4364L98.8742 79.3729L98.5464 81.904L99.0371 81.9675ZM102.637 82.774L102.485 81.8265L101.361 81.681L100.973 82.5585L100.574 82.5068L101.97 79.4333L102.479 79.4992L103.045 82.8269L102.637 82.774ZM102.187 79.8765L102.146 79.8711L101.497 81.3582L102.437 81.4799L102.187 79.8765ZM104.031 79.7003L104.925 79.8161C105.317 79.8667 105.591 80.039 105.749 80.333C105.907 80.6269 105.951 81.0383 105.883 81.5671C105.814 82.096 105.666 82.4824 105.439 82.7265C105.212 82.9706 104.902 83.0673 104.511 83.0166L103.617 82.9008L104.031 79.7003ZM104.536 82.6795C104.793 82.7128 104.997 82.6491 105.148 82.4884C105.302 82.3281 105.401 82.0859 105.443 81.7619L105.507 81.2667C105.549 80.9427 105.515 80.6835 105.407 80.4892C105.302 80.2953 105.12 80.1817 104.864 80.1484L104.373 80.0849L104.045 82.616L104.536 82.6795Z" fill="#1C0D68"/>
<path d="M178.291 148.65C178.291 148.65 168.481 117.067 161.173 111.96C153.833 106.837 134.928 94.6853 129.876 102.195C124.825 109.706 134.324 120.429 145.667 127.948C145.667 127.948 151.778 142.025 148.324 148.682C144.901 155.357 163.43 159.119 163.43 159.119L178.291 148.65Z" fill="#F7DAC1"/>
</g>
<defs>
<linearGradient id="paint0_linear_5916_29905" x1="37.9047" y1="187.123" x2="189.128" y2="33.3125" gradientUnits="userSpaceOnUse">
<stop offset="0.0416667" stop-color="#47BAD8"/>
<stop offset="0.34375" stop-color="#6A6CE9"/>
<stop offset="0.609375" stop-color="#9454E6"/>
<stop offset="1" stop-color="#CE57D3"/>
</linearGradient>
<linearGradient id="paint1_linear_5916_29905" x1="31.812" y1="193.519" x2="195.282" y2="27.2521" gradientUnits="userSpaceOnUse">
<stop offset="0.0416667" stop-color="#47BAD8"/>
<stop offset="0.34375" stop-color="#6A6CE9"/>
<stop offset="0.609375" stop-color="#9454E6"/>
<stop offset="1" stop-color="#CE57D3"/>
</linearGradient>
<linearGradient id="paint2_linear_5916_29905" x1="179.124" y1="172.2" x2="76.0635" y2="72.0908" gradientUnits="userSpaceOnUse">
<stop offset="0.01" stop-color="#FF55AA"/>
<stop offset="0.25" stop-color="#B850C9"/>
<stop offset="0.62" stop-color="#6572D6"/>
<stop offset="1" stop-color="#4EAEB8"/>
</linearGradient>
<linearGradient id="paint3_linear_5916_29905" x1="43.3575" y1="181.209" x2="183.614" y2="38.5525" gradientUnits="userSpaceOnUse">
<stop offset="0.0416667" stop-color="#47BAD8"/>
<stop offset="0.34375" stop-color="#6A6CE9"/>
<stop offset="0.609375" stop-color="#9454E6"/>
<stop offset="1" stop-color="#CE57D3"/>
</linearGradient>
<linearGradient id="paint4_linear_5916_29905" x1="43.3575" y1="181.397" x2="183.614" y2="38.7405" gradientUnits="userSpaceOnUse">
<stop offset="0.0416667" stop-color="#47BAD8"/>
<stop offset="0.34375" stop-color="#6A6CE9"/>
<stop offset="0.609375" stop-color="#9454E6"/>
<stop offset="1" stop-color="#CE57D3"/>
</linearGradient>
<linearGradient id="paint5_linear_5916_29905" x1="74.8066" y1="133.711" x2="192.646" y2="82.6001" gradientUnits="userSpaceOnUse">
<stop stop-color="#1C0D68"/>
<stop offset="0.489583" stop-color="#3C1DAA"/>
<stop offset="1" stop-color="#824EF1"/>
</linearGradient>
<clipPath id="clip0_5916_29905">
<rect width="160.309" height="172.21" fill="white" transform="matrix(-1 0 0 1 193.299 16.0015)"/>
</clipPath>
</defs>
</svg>
