<svg width="235" height="213" viewBox="0 0 235 213" fill="none" xmlns="http://www.w3.org/2000/svg">
<ellipse cx="113.056" cy="200.211" rx="71.0541" ry="2.80016" fill="#C4C4C4"/>
<path opacity="0.1" d="M7.37805 113.15C7.37805 160.728 45.9095 199.296 93.4398 199.296C140.97 199.296 179.502 160.728 179.502 113.15C179.502 65.5729 140.97 27.0043 93.4398 27.0043C45.9095 27.0043 7.37805 65.5729 7.37805 113.15Z" stroke="url(#paint0_linear_6417_29508)" stroke-width="0.754778"/>
<path opacity="0.05" d="M0.407806 113.151C0.407806 164.581 42.0598 206.273 93.4394 206.273C144.819 206.273 186.471 164.581 186.471 113.151C186.471 61.7201 144.819 20.0281 93.4394 20.0281C42.0598 20.0281 0.407806 61.7201 0.407806 113.151Z" stroke="url(#paint1_linear_6417_29508)" stroke-width="0.815905"/>
<g clip-path="url(#clip0_6417_29508)">
<path d="M93.437 193.211C49.1601 193.211 13.2666 157.283 13.2666 112.963C13.2666 68.6428 49.1601 32.7144 93.437 32.7144C137.714 32.7144 173.607 68.6428 173.607 112.963C173.607 157.283 137.714 193.211 93.437 193.211Z" fill="white"/>
<path opacity="0.1" d="M93.437 193.211C49.1601 193.211 13.2666 157.283 13.2666 112.963C13.2666 68.6428 49.1601 32.7144 93.437 32.7144C137.714 32.7144 173.607 68.6428 173.607 112.963C173.607 157.283 137.714 193.211 93.437 193.211Z" fill="url(#paint2_linear_6417_29508)"/>
<path opacity="0.1" d="M13.6166 112.963C13.6166 157.09 49.3538 192.861 93.437 192.861C137.52 192.861 173.257 157.09 173.257 112.963C173.257 68.8358 137.52 33.0644 93.437 33.0644C49.3538 33.0644 13.6166 68.8358 13.6166 112.963Z" stroke="url(#paint3_linear_6417_29508)" stroke-width="0.70004"/>
<path opacity="0.1" d="M13.6166 113.151C13.6166 157.278 49.3538 193.049 93.437 193.049C137.52 193.049 173.257 157.278 173.257 113.151C173.257 69.0238 137.52 33.2524 93.437 33.2524C49.3538 33.2524 13.6166 69.0238 13.6166 113.151Z" stroke="url(#paint4_linear_6417_29508)" stroke-width="0.70004"/>
</g>
<path d="M196.998 197.061L173.279 194.426L179.679 129.294L196.998 128.165V197.061Z" fill="#E9E9E9"/>
<path d="M196.621 197.061H209.422L205.968 128.918L196.621 128.165V197.061Z" fill="#D0D0D0"/>
<path d="M110.031 87.5049L108.525 92.7756L106.643 92.3991L108.901 87.5049H110.031Z" fill="#C4C4C4"/>
<path d="M196.621 141.342V136.448L178.55 138.33L178.174 143.601L196.621 141.342Z" fill="#C0C0C0"/>
<path d="M106.643 92.3994L108.149 92.0229L192.977 132.335L200.387 140.213H198.997L106.643 92.3994Z" fill="#A5A5A5"/>
<path d="M107.771 92.1693L200.386 140.212L204.904 136.824L110.09 87.5049L107.771 92.1693Z" fill="white"/>
<path d="M116.429 90.8936L110.029 93.1524L119.441 98.4232L125.089 95.4113L116.429 90.8936Z" fill="#F83939"/>
<path d="M134.125 99.9287L127.725 102.564L137.137 107.458L142.784 104.446L134.125 99.9287Z" fill="#F83939"/>
<path d="M151.82 109.341L145.42 111.976L154.832 116.87L160.479 113.859L151.82 109.341Z" fill="#F83939"/>
<path d="M170.642 119.13L164.242 121.765L173.654 126.66L179.301 123.648L170.642 119.13Z" fill="#F83939"/>
<path d="M188.717 128.165L182.316 130.8L191.728 135.695L197.376 132.683L188.717 128.165Z" fill="#F83939"/>
<ellipse cx="200.763" cy="137.201" rx="1.12945" ry="1.50593" transform="rotate(30.2744 200.763 137.201)" fill="#C4C4C4"/>
<mask id="mask0_6417_29508" style="mask-type:alpha" maskUnits="userSpaceOnUse" x="13" y="32" width="222" height="182">
<path d="M93.4692 192.699C49.1923 192.699 13.2988 156.771 13.2988 112.451C13.2988 68.1306 49.1923 32.2021 93.4692 32.2021C137.746 32.2021 173.64 68.1306 173.64 112.451C173.64 156.771 137.746 192.699 93.4692 192.699Z" fill="#C4C4C4"/>
<path d="M109.936 204.6L60.9015 204.062L57.346 184.111L41.3321 167.148L50.0826 139.146L69.3337 109.744L137.938 115.695L191.841 126.545L234.193 165.398L191.841 213L109.936 204.6Z" fill="#C4C4C4"/>
</mask>
<g mask="url(#mask0_6417_29508)">
<path d="M37.1127 159.995C36.9988 159.694 36.8441 159.442 36.6568 159.246C34.9065 157.48 34.5076 162.592 34.3285 163.83C34.0517 165.792 33.9947 167.786 34.0354 169.765C34.0517 170.717 34.8821 174.845 34.361 175.529C36.0625 173.249 36.3719 168.845 37.0395 166.101C37.5361 164.074 38.1385 160.142 36.3719 158.554C35.9648 158.188 35.3298 158.009 34.8576 158.286C34.4425 158.522 34.2552 159.018 34.1412 159.474C33.2946 162.698 34.1331 166.126 33.7912 169.447C33.5388 171.865 32.6758 174.332 33.3597 176.66C33.783 176.343 34.0354 175.813 34.0273 175.284L37.1127 159.995Z" fill="#111111"/>
<path d="M66.7299 160.655C66.7299 160.655 63.2781 161.518 59.8182 167.656C59.8182 167.656 59.2401 155.705 62.6594 155.705C62.6594 155.705 65.3378 155.534 66.7299 160.655Z" fill="#070208"/>
<path d="M120.028 195.002C125.842 195.002 130.555 188.536 130.555 180.56C130.555 172.584 125.842 166.118 120.028 166.118C114.215 166.118 109.502 172.584 109.502 180.56C109.502 188.536 114.215 195.002 120.028 195.002Z" fill="#1C0D68"/>
<path d="M109.82 180.51C109.82 186.917 112.238 192.119 115.218 192.119C118.198 192.119 120.615 186.925 120.615 180.51C120.615 174.103 118.198 168.901 115.218 168.901C112.238 168.901 109.82 174.103 109.82 180.51Z" fill="#1C0D68"/>
<path d="M34.1289 175.846C34.1289 187.765 37.8087 197.42 42.3433 197.42C46.8779 197.42 50.5577 187.757 50.5577 175.846C50.5577 163.928 46.8779 154.272 42.3433 154.272C37.8087 154.272 34.1289 163.928 34.1289 175.846Z" fill="#3C1DAA"/>
<path d="M35.6699 176.31C35.6699 184.28 37.119 190.744 38.9019 190.744C40.6848 190.744 42.134 184.28 42.134 176.31C42.134 168.34 40.6848 161.876 38.9019 161.876C37.119 161.868 35.6699 168.332 35.6699 176.31Z" fill="#5F36CE"/>
<path d="M35.873 176.782C35.873 182.131 36.8418 186.462 38.0386 186.462C39.2353 186.462 40.2041 182.131 40.2041 176.782C40.2041 171.434 39.2353 167.103 38.0386 167.103C36.8418 167.103 35.873 171.442 35.873 176.782Z" fill="#F3F5F4"/>
<path d="M153.016 180.356C153.016 181.585 153.097 182.798 153.244 183.97C153.447 185.558 153.789 187.08 154.245 188.521C155.254 191.721 156.834 194.489 158.82 196.605C161.352 199.308 164.543 200.912 167.995 200.912C175.786 200.912 182.185 192.754 182.91 182.334C182.959 181.683 182.975 181.023 182.975 180.356C182.975 180.014 182.967 179.672 182.959 179.338C182.568 168.461 176.022 159.799 167.995 159.799C167.336 159.799 166.693 159.856 166.058 159.97C165.976 159.987 165.903 160.003 165.822 160.011C165.17 160.141 164.527 160.328 163.908 160.573C163.689 160.662 163.469 160.752 163.249 160.85C157.306 163.577 153.016 171.286 153.016 180.356Z" fill="#1C0D68"/>
<path d="M155.408 181.21C155.408 190.825 159.438 198.624 164.42 198.624C169.395 198.624 173.433 190.825 173.433 181.21C173.433 171.596 169.403 163.796 164.42 163.796C159.438 163.796 155.408 171.596 155.408 181.21Z" fill="#3C1DAA"/>
<path d="M157.541 182.253C157.541 188.766 159.886 194.05 162.776 194.05C165.666 194.05 168.01 188.766 168.01 182.253C168.01 175.741 165.666 170.457 162.776 170.457C159.878 170.457 157.541 175.741 157.541 182.253Z" fill="#B6CEC4"/>
<path d="M57.0664 180.086C57.0664 181.202 57.1234 182.293 57.2374 183.351C57.2699 183.693 57.3106 184.01 57.3513 184.295C57.4409 184.914 57.5386 185.525 57.6607 186.127C58.5318 190.426 60.3228 194.114 62.6756 196.702C64.9307 199.177 67.7068 200.635 70.7109 200.635C76.4259 200.635 81.3187 195.351 83.354 187.845C84.0053 185.451 84.3635 182.822 84.3635 180.078C84.3635 175.763 83.4843 171.758 81.97 168.453C79.5114 163.063 75.3839 159.522 70.7109 159.522C69.9375 159.522 69.1885 159.62 68.4477 159.799C67.8371 159.953 67.2428 160.165 66.6648 160.434C66.5671 160.483 66.4694 160.523 66.3717 160.572C65.1587 161.183 64.0271 162.038 62.9931 163.104C61.8697 164.268 60.8602 165.677 60.0135 167.28C59.8751 167.541 59.7448 167.81 59.6146 168.078V168.086C58.0108 171.481 57.0664 175.617 57.0664 180.086Z" fill="#3C1DAA"/>
<path d="M59.1484 179.981C59.1484 188.049 62.1118 194.595 65.7672 194.595C69.4225 194.595 72.3859 188.049 72.3859 179.981C72.3859 171.914 69.4225 165.368 65.7672 165.368C62.1118 165.368 59.1484 171.914 59.1484 179.981Z" fill="#5F36CE"/>
<path d="M59.9961 179.949C59.9961 186.372 62.357 191.582 65.2634 191.582C68.1698 191.582 70.5307 186.372 70.5307 179.949C70.5307 173.525 68.1698 168.315 65.2634 168.315C62.357 168.315 59.9961 173.525 59.9961 179.949Z" fill="#F3F5F4"/>
<path d="M146.926 118.956C146.649 118.728 146.372 118.492 146.104 118.272C146.372 118.5 146.649 118.728 146.926 118.956Z" fill="white"/>
<path d="M146.926 118.956C146.649 118.728 146.372 118.492 146.104 118.272C146.372 118.5 146.649 118.728 146.926 118.956Z" stroke="black" stroke-width="0.325644" stroke-miterlimit="10"/>
<path d="M142.841 115.635C142.516 115.383 142.198 115.13 141.889 114.894C142.19 115.138 142.516 115.383 142.841 115.635Z" fill="white"/>
<path d="M142.841 115.635C142.516 115.383 142.198 115.13 141.889 114.894C142.19 115.138 142.516 115.383 142.841 115.635Z" stroke="black" stroke-width="0.325644" stroke-miterlimit="10"/>
<path d="M141.88 114.893C141.555 114.641 141.237 114.405 140.928 114.168C141.237 114.405 141.555 114.649 141.88 114.893Z" fill="white"/>
<path d="M141.88 114.893C141.555 114.641 141.237 114.405 140.928 114.168C141.237 114.405 141.555 114.649 141.88 114.893Z" stroke="black" stroke-width="0.325644" stroke-miterlimit="10"/>
<path d="M140.658 113.974C140.398 113.778 140.137 113.591 139.885 113.412C140.137 113.591 140.39 113.778 140.658 113.974Z" fill="white"/>
<path d="M140.658 113.974C140.398 113.778 140.137 113.591 139.885 113.412C140.137 113.591 140.39 113.778 140.658 113.974Z" stroke="black" stroke-width="0.325644" stroke-miterlimit="10"/>
<path d="M139.7 113.282C139.269 112.973 138.861 112.696 138.471 112.443C138.861 112.696 139.269 112.981 139.7 113.282Z" fill="white"/>
<path d="M139.7 113.282C139.269 112.973 138.861 112.696 138.471 112.443C138.861 112.696 139.269 112.981 139.7 113.282Z" stroke="black" stroke-width="0.325644" stroke-miterlimit="10"/>
<path d="M138.468 112.443C138.354 112.37 138.248 112.297 138.143 112.231C138.248 112.305 138.362 112.378 138.468 112.443Z" fill="white"/>
<path d="M138.468 112.443C138.354 112.37 138.248 112.297 138.143 112.231C138.248 112.305 138.362 112.378 138.468 112.443Z" stroke="black" stroke-width="0.325644" stroke-miterlimit="10"/>
<path d="M44.752 128.758C44.8008 128.611 44.8578 128.473 44.9148 128.326C44.8578 128.473 44.8089 128.611 44.752 128.758Z" fill="white"/>
<path d="M44.752 128.758C44.8008 128.611 44.8578 128.473 44.9148 128.326C44.8578 128.473 44.8089 128.611 44.752 128.758Z" stroke="black" stroke-width="0.325644" stroke-miterlimit="10"/>
<path d="M44.9082 128.327C44.9408 128.246 44.9733 128.156 45.0059 128.075C44.9733 128.156 44.9408 128.246 44.9082 128.327Z" fill="white"/>
<path d="M44.9082 128.327C44.9408 128.246 44.9733 128.156 45.0059 128.075C44.9733 128.156 44.9408 128.246 44.9082 128.327Z" stroke="black" stroke-width="0.325644" stroke-miterlimit="10"/>
<path d="M45.0117 128.073C45.036 128.016 45.0522 127.959 45.0765 127.902C45.0522 127.959 45.0279 128.016 45.0117 128.073Z" fill="white"/>
<path d="M45.0117 128.073C45.036 128.016 45.0522 127.959 45.0765 127.902C45.0522 127.959 45.0279 128.016 45.0117 128.073Z" stroke="black" stroke-width="0.325644" stroke-miterlimit="10"/>
<path d="M46.4501 124.785C45.9697 125.746 45.5057 126.796 45.0742 127.895C47.1502 122.571 50.2031 118.59 50.2031 118.59C50.2601 118.508 50.3252 118.435 50.3822 118.354C50.3252 118.427 50.2601 118.508 50.2031 118.59C50.195 118.59 48.2818 121.097 46.4501 124.785Z" fill="white"/>
<path d="M46.4501 124.785C45.9697 125.746 45.5057 126.796 45.0742 127.895C47.1502 122.571 50.2031 118.59 50.2031 118.59C50.2601 118.508 50.3252 118.435 50.3822 118.354C50.3252 118.427 50.2601 118.508 50.2031 118.59C50.195 118.59 48.2818 121.097 46.4501 124.785Z" stroke="black" stroke-width="0.325644" stroke-miterlimit="10"/>
<path d="M70.0745 107.9C70.0583 107.9 69.9934 107.892 69.9043 107.892C70.0096 107.9 70.0664 107.9 70.0664 107.9C70.0745 107.9 70.0745 107.9 70.0745 107.9Z" fill="white"/>
<path d="M70.0745 107.9C70.0583 107.9 69.9934 107.892 69.9043 107.892C70.0096 107.9 70.0664 107.9 70.0664 107.9C70.0745 107.9 70.0745 107.9 70.0745 107.9Z" stroke="black" stroke-width="0.325644" stroke-miterlimit="10"/>
<path d="M68.649 107.909H68.6406C68.649 107.909 68.649 107.909 68.649 107.909Z" stroke="black" stroke-width="0.325644" stroke-miterlimit="10"/>
<path d="M68.6504 107.908C69.2528 107.876 69.6843 107.884 69.9041 107.892C69.6925 107.884 69.261 107.876 68.6504 107.908Z" fill="white"/>
<path d="M68.6504 107.908C69.2528 107.876 69.6843 107.884 69.9041 107.892C69.6925 107.884 69.261 107.876 68.6504 107.908Z" stroke="black" stroke-width="0.325644" stroke-miterlimit="10"/>
<path d="M68.6422 107.909C68.5936 107.909 68.5369 107.917 68.4883 107.917C68.5369 107.917 68.5936 107.909 68.6422 107.909Z" fill="white"/>
<path d="M68.6422 107.909C68.5936 107.909 68.5369 107.917 68.4883 107.917C68.5369 107.917 68.5936 107.909 68.6422 107.909Z" stroke="black" stroke-width="0.325644" stroke-miterlimit="10"/>
<path d="M62.6758 196.703C64.9309 199.178 67.707 200.636 70.7111 200.636C76.4261 200.636 81.3189 195.352 83.3542 187.846C85.0231 187.895 86.8467 187.944 88.8087 187.992C88.4342 180.959 86.4315 173.859 81.9702 168.446C81.9295 168.397 81.8888 168.348 81.8481 168.299C78.437 164.229 73.5767 160.785 68.456 159.8C67.8454 159.954 67.2511 160.166 66.6731 160.435C66.5754 160.484 66.4777 160.524 66.38 160.573C65.167 161.184 64.0353 162.039 63.0014 163.105C63.0096 163.138 63.0259 163.178 63.034 163.211C63.3189 164.139 63.5713 165.067 63.8074 166.003C64.0109 166.817 64.1982 167.64 64.3691 168.47C65.802 175.447 65.9729 182.693 64.825 189.726C64.7355 190.296 64.6296 190.874 64.5075 191.452C64.3284 192.299 64.1168 193.146 63.8481 193.96C63.5387 194.921 63.1561 195.849 62.6758 196.703Z" fill="#1C0D68"/>
<path d="M32.5785 174.307C32.8797 175.789 33.3926 177.124 34.1741 178.191C34.1741 178.191 34.109 176.97 34.052 175.154C34.0357 174.649 34.0194 174.096 34.0113 173.51C33.8892 167.713 33.9706 158.636 35.7291 158.937C35.8268 158.953 35.9326 159.002 36.0466 159.084C36.0466 159.084 36.3478 159.36 36.7711 159.987C36.8525 160.109 36.9421 160.24 37.0316 160.386C37.1863 160.638 37.3491 160.932 37.5201 161.265C37.6911 161.599 37.862 161.974 38.033 162.397C38.6761 163.993 39.2704 166.215 39.4821 169.203C39.4903 169.349 39.4984 169.496 39.5147 169.651V169.659C39.5554 170.465 39.5717 171.328 39.5554 172.24C39.5554 172.24 39.5228 174.079 39.7833 176.351C39.8566 177.01 39.9624 177.702 40.1008 178.402C40.1253 178.524 40.1497 178.638 40.1741 178.761C40.2067 178.899 40.2311 179.029 40.2637 179.168C40.5323 180.348 40.9068 181.488 41.4278 182.44C41.5418 182.644 41.6558 182.839 41.7779 183.018C41.9082 183.214 42.0466 183.401 42.1931 183.564C42.7386 184.191 43.3898 184.622 44.1795 184.777L49.7318 185.33L57.6693 186.128H57.7019C57.7019 186.128 57.5309 185.51 57.3681 184.402C57.36 184.37 57.36 184.329 57.3518 184.297C57.3111 184.012 57.2704 183.694 57.2379 183.352C57.2297 183.263 57.2216 183.181 57.2134 183.092C57.2134 183.075 57.2134 183.051 57.2053 183.035C57.189 182.896 57.1809 182.766 57.1727 182.628C56.9122 179.298 57.0913 173.949 59.6232 168.112V168.104C59.6883 167.957 59.7535 167.811 59.8186 167.664C59.8186 167.664 59.8186 167.656 59.8186 167.64V167.632C59.8186 167.558 59.8267 167.314 59.843 166.948C59.9407 164.652 60.3885 157.472 62.3098 156.12C62.4563 156.022 62.6028 155.949 62.7657 155.917C63.3925 155.795 64.1578 156.242 65.0859 157.537C65.3952 157.968 65.4359 158.221 65.9488 159.466C65.957 159.482 65.9651 159.499 65.9733 159.523C66.1035 159.841 66.2419 160.191 66.3885 160.573C66.4047 160.63 66.4292 160.679 66.4536 160.736C66.5676 161.037 66.6815 161.355 66.8036 161.697C66.8851 161.933 66.9746 162.185 67.056 162.438C67.4387 163.586 67.8376 164.904 68.2121 166.378C68.4726 167.387 68.7168 168.47 68.9448 169.618C69.0343 170.09 69.1239 170.571 69.2053 171.067C69.3111 171.686 69.4088 172.321 69.4984 172.972C69.5228 173.16 69.5472 173.355 69.5716 173.542C69.8403 175.724 70.0031 178.052 69.9868 180.511C69.9868 180.942 69.9787 181.382 69.9624 181.822C69.9624 181.936 69.9543 182.058 69.9543 182.172L69.9787 182.261C69.9868 182.31 70.0031 182.375 70.0275 182.457C70.0845 182.676 70.1822 183.01 70.3125 183.409C70.3532 183.523 70.3857 183.645 70.4346 183.767L70.4427 183.8C70.6137 184.272 70.8254 184.809 71.0859 185.339C71.2731 185.721 71.4848 186.096 71.7127 186.454C71.9651 186.837 72.2419 187.203 72.5513 187.504C72.5513 187.504 76.687 187.651 83.3708 187.838C83.5825 187.846 83.7941 187.846 84.0058 187.854C84.0221 187.854 84.0465 187.854 84.0628 187.854C84.1523 187.854 84.25 187.862 84.3396 187.862C84.5513 187.87 84.7629 187.87 84.9827 187.879C85.3165 187.887 85.6503 187.895 85.9922 187.903C86.1062 187.903 86.2202 187.911 86.3342 187.911C86.3993 187.911 86.4644 187.911 86.5295 187.919C86.7738 187.927 87.018 187.936 87.2704 187.936C87.2785 187.936 87.2948 187.936 87.3029 187.936C87.3274 187.936 87.3518 187.936 87.3844 187.936C87.8484 187.944 88.3206 187.96 88.8009 187.976C88.8091 187.976 88.8172 187.976 88.8253 187.976H88.8335C89.3382 187.993 89.843 188.001 90.364 188.017C90.4047 188.017 90.4373 188.017 90.478 188.017C90.7059 188.025 90.9257 188.025 91.1537 188.033C97.0234 188.188 103.911 188.335 111.238 188.457C111.262 188.457 111.287 188.457 111.303 188.457C113.859 188.497 116.464 188.538 119.094 188.571C122.277 188.611 125.509 188.636 128.741 188.652C137.525 188.701 146.318 188.668 154.255 188.497C154.923 188.481 155.582 188.465 156.234 188.448C156.934 188.432 157.634 188.408 158.318 188.392C159.458 188.359 160.573 188.318 161.664 188.278C163.642 188.204 165.539 188.123 167.338 188.025C169.276 187.919 171.107 187.797 172.793 187.659C173.696 187.586 174.559 187.504 175.382 187.423C175.715 187.39 176.049 187.358 176.367 187.317C176.635 187.284 176.904 187.26 177.164 187.227C177.555 187.178 177.93 187.13 178.304 187.081C179.273 186.951 180.152 186.804 180.934 186.657C180.934 186.657 182.204 184.638 182.92 182.302C182.985 182.082 183.05 181.862 183.107 181.634C183.311 180.853 183.433 180.063 183.409 179.314C183.409 179.2 183.401 179.094 183.392 178.989C183.392 178.989 183.327 160.28 178.605 152.676C178.605 152.676 178.662 151.154 178.206 149.078C178.206 149.078 178.206 149.078 178.206 149.07C177.987 148.044 177.637 146.888 177.099 145.716C177.091 145.708 177.091 145.7 177.083 145.683C176.603 144.641 175.968 143.583 175.145 142.598C175.088 142.525 175.023 142.459 174.966 142.386C174.942 142.354 174.909 142.321 174.877 142.288C174.861 142.264 174.836 142.24 174.82 142.223C174.771 142.166 174.722 142.109 174.665 142.06C174.657 142.052 174.657 142.044 174.649 142.044C174.641 142.036 174.633 142.028 174.624 142.02C174.592 141.987 174.551 141.947 174.519 141.914C174.502 141.898 174.486 141.881 174.47 141.865C174.445 141.841 174.421 141.816 174.388 141.792C174.356 141.759 174.323 141.719 174.282 141.686C174.217 141.629 174.16 141.564 174.095 141.507C174.055 141.474 174.022 141.434 173.981 141.401C173.957 141.377 173.932 141.352 173.9 141.328C173.875 141.312 173.851 141.287 173.835 141.271C173.737 141.181 173.631 141.1 173.534 141.01C173.517 140.994 173.501 140.986 173.485 140.97C173.444 140.937 173.411 140.913 173.371 140.88C173.273 140.807 173.175 140.725 173.078 140.652C173.037 140.62 172.996 140.587 172.955 140.563C172.939 140.546 172.915 140.53 172.898 140.522C172.874 140.506 172.858 140.489 172.833 140.481C172.801 140.457 172.768 140.44 172.744 140.416C172.736 140.408 172.728 140.4 172.711 140.392C172.703 140.383 172.695 140.375 172.687 140.375L172.679 140.367C172.622 140.326 172.573 140.294 172.516 140.253C172.467 140.221 172.426 140.196 172.377 140.164C172.32 140.123 172.263 140.09 172.198 140.05C172.182 140.042 172.166 140.033 172.158 140.025C172.117 140.001 172.084 139.976 172.044 139.96C172.027 139.952 172.003 139.936 171.987 139.928C171.946 139.903 171.905 139.879 171.873 139.854C171.856 139.846 171.848 139.838 171.832 139.83C171.799 139.814 171.767 139.789 171.734 139.773L171.726 139.765L171.645 139.716C171.637 139.708 171.62 139.708 171.612 139.7C171.563 139.667 171.506 139.643 171.449 139.61C171.433 139.602 171.417 139.594 171.401 139.586C171.392 139.577 171.376 139.577 171.36 139.569C171.352 139.569 171.344 139.561 171.344 139.561C171.254 139.512 171.156 139.463 171.067 139.415C171.026 139.39 170.985 139.374 170.945 139.35C170.831 139.293 170.709 139.236 170.586 139.187C170.538 139.162 170.497 139.146 170.448 139.13C170.44 139.122 170.432 139.122 170.424 139.122C170.35 139.089 170.269 139.056 170.188 139.024C170.139 138.999 170.09 138.983 170.041 138.967C170.033 138.967 170.033 138.959 170.025 138.959C169.943 138.926 169.862 138.894 169.78 138.861C169.699 138.828 169.609 138.796 169.528 138.771C169.357 138.706 169.178 138.649 168.999 138.592C168.909 138.56 168.82 138.535 168.73 138.511C168.73 138.511 168.551 138.34 168.217 138.031C168.103 137.925 167.981 137.803 167.835 137.672C167.761 137.607 167.688 137.534 167.607 137.461C167.55 137.412 167.501 137.363 167.444 137.306C167.387 137.249 167.33 137.2 167.273 137.143C166.605 136.516 165.742 135.71 164.717 134.758C164.212 134.286 163.666 133.789 163.088 133.26C163.056 133.227 163.023 133.203 162.991 133.17C162.909 133.089 162.82 133.016 162.73 132.934C162.616 132.828 162.502 132.723 162.388 132.617C161.704 131.99 160.988 131.331 160.239 130.647C160.166 130.582 160.093 130.508 160.019 130.443C159.856 130.297 159.694 130.142 159.523 129.995C159.303 129.8 159.083 129.596 158.863 129.393C158.147 128.742 157.406 128.074 156.649 127.398C156.502 127.268 156.348 127.13 156.201 126.999C156.038 126.853 155.867 126.706 155.704 126.552C155.542 126.405 155.379 126.259 155.216 126.112C154.768 125.713 154.321 125.314 153.865 124.915C153.734 124.793 153.596 124.679 153.466 124.557C152.961 124.118 152.456 123.67 151.951 123.23C151.878 123.165 151.813 123.108 151.74 123.043C151.642 122.953 151.544 122.872 151.447 122.791C151.373 122.725 151.308 122.668 151.235 122.603C150.95 122.351 150.665 122.107 150.372 121.854C150.242 121.74 150.112 121.634 149.989 121.52C149.216 120.853 148.443 120.193 147.686 119.558C147.604 119.485 147.523 119.42 147.441 119.347C147.278 119.208 147.116 119.07 146.953 118.94C146.896 118.891 146.831 118.842 146.774 118.793C146.725 118.753 146.684 118.72 146.635 118.679C146.619 118.671 146.611 118.655 146.595 118.647C146.586 118.639 146.578 118.63 146.562 118.622C146.554 118.614 146.546 118.606 146.529 118.598C146.505 118.582 146.481 118.557 146.456 118.541C146.44 118.525 146.424 118.508 146.399 118.492C146.302 118.411 146.204 118.329 146.114 118.256C145.544 117.784 144.991 117.328 144.445 116.888C144.331 116.791 144.209 116.701 144.095 116.611C144.022 116.546 143.941 116.489 143.867 116.424C143.794 116.367 143.713 116.302 143.639 116.245C143.371 116.033 143.11 115.822 142.85 115.618C142.825 115.602 142.801 115.586 142.785 115.569C142.76 115.553 142.736 115.537 142.719 115.52C142.687 115.496 142.646 115.464 142.614 115.439C142.475 115.333 142.345 115.227 142.207 115.122C142.182 115.105 142.158 115.081 142.133 115.065C142.101 115.04 142.076 115.016 142.044 114.991C142.036 114.983 142.027 114.975 142.019 114.967C141.979 114.934 141.938 114.91 141.905 114.877C141.824 114.812 141.742 114.755 141.661 114.69C141.58 114.633 141.498 114.568 141.417 114.511C141.254 114.389 141.099 114.275 140.945 114.161C140.92 114.145 140.896 114.128 140.871 114.112C140.806 114.063 140.741 114.014 140.676 113.966C140.611 113.917 140.546 113.868 140.481 113.819C140.415 113.77 140.35 113.721 140.285 113.681C140.22 113.632 140.155 113.591 140.098 113.542C140.09 113.534 140.082 113.526 140.074 113.526C140.017 113.485 139.968 113.445 139.911 113.412C139.846 113.371 139.789 113.322 139.723 113.282C139.667 113.241 139.618 113.208 139.561 113.168C139.528 113.143 139.496 113.127 139.471 113.103C139.447 113.086 139.43 113.07 139.406 113.054C139.382 113.037 139.357 113.021 139.325 112.997C139.3 112.98 139.276 112.964 139.243 112.94C139.194 112.907 139.137 112.867 139.089 112.834C139.015 112.785 138.934 112.728 138.861 112.679C138.836 112.663 138.812 112.647 138.787 112.63C138.771 112.614 138.747 112.606 138.73 112.59C138.698 112.565 138.673 112.549 138.641 112.533C138.592 112.5 138.543 112.468 138.494 112.435C138.478 112.427 138.462 112.419 138.445 112.402C138.437 112.394 138.429 112.394 138.429 112.386C138.421 112.378 138.405 112.37 138.397 112.362C138.364 112.337 138.331 112.321 138.299 112.297C138.291 112.288 138.283 112.288 138.274 112.28C138.242 112.256 138.209 112.24 138.177 112.215C137.11 111.54 136.255 111.1 135.669 110.97C135.669 110.97 128.074 110.017 115.943 109.154C109.08 108.666 100.776 108.21 91.5689 107.974C91.4386 107.974 91.3084 107.966 91.1781 107.966C90.3966 107.949 89.615 107.925 88.8172 107.909C88.0682 107.892 87.3192 107.876 86.5621 107.868C86.0167 107.86 85.4712 107.852 84.9257 107.843C84.8118 107.843 84.6978 107.843 84.5838 107.835C83.4278 107.819 82.2717 107.811 81.0913 107.803C80.8308 107.803 80.5703 107.803 80.3016 107.803C77.2568 107.819 74.1795 107.835 71.0452 107.884C70.7846 107.892 70.516 107.892 70.2555 107.9C70.1985 107.9 70.1415 107.9 70.0927 107.9C70.0927 107.9 70.0927 107.9 70.0845 107.9H70.0764C70.0764 107.9 70.0764 107.9 70.0682 107.9C70.0601 107.9 70.0357 107.9 70.0031 107.892H69.995C69.9868 107.892 69.9868 107.892 69.9787 107.892C69.9705 107.892 69.9624 107.892 69.9461 107.892C69.938 107.892 69.9217 107.892 69.9136 107.892C69.8891 107.892 69.8566 107.892 69.824 107.892C69.7914 107.892 69.7589 107.892 69.7263 107.892H69.7182C69.7019 107.892 69.6856 107.892 69.6612 107.892C69.653 107.892 69.6449 107.892 69.6449 107.892C69.5146 107.892 69.3681 107.892 69.1809 107.892C69.1239 107.892 69.0669 107.892 69.0017 107.9H68.9936C68.9855 107.9 68.9773 107.9 68.961 107.9C68.9448 107.9 68.9366 107.9 68.9203 107.9C68.8715 107.9 68.8226 107.9 68.7738 107.909C68.7575 107.909 68.7331 107.909 68.7168 107.909C68.7005 107.909 68.6761 107.909 68.6598 107.909C68.6435 107.909 68.6273 107.909 68.611 107.909C68.6028 107.909 68.5947 107.909 68.5866 107.909C68.5621 107.909 68.5377 107.909 68.5133 107.917C65.7616 108.088 59.7453 109.122 53.8512 114.56C53.6558 114.739 53.4604 114.926 53.265 115.122C52.2881 116.074 51.3193 117.149 50.3749 118.362C50.3586 118.378 50.3423 118.402 50.3261 118.419C50.3098 118.435 50.2935 118.459 50.2772 118.476C50.2609 118.492 50.2446 118.516 50.2365 118.533C50.2284 118.541 50.2202 118.549 50.2202 118.557C50.2121 118.565 50.2039 118.582 50.1958 118.59C50.1877 118.598 50.1795 118.606 50.1795 118.614C50.1714 118.622 50.1714 118.63 50.1632 118.63C50.1551 118.639 50.147 118.647 50.147 118.655C50.1388 118.671 50.1307 118.679 50.1144 118.696C50.1062 118.704 50.0981 118.712 50.09 118.72C50.0818 118.736 50.0655 118.753 50.0574 118.761C50.0493 118.769 50.0411 118.785 50.033 118.793C50.0248 118.801 50.0167 118.81 50.0086 118.826C50.0086 118.826 50.0086 118.834 50.0004 118.834C46.7196 123.214 44.2365 128.001 42.1768 132.991C42.128 133.113 42.071 133.244 42.0221 133.366C41.8837 133.708 41.7453 134.05 41.6151 134.392C41.5499 134.563 41.4848 134.734 41.4116 134.904C41.4034 134.921 41.4034 134.929 41.3953 134.945C41.3546 135.051 41.3139 135.157 41.2732 135.271C41.2487 135.32 41.2324 135.377 41.2162 135.425C41.1348 135.645 41.0533 135.857 40.9719 136.077C40.9068 136.248 40.8417 136.419 40.7765 136.59C40.5974 137.07 40.4265 137.542 40.2555 138.023C40.1497 138.324 40.0438 138.633 39.9299 138.934C39.8566 139.154 39.7752 139.374 39.7019 139.586C39.6856 139.618 39.6775 139.659 39.6612 139.691C39.6286 139.781 39.5961 139.871 39.5717 139.96C39.4495 140.318 39.3274 140.677 39.2135 141.043C39.1402 141.255 39.0669 141.474 39.0018 141.686C38.3749 143.607 37.7725 145.537 37.1782 147.466C37.0968 147.719 37.0235 147.971 36.9421 148.223C36.128 150.894 35.3301 153.556 34.4998 156.177C34.516 156.21 31.0886 167.046 32.5785 174.307Z" fill="#824EF1"/>
<path d="M43.828 131.828C43.6489 132.577 43.5023 133.334 43.3965 134.099C43.5023 133.334 43.6489 132.568 43.828 131.828Z" fill="white"/>
<path d="M43.828 131.828C43.6489 132.577 43.5023 133.334 43.3965 134.099C43.5023 133.334 43.6489 132.568 43.828 131.828Z" stroke="black" stroke-width="0.325644" stroke-miterlimit="10"/>
<path d="M43.3652 134.342C43.3734 134.261 43.3897 134.18 43.3978 134.098C43.3897 134.171 43.3734 134.245 43.3652 134.326C43.3652 134.326 43.3652 134.334 43.3652 134.342Z" fill="white"/>
<path d="M43.3652 134.342C43.3734 134.261 43.3897 134.18 43.3978 134.098C43.3897 134.171 43.3734 134.245 43.3652 134.326C43.3652 134.326 43.3652 134.334 43.3652 134.342Z" stroke="black" stroke-width="0.325644" stroke-miterlimit="10"/>
<path d="M158.861 129.14L163.168 133.178L164.666 134.513L165.708 135.442L167.352 134.888L166.945 132.698C166.017 131.159 164.959 130.207 163.917 129.637C161.328 128.22 158.861 129.14 158.861 129.14Z" fill="#1C0D68"/>
<path d="M56.9199 112.801C56.9199 112.801 67.7069 104.823 67.5034 113.656C67.5034 113.656 65.6065 136.63 61.8372 140.326C61.8372 140.326 45.848 137.192 43.5034 134.587C42.6486 133.659 50.0244 116.741 56.9199 112.801Z" fill="#3C1DAA"/>
<path d="M52.5 132.47C52.5 132.47 53.021 132.796 53.8107 133.203C55.6913 134.172 59.1187 135.588 60.926 134.212C61.1214 134.066 61.3168 133.854 61.5122 133.585C61.9925 132.934 62.4484 131.965 62.8636 130.834C62.8636 130.826 62.8718 130.817 62.8718 130.809C62.888 130.769 62.9043 130.72 62.9206 130.679C63.2463 129.8 63.5475 128.839 63.8161 127.854C64.0359 127.056 64.2476 126.25 64.4349 125.477C64.6791 124.451 64.8908 123.482 65.0617 122.652C65.2164 121.919 65.3304 121.301 65.4118 120.853C65.5013 120.389 65.542 120.12 65.542 120.12C65.542 120.12 65.7212 119.045 65.7944 117.678C65.9003 115.488 65.713 112.549 64.0034 112.101C64.0034 112.101 62.6031 111.832 61.846 111.995C61.6587 112.036 61.5041 112.101 61.4308 112.207C60.926 112.923 60.3887 113.721 59.8433 114.6C59.5746 115.032 59.2978 115.488 59.0292 115.96C58.614 116.668 58.1988 117.425 57.7836 118.215C57.3277 119.086 56.8718 120.006 56.4322 120.967C56.4322 120.967 56.4322 120.975 56.424 120.975C55.6587 122.636 54.926 124.435 54.2585 126.356C54.2178 126.462 54.1852 126.576 54.1445 126.682C53.5258 128.522 52.9722 130.443 52.5 132.47Z" fill="#D3E0DB"/>
<path d="M46.7109 130.313C46.7109 130.313 48.7381 131.078 50.2198 131.461C50.2686 131.477 50.3256 131.485 50.3744 131.501C51.0339 131.664 51.563 131.738 51.7096 131.615C51.8887 131.461 52.4586 129.743 53.2727 127.407C53.4192 126.991 53.5657 126.56 53.7286 126.104C53.753 126.031 53.7856 125.949 53.81 125.876C53.8832 125.656 53.9647 125.436 54.0461 125.217C54.3717 124.305 54.7218 123.352 55.0881 122.4C55.3161 121.805 55.5522 121.219 55.7883 120.633C56.7164 118.362 57.7258 116.237 58.7028 114.829C58.7028 114.829 58.947 114.462 58.9796 114.169C59.0121 113.917 58.89 113.713 58.3609 113.803C58.3609 113.803 58.3446 113.811 58.3201 113.827C58.0026 114.014 55.829 115.301 53.4111 117.824C53.118 118.134 52.8168 118.459 52.5155 118.81C52.3283 119.029 52.1411 119.249 51.9457 119.485C51.6689 119.819 51.4002 120.169 51.1316 120.535C51.1316 120.535 51.1316 120.544 51.1234 120.544C50.4233 121.496 49.7394 122.563 49.1207 123.735C48.8358 124.264 48.5671 124.81 48.3147 125.388C48.0461 126.006 47.7856 126.649 47.5576 127.317C47.2238 128.245 46.9389 129.246 46.7109 130.313Z" fill="#D3E0DB"/>
<path d="M134.104 112.264C131.434 111.735 88.5548 109.504 71.1654 110.782C70.4571 110.831 70.0501 111.661 70.0338 112.378C69.9361 116.847 69.8628 133.773 73.5101 132.364C73.5101 132.364 137.239 132.047 154.84 132.657C156.395 132.714 157.209 130.809 156.118 129.694C151.062 124.524 141 114.812 134.381 112.337C134.292 112.305 134.202 112.28 134.104 112.264Z" fill="#3C1DAA"/>
<path d="M72.3892 116.994C72.4299 122.497 72.9265 131.428 75.6538 130.484C75.6538 130.484 85.4068 130.443 98.0988 130.418C104.359 130.41 111.336 130.41 118.207 130.418C131.559 130.443 144.519 130.524 151.073 130.712C151.171 130.712 151.26 130.72 151.358 130.72C152.799 130.769 153.564 129.173 152.546 128.237C147.841 123.906 138.479 115.781 132.316 113.713C132.226 113.68 132.145 113.664 132.047 113.648C131.103 113.477 124.696 113.102 116.245 112.76C106.973 112.386 95.2331 112.052 85.5045 112.085C80.8722 112.101 76.6958 112.199 73.472 112.41C72.8125 112.451 72.438 113.143 72.4218 113.746C72.3892 114.494 72.3729 115.642 72.3892 116.994Z" fill="#D3E0DB"/>
<path d="M90.3574 188.042C114.83 188.677 157.912 189.402 176.36 187.35L176.539 186.975C176.539 186.975 177.052 185.6 176.336 184.167C175.66 182.815 175.074 180.927 174.585 180.617L174.488 180.577C173.975 180.471 172.941 162.691 164.311 160.737C164.311 160.737 155.828 157.366 150.04 155.762C147.638 155.095 145.701 154.737 145.033 155.046C142.737 156.104 121.603 155.184 121.603 155.184C121.603 155.184 120.488 155.339 118.713 155.673C112.998 156.764 100.485 159.8 96.9354 165.874C96.9354 165.874 91.7658 175.741 91.4483 180.984L90.3574 188.042Z" fill="#3C1DAA"/>
<path d="M75.4173 137.07L83.3386 137.412L84.1038 137.444L88.7931 137.648L91.154 137.754L165.442 140.986L167.168 141.059H167.225C167.322 141.051 167.566 141.092 167.908 141.149C167.957 141.157 168.006 141.165 168.063 141.181C169.382 141.425 171.906 142.003 173.884 142.402C174.014 142.427 174.144 142.451 174.267 142.476C174.576 142.533 174.869 142.59 175.138 142.638C175.081 142.565 175.016 142.5 174.959 142.427C174.91 142.37 174.861 142.313 174.812 142.264C174.763 142.207 174.714 142.15 174.657 142.101C174.649 142.093 174.649 142.085 174.641 142.085C174.641 142.085 174.641 142.077 174.633 142.077C174.625 142.068 174.625 142.06 174.617 142.06C174.584 142.028 174.543 141.987 174.511 141.955C174.495 141.938 174.478 141.922 174.462 141.906C174.405 141.849 174.34 141.784 174.283 141.727C174.218 141.67 174.161 141.604 174.096 141.547C174.03 141.49 173.965 141.433 173.9 141.376C173.778 141.271 173.656 141.165 173.526 141.059C173.509 141.043 173.493 141.035 173.477 141.018C173.436 140.986 173.404 140.961 173.363 140.929C173.265 140.855 173.168 140.774 173.07 140.701C173.029 140.668 172.988 140.636 172.948 140.611C172.931 140.595 172.907 140.579 172.891 140.571C172.866 140.554 172.85 140.538 172.826 140.53C172.793 140.505 172.76 140.489 172.736 140.465C172.728 140.457 172.72 140.448 172.703 140.44C172.695 140.432 172.679 140.424 172.671 140.416C172.614 140.375 172.565 140.343 172.508 140.302C172.459 140.269 172.419 140.245 172.37 140.212C172.313 140.172 172.256 140.139 172.191 140.098C172.174 140.09 172.158 140.082 172.15 140.074C172.109 140.049 172.077 140.025 172.036 140.009C172.02 140.001 171.995 139.984 171.979 139.976C171.938 139.952 171.897 139.927 171.865 139.903C171.849 139.895 171.841 139.887 171.824 139.879C171.792 139.862 171.759 139.838 171.727 139.822L171.718 139.813C171.678 139.789 171.645 139.773 171.604 139.748C171.556 139.716 171.499 139.691 171.442 139.659C171.425 139.651 171.409 139.642 171.393 139.634C171.385 139.626 171.368 139.618 171.352 139.618C171.254 139.569 171.157 139.512 171.051 139.463C171.01 139.439 170.969 139.423 170.929 139.398C170.815 139.341 170.693 139.284 170.57 139.235C170.522 139.211 170.481 139.195 170.432 139.178C170.424 139.17 170.416 139.17 170.408 139.17C170.334 139.138 170.253 139.105 170.172 139.073C170.123 139.048 170.074 139.032 170.025 139.016C170.017 139.016 170.017 139.007 170.009 139.007C169.927 138.975 169.846 138.942 169.765 138.91C169.683 138.877 169.594 138.845 169.512 138.82C169.341 138.755 169.162 138.698 168.983 138.641C168.893 138.617 168.804 138.584 168.714 138.56C168.714 138.56 168.535 138.389 168.201 138.071C168.087 137.965 167.965 137.843 167.819 137.713C167.746 137.648 167.672 137.575 167.591 137.501C167.534 137.452 167.485 137.404 167.428 137.347C167.371 137.298 167.314 137.241 167.257 137.184C166.59 136.557 165.727 135.751 164.701 134.798C164.196 134.326 163.651 133.83 163.073 133.301C162.893 133.187 162.796 133.121 162.796 133.121L91.1459 132.462L88.785 132.438L84.633 132.405L84.0143 132.397H83.8596L82.15 132.381L77.8189 132.34L72.5842 132.291H72.3969C71.4851 134.277 75.4173 137.07 75.4173 137.07Z" fill="#936DFC"/>
<path d="M90.3574 188.041C114.83 188.676 157.912 189.401 176.36 187.349L176.539 186.975C176.539 186.975 177.052 185.599 176.336 184.166C175.66 182.814 175.074 180.926 174.585 180.616L174.488 180.576L169.929 181.903C165.711 183.132 161.356 183.808 156.968 183.897C148.631 184.076 140.295 184.239 131.958 184.386C123.256 184.54 114.268 184.483 105.589 183.971C100.908 183.694 96.0481 182.017 91.4402 180.983L90.8215 184.785L90.3574 188.041Z" fill="#1C0D68"/>
<path d="M114.736 168.063C114.736 169.162 115.095 170.179 115.705 170.993C115.852 171.189 116.014 171.376 116.185 171.547C117.081 172.443 118.31 172.996 119.67 172.996H150.223C152.951 172.996 155.157 170.79 155.157 168.063C155.157 166.703 154.603 165.466 153.716 164.578C153.455 164.318 153.17 164.09 152.861 163.894C152.096 163.414 151.2 163.137 150.232 163.137H119.678C116.951 163.129 114.736 165.335 114.736 168.063Z" fill="#1C0D68"/>
<path d="M114.736 168.063C114.736 169.162 115.095 170.179 115.705 170.993C116.47 171.474 117.366 171.759 118.343 171.759H148.896C151.624 171.759 153.83 169.552 153.83 166.825C153.83 165.726 153.472 164.708 152.861 163.894C152.096 163.414 151.2 163.137 150.232 163.137H119.678C116.951 163.129 114.736 165.335 114.736 168.063Z" fill="#936DFC"/>
<path d="M39.0098 141.71C39.3843 142.166 39.8727 142.606 40.5077 143.013C42.1685 144.087 44.1712 144.69 46.0762 145.121C54.6081 147.059 63.9704 145.398 72.3313 143.46C72.3313 143.46 72.8198 141.108 73.6339 140.025C72.5185 141.515 65.68 140.595 64.2716 140.464C56.0654 139.732 49.2757 136.646 42.0383 133.374C40.9148 136.117 39.9297 138.901 39.0098 141.71Z" fill="#936DFC"/>
<path d="M69.479 172.972C69.8534 175.789 70.057 178.882 69.9267 182.163L69.9511 182.253C69.9918 182.432 70.1058 182.855 70.2849 183.409C70.3256 183.523 70.3663 183.645 70.407 183.767L70.4152 183.8C70.7001 184.614 71.1235 185.599 71.6852 186.454C71.9376 186.836 72.2144 187.203 72.5237 187.504C72.5237 187.504 76.6594 187.65 83.3433 187.846C83.5712 187.854 83.7992 187.862 84.0352 187.862C85.5169 187.903 87.1044 187.943 88.7978 187.992C88.7978 187.992 88.8059 187.992 88.8141 187.992C89.3188 188.009 89.8236 188.017 90.3446 188.033L91.4355 181.512C91.4518 181.26 91.4762 180.999 91.5088 180.722C90.9552 180.779 90.4016 180.812 89.8399 180.828C86.4939 180.934 83.1234 180.38 79.9973 179.175C75.7395 177.531 71.962 174.682 69.1777 171.067C69.2999 171.694 69.3894 172.329 69.479 172.972Z" fill="#5F36CE"/>
<path d="M173.354 175.48C173.858 177.808 174.127 179.746 174.314 180.617C174.379 180.926 174.436 181.097 174.485 181.105L174.583 181.146C175.079 181.455 175.657 183.352 176.333 184.696C176.813 185.664 176.675 186.535 176.529 186.991V186.999C176.455 187.211 176.39 187.341 176.39 187.341L177.155 187.26C177.546 187.211 177.921 187.162 178.295 187.113C179.264 186.983 180.143 186.837 180.925 186.69C180.925 186.69 182.195 184.671 182.911 182.335C182.976 182.115 183.041 181.895 183.098 181.667C183.302 180.885 183.424 180.096 183.4 179.347C183.253 179.347 183.107 179.347 182.96 179.339C181.592 179.265 180.225 178.826 179.093 178.077C176.496 176.351 174.99 173.363 174.192 170.343C174.184 170.782 174.151 171.222 174.102 171.662C173.964 172.842 173.695 174.039 173.419 175.227C173.394 175.309 173.378 175.398 173.354 175.48Z" fill="#5F36CE"/>
<path d="M90.3538 188.041L91.4447 181.512C91.461 181.26 91.4854 180.999 91.518 180.722C92.2344 175.341 96.9236 166.402 96.9236 166.402C101.58 158.448 121.591 155.713 121.591 155.713C121.591 155.713 142.725 156.633 145.021 155.574C147.317 154.516 164.299 161.265 164.299 161.265C169.754 162.494 172.18 170.057 173.352 175.479C174.036 178.638 174.297 181.064 174.484 181.105L174.582 181.146C175.078 181.455 175.656 183.352 176.332 184.695C177.048 186.136 176.389 187.333 176.389 187.333L177.154 187.26L178.278 187.146C178.278 187.146 178.286 187.137 178.294 187.113C178.367 186.91 178.717 185.786 177.805 183.962C177.586 183.531 177.374 183.01 177.162 182.505C176.715 181.422 176.381 180.633 175.892 180.112C175.835 179.81 175.762 179.379 175.689 178.98C175.371 177.148 174.907 174.454 174.101 171.653C172.603 166.483 169.925 160.931 164.796 159.694C162.81 158.912 149.808 153.816 145.746 153.816C145.184 153.816 144.72 153.905 144.329 154.085C144.191 154.133 143.019 154.443 136.905 154.443C130.213 154.443 121.738 154.076 121.656 154.076L121.51 154.068L121.363 154.085C120.517 154.199 100.506 157.032 95.499 165.572C95.2547 166.036 90.4678 175.219 89.8409 180.836C89.8246 181.007 89.8083 181.17 89.792 181.333L88.807 188L88.7988 188.057L90.3538 188.041Z" fill="#1C0D68"/>
<path d="M72.3322 144.177C72.9428 147.173 73.3499 151.513 76.5575 152.555C80.7827 153.939 86.0907 154.053 90.5032 154.46C108.902 156.153 103.773 154.557 107.078 153.312C107.078 153.312 101.893 148.956 94.3295 145.122C92.5385 144.21 90.4299 143.445 87.9469 142.932C87.9469 142.932 81.8818 141.141 78.8451 139.838C77.0052 139.049 74.856 139.39 73.415 140.783C72.9265 141.255 72.5358 141.833 72.3567 142.525C72.2345 143.021 72.2101 143.567 72.3322 144.177Z" fill="#1C0D68"/>
<path d="M118.709 155.673C119.979 155.852 120.997 156.088 121.591 156.397C124.742 158.042 135.089 168.853 145.501 156.658C145.501 156.658 147.496 156.243 150.036 155.762C147.634 155.095 145.697 154.737 145.029 155.046C142.733 156.104 121.599 155.184 121.599 155.184C121.599 155.184 120.476 155.331 118.709 155.673Z" fill="#1C0D68"/>
<path d="M162.307 146.627C162.307 146.627 142.834 147.474 141.287 146.961C141.287 146.961 134.505 140.489 125.045 146.855C125.045 146.855 99.0425 146.652 96.7305 146.236C96.7305 146.236 102.38 150.983 103.203 153.995C103.203 153.995 118.427 153.531 121.585 155.175C124.736 156.82 135.083 167.631 145.496 155.436C145.496 155.436 157.895 152.847 160.223 153.124C160.231 153.124 160.931 150.738 162.307 146.627Z" fill="#3C1DAA"/>
<path d="M160.11 154.061C162.414 154.069 164.718 154.077 167.014 154.093C169.716 154.101 173.25 154.736 175.871 154.093C180.707 152.913 177.043 145.944 175.106 143.656C174.161 142.541 172.965 141.523 171.45 140.709C170.042 139.952 168.275 140.416 167.404 141.759C166.598 143.005 165.532 144.535 164.473 145.683C164.465 145.683 164.465 145.683 164.465 145.683C164.123 146.058 163.773 146.4 163.44 146.668C162.292 147.588 161.331 148.712 160.606 149.99C159.613 151.74 155.933 153.312 155.404 153.605C156.161 153.597 159.353 154.061 160.11 154.061Z" fill="#1C0D68"/>
<path d="M157.855 153.002C158.604 153.002 159.353 153.01 160.102 153.01C160.159 153.01 160.208 153.01 160.265 153.01C162.219 153.018 164.173 153.026 166.127 153.034C166.42 153.034 166.713 153.034 167.006 153.034C169.709 153.043 173.242 153.678 175.864 153.034C177.419 152.652 178.094 151.675 178.233 150.454C178.281 150.03 178.265 149.583 178.2 149.119C178.2 149.119 178.2 149.119 178.2 149.11C178.045 148.02 177.622 146.839 177.093 145.756C177.085 145.748 177.085 145.74 177.077 145.724C176.898 145.349 176.702 144.991 176.507 144.649C176.043 143.835 175.546 143.135 175.131 142.63C175.123 142.614 175.106 142.598 175.09 142.589C175.017 142.5 174.944 142.418 174.862 142.329C174.781 142.239 174.708 142.158 174.626 142.068C174.585 142.028 174.545 141.987 174.504 141.938C174.463 141.897 174.423 141.857 174.382 141.816C174.3 141.735 174.211 141.653 174.121 141.564C174.073 141.515 174.024 141.474 173.975 141.433C173.926 141.393 173.877 141.344 173.828 141.303C173.731 141.214 173.625 141.132 173.527 141.043C173.511 141.026 173.495 141.018 173.478 141.002C173.438 140.969 173.405 140.945 173.364 140.912C173.267 140.839 173.169 140.758 173.071 140.684C173.03 140.652 172.99 140.619 172.949 140.595C172.933 140.579 172.908 140.562 172.892 140.554C172.868 140.538 172.851 140.522 172.827 140.513C172.794 140.489 172.762 140.473 172.737 140.448C172.729 140.44 172.721 140.432 172.705 140.424C172.697 140.416 172.689 140.408 172.68 140.408C172.575 140.334 172.477 140.269 172.371 140.196C172.314 140.155 172.257 140.123 172.192 140.082C172.176 140.074 172.159 140.066 172.151 140.058C172.111 140.033 172.078 140.009 172.037 139.992C172.021 139.984 171.997 139.968 171.98 139.96C171.94 139.935 171.899 139.911 171.866 139.887C171.85 139.878 171.842 139.87 171.826 139.862C171.793 139.846 171.76 139.821 171.728 139.805C171.695 139.789 171.663 139.773 171.63 139.748C171.622 139.74 171.606 139.74 171.598 139.732C171.549 139.699 171.492 139.675 171.435 139.642C171.419 139.634 171.402 139.626 171.386 139.618C171.378 139.61 171.362 139.602 171.345 139.602C171.337 139.602 171.329 139.594 171.329 139.594C169.937 138.91 168.244 139.39 167.389 140.701C167.315 140.823 167.234 140.937 167.153 141.067C166.697 141.759 166.176 142.516 165.622 143.233C165.239 143.729 164.849 144.21 164.458 144.633C164.45 144.633 164.45 144.633 164.45 144.633C164.108 145.015 163.758 145.349 163.424 145.618C163.017 145.944 162.626 146.302 162.268 146.676C161.617 147.36 161.055 148.117 160.591 148.94C160.135 149.745 159.63 150.608 159.158 151.333C159.134 151.374 159.109 151.406 159.085 151.447C159.052 151.496 159.02 151.545 158.995 151.585C158.539 152.302 158.116 152.855 157.855 153.002Z" fill="#D3E0DB"/>
<path d="M72.3291 143.469C72.9397 146.465 73.3467 150.804 76.5543 151.854C80.7796 153.238 86.0713 153.613 90.5 153.759C94.9207 153.906 99.3738 154.036 103.77 154.573C103.77 154.573 102.321 149.705 96.842 145.927C96.0848 145.398 95.2382 144.902 94.3182 144.429C92.5272 143.518 90.4186 142.752 87.9356 142.239C87.9356 142.239 81.8705 140.448 78.8338 139.146C76.9939 138.356 74.8447 138.698 73.4037 140.09C73.1758 140.31 72.9722 140.546 72.8013 140.807C72.5978 141.116 72.4431 141.458 72.3454 141.832C72.2314 142.305 72.207 142.858 72.3291 143.469Z" fill="#D3E0DB"/>
<path d="M39.7793 176.351C39.8688 177.124 39.991 177.946 40.1619 178.76C40.4876 180.332 40.9923 181.879 41.7657 183.018C42.3844 183.93 43.166 184.581 44.1674 184.777L49.7196 185.33L57.6572 186.128H57.6897C57.6897 186.128 57.5106 185.469 57.3397 184.296C57.2989 184.012 57.2582 183.694 57.2257 183.352C56.8919 180.112 56.8838 174.389 59.611 168.104V168.096C59.6762 167.949 59.7413 167.803 59.8064 167.656C59.8064 167.656 59.8064 167.648 59.8064 167.632C59.8064 167.558 59.8146 167.314 59.8308 166.948C57.6083 169.927 54.4333 172.199 50.9977 173.68C47.4645 175.211 43.63 175.968 39.7793 176.351Z" fill="#5F36CE"/>
<path d="M49.5194 137.501C49.0798 138.307 48.7216 139.146 48.3878 140.001C48.3064 140.212 48.2168 140.424 48.1436 140.644C48.0703 140.864 47.9807 141.075 47.9156 141.295L47.6958 141.947L47.4841 142.606C46.9387 144.356 46.5153 146.147 46.1734 147.955C45.8315 149.762 45.5873 151.586 45.4244 153.409C45.2616 155.241 45.1883 157.073 45.1802 158.913C45.1721 160.752 45.2616 162.584 45.3837 164.416L45.5058 165.784L45.571 166.468C45.5954 166.695 45.628 166.923 45.6524 167.151L45.8233 168.519C45.8478 168.747 45.8885 168.975 45.921 169.203L46.0269 169.879C46.5886 173.501 47.4027 177.084 48.4936 180.568C47.7691 176.986 47.1585 173.396 46.7433 169.781C46.5235 167.974 46.3851 166.166 46.2548 164.351L46.1897 162.991C46.1816 162.763 46.1653 162.535 46.1571 162.316L46.1409 161.632C46.1327 161.176 46.1083 160.728 46.1083 160.272L46.1001 158.913V158.571L46.1083 158.229L46.1164 157.545L46.1246 156.861C46.1327 156.633 46.1409 156.405 46.149 156.185L46.1734 155.51C46.1816 155.282 46.1897 155.054 46.206 154.834L46.2874 153.474L46.4014 152.123C46.4176 151.895 46.4421 151.675 46.4665 151.447L46.5398 150.771C46.5805 150.324 46.6456 149.868 46.7026 149.42C46.7514 148.972 46.8247 148.525 46.8898 148.069C47.0201 147.173 47.1829 146.278 47.3457 145.382C47.3864 145.162 47.4353 144.934 47.476 144.714L47.6144 144.047L47.7691 143.379L47.8423 143.046L47.9238 142.712C48.1273 141.824 48.3715 140.953 48.632 140.082L48.7297 139.757L48.8356 139.431C48.9007 139.211 48.9821 138.999 49.0472 138.78C49.1856 138.356 49.3403 137.925 49.5194 137.501Z" fill="#3C1DAA"/>
<g opacity="0.33">
<path opacity="0.54" d="M56.4316 120.999L62.9282 130.687C63.2539 129.808 63.5551 128.847 63.8238 127.862C64.0436 127.064 64.2552 126.258 64.4425 125.485C64.6867 124.459 64.8984 123.491 65.0694 122.66C63.5388 119.404 61.2268 115.325 59.8509 114.617C59.5822 115.048 59.3055 115.504 59.0368 115.976C58.6216 116.685 58.2064 117.442 57.7912 118.231C57.3353 119.102 56.8794 120.022 56.4398 120.983C56.4316 120.991 56.4316 120.991 56.4316 120.999Z" fill="white"/>
</g>
<g opacity="0.33">
<path opacity="0.54" d="M47.5488 127.292L50.3656 131.501C51.0251 131.663 51.5543 131.737 51.7008 131.615C51.8799 131.46 52.4498 129.742 53.2639 127.406C53.4104 126.99 53.557 126.559 53.7198 126.103C53.7442 126.03 53.7768 125.948 53.8012 125.875C53.1255 124.296 52.1404 122.293 51.1228 120.526C51.1228 120.526 51.1228 120.535 51.1146 120.535C50.4145 121.487 49.7306 122.554 49.1119 123.726C48.827 124.255 48.5583 124.8 48.306 125.378C48.0373 125.981 47.7849 126.624 47.5488 127.292Z" fill="white"/>
</g>
<path d="M63.8785 135.654L63.0156 138.121C63.0156 138.121 48.9396 139.733 45.2679 135.247C45.2679 135.247 44.3073 125.038 59.5149 128.465C61.1838 128.84 59.58 135.32 59.58 135.32C59.58 135.32 62.3724 136.134 63.8785 135.654Z" fill="#1C0D68"/>
<g opacity="0.54">
<path opacity="0.54" d="M85.4922 112.085L118.195 130.419C131.546 130.443 144.507 130.525 151.061 130.712C144.377 127.285 129.902 119.852 116.233 112.753C106.96 112.386 95.2127 112.053 85.4922 112.085Z" fill="white"/>
<path opacity="0.54" d="M72.3867 116.994C72.4274 122.498 72.924 131.428 75.6513 130.484C75.6513 130.484 85.4043 130.443 98.0963 130.419C88.8725 125.648 79.4369 120.739 72.3867 116.994Z" fill="white"/>
</g>
<path d="M73.4785 143.021C81.2858 145.863 89.4107 148.386 97.5192 148.142C96.7621 147.613 95.9154 147.116 94.9955 146.644C93.2044 145.732 91.0959 144.967 88.6128 144.454C88.6128 144.454 82.5477 142.663 79.5111 141.361C77.6712 140.571 75.5219 140.913 74.081 142.305C73.853 142.525 73.6495 142.761 73.4785 143.021Z" fill="white"/>
<path d="M159.326 152.066C163.617 150.405 167.663 148.15 171.294 145.39C172.376 144.568 173.459 143.607 174.347 142.549C173.589 141.857 172.702 141.23 171.66 140.685C170.252 139.952 168.485 140.4 167.614 141.702C166.808 142.899 165.741 144.381 164.683 145.488C164.675 145.488 164.675 145.488 164.675 145.488C164.333 145.854 163.983 146.18 163.649 146.432C162.501 147.32 161.541 148.402 160.816 149.64C160.36 150.413 159.855 151.252 159.383 151.952C159.375 151.993 159.351 152.025 159.326 152.066Z" fill="white"/>
<g opacity="0.36">
<path opacity="0.36" d="M165.707 135.45L167.352 134.896L166.945 132.706C166.016 131.167 164.958 130.215 163.916 129.645C164.193 131.265 164.437 132.885 164.665 134.513L165.707 135.45Z" fill="#070208"/>
</g>
</g>
<mask id="mask1_6417_29508" style="mask-type:alpha" maskUnits="userSpaceOnUse" x="13" y="0" width="161" height="194">
<path fill-rule="evenodd" clip-rule="evenodd" d="M127.411 0H44.1064V49.7021C25.3358 64.3897 13.2695 87.2656 13.2695 112.962C13.2695 157.282 49.163 193.211 93.4399 193.211C137.717 193.211 173.61 157.282 173.61 112.962C173.61 80.7977 154.705 53.0528 127.411 40.2534V0Z" fill="#C4C4C4"/>
</mask>
<g mask="url(#mask1_6417_29508)">
<path d="M1.40244 159.873C3.99572 156.043 6.17787 152.529 7.60101 149.711C14.9697 134.928 25.7224 104.031 31.7628 91.7172C37.8033 79.4029 51.0227 66.4238 51.0227 66.4238L62.4078 100.802L64.084 144.805C64.084 144.805 61.1744 149.395 56.146 160.348C51.1176 171.333 46.8798 172.441 39.3845 179.595C37.6135 181.304 35.7792 183.489 33.9766 185.863C20.9469 180.165 9.71991 171.143 1.40244 159.873Z" fill="#F7DAC1"/>
<path d="M108.361 52.8435C108.361 52.8435 113.674 51.3873 115.856 52.8435C118.006 54.2997 117.532 63.7649 110.227 65.1894L108.361 52.8435Z" fill="#F5C9AA"/>
<path d="M109.689 70.824C112.978 68.703 114.78 68.5447 115.761 70.2225C116.741 71.9003 120.947 78.5798 109.942 84.9427C98.9362 91.3056 104.565 81.0173 104.565 81.0173L109.689 70.824Z" fill="#F5C9AA"/>
<path d="M107.758 90.2298C107.758 90.2298 112.027 88.7736 114.241 89.9765C116.455 91.1795 117.815 99.9799 109.56 102.702C101.338 105.425 104.753 96.9726 104.753 96.9726L107.758 90.2298Z" fill="#F5C9AA"/>
<path d="M109.118 107.387C109.118 107.387 112.122 106.817 112.976 108.305C113.83 109.793 113.166 113.687 109.972 116.599C106.777 119.511 106.43 111.566 106.43 111.566L109.118 107.387Z" fill="#F5C9AA"/>
<path d="M48.3028 90.1343C48.3028 90.1343 47.0694 99.1246 42.2623 103.24C37.4553 107.355 27.3351 118.688 26.1966 122.487L34.7671 120.683L45.2667 111.281L52.4141 99.6311L48.3028 90.1343Z" fill="#D8A988"/>
<path d="M44.0311 133.028C44.0311 133.028 45.3593 137.84 45.6123 142.652C45.8653 147.464 41.3745 163.26 41.3745 163.26C41.3745 163.26 51.1468 146.482 51.0203 135.403C50.8938 124.323 44.0311 133.028 44.0311 133.028Z" fill="#D8A988"/>
<path d="M110.288 50.3109V29.0696C110.288 24.2262 106.367 20.3008 101.528 20.3008H56.2088C51.3702 20.3008 47.4486 24.2262 47.4486 29.0696V37.9016C47.164 38.0283 47.0059 38.3132 47.0059 38.6297V42.1119C47.0059 42.4285 47.1956 42.7134 47.4486 42.84V46.5754C47.164 46.7021 47.0059 46.987 47.0059 47.3035V55.1226C47.0059 55.4392 47.1956 55.7241 47.4486 55.8507V58.5098C47.164 58.6365 47.0059 58.9214 47.0059 59.2379V67.057C47.0059 67.3736 47.1956 67.6585 47.4486 67.7851V139.138C47.4486 143.982 51.3702 147.907 56.2088 147.907H101.528C106.367 147.907 110.288 143.982 110.288 139.138V64.9044C110.573 64.7778 110.731 64.4929 110.731 64.1763V51.0073C110.731 50.6908 110.541 50.4375 110.288 50.3109Z" fill="#0B080F"/>
<path d="M107.758 139.138C107.758 142.588 104.975 145.374 101.528 145.374H56.2087C52.7615 145.374 49.9785 142.588 49.9785 139.138V29.0693C49.9785 25.6188 52.7615 22.833 56.2087 22.833H64.2732L64.969 25.1439C65.3801 26.5051 66.6451 27.4548 68.0682 27.4548H89.6368C91.0599 27.4548 92.3249 26.5051 92.736 25.1439L93.4318 22.833H101.496C104.943 22.833 107.726 25.6188 107.726 29.0693V139.138H107.758Z" fill="white"/>
<path d="M22.4654 124.608C22.4654 124.608 43.2749 104.158 51.0864 103.24C58.9295 102.322 78.6953 100.77 79.486 108.716C80.2766 116.662 68.4171 121.03 56.4627 122.138C56.4627 122.138 45.8366 130.527 45.7417 137.143C45.6152 143.76 29.6443 138.948 29.6443 138.948L22.4654 124.608Z" fill="#F7DAC1"/>
<path fill-rule="evenodd" clip-rule="evenodd" d="M65.8246 80.2874C66.6642 79.5091 68.38 79.2556 69.6395 79.328C70.1689 79.3642 70.6982 79.4366 71.191 79.5453C74.4036 80.1969 75.6266 82.2243 76.1924 85.4645C76.4662 87.0393 76.1559 88.6141 75.3528 89.3925C74.6226 90.0623 73.6917 89.8269 72.7243 89.3925C69.5483 87.9082 66.9928 85.3015 65.6238 82.0795C65.4413 81.5726 65.1127 80.9391 65.8246 80.2874ZM91.7623 80.2874C90.9227 79.5091 89.2069 79.2556 87.9474 79.328C87.4181 79.3642 86.8888 79.4366 86.3959 79.5453C83.1834 80.1969 81.9604 82.2243 81.3946 85.4645C81.1208 87.0393 81.4311 88.6141 82.2342 89.3925C82.9643 90.0623 83.8952 89.8269 84.8627 89.3925C88.0387 87.9082 90.5941 85.3015 91.9631 82.0795C92.1457 81.5726 92.4742 80.9391 91.7623 80.2874ZM78.7843 72.7391C76.2472 72.7391 74.2028 74.7664 74.2028 77.2826C74.2028 79.7987 76.2472 81.826 78.7843 81.826C81.3215 81.826 83.3659 79.7987 83.3659 77.2826C83.3659 74.7845 81.3215 72.7391 78.7843 72.7391ZM78.7843 62.385C71.9759 62.385 66.2809 67.1095 64.8572 73.445C64.5286 76.5404 67.3031 75.8887 69.3292 74.9837C71.6474 73.9338 74.3671 71.2185 78.7843 71.2185C83.2016 71.2185 85.9213 73.9338 88.2395 74.9837C90.2656 75.9068 93.0401 76.5404 92.7115 73.445C91.306 67.1276 85.611 62.385 78.7843 62.385ZM78.7843 100C77.9265 100 77.0868 99.6742 76.4297 99.0406L66.2627 88.9581C59.3447 82.0976 59.3447 71.0013 66.2627 64.1408C69.7308 60.7196 74.2576 59 78.7843 59C83.3111 59 87.8379 60.7196 91.2878 64.1408C98.2057 71.0013 98.2057 82.0976 91.2878 88.9581L81.139 99.0406C80.5001 99.6742 79.6422 100 78.7843 100Z" fill="url(#paint5_radial_6417_29508)"/>
<path d="M78.7303 79.9982C80.3029 79.9982 81.5778 78.742 81.5778 77.1925C81.5778 75.6429 80.3029 74.3867 78.7303 74.3867C77.1577 74.3867 75.8828 75.6429 75.8828 77.1925C75.8828 78.742 77.1577 79.9982 78.7303 79.9982Z" fill="url(#paint6_radial_6417_29508)"/>
</g>
<defs>
<linearGradient id="paint0_linear_6417_29508" x1="18.2133" y1="192.123" x2="169.436" y2="38.3125" gradientUnits="userSpaceOnUse">
<stop offset="0.0416667" stop-color="#47BAD8"/>
<stop offset="0.34375" stop-color="#6A6CE9"/>
<stop offset="0.609375" stop-color="#9454E6"/>
<stop offset="1" stop-color="#CE57D3"/>
</linearGradient>
<linearGradient id="paint1_linear_6417_29508" x1="12.1205" y1="198.519" x2="175.591" y2="32.2521" gradientUnits="userSpaceOnUse">
<stop offset="0.0416667" stop-color="#47BAD8"/>
<stop offset="0.34375" stop-color="#6A6CE9"/>
<stop offset="0.609375" stop-color="#9454E6"/>
<stop offset="1" stop-color="#CE57D3"/>
</linearGradient>
<linearGradient id="paint2_linear_6417_29508" x1="159.433" y1="177.2" x2="56.3721" y2="77.0908" gradientUnits="userSpaceOnUse">
<stop offset="0.01" stop-color="#FF55AA"/>
<stop offset="0.25" stop-color="#B850C9"/>
<stop offset="0.62" stop-color="#6572D6"/>
<stop offset="1" stop-color="#4EAEB8"/>
</linearGradient>
<linearGradient id="paint3_linear_6417_29508" x1="23.6661" y1="186.209" x2="163.922" y2="43.5525" gradientUnits="userSpaceOnUse">
<stop offset="0.0416667" stop-color="#47BAD8"/>
<stop offset="0.34375" stop-color="#6A6CE9"/>
<stop offset="0.609375" stop-color="#9454E6"/>
<stop offset="1" stop-color="#CE57D3"/>
</linearGradient>
<linearGradient id="paint4_linear_6417_29508" x1="23.6661" y1="186.397" x2="163.922" y2="43.7405" gradientUnits="userSpaceOnUse">
<stop offset="0.0416667" stop-color="#47BAD8"/>
<stop offset="0.34375" stop-color="#6A6CE9"/>
<stop offset="0.609375" stop-color="#9454E6"/>
<stop offset="1" stop-color="#CE57D3"/>
</linearGradient>
<radialGradient id="paint5_radial_6417_29508" cx="0" cy="0" r="1" gradientUnits="userSpaceOnUse" gradientTransform="translate(80.3177 52.1542) scale(52.4131 51.9778)">
<stop stop-color="#0EE4A0"/>
<stop offset="0.2178" stop-color="#43BFD4"/>
<stop offset="0.6566" stop-color="#824EF1"/>
<stop offset="0.9356" stop-color="#CB56D0"/>
</radialGradient>
<radialGradient id="paint6_radial_6417_29508" cx="0" cy="0" r="1" gradientUnits="userSpaceOnUse" gradientTransform="translate(80.3184 52.1546) scale(52.4131 51.9778)">
<stop stop-color="#0EE4A0"/>
<stop offset="0.2178" stop-color="#43BFD4"/>
<stop offset="0.6566" stop-color="#824EF1"/>
<stop offset="0.9356" stop-color="#CB56D0"/>
</radialGradient>
<clipPath id="clip0_6417_29508">
<rect width="160.309" height="172.21" fill="white" transform="matrix(-1 0 0 1 173.607 21.0015)"/>
</clipPath>
</defs>
</svg>
