<svg width="15" height="16" viewBox="0 0 15 16" fill="none" xmlns="http://www.w3.org/2000/svg">
<path d="M14.8434 6.47588C14.7838 6.17742 14.3667 6.14426 14.2476 6.42282C13.6517 7.84877 12.1687 8.78393 10.5335 8.59159C8.69961 8.37936 7.31593 6.7677 7.38214 4.91728C7.44172 3.27246 8.59369 1.94599 10.0899 1.57458C10.3878 1.50162 10.4143 1.09042 10.1296 0.97767C9.47421 0.732273 8.77906 0.57973 8.0508 0.520039C3.97259 0.221583 0.371051 3.29236 0.0267862 7.37124C-0.324099 11.543 2.81401 15.1974 6.99153 15.4826C11.0764 15.7611 14.658 12.6638 14.9758 8.58496C15.0354 7.86867 14.9824 7.15901 14.8434 6.47588Z" fill="white"/>
<path d="M10.9705 6.96679C12.009 6.96679 12.8508 6.12645 12.8508 5.08984C12.8508 4.05323 12.009 3.21289 10.9705 3.21289C9.93213 3.21289 9.09033 4.05323 9.09033 5.08984C9.09033 6.12645 9.93213 6.96679 10.9705 6.96679Z" fill="white"/>
</svg>
