<svg width="20" height="20" viewBox="0 0 20 20" fill="none" xmlns="http://www.w3.org/2000/svg">
<path d="M19.7912 7.96784C19.7118 7.5699 19.1557 7.52568 18.9968 7.89709C18.2023 9.79836 16.225 11.0452 14.0446 10.7888C11.5995 10.5058 9.75458 8.35693 9.84285 5.8897C9.9223 3.69661 11.4582 1.92799 13.4532 1.43277C13.8504 1.3355 13.8858 0.787226 13.5062 0.636893C12.6323 0.309698 11.7054 0.106306 10.7344 0.0267181C5.29679 -0.371222 0.494735 3.72314 0.035715 9.16166C-0.432132 14.724 3.75201 19.5965 9.32204 19.9768C14.7685 20.3482 19.5441 16.2185 19.9678 10.7799C20.0472 9.82489 19.9766 8.87868 19.7912 7.96784Z" fill="black"/>
<path d="M14.6271 8.62239C16.0116 8.62239 17.134 7.50194 17.134 6.11979C17.134 4.73764 16.0116 3.61719 14.6271 3.61719C13.2425 3.61719 12.1201 4.73764 12.1201 6.11979C12.1201 7.50194 13.2425 8.62239 14.6271 8.62239Z" fill="black"/>
</svg>
