<svg width="24" height="24" viewBox="0 0 24 24" fill="none" xmlns="http://www.w3.org/2000/svg">
<mask id="mask0_779_44967" style="mask-type:luminance" maskUnits="userSpaceOnUse" x="4" y="14" width="16" height="8">
<path fill-rule="evenodd" clip-rule="evenodd" d="M4 14.5776H20V21.9999H4V14.5776Z" fill="white"/>
</mask>
<g mask="url(#mask0_779_44967)">
<path fill-rule="evenodd" clip-rule="evenodd" d="M12.0009 16.0874C7.69685 16.0874 5.51501 16.8242 5.51501 18.2787C5.51501 19.7462 7.69685 20.49 12.0009 20.49C16.304 20.49 18.4848 19.7532 18.4848 18.2988C18.4848 16.8313 16.304 16.0874 12.0009 16.0874ZM12.0009 21.9999C10.0221 21.9999 3.99988 21.9999 3.99988 18.2787C3.99988 14.9611 8.56657 14.5776 12.0009 14.5776C13.9797 14.5776 20 14.5776 20 18.2988C20 21.6164 15.4343 21.9999 12.0009 21.9999Z" fill="black"/>
</g>
<mask id="mask1_779_44967" style="mask-type:luminance" maskUnits="userSpaceOnUse" x="6" y="2" width="12" height="11">
<path fill-rule="evenodd" clip-rule="evenodd" d="M6.63623 2H17.3636V12.6881H6.63623V2Z" fill="white"/>
</mask>
<g mask="url(#mask1_779_44967)">
<path fill-rule="evenodd" clip-rule="evenodd" d="M12.0014 3.43689C9.83873 3.43689 8.07912 5.18928 8.07912 7.34429C8.07205 9.49225 9.81853 11.2436 11.9721 11.2517L12.0014 11.9704V11.2517C14.163 11.2517 15.9216 9.49829 15.9216 7.34429C15.9216 5.18928 14.163 3.43689 12.0014 3.43689ZM12.0009 12.688H11.9686C9.01709 12.679 6.62616 10.2804 6.63626 7.34129C6.63626 4.39716 9.04234 1.99957 12.0009 1.99957C14.9585 1.99957 17.3636 4.39716 17.3636 7.34431C17.3636 10.2915 14.9585 12.688 12.0009 12.688Z" fill="black"/>
</g>
</svg>
