<svg width="17" height="16" viewBox="0 0 17 16" fill="none" xmlns="http://www.w3.org/2000/svg">
<g clip-path="url(#clip0_13770_2224)">
<path fill-rule="evenodd" clip-rule="evenodd" d="M2.51963 1.42936C2.85207 1.09692 3.30296 0.910156 3.7731 0.910156H5.54578C5.87212 0.910156 6.13667 1.17471 6.13667 1.50105C6.13667 1.82739 5.87212 2.09194 5.54578 2.09194H3.7731C3.61639 2.09194 3.46609 2.1542 3.35528 2.26501C3.24447 2.37582 3.18221 2.52612 3.18221 2.68283V4.45551C3.18221 4.78185 2.91766 5.0464 2.59132 5.0464C2.26498 5.0464 2.00043 4.78185 2.00043 4.45551V2.68283C2.00043 2.21269 2.18719 1.7618 2.51963 1.42936ZM10.8638 1.50105C10.8638 1.17471 11.1283 0.910156 11.4547 0.910156H13.2273C13.6975 0.910156 14.1484 1.09692 14.4808 1.42936C14.8133 1.7618 15 2.21269 15 2.68283V4.45551C15 4.78185 14.7355 5.0464 14.4091 5.0464C14.0828 5.0464 13.8182 4.78185 13.8182 4.45551V2.68283C13.8182 2.52612 13.756 2.37582 13.6452 2.26501C13.5343 2.1542 13.3841 2.09194 13.2273 2.09194H11.4547C11.1283 2.09194 10.8638 1.82739 10.8638 1.50105ZM2.59132 10.9552C2.91766 10.9552 3.18221 11.2198 3.18221 11.5461V13.3188C3.18221 13.4755 3.24447 13.6258 3.35528 13.7366C3.46609 13.8475 3.61639 13.9097 3.7731 13.9097H5.54578C5.87212 13.9097 6.13667 14.1743 6.13667 14.5006C6.13667 14.8269 5.87212 15.0915 5.54578 15.0915H3.7731C3.30296 15.0915 2.85207 14.9047 2.51963 14.5723C2.18719 14.2398 2.00043 13.789 2.00043 13.3188V11.5461C2.00043 11.2198 2.26498 10.9552 2.59132 10.9552ZM14.4091 10.9552C14.7355 10.9552 15 11.2198 15 11.5461V13.3188C15 13.789 14.8133 14.2398 14.4808 14.5723C14.1484 14.9047 13.6975 15.0915 13.2273 15.0915H11.4547C11.1283 15.0915 10.8638 14.8269 10.8638 14.5006C10.8638 14.1743 11.1283 13.9097 11.4547 13.9097H13.2273C13.3841 13.9097 13.5343 13.8475 13.6452 13.7366C13.756 13.6258 13.8182 13.4755 13.8182 13.3188V11.5461C13.8182 11.2198 14.0828 10.9552 14.4091 10.9552Z" fill="black"/>
<path d="M1.5 8H15.5" stroke="black" stroke-width="1.5" stroke-linecap="round" stroke-linejoin="round"/>
</g>
<defs>
<clipPath id="clip0_13770_2224">
<rect width="16" height="16" fill="white" transform="translate(0.5)"/>
</clipPath>
</defs>
</svg>
