<svg width="20" height="20" viewBox="0 0 20 20" fill="none" xmlns="http://www.w3.org/2000/svg">
<path d="M18.7381 5.14592C19.2101 4.53195 19.435 3.7634 19.3684 2.99181C19.3018 2.22022 18.9485 1.50159 18.3782 0.977608C17.8079 0.453625 17.062 0.162319 16.2876 0.161126C15.5131 0.159933 14.7663 0.44894 14.1944 0.971164C12.2313 0.0707405 10.0292 -0.169258 7.91826 0.287133C5.80727 0.743525 3.90102 1.87173 2.48519 3.50267C1.06935 5.13362 0.220179 7.17947 0.0649184 9.33364C-0.0903424 11.4878 0.456673 13.6343 1.62399 15.4514C2.79131 17.2685 4.51606 18.6584 6.53978 19.4128C8.5635 20.1672 10.7772 20.2455 12.8492 19.6359C14.9211 19.0263 16.7397 17.7617 18.0324 16.0315C19.3252 14.3014 20.0224 12.1989 20.0196 10.0391C20.0246 8.32445 19.5829 6.63804 18.7381 5.14592Z" fill="white"/>
<path d="M11.2141 7.7678C11.0623 7.69751 10.8959 7.66424 10.7287 7.67071H9.17529V9.70955H10.4374C10.6052 9.72466 10.7738 9.69094 10.9229 9.61246C11.0689 9.58815 11.2042 9.5205 11.3112 9.41829L11.6025 9.12702C11.681 8.97795 11.7147 8.80938 11.6996 8.64159C11.7249 8.4734 11.6905 8.30166 11.6025 8.15615L11.2141 7.7678Z" fill="#7F2684"/>
<path d="M18.0101 6.27254C17.166 6.68396 16.1979 6.76257 15.2984 6.49273C14.399 6.22289 13.634 5.62438 13.1557 4.81623C12.768 3.99966 12.6655 3.07663 12.8645 2.19487C12.8645 2.0007 12.9616 1.90361 13.0586 1.70944C11.9752 1.29848 10.8212 1.10565 9.66297 1.14203C8.50476 1.17841 7.36515 1.44329 6.30961 1.92144C5.25407 2.39959 4.30341 3.08159 3.51225 3.92826C2.72109 4.77493 2.10501 5.76958 1.69942 6.85507C1.24904 7.95243 1.02299 9.12888 1.03461 10.315C1.04622 11.5011 1.29527 12.6729 1.76706 13.7613C2.23884 14.8496 2.92381 15.8324 3.78156 16.6518C4.63931 17.4711 5.65246 18.1104 6.76125 18.5318C7.87004 18.9533 9.05201 19.1485 10.2374 19.1058C11.4229 19.0631 12.5877 18.7834 13.6633 18.2832C14.7389 17.7831 15.7034 17.0726 16.5 16.1937C17.2966 15.3148 17.9091 14.2852 18.3014 13.1657C18.7359 12.0599 18.9345 10.8754 18.8843 9.68836C18.8341 8.50127 18.5364 7.33778 18.0101 6.27254ZM13.447 9.76769C13.3049 10.0898 13.0677 10.3608 12.7674 10.5444C12.4828 10.7556 12.1483 10.8895 11.7965 10.9327C11.3809 11.0133 10.9574 11.0458 10.5344 11.0298H9.17515V14.3308H7.33049V5.98128H10.4373C10.8603 5.96526 11.2838 5.99784 11.6994 6.07837C12.0697 6.16441 12.4283 6.2948 12.7674 6.46672C13.0432 6.67802 13.2742 6.94204 13.447 7.24342C13.6455 7.63411 13.7455 8.06739 13.7383 8.50555C13.6412 8.99099 13.5441 9.37934 13.447 9.76769Z" fill="#7F2684"/>
<path d="M16.408 5.14603C17.534 5.14603 18.4468 4.23321 18.4468 3.10719C18.4468 1.98118 17.534 1.06836 16.408 1.06836C15.282 1.06836 14.3691 1.98118 14.3691 3.10719C14.3691 4.23321 15.282 5.14603 16.408 5.14603Z" fill="#F08218"/>
</svg>
