<svg width="100" height="100" viewBox="0 0 100 100" fill="none" xmlns="http://www.w3.org/2000/svg">
<path d="M0.0263719 49.7473C0.127651 51.4182 0.0263717 53.089 0.17829 54.8105C0.583405 59.4181 1.64683 63.9243 3.31793 68.2787C4.83712 72.1267 6.81205 75.8229 9.24275 79.2152C12.5343 83.924 16.6867 87.924 21.4468 91.1644C25.7006 94.0504 30.41 96.3289 35.3221 97.8479C39.2213 99.063 43.2218 99.7719 47.3236 99.9238C52.6407 100.228 57.9579 99.62 63.0725 98.2023C68.4402 96.7339 73.5042 94.3542 78.1124 91.215C81.5558 88.8353 84.6955 86.0506 87.4807 82.9114C89.253 80.9367 90.8229 78.8608 92.2408 76.5824C94.2663 73.3925 95.8868 70.0002 97.1528 66.4559C98.7226 61.899 99.6848 57.1903 99.938 52.3802C100.141 48.6334 99.8367 44.8866 99.1784 41.1905C97.9124 33.8995 95.0259 26.9629 90.6709 20.9883C90.2152 20.4819 90.1645 19.7225 90.5697 19.2161C92.0888 16.3301 91.8356 12.7859 89.8607 10.2036C87.1768 7.0138 82.9738 5.95053 79.0745 8.38087C78.6188 8.73529 78.0111 8.73529 77.606 8.38087C76.5425 7.62139 75.4285 6.96317 74.2638 6.35558C68.7947 3.36829 62.8193 1.343 56.6919 0.532887C52.4888 -0.0240669 48.2857 -0.0240669 44.0827 0.431622C39.2719 0.937944 34.5625 2.20375 30.1062 4.12777C25.0422 6.30495 20.3328 9.34288 16.2816 13.0897C12.433 16.482 9.24275 20.482 6.66014 24.8363C4.38136 28.735 2.65962 32.8868 1.49492 37.2412C0.380848 41.3424 -0.125546 45.5449 0.0263719 49.7473Z" fill="white"/>
<path d="M0.0262936 49.747C-0.125625 45.5446 0.380769 41.3421 1.54548 37.2409C2.65954 32.8865 4.38128 28.6841 6.7107 24.836C9.24267 20.4817 12.433 16.4817 16.1803 12.9881C20.2314 9.24132 24.9409 6.20339 30.0048 4.02621C34.4611 2.10219 39.1706 0.836381 43.9813 0.33006C48.1844 -0.125629 52.3875 -0.125629 56.5905 0.431324C62.7686 1.29207 68.744 3.26672 74.1624 6.25402C75.3271 6.86161 76.3905 7.57046 77.5046 8.27931C77.9097 8.63373 78.5681 8.63373 78.9732 8.27931C82.8724 5.8996 87.0755 6.96287 89.7594 10.1021C91.7343 12.7349 91.9875 16.2286 90.4683 19.1146C90.0632 19.6715 90.1138 20.3804 90.5696 20.8867C94.9246 26.9119 97.811 33.7979 99.077 41.0889C99.786 44.7851 100.039 48.5319 99.8366 52.2786C99.5834 57.0887 98.6213 61.7975 97.0514 66.3544C95.7855 69.8986 94.165 73.291 92.1394 76.4808C90.7215 78.7086 89.1517 80.8352 87.3793 82.8098C84.5941 85.949 81.4545 88.7338 78.011 91.1135C73.4535 94.3033 68.3389 96.6324 62.9711 98.1007C57.8565 99.5184 52.5394 100.126 47.2222 99.8222C43.1711 99.6197 39.1199 98.9108 35.2207 97.7463C30.258 96.2273 25.5992 93.9489 21.3455 91.0629C16.5854 87.873 12.433 83.8225 9.14139 79.1137C6.7107 75.7213 4.73576 72.0758 3.21658 68.1771C1.54548 63.8734 0.482048 59.3165 0.0769329 54.709C0.0262935 53.1394 0.076933 51.4179 0.0262936 49.747ZM4.88768 49.9496C4.88768 50.9116 4.88768 51.9242 4.88768 52.8862C4.88768 53.3925 4.98896 53.9495 5.0396 54.4558C5.90047 64.4304 10.2048 73.8479 17.2437 80.9871C27.7261 91.7717 40.5378 96.3286 55.4765 94.6577C64.4903 93.6957 72.9471 89.8983 79.6315 83.7718C91.2279 73.2403 96.2918 60.076 94.6207 44.4307C93.7599 36.8865 90.9747 29.7473 86.5184 23.6208C86.2652 23.1652 85.7082 22.9626 85.2524 23.1145C80.8975 24.1778 76.5425 21.5449 75.479 17.1906C75.1752 16.0767 75.1246 14.9121 75.3778 13.7982C75.5803 13.14 75.2258 12.4818 74.6182 12.2286C64.946 5.79833 53.0964 3.41862 41.6519 5.64643C20.2821 9.54511 4.7864 28.2284 4.88768 49.9496ZM83.3282 19.5703C85.7589 19.6209 87.7338 17.6969 87.7338 15.2665C87.7338 15.2159 87.7338 15.2159 87.7338 15.1653C87.6831 12.7349 85.7589 10.8109 83.3282 10.8109C80.8975 10.8109 78.9225 12.7349 78.9225 15.1653V15.2159C78.9732 17.6463 80.8975 19.5703 83.3282 19.5703Z" fill="white"/>
<path d="M4.88624 49.9496C4.78496 28.2284 20.2806 9.59581 41.6505 5.6465C53.095 3.41869 64.894 5.7984 74.6167 12.2287C75.2244 12.4818 75.5282 13.1401 75.3763 13.7983C74.5661 18.2033 77.4525 22.4057 81.8582 23.2159C82.9722 23.4184 84.1369 23.4184 85.251 23.1146C85.7574 22.9627 86.3144 23.1652 86.5676 23.6209C91.0239 29.7474 93.8091 36.9372 94.67 44.4307C96.341 60.0761 91.3277 73.2404 79.6807 83.7719C72.9963 89.8984 64.5395 93.6958 55.5257 94.6578C40.587 96.3287 27.7753 91.7718 17.2929 80.9871C10.254 73.7974 5.94966 64.4304 5.08879 54.4559C5.03815 53.9496 4.93687 53.3926 4.93687 52.8863C4.88623 51.9243 4.88624 50.9116 4.88624 49.9496ZM47.8285 44.2788L48.031 44.4814L48.8919 45.7978C48.8413 45.9497 48.9425 46.1522 49.0438 46.2535L49.0945 53.8483C50.3098 54.1521 51.5758 54.1521 52.7405 53.8483C52.8418 51.5192 52.8418 49.1901 52.7405 46.8611C52.7911 46.8104 52.7911 46.7092 52.7405 46.6585C52.6899 46.2535 52.6392 45.7978 52.5886 45.3927L52.4367 45.0383L52.386 44.7345C52.4367 44.5826 52.3354 44.3801 52.2341 44.2788C52.0315 43.57 51.6264 42.9118 51.0694 42.4054C50.9175 42.051 50.6136 41.7979 50.3098 41.646L49.9047 41.3422L49.6515 41.1396C48.5881 40.3295 47.3221 39.9245 46.0561 39.9245H45.2459L44.7395 40.0257C44.6888 39.9751 44.6382 39.9751 44.5875 40.0257L44.1824 40.0764C44.0305 40.0257 43.828 40.0764 43.7267 40.2283C43.0177 40.3295 42.4101 40.6333 41.853 41.089L41.5998 41.2915C41.3466 41.3422 41.1441 41.5447 41.0428 41.7472L40.8402 41.9497C40.5364 42.1523 40.2832 42.4054 40.1819 42.7599L39.9794 43.013C39.3717 43.7725 38.9666 44.7345 38.9159 45.7472C38.5108 47.5193 38.764 49.342 38.764 51.1142C38.7134 54.1521 38.764 54.1521 41.853 54.0508C42.4101 54.0508 42.562 53.8483 42.562 53.342C42.5113 51.418 42.5113 49.4433 42.5113 47.5193C42.2581 45.6459 43.5748 43.975 45.4484 43.7219C46.208 43.6206 46.9676 43.7725 47.5753 44.1269L47.8285 44.2788ZM9.54506 52.3293C9.54506 53.6458 9.49442 54.9116 9.54506 56.228C9.5957 57.19 9.13995 58.4558 9.74762 58.9621C10.3553 59.4178 11.5706 59.0634 12.4822 59.1647C13.1405 59.2153 13.343 59.0128 13.343 58.3546C13.2924 57.19 13.343 56.0255 13.2924 54.8609C13.2924 54.2534 13.3937 53.9496 14.1026 54.0002C14.9635 54.0508 15.7737 54.0508 16.6346 54.0002C20.5338 53.9496 23.6228 50.7597 23.5722 46.8611C23.5215 43.013 20.3819 39.9245 16.5333 39.8738C12.6341 39.8738 9.49442 43.013 9.49442 46.8611V46.9117C9.49442 48.7345 9.54506 50.5572 9.54506 52.3293ZM85.7574 39.8738C84.5421 39.8738 83.2761 39.8738 82.0607 39.8738C79.63 39.8232 77.5538 41.7472 77.5032 44.1776C77.5032 44.2282 77.5032 44.2282 77.5032 44.2788C77.5032 46.7598 79.4781 48.7345 81.9088 48.7851H81.9594C83.5293 48.7851 85.1497 48.7851 86.7196 48.7851C87.226 48.7851 87.783 48.8357 87.783 49.4939C87.783 50.1522 87.226 50.2028 86.7196 50.2028C84.9978 50.2028 83.2761 50.2028 81.5543 50.2028C80.6428 50.2028 79.4275 49.7977 78.9211 50.4053C78.4653 50.9623 78.8198 52.1774 78.7185 53.0382C78.6679 53.6964 78.8198 54.0002 79.5794 53.9496C82.0101 53.8989 84.4408 53.9496 86.8715 53.8989C87.4285 53.8989 87.9855 53.7977 88.5426 53.6458C90.5175 52.9876 91.7835 51.0635 91.5809 48.9876C91.3277 46.7092 89.4541 44.9877 87.1753 44.9877C85.6055 44.937 83.985 44.9877 82.4152 44.937C81.9088 44.937 81.3518 44.9877 81.3011 44.2788C81.3011 43.57 81.8582 43.6206 82.3646 43.6206C84.0357 43.6206 85.7574 43.6206 87.4285 43.6206C90.4669 43.6206 90.4669 43.6206 90.3656 40.532C90.3656 39.9751 90.2137 39.8232 89.6566 39.8232C88.34 39.8738 87.0234 39.8738 85.7574 39.8738ZM69.8566 54.6584C73.7559 54.6584 76.9461 51.5192 76.9968 47.6205V47.5699C76.9461 43.7219 73.8065 40.6333 69.9579 40.5827C66.0587 40.5827 62.8684 43.6712 62.8684 47.5699C62.8177 51.4686 65.9067 54.6078 69.806 54.6584H69.8566ZM24.1292 44.5826C24.1292 45.6459 24.1292 46.7092 24.1292 47.7724C24.2305 51.4686 27.1676 54.4559 30.8136 54.6584C33.852 54.8609 37.5993 52.5825 38.1057 48.7345C38.2576 46.9623 38.3083 45.2408 38.207 43.4687C38.2576 40.4814 38.207 40.4814 35.2193 40.532C34.5609 40.532 34.409 40.7346 34.409 41.3928C34.4597 43.3675 34.4597 45.3421 34.409 47.3168C34.5609 49.1395 33.143 50.7597 31.32 50.9116C31.2187 50.9116 31.1681 50.9116 31.0668 50.9116C29.1932 50.9116 27.8765 49.4433 27.8765 47.3168C27.8765 45.3421 27.8259 43.3675 27.8765 41.3928C27.8765 40.7346 27.7246 40.4814 27.0663 40.532C26.3067 40.5827 25.4965 40.5827 24.7369 40.532C24.2305 40.532 24.0786 40.7346 24.0786 41.1903C24.1292 42.3042 24.1292 43.4181 24.1292 44.5826ZM53.3482 41.3422C53.3482 43.1143 53.3482 44.937 53.3482 46.7092C53.2975 50.5572 56.2853 53.7977 60.1339 53.9496C62.3113 54.1015 62.3113 54.1015 62.3113 51.9749C62.3113 51.6711 62.3113 51.3167 62.3113 51.0129C62.362 50.4053 62.1594 50.1015 61.5011 50.1522C61.1466 50.2028 60.7922 50.2028 60.4377 50.1522C58.716 50.2028 57.298 48.8864 57.1968 47.1649C57.0955 46.1016 57.1461 45.0383 57.0955 43.975C57.0955 43.5193 57.2474 43.3675 57.7032 43.3675C58.5134 43.4181 59.3236 43.3675 60.1339 43.3675C62.3113 43.3675 62.3113 43.3674 62.3113 41.1396C62.3113 39.5194 62.4633 39.7726 60.9947 39.7726C60.4883 39.7726 59.9313 39.7726 59.4249 39.7726C57.1461 39.7726 57.1461 39.7726 57.1461 37.4941C57.1461 34.5068 57.1461 34.5575 54.1078 34.6587C53.5001 34.6587 53.3482 34.8612 53.3482 35.4688C53.3988 37.4435 53.3988 39.3675 53.3482 41.3422ZM75.1738 63.9747C75.1738 63.114 75.1738 62.3039 75.1738 61.4431C75.1738 61.0887 75.1231 60.8355 74.6674 60.8355C74.3129 60.8355 74.0597 60.8862 74.0597 61.3419C74.0091 61.9494 74.3129 62.6583 73.9078 63.0634C73.452 63.4684 72.6924 63.114 72.0848 63.2659C71.9835 63.2659 71.8822 63.2659 71.7809 63.3165C70.3124 63.5697 69.249 64.8861 69.3502 66.4051C69.5022 67.924 70.7681 69.1392 72.2873 69.1392C73.8571 69.1392 75.1231 67.924 75.2244 66.4051C75.1738 65.595 75.1738 64.7848 75.1738 63.9747ZM59.3743 69.1898C59.9313 69.1898 60.4883 69.1898 61.0454 69.1392C61.9569 69.0886 62.6658 68.2785 62.6152 67.3671C62.6152 66.4557 61.8556 65.6962 60.9441 65.6962C60.2351 65.6456 59.5262 65.6962 58.8172 65.6962C58.4121 65.6962 58.007 65.6456 57.9564 65.1393C57.9057 64.5317 58.3615 64.4811 58.8172 64.4811C59.6781 64.4811 60.5896 64.4811 61.4505 64.4811C61.8556 64.4811 62.0075 64.3292 62.0075 63.9241C62.0075 63.5697 62.0075 63.2659 61.5518 63.2659C60.4377 63.2659 59.273 63.2659 58.1589 63.3671C57.2474 63.4684 56.6397 64.2279 56.6904 65.1393C56.6904 66.0507 57.45 66.8101 58.4121 66.8101C59.1717 66.8608 59.8807 66.8101 60.6402 66.8101C61.096 66.8101 61.4505 66.962 61.3998 67.4683C61.3492 67.924 60.9947 68.0253 60.6402 68.0253C59.7794 68.0253 58.8679 68.0253 58.007 68.0253C57.6019 68.0253 57.3487 68.0253 57.3487 68.5823C57.3487 69.0886 57.5512 69.2911 58.0576 69.2405C58.4627 69.1392 58.9185 69.1898 59.3743 69.1898ZM35.5737 63.3165C34.2065 63.2152 32.9405 64.076 32.586 65.3924C32.1809 66.6582 32.7379 68.0759 33.9026 68.7848C35.0167 69.443 36.4852 69.2911 37.3967 68.4304C37.5993 68.2278 38.1057 68.0759 37.6499 67.6202C37.3461 67.3165 37.0929 67.0127 36.6372 67.519C36.3333 67.8734 35.8776 68.0759 35.4218 68.0253C35.2699 68.0253 35.0167 67.9747 34.9661 67.8734C34.8141 67.6709 35.0167 67.519 35.1686 67.3671C35.7763 66.7595 36.3333 66.1519 36.941 65.595C38.0044 64.5317 37.8525 63.9241 36.384 63.4684C36.0801 63.3671 35.8269 63.3165 35.5737 63.3165ZM53.3482 63.3165C51.7277 63.3165 50.4111 64.6329 50.4111 66.2532C50.4617 67.8734 51.7783 69.1898 53.4494 69.1898C55.0699 69.1392 56.3359 67.7721 56.3359 66.1519C56.3359 64.5823 55.0699 63.2659 53.5001 63.2659C53.4494 63.3165 53.3988 63.3165 53.3482 63.3165ZM63.0203 65.1393C63.0203 65.4937 63.0203 65.8481 63.0203 66.2025C62.9697 67.7721 64.2356 69.1392 65.8055 69.1898C67.3753 69.2405 68.6919 68.0759 68.8438 66.557C68.9451 65.6456 68.8438 64.7342 68.8945 63.8228C68.8945 63.3165 68.5906 63.2659 68.2362 63.2659C67.831 63.2659 67.6791 63.4178 67.6791 63.8228C67.6791 64.5823 67.6791 65.2912 67.6791 66.0507C67.7804 67.0127 67.0208 67.924 66.0587 68.0253C66.008 68.0253 65.9574 68.0253 65.9067 68.0253C64.9446 68.0253 64.1344 67.2152 64.1344 66.2025V66.1519C64.0837 65.3924 64.1344 64.6836 64.1344 63.9241C64.1344 63.519 64.0331 63.2659 63.5773 63.2659C63.1216 63.2659 62.9697 63.4684 62.9697 63.8735C63.0709 64.2785 63.0709 64.6836 63.0203 65.1393ZM44.1824 67.4177C44.1824 67.0127 44.1824 66.557 44.1824 66.1519C44.1318 64.5317 42.7645 63.2659 41.1441 63.3165C41.0934 63.3165 41.0934 63.3165 41.0428 63.3165C39.473 63.3671 38.2576 64.6836 38.3083 66.2532V66.3038C38.3083 67.0633 38.3083 67.7721 38.3083 68.5316C38.3083 68.886 38.3083 69.2405 38.8147 69.2405C39.3717 69.2405 39.473 69.0379 39.473 68.5316C39.473 67.7721 39.4223 66.962 39.473 66.2025C39.473 65.2405 40.2832 64.4811 41.2453 64.4811C42.2075 64.4811 43.0177 65.2912 42.9671 66.3038V66.3544C42.9671 67.1139 42.9671 67.924 42.9671 68.6835C42.9671 69.1898 43.2203 69.2405 43.6254 69.2405C44.0305 69.2405 44.2331 69.1392 44.2331 68.6835C44.1824 68.2278 44.1824 67.8228 44.1824 67.4177ZM29.4464 63.2659C28.0791 63.2659 26.9144 64.1773 26.6105 65.4937C26.3067 66.7595 26.8637 68.0759 27.9778 68.7341C29.1425 69.3924 30.5604 69.1898 31.5226 68.3291C31.7758 68.0759 32.0796 67.8734 31.6745 67.519C31.3707 67.2152 31.1681 67.0633 30.7123 67.4177C29.7502 68.1772 28.8893 68.1266 28.1804 67.3671C27.5727 66.7089 27.5727 65.6962 28.1297 65.038C28.6868 64.3292 29.7502 64.1773 30.4591 64.7342C30.5098 64.7848 30.6111 64.8355 30.6617 64.8861C31.1175 65.2912 31.3707 65.1393 31.6745 64.7848C32.1809 64.2785 31.5732 64.1266 31.3707 63.9241C30.8643 63.4684 30.1553 63.2152 29.4464 63.2659ZM44.5875 66.2025C44.5369 67.4177 45.2965 68.481 46.4106 68.9367C47.474 69.3924 48.74 69.1392 49.5502 68.3291C49.8034 68.0759 50.1072 67.8734 49.7021 67.4683C49.3983 67.1646 49.1451 66.962 48.7906 67.3671C48.3855 67.8734 47.6766 68.0759 47.0689 67.8228C46.3599 67.6202 45.8535 67.0127 45.8029 66.3038C45.7016 65.595 46.0561 64.9367 46.7144 64.6329C47.3727 64.1773 48.2336 64.2785 48.74 64.8861C49.1451 65.2912 49.3983 65.2405 49.7528 64.8355C50.2085 64.3292 49.7021 64.1266 49.4996 63.9241C48.6387 63.114 47.3727 62.9621 46.3599 63.4684C45.1952 63.9747 44.5369 65.038 44.5875 66.2025Z" fill="#7F2684"/>
<path d="M83.327 19.5704C80.947 19.5704 78.972 17.6464 78.9214 15.2667C78.9214 15.2667 78.9214 15.2667 78.9214 15.216C78.9214 12.7857 80.8457 10.811 83.2764 10.811H83.327C85.7577 10.811 87.682 12.7351 87.7326 15.1654C87.7326 17.5957 85.8083 19.5704 83.3776 19.5704C83.4283 19.5704 83.3777 19.5704 83.327 19.5704Z" fill="#E2890A"/>
<path d="M9.54613 52.3294C9.54613 50.5573 9.54613 48.7346 9.54613 46.9624C9.54613 43.0638 12.6351 39.9246 16.5344 39.9246H16.585C20.4336 39.9246 23.5733 43.0638 23.6239 46.9118C23.6745 50.8105 20.5855 54.0003 16.6863 54.0509C15.8254 54.0509 15.0152 54.1016 14.1543 54.0509C13.4454 54.0003 13.3441 54.2535 13.3441 54.9117C13.3947 56.0762 13.3441 57.2408 13.3947 58.4053C13.4454 59.0635 13.1922 59.266 12.5339 59.2154C11.5717 59.1648 10.3564 59.5192 9.79933 59.0129C9.19165 58.5066 9.64741 57.2408 9.59677 56.2788C9.49549 54.9623 9.49549 53.6459 9.54613 52.3294ZM13.2934 48.0763C13.3441 50.2029 13.3441 50.2029 15.4203 50.2029C15.8761 50.2029 16.3318 50.2029 16.7876 50.2029C18.4587 50.1016 19.7753 48.6839 19.8766 47.0131C19.8766 45.3422 18.7119 43.9751 17.0408 43.6713C15.4203 43.4688 13.8505 44.4815 13.3947 46.0511C13.2934 46.7599 13.2428 47.4181 13.2934 48.0763Z" fill="white"/>
<path d="M85.7575 39.8742C87.0741 39.8742 88.3908 39.8742 89.6567 39.8742C90.2138 39.8742 90.3657 40.0261 90.3657 40.583C90.467 43.6716 90.467 43.6716 87.4286 43.6716C85.7575 43.6716 84.0358 43.6716 82.3647 43.6716C81.8583 43.6716 81.3012 43.6716 81.3012 44.3298C81.3012 45.0386 81.9089 44.988 82.4153 44.988C83.9851 44.988 85.6056 44.9374 87.1754 45.0386C89.4542 45.0386 91.3785 46.7601 91.581 49.0386C91.7836 51.1145 90.5176 53.0385 88.5427 53.6967C87.9856 53.8486 87.4286 53.9499 86.8716 53.9499C84.4409 54.0005 82.0102 53.9499 79.5795 54.0005C78.8199 54.0005 78.668 53.7474 78.7186 53.0892C78.7693 52.1778 78.4654 51.0132 78.9212 50.4563C79.4276 49.8487 80.6429 50.2538 81.5544 50.2538C83.2762 50.2031 84.9979 50.2538 86.7197 50.2538C87.2261 50.2538 87.7831 50.2031 87.7831 49.5449C87.7831 48.8867 87.2261 48.8361 86.7197 48.8361C85.1498 48.8361 83.5294 48.8361 81.9595 48.8361C79.4782 48.8361 77.5033 46.8614 77.4526 44.4311C77.4526 44.3804 77.4526 44.3804 77.4526 44.3298C77.4526 41.8995 79.4782 39.9248 81.9089 39.9248C81.9595 39.9248 81.9596 39.9248 82.0102 39.9248C83.2762 39.8235 84.4915 39.8742 85.7575 39.8742Z" fill="white"/>
<path d="M69.8574 54.6585C65.9581 54.6585 62.8691 51.4687 62.8691 47.6206V47.57C62.9198 43.6713 66.0594 40.5321 69.9587 40.5827C73.8073 40.6334 76.8963 43.7219 76.9976 47.57C76.9976 51.4687 73.8579 54.6585 69.9587 54.6585C69.908 54.6585 69.8574 54.6585 69.8574 54.6585ZM69.8574 50.8611C71.6804 50.9117 73.149 49.4434 73.1996 47.6712C73.1996 47.6712 73.1996 47.6713 73.1996 47.6206C73.149 45.7979 71.6804 44.3295 69.908 44.3295C68.1356 44.3802 66.7177 45.7979 66.6671 47.57C66.6165 49.3421 67.9837 50.8104 69.7561 50.8611C69.7561 50.8611 69.8067 50.8611 69.8574 50.8611Z" fill="white"/>
<path d="M24.1323 44.582C24.1323 43.4681 24.1323 42.3036 24.1323 41.1897C24.1323 40.6833 24.2842 40.4808 24.7906 40.5314C25.5502 40.5821 26.3605 40.5821 27.1201 40.5314C27.7784 40.4808 27.9809 40.734 27.9303 41.3922C27.8796 43.3668 27.9303 45.3415 27.9303 47.3161C27.9303 49.4427 29.2469 50.8604 31.1206 50.911C32.9436 50.911 34.4628 49.4427 34.4628 47.5693C34.4628 47.468 34.4628 47.4174 34.4628 47.3161C34.4628 45.3415 34.4628 43.3668 34.4628 41.3922C34.4628 40.7846 34.6147 40.5314 35.273 40.5314C38.2607 40.4808 38.2607 40.4808 38.2607 43.4681C38.3114 45.2402 38.3114 47.0123 38.1594 48.7338C37.6531 52.5312 33.9057 54.8097 30.8674 54.6578C27.1707 54.4553 24.2842 51.468 24.183 47.7718C24.1323 46.6579 24.1323 45.6453 24.1323 44.582Z" fill="white"/>
<path d="M49.146 53.7977C49.146 51.2661 49.0953 48.7345 49.0953 46.2029C49.146 46.051 49.0953 45.8485 48.9434 45.7472L48.0825 44.4308L47.88 44.2282L47.6268 44.0257C46.0063 43.0637 43.9301 43.6206 42.9679 45.2409C42.6135 45.8991 42.4615 46.6586 42.5628 47.3674C42.2083 48.5826 42.4109 49.899 42.4109 51.1142C42.3603 53.5445 42.4109 53.5445 39.9296 53.4939C39.2713 53.4939 39.0181 53.2914 39.0181 52.5825C39.0687 50.2535 39.0181 47.9244 39.0181 45.5953C39.0687 44.5827 39.4738 43.6713 40.0815 42.8612L40.2841 42.608C40.436 42.2536 40.6385 42.0004 40.9424 41.7979L41.1449 41.5954C41.2462 41.3422 41.4994 41.1903 41.702 41.1397L41.9552 40.9371C42.4615 40.4814 43.1199 40.1777 43.8288 40.0764C43.9807 40.127 44.1833 40.0764 44.2846 39.9245L44.6897 39.8739C44.7403 39.8739 44.791 39.8739 44.8416 39.8739L45.348 39.7726C45.6012 39.9751 45.905 39.9751 46.1582 39.7726C47.4748 39.7726 48.7408 40.1777 49.7536 40.9878L50.0068 41.1903L50.4119 41.4941C50.4119 42.051 50.6651 42.3042 51.1715 42.2536C51.7286 42.7599 52.1337 43.4181 52.2856 44.127C52.235 44.2789 52.3362 44.4814 52.4375 44.5827L52.4882 44.8864L52.6401 45.2409L52.792 46.5067L52.7414 46.5573C52.7414 46.6079 52.792 46.6586 52.792 46.7092C52.8426 49.0383 52.8933 51.3674 52.792 53.6964L49.146 53.7977Z" fill="white"/>
<path d="M53.4014 41.3417C53.4014 39.4177 53.4014 37.4431 53.4014 35.519C53.4014 34.9115 53.5533 34.7596 54.161 34.7089C57.1994 34.6077 57.1994 34.6077 57.1994 37.5443C57.1994 39.8228 57.1994 39.8228 59.4781 39.8228C59.9845 39.8228 60.5416 39.8228 61.048 39.8228C62.5165 39.8228 62.3646 39.6202 62.3646 41.1898C62.3646 43.4176 62.3646 43.4176 60.1871 43.4176C59.3769 43.4176 58.5666 43.4176 57.7564 43.4176C57.3006 43.4176 57.1487 43.5695 57.1487 44.0252C57.1994 45.0885 57.1487 46.1518 57.25 47.2151C57.3513 48.9365 58.7692 50.253 60.4909 50.2024C60.8454 50.253 61.1999 50.253 61.5544 50.2024C62.2127 50.1011 62.4152 50.4049 62.3646 51.0631C62.3646 51.3669 62.3646 51.7213 62.3646 52.0251C62.3646 54.1517 62.3646 54.1517 60.1871 53.9998C56.3385 53.8479 53.3001 50.6074 53.4014 46.7594C53.3508 44.9366 53.4014 43.1139 53.4014 41.3417Z" fill="white"/>
<path d="M75.1738 63.9743C75.1738 64.7844 75.2244 65.5945 75.1738 66.4046C75.0725 67.9742 73.8065 69.1387 72.2367 69.1387C70.6669 69.0881 69.4009 67.9236 69.2996 66.4046C69.1984 64.8856 70.2618 63.5692 71.7303 63.316C71.8316 63.316 71.9329 63.316 72.0342 63.2654C72.6418 63.1135 73.4014 63.4679 73.8572 63.0629C74.2623 62.6578 74.0091 61.949 74.0091 61.3414C74.0091 60.8857 74.2623 60.8351 74.6168 60.8351C75.0725 60.8351 75.1232 61.0882 75.1232 61.4427C75.1738 62.3034 75.1738 63.1641 75.1738 63.9743ZM74.0598 65.6451C73.9078 65.1894 74.2623 64.6831 73.7559 64.43C72.7938 64.2274 71.781 64.4299 70.9707 64.9363C70.4643 65.4426 70.3124 66.1514 70.6163 66.8097C70.8695 67.5185 71.5278 67.9742 72.2367 67.9236C72.9457 67.9742 73.6546 67.4679 73.8572 66.8097C73.9585 66.4552 74.0598 66.0502 74.0598 65.6451Z" fill="white"/>
<path d="M59.3757 69.1893C58.9199 69.1893 58.4641 69.1893 58.0084 69.1893C57.502 69.2399 57.2994 69.0374 57.2994 68.5311C57.2994 67.9741 57.6033 67.9741 57.9577 67.9741C58.8186 67.9741 59.7301 67.9741 60.591 67.9741C60.9961 67.9741 61.2999 67.8729 61.3506 67.4172C61.4012 66.9109 61.0468 66.759 60.591 66.759C59.8314 66.759 59.1225 66.759 58.3629 66.759C57.4514 66.759 56.6918 65.9995 56.6411 65.0881C56.5905 64.1767 57.1982 63.4172 58.1097 63.316C59.2237 63.2147 60.3378 63.2654 61.5025 63.2147C61.9583 63.2147 61.9583 63.5185 61.9583 63.8729C61.9583 64.278 61.8063 64.4299 61.4012 64.4299C60.5404 64.4299 59.6289 64.4299 58.768 64.4299C58.3122 64.4299 57.8565 64.4805 57.9071 65.0881C57.9578 65.5944 58.3629 65.6451 58.768 65.6451C59.4769 65.6451 60.1859 65.6451 60.8948 65.6451C61.8063 65.6451 62.5659 66.4045 62.5659 67.3159C62.6166 68.2273 61.9076 69.0374 60.9961 69.088C60.4897 69.1387 59.9327 69.1387 59.3757 69.1893Z" fill="white"/>
<path d="M35.5759 63.3167C35.8291 63.3167 36.0823 63.3673 36.3355 63.4179C37.8041 63.8736 37.956 64.4812 36.8926 65.5445C36.2849 66.1521 35.6772 66.7597 35.1202 67.3166C34.9683 67.4685 34.7657 67.6204 34.9176 67.8229C35.0189 67.9242 35.2215 67.9242 35.3734 67.9748C35.8291 68.0255 36.2849 67.8229 36.5887 67.4685C37.0445 66.9622 37.247 67.266 37.6015 67.5698C38.0573 68.0255 37.6015 68.1774 37.3483 68.3799C36.3862 69.2913 34.9683 69.4432 33.8542 68.7343C32.6895 68.0255 32.1831 66.6584 32.5376 65.342C32.9427 64.0762 34.2087 63.2154 35.5759 63.3167ZM33.7529 66.9622C34.5632 66.2533 35.3227 65.4939 36.0317 64.6331C34.4112 64.2281 33.4997 65.0888 33.7529 66.9622Z" fill="white"/>
<path d="M53.3487 63.3163C54.9185 63.2657 56.2351 64.4808 56.3364 66.0504C56.3364 66.1011 56.3364 66.1517 56.3364 66.2023C56.3364 67.8226 55.0704 69.1896 53.45 69.2403C51.8295 69.2403 50.5129 67.9238 50.4116 66.3036C50.4116 64.6327 51.7282 63.3163 53.3487 63.3163ZM55.2224 66.2023C55.1717 65.2403 54.4121 64.4808 53.45 64.4302C52.4372 64.4302 51.627 65.291 51.6776 66.253C51.7282 67.215 52.4878 67.9745 53.45 67.9745C54.4121 67.9745 55.1717 67.1643 55.2224 66.2023Z" fill="white"/>
<path d="M63.0747 65.1387C63.0747 64.7337 63.0747 64.278 63.0747 63.8729C63.024 63.4172 63.176 63.2654 63.6823 63.2654C64.1887 63.2654 64.29 63.5185 64.2394 63.9236C64.2394 64.6831 64.1887 65.3919 64.2394 66.1514C64.1887 67.1134 64.9483 67.9741 65.9611 68.0248H66.0118C67.0246 68.0248 67.7841 67.2147 67.7841 66.202C67.7841 66.1514 67.7841 66.1008 67.7841 66.0501C67.7841 65.2906 67.7841 64.5818 67.7841 63.8223C67.7841 63.4172 67.9361 63.2654 68.3412 63.2654C68.6957 63.2654 69.0501 63.2654 68.9995 63.8223C68.9489 64.7337 69.0501 65.6451 68.9489 66.5564C68.7969 68.0754 67.4297 69.2399 65.9105 69.1893C64.3407 69.1387 63.0747 67.7716 63.1253 66.202C63.024 65.8476 63.0747 65.4932 63.0747 65.1387Z" fill="white"/>
<path d="M44.1827 67.417C44.1827 67.822 44.1827 68.2777 44.1827 68.6828C44.1827 69.0878 43.9801 69.2397 43.575 69.2397C43.1699 69.2397 42.9167 69.1891 42.9167 68.6828C42.9673 67.9233 42.9167 67.1132 42.9167 66.3537C42.9673 65.3917 42.2077 64.5309 41.2456 64.4803H41.1949C40.2328 64.4803 39.4226 65.2398 39.4226 66.2018C39.3719 66.9613 39.3719 67.7714 39.4226 68.5309C39.4226 68.9866 39.3213 69.2397 38.7642 69.2397C38.2578 69.2397 38.2579 68.8853 38.2579 68.5309C38.2579 67.7714 38.2579 67.0625 38.2579 66.3031C38.1566 64.7335 39.3719 63.3664 40.9417 63.3158H40.9924C42.6128 63.2145 44.0307 64.4297 44.132 66.0499C44.132 66.1005 44.132 66.1005 44.132 66.1512C44.2333 66.5562 44.1827 66.9613 44.1827 67.417Z" fill="white"/>
<path d="M29.4477 63.2655C30.1566 63.2149 30.8656 63.4681 31.372 63.9744C31.5745 64.1769 32.1822 64.3288 31.6758 64.8351C31.3214 65.1896 31.1188 65.3414 30.663 64.9364C30.0554 64.2782 28.9919 64.2275 28.3336 64.8858C28.283 64.9364 28.2323 64.987 28.1817 65.0883C27.6247 65.7465 27.6247 66.7591 28.2323 67.4174C28.9413 68.1768 29.8022 68.2275 30.7643 67.468C31.2201 67.1136 31.372 67.2655 31.7265 67.5693C32.1822 67.9743 31.8277 68.1768 31.5745 68.3794C30.6124 69.2907 29.1945 69.4426 28.0298 68.7844C26.9157 68.1262 26.308 66.8098 26.6625 65.544C26.9157 64.1769 28.0804 63.2655 29.4477 63.2655Z" fill="white"/>
<path d="M44.5896 66.2026C44.539 65.0381 45.1973 63.9748 46.2607 63.5191C47.3242 63.0128 48.5395 63.1647 49.4004 63.9748C49.6536 64.1773 50.16 64.3799 49.6536 64.8862C49.2991 65.2406 49.0459 65.3419 48.6408 64.9368C48.0838 64.3799 47.2229 64.2786 46.6152 64.6837C46.0075 64.9874 45.6531 65.6457 45.7037 66.3545C45.7543 67.0634 46.2607 67.6709 46.9697 67.8735C47.5774 68.076 48.2863 67.9241 48.6914 67.4178C49.0965 67.0127 49.2991 67.1646 49.6029 67.519C50.0081 67.9241 49.7549 68.1266 49.451 68.3798C48.6408 69.1899 47.3748 69.4431 46.3114 68.9874C45.2986 68.5317 44.539 67.4178 44.5896 66.2026Z" fill="white"/>
<path d="M38.917 45.7469C38.917 48.0759 38.9676 50.405 38.917 52.7341C38.917 53.4429 39.1702 53.6455 39.8285 53.6455C42.3098 53.6961 42.2592 53.6961 42.3098 51.2658C42.3098 50 42.1073 48.7342 42.4617 47.519C42.4617 49.443 42.4617 51.4177 42.5124 53.3417C42.5124 53.8986 42.3605 54.0505 41.8034 54.0505C38.7144 54.1518 38.7144 54.2024 38.7144 51.1139C38.7651 49.2911 38.5119 47.519 38.917 45.7469Z" fill="white"/>
<path d="M49.146 53.7977L52.792 53.7977C51.6273 54.1015 50.3613 54.1015 49.146 53.7977Z" fill="white"/>
<path d="M51.1727 42.4048C50.6156 42.4048 50.3624 42.1516 50.4131 41.6453C50.7169 41.7972 50.9701 42.0503 51.1727 42.4048Z" fill="white"/>
<path d="M46.1091 39.9246C45.8559 40.1271 45.552 40.1271 45.2988 39.9246H46.1091Z" fill="white"/>
<path d="M52.4868 44.6833C52.3349 44.582 52.2843 44.4301 52.3349 44.2276C52.4362 44.3795 52.4868 44.5314 52.4868 44.6833Z" fill="white"/>
<path d="M48.9423 45.7976C49.0942 45.8988 49.1449 46.1014 49.0942 46.2533C48.9423 46.1014 48.8917 45.9495 48.9423 45.7976Z" fill="white"/>
<path d="M44.236 40.0766C44.1347 40.2285 43.9322 40.2791 43.7803 40.2285C43.8816 40.1272 44.0841 40.0766 44.236 40.0766Z" fill="white"/>
<path d="M52.8417 46.8097C52.8417 46.7591 52.791 46.7084 52.791 46.6578L52.8417 46.6072C52.8923 46.6578 52.8923 46.7591 52.8417 46.8097Z" fill="white"/>
<path d="M44.793 40.0256C44.7424 40.0256 44.6918 40.0762 44.6411 40.0256C44.6918 39.975 44.7424 39.975 44.793 40.0256Z" fill="white"/>
<path d="M13.2934 48.0763C13.2934 47.4181 13.3441 46.7596 13.4454 46.1014C13.9011 44.5318 15.4203 43.5192 17.0914 43.7217C18.7119 43.9749 19.9272 45.3926 19.9272 47.0634C19.8766 48.7343 18.56 50.1014 16.8382 50.2533C16.3825 50.3039 15.9267 50.2533 15.471 50.2533C13.2935 50.2026 13.2934 50.2029 13.2934 48.0763Z" fill="#7F2684"/>
<path d="M69.8586 50.8606C68.0862 50.9112 66.6683 49.4935 66.6177 47.7214C66.6177 47.6707 66.6177 47.6201 66.6177 47.5695C66.6683 45.7973 68.0862 44.3796 69.8586 44.329C71.6816 44.329 73.1502 45.7973 73.1502 47.6201C73.2008 49.4429 71.7323 50.8606 69.8586 50.8606C69.9092 50.8606 69.9092 50.8606 69.8586 50.8606Z" fill="#7F2684"/>
<path d="M74.0598 65.6451C74.0091 66.0502 73.9585 66.4552 73.8572 66.8097C73.6546 67.5185 72.9963 67.9742 72.2367 67.9236C71.5278 67.9742 70.8188 67.4679 70.6163 66.8097C70.3124 66.1514 70.4643 65.4426 70.9707 64.9363C71.781 64.3793 72.7938 64.1768 73.7559 64.43C74.2623 64.7337 73.9078 65.1894 74.0598 65.6451Z" fill="#7F2684"/>
<path d="M33.7514 66.9622C33.5488 65.0888 34.4097 64.2281 36.0301 64.6331C35.3212 65.4939 34.5616 66.2533 33.7514 66.9622Z" fill="#7F2684"/>
<path d="M55.2224 66.2023C55.1717 67.1643 54.4121 67.9238 53.45 67.9745C52.4878 67.9745 51.6776 67.215 51.6776 66.253C51.6776 65.2403 52.4878 64.4302 53.45 64.4302C54.4121 64.4808 55.1717 65.291 55.2224 66.2023Z" fill="#7F2684"/>
</svg>
