<svg width="152" height="162" viewBox="0 0 152 162" fill="none" xmlns="http://www.w3.org/2000/svg">
<mask id="mask0_2720_3416" style="mask-type:alpha" maskUnits="userSpaceOnUse" x="0" y="0" width="152" height="162">
<path d="M151 87C151 128.421 117.421 162 75.9996 162C34.5783 162 0.999616 128.421 0.999616 87C0.999616 45.5786 -3.50002 0 63.4996 0C158 0 151 45.5786 151 87Z" fill="#D9D9D9"/>
</mask>
<g mask="url(#mask0_2720_3416)">
<path d="M50.7347 106.048L83.6628 110.652C83.6628 110.652 77.9152 119.63 63.5261 124.961C59.9612 126.281 53.5537 132.466 51.6462 138.616L40.048 140.956C40.048 140.956 49.2385 119.336 50.7347 106.048Z" fill="#F2DBC4"/>
<path d="M60.2587 108.246C60.2587 108.246 60.0393 111.402 58.5661 115.71C58.5661 115.71 62.2399 112.306 83.6646 110.652L60.2587 108.246Z" fill="#D0AB8C"/>
<rect x="50.959" y="27.2532" width="48" height="100" rx="7.57143" transform="rotate(-1.7555 50.959 27.2532)" fill="white" stroke="black" stroke-width="1.5"/>
<rect x="65.9174" y="50.5355" width="20.6364" height="4.12727" rx="2.06364" transform="rotate(-2 65.9174 50.5355)" fill="#9D7B44"/>
<rect x="65.3733" y="45.1714" width="20.6364" height="4.12727" rx="2.06364" transform="rotate(-2 65.3733 45.1714)" fill="#69C583"/>
<rect x="64.4855" y="47.2686" width="22.7" height="4.12727" rx="2.06364" transform="rotate(-2 64.4855 47.2686)" fill="#AE524A"/>
<path d="M64.0526 55.6331C64.0128 54.4941 64.9039 53.5385 66.043 53.4987L86.6668 52.7785C87.8058 52.7387 88.7614 53.6299 88.8012 54.7689C88.841 55.9079 87.9498 56.8635 86.8108 56.9033L66.187 57.6235C65.048 57.6633 64.0924 56.7721 64.0526 55.6331Z" fill="#E9AD56"/>
<circle cx="0.515909" cy="0.515909" r="0.515909" transform="matrix(-0.999391 0.0348995 0.0348995 0.999391 85.1226 54.7701)" fill="#D27E05"/>
<circle cx="0.515909" cy="0.515909" r="0.515909" transform="matrix(-0.999391 0.0348995 0.0348995 0.999391 76.9066 54.7701)" fill="#D27E05"/>
<circle cx="0.515909" cy="0.515909" r="0.515909" transform="matrix(-0.999391 0.0348995 0.0348995 0.999391 68.6121 55.802)" fill="#D27E05"/>
<path d="M88.3605 44.8228C88.366 44.9782 88.2444 45.1085 88.0891 45.1139L63.903 45.9585C63.7477 45.9639 63.6174 45.8424 63.612 45.6871C63.5252 43.2019 65.4694 41.117 67.9546 41.0302L83.7037 40.4802C86.1888 40.3934 88.2738 42.3377 88.3605 44.8228Z" fill="#E9AD56"/>
<circle cx="68.669" cy="42.6944" r="0.515909" transform="rotate(-2 68.669 42.6944)" fill="#D27E05"/>
<circle cx="73.3457" cy="43.5639" r="0.515909" transform="rotate(-2 73.3457 43.5639)" fill="#D27E05"/>
<circle cx="78.4661" cy="42.3528" r="0.515909" transform="rotate(-2 78.4661 42.3528)" fill="#D27E05"/>
<circle cx="84.1737" cy="43.1851" r="0.515909" transform="rotate(-2 84.1737 43.1851)" fill="#D27E05"/>
<rect x="65.9174" y="74.9144" width="20.6364" height="4.12727" rx="2.06364" transform="rotate(-2 65.9174 74.9144)" fill="#9D7B44"/>
<rect x="65.3733" y="69.5504" width="20.6364" height="4.12727" rx="2.06364" transform="rotate(-2 65.3733 69.5504)" fill="#69C583"/>
<rect x="64.4855" y="71.6475" width="22.7" height="4.12727" rx="2.06364" transform="rotate(-2 64.4855 71.6475)" fill="#AE524A"/>
<path d="M64.0526 80.012C64.0128 78.873 64.9039 77.9174 66.043 77.8776L86.6668 77.1574C87.8058 77.1177 88.7614 78.0088 88.8012 79.1478C88.841 80.2868 87.9498 81.2424 86.8108 81.2822L66.187 82.0024C65.048 82.0422 64.0924 81.151 64.0526 80.012Z" fill="#E9AD56"/>
<circle cx="0.515909" cy="0.515909" r="0.515909" transform="matrix(-0.999391 0.0348995 0.0348995 0.999391 85.1226 79.149)" fill="#D27E05"/>
<circle cx="0.515909" cy="0.515909" r="0.515909" transform="matrix(-0.999391 0.0348995 0.0348995 0.999391 76.9066 79.149)" fill="#D27E05"/>
<circle cx="0.515909" cy="0.515909" r="0.515909" transform="matrix(-0.999391 0.0348995 0.0348995 0.999391 68.6121 80.1809)" fill="#D27E05"/>
<path d="M88.3605 69.2017C88.366 69.3571 88.2444 69.4874 88.0891 69.4928L63.903 70.3374C63.7477 70.3428 63.6174 70.2213 63.612 70.066C63.5252 67.5808 65.4694 65.4959 67.9546 65.4091L83.7037 64.8591C86.1888 64.7723 88.2738 66.7166 88.3605 69.2017Z" fill="#E9AD56"/>
<circle cx="68.669" cy="67.0733" r="0.515909" transform="rotate(-2 68.669 67.0733)" fill="#D27E05"/>
<circle cx="73.3457" cy="67.9428" r="0.515909" transform="rotate(-2 73.3457 67.9428)" fill="#D27E05"/>
<circle cx="78.4661" cy="66.7317" r="0.515909" transform="rotate(-2 78.4661 66.7317)" fill="#D27E05"/>
<circle cx="84.1737" cy="67.564" r="0.515909" transform="rotate(-2 84.1737 67.564)" fill="#D27E05"/>
<rect x="65.9174" y="99.2933" width="20.6364" height="4.12727" rx="2.06364" transform="rotate(-2 65.9174 99.2933)" fill="#9D7B44"/>
<rect x="65.3733" y="93.9293" width="20.6364" height="4.12727" rx="2.06364" transform="rotate(-2 65.3733 93.9293)" fill="#69C583"/>
<rect x="64.4855" y="96.0264" width="22.7" height="4.12727" rx="2.06364" transform="rotate(-2 64.4855 96.0264)" fill="#AE524A"/>
<path d="M64.0526 104.391C64.0128 103.252 64.9039 102.296 66.043 102.257L86.6668 101.536C87.8058 101.497 88.7614 102.388 88.8012 103.527C88.841 104.666 87.9498 105.621 86.8108 105.661L66.187 106.381C65.048 106.421 64.0924 105.53 64.0526 104.391Z" fill="#E9AD56"/>
<circle cx="0.515909" cy="0.515909" r="0.515909" transform="matrix(-0.999391 0.0348995 0.0348995 0.999391 85.1226 103.528)" fill="#D27E05"/>
<circle cx="0.515909" cy="0.515909" r="0.515909" transform="matrix(-0.999391 0.0348995 0.0348995 0.999391 76.9066 103.528)" fill="#D27E05"/>
<circle cx="0.515909" cy="0.515909" r="0.515909" transform="matrix(-0.999391 0.0348995 0.0348995 0.999391 68.6121 104.56)" fill="#D27E05"/>
<path d="M88.3605 93.5806C88.366 93.736 88.2444 93.8663 88.0891 93.8717L63.903 94.7163C63.7477 94.7217 63.6174 94.6002 63.612 94.4449C63.5252 91.9597 65.4694 89.8748 67.9546 89.788L83.7037 89.238C86.1888 89.1513 88.2738 91.0955 88.3605 93.5806Z" fill="#E9AD56"/>
<circle cx="68.669" cy="91.4522" r="0.515909" transform="rotate(-2 68.669 91.4522)" fill="#D27E05"/>
<circle cx="73.3457" cy="92.3217" r="0.515909" transform="rotate(-2 73.3457 92.3217)" fill="#D27E05"/>
<circle cx="78.4661" cy="91.1106" r="0.515909" transform="rotate(-2 78.4661 91.1106)" fill="#D27E05"/>
<circle cx="84.1737" cy="91.9429" r="0.515909" transform="rotate(-2 84.1737 91.9429)" fill="#D27E05"/>
<path d="M62.1782 27.1949L86.167 26.4597C86.2177 28.1158 84.9163 29.4995 83.2603 29.5502L65.2687 30.1016C63.6126 30.1524 62.229 28.851 62.1782 27.1949Z" fill="black"/>
<path d="M96.7812 76.2533C92.7141 74.2477 95.9002 66.017 100.894 64.1915L101.847 93.8193C101.536 93.9314 97.0369 95.6485 96.7099 95.6936C92.2266 95.9028 93.4352 89.3842 96.8599 86.4422C92.6744 86.5388 93.3286 79.4397 96.7812 76.2533Z" fill="#D0AB8C"/>
<path d="M98.5348 95.8803C99.6075 95.8223 101.417 94.7051 102.628 93.8819C105.241 92.1564 107.954 89.8311 106.31 86.7919C105.803 85.878 105.199 85.3294 104.33 85.0177C102.126 84.2063 98.7806 86.1213 97.2163 88.1974C94.8607 91.3864 95.0547 96.3343 98.5348 95.8803Z" fill="#F2DBC4"/>
<path d="M97.9868 87.3058C99.9211 85.5212 102.806 84.0532 104.9 85.2788C102.62 86.7635 99.7366 89.2503 97.2159 88.1985C97.4481 87.8804 97.706 87.5819 97.9868 87.3058Z" fill="#D0AB8C"/>
<path d="M52.6969 52.1366L48.166 96.0648L59.8195 125.996C59.8195 125.996 66.0237 112.339 59.8952 97.2714C53.7667 82.2034 51.2954 85.7064 52.7555 69.4694C52.7555 69.4694 55.0925 66.4864 56.2138 63.8332C58.7273 57.8819 55.0982 52.3224 52.6969 52.1366Z" fill="#D0AB8C"/>
<path d="M99.0191 86.8429C100.55 86.6447 102.994 84.8358 104.637 83.7699C108.194 81.6441 110.585 77.4406 106.955 74.4655C104.316 72.6004 101.113 74.355 98.7442 76.3377C95.1986 79.1959 94.2314 87.4535 99.0191 86.8429Z" fill="#F2DBC4"/>
<path d="M98.7456 76.3382C101.114 74.3555 104.318 72.6008 106.956 74.4659C106.31 75.0042 105.634 75.5055 104.932 75.9674C102.672 77.4312 99.6283 79.6689 97.5441 77.6717C97.895 77.1848 98.2979 76.7377 98.7456 76.3382Z" fill="#D0AB8C"/>
<path d="M100.062 76.6086C101.387 76.5707 103.642 75.1555 105.117 74.1458C113.83 69.7219 108.841 59.3233 100.519 65.751C95.9552 68.8639 95.3205 77.1099 100.062 76.6086Z" fill="#F2DBC4"/>
<path d="M15.216 132.165L4.38483 144.201L41.7377 148.041C45.4248 142.893 53.4282 138.026 56.6756 131.707C58.5745 126.619 65.1871 121.671 60.7848 106.115C56.3825 90.5588 47.7533 90.1125 50.9279 69.2849C58.3698 61.6778 55.3087 46.6647 49.4121 54.1552C38.8472 69.1362 33.0211 83.9189 30.8498 100.849C30.2791 105.283 22.5732 116.069 19.8958 119.649C15.9045 122.694 22.9039 128.095 15.216 132.165Z" fill="#F2DBC4"/>
<path d="M42.2901 179.056C39.9153 183.986 35.512 192.2 33.704 195.279L-24 169.064C-17.1551 156.328 4.86756 116.639 19.8922 119.647C45.3212 146.112 59.8489 128.534 51.6089 156.562C49.2673 164.088 45.7482 171.971 42.2901 179.056Z" fill="#6738E3"/>
<path d="M53.3357 149.646C23.5776 145.459 9.03576 123.356 9.03576 123.356C16.728 117.552 20.3005 119.553 19.8948 119.642C35.2201 135.422 51.6493 138.61 51.6493 138.61C53.9224 140.585 54.225 144.609 53.3357 149.646Z" fill="#7A50E8"/>
<path d="M48.755 164.581C42.0296 163.382 35.4641 161.416 29.1867 158.721C28.6847 158.504 28.1835 158.284 27.6868 158.058C20.6258 154.854 14.0384 150.695 8.10888 145.698C4.26954 142.471 0.735615 138.897 -2.4481 135.022C-0.43399 132.514 1.44196 130.396 3.1808 128.608C6.33011 132.605 9.88957 136.262 13.8009 139.518C24.5784 148.516 37.2677 154.232 51.6076 156.564C50.8084 159.153 49.8341 161.855 48.755 164.581Z" fill="#7A50E8"/>
<path d="M42.2907 179.054C34.7072 177.854 27.4689 175.78 20.6801 172.848C20.1778 172.631 19.678 172.41 19.1806 172.184C12.1196 168.98 5.53196 164.822 -0.39774 159.825C-4.57881 156.311 -8.39456 152.385 -11.787 148.104C-10.0522 145.42 -8.39008 142.981 -6.79991 140.767C-4.57727 143.852 -0.61308 148.709 5.29889 153.642C16.8005 163.249 30.4717 169.107 46.0063 171.112C44.7888 173.852 43.5254 176.535 42.2907 179.054Z" fill="#7A50E8"/>
<path d="M160.228 108.903C158.803 111.579 151.416 133.869 170.872 134.118C175.121 113.84 166.915 98.8059 160.228 108.903Z" fill="#F2DBC4"/>
<path d="M120.724 169.55C120.724 169.55 122.221 160.591 122.414 153.589C122.667 144.439 119.427 121.054 128.891 106.885L168.312 116.995C168.312 116.995 173.09 119.984 170.59 136.103C166.39 163.197 160.186 176.134 162.196 191.638L120.724 169.55Z" fill="#F2DBC4"/>
<path d="M103.351 104.588C102.989 106.286 103.551 109.065 105.213 112.876C111.084 126.328 112.244 135.639 122.723 154.136C129.789 166.606 148.102 154.858 139.497 143.432C133.368 135.536 130.264 125.387 123.067 120.042C120.715 118.271 118.509 116.314 116.472 114.188C114.868 108.587 113.309 106.558 111.026 104.697C106.964 101.391 103.934 101.85 103.351 104.588Z" fill="#F2DBC4"/>
<path d="M118.511 168.649L166.932 194.435C166.266 189.115 163.872 181.902 162.223 178.82C149.087 178.469 133.335 173.131 121.148 166.789C121.145 166.787 119.912 167.298 118.511 168.649Z" fill="#1D3F70"/>
<path d="M148.501 114.376C148.468 119.73 156.628 123.39 159.99 117.568C166.221 105.099 157.617 99.5745 152.576 101.684C150.149 102.7 148.507 113.408 148.501 114.376Z" fill="#F2DBC4"/>
<path d="M149.765 110.21C149.706 110.589 149.592 110.956 149.426 111.301C149.426 111.301 149.411 111.329 149.403 111.344C149.4 111.347 149.398 111.35 149.398 111.354C148.779 112.386 149.378 114.016 149.372 114.983C155.907 108.123 152.577 101.685 152.577 101.685C150.149 102.7 149.777 110.092 149.765 110.21Z" fill="#D0AB8C"/>
<path d="M137.743 105.844C137.258 107.665 137.049 109.549 137.123 111.433C137.173 112.738 137.387 114.032 137.758 115.285C137.916 115.838 138.124 116.375 138.381 116.889C141.849 126.087 151.867 120.93 151.492 105.591C151.307 98.0518 144.918 96.9406 140.914 99.817C139.95 100.502 139.161 101.405 138.61 102.452C138.059 103.499 137.762 104.661 137.743 105.844Z" fill="#F2DBC4"/>
<path d="M137.744 105.844C137.189 107.964 137.757 115.287 137.757 115.287C142.663 106.98 140.919 99.8172 140.915 99.8151C139.951 100.501 139.161 101.404 138.61 102.451C138.059 103.498 137.762 104.661 137.744 105.844Z" fill="#D0AB8C"/>
<path d="M124.99 78.263C127.479 95.041 125.01 107.771 122.862 121.326C122.598 128.139 118.698 135.135 126.802 139.651C147.893 147.525 138.291 93.4337 133.555 74.9412C129.262 61.4 122.18 67.6345 124.99 78.263Z" fill="#F2DBC4"/>
<path d="M116.471 114.189C121.376 120.787 122.455 128.218 122.455 128.218C122.532 123.041 123.067 120.042 123.067 120.042C120.715 118.271 118.51 116.314 116.471 114.189Z" fill="#D0AB8C"/>
</g>
</svg>
