<svg width="233" height="60" viewBox="0 0 233 60" fill="none" xmlns="http://www.w3.org/2000/svg">
<path d="M193.628 13.3792C193.285 12.985 192.753 12.7269 192.102 12.7269C191.45 12.7269 190.902 12.985 190.558 13.3792C190.095 13.8935 189.975 14.4589 189.975 16.8083C189.975 19.1577 190.095 19.7241 190.558 20.2384C190.902 20.6326 191.45 20.8898 192.102 20.8898C192.753 20.8898 193.285 20.6326 193.628 20.2384C194.091 19.7241 194.228 19.1577 194.228 16.8083C194.228 14.4589 194.091 13.8935 193.628 13.3792ZM195.394 21.6783C194.536 22.5358 193.491 23.0161 192.102 23.0161C190.713 23.0161 189.649 22.5358 188.792 21.6783C187.557 20.4435 187.592 18.9176 187.592 16.8083C187.592 14.699 187.557 13.1731 188.792 11.9384C189.649 11.0818 190.713 10.6006 192.102 10.6006C193.491 10.6006 194.536 11.0818 195.394 11.9384C196.628 13.1731 196.611 14.699 196.611 16.8083C196.611 18.9176 196.628 20.4435 195.394 21.6783Z" fill="#D6006D"/>
<path d="M205.581 22.9125L200.745 15.4189V22.9125H198.361V10.7031H200.489L205.324 18.1796V10.7031H207.708V22.9125H205.581Z" fill="#D6006D"/>
<path d="M210.212 22.9125V10.7031H218.255V12.8294H212.595V15.6931H217.414V17.8194H212.595V20.7862H218.255V22.9125H210.212Z" fill="#D6006D"/>
<path d="M192.085 38.4379C190.747 38.4379 189.65 37.9586 188.793 37.1002C187.557 35.8664 187.593 34.3395 187.593 32.2312C187.593 30.1219 187.557 28.595 188.793 27.3603C189.65 26.5028 190.747 26.0234 192.085 26.0234C194.365 26.0234 196.149 27.3262 196.577 29.8818H194.16C193.92 28.9042 193.302 28.1497 192.103 28.1497C191.45 28.1497 190.919 28.3899 190.576 28.7841C190.112 29.2984 189.975 29.8818 189.975 32.2312C189.975 34.5796 190.112 35.163 190.576 35.6773C190.919 36.0715 191.45 36.3117 192.103 36.3117C193.302 36.3117 193.92 35.5572 194.16 34.5796H196.577C196.149 37.1351 194.349 38.4379 192.085 38.4379Z" fill="#D6006D"/>
<path d="M197.95 38.3353V26.126H200.334V36.2081H204.698V38.3353H197.95Z" fill="#D6006D"/>
<path d="M208.77 26.125H206.387V38.3344H208.77V26.125Z" fill="#D6006D"/>
<path d="M215.717 38.4379C214.38 38.4379 213.283 37.9586 212.425 37.1002C211.191 35.8664 211.225 34.3395 211.225 32.2312C211.225 30.1219 211.191 28.595 212.425 27.3603C213.283 26.5028 214.38 26.0234 215.717 26.0234C217.998 26.0234 219.782 27.3262 220.21 29.8818H217.793C217.553 28.9042 216.935 28.1497 215.734 28.1497C215.083 28.1497 214.552 28.3899 214.209 28.7841C213.745 29.2984 213.608 29.8818 213.608 32.2312C213.608 34.5796 213.745 35.163 214.209 35.6773C214.552 36.0715 215.083 36.3117 215.734 36.3117C216.935 36.3117 217.553 35.5572 217.793 34.5796H220.21C219.782 37.1351 217.982 38.4379 215.717 38.4379Z" fill="#D6006D"/>
<path d="M228.714 38.3353L225.576 32.78L223.998 34.6651V38.3353H221.614V26.126H223.998V31.4412L228.302 26.126H231.2L227.153 30.9789L231.491 38.3353H228.714Z" fill="#D6006D"/>
<path d="M8.59129 51.6175C9.09326 51.6175 9.49985 51.2082 9.49985 50.7033C9.49985 50.1994 9.09326 49.7891 8.59129 49.7891C8.0911 49.7891 7.68457 50.1994 7.68457 50.7033C7.68457 51.2082 8.0911 51.6175 8.59129 51.6175Z" fill="#009FE3"/>
<path d="M78.8764 58.7835C79.3784 58.7835 79.785 58.3742 79.785 57.8693C79.785 57.3644 79.3784 56.9541 78.8764 56.9541C78.3753 56.9541 77.9697 57.3644 77.9697 57.8693C77.9697 58.3742 78.3753 58.7835 78.8764 58.7835Z" fill="#69246F"/>
<path d="M35.8823 53.2443V53.2415C35.8794 52.2214 35.5258 51.362 34.8839 50.7815L34.8385 50.7418L34.8281 50.7323H34.8262C34.2221 50.2124 33.4033 49.9391 32.4333 49.9306C32.4295 49.9297 32.422 49.9287 32.4125 49.9287C32.403 49.9287 32.3945 49.9297 32.3851 49.9306H32.3784C32.3491 49.9306 32.3293 49.9315 32.3151 49.9315C32.3038 49.9315 32.2858 49.9306 32.2641 49.9306H32.2499C32.2423 49.9306 32.2329 49.9287 32.2215 49.9287H32.2177H32.213C32.2083 49.9287 32.2007 49.9287 32.1941 49.9306C31.226 49.941 30.411 50.2133 29.8088 50.7323H29.806L29.7502 50.7815C29.1101 51.3592 28.7575 52.2157 28.7527 53.2292L28.7517 53.2302V53.2349L28.7461 58.483C28.7461 58.552 28.7763 58.6211 28.8283 58.6702C28.8804 58.7203 28.9531 58.7487 29.0279 58.7487H29.9619C30.0347 58.7487 30.1075 58.7203 30.1605 58.6702C30.2134 58.6211 30.2427 58.552 30.2427 58.483L30.2446 53.4117C30.2503 52.6686 30.4403 52.142 30.7835 51.794C31.1153 51.4565 31.6231 51.2665 32.3208 51.2533C33.0129 51.2665 33.5187 51.4565 33.8515 51.794C34.1937 52.142 34.3837 52.6686 34.3894 53.4126L34.3885 58.483C34.3885 58.552 34.4187 58.6211 34.4698 58.6702C34.5237 58.7203 34.5964 58.7487 34.6693 58.7487H35.6052C35.679 58.7487 35.7518 58.7203 35.8038 58.6702C35.8577 58.6211 35.887 58.552 35.887 58.483L35.8823 53.2443Z" fill="#D6006D"/>
<path d="M68.4497 53.2443V53.2415C68.4478 52.2214 68.0941 51.362 67.4513 50.7815L67.4059 50.7418L67.3964 50.7323H67.3936C66.7894 50.2124 65.9716 49.9391 65.0016 49.9306C64.9979 49.9297 64.9893 49.9287 64.9809 49.9287C64.9714 49.9287 64.9628 49.9297 64.9534 49.9306H64.9458C64.9175 49.9306 64.8976 49.9315 64.8834 49.9315C64.8712 49.9315 64.8541 49.9306 64.8324 49.9306H64.8173C64.8106 49.9306 64.8012 49.9287 64.7889 49.9287H64.7861H64.7814C64.7757 49.9287 64.7691 49.9287 64.7615 49.9306C63.7943 49.941 62.9794 50.2133 62.3762 50.7323H62.3733L62.3185 50.7815C61.6784 51.3592 61.3248 52.2157 61.3201 53.2292V53.2302L61.3191 53.2349L61.3135 58.483C61.3135 58.552 61.3437 58.6211 61.3957 58.6702C61.4487 58.7203 61.5215 58.7487 61.5952 58.7487H62.5293C62.6021 58.7487 62.6749 58.7203 62.7279 58.6702C62.7808 58.6211 62.8101 58.552 62.8101 58.483L62.812 53.4117C62.8186 52.6686 63.0087 52.142 63.3509 51.794C63.6837 51.4565 64.1905 51.2665 64.8891 51.2533C65.5802 51.2665 66.0861 51.4565 66.4189 51.794C66.762 52.142 66.9511 52.6686 66.9578 53.4126L66.9559 58.483C66.9559 58.552 66.9861 58.6211 67.0381 58.6702C67.0911 58.7203 67.1638 58.7487 67.2376 58.7487H68.1735C68.2473 58.7487 68.3192 58.7203 68.3721 58.6702C68.4251 58.6211 68.4543 58.552 68.4543 58.483L68.4497 53.2443Z" fill="#D6006D"/>
<path d="M51.2619 50.8248C51.2572 50.8181 51.2524 50.8125 51.2458 50.8058C50.7135 50.3161 49.8626 50.0117 48.8775 50.0107C48.8643 50.0088 48.8434 50.0088 48.8236 50.0088C48.0134 50.0088 47.2145 50.1781 46.5186 50.7727V50.2518H46.5195V47.6065C46.5195 47.5365 46.4903 47.4684 46.4382 47.4193C46.3853 47.3701 46.3125 47.3408 46.2388 47.3408H45.3179C45.2451 47.3408 45.1723 47.3701 45.1184 47.4193C45.0655 47.4684 45.0371 47.5365 45.0371 47.6065V50.2518V55.8658V58.496C45.0371 58.565 45.0674 58.634 45.1184 58.6823C45.1714 58.7324 45.2451 58.7607 45.3189 58.7607H46.2388C46.3125 58.7607 46.3853 58.7324 46.4382 58.6823C46.4912 58.634 46.5195 58.565 46.5195 58.496V57.9515C47.1341 58.6388 48.0162 58.8751 48.8236 58.8742H48.8813C49.8645 58.8723 50.7154 58.5679 51.2458 58.0782C52.2376 57.1393 52.4636 55.7004 52.4673 54.3626C52.4645 53.0323 52.2376 51.7598 51.2619 50.8248ZM50.9858 54.3626V54.3815V54.3824V54.4023C50.9839 55.2381 50.8951 56.0549 50.5774 56.6392C50.2645 57.2008 49.7624 57.5761 48.7867 57.5922C48.7801 57.5912 48.7697 57.5912 48.7498 57.5922H48.7338C47.7524 57.5818 47.2428 57.2055 46.929 56.6382C46.6085 56.0521 46.5186 55.2286 46.5186 54.3871V54.3371C46.5186 53.5003 46.6085 52.831 46.929 52.2457C47.2428 51.6785 47.7524 51.3022 48.7338 51.2927H48.7404H48.7574H48.7716C49.7539 51.3022 50.2616 51.6785 50.5783 52.2476C50.8969 52.831 50.9858 53.5003 50.9858 54.3371V54.3626V54.3626Z" fill="#D6006D"/>
<path d="M27.7043 52.8549V52.8493C27.7043 51.9587 27.4093 51.1957 26.7891 50.6861C26.1623 50.1727 25.266 49.9317 24.1106 49.9307H24.069H24.053C22.841 49.9269 21.8775 50.1916 21.1439 50.9716L21.142 50.9697L21.0994 51.0189C21.0446 51.0804 20.9907 51.1437 20.9387 51.2099C20.9387 51.2099 20.9368 51.2118 20.9368 51.2127L20.8612 51.3016C20.8168 51.3545 20.7941 51.4254 20.8035 51.4982C20.8121 51.571 20.8489 51.64 20.9038 51.6883L20.9463 51.7242C20.9624 51.7441 20.9803 51.762 21.0002 51.779L21.1647 51.9133L21.6015 52.2905C21.6563 52.3397 21.73 52.3661 21.8019 52.3624C21.8728 52.3595 21.94 52.3274 21.9834 52.2735L22.2642 51.9407C22.4382 51.7516 22.6178 51.6174 22.8353 51.5219C23.1406 51.3876 23.5339 51.3252 24.1012 51.3195H24.1078L24.1267 51.3186C24.9342 51.3214 25.4362 51.4841 25.7236 51.7374C26.0101 51.9851 26.1557 52.3605 26.1585 52.9438C26.1585 52.9476 26.1585 52.958 26.1595 52.9712V53.5205H23.7627C22.7965 53.5234 21.9872 53.7418 21.4039 54.1975C20.8244 54.6418 20.501 55.3273 20.501 56.1252V56.1554C20.5029 56.8201 20.7525 57.4724 21.2063 57.9263C21.8208 58.5304 22.6368 58.7507 23.8715 58.7507H23.8857H24.5106C25.6413 58.7507 26.4525 58.4718 26.9744 57.9083C27.4953 57.3458 27.7043 56.5308 27.7043 55.5173V52.8701V52.8549V52.8549ZM26.1595 55.5598C26.1566 56.2623 26.0034 56.6499 25.7964 56.8314C25.2991 57.29 24.6827 57.359 23.932 57.3609H23.9235H23.9102C23.187 57.3618 22.7123 57.2361 22.442 57.0413C22.1867 56.856 22.0553 56.5922 22.0477 56.1365V56.1157C22.0534 55.6648 22.1895 55.383 22.4486 55.1845C22.72 54.9784 23.1757 54.8441 23.8573 54.8441H23.8639H26.1595V55.5598V55.5598Z" fill="#D6006D"/>
<path d="M60.2824 52.8667V52.8601C60.2833 51.9714 59.9874 51.2094 59.3662 50.6998C58.7423 50.1864 57.8451 49.9453 56.6897 49.9444H56.6481H56.632C55.419 49.9415 54.4566 50.2053 53.7229 50.9853L53.7211 50.9825L53.6785 51.0326C53.6227 51.0931 53.5688 51.1564 53.5169 51.2236C53.5169 51.2236 53.5159 51.2245 53.5159 51.2254L53.4403 51.3143C53.3949 51.3672 53.3731 51.4391 53.3826 51.511C53.3901 51.5828 53.427 51.6528 53.4828 51.701L53.5253 51.7379C53.5414 51.7568 53.5594 51.7747 53.5792 51.7918L53.7428 51.927L54.1796 52.3042C54.2354 52.3524 54.3091 52.3779 54.38 52.3751C54.4509 52.3723 54.518 52.3392 54.5625 52.2862L54.8433 51.9534C55.0172 51.7643 55.1969 51.6301 55.4134 51.5346C55.7197 51.4003 56.113 51.3379 56.6793 51.3332L56.6859 51.3323H56.7058C57.5132 51.3332 58.0143 51.4977 58.3017 51.7502C58.5891 51.9979 58.7347 52.3732 58.7366 52.9556C58.7366 52.9594 58.7366 52.9707 58.7385 52.983V53.5333H56.3418C55.3756 53.5351 54.5663 53.7536 53.9829 54.2083C53.4034 54.6526 53.08 55.3381 53.0791 56.136L53.08 56.1663C53.0819 56.831 53.3315 57.4824 53.7854 57.9352C54.3989 58.5393 55.2158 58.7587 56.4505 58.7587H56.4638H57.0896C58.2195 58.7596 59.0316 58.4807 59.5535 57.9173C60.0744 57.3547 60.2833 56.5407 60.2833 55.5291V52.8819L60.2824 52.8667ZM54.6268 56.1464V56.1257C54.6315 55.6747 54.7686 55.3939 55.0276 55.1953C55.298 54.9883 55.7537 54.855 56.4363 54.855H56.442H58.7385V55.5707C58.7356 56.2722 58.5825 56.6589 58.3754 56.8404C57.8772 57.2999 57.2617 57.368 56.5101 57.3698H56.5025H56.4884C55.7651 57.3708 55.2905 57.246 55.021 57.0503C54.7648 56.8659 54.6334 56.6012 54.6268 56.1464Z" fill="#D6006D"/>
<path d="M13.309 49.9614H11.7301V48.3617H11.7292V47.5874C11.7292 47.4484 11.6072 47.335 11.4568 47.335H10.5077C10.4358 47.335 10.3658 47.3624 10.3157 47.4087C10.2647 47.456 10.2354 47.5212 10.2354 47.5874V49.0141H10.2363V56.5133C10.2363 57.1221 10.4122 57.6714 10.7979 58.0865C11.1647 58.4883 11.7604 58.7398 12.4486 58.7398H12.4515H12.9091V58.7331H13.309C13.378 58.7331 13.4461 58.7038 13.4943 58.6499C13.5444 58.5979 13.5718 58.5252 13.5718 58.4505V57.523C13.5718 57.4492 13.5444 57.3755 13.4943 57.3226C13.4461 57.2687 13.378 57.2394 13.309 57.2394H12.5753C12.4269 57.2337 12.3068 57.2167 12.2038 57.1798C12.1376 57.1562 12.096 57.1306 12.0581 57.107C12.0166 57.0777 11.9929 57.0635 11.9522 57.02C11.8114 56.8725 11.7329 56.6381 11.7301 56.2901V51.4561H13.309C13.378 51.4561 13.4461 51.4249 13.4943 51.3729C13.5444 51.32 13.5718 51.2462 13.5718 51.1716V50.245C13.5718 50.1713 13.5444 50.0975 13.4943 50.0446C13.4461 49.9907 13.378 49.9614 13.309 49.9614Z" fill="#D6006D"/>
<path d="M20.1143 51.0566L20.0263 50.9592C20.0225 50.9479 20.0159 50.9375 20.0065 50.9262L19.9535 50.8723L19.8798 50.7966L19.8202 50.7305L19.8183 50.7323C19.2813 50.167 18.6129 49.9297 17.901 49.9287C17.8868 49.9287 17.8689 49.9287 17.8452 49.9297C17.3403 49.9297 16.7438 50.1566 16.3854 50.5868L16.1396 50.8798V50.7579V50.2256C16.1396 50.1556 16.1094 50.0875 16.0564 50.0384C16.0044 49.9892 15.9316 49.9599 15.8579 49.9599H14.937C14.8633 49.9599 14.7905 49.9892 14.7385 50.0384C14.6856 50.0875 14.6562 50.1556 14.6562 50.2256V50.7579V58.4859C14.6562 58.5558 14.6856 58.6239 14.7385 58.6731C14.7905 58.7222 14.8633 58.7515 14.937 58.7515H15.0958C15.1016 58.7515 15.1062 58.7525 15.111 58.7525H15.6915C15.6962 58.7525 15.7019 58.7515 15.7066 58.7515H15.8579C15.9316 58.7515 16.0035 58.7222 16.0564 58.6731C16.1103 58.6239 16.1396 58.5558 16.1396 58.4859V58.3431V58.3374V53.4372V53.4183V53.0212C16.167 52.5655 16.3117 52.1562 16.548 51.8574C16.8033 51.5397 17.1749 51.3327 17.6769 51.3317C17.9425 51.3317 18.1174 51.3629 18.2687 51.4263C18.4143 51.4896 18.5628 51.5993 18.7585 51.8007L18.802 51.8451L19.0024 52.0682C19.0497 52.1212 19.1178 52.1524 19.1905 52.1533C19.2634 52.1543 19.3371 52.1259 19.3919 52.0758L20.0811 51.448C20.1369 51.397 20.1719 51.327 20.1776 51.2533C20.1851 51.1805 20.1615 51.1096 20.1143 51.0566Z" fill="#D6006D"/>
<path d="M43.2986 54.2331C43.2957 54.2303 43.2909 54.2284 43.2872 54.2256H43.2863C42.7492 53.8502 42.0685 53.7197 41.3358 53.6574L39.963 53.542C39.391 53.4938 39.0375 53.3747 38.8313 53.213C38.6564 53.0797 38.5486 52.8651 38.5458 52.5361V52.5285H38.5449L38.5458 52.5105C38.5486 52.121 38.7009 51.8374 38.9694 51.6445C39.2568 51.4375 39.7172 51.3051 40.3686 51.3051H40.3743H40.3752C41.2053 51.3061 41.8926 51.4999 42.4666 51.8686L42.4656 51.8695L42.8135 52.1144C42.8693 52.1532 42.9411 52.1673 43.0092 52.1513C43.0782 52.1371 43.1406 52.0936 43.1822 52.034L43.6956 51.2862C43.7362 51.2257 43.7542 51.151 43.7448 51.0801C43.7391 51.0413 43.7249 51.0054 43.7032 50.9732C43.6843 50.9373 43.6568 50.9042 43.6209 50.8797L43.5623 50.8371C42.7445 50.2538 41.6024 49.9257 40.3705 49.9238C39.3854 49.9238 38.5449 50.1611 37.9341 50.6149C37.329 51.0612 36.9736 51.7362 36.9726 52.5039L36.9736 52.5143V52.52L36.9726 52.5398C36.9726 53.2187 37.2251 53.819 37.7271 54.2284C38.2348 54.6435 38.9486 54.8647 39.8486 54.9375L41.2602 55.0519C41.7783 55.0992 42.1007 55.2135 42.2917 55.3733C42.4571 55.5076 42.5639 55.7212 42.5649 56.0626V56.0815V56.0843C42.5611 56.5135 42.3881 56.8104 42.0647 57.0156C41.7177 57.2358 41.1543 57.3701 40.3705 57.3701H40.3658C40.3629 57.3701 40.3582 57.3701 40.3506 57.371H40.3441C39.3107 57.3663 38.576 57.1337 38.0031 56.6619L37.7053 56.4095C37.6524 56.3642 37.5814 56.3424 37.5096 56.3528C37.4387 56.3613 37.3706 56.4001 37.3234 56.4568L36.7325 57.1715C36.6842 57.2283 36.6597 57.3039 36.6635 57.3767C36.6663 57.4485 36.7003 57.5157 36.7533 57.5611L37.0341 57.7984L37.0331 57.7993C37.0388 57.804 37.0444 57.8078 37.0492 57.8116L37.086 57.8419L37.0889 57.839C37.9568 58.4677 39.0403 58.7684 40.3658 58.7684H40.3894C41.4824 58.7674 42.4051 58.5301 43.0782 58.0659C43.7438 57.6065 44.1409 56.9002 44.14 56.0843V56.0436C44.1409 55.2211 43.8223 54.5999 43.2986 54.2331Z" fill="#D6006D"/>
<path d="M77.182 58.3816L76.0305 56.7564L73.7226 53.3878L75.5162 51.4837L76.5599 50.3804L76.6233 50.3095C76.7443 50.1875 76.6847 50.0618 76.6327 50.0136C76.5798 49.9644 76.5069 49.9351 76.4332 49.9351H75.2344C75.1635 49.9351 75.0708 49.9899 75.0179 50.0362C75.0169 50.0362 75.0198 50.0362 75.0179 50.0362L70.9932 54.3295V50.7415V47.5762C70.9932 47.5063 70.9629 47.4372 70.9109 47.389C70.8589 47.3389 70.7852 47.3105 70.7114 47.3105H69.7915C69.7168 47.3105 69.645 47.3389 69.593 47.389C69.5391 47.4372 69.5098 47.5063 69.5098 47.5762V50.7415V58.4847C69.5098 58.5546 69.5401 58.6237 69.5921 58.6728C69.644 58.722 69.7168 58.7513 69.7915 58.7513H70.7114C70.7852 58.7513 70.858 58.722 70.9109 58.6728C70.9639 58.6237 70.9932 58.5546 70.9932 58.4847V56.2828L72.7366 54.3928L73.9108 56.1494H73.9051L75.5549 58.6151C75.5936 58.669 75.6551 58.756 75.7931 58.756H76.992C77.0657 58.756 77.1385 58.7277 77.1905 58.6775C77.2425 58.6293 77.2775 58.5026 77.182 58.3816Z" fill="#D6006D"/>
<path d="M66.876 47.3936H67.0386L67.2806 48.1045L67.5226 47.3936H67.6824V48.235H67.5746V47.7368C67.5746 47.7197 67.5746 47.6933 67.5746 47.6517C67.5746 47.612 67.5774 47.5713 67.5774 47.525L67.3364 48.235H67.2229L66.9819 47.525V47.5505V47.6432C66.9837 47.6885 66.9837 47.7188 66.9837 47.7368V48.235H66.876V47.3936V47.3936Z" fill="#D6006D"/>
<path d="M68.1699 47.3936H68.5547C68.6181 47.3936 68.671 47.403 68.7098 47.4219C68.7882 47.456 68.826 47.5221 68.826 47.6195C68.826 47.6696 68.8175 47.7112 68.7958 47.7434C68.7731 47.7746 68.7447 47.8029 68.7059 47.8218C68.7391 47.836 68.7665 47.8521 68.7825 47.8738C68.7977 47.8956 68.8071 47.9325 68.8071 47.9807L68.8137 48.0922C68.8137 48.1253 68.8175 48.149 68.8213 48.165C68.8289 48.1905 68.8411 48.2076 68.8582 48.2142V48.235H68.7192C68.7154 48.2265 68.7135 48.218 68.7098 48.2076C68.7059 48.1953 68.7059 48.1736 68.705 48.1405L68.6975 47.9996C68.6927 47.9438 68.6757 47.9069 68.6379 47.889C68.6181 47.8786 68.5812 47.8738 68.5368 47.8738H68.2834V48.235H68.1699V47.3936V47.3936ZM68.5415 47.7783C68.5935 47.7783 68.6341 47.7689 68.6662 47.7462C68.6937 47.7273 68.7107 47.6885 68.7107 47.6299C68.7107 47.5713 68.6908 47.5297 68.6464 47.508C68.6237 47.4966 68.5935 47.4909 68.5566 47.4909H68.2834V47.7783H68.5415Z" fill="#D6006D"/>
<path d="M67.9309 48.2313C67.8977 48.2313 67.876 48.2067 67.876 48.1698C67.876 48.133 67.8996 48.1074 67.9346 48.1074C67.9677 48.1074 67.9904 48.133 67.9904 48.1698C67.9904 48.2067 67.9677 48.2313 67.9309 48.2313Z" fill="#D6006D"/>
<path d="M69.083 48.2313C69.0499 48.2313 69.0244 48.2067 69.0244 48.1698C69.0244 48.133 69.0499 48.1074 69.084 48.1074C69.1199 48.1074 69.1426 48.133 69.1426 48.1698C69.1426 48.2067 69.1199 48.2313 69.084 48.2313H69.083Z" fill="#D6006D"/>
<path d="M96.7796 12.4381C96.7626 12.4183 96.7465 12.3984 96.7248 12.3786C94.9974 10.7845 92.2349 9.7975 89.0327 9.79467C88.9892 9.78899 88.923 9.78899 88.8606 9.78899C86.2285 9.78804 83.6305 10.3373 81.3746 12.2698L81.3709 12.2717V10.5756H81.3756V1.98723C81.3756 1.76033 81.2792 1.53722 81.109 1.37933C80.9398 1.2186 80.7034 1.125 80.4623 1.125H77.4719C77.2346 1.125 76.9992 1.2186 76.8262 1.37933C76.655 1.53722 76.5596 1.76033 76.5596 1.98723V10.5756H76.5624V28.8102H76.5596V37.3532C76.5596 37.5792 76.6579 37.8023 76.8262 37.9592C76.9982 38.1209 77.2346 38.2136 77.4757 38.2136H80.4623C80.7034 38.2136 80.9388 38.1209 81.109 37.9592C81.2829 37.8023 81.3775 37.5792 81.3775 37.3532V35.5862C83.3724 37.8165 86.2342 38.5851 88.8606 38.5842H89.045C92.2396 38.5738 95.0022 37.5877 96.7248 35.9956C99.9449 32.9465 100.681 28.2732 100.692 23.9289C100.683 19.6083 99.9449 15.4749 96.7796 12.4381ZM95.8815 23.928V23.9876V23.9951V24.0585C95.8739 26.7719 95.5855 29.4248 94.5531 31.3223C93.5387 33.1489 91.9068 34.3685 88.7377 34.4167C88.717 34.4148 88.6838 34.4148 88.6196 34.4167H88.5666C85.3767 34.3855 83.7241 33.163 82.7039 31.3194C81.6631 29.4144 81.3709 26.7397 81.3709 24.0084V23.8439C81.3746 21.1305 81.6631 18.9531 82.7039 17.0556C83.7241 15.212 85.3767 13.9886 88.5666 13.9602H88.5883H88.6403H88.6895C91.8813 13.9886 93.5283 15.2101 94.5578 17.0594C95.5902 18.9531 95.8815 21.1305 95.8815 23.8439V23.928V23.928Z" fill="#6B1A6B"/>
<path d="M124.318 35.9146C127.484 32.8779 128.221 28.7444 128.23 24.4228C128.22 20.0794 127.484 15.4062 124.263 12.3571C122.54 10.765 119.778 9.77797 116.584 9.76758H116.4C113.773 9.76663 110.91 10.5353 108.917 12.7665V10.9995C108.917 10.7735 108.821 10.5504 108.648 10.3934C108.477 10.2308 108.242 10.1391 108.001 10.1391H105.014C104.773 10.1391 104.536 10.2308 104.365 10.3934C104.196 10.5504 104.098 10.7735 104.098 10.9995V19.5424H104.1V37.7762H104.098V46.3655C104.098 46.5923 104.193 46.8145 104.365 46.9734C104.537 47.1341 104.773 47.2268 105.01 47.2268H108C108.242 47.2268 108.478 47.1341 108.648 46.9734C108.817 46.8145 108.915 46.5923 108.915 46.3655V37.7762H108.909V36.081L108.913 36.0829C111.169 38.0144 113.767 38.5646 116.4 38.5637C116.462 38.5637 116.528 38.5637 116.571 38.5571C119.773 38.5543 122.536 37.5682 124.263 35.9742C124.285 35.9543 124.302 35.9345 124.318 35.9146ZM123.42 24.5088C123.42 27.2222 123.129 29.3996 122.096 31.2924C121.067 33.1426 119.42 34.3641 116.228 34.3934H116.179H116.127H116.106C112.916 34.3641 111.262 33.1407 110.242 31.2971C109.201 29.3996 108.913 27.2222 108.909 24.5088V24.3443C108.909 21.613 109.201 18.9383 110.242 17.0323C111.262 15.1896 112.916 13.9672 116.106 13.9351H116.158C116.222 13.9379 116.256 13.9379 116.277 13.9351C119.445 13.9842 121.077 15.2029 122.091 17.0295C123.125 18.9279 123.412 21.5799 123.42 24.2942V24.3576V24.3642V24.4247V24.5088V24.5088Z" fill="#6B1A6B"/>
<path d="M167.209 40.8213C166.946 41.5333 166.475 42.6829 166.16 43.3731C166.16 43.3731 165.591 44.6248 164.785 45.4322C164.048 46.1687 163.207 46.6774 162.258 46.9591C161.312 47.239 160.689 47.2825 160.689 47.2825C159.932 47.3354 158.825 47.3798 158.233 47.3798C157.64 47.3798 157.154 46.7577 157.154 45.9995V43.9706C157.154 43.2114 157.462 42.5902 157.838 42.5902C158.216 42.5902 159.14 42.526 159.896 42.4484C159.896 42.4484 160.471 42.3879 160.996 41.9842C161.523 41.5796 161.788 40.9991 161.788 40.9991C162.105 40.3089 162.571 39.1583 162.825 38.4426L163.377 36.8817C163.63 36.166 163.624 34.9975 163.364 34.2846L154.996 11.4173C154.736 10.7054 155.144 10.1211 155.904 10.1211H158.827C159.586 10.1211 160.407 10.7101 160.65 11.4286L166.13 27.6013C166.375 28.3208 166.769 28.3189 167.007 27.5984L172.35 11.4324C172.589 10.711 173.405 10.1211 174.165 10.1211H177.14C177.9 10.1211 178.305 10.7044 178.042 11.4163L167.209 40.8213Z" fill="#6B1A6B"/>
<path d="M153.511 19.4354V19.4156C153.512 16.5613 152.561 14.1136 150.568 12.478C148.564 10.831 145.683 10.0576 141.977 10.0557H141.843H141.793C137.897 10.0463 134.808 10.8925 132.454 13.3941L132.444 13.3865L132.31 13.5482C132.133 13.7429 131.959 13.9462 131.79 14.1608C131.789 14.1627 131.788 14.1656 131.787 14.1674L131.546 14.453C131.401 14.6241 131.33 14.8538 131.361 15.0845C131.385 15.3162 131.503 15.5383 131.683 15.6934L131.818 15.8116C131.87 15.874 131.929 15.9316 131.992 15.9837L132.519 16.4166L133.92 17.6268C134.098 17.7828 134.335 17.8679 134.564 17.8556C134.792 17.8471 135.004 17.7431 135.149 17.571L136.047 16.5046V16.5036C136.609 15.8967 137.185 15.4646 137.879 15.1602C138.862 14.729 140.123 14.5277 141.944 14.5116L141.966 14.5097L142.027 14.5078C144.618 14.5144 146.229 15.041 147.152 15.8503C148.072 16.6464 148.539 17.8509 148.546 19.721C148.546 19.7323 148.546 19.7663 148.551 19.8089V21.5731H140.858C137.755 21.5806 135.16 22.2812 133.287 23.741C131.428 25.1695 130.39 27.3677 130.389 29.9289L130.39 30.0243C130.394 32.1582 131.196 34.2495 132.654 35.7036C134.622 37.6427 137.245 38.347 141.207 38.347H141.252H143.259C146.888 38.3508 149.491 37.4536 151.168 35.6468C152.841 33.842 153.512 31.2279 153.512 27.9794V19.4846L153.511 19.4354ZM135.355 29.9619V29.8967C135.37 28.4492 135.811 27.5445 136.641 26.9082C137.51 26.2464 138.973 25.8181 141.164 25.8181H141.183H148.551V28.1136C148.543 30.3656 148.049 31.6098 147.388 32.1903C145.79 33.6633 143.811 33.8846 141.4 33.8902H141.374H141.33C139.008 33.8931 137.484 33.4912 136.62 32.8635C135.799 32.2707 135.376 31.4236 135.355 29.9619Z" fill="#6B1A6B"/>
<path d="M45.6793 10.1748C44.8851 10.1748 44.0607 10.7997 43.8432 11.5627L38.6178 29.9921C38.4012 30.756 38.0212 30.7636 37.7735 30.0091L31.6962 11.5447C31.4486 10.7922 30.5967 10.1748 29.8034 10.1748H28.7134C27.9201 10.1748 27.0702 10.7922 26.8244 11.5457L20.7944 30.0091C20.5476 30.7626 20.1676 30.757 19.9501 29.9931L14.6774 11.5627C14.459 10.7997 13.6318 10.1748 12.8376 10.1748H10.6177C9.8245 10.1748 9.37163 10.7941 9.61082 11.5504L17.6744 36.9817C17.9146 37.7372 18.7588 38.3574 19.553 38.3574H21.078C21.7862 38.3574 22.5491 37.8081 22.7741 37.1359L28.8023 19.148C29.0547 18.3954 29.4678 18.3954 29.7221 19.1461L35.7475 36.9903C36.0018 37.7409 36.8583 38.3574 37.6515 38.3574H39.1273C39.862 38.3574 40.6429 37.7835 40.8651 37.0829L48.9088 11.5514C49.1462 10.7941 48.6933 10.1748 47.9001 10.1748H45.6793V10.1748Z" fill="#6B1A6B"/>
<path d="M54.9081 21.7516C55.0064 19.9978 55.1331 19.2131 55.6701 17.8961C56.6553 15.5618 58.9139 14.1125 61.5621 14.1125C64.2102 14.1125 66.467 15.5609 67.4521 17.8914C67.9901 19.2131 68.1168 19.9978 68.216 21.7516H54.9081ZM73.1437 23.3768C73.1437 15.0125 68.7058 9.81641 61.5621 9.81641C54.3105 9.81641 49.9805 15.1733 49.9805 24.1473C49.9805 33.3881 54.3474 38.4783 62.2768 38.4783C67.2016 38.4783 69.8441 36.8266 72.5102 34.1614L72.8657 33.8069L69.4621 30.8193L69.1501 31.1294C66.9775 33.303 65.2067 34.0726 62.3874 34.0726C57.6914 34.0726 55.0319 31.0878 54.8882 25.6619H73.1437V23.3768V23.3768Z" fill="#6B1A6B"/>
<path d="M3.59029 16.0121C5.17388 16.0121 6.45874 14.7197 6.45874 13.1266C6.45874 11.5326 5.17388 10.2393 3.59029 10.2393C2.01137 10.2393 0.725586 11.5326 0.725586 13.1266C0.725586 14.7197 2.01137 16.0121 3.59029 16.0121Z" fill="#D6006D"/>
<path d="M177.897 38.3412C179.481 38.3412 180.765 37.0488 180.765 35.4566C180.765 33.8617 179.481 32.5674 177.897 32.5674C176.316 32.5674 175.034 33.8617 175.034 35.4566C175.034 37.0488 176.316 38.3412 177.897 38.3412Z" fill="#D6006D"/>
</svg>
