<svg width="20" height="20" viewBox="0 0 20 20" fill="none" xmlns="http://www.w3.org/2000/svg">
<path d="M17.2603 20C17.169 20 17.0776 20 16.9863 20C14.0639 19.6364 11.1416 18.6364 8.6758 17.0909C6.39269 15.6364 4.38356 13.6364 2.92237 11.3636C1.27854 8.90909 0.273973 6 0 3.09091C0 2.36364 0.182648 1.63636 0.639269 1.09091C1.09589 0.545454 1.73516 0.181818 2.46575 0.0909091C2.55708 0.0909091 2.6484 0.0909091 2.73973 0.0909091H5.47945C6.84932 0.0909091 8.03653 1.09091 8.21918 2.45455C8.3105 3.27273 8.49315 4.09091 8.76712 4.81818C9.13242 5.81818 8.85845 6.90909 8.12785 7.72727L7.48858 8.36364C8.58448 10 9.95434 11.4545 11.6895 12.5455L12.3288 11.9091C13.0594 11.1818 14.2466 10.9091 15.2511 11.2727C15.9817 11.5455 16.8037 11.7273 17.6256 11.8182C18.9954 12 20 13.1818 20 14.5455V17.2727C20 18 19.726 18.7273 19.1781 19.1818C18.6301 19.6364 17.9909 20 17.2603 20ZM5.47945 1.90909H2.73973C2.46575 1.90909 2.19178 2.09091 2.00913 2.27273C1.91781 2.45455 1.82648 2.63636 1.82648 2.90909C2.10046 5.54545 3.0137 8.09091 4.47489 10.3636C5.84475 12.4545 7.57991 14.2727 9.68036 15.5455C11.9635 17 14.5205 17.9091 17.1689 18.1818C17.5342 18.1818 17.7169 18.0909 17.8995 17.9091C18.0822 17.7273 18.1735 17.5455 18.1735 17.2727V14.5455C18.1735 14.0909 17.8082 13.7273 17.3516 13.6364C16.4384 13.5455 15.5251 13.2727 14.6119 12.9091C14.2466 12.8182 13.8813 12.8182 13.6073 13.0909L12.4201 14.2727C12.1461 14.5455 11.6895 14.6364 11.3242 14.4545C8.85845 13.0909 6.84932 11.0909 5.47945 8.63636C5.38813 8.27273 5.47945 7.81818 5.75343 7.54545L6.94064 6.36364C7.12329 6.18182 7.21461 5.72727 7.12329 5.45455C6.75799 4.54545 6.57534 3.63636 6.39269 2.72727C6.39269 2.27273 5.93607 1.90909 5.47945 1.90909ZM15.4338 9.18182C14.9772 9.18182 14.6119 8.90909 14.5205 8.45455C14.2466 7 13.0594 5.90909 11.5982 5.54545C11.1416 5.45455 10.7763 5 10.8676 4.45455C10.9589 4 11.4155 3.63636 11.9635 3.72727C14.1553 4.18182 15.8904 5.81818 16.2557 8C16.347 8.45455 16.0731 9 15.5251 9.09091C15.5251 9.09091 15.5251 9.18182 15.4338 9.18182ZM19.0868 9.09091C18.6301 9.09091 18.2648 8.72727 18.1735 8.27273C17.8082 4.90909 15.1598 2.27273 11.6895 1.81818C11.2329 1.72727 10.8676 1.27273 10.8676 0.818182C10.8676 0.363636 11.4155 0 11.8721 0C16.1644 0.454545 19.4521 3.72727 19.9087 8C20 8.45455 19.6347 8.90909 19.0868 9C19.1781 9.09091 19.0868 9.09091 19.0868 9.09091Z" fill="black"/>
</svg>
