<svg width="18" height="18" viewBox="0 0 18 18" fill="none" xmlns="http://www.w3.org/2000/svg">
<path d="M17.4853 9.00002C17.4853 9.93849 16.725 10.6971 15.7882 10.6971L10.697 10.6971L10.697 15.7882C10.697 16.7267 9.93677 17.4853 8.99999 17.4853C8.06322 17.4853 7.30294 16.7267 7.30294 15.7882L7.30294 10.6971L2.21177 10.6971C1.27499 10.6971 0.514711 9.93849 0.514711 9.00002C0.514711 8.06155 1.27499 7.30296 2.21177 7.30296L7.30293 7.30296L7.30293 2.21179C7.30293 1.27332 8.06321 0.514739 8.99999 0.514739C9.93677 0.514738 10.697 1.27332 10.697 2.21179L10.697 7.30296L15.7882 7.30296C16.725 7.30296 17.4853 8.06155 17.4853 9.00002Z" fill="black" fill-opacity="0.6"/>
</svg>
