<svg width="183" height="182" viewBox="0 0 183 182" fill="none" xmlns="http://www.w3.org/2000/svg">
<circle opacity="0.2" cx="91.5" cy="91" r="80.5" stroke="url(#paint0_linear_3120_34552)"/>
<circle opacity="0.2" cx="91.5" cy="91" r="85.5" stroke="url(#paint1_linear_3120_34552)"/>
<circle cx="91.5" cy="91" r="75.5" fill="url(#paint2_linear_3120_34552)" fill-opacity="0.2" stroke="url(#paint3_linear_3120_34552)"/>
<mask id="mask0_3120_34552" style="mask-type:alpha" maskUnits="userSpaceOnUse" x="16" y="4" width="151" height="162">
<path d="M166.501 91C166.501 132.421 132.922 166 91.5006 166C50.0792 166 16.5006 132.421 16.5006 91C16.5006 49.5786 12.001 4 79.0006 4C173.501 4 166.501 49.5786 166.501 91Z" fill="#D9D9D9"/>
</mask>
<g mask="url(#mask0_3120_34552)">
<rect x="39.7257" y="39.7257" width="105.549" height="34.5486" rx="17.2743" fill="#FBFBE8"/>
<path d="M62.696 47.0584C63.134 46.3765 64.1307 46.3765 64.5687 47.0584L67.1918 51.1424C67.3425 51.377 67.5758 51.5465 67.8455 51.6173L72.5403 52.8501C73.3242 53.0559 73.6322 54.0038 73.119 54.6311L70.0455 58.388C69.8689 58.6038 69.7798 58.878 69.7958 59.1564L70.0741 64.0023C70.1206 64.8115 69.3142 65.3973 68.5591 65.1031L64.0363 63.3409C63.7765 63.2397 63.4881 63.2397 63.2283 63.3409L58.7056 65.1031C57.9504 65.3973 57.1441 64.8115 57.1906 64.0023L57.4689 59.1564C57.4849 58.878 57.3958 58.6038 57.2192 58.388L54.1457 54.6311C53.6325 54.0038 53.9405 53.0559 54.7243 52.8501L59.4191 51.6173C59.6888 51.5465 59.9221 51.377 60.0728 51.1424L62.696 47.0584Z" fill="#FFD02B"/>
<path d="M91.6296 47.0584C92.0676 46.3765 93.0643 46.3765 93.5022 47.0584L96.1254 51.1424C96.2761 51.377 96.5094 51.5465 96.7791 51.6173L101.474 52.8501C102.258 53.0559 102.566 54.0038 102.053 54.6311L98.979 58.388C98.8025 58.6038 98.7134 58.878 98.7294 59.1564L99.0077 64.0023C99.0542 64.8115 98.2478 65.3973 97.4927 65.1031L92.9699 63.3409C92.7101 63.2397 92.4217 63.2397 92.1619 63.3409L87.6392 65.1031C86.884 65.3973 86.0777 64.8115 86.1241 64.0023L86.4025 59.1564C86.4185 58.878 86.3294 58.6038 86.1528 58.388L83.0792 54.6311C82.5661 54.0038 82.8741 53.0559 83.6579 52.8501L88.3527 51.6173C88.6224 51.5465 88.8557 51.377 89.0064 51.1424L91.6296 47.0584Z" fill="#FFD02B"/>
<path d="M120.563 47.0584C121.001 46.3765 121.998 46.3765 122.436 47.0584L125.059 51.1424C125.21 51.377 125.443 51.5465 125.713 51.6173L130.407 52.8501C131.191 53.0559 131.499 54.0038 130.986 54.6311L127.913 58.388C127.736 58.6038 127.647 58.878 127.663 59.1564L127.941 64.0023C127.988 64.8115 127.181 65.3973 126.426 65.1031L121.904 63.3409C121.644 63.2397 121.355 63.2397 121.095 63.3409L116.573 65.1031C115.818 65.3973 115.011 64.8115 115.058 64.0023L115.336 59.1564C115.352 58.878 115.263 58.6038 115.086 58.388L112.013 54.6311C111.5 54.0038 111.808 53.0559 112.592 52.8501L117.286 51.6173C117.556 51.5465 117.789 51.377 117.94 51.1424L120.563 47.0584Z" fill="white" stroke="#FFD02B" stroke-width="1.11284" stroke-linejoin="round"/>
<rect x="39.7257" y="39.7257" width="105.549" height="34.5486" rx="17.2743" stroke="#FFEAA0" stroke-width="1.45144"/>
<g style="mix-blend-mode:multiply" opacity="0.2">
<path d="M139.178 167.257C139.178 169.89 107.703 172.502 96.2576 172.026C84.8122 171.549 43.3223 169.89 43.3223 167.257C43.3223 164.623 63.7697 159.149 89.5811 159.149C115.393 159.149 139.178 164.623 139.178 167.257Z" fill="#241833"/>
</g>
<path d="M49.5234 123.955H105.307V170.118L49.5234 167.611V123.955Z" fill="#9379EA"/>
<circle cx="77.6582" cy="145.797" r="19.5527" fill="#5938C6"/>
<mask id="mask1_3120_34552" style="mask-type:alpha" maskUnits="userSpaceOnUse" x="58" y="125" width="39" height="39">
<circle cx="77.5673" cy="144.27" r="18.5048" fill="#DFE2FF" stroke="#141414" stroke-width="1.52776"/>
</mask>
<g mask="url(#mask1_3120_34552)">
<ellipse cx="77.5971" cy="145.546" rx="17.5639" ry="17.8566" fill="#E1D6F9"/>
<path d="M69.9584 134.402L69.0263 146.859C68.97 147.612 69.4479 148.301 70.1724 148.513L71.7587 148.975L71.0427 165.561C71.008 166.366 71.373 167.136 72.0181 167.619L72.0787 167.664C72.9467 168.314 74.1471 168.283 74.9808 167.59V167.59C75.5434 167.122 75.8552 166.418 75.8237 165.687L75.1022 148.975L76.6767 148.516C77.4066 148.303 77.8854 147.606 77.8216 146.848L76.7739 134.402M74.5036 134.402V142.651M72.2731 134.402V142.651" stroke="#371EA3" stroke-width="1.52776" stroke-linecap="round" stroke-linejoin="round"/>
<path d="M86.7264 165.803L85.6257 153.601L86.418 151.722C87.3841 149.431 87.7601 146.934 87.5115 144.461L87.3315 142.669C87.01 139.469 85.2998 136.571 82.6537 134.742C82.4458 134.598 82.1621 134.747 82.1621 135V165.684C82.1621 166.444 82.5218 167.159 83.1318 167.612L83.2898 167.73C84.1081 168.337 85.2398 168.29 86.0043 167.616C86.52 167.161 86.7882 166.488 86.7264 165.803Z" stroke="#371EA3" stroke-width="1.52776" stroke-linecap="round" stroke-linejoin="round"/>
</g>
<path d="M63.2643 90V107.786H55.9883L63.2643 90Z" fill="#7D5EE5"/>
<path d="M55.991 107.786H111.774L105.307 123.955H49.5234L55.991 107.786Z" fill="#AD92F5"/>
<path d="M127.941 107.786H111.772L105.304 123.955H134.408L127.941 107.786Z" fill="#7D5EE5"/>
<path d="M134.408 123.955H105.304V170.118L134.408 167.611V123.955Z" fill="#6D4BDF"/>
<path d="M119.049 90H121.474C125.046 90 127.942 92.8956 127.942 96.4676V107.786H119.049V90Z" fill="#AE9AEF"/>
<path fill-rule="evenodd" clip-rule="evenodd" d="M119.051 90H63.2676V107.786H119.051V90ZM80.0446 95.7221C78.4643 95.7221 77.1832 97.0031 77.1832 98.5834C77.1832 100.164 78.4643 101.445 80.0446 101.445H101.028C102.608 101.445 103.889 100.164 103.889 98.5834C103.889 97.0031 102.608 95.7221 101.028 95.7221H80.0446Z" fill="#AE9AEF"/>
<path d="M119.048 90V107.786H111.771L119.048 90Z" fill="#7D5EE5"/>
</g>
<defs>
<linearGradient id="paint0_linear_3120_34552" x1="44.0333" y1="-5.53333" x2="152.3" y2="251.533" gradientUnits="userSpaceOnUse">
<stop offset="0.219581" stop-color="#DDF5FB"/>
<stop offset="1" stop-color="#DA0095"/>
</linearGradient>
<linearGradient id="paint1_linear_3120_34552" x1="41.0667" y1="-11.5667" x2="156.1" y2="261.567" gradientUnits="userSpaceOnUse">
<stop offset="0.219581" stop-color="#DDF5FB"/>
<stop offset="1" stop-color="#DA0095"/>
</linearGradient>
<linearGradient id="paint2_linear_3120_34552" x1="47" y1="0.500002" x2="148.5" y2="241.5" gradientUnits="userSpaceOnUse">
<stop offset="0.219581" stop-color="#DDF5FB"/>
<stop offset="1" stop-color="#DA0095"/>
</linearGradient>
<linearGradient id="paint3_linear_3120_34552" x1="47" y1="0.500002" x2="148.5" y2="241.5" gradientUnits="userSpaceOnUse">
<stop offset="0.219581" stop-color="#DDF5FB"/>
<stop offset="1" stop-color="#DA0095"/>
</linearGradient>
</defs>
</svg>
