<svg xmlns="http://www.w3.org/2000/svg" xml:space="preserve" viewBox="0 0 24 24">
    <path d="M18.9 10.7V4.4C18.9 2 17 0 14.5 0H4.4C2 0 0 2 0 4.4V17c0 .3.2.5.4.6.1 0 .2.1.2.1.2 0 .3-.1.5-.2l2.3-2.3h11.2c2.4 0 4.3-2 4.3-4.5zM9.6 12c-.4 0-.7-.3-.7-.7 0-.4.3-.7.7-.7.4 0 .7.3.7.7 0 .4-.3.7-.7.7zm1.5-3.3c-.7.4-.8.7-.8.7-.1.3-.4.5-.7.5h-.2c-.4-.2-.6-.6-.4-1 .2-.6.9-1.1 1.3-1.4.9-.6.8-1.2.7-1.4-.1-.6-.6-1-1.1-1.1-.4-.2-.9 0-1.2.2-.3.3-.5.7-.5 1.1 0 .4-.3.7-.7.7-.4 0-.7-.3-.7-.7 0-.8.4-1.6 1-2.2.6-.5 1.5-.8 2.3-.6 1.1.2 2.1 1.1 2.3 2.3.2 1.1-.3 2.2-1.3 2.9z"/>
    <path d="M20.8 6.5v4.2c0 3.5-2.8 6.3-6.3 6.3H5.1c0 2.4 2 4.4 4.4 4.4h11.2l2.3 2.3c.1.1.3.2.5.2.1 0 .2 0 .2-.1.2-.1.4-.3.4-.6V10.7c-.1-2-1.4-3.7-3.3-4.2z"/>
</svg>