<svg width="18" height="16" viewBox="0 0 18 16" fill="none" xmlns="http://www.w3.org/2000/svg">
<path d="M5.6487 14.2766C5.70583 14.585 5.6487 14.8209 5.49637 14.966C5.34404 15.1111 5.07746 15.1474 4.77279 15.0748L1.05971 14.0408C0.431337 13.8776 0.317088 13.3878 0.793125 12.9705L1.80232 12.0816C1.78328 12.0635 1.78328 12.0454 1.76424 12.0272C-0.292239 8.72562 0.431337 4.60771 3.24947 2.12245C3.66839 1.7415 4.14442 1.41497 4.65854 1.10658C5.93432 0.380952 7.32435 0.0181406 8.71438 0V1.19728C7.55285 1.23356 6.37228 1.54195 5.30595 2.14059C4.868 2.39456 4.46813 2.68481 4.10634 2.9932C1.7452 5.07937 1.11683 8.4898 2.73536 11.2472L3.76359 10.3401C4.23963 9.9229 4.73471 10.068 4.868 10.6667L5.6487 14.2766ZM13.151 5.33333C13.2843 5.93197 13.7794 6.0771 14.2554 5.65986L15.2837 4.75283C16.9022 7.5102 16.2738 10.9206 13.9317 13.0068C13.57 13.3333 13.1701 13.6054 12.7321 13.8594C11.6658 14.4762 10.4852 14.7664 9.3237 14.8027V16C10.7137 15.9637 12.1038 15.6009 13.3795 14.8934C13.8937 14.6032 14.3697 14.2585 14.7886 13.8776C17.5877 11.3923 18.2922 7.27438 16.2358 3.99093C16.2167 3.97279 16.2167 3.95465 16.1977 3.93651L17.2069 3.04762C17.6829 2.63039 17.5687 2.14059 16.9403 1.97732L13.2272 0.961451C12.9225 0.870748 12.656 0.92517 12.5036 1.07029C12.3513 1.21542 12.2751 1.45125 12.3513 1.75964L13.151 5.33333Z" fill="black"/>
</svg>
