<svg width="183" height="182" viewBox="0 0 183 182" fill="none" xmlns="http://www.w3.org/2000/svg">
<circle opacity="0.2" cx="91.5" cy="91" r="80.5" stroke="url(#paint0_linear_2138_20268)"/>
<circle opacity="0.2" cx="91.5" cy="91" r="85.5" stroke="url(#paint1_linear_2138_20268)"/>
<circle cx="91.5" cy="91" r="75.5" fill="url(#paint2_linear_2138_20268)" fill-opacity="0.2" stroke="url(#paint3_linear_2138_20268)"/>
<mask id="mask0_2138_20268" style="mask-type:alpha" maskUnits="userSpaceOnUse" x="16" y="15" width="151" height="151">
<circle cx="91.5" cy="90.5" r="75" fill="black" stroke="url(#paint4_linear_2138_20268)"/>
</mask>
<g mask="url(#mask0_2138_20268)">
<path d="M36 49.4828C36 44.2456 40.2456 40 45.4828 40H64.9036C66.8713 40 68.7432 40.8494 70.039 42.3303C72.6959 45.3668 77.3931 45.4474 80.1526 42.5039L80.3864 42.2545C81.7349 40.8161 83.6187 40 85.5904 40H136.517C141.754 40 146 44.2456 146 49.4828V79.8276C146 85.0648 141.754 89.3103 136.517 89.3103H85.5904C83.6187 89.3103 81.7349 88.4942 80.3864 87.0558L80.1526 86.8065C77.3931 83.863 72.6959 83.9436 70.039 86.9801C68.7432 88.4609 66.8713 89.3103 64.9036 89.3103H45.4828C40.2456 89.3103 36 85.0648 36 79.8276V49.4828Z" fill="white"/>
<circle opacity="0.1" cx="56.8619" cy="64.6548" r="15.1724" fill="#7F2684"/>
<path d="M64.9275 61.8564C64.2594 62.3385 63.4389 62.6226 62.552 62.6226C60.3075 62.6226 58.488 60.803 58.488 58.5585C58.488 57.7722 58.7113 57.038 59.098 56.4159C58.3855 56.223 57.6359 56.1201 56.8624 56.1201C52.1489 56.1201 48.3279 59.9411 48.3279 64.6546C48.3279 69.3681 52.1489 73.1891 56.8624 73.1891C61.5758 73.1891 65.3968 69.3681 65.3968 64.6546C65.3968 63.6745 65.2316 62.733 64.9275 61.8564Z" fill="#7F2684"/>
<path d="M64.9904 58.5585C64.9904 59.9052 63.8987 60.997 62.552 60.997C61.2053 60.997 60.1136 59.9052 60.1136 58.5585C60.1136 57.2118 61.2053 56.1201 62.552 56.1201C63.8987 56.1201 64.9904 57.2118 64.9904 58.5585Z" fill="#7F2684"/>
<rect opacity="0.5" x="81" y="51" width="29" height="6" rx="3" fill="#DFDFDF"/>
<rect opacity="0.5" x="81" y="61" width="57" height="6" rx="3" fill="#DFDFDF"/>
<rect opacity="0.5" x="81" y="70" width="57" height="6" rx="3" fill="#DFDFDF"/>
<path d="M36 103.483C36 98.2456 40.2456 94 45.4828 94H64.9036C66.8713 94 68.7432 94.8494 70.039 96.3303C72.6959 99.3668 77.3931 99.4474 80.1526 96.5039L80.3864 96.2545C81.7349 94.8161 83.6187 94 85.5904 94H136.517C141.754 94 146 98.2456 146 103.483V133.828C146 139.065 141.754 143.31 136.517 143.31H85.5904C83.6187 143.31 81.7349 142.494 80.3864 141.056L80.1526 140.806C77.3931 137.863 72.6959 137.944 70.039 140.98C68.7432 142.461 66.8713 143.31 64.9036 143.31H45.4828C40.2456 143.31 36 139.065 36 133.828V103.483Z" fill="white"/>
<rect opacity="0.5" x="81" y="105" width="29" height="6" rx="3" fill="#DFDFDF"/>
<rect opacity="0.5" x="81" y="115" width="57" height="6" rx="3" fill="#DFDFDF"/>
<rect opacity="0.5" x="81" y="124" width="57" height="6" rx="3" fill="#DFDFDF"/>
<circle opacity="0.1" cx="56.8632" cy="119.045" r="15.1738" fill="#7F2684"/>
<circle cx="56.8635" cy="119.045" r="7.58689" fill="white"/>
<path d="M56.6818 109.098H57.0685C57.5882 109.182 57.9838 109.472 58.3407 109.84C58.6315 110.141 58.9416 110.421 59.2398 110.714C59.3135 110.791 59.4049 110.849 59.506 110.882C59.6071 110.915 59.7149 110.923 59.8198 110.905C60.3032 110.835 60.7865 110.773 61.2695 110.695C62.331 110.524 63.1554 111.082 63.3689 112.132C63.4673 112.617 63.5529 113.104 63.6256 113.594C63.6697 113.887 63.8085 114.084 64.075 114.217C64.5119 114.434 64.9408 114.666 65.3696 114.9C66.2861 115.398 66.5919 116.338 66.143 117.28C65.9277 117.732 65.7075 118.182 65.4821 118.63C65.4229 118.737 65.3918 118.857 65.3918 118.979C65.3918 119.101 65.4229 119.221 65.4821 119.328C65.7076 119.77 65.9234 120.214 66.136 120.66C66.5958 121.618 66.2865 122.562 65.3487 123.065C64.9129 123.299 64.4779 123.534 64.0375 123.758C63.9293 123.808 63.8355 123.885 63.7648 123.981C63.6942 124.077 63.649 124.189 63.6334 124.307C63.556 124.776 63.4702 125.244 63.3932 125.713C63.2142 126.801 62.4265 127.404 61.3414 127.269C60.8569 127.209 60.3747 127.142 59.8917 127.061C59.6129 127.014 59.3925 127.081 59.193 127.282C58.8449 127.633 58.4845 127.974 58.1265 128.316C57.3736 129.035 56.3767 129.037 55.6242 128.319C55.2519 127.964 54.8822 127.607 54.5151 127.246C54.4393 127.167 54.345 127.108 54.2408 127.074C54.1365 127.04 54.0255 127.033 53.9177 127.053C53.4285 127.126 52.9382 127.192 52.4483 127.266C51.4042 127.423 50.5898 126.865 50.381 125.833C50.2851 125.348 50.1977 124.861 50.1269 124.372C50.0825 124.07 49.9406 123.869 49.6679 123.734C49.2376 123.519 48.8141 123.285 48.3868 123.06C47.9742 122.842 47.6548 122.533 47.5052 122.084C47.4375 121.881 47.4201 121.659 47.3799 121.448V121.371C47.424 121.212 47.4487 121.045 47.5164 120.896C47.7527 120.377 47.9963 119.862 48.2511 119.352C48.381 119.094 48.3745 118.864 48.2511 118.603C47.9448 117.939 47.5361 117.316 47.3814 116.585V116.507C47.3907 116.451 47.4042 116.396 47.4085 116.34C47.4514 115.778 47.6962 115.323 48.178 115.033C48.6714 114.734 49.1854 114.468 49.6985 114.204C49.9514 114.073 50.0786 113.881 50.1239 113.605C50.2043 113.099 50.2859 112.592 50.3899 112.089C50.5832 111.164 51.2793 110.614 52.2151 110.68C52.7646 110.718 53.311 110.812 53.8562 110.896C54.1269 110.937 54.3458 110.884 54.5407 110.687C54.8249 110.399 55.1292 110.131 55.4107 109.84C55.7669 109.472 56.1625 109.181 56.6818 109.098ZM61.2448 115.246C61.2038 114.898 60.9458 114.627 60.626 114.661C60.4632 114.682 60.3111 114.754 60.1914 114.867C57.707 117.337 55.2279 119.813 52.7541 122.294C52.7219 122.326 52.6921 122.359 52.6648 122.395C52.5264 122.584 52.5055 122.787 52.6103 122.994C52.7151 123.2 52.891 123.303 53.1254 123.303C53.3388 123.303 53.48 123.178 53.6188 123.039C55.8407 120.815 58.0633 118.592 60.2865 116.37C60.5274 116.129 60.7769 115.896 61.005 115.643C61.1067 115.531 61.1651 115.379 61.2432 115.246H61.2448ZM59.1524 119.933C58.8781 119.932 58.6065 119.986 58.353 120.09C58.0995 120.195 57.8691 120.348 57.6749 120.542C57.2826 120.933 57.0618 121.464 57.0609 122.018C57.0601 122.571 57.2792 123.103 57.6702 123.495C58.0612 123.887 58.592 124.108 59.1458 124.109C60.2958 124.114 61.2424 123.166 61.239 122.013C61.239 121.739 61.1849 121.468 61.08 121.215C60.9751 120.963 60.8213 120.733 60.6274 120.54C60.4336 120.346 60.2035 120.193 59.9504 120.089C59.6973 119.985 59.4261 119.932 59.1524 119.933ZM54.5944 118.024C55.1482 118.026 55.68 117.807 56.0728 117.417C56.4655 117.026 56.6871 116.496 56.6887 115.942C56.6904 115.388 56.472 114.857 56.0815 114.464C55.6911 114.071 55.1606 113.849 54.6068 113.848C53.4575 113.84 52.5082 114.788 52.5105 115.941C52.5105 116.215 52.5644 116.486 52.6692 116.738C52.7739 116.991 52.9274 117.221 53.1209 117.414C53.3144 117.608 53.5442 117.761 53.797 117.866C54.0498 117.97 54.3208 118.024 54.5944 118.024Z" fill="#7F2684"/>
<path d="M59.1556 122.959C59.0319 122.96 58.9093 122.936 58.7948 122.89C58.6802 122.843 58.5759 122.774 58.488 122.688C58.4 122.601 58.33 122.497 58.282 122.383C58.234 122.269 58.2089 122.147 58.2082 122.023C58.2043 121.896 58.2258 121.77 58.2715 121.652C58.3171 121.534 58.3861 121.426 58.4741 121.335C58.5622 121.244 58.6677 121.171 58.7843 121.122C58.9009 121.072 59.0263 121.046 59.153 121.046C59.2798 121.046 59.4053 121.071 59.5221 121.12C59.639 121.169 59.7449 121.241 59.8334 121.331C59.922 121.422 59.9915 121.529 60.0378 121.647C60.0841 121.765 60.1063 121.891 60.103 122.018C60.102 122.269 60.0017 122.508 59.824 122.685C59.6464 122.861 59.406 122.96 59.1556 122.959Z" fill="#7F2684"/>
<path d="M55.5432 115.942C55.5342 116.187 55.431 116.418 55.255 116.589C55.079 116.759 54.844 116.854 54.5991 116.855C54.3542 116.856 54.1185 116.762 53.9413 116.593C53.7641 116.424 53.6591 116.193 53.6484 115.949C53.6428 115.821 53.663 115.694 53.7079 115.574C53.7527 115.455 53.8213 115.345 53.9094 115.253C53.9976 115.16 54.1035 115.087 54.2208 115.036C54.3381 114.986 54.4644 114.959 54.5921 114.959C54.7199 114.959 54.8464 114.984 54.9641 115.033C55.0818 115.083 55.1882 115.156 55.277 115.248C55.3658 115.34 55.4352 115.448 55.4809 115.568C55.5267 115.687 55.5478 115.814 55.5432 115.942Z" fill="#7F2684"/>
<path d="M36 157.483C36 152.246 40.2456 148 45.4828 148H64.9036C66.8713 148 68.7432 148.849 70.039 150.33C72.6959 153.367 77.3931 153.447 80.1526 150.504L80.3864 150.255C81.7349 148.816 83.6187 148 85.5904 148H136.517C141.754 148 146 152.246 146 157.483V187.828C146 193.065 141.754 197.31 136.517 197.31H85.5904C83.6187 197.31 81.7349 196.494 80.3864 195.056L80.1526 194.806C77.3931 191.863 72.6959 191.944 70.039 194.98C68.7432 196.461 66.8713 197.31 64.9036 197.31H45.4828C40.2456 197.31 36 193.065 36 187.828V157.483Z" fill="white"/>
<rect opacity="0.5" x="81" y="159" width="29" height="6" rx="3" fill="#DFDFDF"/>
<circle opacity="0.1" cx="56.8632" cy="173.158" r="15.1738" fill="#7F2684"/>
<path d="M61.7733 165.599C61.8993 165.389 61.8784 165.116 61.6894 164.926L60.45 163.685C59.9458 163.18 59.1055 163.18 58.6013 163.685L55.4502 166.84L63.0758 174.475L66.2269 171.32C66.7311 170.815 66.7311 169.974 66.2269 169.469L64.9875 168.228C64.8195 168.06 64.5254 168.018 64.3152 168.144C63.5799 168.607 62.6557 168.502 62.0464 167.892C61.4162 167.261 61.3111 166.335 61.7733 165.599L61.7733 165.599Z" fill="#7F2684"/>
</g>
<defs>
<linearGradient id="paint0_linear_2138_20268" x1="44.0333" y1="-5.53333" x2="152.3" y2="251.533" gradientUnits="userSpaceOnUse">
<stop offset="0.219581" stop-color="#DDF5FB"/>
<stop offset="1" stop-color="#DA0095"/>
</linearGradient>
<linearGradient id="paint1_linear_2138_20268" x1="41.0667" y1="-11.5667" x2="156.1" y2="261.567" gradientUnits="userSpaceOnUse">
<stop offset="0.219581" stop-color="#DDF5FB"/>
<stop offset="1" stop-color="#DA0095"/>
</linearGradient>
<linearGradient id="paint2_linear_2138_20268" x1="47" y1="0.500002" x2="148.5" y2="241.5" gradientUnits="userSpaceOnUse">
<stop offset="0.219581" stop-color="#DDF5FB"/>
<stop offset="1" stop-color="#DA0095"/>
</linearGradient>
<linearGradient id="paint3_linear_2138_20268" x1="47" y1="0.500002" x2="148.5" y2="241.5" gradientUnits="userSpaceOnUse">
<stop offset="0.219581" stop-color="#DDF5FB"/>
<stop offset="1" stop-color="#DA0095"/>
</linearGradient>
<linearGradient id="paint4_linear_2138_20268" x1="47.2967" y1="0.603335" x2="148.12" y2="239.997" gradientUnits="userSpaceOnUse">
<stop offset="0.219581" stop-color="#DDF5FB"/>
<stop offset="1" stop-color="#DA0095"/>
</linearGradient>
</defs>
</svg>
