<svg width="60" height="60" viewBox="0 0 60 60" fill="none" xmlns="http://www.w3.org/2000/svg">
<g opacity="0.6">
<path d="M58.5 30C58.5 45.7401 45.7401 58.5 30 58.5C14.2599 58.5 1.5 45.7401 1.5 30C1.5 14.2599 14.2599 1.5 30 1.5C45.7401 1.5 58.5 14.2599 58.5 30Z" stroke="white" stroke-width="3"/>
<mask id="path-2-inside-1_438_7538" fill="white">
<path d="M38.3924 38.7798C37.4809 38.766 36.5889 38.514 35.8049 38.049C35.0209 37.5839 34.3722 36.9218 33.9231 36.1286C33.8402 35.9843 33.7865 35.8252 33.7652 35.6602C33.7438 35.4952 33.7551 35.3276 33.7985 35.167C33.8861 34.8426 34.0989 34.5664 34.3902 34.3989C34.6815 34.2315 35.0274 34.1867 35.3518 34.2743C35.6762 34.3619 35.9524 34.5748 36.1199 34.8661C36.3588 35.2579 36.6945 35.5817 37.0946 35.8064C37.4948 36.0311 37.946 36.1491 38.405 36.1491C38.8639 36.1491 39.3151 36.0311 39.7153 35.8064C40.1155 35.5817 40.4512 35.2579 40.6901 34.8661C40.8575 34.5748 41.1338 34.3619 41.4582 34.2743C41.7825 34.1867 42.1284 34.2315 42.4197 34.3989C42.711 34.5664 42.9239 34.8426 43.0115 35.167C43.0991 35.4914 43.0543 35.8373 42.8868 36.1286C42.4376 36.9272 41.7854 37.593 40.9961 38.0586C40.2069 38.5241 39.3087 38.7729 38.3924 38.7798Z"/>
</mask>
<path d="M38.3924 38.7798C37.4809 38.766 36.5889 38.514 35.8049 38.049C35.0209 37.5839 34.3722 36.9218 33.9231 36.1286C33.8402 35.9843 33.7865 35.8252 33.7652 35.6602C33.7438 35.4952 33.7551 35.3276 33.7985 35.167C33.8861 34.8426 34.0989 34.5664 34.3902 34.3989C34.6815 34.2315 35.0274 34.1867 35.3518 34.2743C35.6762 34.3619 35.9524 34.5748 36.1199 34.8661C36.3588 35.2579 36.6945 35.5817 37.0946 35.8064C37.4948 36.0311 37.946 36.1491 38.405 36.1491C38.8639 36.1491 39.3151 36.0311 39.7153 35.8064C40.1155 35.5817 40.4512 35.2579 40.6901 34.8661C40.8575 34.5748 41.1338 34.3619 41.4582 34.2743C41.7825 34.1867 42.1284 34.2315 42.4197 34.3989C42.711 34.5664 42.9239 34.8426 43.0115 35.167C43.0991 35.4914 43.0543 35.8373 42.8868 36.1286C42.4376 36.9272 41.7854 37.593 40.9961 38.0586C40.2069 38.5241 39.3087 38.7729 38.3924 38.7798Z" fill="#231F20"/>
<path d="M33.9231 36.1286L37.4388 34.1383L37.4324 34.1269L37.4258 34.1155L33.9231 36.1286ZM33.7985 35.167L37.6987 36.2204L33.7985 35.167ZM36.1199 34.8661L32.6171 36.8791L32.6433 36.9246L32.6706 36.9695L36.1199 34.8661ZM40.6901 34.8661L44.1393 36.9695L44.1667 36.9246L44.1928 36.8791L40.6901 34.8661ZM42.8868 36.1286L39.3841 34.1155L39.3748 34.1317L39.3657 34.1479L42.8868 36.1286ZM38.4536 34.7403C38.2467 34.7371 38.0441 34.6799 37.8661 34.5743L33.7437 41.5236C35.1337 42.3481 36.7151 42.7948 38.3311 42.8193L38.4536 34.7403ZM37.8661 34.5743C37.6881 34.4687 37.5408 34.3184 37.4388 34.1383L30.4074 38.1188C31.2036 39.5253 32.3537 40.699 33.7437 41.5236L37.8661 34.5743ZM37.4258 34.1155C37.6073 34.4313 37.7248 34.7797 37.7716 35.1408L29.7587 36.1796C29.8483 36.8707 30.0731 37.5374 30.4204 38.1416L37.4258 34.1155ZM37.7716 35.1408C37.8184 35.5019 37.7937 35.8688 37.6987 36.2204L29.8982 34.1137C29.7165 34.7865 29.6691 35.4885 29.7587 36.1796L37.7716 35.1408ZM37.6987 36.2204C37.5069 36.9304 37.041 37.5352 36.4033 37.9017L32.3772 30.8962C31.1569 31.5975 30.2652 32.7549 29.8982 34.1137L37.6987 36.2204ZM36.4033 37.9017C35.7656 38.2682 35.0085 38.3663 34.2984 38.1745L36.4051 30.374C35.0464 30.0071 33.5975 30.1949 32.3772 30.8962L36.4033 37.9017ZM34.2984 38.1745C33.5884 37.9828 32.9836 37.5168 32.6171 36.8791L39.6226 32.853C38.9213 31.6327 37.7639 30.741 36.4051 30.374L34.2984 38.1745ZM32.6706 36.9695C33.2702 37.9527 34.1126 38.7653 35.1168 39.3291L39.0725 32.2836C39.2764 32.3981 39.4474 32.5631 39.5691 32.7627L32.6706 36.9695ZM35.1168 39.3291C36.121 39.8929 37.2533 40.1891 38.405 40.1891V32.1091C38.6388 32.1091 38.8686 32.1692 39.0725 32.2836L35.1168 39.3291ZM38.405 40.1891C39.5566 40.1891 40.689 39.8929 41.6932 39.3291L37.7375 32.2836C37.9413 32.1692 38.1712 32.1091 38.405 32.1091V40.1891ZM41.6932 39.3291C42.6974 38.7653 43.5397 37.9527 44.1393 36.9695L37.2409 32.7627C37.3626 32.5631 37.5336 32.3981 37.7375 32.2836L41.6932 39.3291ZM44.1928 36.8791C43.8263 37.5168 43.2216 37.9828 42.5115 38.1745L40.4048 30.374C39.046 30.741 37.8887 31.6327 37.1874 32.853L44.1928 36.8791ZM42.5115 38.1745C41.8015 38.3663 41.0443 38.2682 40.4067 37.9017L44.4328 30.8962C43.2125 30.1949 41.7636 30.0071 40.4048 30.374L42.5115 38.1745ZM40.4067 37.9017C39.769 37.5352 39.303 36.9304 39.1112 36.2204L46.9117 34.1137C46.5448 32.7549 45.6531 31.5975 44.4328 30.8962L40.4067 37.9017ZM39.1112 36.2204C38.9195 35.5103 39.0176 34.7532 39.3841 34.1155L46.3896 38.1416C47.0909 36.9213 47.2787 35.4724 46.9117 34.1137L39.1112 36.2204ZM39.3657 34.1479C39.2654 34.3262 39.1197 34.4749 38.9435 34.5789L43.0487 41.5383C44.451 40.7111 45.6098 39.5282 46.408 38.1092L39.3657 34.1479ZM38.9435 34.5789C38.7672 34.6828 38.5667 34.7384 38.3621 34.7399L38.4226 42.8197C40.0506 42.8075 41.6465 42.3654 43.0487 41.5383L38.9435 34.5789Z" fill="white" mask="url(#path-2-inside-1_438_7538)"/>
<mask id="path-4-inside-2_438_7538" fill="white">
<path d="M20.7173 38.7798C19.8058 38.766 18.9139 38.514 18.1299 38.049C17.3459 37.5839 16.6971 36.9218 16.2481 36.1286C16.0806 35.8373 16.0358 35.4914 16.1234 35.167C16.211 34.8426 16.4239 34.5664 16.7152 34.3989C17.0065 34.2315 17.3524 34.1867 17.6767 34.2743C18.0011 34.3619 18.2774 34.5748 18.4448 34.8661C18.6838 35.2579 19.0194 35.5817 19.4196 35.8064C19.8198 36.0311 20.271 36.1491 20.7299 36.1491C21.1889 36.1491 21.6401 36.0311 22.0403 35.8064C22.4404 35.5817 22.7761 35.2579 23.015 34.8661C23.1825 34.5748 23.4588 34.3619 23.7831 34.2743C24.1075 34.1867 24.4534 34.2315 24.7447 34.3989C25.036 34.5664 25.2488 34.8426 25.3365 35.167C25.4241 35.4914 25.3792 35.8373 25.2118 36.1286C24.7626 36.9272 24.1103 37.593 23.3211 38.0586C22.5318 38.5241 21.6336 38.7729 20.7173 38.7798Z"/>
</mask>
<path d="M20.7173 38.7798C19.8058 38.766 18.9139 38.514 18.1299 38.049C17.3459 37.5839 16.6971 36.9218 16.2481 36.1286C16.0806 35.8373 16.0358 35.4914 16.1234 35.167C16.211 34.8426 16.4239 34.5664 16.7152 34.3989C17.0065 34.2315 17.3524 34.1867 17.6767 34.2743C18.0011 34.3619 18.2774 34.5748 18.4448 34.8661C18.6838 35.2579 19.0194 35.5817 19.4196 35.8064C19.8198 36.0311 20.271 36.1491 20.7299 36.1491C21.1889 36.1491 21.6401 36.0311 22.0403 35.8064C22.4404 35.5817 22.7761 35.2579 23.015 34.8661C23.1825 34.5748 23.4588 34.3619 23.7831 34.2743C24.1075 34.1867 24.4534 34.2315 24.7447 34.3989C25.036 34.5664 25.2488 34.8426 25.3365 35.167C25.4241 35.4914 25.3792 35.8373 25.2118 36.1286C24.7626 36.9272 24.1103 37.593 23.3211 38.0586C22.5318 38.5241 21.6336 38.7729 20.7173 38.7798Z" fill="#231F20"/>
<path d="M16.2481 36.1286L19.7638 34.1383L19.7573 34.1269L19.7508 34.1155L16.2481 36.1286ZM18.4448 34.8661L14.9421 36.8791L14.9682 36.9246L14.9956 36.9695L18.4448 34.8661ZM23.015 34.8661L26.4643 36.9695L26.4916 36.9246L26.5178 36.8791L23.015 34.8661ZM25.2118 36.1286L21.7091 34.1155L21.6998 34.1317L21.6906 34.1479L25.2118 36.1286ZM20.7786 34.7403C20.5716 34.7371 20.3691 34.6799 20.1911 34.5743L16.0686 41.5236C17.4586 42.3481 19.0401 42.7948 20.6561 42.8193L20.7786 34.7403ZM20.1911 34.5743C20.0131 34.4687 19.8658 34.3184 19.7638 34.1383L12.7323 38.1188C13.5285 39.5253 14.6787 40.699 16.0686 41.5236L20.1911 34.5743ZM19.7508 34.1155C20.1173 34.7532 20.2154 35.5103 20.0237 36.2204L12.2232 34.1137C11.8562 35.4724 12.044 36.9213 12.7453 38.1416L19.7508 34.1155ZM20.0237 36.2204C19.8319 36.9304 19.3659 37.5352 18.7283 37.9017L14.7021 30.8962C13.4818 31.5975 12.5901 32.7549 12.2232 34.1137L20.0237 36.2204ZM18.7283 37.9017C18.0906 38.2682 17.3334 38.3663 16.6234 38.1745L18.7301 30.374C17.3713 30.0071 15.9224 30.1949 14.7021 30.8962L18.7283 37.9017ZM16.6234 38.1745C15.9133 37.9828 15.3086 37.5168 14.9421 36.8791L21.9475 32.853C21.2462 31.6327 20.0889 30.741 18.7301 30.374L16.6234 38.1745ZM14.9956 36.9695C15.5952 37.9527 16.4375 38.7653 17.4417 39.3291L21.3975 32.2836C21.6013 32.3981 21.7723 32.5631 21.894 32.7627L14.9956 36.9695ZM17.4417 39.3291C18.446 39.8929 19.5783 40.1891 20.7299 40.1891V32.1091C20.9637 32.1091 21.1936 32.1692 21.3975 32.2836L17.4417 39.3291ZM20.7299 40.1891C21.8816 40.1891 23.0139 39.8929 24.0181 39.3291L20.0624 32.2836C20.2663 32.1692 20.4961 32.1091 20.7299 32.1091V40.1891ZM24.0181 39.3291C25.0223 38.7653 25.8647 37.9527 26.4643 36.9695L19.5658 32.7627C19.6875 32.5631 19.8585 32.3981 20.0624 32.2836L24.0181 39.3291ZM26.5178 36.8791C26.1513 37.5168 25.5465 37.9828 24.8365 38.1745L22.7298 30.374C21.371 30.741 20.2136 31.6327 19.5123 32.853L26.5178 36.8791ZM24.8365 38.1745C24.1264 38.3663 23.3693 38.2682 22.7316 37.9017L26.7577 30.8962C25.5374 30.1949 24.0885 30.0071 22.7298 30.374L24.8365 38.1745ZM22.7316 37.9017C22.0939 37.5352 21.628 36.9304 21.4362 36.2204L29.2367 34.1137C28.8697 32.7549 27.978 31.5975 26.7577 30.8962L22.7316 37.9017ZM21.4362 36.2204C21.2444 35.5103 21.3426 34.7532 21.7091 34.1155L28.7145 38.1416C29.4158 36.9214 29.6037 35.4725 29.2367 34.1137L21.4362 36.2204ZM21.6906 34.1479C21.5903 34.3262 21.4447 34.4749 21.2684 34.5789L25.3737 41.5383C26.7759 40.7111 27.9348 39.5282 28.7329 38.1092L21.6906 34.1479ZM21.2684 34.5789C21.0922 34.6828 20.8916 34.7384 20.687 34.7399L20.7476 42.8197C22.3756 42.8075 23.9715 42.3654 25.3737 41.5383L21.2684 34.5789Z" fill="white" mask="url(#path-4-inside-2_438_7538)"/>
<mask id="path-6-inside-3_438_7538" fill="white">
<path d="M31.2196 48.7545H28.6946C28.3598 48.7545 28.0387 48.6215 27.8019 48.3847C27.5651 48.1479 27.4321 47.8268 27.4321 47.492C27.4321 47.1572 27.5651 46.836 27.8019 46.5993C28.0387 46.3625 28.3598 46.2295 28.6946 46.2295H31.2196C31.5545 46.2295 31.8756 46.3625 32.1123 46.5993C32.3491 46.836 32.4821 47.1572 32.4821 47.492C32.4821 47.8268 32.3491 48.1479 32.1123 48.3847C31.8756 48.6215 31.5545 48.7545 31.2196 48.7545Z"/>
</mask>
<path d="M31.2196 48.7545H28.6946C28.3598 48.7545 28.0387 48.6215 27.8019 48.3847C27.5651 48.1479 27.4321 47.8268 27.4321 47.492C27.4321 47.1572 27.5651 46.836 27.8019 46.5993C28.0387 46.3625 28.3598 46.2295 28.6946 46.2295H31.2196C31.5545 46.2295 31.8756 46.3625 32.1123 46.5993C32.3491 46.836 32.4821 47.1572 32.4821 47.492C32.4821 47.8268 32.3491 48.1479 32.1123 48.3847C31.8756 48.6215 31.5545 48.7545 31.2196 48.7545Z" fill="white"/>
<path d="M31.2196 44.7145H28.6946V52.7945H31.2196V44.7145ZM28.6946 44.7145C29.4313 44.7145 30.1377 45.0071 30.6586 45.528L24.9452 51.2414C25.9396 52.2358 27.2883 52.7945 28.6946 52.7945V44.7145ZM30.6586 45.528C31.1795 46.0489 31.4721 46.7553 31.4721 47.492H23.3921C23.3921 48.8983 23.9508 50.247 24.9452 51.2414L30.6586 45.528ZM31.4721 47.492C31.4721 48.2286 31.1795 48.9351 30.6586 49.456L24.9452 43.7426C23.9508 44.737 23.3921 46.0857 23.3921 47.492H31.4721ZM30.6586 49.456C30.1377 49.9769 29.4313 50.2695 28.6946 50.2695V42.1895C27.2883 42.1895 25.9396 42.7482 24.9452 43.7426L30.6586 49.456ZM28.6946 50.2695H31.2196V42.1895H28.6946V50.2695ZM31.2196 50.2695C30.483 50.2695 29.7765 49.9769 29.2556 49.456L34.969 43.7426C33.9746 42.7481 32.6259 42.1895 31.2196 42.1895V50.2695ZM29.2556 49.456C28.7347 48.9351 28.4421 48.2286 28.4421 47.492H36.5221C36.5221 46.0857 35.9635 44.737 34.969 43.7426L29.2556 49.456ZM28.4421 47.492C28.4421 46.7554 28.7347 46.0489 29.2556 45.528L34.969 51.2414C35.9635 50.247 36.5221 48.8983 36.5221 47.492H28.4421ZM29.2556 45.528C29.7765 45.0071 30.483 44.7145 31.2196 44.7145V52.7945C32.6259 52.7945 33.9746 52.2358 34.969 51.2414L29.2556 45.528Z" fill="white" mask="url(#path-6-inside-3_438_7538)"/>
<mask id="path-8-inside-4_438_7538" fill="white">
<path d="M17.6118 27.2671C17.0503 27.2643 16.4911 27.1965 15.9453 27.0651C15.6104 26.9881 15.3199 26.7812 15.1376 26.49C14.9553 26.1987 14.8961 25.847 14.9732 25.5122C15.0502 25.1774 15.257 24.8868 15.5483 24.7045C15.8395 24.5222 16.1912 24.4631 16.526 24.5401C17.7479 24.8204 19.031 24.606 20.0954 23.9438C21.1597 23.2815 21.9189 22.2251 22.2073 21.0051C22.2843 20.6703 22.4911 20.3797 22.7824 20.1974C22.9266 20.1071 23.0871 20.0462 23.2549 20.0179C23.4227 19.9897 23.5943 19.9948 23.7601 20.033C23.9259 20.0711 24.0826 20.1415 24.2212 20.2402C24.3597 20.3389 24.4775 20.4639 24.5678 20.6081C24.6581 20.7523 24.7191 20.9128 24.7473 21.0806C24.7755 21.2484 24.7704 21.42 24.7323 21.5858C24.358 23.1755 23.4596 24.5929 22.1816 25.6098C20.9037 26.6267 19.3206 27.1837 17.6875 27.1913L17.6118 27.2671Z"/>
</mask>
<path d="M17.6118 27.2671C17.0503 27.2643 16.4911 27.1965 15.9453 27.0651C15.6104 26.9881 15.3199 26.7812 15.1376 26.49C14.9553 26.1987 14.8961 25.847 14.9732 25.5122C15.0502 25.1774 15.257 24.8868 15.5483 24.7045C15.8395 24.5222 16.1912 24.4631 16.526 24.5401C17.7479 24.8204 19.031 24.606 20.0954 23.9438C21.1597 23.2815 21.9189 22.2251 22.2073 21.0051C22.2843 20.6703 22.4911 20.3797 22.7824 20.1974C22.9266 20.1071 23.0871 20.0462 23.2549 20.0179C23.4227 19.9897 23.5943 19.9948 23.7601 20.033C23.9259 20.0711 24.0826 20.1415 24.2212 20.2402C24.3597 20.3389 24.4775 20.4639 24.5678 20.6081C24.6581 20.7523 24.7191 20.9128 24.7473 21.0806C24.7755 21.2484 24.7704 21.42 24.7323 21.5858C24.358 23.1755 23.4596 24.5929 22.1816 25.6098C20.9037 26.6267 19.3206 27.1837 17.6875 27.1913L17.6118 27.2671Z" fill="#231F20"/>
<path d="M17.6118 27.2671L17.5918 31.307L19.2769 31.3153L20.4685 30.1238L17.6118 27.2671ZM15.9453 27.0651L16.8911 23.1374L16.871 23.1325L16.8508 23.1279L15.9453 27.0651ZM16.526 24.5401L15.6205 28.4773L15.6226 28.4778L16.526 24.5401ZM22.2073 21.0051L26.1389 21.9343L26.1417 21.9225L26.1445 21.9106L22.2073 21.0051ZM22.7824 20.1974L24.9261 23.6218L22.7824 20.1974ZM24.7323 21.5858L28.6647 22.5116L28.6671 22.5015L28.6694 22.4914L24.7323 21.5858ZM17.6875 27.1913L17.6688 23.1514L16.0064 23.1591L14.8308 24.3346L17.6875 27.1913ZM17.6317 23.2271C17.3822 23.2259 17.1337 23.1958 16.8911 23.1374L14.9995 30.9928C15.8486 31.1973 16.7185 31.3027 17.5918 31.307L17.6317 23.2271ZM16.8508 23.1279C17.5602 23.291 18.1757 23.7293 18.5619 24.3463L11.7133 28.6337C12.4641 29.8331 13.6607 30.6851 15.0397 31.0023L16.8508 23.1279ZM18.5619 24.3463C18.9482 24.9632 19.0735 25.7084 18.9103 26.4178L11.036 24.6066C10.7188 25.9857 10.9624 27.4343 11.7133 28.6337L18.5619 24.3463ZM18.9103 26.4178C18.7472 27.1271 18.3089 27.7426 17.6919 28.1289L13.4046 21.2802C12.2052 22.031 11.3531 23.2276 11.036 24.6066L18.9103 26.4178ZM17.6919 28.1289C17.075 28.5151 16.3298 28.6404 15.6205 28.4773L17.4316 20.6029C16.0525 20.2857 14.604 20.5293 13.4046 21.2802L17.6919 28.1289ZM15.6226 28.4778C17.8843 28.9967 20.2595 28.5999 22.2297 27.3739L17.961 20.5136C17.8025 20.6122 17.6114 20.6441 17.4294 20.6024L15.6226 28.4778ZM22.2297 27.3739C24.1999 26.148 25.6052 24.1925 26.1389 21.9343L18.2756 20.0759C18.2326 20.2576 18.1196 20.4149 17.961 20.5136L22.2297 27.3739ZM26.1445 21.9106C25.9813 22.62 25.543 23.2355 24.9261 23.6218L20.6387 16.7731C19.4393 17.5239 18.5872 18.7205 18.2701 20.0995L26.1445 21.9106ZM24.9261 23.6218C24.6206 23.813 24.2804 23.9422 23.925 24.002L22.5848 16.0339C21.8939 16.1501 21.2326 16.4013 20.6387 16.7731L24.9261 23.6218ZM23.925 24.002C23.5695 24.0618 23.2058 24.0509 22.8546 23.9702L24.6657 16.0958C23.9829 15.9387 23.2758 15.9177 22.5848 16.0339L23.925 24.002ZM22.8546 23.9702C22.5033 23.8894 22.1714 23.7402 21.8778 23.5311L26.5645 16.9492C25.9937 16.5428 25.3485 16.2528 24.6657 16.0958L22.8546 23.9702ZM21.8778 23.5311C21.5843 23.3221 21.3347 23.0573 21.1435 22.7518L27.9921 18.4644C27.6203 17.8705 27.1352 17.3556 26.5645 16.9492L21.8778 23.5311ZM21.1435 22.7518C20.9522 22.4462 20.823 22.1061 20.7632 21.7507L28.7313 20.4105C28.6151 19.7196 28.3639 19.0583 27.9921 18.4644L21.1435 22.7518ZM20.7632 21.7507C20.7035 21.3953 20.7143 21.0315 20.7951 20.6803L28.6694 22.4914C28.8265 21.8085 28.8475 21.1015 28.7313 20.4105L20.7632 21.7507ZM20.7998 20.66C20.6334 21.3666 20.2341 21.9965 19.6662 22.4485L24.6971 28.7711C26.685 27.1893 28.0826 24.9845 28.6647 22.5116L20.7998 20.66ZM19.6662 22.4485C19.0982 22.9004 18.3946 23.148 17.6688 23.1514L17.7063 31.2313C20.2467 31.2195 22.7092 30.3529 24.6971 28.7711L19.6662 22.4485ZM14.8308 24.3346L14.7551 24.4103L20.4685 30.1238L20.5442 30.048L14.8308 24.3346Z" fill="white" mask="url(#path-8-inside-4_438_7538)"/>
<mask id="path-10-inside-5_438_7538" fill="white">
<path d="M42.177 27.2662C40.5501 27.2391 38.9792 26.667 37.7158 25.6417C36.4524 24.6163 35.5694 23.1968 35.208 21.6103C35.131 21.2754 35.1902 20.9237 35.3725 20.6325C35.5548 20.3413 35.8453 20.1344 36.1801 20.0574C36.515 19.9804 36.8667 20.0395 37.1579 20.2218C37.4491 20.4041 37.656 20.6947 37.733 21.0295C38.0213 22.2495 38.7805 23.3059 39.8449 23.9682C40.9093 24.6305 42.1924 24.8448 43.4142 24.5645C43.58 24.5264 43.7517 24.5213 43.9195 24.5495C44.0873 24.5777 44.2478 24.6387 44.392 24.7289C44.5362 24.8192 44.6612 24.937 44.7599 25.0756C44.8586 25.2142 44.929 25.3708 44.9671 25.5366C45.0052 25.7024 45.0104 25.8741 44.9821 26.0419C44.9539 26.2096 44.8929 26.3702 44.8027 26.5144C44.7124 26.6586 44.5946 26.7836 44.456 26.8823C44.3174 26.9809 44.1608 27.0514 43.995 27.0895C43.3988 27.2246 42.788 27.284 42.177 27.2662Z"/>
</mask>
<path d="M42.177 27.2662C40.5501 27.2391 38.9792 26.667 37.7158 25.6417C36.4524 24.6163 35.5694 23.1968 35.208 21.6103C35.131 21.2754 35.1902 20.9237 35.3725 20.6325C35.5548 20.3413 35.8453 20.1344 36.1801 20.0574C36.515 19.9804 36.8667 20.0395 37.1579 20.2218C37.4491 20.4041 37.656 20.6947 37.733 21.0295C38.0213 22.2495 38.7805 23.3059 39.8449 23.9682C40.9093 24.6305 42.1924 24.8448 43.4142 24.5645C43.58 24.5264 43.7517 24.5213 43.9195 24.5495C44.0873 24.5777 44.2478 24.6387 44.392 24.7289C44.5362 24.8192 44.6612 24.937 44.7599 25.0756C44.8586 25.2142 44.929 25.3708 44.9671 25.5366C45.0052 25.7024 45.0104 25.8741 44.9821 26.0419C44.9539 26.2096 44.8929 26.3702 44.8027 26.5144C44.7124 26.6586 44.5946 26.7836 44.456 26.8823C44.3174 26.9809 44.1608 27.0514 43.995 27.0895C43.3988 27.2246 42.788 27.284 42.177 27.2662Z" fill="#231F20"/>
<path d="M35.208 21.6103L39.1471 20.713L39.1452 20.7047L35.208 21.6103ZM37.733 21.0295L33.7958 21.9351L33.7985 21.9469L33.8013 21.9587L37.733 21.0295ZM43.4142 24.5645L44.3177 28.5022L44.3198 28.5017L43.4142 24.5645ZM43.995 27.0895L44.8878 31.0296L44.9005 31.0267L43.995 27.0895ZM42.2444 23.2268C41.5214 23.2147 40.8232 22.9605 40.2617 22.5048L35.1699 28.7785C37.1353 30.3736 39.5788 31.2634 42.1096 31.3057L42.2444 23.2268ZM40.2617 22.5048C39.7002 22.049 39.3077 21.4182 39.1471 20.713L31.2689 22.5075C31.831 24.9754 33.2046 27.1835 35.1699 28.7785L40.2617 22.5048ZM39.1452 20.7047C39.3084 21.4141 39.183 22.1592 38.7968 22.7762L31.9481 18.4888C31.1973 19.6882 30.9536 21.1368 31.2708 22.5158L39.1452 20.7047ZM38.7968 22.7762C38.4106 23.3932 37.7951 23.8314 37.0857 23.9946L35.2746 16.1202C33.8955 16.4374 32.699 17.2894 31.9481 18.4888L38.7968 22.7762ZM37.0857 23.9946C36.3763 24.1577 35.6312 24.0324 35.0142 23.6462L39.3016 16.7975C38.1022 16.0466 36.6536 15.803 35.2746 16.1202L37.0857 23.9946ZM35.0142 23.6462C34.3972 23.2599 33.959 22.6444 33.7958 21.9351L41.6702 20.1239C41.353 18.7449 40.501 17.5483 39.3016 16.7975L35.0142 23.6462ZM33.8013 21.9587C34.335 24.217 35.7403 26.1724 37.7106 27.3984L41.9792 20.538C41.8207 20.4394 41.7076 20.282 41.6647 20.1003L33.8013 21.9587ZM37.7106 27.3984C39.6808 28.6243 42.0559 29.0211 44.3177 28.5022L42.5108 20.6268C42.3289 20.6686 42.1378 20.6366 41.9792 20.538L37.7106 27.3984ZM44.3198 28.5017C43.9685 28.5825 43.6048 28.5933 43.2494 28.5335L44.5896 20.5654C43.8986 20.4492 43.1915 20.4702 42.5087 20.6273L44.3198 28.5017ZM43.2494 28.5335C42.894 28.4737 42.5538 28.3445 42.2483 28.1533L46.5357 21.3046C45.9418 20.9328 45.2805 20.6817 44.5896 20.5654L43.2494 28.5335ZM42.2483 28.1533C41.9429 27.9621 41.678 27.7125 41.4689 27.4189L48.0508 22.7323C47.6444 22.1615 47.1295 21.6764 46.5357 21.3046L42.2483 28.1533ZM41.4689 27.4189C41.2599 27.1253 41.1107 26.7934 41.0299 26.4422L48.9043 24.6311C48.7473 23.9483 48.4573 23.3031 48.0508 22.7323L41.4689 27.4189ZM41.0299 26.4422C40.9491 26.091 40.9383 25.7272 40.9981 25.3718L48.9662 26.7119C49.0824 26.021 49.0614 25.3139 48.9043 24.6311L41.0299 26.4422ZM40.9981 25.3718C41.0579 25.0164 41.1871 24.6762 41.3783 24.3707L48.227 28.6581C48.5988 28.0642 48.85 27.4029 48.9662 26.7119L40.9981 25.3718ZM41.3783 24.3707C41.5696 24.0652 41.8191 23.8004 42.1127 23.5913L46.7994 30.1732C47.3701 29.7668 47.8552 29.252 48.227 28.6581L41.3783 24.3707ZM42.1127 23.5913C42.4063 23.3822 42.7382 23.2331 43.0894 23.1523L44.9005 31.0267C45.5834 30.8696 46.2286 30.5796 46.7994 30.1732L42.1127 23.5913ZM43.1022 23.1494C42.8372 23.2094 42.5657 23.2358 42.2942 23.2279L42.0598 31.3045C43.0103 31.3321 43.9605 31.2397 44.8878 31.0296L43.1022 23.1494Z" fill="white" mask="url(#path-10-inside-5_438_7538)"/>
</g>
</svg>
