<svg width="60" height="60" viewBox="0 0 60 60" fill="none" xmlns="http://www.w3.org/2000/svg">
<g opacity="0.3">
<path d="M58.5 30C58.5 45.7401 45.7401 58.5 30 58.5C14.2599 58.5 1.5 45.7401 1.5 30C1.5 14.2599 14.2599 1.5 30 1.5C45.7401 1.5 58.5 14.2599 58.5 30Z" stroke="black" stroke-width="3"/>
<path d="M38.3924 38.7798C37.4809 38.766 36.5889 38.514 35.8049 38.049C35.0209 37.5839 34.3722 36.9218 33.9231 36.1286C33.8402 35.9843 33.7865 35.8252 33.7652 35.6602C33.7438 35.4952 33.7551 35.3276 33.7985 35.167C33.8861 34.8426 34.0989 34.5664 34.3902 34.3989C34.6815 34.2315 35.0274 34.1867 35.3518 34.2743C35.6762 34.3619 35.9524 34.5748 36.1199 34.8661C36.3588 35.2579 36.6945 35.5817 37.0946 35.8064C37.4948 36.0311 37.946 36.1491 38.405 36.1491C38.8639 36.1491 39.3151 36.0311 39.7153 35.8064C40.1155 35.5817 40.4512 35.2579 40.6901 34.8661C40.8575 34.5748 41.1338 34.3619 41.4582 34.2743C41.7825 34.1867 42.1284 34.2315 42.4197 34.3989C42.711 34.5664 42.9239 34.8426 43.0115 35.167C43.0991 35.4914 43.0543 35.8373 42.8868 36.1286C42.4376 36.9272 41.7854 37.593 40.9961 38.0586C40.2069 38.5241 39.3087 38.7729 38.3924 38.7798Z" fill="#231F20"/>
<path d="M20.7173 38.7798C19.8058 38.766 18.9139 38.514 18.1299 38.049C17.3459 37.5839 16.6971 36.9218 16.2481 36.1286C16.0806 35.8373 16.0358 35.4914 16.1234 35.167C16.211 34.8426 16.4239 34.5664 16.7152 34.3989C17.0065 34.2315 17.3524 34.1867 17.6767 34.2743C18.0011 34.3619 18.2774 34.5748 18.4448 34.8661C18.6838 35.2579 19.0194 35.5817 19.4196 35.8064C19.8198 36.0311 20.271 36.1491 20.7299 36.1491C21.1889 36.1491 21.6401 36.0311 22.0403 35.8064C22.4404 35.5817 22.7761 35.2579 23.015 34.8661C23.1825 34.5748 23.4588 34.3619 23.7831 34.2743C24.1075 34.1867 24.4534 34.2315 24.7447 34.3989C25.036 34.5664 25.2488 34.8426 25.3365 35.167C25.4241 35.4914 25.3792 35.8373 25.2118 36.1286C24.7626 36.9272 24.1103 37.593 23.3211 38.0586C22.5318 38.5241 21.6336 38.7729 20.7173 38.7798Z" fill="#231F20"/>
<path d="M31.2196 48.754H28.6946C28.3598 48.754 28.0387 48.621 27.8019 48.3842C27.5651 48.1475 27.4321 47.8263 27.4321 47.4915C27.4321 47.1567 27.5651 46.8355 27.8019 46.5988C28.0387 46.362 28.3598 46.229 28.6946 46.229H31.2196C31.5545 46.229 31.8756 46.362 32.1123 46.5988C32.3491 46.8355 32.4821 47.1567 32.4821 47.4915C32.4821 47.8263 32.3491 48.1475 32.1123 48.3842C31.8756 48.621 31.5545 48.754 31.2196 48.754Z" fill="#231F20"/>
<path d="M17.6118 27.2671C17.0503 27.2643 16.4911 27.1965 15.9453 27.0651C15.6104 26.9881 15.3199 26.7812 15.1376 26.49C14.9553 26.1987 14.8961 25.847 14.9732 25.5122C15.0502 25.1774 15.257 24.8868 15.5483 24.7045C15.8395 24.5222 16.1912 24.4631 16.526 24.5401C17.7479 24.8204 19.031 24.606 20.0954 23.9438C21.1597 23.2815 21.9189 22.2251 22.2073 21.0051C22.2843 20.6703 22.4911 20.3797 22.7824 20.1974C22.9266 20.1071 23.0871 20.0462 23.2549 20.0179C23.4227 19.9897 23.5943 19.9948 23.7601 20.033C23.9259 20.0711 24.0826 20.1415 24.2212 20.2402C24.3597 20.3389 24.4775 20.4639 24.5678 20.6081C24.6581 20.7523 24.7191 20.9128 24.7473 21.0806C24.7755 21.2484 24.7704 21.42 24.7323 21.5858C24.358 23.1755 23.4596 24.5929 22.1816 25.6098C20.9037 26.6267 19.3206 27.1837 17.6875 27.1913L17.6118 27.2671Z" fill="#231F20"/>
<path d="M42.177 27.2667C40.5501 27.2396 38.9792 26.6675 37.7158 25.6421C36.4524 24.6168 35.5694 23.1973 35.208 21.6107C35.131 21.2759 35.1902 20.9242 35.3725 20.633C35.5548 20.3418 35.8453 20.1349 36.1801 20.0579C36.515 19.9809 36.8667 20.04 37.1579 20.2223C37.4491 20.4046 37.656 20.6952 37.733 21.03C38.0213 22.25 38.7805 23.3064 39.8449 23.9687C40.9093 24.6309 42.1924 24.8453 43.4142 24.565C43.58 24.5269 43.7517 24.5217 43.9195 24.55C44.0873 24.5782 44.2478 24.6392 44.392 24.7294C44.5362 24.8197 44.6612 24.9375 44.7599 25.0761C44.8586 25.2147 44.929 25.3713 44.9671 25.5371C45.0052 25.7029 45.0104 25.8746 44.9821 26.0423C44.9539 26.2101 44.8929 26.3707 44.8027 26.5149C44.7124 26.6591 44.5946 26.7841 44.456 26.8828C44.3174 26.9814 44.1608 27.0518 43.995 27.09C43.3988 27.2251 42.788 27.2845 42.177 27.2667Z" fill="#231F20"/>
</g>
</svg>
