<svg width="32" height="32" viewBox="0 0 32 32" fill="none" xmlns="http://www.w3.org/2000/svg">
<path fill-rule="evenodd" clip-rule="evenodd" d="M14.4047 30.3174C14.4047 31.2035 13.6919 31.8256 12.8222 31.6845C12.8222 31.6845 13.3326 31.7876 12.8095 31.6819C5.5019 30.2031 0 23.744 0 16C0 7.16333 7.16333 0 16 0C24.8367 0 32 7.16333 32 16C32 23.7355 26.5104 30.1886 19.2143 31.6771C18.6838 31.7854 19.176 31.6846 19.176 31.6846C18.3032 31.8155 17.5952 31.2028 17.5952 30.3174V15.1927C17.5952 14.603 17.9334 14.465 18.35 14.8846L21.247 17.7939C22.7515 19.3025 25.0078 17.0394 23.5037 15.5308L17.0896 9.00512C16.4716 8.37416 15.4731 8.37528 14.8544 9.01256L8.49538 15.5307C6.99128 17.0393 9.24798 19.3024 10.752 17.7938L13.6494 14.8846C14.0664 14.4649 14.4042 14.6052 14.4042 15.1926L14.4047 30.3174Z" fill="#686868" fill-opacity="0.8"/>
</svg>
