<svg width="219" height="209" viewBox="0 0 219 209" fill="none" xmlns="http://www.w3.org/2000/svg">
<circle opacity="0.2" cx="104" cy="104.732" r="97.4412" stroke="url(#paint0_linear_1365_11710)"/>
<circle opacity="0.2" cx="104" cy="104.732" r="103.5" stroke="url(#paint1_linear_1365_11710)"/>
<circle cx="103.882" cy="104.615" r="91.3824" fill="url(#paint2_linear_1365_11710)" fill-opacity="0.2" stroke="url(#paint3_linear_1365_11710)"/>
<circle opacity="0.1" cx="105.608" cy="105.34" r="90.6078" fill="url(#paint4_linear_1365_11710)"/>
<mask id="mask0_1365_11710" style="mask-type:alpha" maskUnits="userSpaceOnUse" x="13" y="14" width="182" height="182">
<circle cx="103.608" cy="105.34" r="90.6078" fill="url(#paint5_linear_1365_11710)"/>
</mask>
<g mask="url(#mask0_1365_11710)">
<path d="M34.9327 56.9644C34.8218 56.7424 34.6971 56.5065 34.4615 56.4094C34.0596 56.2429 33.6438 56.5897 33.3528 56.9089C32.244 58.1021 31.1214 59.2814 30.0127 60.4746L33.3112 66.7598C35.7504 64.2346 36.4295 60.1555 34.9327 56.9782V56.9644Z" fill="#FFBF9D"/>
<path d="M40.67 67.2454C40.6423 66.621 40.5591 65.9689 40.2404 65.4278C39.9216 64.8867 39.2841 64.4982 38.6743 64.6231C38.0783 64.748 37.6903 65.3168 37.3576 65.8302C36.3598 67.3841 35.3758 68.9381 34.3779 70.492L37.7596 77.8456C39.8384 74.7515 40.8779 70.9638 40.6838 67.2454H40.67Z" fill="#FFBF9D"/>
<path d="M42.2361 76.6113C42.0975 76.084 41.7787 75.4597 41.2521 75.5152C40.8502 75.5429 40.6007 75.9592 40.4067 76.3199C39.7414 77.6102 39.0762 78.9006 38.4248 80.2048L41.3352 85.4632C42.6519 82.7438 42.9845 79.5527 42.2361 76.6251V76.6113Z" fill="#FFBF9D"/>
<path d="M1.1723 57.6583L22.2382 110.104C22.6263 111.048 23.5964 111.617 24.6081 111.478L46.3809 108.412C47.7807 108.217 48.6399 106.774 48.1687 105.456L29.3618 53.3294C29.0154 52.3582 28.0452 51.7616 27.0196 51.8726L2.97399 54.6198C1.51878 54.7863 0.617931 56.2986 1.15844 57.6583H1.1723Z" fill="#263238"/>
<path d="M3.58363 57.9085L23.4715 107.441C23.5685 107.69 23.8319 107.843 24.1091 107.815L46.3114 104.68C46.6856 104.624 46.9212 104.236 46.7965 103.889L29.0568 54.7034C28.9598 54.4398 28.6964 54.2733 28.4193 54.315L4.05484 57.1037C3.66679 57.1454 3.41732 57.5616 3.56977 57.9223L3.58363 57.9085Z" fill="white"/>
<path d="M6.13379 88.557L8.46213 64.4014C8.46213 64.4014 12.0101 64.443 13.0772 69.5488C14.1444 74.6547 14.1721 83.576 14.1721 83.576C14.1721 83.576 20.4642 86.5036 22.3074 101.571L26.5622 106.747L16.6668 116.681C16.6668 116.681 6.52185 97.1038 6.13379 88.5709V88.557Z" fill="#FFD3CA"/>
<path d="M35.0441 89.2916L23.347 91.3451C22.1273 91.5532 20.9216 90.8594 20.492 89.694C19.9376 88.1955 20.88 86.5583 22.46 86.2808L34.1432 84.2135C35.2658 84.0193 36.3884 84.5881 36.9012 85.6149C37.6635 87.1688 36.721 89.0141 35.0441 89.3055V89.2916Z" fill="#8385FD"/>
<path d="M29.667 65.9414L26.7011 66.4686L16.0573 68.3556L13.1191 68.8828L14.4496 72.5041L18.843 84.4223L35.3908 81.4809L29.667 65.9414Z" stroke="black" stroke-width="0.67" stroke-miterlimit="10"/>
<path fill-rule="evenodd" clip-rule="evenodd" d="M30.0829 71.9483L29.8612 71.3655L29.6394 70.7828L29.4177 70.2001L29.1959 69.6173L28.9742 69.0346L28.7524 68.4519L28.5307 67.8691L27.907 67.9801L27.2834 68.0911L26.6597 68.2021L26.036 68.3131L25.4124 68.4241L24.7887 68.5351L24.165 68.6461L24.3868 69.2288L24.6085 69.8116L24.8303 70.3943L25.052 70.977L25.2738 71.5598L25.4955 72.1425L25.7173 72.7252L26.3409 72.6143L26.9646 72.5033L27.5883 72.3923L28.2119 72.2813L28.8356 72.1703L29.4592 72.0593L30.0829 71.9483ZM29.2375 71.4765L29.0157 70.8938L28.794 70.3111L28.5723 69.7283L28.3505 69.1456L28.1288 68.5629L27.5051 68.6739L26.8814 68.7849L26.2578 68.8959L25.6341 69.0069L25.0104 69.1179L25.2322 69.7006L25.4539 70.2833L25.6757 70.866L25.8974 71.4488L26.1192 72.0315L26.7428 71.9205L27.3665 71.8095L27.9902 71.6985L28.6138 71.5875L29.2375 71.4765Z" fill="black"/>
<path fill-rule="evenodd" clip-rule="evenodd" d="M22.1133 72.1005L21.8915 71.5178L21.6698 70.935L22.2934 70.824L22.9171 70.713L22.6953 70.1303L23.319 70.0193L23.9427 69.9083L23.7209 69.3256L23.0973 69.4366L22.4736 69.5476L22.2518 68.9648L21.6282 69.0758L21.0045 69.1868L20.3809 69.2978L20.6026 69.8806L20.8244 70.4633L21.0461 71.046L21.2678 71.6288L21.4896 72.2115L22.1133 72.1005ZM22.0855 70.2136L21.8638 69.6308L21.2401 69.7418L21.4619 70.3246L22.0855 70.2136Z" fill="black"/>
<path fill-rule="evenodd" clip-rule="evenodd" d="M21.2958 73.503L21.074 72.9202L20.8523 72.3375L20.6306 71.7548L20.4088 71.172L20.1871 70.5893L19.9653 70.0066L19.7436 69.4238L19.1199 69.5348L18.4962 69.6458L17.8726 69.7568L17.2489 69.8678L16.6253 69.9788L16.0016 70.0898L15.3779 70.2008L15.5997 70.7835L15.8214 71.3663L16.0432 71.949L16.2649 72.5317L16.4867 73.1145L16.7084 73.6972L16.9302 74.2799L17.5538 74.1689L18.1775 74.0579L18.8011 73.9469L19.4248 73.8359L20.0485 73.725L20.6721 73.614L21.2958 73.503ZM20.4504 73.0312L20.2286 72.4485L20.0069 71.8658L19.7851 71.283L19.5634 70.7003L19.3417 70.1176L18.718 70.2286L18.0943 70.3396L17.4707 70.4505L16.847 70.5615L16.2233 70.6725L16.4451 71.2553L16.6668 71.838L16.8886 72.4207L17.1103 73.0035L17.3321 73.5862L17.9557 73.4752L18.5794 73.3642L19.2031 73.2532L19.8267 73.1422L20.4504 73.0312Z" fill="black"/>
<path fill-rule="evenodd" clip-rule="evenodd" d="M28.3915 70.9908L27.7678 71.1018L27.1442 71.2128L26.5205 71.3238L26.2988 70.7272L26.077 70.1444L25.8691 69.5478L26.4928 69.4368L27.1165 69.3258L27.7401 69.2148L27.9619 69.8115L28.1836 70.3942L28.3915 70.9908Z" fill="black"/>
<path fill-rule="evenodd" clip-rule="evenodd" d="M19.6046 72.5443L18.9809 72.6553L18.3573 72.7663L17.7197 72.8773L17.5119 72.2946L17.2901 71.7118L17.0684 71.1152L17.7059 71.0042L18.3295 70.8932L18.9532 70.7822L19.175 71.365L19.3967 71.9616L19.6046 72.5443Z" fill="black"/>
<path fill-rule="evenodd" clip-rule="evenodd" d="M23.9986 71.7679L23.3749 71.8789L23.1532 71.2961L22.9453 70.6995L23.569 70.5885L24.1926 70.4775L24.4144 71.0741L23.7907 71.1851L23.9986 71.7679Z" fill="black"/>
<path fill-rule="evenodd" clip-rule="evenodd" d="M25.0662 72.8366L24.4425 72.9476L24.2208 72.3648L23.999 71.7682L24.6365 71.6572L24.8444 72.2538L25.0662 72.8366Z" fill="black"/>
<path fill-rule="evenodd" clip-rule="evenodd" d="M22.9587 72.5859L22.335 72.6969L22.1133 72.1003L22.7508 71.9893" fill="black"/>
<path fill-rule="evenodd" clip-rule="evenodd" d="M23.8044 73.0573L23.1807 73.1683L22.959 72.5856L23.5965 72.4746" fill="black"/>
<path fill-rule="evenodd" clip-rule="evenodd" d="M22.5563 73.28L21.9188 73.391L21.7109 72.8083L22.3346 72.6973" fill="black"/>
<path fill-rule="evenodd" clip-rule="evenodd" d="M24.6501 73.5439L24.0264 73.6549L23.8047 73.0583L24.4422 72.9473" fill="black"/>
<path fill-rule="evenodd" clip-rule="evenodd" d="M30.7621 75.5975L30.1385 75.7085L29.5148 75.8195L29.2931 75.2229L28.6694 75.3339L28.8773 75.9305L28.2536 76.0415L28.0319 75.4449L27.824 74.8622L28.4477 74.7512L28.2259 74.1546L28.8634 74.0436L28.6417 73.4608L28.018 73.5718L28.2259 74.1546L27.6023 74.2656L27.824 74.8622L27.1865 74.9732L26.5628 75.0842L25.9392 75.1952L25.3016 75.3062L25.0938 74.7234L25.7174 74.5986L26.3411 74.4876L26.9786 74.3766L26.7569 73.7938L27.3805 73.6828L27.1726 73.0862L27.7963 72.9752L28.42 72.8642L29.0436 72.7532L29.6811 72.6422L30.3048 72.5312L30.5265 73.1279L29.889 73.2389L29.2654 73.3499L29.4871 73.9326L30.1108 73.8216L30.7344 73.7106L30.9562 74.3072L31.1779 74.8899L30.5404 75.0009L30.7621 75.5975Z" fill="black"/>
<path fill-rule="evenodd" clip-rule="evenodd" d="M26.756 73.7929L26.1323 73.9039L25.4948 74.0149L24.8712 74.1259L24.6494 73.5432L25.2869 73.4322L25.9106 73.3073L26.5343 73.1963L26.756 73.7929Z" fill="black"/>
<path fill-rule="evenodd" clip-rule="evenodd" d="M26.7984 77.5538L26.5766 76.971L26.3549 76.3883L26.9785 76.2773L27.6022 76.1663L27.3804 75.5836L26.7568 75.6946L26.1331 75.8056L25.5095 75.9166L25.2877 75.3338L24.664 75.4448L24.4423 74.8621L23.8186 74.9731L24.0404 75.5558L23.4167 75.6668L23.195 75.0841L23.8186 74.9731L23.5969 74.3904L23.3751 73.8076L22.7515 73.9186L22.9732 74.5013L22.3496 74.6123L22.1278 74.0296L21.5042 74.1406L21.7259 74.7233L21.1022 74.8343L20.8805 74.2516L20.2568 74.3626L20.4786 74.9453L20.7003 75.5281L20.9221 76.1108L21.1438 76.6935L21.3656 77.2763L21.5873 77.859L22.211 77.748L21.9892 77.1653L21.7675 76.5825L22.3911 76.4715L23.0148 76.3605L23.2366 76.9433L23.4583 77.526L24.082 77.415L23.8602 76.8323L23.6385 76.2495L24.2621 76.1385L24.4839 76.7213L25.1075 76.6103L25.7312 76.4993L25.953 77.082L26.1747 77.6648L26.7984 77.5538ZM22.7931 75.7501L22.5713 75.1673L21.9477 75.2783L22.1694 75.8611L22.7931 75.7501Z" fill="black"/>
<path fill-rule="evenodd" clip-rule="evenodd" d="M20.5053 76.7903L19.8678 76.9013L19.6599 76.3047L19.4382 75.722L18.8145 75.833L18.5928 75.2364L19.2164 75.1254L19.0085 74.5426L19.6322 74.4316L19.854 75.0144L20.0618 75.611L20.2836 76.1937L20.5053 76.7903Z" fill="black"/>
<path fill-rule="evenodd" clip-rule="evenodd" d="M18.5935 75.237L17.9698 75.348L17.748 74.7653L18.3717 74.6543" fill="black"/>
<path fill-rule="evenodd" clip-rule="evenodd" d="M19.2445 77.0123L18.6208 77.1233L17.9833 77.2343L17.7754 76.6377L18.3991 76.5267L18.1773 75.944L18.8148 75.833L19.0227 76.4157L19.2445 77.0123Z" fill="black"/>
<path fill-rule="evenodd" clip-rule="evenodd" d="M19.2722 78.8854L18.6347 78.9964L18.4268 78.4137L18.2051 77.8171L18.8287 77.7061L19.0505 78.3027L19.2722 78.8854Z" fill="black"/>
<path fill-rule="evenodd" clip-rule="evenodd" d="M33.1317 80.2031L32.91 79.6204L32.6882 79.0377L32.4665 78.455L32.2447 77.8722L32.023 77.2895L31.8012 76.7068L31.5795 76.124L30.9558 76.235L30.3322 76.346L29.7085 76.457L29.0849 76.568L28.4612 76.679L27.8375 76.79L27.2139 76.901L27.4356 77.4837L27.6574 78.0665L27.8791 78.6492L28.1009 79.2319L28.3226 79.8147L28.5443 80.3974L28.7661 80.9801L29.3898 80.8691L30.0134 80.7581L30.6371 80.6471L31.2607 80.5361L31.8844 80.4251L32.5081 80.3141L33.1317 80.2031ZM32.2863 79.7314L32.0646 79.1487L31.8428 78.5659L31.6211 77.9832L31.3993 77.4005L31.1776 76.8178L30.5539 76.9287L29.9303 77.0397L29.3066 77.1507L28.6829 77.2617L28.0593 77.3727L28.281 77.9555L28.5028 78.5382L28.7245 79.1209L28.9463 79.7037L29.168 80.2864L29.7917 80.1754L30.4153 80.0644L31.039 79.9534L31.6627 79.8424L32.2863 79.7314Z" fill="black"/>
<path fill-rule="evenodd" clip-rule="evenodd" d="M28.1005 81.0915L27.8787 80.5088L27.657 79.926L27.4353 79.3433L27.2135 78.7606L26.9918 78.1778L26.3681 78.2888L26.1464 77.7061L25.5227 77.8171L25.3009 77.2344L24.6773 77.3454L24.0536 77.4564L24.2754 78.0391L24.899 77.9281L25.1208 78.5108L24.4971 78.6218L24.7189 79.2046L24.0952 79.3156L23.8734 78.7328L23.2498 78.8438L23.4715 79.4266L22.8479 79.5376L23.0696 80.1203L22.446 80.2313L22.6677 80.814L22.044 80.925L21.8223 80.3423L22.446 80.2313L22.2242 79.6486L22.0025 79.0658L21.3788 79.1768L21.1571 78.5941L20.9353 78.0114L20.3116 78.1223L19.688 78.2333L19.9097 78.8161L20.1315 79.3988L19.5078 79.5098L19.7296 80.0925L20.3532 79.9815L20.575 80.5643L21.1986 80.4533L21.4204 81.036L20.7967 81.147L21.0185 81.7297L21.2402 82.3125L21.8639 82.2015L22.4875 82.0905L23.1112 81.9795L23.7349 81.8685L23.5131 81.2858L24.1368 81.1748L24.7604 81.0638L24.9822 81.6465L25.6058 81.5355L25.3841 80.9528L26.0078 80.8418L26.2295 81.4245L26.8532 81.3135L26.6314 80.7308L26.4097 80.148L25.786 80.259L25.1624 80.37L24.9406 79.7873L25.5643 79.6763L26.1879 79.5653L25.9662 78.9826L26.5898 78.8716L26.8116 79.4543L26.1879 79.5653L26.4097 80.148L27.0333 80.037L27.2551 80.6198L27.4768 81.2025L28.1005 81.0915ZM24.5248 80.4672L24.3031 79.8844L23.6794 79.9954L23.9012 80.5781L24.5248 80.4672Z" fill="black"/>
<path fill-rule="evenodd" clip-rule="evenodd" d="M23.6657 78.1091L23.0421 78.2201L22.8203 77.6374L23.444 77.5264" fill="black"/>
<path fill-rule="evenodd" clip-rule="evenodd" d="M22.6267 78.9277L22.003 79.0387L21.7812 78.442L22.4049 78.3311" fill="black"/>
<path fill-rule="evenodd" clip-rule="evenodd" d="M31.4405 79.2466L30.8169 79.3576L30.1793 79.4686L29.5557 79.5796L29.3339 78.983L29.126 78.4003L28.9043 77.8037L29.528 77.6927L30.1655 77.5817L30.7891 77.4707L31.0109 78.0673L31.2188 78.65L31.4405 79.2466Z" fill="black"/>
<path fill-rule="evenodd" clip-rule="evenodd" d="M20.3532 81.8407L19.7296 81.9517L19.5078 81.3551L20.1315 81.2441" fill="black"/>
<path d="M66.4006 97.9865C70.0787 103.86 73.6318 114.514 73.6318 114.514L64.2353 126.732C64.2353 126.732 48.3154 118.448 43.7907 115.761C42.5693 115.04 41.2229 114.5 39.9044 114.403C37.2256 114.209 36.9897 110.261 39.6129 109.762C40.3624 109.623 42.9024 110.094 43.8739 110.427C46.8719 111.438 48.9955 111.161 48.9955 111.161C48.9955 111.161 48.2321 110.302 46.7331 108.169C45.0954 105.841 37.7669 98.4021 35.4351 94.7171C32.4649 90.0208 33.7002 87.1947 35.3241 87.8181C37.3366 88.5939 46.3306 100.882 47.8296 100.411C47.8296 100.411 49.1482 97.9865 50.7027 97.6125C52.2572 97.2385 53.7979 97.5709 53.7979 97.5709C53.7979 97.5709 53.9783 95.3128 55.4079 94.6894C56.8375 94.0522 58.8917 94.7864 58.8917 94.7864C58.8917 94.7864 59.0444 92.6945 60.1686 92.4313C61.2929 92.1681 63.6108 93.5673 66.3867 97.9865H66.4006Z" fill="#FFD3CA"/>
<path d="M26.5761 106.733C25.2318 107.898 53.7401 132.373 53.7401 132.373C53.7401 132.373 75.1248 108.259 81.6386 99.393C88.1524 90.5271 94.68 79.6356 103.176 77.6099C111.671 75.5703 122.329 80.5097 122.329 80.5097L111.768 112.047L92.7675 138.2C92.7675 138.2 72.2282 164.021 62.4713 168.003C52.7145 171.985 43.1378 166.268 38.9801 161.926C34.8223 157.583 16.6807 116.667 16.6807 116.667L26.5761 106.733Z" fill="#FFD3CA"/>
<path d="M140.955 200.997L76.1221 197.39C76.1221 197.39 83.1071 167.088 89.2328 136.772C95.3586 106.442 111.726 77.5967 111.726 77.5967L164 88.2324C164 88.2324 172.831 104.153 165.5 133.941C162.132 147.677 154.191 163.619 146.402 183.085L154.177 201.733L140.955 200.997Z" fill="#FF8685"/>
<path d="M110.355 116.667C110.355 116.667 110.05 117.153 109.399 117.958C108.651 118.873 107.722 120.011 106.627 121.343C104.285 124.201 101.125 128.183 97.6187 132.595C94.1123 137.008 90.8693 140.948 88.4301 143.723C87.2105 145.11 86.2126 146.22 85.4919 146.956C84.7713 147.705 84.3555 148.093 84.3278 148.066C84.3001 148.038 84.6327 147.58 85.2841 146.775C86.0325 145.86 86.961 144.722 88.0559 143.39C90.3981 140.532 93.558 136.55 97.0643 132.138C100.571 127.725 103.8 123.785 106.253 121.01C107.473 119.623 108.47 118.513 109.191 117.777C109.912 117.028 110.328 116.64 110.355 116.667Z" fill="#263238"/>
<path d="M143.464 182.419C143.45 182.516 141.593 182.253 138.613 181.836C135.634 181.42 131.504 180.865 126.944 180.38C122.37 179.894 118.227 179.589 115.219 179.381C112.212 179.172 110.354 179.048 110.354 178.937C110.354 178.881 110.826 178.853 111.671 178.839C112.517 178.826 113.736 178.839 115.247 178.867C118.268 178.95 122.44 179.186 127.013 179.658C131.601 180.144 135.717 180.782 138.696 181.337C140.179 181.614 141.371 181.864 142.203 182.058C143.021 182.253 143.478 182.377 143.464 182.433V182.419Z" fill="#263238"/>
<path d="M131.5 104.732C121.1 101.132 115.833 84.0658 115.5 78.2324L124 80.2324L129 82.7324L163.5 87.7324L170 107.232L165 132.232C163.833 135.066 158.1 139.032 144.5 132.232C127.5 123.732 144.5 109.232 131.5 104.732Z" fill="#EF6C6C"/>
<path d="M111.512 77.7892C111.512 77.7892 102.718 73.5139 97.1825 77.2911C91.6469 81.0684 73.6318 105.821 73.6318 105.821L88.32 143.732L103.05 130.56C103.05 130.56 119.104 97.741 118.621 95.9146C118.138 94.0882 111.498 77.7754 111.498 77.7754L111.512 77.7892Z" fill="#FF8685"/>
<path d="M120.257 46.7324C121.75 58.0378 116.632 78.6388 116.632 78.6388L129.641 80.7324L137.632 77.1733L136.892 50.9196L120.257 46.7324Z" fill="#FFD3CA"/>
<path d="M124.632 32.1078L108.405 25.7324C106.228 40.6873 109.126 49.8945 111.207 54.1773C115.673 63.273 123.897 58.4601 123.897 58.4601L124.618 32.1078H124.632Z" fill="#FFD3CA"/>
<path d="M108.645 28.1476C108.548 31.5723 108.949 35.2188 110.922 38.1305C112.054 36.7856 113.916 36.3696 115.476 36.8827C117.132 37.5066 118.263 39.0595 118.263 40.7233C118.374 42.8031 117.435 48.8345 117.435 49.3475C117.021 54.2281 126.019 62.0203 126.639 67.1227C127.564 74.2911 119.809 80.5304 120.844 87.8097C121.465 92.6902 126.019 96.0179 130.462 98.0006C133.153 99.1376 136.051 100.177 137.596 102.673C139.349 105.474 138.631 109.121 138.838 112.448C139.349 119.519 144.731 125.648 151.258 128.144C157.771 130.639 165.223 130.015 171.75 127.52C173.916 126.688 176.193 125.551 177.545 123.471C179.505 120.351 178.58 116.192 176.621 112.975C174.661 109.758 171.86 107.263 169.901 104.143C166.382 98.6384 165.761 91.4701 168.245 85.4387C170.618 79.6153 175.696 74.7347 176 68.4954C176.304 61.743 171.032 56.2385 165.761 51.968C164.105 50.6231 162.352 49.2643 161 47.3925C158.213 43.2329 160.489 37.8255 160.282 32.737C160.075 27.7455 158.006 22.754 154.694 18.9133C152.941 17.0415 150.871 15.3777 148.691 13.9218C143.723 10.7051 137.831 8.41734 131.828 8.8333C130.904 8.93035 129.965 9.04127 129.041 9.24925C127.702 8.94422 126.253 8.8333 124.694 8.73624C120.664 8.63918 116.621 10.4001 113.723 13.2008C109.79 17.0415 108.548 22.8649 108.659 28.1614L108.645 28.1476Z" fill="#2A2222"/>
</g>
<path d="M1.1723 55.5313L22.2382 107.977C22.6263 108.921 23.5964 109.49 24.6081 109.351L46.3809 106.285C47.7807 106.09 48.6399 104.647 48.1687 103.329L29.3618 51.2025C29.0154 50.2313 28.0452 49.6346 27.0196 49.7456L2.97399 52.4928C1.51878 52.6593 0.617931 54.1716 1.15844 55.5313H1.1723Z" fill="#263238"/>
<path d="M3.58363 55.7815L23.4715 105.314C23.5685 105.564 23.8319 105.716 24.1091 105.688L46.3114 102.553C46.6856 102.497 46.9212 102.109 46.7965 101.762L29.0568 52.5765C28.9598 52.3129 28.6964 52.1464 28.4193 52.188L4.05484 54.9768C3.66679 55.0184 3.41732 55.4347 3.56977 55.7954L3.58363 55.7815Z" fill="white"/>
<path d="M6.13379 86.4301L8.46213 62.2744C8.46213 62.2744 12.0101 62.316 13.0772 67.4219C14.1444 72.5277 14.1721 81.4491 14.1721 81.4491C14.1721 81.4491 20.4642 84.3766 22.3074 99.4444L29 110.232L16.6668 114.554C16.6668 114.554 6.52185 94.9768 6.13379 86.4439V86.4301Z" fill="#FFD3CA"/>
<path d="M35.2332 87.9921L25.5069 89.7019C24.4928 89.8751 23.4902 89.2975 23.133 88.3271C22.672 87.0794 23.4557 85.7162 24.7694 85.4852L34.4842 83.7638C35.4176 83.6021 36.351 84.0758 36.7774 84.9307C37.4113 86.2245 36.6276 87.761 35.2332 88.0036V87.9921Z" fill="black"/>
<path opacity="0.3" d="M35.0981 86.2227C35.3688 86.1686 35.5444 85.9051 35.4903 85.6344C35.4361 85.3636 35.1727 85.188 34.9019 85.2421L35.0981 86.2227ZM25.0981 88.2227L35.0981 86.2227L34.9019 85.2421L24.9019 87.2421L25.0981 88.2227Z" fill="white"/>
<path d="M29.667 63.8145L26.7011 64.3417L16.0573 66.2286L13.1191 66.7559L14.4496 70.3771L18.843 82.2954L35.3908 79.354L29.667 63.8145Z" stroke="#9454E6" stroke-width="0.67" stroke-miterlimit="10"/>
<path fill-rule="evenodd" clip-rule="evenodd" d="M30.0829 69.8213L29.8612 69.2386L29.6394 68.6559L29.4177 68.0731L29.1959 67.4904L28.9742 66.9077L28.7524 66.3249L28.5307 65.7422L27.907 65.8532L27.2834 65.9642L26.6597 66.0752L26.036 66.1862L25.4124 66.2972L24.7887 66.4082L24.165 66.5192L24.3868 67.1019L24.6085 67.6846L24.8303 68.2674L25.052 68.8501L25.2738 69.4328L25.4955 70.0156L25.7173 70.5983L26.3409 70.4873L26.9646 70.3763L27.5883 70.2653L28.2119 70.1543L28.8356 70.0433L29.4592 69.9323L30.0829 69.8213ZM29.2375 69.3496L29.0157 68.7668L28.794 68.1841L28.5723 67.6014L28.3505 67.0187L28.1288 66.4359L27.5051 66.5469L26.8814 66.6579L26.2578 66.7689L25.6341 66.8799L25.0104 66.9909L25.2322 67.5736L25.4539 68.1564L25.6757 68.7391L25.8974 69.3218L26.1192 69.9046L26.7428 69.7936L27.3665 69.6826L27.9902 69.5716L28.6138 69.4606L29.2375 69.3496Z" fill="#9454E5"/>
<path fill-rule="evenodd" clip-rule="evenodd" d="M22.1133 69.9735L21.8915 69.3908L21.6698 68.8081L22.2934 68.6971L22.9171 68.5861L22.6953 68.0034L23.319 67.8924L23.9427 67.7814L23.7209 67.1986L23.0973 67.3096L22.4736 67.4206L22.2518 66.8379L21.6282 66.9489L21.0045 67.0599L20.3809 67.1709L20.6026 67.7536L20.8244 68.3363L21.0461 68.9191L21.2678 69.5018L21.4896 70.0845L22.1133 69.9735ZM22.0855 68.0866L21.8638 67.5039L21.2401 67.6149L21.4619 68.1976L22.0855 68.0866Z" fill="#9454E5"/>
<path fill-rule="evenodd" clip-rule="evenodd" d="M21.2958 71.376L21.074 70.7933L20.8523 70.2105L20.6306 69.6278L20.4088 69.0451L20.1871 68.4623L19.9653 67.8796L19.7436 67.2969L19.1199 67.4079L18.4962 67.5189L17.8726 67.6299L17.2489 67.7409L16.6253 67.8519L16.0016 67.9629L15.3779 68.0739L15.5997 68.6566L15.8214 69.2393L16.0432 69.8221L16.2649 70.4048L16.4867 70.9875L16.7084 71.5702L16.9302 72.153L17.5538 72.042L18.1775 71.931L18.8011 71.82L19.4248 71.709L20.0485 71.598L20.6721 71.487L21.2958 71.376ZM20.4504 70.9043L20.2286 70.3215L20.0069 69.7388L19.7851 69.1561L19.5634 68.5733L19.3417 67.9906L18.718 68.1016L18.0943 68.2126L17.4707 68.3236L16.847 68.4346L16.2233 68.5456L16.4451 69.1283L16.6668 69.7111L16.8886 70.2938L17.1103 70.8765L17.3321 71.4592L17.9557 71.3483L18.5794 71.2373L19.2031 71.1263L19.8267 71.0153L20.4504 70.9043Z" fill="#9454E5"/>
<path fill-rule="evenodd" clip-rule="evenodd" d="M28.3915 68.8638L27.7678 68.9748L27.1442 69.0858L26.5205 69.1968L26.2988 68.6002L26.077 68.0175L25.8691 67.4209L26.4928 67.3099L27.1165 67.1989L27.7401 67.0879L27.9619 67.6845L28.1836 68.2672L28.3915 68.8638Z" fill="#9454E5"/>
<path fill-rule="evenodd" clip-rule="evenodd" d="M19.6046 70.4173L18.9809 70.5283L18.3573 70.6393L17.7197 70.7503L17.5119 70.1676L17.2901 69.5849L17.0684 68.9883L17.7059 68.8773L18.3295 68.7663L18.9532 68.6553L19.175 69.238L19.3967 69.8346L19.6046 70.4173Z" fill="#9454E5"/>
<path fill-rule="evenodd" clip-rule="evenodd" d="M23.9986 69.6409L23.3749 69.7519L23.1532 69.1692L22.9453 68.5726L23.569 68.4616L24.1926 68.3506L24.4144 68.9472L23.7907 69.0582L23.9986 69.6409Z" fill="#9454E5"/>
<path fill-rule="evenodd" clip-rule="evenodd" d="M25.0662 70.7096L24.4425 70.8206L24.2208 70.2379L23.999 69.6413L24.6365 69.5303L24.8444 70.1269L25.0662 70.7096Z" fill="#9454E5"/>
<path fill-rule="evenodd" clip-rule="evenodd" d="M22.9587 70.4589L22.335 70.5699L22.1133 69.9733L22.7508 69.8623" fill="#9454E5"/>
<path fill-rule="evenodd" clip-rule="evenodd" d="M23.8044 70.9304L23.1807 71.0414L22.959 70.4587L23.5965 70.3477" fill="#9454E5"/>
<path fill-rule="evenodd" clip-rule="evenodd" d="M22.5563 71.153L21.9188 71.264L21.7109 70.6813L22.3346 70.5703" fill="#9454E5"/>
<path fill-rule="evenodd" clip-rule="evenodd" d="M24.6501 71.4169L24.0264 71.5279L23.8047 70.9313L24.4422 70.8203" fill="#9454E5"/>
<path fill-rule="evenodd" clip-rule="evenodd" d="M30.7621 73.4706L30.1385 73.5816L29.5148 73.6926L29.2931 73.096L28.6694 73.207L28.8773 73.8036L28.2536 73.9146L28.0319 73.318L27.824 72.7352L28.4477 72.6242L28.2259 72.0276L28.8634 71.9166L28.6417 71.3339L28.018 71.4449L28.2259 72.0276L27.6023 72.1386L27.824 72.7352L27.1865 72.8462L26.5628 72.9572L25.9392 73.0682L25.3016 73.1792L25.0938 72.5965L25.7174 72.4716L26.3411 72.3606L26.9786 72.2496L26.7569 71.6669L27.3805 71.5559L27.1726 70.9593L27.7963 70.8483L28.42 70.7373L29.0436 70.6263L29.6811 70.5153L30.3048 70.4043L30.5265 71.0009L29.889 71.1119L29.2654 71.2229L29.4871 71.8056L30.1108 71.6946L30.7344 71.5836L30.9562 72.1802L31.1779 72.763L30.5404 72.874L30.7621 73.4706Z" fill="#9454E5"/>
<path fill-rule="evenodd" clip-rule="evenodd" d="M26.756 71.6659L26.1323 71.7769L25.4948 71.8879L24.8712 71.9989L24.6494 71.4162L25.2869 71.3052L25.9106 71.1803L26.5343 71.0693L26.756 71.6659Z" fill="#9454E5"/>
<path fill-rule="evenodd" clip-rule="evenodd" d="M26.7984 75.4268L26.5766 74.8441L26.3549 74.2613L26.9785 74.1503L27.6022 74.0393L27.3804 73.4566L26.7568 73.5676L26.1331 73.6786L25.5095 73.7896L25.2877 73.2069L24.664 73.3179L24.4423 72.7351L23.8186 72.8461L24.0404 73.4289L23.4167 73.5399L23.195 72.9571L23.8186 72.8461L23.5969 72.2634L23.3751 71.6807L22.7515 71.7917L22.9732 72.3744L22.3496 72.4854L22.1278 71.9027L21.5042 72.0137L21.7259 72.5964L21.1022 72.7074L20.8805 72.1247L20.2568 72.2356L20.4786 72.8184L20.7003 73.4011L20.9221 73.9838L21.1438 74.5666L21.3656 75.1493L21.5873 75.732L22.211 75.621L21.9892 75.0383L21.7675 74.4556L22.3911 74.3446L23.0148 74.2336L23.2366 74.8163L23.4583 75.3991L24.082 75.2881L23.8602 74.7053L23.6385 74.1226L24.2621 74.0116L24.4839 74.5943L25.1075 74.4833L25.7312 74.3723L25.953 74.9551L26.1747 75.5378L26.7984 75.4268ZM22.7931 73.6231L22.5713 73.0404L21.9477 73.1514L22.1694 73.7341L22.7931 73.6231Z" fill="#9454E5"/>
<path fill-rule="evenodd" clip-rule="evenodd" d="M20.5053 74.6634L19.8678 74.7744L19.6599 74.1778L19.4382 73.595L18.8145 73.706L18.5928 73.1094L19.2164 72.9984L19.0085 72.4157L19.6322 72.3047L19.854 72.8874L20.0618 73.484L20.2836 74.0668L20.5053 74.6634Z" fill="#9454E5"/>
<path fill-rule="evenodd" clip-rule="evenodd" d="M18.5935 73.1101L17.9698 73.2211L17.748 72.6383L18.3717 72.5273" fill="#9454E5"/>
<path fill-rule="evenodd" clip-rule="evenodd" d="M19.2445 74.8854L18.6208 74.9964L17.9833 75.1074L17.7754 74.5108L18.3991 74.3998L18.1773 73.817L18.8148 73.7061L19.0227 74.2888L19.2445 74.8854Z" fill="#9454E5"/>
<path fill-rule="evenodd" clip-rule="evenodd" d="M19.2722 76.7584L18.6347 76.8694L18.4268 76.2867L18.2051 75.6901L18.8287 75.5791L19.0505 76.1757L19.2722 76.7584Z" fill="#9454E5"/>
<path fill-rule="evenodd" clip-rule="evenodd" d="M33.1317 78.0762L32.91 77.4935L32.6882 76.9107L32.4665 76.328L32.2447 75.7453L32.023 75.1625L31.8012 74.5798L31.5795 73.9971L30.9558 74.1081L30.3322 74.2191L29.7085 74.3301L29.0849 74.4411L28.4612 74.5521L27.8375 74.663L27.2139 74.774L27.4356 75.3568L27.6574 75.9395L27.8791 76.5222L28.1009 77.105L28.3226 77.6877L28.5443 78.2704L28.7661 78.8532L29.3898 78.7422L30.0134 78.6312L30.6371 78.5202L31.2607 78.4092L31.8844 78.2982L32.5081 78.1872L33.1317 78.0762ZM32.2863 77.6045L32.0646 77.0217L31.8428 76.439L31.6211 75.8563L31.3993 75.2735L31.1776 74.6908L30.5539 74.8018L29.9303 74.9128L29.3066 75.0238L28.6829 75.1348L28.0593 75.2458L28.281 75.8285L28.5028 76.4112L28.7245 76.994L28.9463 77.5767L29.168 78.1594L29.7917 78.0484L30.4153 77.9375L31.039 77.8265L31.6627 77.7155L32.2863 77.6045Z" fill="#9454E5"/>
<path fill-rule="evenodd" clip-rule="evenodd" d="M28.1005 78.9646L27.8787 78.3818L27.657 77.7991L27.4353 77.2164L27.2135 76.6336L26.9918 76.0509L26.3681 76.1619L26.1464 75.5792L25.5227 75.6902L25.3009 75.1074L24.6773 75.2184L24.0536 75.3294L24.2754 75.9122L24.899 75.8012L25.1208 76.3839L24.4971 76.4949L24.7189 77.0776L24.0952 77.1886L23.8734 76.6059L23.2498 76.7169L23.4715 77.2996L22.8479 77.4106L23.0696 77.9933L22.446 78.1043L22.6677 78.6871L22.044 78.7981L21.8223 78.2153L22.446 78.1043L22.2242 77.5216L22.0025 76.9389L21.3788 77.0499L21.1571 76.4671L20.9353 75.8844L20.3116 75.9954L19.688 76.1064L19.9097 76.6891L20.1315 77.2719L19.5078 77.3829L19.7296 77.9656L20.3532 77.8546L20.575 78.4373L21.1986 78.3263L21.4204 78.9091L20.7967 79.0201L21.0185 79.6028L21.2402 80.1855L21.8639 80.0745L22.4875 79.9635L23.1112 79.8525L23.7349 79.7415L23.5131 79.1588L24.1368 79.0478L24.7604 78.9368L24.9822 79.5195L25.6058 79.4085L25.3841 78.8258L26.0078 78.7148L26.2295 79.2975L26.8532 79.1866L26.6314 78.6038L26.4097 78.0211L25.786 78.1321L25.1624 78.2431L24.9406 77.6603L25.5643 77.5494L26.1879 77.4384L25.9662 76.8556L26.5898 76.7446L26.8116 77.3274L26.1879 77.4384L26.4097 78.0211L27.0333 77.9101L27.2551 78.4928L27.4768 79.0756L28.1005 78.9646ZM24.5248 78.3402L24.3031 77.7575L23.6794 77.8685L23.9012 78.4512L24.5248 78.3402Z" fill="#9454E5"/>
<path fill-rule="evenodd" clip-rule="evenodd" d="M23.6657 75.9821L23.0421 76.0931L22.8203 75.5104L23.444 75.3994" fill="#9454E5"/>
<path fill-rule="evenodd" clip-rule="evenodd" d="M22.6267 76.8007L22.003 76.9117L21.7812 76.3151L22.4049 76.2041" fill="#9454E5"/>
<path fill-rule="evenodd" clip-rule="evenodd" d="M31.4405 77.1197L30.8169 77.2307L30.1793 77.3417L29.5557 77.4527L29.3339 76.8561L29.126 76.2733L28.9043 75.6767L29.528 75.5657L30.1655 75.4547L30.7891 75.3438L31.0109 75.9404L31.2188 76.5231L31.4405 77.1197Z" fill="#9454E5"/>
<path fill-rule="evenodd" clip-rule="evenodd" d="M20.3532 79.7138L19.7296 79.8248L19.5078 79.2282L20.1315 79.1172" fill="#9454E5"/>
<path d="M65.4006 96.8596C69.0787 102.733 72.5 110.034 72.5 110.034L59.1686 125.732C59.1686 125.732 47.3154 117.321 42.7907 114.634C41.5693 113.913 40.2229 113.373 38.9044 113.276C36.2256 113.082 35.9897 109.134 38.6129 108.635C39.3624 108.496 41.9024 108.967 42.8739 109.3C45.8719 110.311 47.9955 110.034 47.9955 110.034C47.9955 110.034 47.2321 109.175 45.7331 107.042C44.0953 104.714 36.7669 97.2752 34.4351 93.5902C31.4649 88.8939 32.7002 86.0678 34.3241 86.6912C36.3366 87.467 45.3306 99.755 46.8296 99.2839C46.8296 99.2839 48.1482 96.8596 49.7027 96.4855C51.2572 96.1115 52.7979 96.444 52.7979 96.444C52.7979 96.444 52.9783 94.1859 54.4079 93.5625C55.8375 92.9252 57.8917 93.6594 57.8917 93.6594C57.8917 93.6594 58.0444 91.5676 59.1686 91.3044C60.2929 91.0411 62.6108 92.4403 65.3867 96.8596H65.4006Z" fill="#F9B2B2"/>
<path d="M109.013 27.1476C108.917 30.5723 109.317 34.2188 111.29 37.1305C112.422 35.7856 114.285 35.3696 115.844 35.8827C117.5 36.5066 118.631 38.0595 118.631 39.7233C118.742 41.8031 117.803 47.8345 117.803 48.3475C117.389 53.2281 126.387 61.0203 127.008 66.1227C127.932 73.2911 120.177 79.5304 121.212 86.8097C121.833 91.6902 126.387 95.0179 130.83 97.0006C133.521 98.1376 136.419 99.1774 137.964 101.673C139.717 104.474 138.999 108.121 139.206 111.448C139.717 118.519 145.099 124.648 151.626 127.144C158.139 129.639 165.591 129.015 172.118 126.52C174.284 125.688 176.561 124.551 177.914 122.471C179.873 119.351 178.949 115.192 176.989 111.975C175.03 108.758 172.228 106.263 170.269 103.143C166.75 97.6384 166.129 90.4701 168.613 84.4387C170.986 78.6153 176.065 73.7347 176.368 67.4954C176.672 60.743 171.4 55.2385 166.129 50.968C164.473 49.6231 162.721 48.2643 161.368 46.3925C158.581 42.2329 160.858 36.8255 160.651 31.737C160.444 26.7455 158.374 21.754 155.062 17.9133C153.309 16.0415 151.239 14.3777 149.059 12.9218C144.091 9.7051 138.199 7.41734 132.196 7.8333C131.272 7.93035 130.333 8.04127 129.409 8.24925C128.07 7.94422 126.621 7.8333 125.062 7.73624C121.033 7.63918 116.989 9.40007 114.091 12.2008C110.159 16.0415 108.917 21.8649 109.027 27.1614L109.013 27.1476Z" fill="#2A2222"/>
<g style="mix-blend-mode:multiply">
<path d="M170 102.732C174 107.066 181.1 118.032 177.5 123.232C173.333 119.232 166 108.732 170 102.732Z" fill="black"/>
</g>
<circle cx="66.0004" cy="31.732" r="25" transform="rotate(15.3694 66.0004 31.732)" fill="white"/>
<path d="M76.0007 28.0248C75.8779 27.5281 75.4988 27.1366 75.0008 26.9997L70.9442 25.8847L74.0552 20.4669C74.2556 20.0911 74.2947 19.6549 74.1282 19.2578C73.9618 18.8606 73.6186 18.5753 73.1964 18.4592L65.7009 16.3989C65.0824 16.2289 64.4253 16.4952 64.1154 17.0326L58.0593 27.4989C57.8438 27.8706 57.8157 28.3258 57.9822 28.723C58.1486 29.1201 58.4918 29.4055 58.914 29.5215L62.4127 30.4832L56.5427 42.6927C56.2507 43.2832 56.426 44.0014 56.9794 44.4087C57.129 44.514 57.287 44.5888 57.4378 44.6303C57.8904 44.7547 58.3889 44.6525 58.7362 44.3325L75.5732 29.343C75.9506 29.0319 76.1085 28.5168 76.0008 28.0243L76.0007 28.0248Z" fill="url(#paint6_linear_1365_11710)"/>
<path d="M88.5 144.232L84 132.732L70 162.732L88.5 144.232Z" fill="#F9B2B2"/>
<circle cx="39.231" cy="155.963" r="21.0175" transform="rotate(-16.8701 39.231 155.963)" fill="white"/>
<path d="M44.6791 148.841C44.3691 148.543 43.9239 148.435 43.5084 148.561L40.1237 149.587L39.9061 144.339C39.8801 143.982 39.7123 143.654 39.4158 143.447C39.1193 143.239 38.7473 143.19 38.395 143.297L32.1411 145.193C31.625 145.35 31.2772 145.834 31.2978 146.355L31.6854 156.514C31.6988 156.874 31.883 157.211 32.1795 157.418C32.476 157.626 32.848 157.675 33.2003 157.568L36.1194 156.683L37.4211 167.998C37.4783 168.549 37.925 168.981 38.5012 169.022C38.6548 169.03 38.8007 169.012 38.9265 168.974C39.3041 168.86 39.6128 168.563 39.7163 168.18L44.9663 149.97C45.0952 149.58 44.9764 149.143 44.679 148.841L44.6791 148.841Z" fill="url(#paint7_linear_1365_11710)"/>
<circle cx="191.79" cy="103.522" r="21.0175" transform="rotate(-19.3298 191.79 103.522)" fill="white"/>
<path d="M196.927 96.1736C196.605 95.8891 196.155 95.8 195.746 95.9437L192.408 97.1144L191.966 91.8808C191.924 91.5252 191.742 91.205 191.437 91.0101C191.132 90.8153 190.758 90.7823 190.411 90.9041L184.244 93.0673C183.735 93.2458 183.409 93.7443 183.452 94.2641L184.275 104.397C184.304 104.757 184.502 105.085 184.807 105.28C185.112 105.474 185.486 105.507 185.834 105.386L188.712 104.376L190.498 115.624C190.579 116.172 191.044 116.585 191.621 116.601C191.775 116.602 191.92 116.578 192.044 116.535C192.416 116.404 192.712 116.095 192.799 115.708L197.263 97.2894C197.375 96.8937 197.237 96.4621 196.927 96.1732L196.927 96.1736Z" fill="url(#paint8_linear_1365_11710)"/>
<defs>
<linearGradient id="paint0_linear_1365_11710" x1="46.4813" y1="-12.2435" x2="177.675" y2="299.261" gradientUnits="userSpaceOnUse">
<stop offset="0.219581" stop-color="#DDF5FB"/>
<stop offset="1" stop-color="#DA0095"/>
</linearGradient>
<linearGradient id="paint1_linear_1365_11710" x1="42.8867" y1="-19.5542" x2="182.28" y2="311.419" gradientUnits="userSpaceOnUse">
<stop offset="0.219581" stop-color="#DDF5FB"/>
<stop offset="1" stop-color="#DA0095"/>
</linearGradient>
<linearGradient id="paint2_linear_1365_11710" x1="49.9588" y1="-5.04993" x2="172.953" y2="286.985" gradientUnits="userSpaceOnUse">
<stop offset="0.219581" stop-color="#DDF5FB"/>
<stop offset="1" stop-color="#DA0095"/>
</linearGradient>
<linearGradient id="paint3_linear_1365_11710" x1="49.9588" y1="-5.04993" x2="172.953" y2="286.985" gradientUnits="userSpaceOnUse">
<stop offset="0.219581" stop-color="#DDF5FB"/>
<stop offset="1" stop-color="#DA0095"/>
</linearGradient>
<linearGradient id="paint4_linear_1365_11710" x1="31.0202" y1="177.87" x2="147.388" y2="64.724" gradientUnits="userSpaceOnUse">
<stop offset="0.01" stop-color="#FF55AA"/>
<stop offset="0.25" stop-color="#B850C9"/>
<stop offset="0.62" stop-color="#6572D6"/>
<stop offset="1" stop-color="#4EAEB8"/>
</linearGradient>
<linearGradient id="paint5_linear_1365_11710" x1="29.0202" y1="177.87" x2="145.388" y2="64.724" gradientUnits="userSpaceOnUse">
<stop offset="0.01" stop-color="#FF55AA"/>
<stop offset="0.25" stop-color="#B850C9"/>
<stop offset="0.62" stop-color="#6572D6"/>
<stop offset="1" stop-color="#4EAEB8"/>
</linearGradient>
<linearGradient id="paint6_linear_1365_11710" x1="55.8763" y1="41.1581" x2="74.2788" y2="36.2652" gradientUnits="userSpaceOnUse">
<stop offset="0.01" stop-color="#FF55AA"/>
<stop offset="0.25" stop-color="#B850C9"/>
<stop offset="0.62" stop-color="#6572D6"/>
<stop offset="1" stop-color="#4EAEB8"/>
</linearGradient>
<linearGradient id="paint7_linear_1365_11710" x1="36.2589" y1="167.205" x2="47.1503" y2="155.473" gradientUnits="userSpaceOnUse">
<stop offset="0.01" stop-color="#FF55AA"/>
<stop offset="0.25" stop-color="#B850C9"/>
<stop offset="0.62" stop-color="#6572D6"/>
<stop offset="1" stop-color="#4EAEB8"/>
</linearGradient>
<linearGradient id="paint8_linear_1365_11710" x1="189.303" y1="114.882" x2="199.681" y2="102.693" gradientUnits="userSpaceOnUse">
<stop offset="0.01" stop-color="#FF55AA"/>
<stop offset="0.25" stop-color="#B850C9"/>
<stop offset="0.62" stop-color="#6572D6"/>
<stop offset="1" stop-color="#4EAEB8"/>
</linearGradient>
</defs>
</svg>
