<svg width="208" height="208" viewBox="0 0 208 208" fill="none" xmlns="http://www.w3.org/2000/svg">
<circle opacity="0.2" cx="104" cy="104" r="97.4412" stroke="url(#paint0_linear_1365_11709)"/>
<circle opacity="0.2" cx="104" cy="104" r="103.5" stroke="url(#paint1_linear_1365_11709)"/>
<circle cx="103.882" cy="103.882" r="91.3824" fill="url(#paint2_linear_1365_11709)" fill-opacity="0.2" stroke="url(#paint3_linear_1365_11709)"/>
<circle opacity="0.1" cx="103.608" cy="104.082" r="90.6078" fill="url(#paint4_linear_1365_11709)"/>
<path d="M149 177.008L163.56 176.275C163.56 176.275 165.925 168.664 162.091 163.569C154.27 153.175 163.914 147.046 167.569 143.875C173.082 139.092 175.319 133.158 168.228 129.739C160.206 125.871 166.517 114.18 176.533 107.74C186.334 101.437 180.792 80.3677 158.328 92.0597C144.912 99.0422 147.796 113.502 147.517 121.151C147.238 128.8 135.951 130 140.293 139.108C144.002 146.887 150.58 152.365 146.057 158.07C141.534 163.775 141.346 169.925 149 177.008Z" fill="url(#paint5_linear_1365_11709)"/>
<g style="mix-blend-mode:soft-light" opacity="0.5">
<path d="M155.369 178.043L155.669 177.972C155.625 177.787 151.312 159.185 152.593 139.454C153.773 121.277 160.081 98.3943 183.43 92.6066L183.356 92.3076C172.962 94.8842 165.023 101.003 159.758 110.495C155.553 118.077 153.039 127.816 152.285 139.44C151.002 159.216 155.325 177.857 155.369 178.043H155.369Z" fill="#BEB8F2"/>
<path d="M157.731 114.556L158.035 114.503C156.26 104.408 159.402 89.7844 159.434 89.6379L159.133 89.5723C159.101 89.7195 155.946 104.403 157.731 114.556Z" fill="#BEB8F2"/>
<path d="M161.412 108.328C171.434 101.356 181.257 103.964 181.355 103.992L181.437 103.695C181.338 103.667 171.382 101.019 161.236 108.075L161.412 108.328Z" fill="#BEB8F2"/>
<path d="M152.458 152.398C155.166 137.725 174.696 133.176 174.889 133.148L174.865 132.841C174.672 132.851 154.887 137.538 152.155 152.342L152.458 152.398V152.398Z" fill="#BEB8F2"/>
<path d="M152.055 146.259L152.353 146.182C149.95 136.969 139.534 131.071 139.429 131.013L139.279 131.282C139.383 131.34 149.685 137.176 152.055 146.26V146.259Z" fill="#BEB8F2"/>
<path d="M155.056 175.031C155.215 169.364 163.043 164.49 163.122 164.441L162.961 164.179C162.632 164.38 154.912 169.189 154.748 175.021L155.056 175.03V175.031Z" fill="#BEB8F2"/>
<path d="M153.974 170.639L154.274 170.572C153.299 166.197 146.386 161.617 144.115 160.113C143.794 159.9 143.517 159.716 143.474 159.674L143.255 159.89C143.315 159.951 143.499 160.073 143.945 160.369C146.191 161.857 153.026 166.385 153.974 170.639Z" fill="#BEB8F2"/>
</g>
<path d="M152.889 183.494C152.054 183.817 150.795 179.284 145.732 175.349C144.467 174.366 137.938 168.524 132.038 171.45C130.893 172.018 129.748 172.586 128.603 173.154C126.271 171.151 124.444 168.832 127.331 166.02C131.814 161.653 127.041 152.808 123.849 150.491C119.898 147.624 110.851 140.761 117.675 133.909C123.356 128.205 128.192 125.592 124.072 117.106C119.952 108.619 121.87 100.897 130.096 97.0865C138.753 93.0771 139.775 78.9126 148.585 78.7024C163.935 78.3364 163.242 102.323 151.648 115.432C140.053 128.541 151.132 128.948 155.286 135.47C155.637 136.098 156.134 137.098 156.495 138.388C158.724 146.338 151.992 151.557 149.841 160.217C146.906 172.028 154.295 182.949 152.889 183.494H152.889Z" fill="url(#paint6_linear_1365_11709)"/>
<g style="mix-blend-mode:soft-light" opacity="0.5">
<path d="M138.535 166.942L138.106 167.077C129.073 137.381 135.296 103.047 154.345 77.4746L154.705 77.714C135.735 103.179 129.539 137.37 138.534 166.942H138.535Z" fill="#FCFDFE"/>
<path d="M135.073 150.292L134.677 150.504C128.765 139.829 114.419 136.73 114.274 136.7L114.386 136.281C114.532 136.312 129.068 139.447 135.073 150.291V150.292Z" fill="#FCFDFE"/>
<path d="M137.03 161.43L136.584 161.441C136.784 148.978 156.989 136.391 157.193 136.265L157.424 136.622C157.222 136.746 137.226 149.205 137.03 161.43Z" fill="#FCFDFE"/>
<path d="M136.325 119.624L135.88 119.671C135.158 109.841 122.967 100.658 122.845 100.567L123.127 100.225C123.252 100.317 135.59 109.612 136.326 119.624H136.325Z" fill="#FCFDFE"/>
<path d="M142.009 100.314L141.626 100.108C147.669 90.2218 162.99 85.674 163.145 85.6289L163.259 86.038C163.106 86.0818 147.958 90.5805 142.009 100.313V100.314Z" fill="#FCFDFE"/>
</g>
<path d="M149.33 189.013L160.119 179.204C160.119 179.204 157.121 171.819 150.928 170.315C138.292 167.246 141.86 156.387 142.675 151.614C143.903 144.417 141.869 138.411 134.221 140.269C125.567 142.373 123.034 129.329 126.691 117.993C130.271 106.899 112.628 94.1306 102.678 117.43C96.7351 131.344 108.132 140.69 112.767 146.78C117.401 152.869 109.437 160.962 118.568 165.246C126.368 168.905 134.926 168.963 135.046 176.244C135.167 183.525 138.921 188.399 149.329 189.014L149.33 189.013Z" fill="url(#paint7_linear_1365_11709)"/>
<g style="mix-blend-mode:soft-light" opacity="0.5">
<path d="M154.91 185.769L155.097 185.525C154.945 185.409 139.817 173.768 128.297 157.704C117.683 142.904 108.051 121.211 122.429 101.915L122.183 101.73C115.782 110.32 113.525 120.091 115.474 130.769C117.031 139.3 121.262 148.424 128.05 157.888C139.597 173.988 154.758 185.653 154.91 185.769V185.769Z" fill="#BEB8F2"/>
<path d="M116.481 135.197L116.682 134.962C108.91 128.286 102.065 114.988 101.997 114.854L101.723 114.994C101.792 115.128 108.663 128.481 116.481 135.196L116.481 135.197Z" fill="#BEB8F2"/>
<path d="M115.378 128.046C118.705 116.295 127.951 112.075 128.044 112.034L127.92 111.752C127.825 111.794 118.45 116.066 115.082 127.962L115.378 128.046Z" fill="#BEB8F2"/>
<path d="M136.4 167.795C129.189 154.735 141.401 138.82 141.533 138.675L141.32 138.453C141.177 138.583 128.856 154.767 136.131 167.944L136.4 167.795V167.795Z" fill="#BEB8F2"/>
<path d="M132.195 163.307L132.375 163.057C124.676 157.462 112.886 159.515 112.768 159.537L112.823 159.84C112.94 159.819 124.603 157.79 132.195 163.307Z" fill="#BEB8F2"/>
<path d="M152.757 183.64C149.288 179.159 152.247 170.422 152.278 170.334L151.987 170.233C151.861 170.598 148.942 179.216 152.514 183.828L152.757 183.64Z" fill="#BEB8F2"/>
<path d="M149.137 180.932L149.327 180.689C145.8 177.927 137.553 178.775 134.843 179.054C134.46 179.093 134.129 179.128 134.069 179.122L134.036 179.428C134.121 179.438 134.341 179.415 134.874 179.361C137.553 179.085 145.707 178.246 149.137 180.932H149.137Z" fill="#BEB8F2"/>
</g>
<path d="M204.964 52.6043C204.957 52.6448 204.95 52.6806 204.941 52.7144C203.841 57.0633 195.128 56.2398 188.998 54.3634C180.542 51.7789 177.821 47.4393 172.27 49.4131C169.708 50.3222 167.761 52.1435 166.519 53.5399C167.082 43.3225 165.93 32.9711 166.462 22.751C166.464 22.6529 166.471 22.5528 166.476 22.4553C173.737 18.8537 180.661 19.825 184.118 21.3547C188.207 23.1661 189.562 24.524 193.18 25.2069C196.395 25.8129 199.732 21.8679 202.239 24.6553C202.409 24.8436 202.616 25.0776 202.85 25.4808C204.646 28.5858 202.523 32.3379 203.11 38.892C203.41 42.243 204.137 43.1739 204.811 49.618C205.035 51.7735 205.021 52.3126 204.966 52.6037L204.964 52.6043Z" fill="#7F2684"/>
<path d="M185.282 28.1133L187.555 32.7214C187.639 32.8918 187.802 33.0105 187.99 33.0376L193.072 33.7763C193.547 33.8452 193.736 34.428 193.393 34.7629L189.715 38.3499C189.579 38.4825 189.517 38.6741 189.549 38.8618L190.417 43.9267C190.498 44.3995 190.002 44.7595 189.578 44.5367L185.033 42.1451C184.864 42.0563 184.663 42.0563 184.495 42.1451L179.949 44.5367C179.525 44.7602 179.029 44.3995 179.11 43.9267L179.978 38.8618C180.011 38.6741 179.948 38.4825 179.812 38.3499L176.134 34.7629C175.791 34.428 175.98 33.8452 176.455 33.7763L181.537 33.0376C181.725 33.0105 181.888 32.8918 181.973 32.7214L184.245 28.1133C184.458 27.6836 185.07 27.6836 185.282 28.1133H185.282Z" fill="white"/>
<path style="mix-blend-mode:multiply" opacity="0.4" d="M204.964 52.6041C204.957 52.6446 204.95 52.6804 204.941 52.7142C203.841 57.063 195.128 56.2395 188.998 54.3631C180.542 51.7786 177.821 47.439 172.27 49.4129C169.708 50.3219 167.761 52.1433 166.519 53.5396C167.082 43.3222 165.93 32.9709 166.462 22.7508C168.06 21.4957 171.585 19.9322 175.96 25.3168C181.973 32.7202 177.777 39.0025 187.159 39.3201C196.271 39.6278 194.584 53.8937 204.965 52.6048L204.964 52.6041Z" fill="url(#paint8_linear_1365_11709)"/>
<path d="M166.568 104.539C166.304 104.539 166.091 104.325 166.091 104.061V19.4774C166.091 19.2135 166.304 19 166.568 19C166.832 19 167.045 19.2135 167.045 19.4774V104.062C167.045 104.326 166.832 104.539 166.568 104.539V104.539Z" fill="#26264F"/>
<path d="M175.96 189.674L138.617 187.993V97.72L175.96 96.6631V189.674Z" fill="url(#paint9_linear_1365_11709)"/>
<path d="M203.057 187.661L175.959 189.674V96.6631L203.057 98.212V187.661Z" fill="#8385FD"/>
<path d="M118.55 194.226L82.4971 191.923V137.017L118.55 138.054V194.226Z" fill="url(#paint10_linear_1365_11709)"/>
<path d="M150.086 191.54L118.55 194.226V138.055L150.086 137.396V191.54Z" fill="#8385FD"/>
<path d="M82.4971 137.017L116.787 135.53L150.086 137.396L118.174 138.578L82.4971 137.017Z" fill="url(#paint11_linear_1365_11709)"/>
<path d="M67.5349 199.475L33 197.468V160.975L67.5349 162.975V199.475Z" fill="url(#paint12_linear_1365_11709)"/>
<path d="M104.415 196.398L67.2539 199.516V163.157L104.415 161.117V196.398Z" fill="#8385FD"/>
<path d="M33 161.091L67.6403 159.514L104.696 161.346L67.5349 163.386L33 161.091Z" fill="url(#paint13_linear_1365_11709)"/>
<path d="M55.3728 190.812C55.3728 190.812 55.3728 194.61 55.3728 194.457C55.3728 194.304 52.25 194.457 52.25 194.457V190.812H55.3728Z" fill="#FFD3CA"/>
<path d="M62.8473 197.567C62.8473 197.567 63.0264 196.878 61.1067 196.19C59.1869 195.502 55.373 194.457 55.373 194.457H52.2502C52.2502 194.457 51.2008 196.369 51.38 197.567H62.8473Z" fill="#7F2684"/>
<path d="M40.0923 190.812L39.9131 194.101H37.123V190.812H40.0923Z" fill="#FFD3CA"/>
<path d="M34 197.567C34 197.567 35.5614 194.789 37.1228 194.101H40.0664C40.0664 194.101 39.5545 195.324 40.0664 195.834C40.5783 196.344 40.7575 197.567 40.7575 197.567H34Z" fill="#7F2684"/>
<path d="M46.6952 137.874C46.6952 137.874 39.7329 143.941 41.4735 154.493C41.4735 154.493 40.424 162.445 39.4001 170.245L36.2773 191.528H40.9615L50.1763 154.493L50.3555 137.543L46.6952 137.874Z" fill="#281616"/>
<path d="M73.9816 121.256C73.4697 122.632 70.3213 125.41 70.3213 125.41C70.1933 125.512 70.0653 125.614 69.9373 125.716L69.9629 125.767L62.6935 136.931C62.028 137.95 60.5178 137.976 59.8522 136.956L56.0127 131.298L55.8848 131.12L60.057 127.832L61.644 131.298L61.9512 131.986L68.4527 123.448C68.12 121.74 68.7087 119.522 68.7087 119.522L69.3998 118.146C69.7581 118.324 69.7581 118.656 69.7581 118.656L69.3998 119.879L69.579 121.256L73.2393 117.101C73.7512 116.744 73.7512 117.458 73.7512 117.458L72.5226 119.522C73.0345 119.344 73.0345 120.21 73.0345 120.21C73.5464 120.21 73.5464 120.72 73.5464 120.72C74.1352 120.746 73.9816 121.256 73.9816 121.256Z" fill="#FFD3CA"/>
<path d="M61.6696 131.297H56.0127L55.8848 131.119L60.057 127.831L61.6696 131.297Z" fill="#F9B2B2"/>
<path d="M57.8049 137.874C61.9771 147.738 57.6257 169.709 57.6257 169.709L55.706 192.547H51.3545L50.6634 172.462C50.1515 163.464 48.9229 154.11 48.9229 154.11C43.8035 146.413 46.056 137.925 46.056 137.925L57.8049 137.874Z" fill="#7F2684"/>
<path d="M47.2085 111.926L47.0293 118.323L48.949 119.19L52.0718 118.68C52.0718 118.68 50.8432 113.659 51.2015 110.906L47.2085 111.926Z" fill="#FFD3CA"/>
<path d="M50.3305 113.633C50.3305 113.633 52.3527 114.806 53.4533 112.588C53.9653 111.543 54.682 109.3 54.1444 105.655L50.1514 107.21L50.3305 113.633Z" fill="#FFD3CA"/>
<path d="M57.9846 138.307V138.383L57.2167 138.434L45.647 139.071L43.2153 130.94C43.2153 130.94 42.601 130.94 41.8587 130.813C41.0652 130.66 40.0925 130.354 39.555 129.742C38.5055 128.519 41.2956 122.121 42.1658 120.388C43.0361 118.655 46.5941 117.712 46.5941 117.712C46.5941 117.712 48.693 119.267 52.1485 118.043C52.1485 118.043 56.9351 118.986 58.1381 122.121L60.9282 128.519L57.2679 131.119L57.9334 138.154L57.9846 138.307Z" fill="#FF8685"/>
<path d="M57.9833 138.383L57.2154 138.434L45.6457 139.071L43.214 130.94C43.214 130.94 42.5997 130.94 41.8574 130.813C41.9854 128.264 42.3438 124.441 43.47 130.15C44.801 136.93 55.0909 138 57.9577 138.153L57.9833 138.306V138.383Z" fill="#EF6C6C"/>
<path d="M52.8896 102.572C52.1729 101.883 51.1746 101.45 50.1763 101.476C49.7924 101.501 49.434 101.527 49.1013 101.603C48.8709 101.552 48.6406 101.527 48.4102 101.501C46.9256 101.399 45.4666 101.96 44.2379 102.75C43.7004 103.107 43.1885 103.515 42.7533 103.974C41.9342 104.917 41.4223 106.14 41.3711 107.364C41.3199 108.612 41.883 109.938 41.1919 110.957C40.8592 111.416 40.424 111.748 40.0145 112.079C38.7091 113.124 37.4036 114.475 37.4804 116.132C37.5572 117.661 38.8114 118.859 39.4002 120.286C40.0145 121.764 39.8609 123.523 38.9906 124.874C38.5043 125.639 37.8132 126.25 37.3268 127.041C36.8405 127.831 36.6101 128.85 37.0965 129.615C37.4292 130.125 37.9924 130.405 38.5299 130.609C40.1425 131.221 41.9854 131.374 43.598 130.762C45.2106 130.15 46.5416 128.646 46.6696 126.913C46.7208 126.098 46.5416 125.205 46.9768 124.517C47.3607 123.906 48.0774 123.651 48.7429 123.37C49.8436 122.886 50.9698 122.07 51.1234 120.872C51.3794 119.088 49.4596 117.559 49.69 115.8C49.8436 114.551 52.0705 112.64 51.9681 111.442C51.9681 111.314 51.7377 109.836 51.7633 109.326C51.7633 108.918 52.0449 108.536 52.4544 108.383C52.8384 108.256 53.2991 108.358 53.5807 108.689C54.067 107.975 54.1694 107.083 54.1438 106.242C54.1694 104.942 53.8623 103.515 52.8896 102.572Z" fill="#281616"/>
<path d="M54.425 192.649L54.041 192.623C54.0666 192.215 57.3174 152.071 55.1673 138.46L55.5512 138.409C57.7013 152.046 54.4762 192.241 54.425 192.649Z" fill="white"/>
<defs>
<linearGradient id="paint0_linear_1365_11709" x1="46.4813" y1="-12.9759" x2="177.675" y2="298.528" gradientUnits="userSpaceOnUse">
<stop offset="0.219581" stop-color="#DDF5FB"/>
<stop offset="1" stop-color="#DA0095"/>
</linearGradient>
<linearGradient id="paint1_linear_1365_11709" x1="42.8867" y1="-20.2867" x2="182.28" y2="310.687" gradientUnits="userSpaceOnUse">
<stop offset="0.219581" stop-color="#DDF5FB"/>
<stop offset="1" stop-color="#DA0095"/>
</linearGradient>
<linearGradient id="paint2_linear_1365_11709" x1="49.9588" y1="-5.78235" x2="172.953" y2="286.253" gradientUnits="userSpaceOnUse">
<stop offset="0.219581" stop-color="#DDF5FB"/>
<stop offset="1" stop-color="#DA0095"/>
</linearGradient>
<linearGradient id="paint3_linear_1365_11709" x1="49.9588" y1="-5.78235" x2="172.953" y2="286.253" gradientUnits="userSpaceOnUse">
<stop offset="0.219581" stop-color="#DDF5FB"/>
<stop offset="1" stop-color="#DA0095"/>
</linearGradient>
<linearGradient id="paint4_linear_1365_11709" x1="29.0202" y1="176.612" x2="145.388" y2="63.4662" gradientUnits="userSpaceOnUse">
<stop offset="0.01" stop-color="#FF55AA"/>
<stop offset="0.25" stop-color="#B850C9"/>
<stop offset="0.62" stop-color="#6572D6"/>
<stop offset="1" stop-color="#4EAEB8"/>
</linearGradient>
<linearGradient id="paint5_linear_1365_11709" x1="170.5" y1="90.9395" x2="145.631" y2="174.822" gradientUnits="userSpaceOnUse">
<stop stop-color="#FF8685"/>
<stop offset="1" stop-color="#FB6FBB"/>
</linearGradient>
<linearGradient id="paint6_linear_1365_11709" x1="129.094" y1="121.036" x2="261.522" y2="180.043" gradientUnits="userSpaceOnUse">
<stop stop-color="#E38DDD"/>
<stop offset="1" stop-color="#9571F6"/>
</linearGradient>
<linearGradient id="paint7_linear_1365_11709" x1="111.364" y1="108.82" x2="145.39" y2="189.416" gradientUnits="userSpaceOnUse">
<stop stop-color="#FF9600"/>
<stop offset="1" stop-color="#F36F56"/>
</linearGradient>
<linearGradient id="paint8_linear_1365_11709" x1="166.317" y1="38.7062" x2="204.964" y2="38.7062" gradientUnits="userSpaceOnUse">
<stop stop-color="#FFC444"/>
<stop offset="1" stop-color="#F36F56"/>
</linearGradient>
<linearGradient id="paint9_linear_1365_11709" x1="142.788" y1="114.103" x2="204.4" y2="149.521" gradientUnits="userSpaceOnUse">
<stop stop-color="#CE57D3"/>
<stop offset="0.349738" stop-color="#9454E6"/>
<stop offset="0.635417" stop-color="#6A6CE9"/>
<stop offset="1" stop-color="#47BAD8"/>
</linearGradient>
<linearGradient id="paint10_linear_1365_11709" x1="86.5243" y1="147.743" x2="130.147" y2="187.106" gradientUnits="userSpaceOnUse">
<stop stop-color="#CE57D3"/>
<stop offset="0.349738" stop-color="#9454E6"/>
<stop offset="0.635417" stop-color="#6A6CE9"/>
<stop offset="1" stop-color="#47BAD8"/>
</linearGradient>
<linearGradient id="paint11_linear_1365_11709" x1="90.0469" y1="136.102" x2="90.1938" y2="140.769" gradientUnits="userSpaceOnUse">
<stop stop-color="#CE57D3"/>
<stop offset="0.349738" stop-color="#9454E6"/>
<stop offset="0.635417" stop-color="#6A6CE9"/>
<stop offset="1" stop-color="#47BAD8"/>
</linearGradient>
<linearGradient id="paint12_linear_1365_11709" x1="36.8576" y1="168.193" x2="65.469" y2="204.941" gradientUnits="userSpaceOnUse">
<stop stop-color="#CE57D3"/>
<stop offset="0.349738" stop-color="#9454E6"/>
<stop offset="0.635417" stop-color="#6A6CE9"/>
<stop offset="1" stop-color="#47BAD8"/>
</linearGradient>
<linearGradient id="paint13_linear_1365_11709" x1="41.0086" y1="160.24" x2="41.2322" y2="166.168" gradientUnits="userSpaceOnUse">
<stop stop-color="#CE57D3"/>
<stop offset="0.349738" stop-color="#9454E6"/>
<stop offset="0.635417" stop-color="#6A6CE9"/>
<stop offset="1" stop-color="#47BAD8"/>
</linearGradient>
</defs>
</svg>
