<svg width="20" height="20" viewBox="0 0 20 20" fill="none" xmlns="http://www.w3.org/2000/svg">
<path d="M10 0C4.47721 0 0 4.47721 0 10C0 15.5228 4.47721 20 10 20C15.5228 20 20 15.5228 20 10C20 4.47721 15.5228 0 10 0ZM10 18.1395C5.51186 18.1395 1.86047 14.4881 1.86047 10C1.86047 5.51186 5.51186 1.86047 10 1.86047C14.4881 1.86047 18.1395 5.51186 18.1395 10C18.1395 14.4881 14.4881 18.1395 10 18.1395Z" fill="white"/>
<path d="M10.0003 2.78979C6.02497 2.78979 2.79102 6.02398 2.79102 9.9991C2.79102 13.9742 6.02497 17.2084 10.0003 17.2084C13.9757 17.2084 17.2096 13.9742 17.2096 9.9991C17.2096 6.02398 13.9757 2.78979 10.0003 2.78979ZM10.698 10.5805C10.698 10.6447 10.6459 10.6968 10.5817 10.6968H6.27939C5.36404 10.6968 5.3352 9.30142 6.31892 9.30142H9.18637C9.25055 9.30142 9.30264 9.24933 9.30264 9.18514V4.45724C9.30264 3.47328 10.698 3.50259 10.698 4.4177V10.5805Z" fill="white"/>
</svg>
