<svg width="112" height="112" viewBox="0 0 112 112" fill="none" xmlns="http://www.w3.org/2000/svg">
<path d="M60.823 103.476C71.8315 102.543 82.4858 97.6475 90.1393 90.0676C97.9124 82.4062 102.684 72.0603 103.506 61.4284C103.615 60.2159 102.667 59.0224 101.424 58.9059C100.079 58.7714 98.9674 59.7043 98.8589 60.9168C97.8041 70.4813 93.3623 79.5512 86.3103 86.1081C79.2584 92.665 69.9203 96.6635 60.3445 97.233C50.7512 97.9021 40.9378 95.0427 33.1825 89.4671C29.3472 86.7381 25.9586 83.2668 23.2528 79.5054C20.5646 75.6443 18.5943 71.2941 17.476 66.8888C15.1549 57.9607 16.023 48.2607 20.2048 40.0687C24.2845 31.8587 31.2694 25.0847 39.7875 21.5574C48.221 17.9127 57.9164 17.2616 66.846 19.7599C74.8741 21.9965 82.1045 26.9663 87.181 33.4038L79.3187 32.0175C76.4597 31.5134 73.8273 33.3072 73.3358 36.0944C72.8443 38.8816 74.7046 41.4676 77.5636 41.9717L98.4955 45.6625C101.354 46.1667 103.987 44.3728 104.478 41.5857L108.077 21.1796C108.568 18.3925 106.708 15.8065 103.849 15.3024C100.99 14.7982 98.3573 16.5921 97.8659 19.3792L96.4617 27.3426C89.6239 18.9523 79.9988 12.6365 69.4004 10.0493C58.1224 7.13693 46.0227 8.28778 35.6922 13.1376C25.2771 17.8699 16.9377 26.3551 12.2006 36.502C7.46356 46.6488 6.67039 58.3121 9.74933 68.9134C11.3399 74.2231 13.7153 79.2605 17.013 83.8448C20.3282 88.3296 24.3789 92.2256 28.9784 95.3972C38.3147 101.559 49.6949 104.49 60.823 103.476Z" fill="black"/>
<path d="M53.8132 34.9229C51.7143 34.9229 49.9805 36.7014 49.9805 38.8543V61.7879C49.9805 63.9409 51.7143 65.7194 53.8132 65.7194H70.1478C72.2466 65.7194 73.9805 63.9409 73.9805 61.7879C73.9805 59.635 72.2466 57.8565 70.1478 57.8565H57.5546V38.8543C57.5546 36.7014 55.912 34.9229 53.8132 34.9229Z" fill="black"/>
</svg>
