<svg width="17" height="20" viewBox="0 0 17 20" fill="none" xmlns="http://www.w3.org/2000/svg">
<path d="M15.8846 2.51161H14.0385V0.63962C14.0385 0.295175 13.7628 0.015625 13.4231 0.015625H2.34615C1.32831 0.015625 0.5 0.855523 0.5 1.88761V17.4875C0.5 18.864 1.604 19.9835 2.96154 19.9835H15.8846C16.2243 19.9835 16.5 19.7039 16.5 19.3595V3.1356C16.5 2.79116 16.2243 2.51161 15.8846 2.51161ZM12.1923 16.2395H4.80769C4.468 16.2395 4.19231 15.96 4.19231 15.6155C4.19231 15.2711 4.468 14.9915 4.80769 14.9915H12.1923C12.532 14.9915 12.8077 15.2711 12.8077 15.6155C12.8077 15.96 12.532 16.2395 12.1923 16.2395ZM4.19231 7.50357C4.19231 6.10332 5.00338 5.00759 6.03846 5.00759C7.07354 5.00759 7.88462 6.10332 7.88462 7.50357C7.88462 8.60804 7.37631 9.51533 6.65385 9.85104V13.1195C6.65385 13.464 6.37815 13.7435 6.03846 13.7435C5.69877 13.7435 5.42308 13.464 5.42308 13.1195V9.85104C4.70062 9.51533 4.19231 8.60804 4.19231 7.50357ZM12.8077 10.6235C12.8077 10.968 12.532 11.2475 12.1923 11.2475H10.3462V13.1195C10.3462 13.464 10.0705 13.7435 9.73077 13.7435C9.39108 13.7435 9.11539 13.464 9.11539 13.1195V5.63158C9.11539 5.28714 9.39108 5.00759 9.73077 5.00759C11.428 5.00759 12.8077 6.40783 12.8077 8.12757V10.6235ZM12.8077 2.51161H2.34615C2.00646 2.51161 1.73077 2.23206 1.73077 1.88761C1.73077 1.54317 2.00646 1.26362 2.34615 1.26362H12.8077V2.51161Z" fill="black"/>
</svg>
