<svg width="54" height="18" viewBox="0 0 54 18" fill="none" xmlns="http://www.w3.org/2000/svg">
<path fill-rule="evenodd" clip-rule="evenodd" d="M13.5006 17.3476H8.82724L5.32277 3.78414C5.15644 3.16022 4.80326 2.60864 4.28374 2.34867C2.98722 1.69536 1.55855 1.17543 0 0.9132V0.391005H7.52844C8.56748 0.391005 9.34675 1.17543 9.47663 2.08644L11.2949 11.8702L15.966 0.391005H20.5095L13.5006 17.3476ZM23.1074 17.3476H18.6937L22.3281 0.391005H26.7417L23.1074 17.3476ZM32.4513 5.08857C32.5812 4.17529 33.3605 3.6531 34.2697 3.6531C35.6983 3.52199 37.2546 3.78421 38.5534 4.43526L39.3327 0.784422C38.0339 0.262227 36.6052 0 35.3087 0C31.025 0 27.9079 2.34874 27.9079 5.6085C27.9079 8.08836 30.1158 9.39046 31.6744 10.1749C33.3605 10.957 34.0099 11.4792 33.88 12.2614C33.88 13.4346 32.5812 13.9568 31.2847 13.9568C29.7262 13.9568 28.1676 13.5658 26.7412 12.9124L25.9619 16.5655C27.5205 17.2166 29.2066 17.4788 30.7652 17.4788C35.5685 17.6077 38.5534 15.2612 38.5534 11.7392C38.5534 7.30394 32.4513 7.04397 32.4513 5.08857ZM53.9997 17.3476L50.4953 0.391005H46.7311C45.9518 0.391005 45.1725 0.9132 44.9128 1.69536L38.4233 17.3476H42.9668L43.8737 14.87H49.4562L49.9758 17.3476H53.9997ZM47.3808 4.95738L48.6773 11.348H45.043L47.3808 4.95738Z" fill="white"/>
</svg>
