<svg width="21" height="20" viewBox="0 0 21 20" xmlns="http://www.w3.org/2000/svg">
<path d="M18.448 15.1844C18.2732 14.6609 17.7127 14.3769 17.1833 14.5525L16.5776 14.7537L15.2744 11.6296C15.1228 11.2219 14.7571 11 14.3477 11H11.2919L10.9669 9.5H13.0017C13.5546 9.5 14.0018 9.05281 14.0018 8.5C14.0018 7.94719 13.5546 7.5 13.0017 7.5H10.5334L10.4881 7.2875C10.3693 6.44062 9.60052 5.9 8.78796 6.01563C7.94102 6.13125 7.39723 6.89062 7.51599 7.7125L8.25605 12.1C8.30667 12.6125 8.73796 13 9.25049 13H13.6696L15.0715 16.3719C15.2291 16.7594 15.6041 17 16.001 17C16.1055 17 16.2129 16.9834 16.3173 16.9482L17.8174 16.4482C18.3418 16.275 18.6231 15.7094 18.448 15.1844ZM7.50037 16.5C5.57022 16.5 4.00011 14.93 4.00011 13C4.00011 11.3047 5.21207 9.88906 6.81469 9.56875L6.56592 8.09375C4.252 8.53125 2.5 10.5594 2.5 13C2.5 15.7616 4.7386 18 7.50037 18C9.91929 18 11.9351 16.2822 12.4007 14H10.8662C10.4037 15.4406 9.08173 16.5 7.50037 16.5ZM8.50044 5C9.32894 5 10.0005 4.32844 10.0005 3.5C10.0005 2.67156 9.32862 2 8.50044 2C7.67225 2 7.00033 2.67156 7.00033 3.5C7.00033 4.32844 7.67225 5 8.50044 5Z" fill="inherit"/>
</svg>
