<svg width="24" height="24" viewBox="0 0 24 24" fill="none" xmlns="http://www.w3.org/2000/svg">
<mask id="mask0_607_11994" style="mask-type:luminance" maskUnits="userSpaceOnUse" x="4" y="14" width="16" height="8">
<path fill-rule="evenodd" clip-rule="evenodd" d="M4 14.5778H20V22H4V14.5778Z" fill="white"/>
</mask>
<g mask="url(#mask0_607_11994)">
<path fill-rule="evenodd" clip-rule="evenodd" d="M12.0009 16.0875C7.69685 16.0875 5.51501 16.8243 5.51501 18.2788C5.51501 19.7463 7.69685 20.4902 12.0009 20.4902C16.304 20.4902 18.4848 19.7534 18.4848 18.2989C18.4848 16.8314 16.304 16.0875 12.0009 16.0875M12.0009 22C10.0221 22 3.99988 22 3.99988 18.2788C3.99988 14.9613 8.56657 14.5778 12.0009 14.5778C13.9797 14.5778 20 14.5778 20 18.2989C20 21.6165 15.4343 22 12.0009 22" fill="url(#paint0_linear_607_11994)"/>
</g>
<mask id="mask1_607_11994" style="mask-type:luminance" maskUnits="userSpaceOnUse" x="6" y="2" width="12" height="11">
<path fill-rule="evenodd" clip-rule="evenodd" d="M6.63623 2H17.3636V12.6881H6.63623V2Z" fill="white"/>
</mask>
<g mask="url(#mask1_607_11994)">
<path fill-rule="evenodd" clip-rule="evenodd" d="M12.0014 3.43683C9.83873 3.43683 8.07912 5.18922 8.07912 7.34423C8.07205 9.49219 9.81853 11.2436 11.9721 11.2516L12.0014 11.9703V11.2516C14.163 11.2516 15.9216 9.49823 15.9216 7.34423C15.9216 5.18922 14.163 3.43683 12.0014 3.43683M12.0009 12.688H11.9686C9.01709 12.6789 6.62616 10.2803 6.63626 7.34123C6.63626 4.3971 9.04234 1.99951 12.0009 1.99951C14.9585 1.99951 17.3636 4.3971 17.3636 7.34425C17.3636 10.2914 14.9585 12.688 12.0009 12.688" fill="url(#paint1_linear_607_11994)"/>
</g>
<defs>
<linearGradient id="paint0_linear_607_11994" x1="5.29181" y1="18.2889" x2="11.796" y2="25.254" gradientUnits="userSpaceOnUse">
<stop stop-color="#CE57D3"/>
<stop offset="0.46875" stop-color="#9454E6"/>
<stop offset="1" stop-color="#47BAD8"/>
</linearGradient>
<linearGradient id="paint1_linear_607_11994" x1="7.50242" y1="7.34375" x2="15.0002" y2="11.0819" gradientUnits="userSpaceOnUse">
<stop stop-color="#CE57D3"/>
<stop offset="0.46875" stop-color="#9454E6"/>
<stop offset="1" stop-color="#47BAD8"/>
</linearGradient>
</defs>
</svg>
