<svg width="101" height="22" viewBox="0 0 101 22" fill="none" xmlns="http://www.w3.org/2000/svg">
<path d="M82.894 11.2096C83.4444 10.8306 84.0566 10.6931 84.7216 10.771C85.182 10.8247 85.6156 10.9811 85.9485 11.282C86.6019 11.872 87.2122 12.5095 87.8362 13.1316C88.4098 13.7034 88.974 14.2847 89.5514 14.8526C89.8055 15.1019 90.0137 15.3826 90.165 15.6996C90.8595 17.1534 90.3272 18.9133 88.8443 19.7064C87.6875 20.3249 86.184 20.0894 85.263 19.1501C84.8527 18.7319 84.4334 18.3221 84.0188 17.9083L83.7733 17.6635L83.4784 17.3683C83.2222 17.1121 82.9183 16.808 82.5666 16.4556L81.9877 15.862L83.0534 14.7864C83.2689 14.9986 83.4837 15.2115 83.6978 15.4251C84.5842 16.3131 85.4722 17.1997 86.3597 18.0863C86.6482 18.3748 86.9973 18.5178 87.4054 18.5285C88.0252 18.5441 88.5547 18.2203 88.8075 17.6504C89.0842 17.0264 88.9519 16.4247 88.5392 15.9833C88.032 15.4401 87.4878 14.93 86.9664 14.3991C86.3647 13.7865 85.7464 13.1898 85.1376 12.5843C84.7188 12.1681 84.0706 12.1555 83.6446 12.5658C83.3217 12.8771 83.0049 13.1962 82.6863 13.512C82.0374 14.1555 81.3875 14.7973 80.7412 15.4434C80.1571 16.0275 79.5746 16.614 78.996 17.2033C78.4095 17.8005 77.7874 18.3622 77.232 18.9903C77.1131 19.1247 76.9898 19.2621 76.8457 19.3671C76.2661 19.7886 75.6288 20.0576 74.8141 20.0493C74.5185 20.0578 74.1581 19.9852 73.8036 19.8529C72.4414 19.3448 71.6265 17.8902 71.9005 16.462C72.0399 15.7369 72.4198 15.1637 72.9462 14.6639C73.4301 14.2042 73.8995 13.7288 74.3713 13.2565C74.94 12.6879 75.5018 12.1125 76.0714 11.5446L76.0951 11.5208L76.1498 11.4662L76.4907 11.1234L77.5616 12.1918L77.1461 12.6126C76.7182 13.0438 76.2868 13.4721 75.8582 13.9026C75.2011 14.5619 74.5449 15.2219 73.8893 15.8826C73.7777 15.995 73.6654 16.1058 73.5821 16.2445C73.2164 16.8531 73.3432 17.6316 73.8437 18.1117C74.4554 18.6987 75.3759 18.6384 75.9137 18.1315C76.3309 17.738 76.7277 17.3227 77.1332 16.9176C77.9427 16.1092 78.7535 15.3023 79.5613 14.4922C80.5123 13.5384 81.459 12.5808 82.4111 11.6286C82.5614 11.4779 82.7195 11.3299 82.894 11.2096ZM87.5351 1.05537C87.8307 1.04682 88.1911 1.11947 88.5456 1.25173C89.9078 1.75985 90.7227 3.21442 90.4487 4.64263C90.3093 5.36778 89.9294 5.94096 89.403 6.44078C88.9191 6.90046 88.4497 7.37582 87.9779 7.84809C87.4092 8.41677 86.8474 8.99209 86.2778 9.56005L86.2541 9.58379L85.8585 9.98127L84.7876 8.91278L85.2034 8.49204C85.631 8.06084 86.0625 7.6325 86.491 7.20202C87.148 6.5424 87.8046 5.88279 88.4599 5.22199C88.5715 5.10968 88.6838 4.9988 88.7672 4.86013C89.1328 4.25157 89.006 3.473 88.5055 2.99289C87.8939 2.40593 86.9735 2.46624 86.4355 2.97318C86.0183 3.36662 85.6215 3.78191 85.216 4.18698C84.4066 4.99547 83.5957 5.8023 82.7879 6.61245C81.8372 7.56625 80.8903 8.52385 79.9381 9.47599C79.7878 9.62677 79.6299 9.77469 79.4552 9.89508C78.9048 10.274 78.2927 10.4115 77.6276 10.3336C77.1672 10.28 76.7336 10.1235 76.4007 9.82266C75.7473 9.23262 75.1371 8.59508 74.5131 7.97299C73.9394 7.40123 73.3753 6.81997 72.7978 6.25201C72.5437 6.0027 72.3355 5.72204 72.1842 5.40506C71.4897 3.9512 72.0221 2.19129 73.5049 1.39823C74.6617 0.779696 76.1652 1.01524 77.0862 1.95456C77.4965 2.37269 77.9158 2.78252 78.3304 3.19638L78.4717 3.33742L78.6878 3.55349L79.1429 4.00843L79.2909 4.15659L79.368 4.23352L79.5278 4.39379L79.6109 4.4769L79.7829 4.64904L80.3615 5.24265L79.2959 6.31826C79.075 6.10052 78.9046 5.93194 78.7844 5.81251L78.7236 5.75196L78.697 5.72537L78.6514 5.67978C77.7651 4.79127 76.877 3.9049 75.9895 3.01806C75.701 2.7298 75.352 2.58686 74.9438 2.57642C74.3241 2.56051 73.7946 2.88438 73.5417 3.45424C73.2651 4.07823 73.3973 4.67991 73.81 5.12132C74.3172 5.66458 74.8614 6.17461 75.3828 6.70552C75.9845 7.31812 76.6028 7.91481 77.2116 8.52029C77.6304 8.93653 78.2787 8.94911 78.7046 8.53881C79.0275 8.22753 79.3443 7.9084 79.6629 7.59261C80.3119 6.94914 80.9617 6.30734 81.6081 5.66126C82.1924 5.07715 82.7746 4.49067 83.3533 3.90134C83.9397 3.30417 84.5618 2.74239 85.1172 2.11435C85.2364 1.97996 85.3594 1.84248 85.5035 1.73754C86.0831 1.31608 86.7204 1.04706 87.5351 1.05537Z" fill="black" fill-opacity="0.6"/>
<path fill-rule="evenodd" clip-rule="evenodd" d="M3.04514 10.605L3.04609 10.6038L3.04847 10.6017C3.25541 10.3915 3.50337 10.2262 3.77694 10.1159C4.307 9.90008 4.90042 9.90008 5.43048 10.1159C5.70442 10.226 5.95273 10.3914 6.1599 10.6017L6.16061 10.6029L6.85015 11.2706L8.18552 9.91288L7.51617 9.24496C7.11489 8.84202 6.65426 8.54094 6.13901 8.34529V8.34553C5.6529 8.14159 5.1311 8.03634 4.60395 8.0359C4.0792 8.0359 3.55897 8.13966 3.04942 8.346C2.54628 8.54189 2.09277 8.84297 1.69125 9.24496C1.2895 9.64552 0.988188 10.0997 0.792298 10.6024C0.598148 11.0979 0.498992 11.6255 0.500008 12.1577C0.500221 12.6834 0.599293 13.2045 0.792061 13.6937C0.98795 14.197 1.2895 14.6517 1.69125 15.053C2.09158 15.4536 2.5439 15.7596 3.04562 15.9669L3.04799 15.9676L3.05037 15.9688C3.56015 16.1628 4.0792 16.2618 4.60371 16.2618C5.12822 16.2618 5.64181 16.1626 6.14043 15.9683L6.14233 15.9676C6.65737 15.7591 7.12468 15.4481 7.51593 15.0535L8.18481 14.3832L6.84943 13.026L6.15848 13.6967L6.1561 13.6989C5.95809 13.9095 5.71644 14.0744 5.44805 14.1818C5.17959 14.2894 4.89293 14.3443 4.60371 14.3435C3.9923 14.3416 3.4875 14.1313 3.04799 13.6953C2.83784 13.4885 2.67262 13.2405 2.56266 12.9669C2.45533 12.7042 2.39993 12.4231 2.39954 12.1394C2.39954 11.8592 2.45344 11.5847 2.56266 11.3128C2.66986 11.0446 2.83455 10.803 3.04514 10.6053V10.605ZM10.5998 12.1389C10.6017 11.5287 10.8121 11.0234 11.2483 10.5841C11.5997 10.2344 11.9912 10.0347 12.4433 9.96915C12.5563 9.95324 12.6672 9.94565 12.7762 9.94565C13.0314 9.94482 13.2846 9.98969 13.5239 10.0781C13.3544 10.2444 13.1838 10.4096 13.0122 10.5737L13.0108 10.5749L13.0099 10.5765C12.7178 10.8683 12.4082 11.1775 12.0815 11.5049C11.7661 11.8202 11.4627 12.1237 11.1699 12.4153C10.9942 12.5915 10.8465 12.7396 10.7259 12.86C10.6417 12.629 10.5991 12.3848 10.6001 12.1389H10.5998ZM15.7157 9.24258C15.314 8.84083 14.8534 8.53975 14.3386 8.34291V8.34315C13.852 8.13977 13.33 8.0347 12.8026 8.034C12.2778 8.034 11.7578 8.13848 11.2485 8.34386V8.34363C10.7459 8.5407 10.2919 8.84154 9.89035 9.24258C9.48907 9.64433 9.18823 10.0981 8.99163 10.6007C8.79904 11.0902 8.69975 11.6113 8.69887 12.1372C8.69887 12.6622 8.79717 13.182 8.99092 13.6913L8.99329 13.6956L8.99163 13.6927C9.188 14.1951 9.48883 14.6494 9.88987 15.0509C10.2718 15.4356 10.7264 15.7407 11.2271 15.9484C11.7265 16.1555 12.262 16.2614 12.8026 16.2599C13.344 16.2612 13.8802 16.155 14.3803 15.9475C14.8804 15.74 15.3343 15.4353 15.7157 15.0511L16.3848 14.3806L15.0286 13.0241L14.9023 13.1506L14.3588 13.6934C14.0081 14.0425 13.6096 14.25 13.1442 14.3267C13.0355 14.3419 12.9282 14.3497 12.8228 14.3497C12.5697 14.35 12.3186 14.3049 12.0815 14.2165L16.3851 9.91217L15.7155 9.24258H15.7157ZM23.9198 9.24377C23.5426 8.86604 23.0943 8.5668 22.6008 8.36333C22.111 8.14489 21.5775 8.03448 21.0074 8.03495C20.4579 8.03263 19.914 8.14487 19.4103 8.36452C18.918 8.56789 18.4708 8.86662 18.0944 9.24353C17.7278 9.61014 17.4348 10.0447 17.2161 10.5423L17.2154 10.5442C17.0065 11.035 16.9032 11.5683 16.9034 12.1384H17.0791L16.9034 12.1387V16.2614H18.821V12.1387C18.821 11.8338 18.8749 11.555 18.9822 11.2972C19.1028 11.0251 19.2593 10.7938 19.4514 10.6007C19.6504 10.4 19.8869 10.2404 20.1476 10.1311L20.1502 10.1299C20.4204 10.0116 20.7124 9.95132 21.0074 9.95301C21.311 9.95301 21.5946 10.0119 21.8638 10.1299L21.8676 10.1313L21.8693 10.1318C22.1305 10.2346 22.3659 10.3937 22.5588 10.5977L22.5626 10.6012L22.5662 10.6045C22.77 10.7975 22.9289 11.033 23.0313 11.2943L23.033 11.2993L23.0346 11.3026C23.1526 11.5591 23.2111 11.8352 23.2111 12.1384V16.2614H25.1289V12.1384C25.1289 11.5667 25.0182 11.0324 24.7984 10.5414C24.5974 10.0533 24.2984 9.61165 23.9198 9.24377ZM31.3698 13.6932L31.3669 13.696C31.1686 13.9065 30.9268 14.0713 30.6584 14.179C30.39 14.2867 30.1035 14.3416 29.8143 14.3409C29.2022 14.339 28.6974 14.1287 28.2581 13.6929C28.0481 13.4857 27.8827 13.2376 27.7721 12.964C27.6656 12.7011 27.6105 12.4202 27.6097 12.1365C27.6097 11.8563 27.664 11.5816 27.7723 11.309C27.8798 11.0411 28.0445 10.7999 28.2548 10.6022L28.2562 10.6012L28.2581 10.5993C28.4766 10.3809 28.7176 10.2211 28.9866 10.1133C29.517 9.89744 30.1107 9.89744 30.6411 10.1133C30.9106 10.2211 31.1516 10.3811 31.37 10.5993L32.06 11.2677L33.3954 9.91027L32.7265 9.24234C32.3248 8.8394 31.8639 8.53833 31.3498 8.34244C30.8634 8.13871 30.3414 8.03355 29.8141 8.03305C29.2881 8.03305 28.7691 8.13682 28.2595 8.34363C27.7566 8.53928 27.3027 8.83988 26.9014 9.24234C26.5001 9.64291 26.1985 10.0971 26.0029 10.6C25.8086 11.0954 25.7092 11.6229 25.7099 12.155C25.7099 12.6795 25.8082 13.1927 26.0029 13.6913C26.1985 14.1947 26.4996 14.6491 26.9016 15.0504C27.3024 15.4507 27.755 15.757 28.2565 15.9641L28.2579 15.965L28.2612 15.9662C28.7705 16.1602 29.2893 16.2592 29.8143 16.2592C30.3404 16.2584 30.8617 16.1588 31.351 15.9657L31.3529 15.9648C31.866 15.7577 32.3255 15.4512 32.7265 15.0506L33.3954 14.3806L32.0598 13.0234L31.3698 13.6932ZM35.9731 11.2983C36.0942 11.0253 36.2499 10.7943 36.4427 10.6022L36.4434 10.6017C36.6455 10.398 36.8875 10.2383 37.1543 10.1327L37.1572 10.1311L37.16 10.1301C37.43 10.0114 37.722 9.95101 38.017 9.95301C38.3199 9.95301 38.6039 10.0117 38.8725 10.1301L38.8756 10.1316L38.8786 10.1327C39.1401 10.2352 39.3758 10.3941 39.5689 10.5981L39.5717 10.6015L39.576 10.6053C39.7795 10.7983 39.9382 11.0335 40.0409 11.2946L40.0426 11.2983L40.0442 11.3021C40.1615 11.5591 40.2207 11.8352 40.2207 12.1384C40.2224 12.4336 40.1619 12.7259 40.0431 12.9961L40.0421 12.9987L40.0409 13.001C39.935 13.2677 39.7755 13.5097 39.5722 13.7122C39.3789 13.9055 39.1493 14.0612 38.8772 14.1809C38.6036 14.2902 38.3114 14.3454 38.0167 14.3433C37.7215 14.3455 37.4287 14.2903 37.1546 14.1809C36.8924 14.0662 36.6516 13.9076 36.4427 13.7119C36.2467 13.5027 36.088 13.2614 35.9735 12.9984C35.8651 12.7248 35.8104 12.4329 35.8123 12.1387C35.8123 11.8338 35.8662 11.5555 35.9731 11.2983ZM41.8094 10.5438C41.6087 10.0547 41.3096 9.61224 40.9306 9.24377C40.5535 8.86596 40.105 8.56699 39.6111 8.36428C39.1213 8.14489 38.5878 8.03471 38.0184 8.03495C37.4699 8.03244 36.927 8.14462 36.4244 8.36428L36.4221 8.36523L36.4214 8.36571C35.9288 8.56837 35.4813 8.86683 35.105 9.24377C34.7388 9.61038 34.4454 10.0447 34.2264 10.5428L34.2253 10.5459L34.2257 10.5442C34.017 11.0353 33.914 11.569 33.914 12.1384C33.9137 12.6983 34.017 13.2314 34.225 13.7324L34.2264 13.7354C34.4378 14.2224 34.7346 14.6676 35.1028 15.0499L35.1045 15.0518L35.1047 15.0523C35.4839 15.4301 35.9301 15.7338 36.4206 15.9479L36.423 15.9489L36.4244 15.9496C36.9254 16.1569 37.4583 16.2611 38.0182 16.2611C38.588 16.2611 39.1218 16.1574 39.6126 15.9489L39.6147 15.9479C40.1051 15.7338 40.5514 15.4301 40.9306 15.0525C41.308 14.6747 41.6069 14.2261 41.8103 13.7324C42.03 13.2298 42.1421 12.6869 42.1394 12.1384C42.1397 11.5695 42.0302 11.036 41.8103 10.5461L41.8094 10.5438ZM50.745 12.7351H50.7453C50.7445 12.733 50.7434 12.7313 50.7426 12.7294C50.6211 12.4243 50.435 12.1491 50.1972 11.9226V11.9221C49.9675 11.6937 49.6935 11.5147 49.3921 11.3959C49.3904 11.3952 49.3885 11.3945 49.3871 11.3936L49.3831 11.3919C49.0815 11.2547 48.7538 11.1858 48.4065 11.186H45.2523C45.0723 11.1844 44.9427 11.1314 44.8213 11.0141C44.6993 10.8788 44.644 10.7396 44.6428 10.5594C44.6444 10.3783 44.6986 10.2472 44.8178 10.1259C44.9408 10.0055 45.0706 9.95206 45.2523 9.95063H50.1792V8.0321H50.0004V8.21018L50.0006 8.21113H49.9999V8.0321H45.2518C44.9072 8.03063 44.5661 8.1014 44.2505 8.23986C43.9553 8.36242 43.687 8.54166 43.4608 8.76746C43.234 8.99445 43.0524 9.26514 42.9149 9.57595L42.9142 9.57832L42.9135 9.57975C42.7869 9.8832 42.725 10.2109 42.7252 10.5594C42.7232 10.9003 42.7869 11.2383 42.9128 11.555L42.9147 11.5598L42.9166 11.5631C43.0516 11.8581 43.2344 12.1289 43.4575 12.3645L43.4591 12.3664L43.4608 12.3678C43.6885 12.595 43.9552 12.7794 44.2481 12.9122L44.2524 12.9144L44.2562 12.9158C44.5704 13.0416 44.904 13.1034 45.252 13.1034H48.4062C48.6014 13.1053 48.7375 13.162 48.8574 13.2796C48.977 13.4016 49.0312 13.5329 49.0333 13.7136C49.0309 13.9088 48.9754 14.0446 48.8571 14.1647C48.7372 14.283 48.6023 14.3383 48.406 14.3405H43.4962V16.2587H48.4062C48.7543 16.2587 49.0829 16.1953 49.3864 16.069L49.3883 16.0678L49.3885 16.0676C49.69 15.9379 49.9643 15.7527 50.1972 15.5215C50.4312 15.2903 50.6171 15.0151 50.7443 14.7118H50.7441C50.8811 14.3984 50.9506 14.0636 50.9506 13.7134C50.9528 13.3763 50.8827 13.0427 50.745 12.7351ZM59.5819 8.21446H59.5816V8.0359H57.8433V12.1394C57.8449 12.4345 57.7842 12.7267 57.6653 12.9968L57.6636 13.0001L57.6626 13.0022C57.557 13.2686 57.3978 13.5104 57.1949 13.7127C57.0016 13.905 56.771 14.061 56.4994 14.1821C56.2256 14.2904 55.9334 14.3452 55.6389 14.3435C55.3447 14.3453 55.0529 14.2906 54.7794 14.1823C54.5233 14.0645 54.2882 13.9057 54.0832 13.7122C53.8875 13.5035 53.7289 13.2629 53.6143 13.0008C53.5054 12.7267 53.4503 12.4343 53.4519 12.1394V8.0359H51.5352V12.1396C51.5352 12.699 51.6385 13.2321 51.8467 13.7336L51.8477 13.7354L51.8484 13.7373C52.06 14.224 52.3567 14.6689 52.7246 15.0514L52.7267 15.053V15.0537C53.1055 15.4317 53.552 15.7351 54.0428 15.9482L54.0447 15.9496L54.0462 15.9501C54.5472 16.1581 55.08 16.2625 55.6394 16.2625C56.21 16.2625 56.7433 16.1581 57.2334 15.9491L57.2355 15.9482C57.7264 15.735 58.1729 15.4316 58.5519 15.0537C58.9292 14.676 59.2281 14.2273 59.4313 13.7336C59.6514 13.2312 59.7636 12.6883 59.7609 12.1398V8.03614H59.5819V8.21446ZM62.9016 13.7131C62.7057 13.5052 62.5473 13.265 62.4331 13.0032C62.3235 12.7288 62.2681 12.4358 62.2702 12.1403C62.2702 11.8352 62.3243 11.5564 62.4319 11.2986C62.5523 11.0265 62.7076 10.7959 62.9016 10.6031C63.1036 10.3995 63.3454 10.2398 63.612 10.1339L63.6148 10.1327L63.6179 10.1313C63.8878 10.013 64.1796 9.95277 64.4744 9.95467H66.6612V12.1401C66.663 12.4353 66.6023 12.7276 66.4831 12.9977L66.4819 13.0008L66.4807 13.0037C66.375 13.2699 66.2156 13.5115 66.0125 13.7136C65.8188 13.9066 65.5892 14.0626 65.317 14.1835C65.0597 14.2908 64.78 14.3445 64.4741 14.3445C64.1797 14.3463 63.8877 14.2916 63.6139 14.1833C63.3513 14.0685 63.1103 13.9095 62.9016 13.7131ZM68.5757 4.87793H66.6581V8.03163H64.4713C63.9121 8.03163 63.379 8.14156 62.8783 8.36025C62.3854 8.56291 61.9377 8.86136 61.561 9.23831L61.5595 9.23973L61.5588 9.24021C61.1813 9.60634 60.8816 10.0409 60.6632 10.5395L60.6613 10.5426L60.6625 10.5414C60.4535 11.0312 60.3495 11.5648 60.3495 12.1346C60.3495 12.6945 60.454 13.2278 60.6613 13.7288L60.6625 13.7312L60.6632 13.7326C60.8772 14.2232 61.1809 14.6695 61.5586 15.0487C61.9376 15.4269 62.3842 15.7305 62.8752 15.9439L62.8771 15.9446L62.8785 15.9451C63.3795 16.1531 63.9121 16.2576 64.4713 16.2576C65.0307 16.2576 65.5638 16.1531 66.0645 15.9451L66.0674 15.9439C66.5665 15.7254 67.0003 15.4263 67.3666 15.0487C67.744 14.6714 68.0429 14.223 68.2461 13.7295H68.2459C68.4658 13.2268 68.5782 12.6836 68.5757 12.1349V4.87793Z" fill="black" fill-opacity="0.6"/>
</svg>
