<svg width="39" height="37" viewBox="0 0 39 37" fill="none" xmlns="http://www.w3.org/2000/svg">
<path d="M17.8172 2.61991C18.6044 1.39439 20.3956 1.39439 21.1828 2.61992L25.8972 9.95975C26.168 10.3814 26.5873 10.686 27.072 10.8133L35.5094 13.0288C36.9182 13.3988 37.4717 15.1023 36.5494 16.2297L31.0257 22.9815C30.7083 23.3694 30.5482 23.8622 30.5769 24.3626L31.0772 33.0717C31.1607 34.5258 29.7115 35.5787 28.3544 35.0499L20.2261 31.8829C19.7591 31.701 19.2409 31.701 18.7739 31.8829L10.6456 35.0499C9.28847 35.5787 7.83932 34.5258 7.92284 33.0717L8.42306 24.3626C8.4518 23.8622 8.29165 23.3694 7.97431 22.9815L2.45055 16.2297C1.52825 15.1023 2.08178 13.3988 3.49057 13.0288L11.928 10.8133C12.4127 10.686 12.832 10.3814 13.1028 9.95975L17.8172 2.61991Z" fill="white" stroke="#FFD02B" stroke-width="2" stroke-linejoin="round"/>
</svg>
