<svg width="37" height="35" viewBox="0 0 37 35" fill="none" xmlns="http://www.w3.org/2000/svg">
<path d="M16.8172 1.61991C17.6044 0.394387 19.3956 0.39439 20.1828 1.61992L24.8972 8.95975C25.168 9.38141 25.5873 9.68603 26.072 9.81331L34.5094 12.0288C35.9182 12.3988 36.4717 14.1023 35.5494 15.2297L30.0257 21.9815C29.7083 22.3694 29.5482 22.8622 29.5769 23.3626L30.0772 32.0717C30.1607 33.5258 28.7115 34.5787 27.3544 34.0499L19.2261 30.8829C18.7591 30.701 18.2409 30.701 17.7739 30.8829L9.64564 34.0499C8.28847 34.5787 6.83932 33.5258 6.92284 32.0717L7.42306 23.3626C7.4518 22.8622 7.29165 22.3694 6.97431 21.9815L1.45055 15.2297C0.528249 14.1023 1.08178 12.3988 2.49057 12.0288L10.928 9.81331C11.4127 9.68603 11.832 9.38141 12.1028 8.95975L16.8172 1.61991Z" fill="#FFD02B"/>
</svg>
