<svg width="280" height="68" viewBox="0 0 280 68" fill="none" xmlns="http://www.w3.org/2000/svg">
<g clip-path="url(#clip0_4249_27879)">
<path d="M68.6299 39.1186V39.0285C68.6299 33.1742 73.2617 30.2921 80.0127 30.2921C83.1006 30.2921 85.2803 30.7424 87.4297 31.4329V30.7724C87.4297 26.8996 85.0381 24.8581 80.5879 24.8581C78.1963 24.8581 76.1983 25.2784 74.4727 25.9389C74.1094 26.0289 73.8067 26.089 73.4736 26.089C72.0205 26.089 70.8096 24.9481 70.8096 23.5071C70.8096 22.3662 71.5967 21.4055 72.5352 21.0453C75.1387 20.0545 77.8028 19.4541 81.4053 19.4541C85.5225 19.4541 88.6104 20.5349 90.5479 22.4863C92.5763 24.4378 93.5147 27.3199 93.5147 30.8625V44.2523C93.5147 45.9636 92.1524 47.2245 90.4268 47.2245C88.6104 47.2245 87.3389 45.9936 87.3389 44.6126V43.5318C85.462 45.7534 82.586 47.4947 78.3477 47.4947C73.2315 47.4947 68.6299 44.5826 68.6299 39.1186ZM87.5206 37.1671V35.3058C85.9161 34.6753 83.7666 34.225 81.2539 34.225C77.1973 34.225 74.7754 35.9362 74.7754 38.7583V38.8484C74.7754 41.4603 77.1367 42.9614 80.1641 42.9614C84.3418 42.9914 87.5206 40.6197 87.5206 37.1671Z" fill="#1C174E"/>
<path d="M122.789 44.1022C122.789 45.8135 121.366 47.1945 119.61 47.1945C117.885 47.1945 116.432 45.8435 116.432 44.1022V42.7212C114.646 45.3031 112.103 47.4947 107.834 47.4947C101.628 47.4947 98.0254 43.3817 98.0254 37.047V22.6064C98.0254 20.8651 99.4483 19.4541 101.144 19.4541C102.93 19.4541 104.322 20.8351 104.322 22.6064V35.2157C104.322 39.4488 106.472 41.7905 110.226 41.7905C113.889 41.7905 116.432 39.3287 116.432 35.0956V22.6064C116.432 20.8651 117.855 19.4541 119.61 19.4541C121.336 19.4541 122.789 20.8351 122.789 22.6064V44.1022Z" fill="#1C174E"/>
<path d="M129.237 39.4192V25.1287H128.208C126.694 25.1287 125.483 23.9578 125.483 22.4567C125.483 20.9556 126.694 19.7848 128.208 19.7848H129.237V15.1313C129.237 13.4201 130.66 12.0391 132.416 12.0391C134.142 12.0391 135.534 13.4201 135.534 15.1313V19.7547H140.499C142.013 19.7547 143.254 20.9256 143.254 22.4267C143.254 23.9278 142.013 25.0987 140.499 25.0987H135.534V38.4285C135.534 40.8603 136.775 41.821 138.925 41.821C139.651 41.821 140.287 41.6709 140.499 41.6709C141.922 41.6709 143.163 42.8117 143.163 44.2527C143.163 45.3936 142.376 46.3243 141.498 46.6845C140.136 47.1349 138.834 47.4051 137.169 47.4051C132.507 47.4051 129.237 45.3936 129.237 39.4192Z" fill="#1C174E"/>
<path d="M144.313 33.5049V33.4148C144.313 25.6391 150.58 19.2144 159.026 19.2144C167.473 19.2144 173.679 25.549 173.679 33.3247V33.4148C173.679 41.1305 167.412 47.5852 158.905 47.5852C150.52 47.5552 144.313 41.2205 144.313 33.5049ZM167.382 33.5049V33.4148C167.382 28.6413 163.87 24.6784 158.936 24.6784C153.88 24.6784 150.641 28.5812 150.641 33.3247V33.4148C150.641 38.1583 154.152 42.1212 159.057 42.1212C164.143 42.0912 167.382 38.1883 167.382 33.5049Z" fill="#1C174E"/>
<path d="M177.342 22.6069C177.342 20.8656 178.704 19.4545 180.46 19.4545C182.246 19.4545 183.639 20.8355 183.639 22.6069V24.3181C185.667 21.496 188.543 19.2144 193.023 19.2144C199.502 19.2144 205.799 24.2581 205.799 33.3247V33.4148C205.799 42.4214 199.532 47.5252 193.023 47.5252C188.422 47.5252 185.546 45.2735 183.639 42.7517V52.3887C183.639 54.13 182.216 55.481 180.46 55.481C178.734 55.481 177.342 54.13 177.342 52.3887V22.6069ZM199.411 33.4148V33.3247C199.411 28.0709 195.809 24.6183 191.54 24.6183C187.272 24.6183 183.487 28.1309 183.487 33.3247V33.4148C183.487 38.6086 187.241 42.1212 191.54 42.1212C195.869 42.0912 199.411 38.7587 199.411 33.4148Z" fill="#1C174E"/>
<path d="M207.768 39.1186V39.0285C207.768 33.1742 212.399 30.2921 219.15 30.2921C222.238 30.2921 224.418 30.7424 226.567 31.4329V30.7724C226.567 26.8996 224.176 24.8581 219.726 24.8581C217.334 24.8581 215.336 25.2784 213.61 25.9389C213.247 26.0289 212.944 26.089 212.611 26.089C211.158 26.089 209.947 24.9481 209.947 23.5071C209.947 22.3662 210.734 21.4055 211.673 21.0453C214.276 20.0545 216.94 19.4541 220.543 19.4541C224.66 19.4541 227.748 20.5349 229.686 22.4863C231.714 24.4378 232.652 27.3199 232.652 30.8625V44.2523C232.652 45.9636 231.29 47.2245 229.565 47.2245C227.748 47.2245 226.477 45.9936 226.477 44.6126V43.5318C224.6 45.7534 221.724 47.4947 217.485 47.4947C212.369 47.4947 207.768 44.5826 207.768 39.1186ZM226.658 37.1671V35.3058C225.054 34.6753 222.904 34.225 220.392 34.225C216.335 34.225 213.913 35.9362 213.913 38.7583V38.8484C213.913 41.4603 216.274 42.9614 219.302 42.9614C223.48 42.9914 226.658 40.6197 226.658 37.1671Z" fill="#1C174E"/>
<path d="M236.437 44.2225C235.771 43.8623 235.226 43.0817 235.226 42.0609C235.226 40.6799 236.315 39.5391 237.769 39.5391C238.283 39.5391 238.768 39.6892 239.131 39.8993C241.795 41.6406 244.55 42.5113 247.063 42.5113C249.787 42.5113 251.331 41.3704 251.331 39.5691V39.479C251.331 37.3775 248.395 36.657 245.186 35.6662C241.129 34.5254 236.588 32.8742 236.588 27.6804V27.5903C236.588 22.4565 240.917 19.3042 246.397 19.3042C249.333 19.3042 252.391 20.1148 255.055 21.5258C255.933 21.9762 256.568 22.8168 256.568 23.8976C256.568 25.3386 255.418 26.4194 253.965 26.4194C253.45 26.4194 253.117 26.3294 252.724 26.1192C250.483 24.9784 248.183 24.2578 246.245 24.2578C243.793 24.2578 242.37 25.3987 242.37 26.9298V27.0199C242.37 29.0314 245.337 29.8419 248.576 30.8927C252.603 32.1236 257.144 33.925 257.144 38.8186V38.9086C257.144 44.6128 252.663 47.4649 246.911 47.4649C243.43 47.4649 239.615 46.3841 236.437 44.2225Z" fill="#1C174E"/>
<path d="M259.293 44.2225C258.627 43.8623 258.082 43.0817 258.082 42.0609C258.082 40.6799 259.172 39.5391 260.625 39.5391C261.14 39.5391 261.624 39.6892 261.987 39.8993C264.651 41.6406 267.406 42.5113 269.919 42.5113C272.644 42.5113 274.188 41.3704 274.188 39.5691V39.479C274.188 37.3775 271.251 36.657 268.042 35.6662C263.985 34.5254 259.444 32.9042 259.444 27.6804V27.5903C259.444 22.4565 263.773 19.3042 269.253 19.3042C272.189 19.3042 275.247 20.1148 277.911 21.5258C278.789 21.9762 279.425 22.8168 279.425 23.8976C279.425 25.3386 278.274 26.4194 276.821 26.4194C276.307 26.4194 275.974 26.3294 275.58 26.1192C273.34 24.9784 271.039 24.2578 269.102 24.2578C266.649 24.2578 265.227 25.3987 265.227 26.9298V27.0199C265.227 29.0314 268.193 29.8419 271.433 30.8927C275.459 32.1236 280 33.925 280 38.8186V38.9086C280 44.6128 275.52 47.4649 269.768 47.4649C266.286 47.4649 262.472 46.3841 259.293 44.2225Z" fill="#1C174E"/>
<path fill-rule="evenodd" clip-rule="evenodd" d="M7.83963 35.306C9.23221 34.015 12.0779 33.5947 14.1668 33.7148C15.0447 33.7748 15.9227 33.8949 16.74 34.0751C22.0682 35.1558 24.0965 38.5183 25.035 43.8923C25.4891 46.5042 24.9744 49.1161 23.6424 50.4071C22.4315 51.5179 20.8875 51.1276 19.283 50.4071C14.0154 47.9453 9.77713 43.6221 7.50662 38.2781C7.20388 37.4375 6.65896 36.3868 7.83963 35.306ZM50.8583 35.306C49.4657 34.015 46.62 33.5947 44.5312 33.7148C43.6532 33.7748 42.7753 33.8949 41.9579 34.0751C36.6298 35.1558 34.6014 38.5183 33.663 43.8923C33.2089 46.5042 33.7235 49.1161 35.0555 50.4071C36.2665 51.5179 37.8104 51.1276 39.4149 50.4071C44.6825 47.9453 48.9208 43.6221 51.1913 38.2781C51.4941 37.4375 52.039 36.3868 50.8583 35.306ZM29.3338 22.7868C25.1258 22.7868 21.7352 26.1492 21.7352 30.3223C21.7352 34.4954 25.1258 37.8578 29.3338 37.8578C33.5419 37.8578 36.9325 34.4954 36.9325 30.3223C36.9325 26.1793 33.5419 22.7868 29.3338 22.7868ZM29.3338 5.61413C18.0418 5.61413 8.59647 13.4499 6.23513 23.9576C5.69021 29.0914 10.2918 28.0106 13.6521 26.5095C17.4969 24.7682 22.0076 20.2649 29.3338 20.2649C36.66 20.2649 41.1708 24.7682 45.0155 26.5095C48.3759 28.0406 52.9775 29.0914 52.4325 23.9576C50.1015 13.4799 40.6561 5.61413 29.3338 5.61413ZM29.3338 68C27.911 68 26.5184 67.4596 25.4286 66.4088L8.56619 49.6865C-2.90748 38.3082 -2.90748 19.9046 8.56619 8.52627C14.3182 2.8521 21.826 0 29.3338 0C36.8417 0 44.3495 2.8521 50.0712 8.52627C61.5449 19.9046 61.5449 38.3082 50.0712 49.6865L33.2391 66.4088C32.1796 67.4596 30.7567 68 29.3338 68Z" fill="url(#paint0_radial_4249_27879)"/>
<path d="M29.2442 34.8254C31.8524 34.8254 33.9668 32.742 33.9668 30.172C33.9668 27.602 31.8524 25.5186 29.2442 25.5186C26.6359 25.5186 24.5215 27.602 24.5215 30.172C24.5215 32.742 26.6359 34.8254 29.2442 34.8254Z" fill="url(#paint1_radial_4249_27879)"/>
</g>
<defs>
<radialGradient id="paint0_radial_4249_27879" cx="0" cy="0" r="1" gradientUnits="userSpaceOnUse" gradientTransform="translate(31.877 -11.3541) scale(86.9291 86.207)">
<stop stop-color="#0EE4A0"/>
<stop offset="0.2178" stop-color="#43BFD4"/>
<stop offset="0.6566" stop-color="#824EF1"/>
<stop offset="0.9356" stop-color="#CB56D0"/>
</radialGradient>
<radialGradient id="paint1_radial_4249_27879" cx="0" cy="0" r="1" gradientUnits="userSpaceOnUse" gradientTransform="translate(31.8781 -11.3543) scale(86.929 86.207)">
<stop stop-color="#0EE4A0"/>
<stop offset="0.2178" stop-color="#43BFD4"/>
<stop offset="0.6566" stop-color="#824EF1"/>
<stop offset="0.9356" stop-color="#CB56D0"/>
</radialGradient>
<clipPath id="clip0_4249_27879">
<rect width="280" height="68" fill="white"/>
</clipPath>
</defs>
</svg>
