<svg width="32" height="32" viewBox="0 0 32 32" fill="none" xmlns="http://www.w3.org/2000/svg">
<circle cx="16" cy="16" r="16" fill="black"/>
<path d="M22.3181 7H13.7272C12.9366 7 12.2954 7.6412 12.2954 8.43182V9.86364H18.0227C19.6017 9.86364 20.8863 11.1482 20.8863 12.7273V21.3182H22.3181C23.1088 21.3182 23.75 20.677 23.75 19.8864V8.43182C23.75 7.6412 23.1088 7 22.3181 7Z" fill="white"/>
<path d="M18.0227 11.2954H9.43182C8.6412 11.2954 8 11.9366 8 12.7272V24.1818C8 24.9724 8.6412 25.6136 9.43182 25.6136H18.0227C18.8133 25.6136 19.4545 24.9724 19.4545 24.1818V12.7272C19.4545 11.9366 18.8133 11.2954 18.0227 11.2954Z" fill="white"/>
</svg>
