<svg width="22" height="22" viewBox="0 0 22 22" fill="none" xmlns="http://www.w3.org/2000/svg">
<path d="M20.3281 3.17128C19.8388 2.68198 19.1715 2.39277 18.4821 2.39277H16.6139V1.63661C16.6139 1.05839 16.1467 0.613449 15.5907 0.613449H14.8567C14.2785 0.613449 13.8336 1.08059 13.8336 1.63661V2.41513L7.25064 2.41497V1.63662C7.25064 1.05839 6.7835 0.613453 6.22748 0.613453H5.49353C4.9153 0.613453 4.47036 1.08059 4.47036 1.63662V2.41513H2.62436C1.17877 2.41513 0 3.5939 0 5.03949V18.7622C0 20.2078 1.17877 21.3865 2.62436 21.3865H14.9014C15.6353 21.3865 16.3248 21.0974 16.8363 20.5859L20.3282 17.094C20.8397 16.5824 21.1289 15.893 21.1289 15.159V5.03937C21.1067 4.32774 20.8399 3.66063 20.3282 3.17133L20.3281 3.17128ZM1.46771 18.74V7.77517H19.5941V14.7366H15.3461C14.8789 14.7366 14.4787 15.1147 14.4787 15.604V19.8743H2.602C1.97909 19.8521 1.46763 19.3628 1.46763 18.74L1.46771 18.74Z" fill="black"/>
<path d="M6.69412 9.88811H3.86947C3.69152 9.88811 3.55811 10.0215 3.55811 10.1995V12.5348C3.55811 12.7128 3.69153 12.8462 3.86947 12.8462H6.6718C6.84974 12.8462 6.98316 12.7128 6.98316 12.5348V10.1995C6.98316 10.0439 6.84974 9.88811 6.69414 9.88811H6.69412Z" fill="black"/>
<path d="M17.2141 12.8462C17.3921 12.8462 17.5255 12.7128 17.5255 12.5348V10.1995C17.5255 10.0215 17.3921 9.88811 17.2141 9.88811H14.3895C14.2115 9.88811 14.0781 10.0215 14.0781 10.1995V12.5348C14.0781 12.7128 14.2115 12.8462 14.3895 12.8462H17.2141Z" fill="black"/>
<path d="M11.9434 9.88811H9.14096C8.96301 9.88811 8.82959 10.0215 8.82959 10.1995V12.5348C8.82959 12.7128 8.96301 12.8462 9.14096 12.8462H11.9433C12.1212 12.8462 12.2546 12.7128 12.2546 12.5348L12.2548 10.1995C12.2548 10.0439 12.1214 9.88811 11.9434 9.88811H11.9434Z" fill="black"/>
<path d="M6.69412 14.7143H3.86947C3.69152 14.7143 3.55811 14.8477 3.55811 15.0256V17.361C3.55811 17.5389 3.69153 17.6724 3.86947 17.6724H6.6718C6.84974 17.6724 6.98316 17.5389 6.98316 17.361V15.0258C6.98316 14.8479 6.84974 14.7143 6.69414 14.7143H6.69412Z" fill="black"/>
<path d="M11.9434 14.7143H9.14096C8.96301 14.7143 8.82959 14.8477 8.82959 15.0256V17.361C8.82959 17.5389 8.96301 17.6724 9.14096 17.6724H11.9433C12.1212 17.6724 12.2546 17.5389 12.2546 17.361L12.2548 15.0258C12.2548 14.8479 12.1214 14.7143 11.9434 14.7143H11.9434Z" fill="black"/>
</svg>
