<svg width="4" height="21" viewBox="0 0 4 21" fill="none" xmlns="http://www.w3.org/2000/svg">
<path d="M0.00215197 2.00868C0.00215197 0.904738 0.897107 0.00976562 2.00108 0.00976562C3.10503 0.00976562 4 0.904738 4 2.00868C4 3.11266 3.10503 4.0076 2.00108 4.0076C0.897107 4.0076 0.00215197 3.11266 0.00215197 2.00868ZM0.00215197 10.2899C0.00215197 9.18597 0.897107 8.291 2.00108 8.291C3.10503 8.291 4 9.18597 4 10.2899C4 11.3939 3.10503 12.2888 2.00108 12.2888C0.897107 12.2888 0.00215197 11.3939 0.00215197 10.2899ZM0.00215197 18.5712C0.00215197 17.4672 0.897107 16.5722 2.00108 16.5722C3.10503 16.5722 4 17.4672 4 18.5712C4 19.6751 3.10503 20.5701 2.00108 20.5701C0.897107 20.5701 0.00215197 19.6751 0.00215197 18.5712Z" fill="#D0D0D0"/>
</svg>
