<svg width="161" height="160" viewBox="0 0 161 160" fill="none" xmlns="http://www.w3.org/2000/svg">
<path d="M147.812 48.439C143.498 50.849 138.526 52.2225 133.233 52.2225C116.699 52.2225 103.295 38.8191 103.295 22.2851C103.295 18.9924 103.827 15.8238 104.809 12.8605C101.6 12.295 98.2967 12 94.925 12H62.075C30.8295 12 5.5 37.3295 5.5 68.575V101.425C5.5 132.671 30.8295 158 62.075 158H94.925C126.171 158 151.5 132.671 151.5 101.425V68.575C151.5 61.4825 150.195 54.6948 147.812 48.439Z" fill="#F1F1F1"/>
<path fill-rule="evenodd" clip-rule="evenodd" d="M45.9153 117.665C41.0836 117.665 37.1666 113.677 37.1666 108.756V93.9078H40.0831C44.2565 93.9078 48.0006 90.1296 48.0006 84.9987C48.0006 79.8678 44.2565 76.0896 40.0831 76.0896H37.1666V61.2411C37.1666 56.3208 41.0835 52.332 45.9153 52.332H110.085C114.916 52.332 118.833 56.3208 118.833 61.2411V76.0896H115.917C111.743 76.0896 107.999 79.8678 107.999 84.9987C107.999 90.1296 111.743 93.9078 115.917 93.9078H118.833V108.756C118.833 113.677 114.916 117.665 110.085 117.665H45.9153ZM45.9153 58.2714H110.085C111.695 58.2714 113.001 59.601 113.001 61.2411V70.4804C106.686 71.9389 102.167 78.0396 102.167 84.9987C102.167 91.9578 106.686 98.0585 113.001 99.5169V108.756C113.001 110.396 111.695 111.726 110.085 111.726H45.9153C44.3047 111.726 42.9991 110.396 42.9991 108.756V99.5169C49.3142 98.0585 53.8331 91.9578 53.8331 84.9987C53.8331 78.0396 49.3142 71.9389 42.9991 70.4804V61.2411C42.9991 59.601 44.3047 58.2714 45.9153 58.2714Z" fill="#B0B0B0"/>
<path d="M66.9598 68.668C64.0365 68.668 61.6666 71.0378 61.6666 73.9612C61.6666 76.8845 64.0365 79.2544 66.9598 79.2544C69.8832 79.2544 72.253 76.8845 72.253 73.9612C72.253 71.0378 69.8832 68.668 66.9598 68.668Z" fill="#B0B0B0"/>
<path d="M89.0401 90.7482C86.1167 90.7482 83.7469 93.1181 83.7469 96.0414C83.7469 98.9648 86.1167 101.335 89.0401 101.335C91.9634 101.335 94.3333 98.9648 94.3333 96.0414C94.3333 93.1181 91.9634 90.7482 89.0401 90.7482Z" fill="#B0B0B0"/>
<path d="M89.6561 75.4846C90.2467 74.894 90.2467 73.9364 89.6561 73.3458C89.0655 72.7552 88.1079 72.7552 87.5173 73.3458L66.3444 94.5186C65.7538 95.1092 65.7538 96.0668 66.3444 96.6574C66.9351 97.248 67.8926 97.248 68.4832 96.6574L89.6561 75.4846Z" fill="#B0B0B0"/>
<path d="M66.9598 68.668C64.0365 68.668 61.6666 71.0378 61.6666 73.9612C61.6666 76.8845 64.0365 79.2544 66.9598 79.2544C69.8832 79.2544 72.253 76.8845 72.253 73.9612C72.253 71.0378 69.8832 68.668 66.9598 68.668Z" stroke="#B0B0B0" stroke-width="2" stroke-linecap="round" stroke-linejoin="round"/>
<path d="M89.0401 90.7482C86.1167 90.7482 83.7469 93.1181 83.7469 96.0414C83.7469 98.9648 86.1167 101.335 89.0401 101.335C91.9634 101.335 94.3333 98.9648 94.3333 96.0414C94.3333 93.1181 91.9634 90.7482 89.0401 90.7482Z" stroke="#B0B0B0" stroke-width="2" stroke-linecap="round" stroke-linejoin="round"/>
<path d="M89.6561 75.4846C90.2467 74.894 90.2467 73.9364 89.6561 73.3458C89.0655 72.7552 88.1079 72.7552 87.5173 73.3458L66.3444 94.5186C65.7538 95.1092 65.7538 96.0668 66.3444 96.6574C66.9351 97.248 67.8926 97.248 68.4832 96.6574L89.6561 75.4846Z" stroke="#B0B0B0" stroke-width="2" stroke-linecap="round" stroke-linejoin="round"/>
<circle cx="133.5" cy="22" r="22" fill="#F1F1F1"/>
<path d="M126 30L142 14" stroke="#B0B0B0" stroke-width="3.81773" stroke-linecap="round" stroke-linejoin="round"/>
<path d="M142 30L126 14" stroke="#B0B0B0" stroke-width="3.81773" stroke-linecap="round" stroke-linejoin="round"/>
</svg>
