<svg width="161" height="160" viewBox="0 0 161 160" fill="none" xmlns="http://www.w3.org/2000/svg">
<path d="M147.812 48.439C143.498 50.849 138.526 52.2225 133.233 52.2225C116.699 52.2225 103.295 38.8191 103.295 22.2851C103.295 18.9924 103.827 15.8238 104.809 12.8605C101.6 12.295 98.2967 12 94.925 12H62.075C30.8295 12 5.5 37.3295 5.5 68.575V101.425C5.5 132.671 30.8295 158 62.075 158H94.925C126.171 158 151.5 132.671 151.5 101.425V68.575C151.5 61.4825 150.195 54.6948 147.812 48.439Z" fill="#212121"/>
<path d="M34 57.9797C32.6193 57.9797 31.5 59.099 31.5 60.4797C31.5 61.8605 32.6193 62.9797 34 62.9797V57.9797ZM50.0982 62.9165L47.7187 63.6831L47.7209 63.69L47.7231 63.6968L50.0982 62.9165ZM52.5604 67.9112C51.1797 67.9112 50.0604 69.0305 50.0604 70.4112C50.0604 71.7919 51.1797 72.9112 52.5604 72.9112V67.9112ZM122.542 75.6456L120.365 74.4167V74.4167L122.542 75.6456ZM107.747 101.855L109.924 103.084L109.924 103.084L107.747 101.855ZM101.378 116.075C102.759 116.075 103.878 114.956 103.878 113.575C103.878 112.194 102.759 111.075 101.378 111.075V116.075ZM71.283 62.9186C72.2604 63.8938 73.8433 63.892 74.8185 62.9146C75.7937 61.9372 75.792 60.3543 74.8146 59.3791L71.283 62.9186ZM70.2206 54.7953C69.2432 53.8201 67.6603 53.8219 66.6851 54.7993C65.7099 55.7767 65.7116 57.3596 66.689 58.3348L70.2206 54.7953ZM84.3307 58.9872C84.3307 60.3679 85.45 61.4872 86.8307 61.4872C88.2114 61.4872 89.3307 60.3679 89.3307 58.9872H84.3307ZM89.3307 45.9999C89.3307 44.6192 88.2114 43.4999 86.8307 43.4999C85.45 43.4999 84.3307 44.6192 84.3307 45.9999H89.3307ZM98.0812 59.3791C97.1038 60.3543 97.102 61.9372 98.0772 62.9146C99.0525 63.892 100.635 63.8938 101.613 62.9186L98.0812 59.3791ZM106.207 58.3348C107.184 57.3596 107.186 55.7767 106.211 54.7993C105.235 53.8219 103.653 53.8201 102.675 54.7953L106.207 58.3348ZM34 62.9797H46.748V57.9797H34V62.9797ZM47.7231 63.6968L61.1029 104.424L65.8531 102.863L52.4734 62.1363L47.7231 63.6968ZM46.748 62.9797C47.1943 62.9797 47.5846 63.267 47.7187 63.6831L52.4778 62.15C51.6763 59.6619 49.359 57.9797 46.748 57.9797V62.9797ZM120.365 74.4167L105.57 100.626L109.924 103.084L124.719 76.8745L120.365 74.4167ZM104.681 101.143H63.478V106.143H104.681V101.143ZM105.57 100.626C105.391 100.944 105.052 101.143 104.681 101.143V106.143C106.852 106.143 108.857 104.976 109.924 103.084L105.57 100.626ZM119.476 72.9112C120.264 72.9112 120.741 73.7509 120.365 74.4167L124.719 76.8745C126.986 72.8591 124.072 67.9112 119.476 67.9112V72.9112ZM101.378 111.075H63.478V116.075H101.378V111.075ZM61.0012 108.609C61.0012 107.253 62.1048 106.143 63.478 106.143V101.143C59.3539 101.143 56.0012 104.481 56.0012 108.609H61.0012ZM63.478 111.075C62.1048 111.075 61.0012 109.966 61.0012 108.609H56.0012C56.0012 112.738 59.3539 116.075 63.478 116.075V111.075ZM73.6114 125.416C73.6114 126.562 72.6792 127.5 71.5175 127.5V132.5C75.4301 132.5 78.6114 129.334 78.6114 125.416H73.6114ZM71.5175 127.5C70.3557 127.5 69.4235 126.562 69.4235 125.416H64.4235C64.4235 129.334 67.6048 132.5 71.5175 132.5V127.5ZM69.4235 125.416C69.4235 124.271 70.3557 123.333 71.5175 123.333V118.333C67.6048 118.333 64.4235 121.499 64.4235 125.416H69.4235ZM71.5175 123.333C72.6792 123.333 73.6114 124.271 73.6114 125.416H78.6114C78.6114 121.499 75.4301 118.333 71.5175 118.333V123.333ZM74.8146 59.3791L70.2206 54.7953L66.689 58.3348L71.283 62.9186L74.8146 59.3791ZM89.3307 58.9872V45.9999H84.3307V58.9872H89.3307ZM101.613 62.9186L106.207 58.3348L102.675 54.7953L98.0812 59.3791L101.613 62.9186ZM95.8156 125.416C95.8156 126.562 94.8834 127.5 93.7217 127.5V132.5C97.6343 132.5 100.816 129.334 100.816 125.416H95.8156ZM93.7217 127.5C92.5599 127.5 91.6277 126.562 91.6277 125.416H86.6277C86.6277 129.334 89.809 132.5 93.7217 132.5V127.5ZM91.6277 125.416C91.6277 124.271 92.5599 123.333 93.7217 123.333V118.333C89.809 118.333 86.6277 121.499 86.6277 125.416H91.6277ZM93.7217 123.333C94.8834 123.333 95.8156 124.271 95.8156 125.416H100.816C100.816 121.499 97.6343 118.333 93.7217 118.333V123.333ZM52.5604 72.9112C52.604 72.9112 52.6476 72.9112 52.6911 72.9112C52.7347 72.9112 52.7783 72.9112 52.8218 72.9112C52.8654 72.9112 52.9089 72.9112 52.9525 72.9112C52.9961 72.9112 53.0396 72.9112 53.0832 72.9112C53.1268 72.9112 53.1703 72.9112 53.2139 72.9112C53.2575 72.9112 53.301 72.9112 53.3446 72.9112C53.3882 72.9112 53.4317 72.9112 53.4753 72.9112C53.5189 72.9112 53.5624 72.9112 53.606 72.9112C53.6495 72.9112 53.6931 72.9112 53.7367 72.9112C53.7802 72.9112 53.8238 72.9112 53.8674 72.9112C53.9109 72.9112 53.9545 72.9112 53.9981 72.9112C54.0416 72.9112 54.0852 72.9112 54.1288 72.9112C54.1723 72.9112 54.2159 72.9112 54.2595 72.9112C54.303 72.9112 54.3466 72.9112 54.3901 72.9112C54.4337 72.9112 54.4773 72.9112 54.5208 72.9112C54.5644 72.9112 54.608 72.9112 54.6515 72.9112C54.6951 72.9112 54.7387 72.9112 54.7822 72.9112C54.8258 72.9112 54.8694 72.9112 54.9129 72.9112C54.9565 72.9112 55.0001 72.9112 55.0436 72.9112C55.0872 72.9112 55.1307 72.9112 55.1743 72.9112C55.2179 72.9112 55.2614 72.9112 55.305 72.9112C55.3486 72.9112 55.3921 72.9112 55.4357 72.9112C55.4793 72.9112 55.5228 72.9112 55.5664 72.9112C55.61 72.9112 55.6535 72.9112 55.6971 72.9112C55.7407 72.9112 55.7842 72.9112 55.8278 72.9112C55.8713 72.9112 55.9149 72.9112 55.9585 72.9112C56.002 72.9112 56.0456 72.9112 56.0892 72.9112C56.1327 72.9112 56.1763 72.9112 56.2199 72.9112C56.2634 72.9112 56.307 72.9112 56.3506 72.9112C56.3941 72.9112 56.4377 72.9112 56.4813 72.9112C56.5248 72.9112 56.5684 72.9112 56.6119 72.9112C56.6555 72.9112 56.6991 72.9112 56.7426 72.9112C56.7862 72.9112 56.8298 72.9112 56.8733 72.9112C56.9169 72.9112 56.9605 72.9112 57.004 72.9112C57.0476 72.9112 57.0912 72.9112 57.1347 72.9112C57.1783 72.9112 57.2218 72.9112 57.2654 72.9112C57.309 72.9112 57.3525 72.9112 57.3961 72.9112C57.4397 72.9112 57.4832 72.9112 57.5268 72.9112C57.5704 72.9112 57.6139 72.9112 57.6575 72.9112C57.7011 72.9112 57.7446 72.9112 57.7882 72.9112C57.8318 72.9112 57.8753 72.9112 57.9189 72.9112C57.9624 72.9112 58.006 72.9112 58.0496 72.9112C58.0931 72.9112 58.1367 72.9112 58.1803 72.9112C58.2238 72.9112 58.2674 72.9112 58.311 72.9112C58.3545 72.9112 58.3981 72.9112 58.4417 72.9112C58.4852 72.9112 58.5288 72.9112 58.5724 72.9112C58.6159 72.9112 58.6595 72.9112 58.703 72.9112C58.7466 72.9112 58.7902 72.9112 58.8337 72.9112C58.8773 72.9112 58.9209 72.9112 58.9644 72.9112C59.008 72.9112 59.0516 72.9112 59.0951 72.9112C59.1387 72.9112 59.1823 72.9112 59.2258 72.9112C59.2694 72.9112 59.313 72.9112 59.3565 72.9112C59.4001 72.9112 59.4436 72.9112 59.4872 72.9112C59.5308 72.9112 59.5743 72.9112 59.6179 72.9112C59.6615 72.9112 59.705 72.9112 59.7486 72.9112C59.7922 72.9112 59.8357 72.9112 59.8793 72.9112C59.9229 72.9112 59.9664 72.9112 60.01 72.9112C60.0536 72.9112 60.0971 72.9112 60.1407 72.9112C60.1842 72.9112 60.2278 72.9112 60.2714 72.9112C60.3149 72.9112 60.3585 72.9112 60.4021 72.9112C60.4456 72.9112 60.4892 72.9112 60.5328 72.9112C60.5763 72.9112 60.6199 72.9112 60.6635 72.9112C60.707 72.9112 60.7506 72.9112 60.7942 72.9112C60.8377 72.9112 60.8813 72.9112 60.9248 72.9112C60.9684 72.9112 61.012 72.9112 61.0555 72.9112C61.0991 72.9112 61.1427 72.9112 61.1862 72.9112C61.2298 72.9112 61.2734 72.9112 61.3169 72.9112C61.3605 72.9112 61.4041 72.9112 61.4476 72.9112C61.4912 72.9112 61.5348 72.9112 61.5783 72.9112C61.6219 72.9112 61.6654 72.9112 61.709 72.9112C61.7526 72.9112 61.7961 72.9112 61.8397 72.9112C61.8833 72.9112 61.9268 72.9112 61.9704 72.9112C62.014 72.9112 62.0575 72.9112 62.1011 72.9112C62.1447 72.9112 62.1882 72.9112 62.2318 72.9112C62.2754 72.9112 62.3189 72.9112 62.3625 72.9112C62.406 72.9112 62.4496 72.9112 62.4932 72.9112C62.5367 72.9112 62.5803 72.9112 62.6239 72.9112C62.6674 72.9112 62.711 72.9112 62.7546 72.9112C62.7981 72.9112 62.8417 72.9112 62.8853 72.9112C62.9288 72.9112 62.9724 72.9112 63.016 72.9112C63.0595 72.9112 63.1031 72.9112 63.1466 72.9112C63.1902 72.9112 63.2338 72.9112 63.2773 72.9112C63.3209 72.9112 63.3645 72.9112 63.408 72.9112C63.4516 72.9112 63.4952 72.9112 63.5387 72.9112C63.5823 72.9112 63.6259 72.9112 63.6694 72.9112C63.713 72.9112 63.7566 72.9112 63.8001 72.9112C63.8437 72.9112 63.8872 72.9112 63.9308 72.9112C63.9744 72.9112 64.0179 72.9112 64.0615 72.9112C64.1051 72.9112 64.1486 72.9112 64.1922 72.9112C64.2358 72.9112 64.2793 72.9112 64.3229 72.9112C64.3665 72.9112 64.41 72.9112 64.4536 72.9112C64.4972 72.9112 64.5407 72.9112 64.5843 72.9112C64.6278 72.9112 64.6714 72.9112 64.715 72.9112C64.7585 72.9112 64.8021 72.9112 64.8457 72.9112C64.8892 72.9112 64.9328 72.9112 64.9764 72.9112C65.0199 72.9112 65.0635 72.9112 65.1071 72.9112C65.1506 72.9112 65.1942 72.9112 65.2378 72.9112C65.2813 72.9112 65.3249 72.9112 65.3684 72.9112C65.412 72.9112 65.4556 72.9112 65.4991 72.9112C65.5427 72.9112 65.5863 72.9112 65.6298 72.9112C65.6734 72.9112 65.717 72.9112 65.7605 72.9112C65.8041 72.9112 65.8477 72.9112 65.8912 72.9112C65.9348 72.9112 65.9783 72.9112 66.0219 72.9112C66.0655 72.9112 66.109 72.9112 66.1526 72.9112C66.1962 72.9112 66.2397 72.9112 66.2833 72.9112C66.3269 72.9112 66.3704 72.9112 66.414 72.9112C66.4576 72.9112 66.5011 72.9112 66.5447 72.9112C66.5883 72.9112 66.6318 72.9112 66.6754 72.9112C66.7189 72.9112 66.7625 72.9112 66.8061 72.9112C66.8496 72.9112 66.8932 72.9112 66.9368 72.9112C66.9803 72.9112 67.0239 72.9112 67.0675 72.9112C67.111 72.9112 67.1546 72.9112 67.1982 72.9112C67.2417 72.9112 67.2853 72.9112 67.3289 72.9112C67.3724 72.9112 67.416 72.9112 67.4595 72.9112C67.5031 72.9112 67.5467 72.9112 67.5902 72.9112C67.6338 72.9112 67.6774 72.9112 67.7209 72.9112C67.7645 72.9112 67.8081 72.9112 67.8516 72.9112C67.8952 72.9112 67.9388 72.9112 67.9823 72.9112C68.0259 72.9112 68.0695 72.9112 68.113 72.9112C68.1566 72.9112 68.2001 72.9112 68.2437 72.9112C68.2873 72.9112 68.3308 72.9112 68.3744 72.9112C68.418 72.9112 68.4615 72.9112 68.5051 72.9112C68.5487 72.9112 68.5922 72.9112 68.6358 72.9112C68.6794 72.9112 68.7229 72.9112 68.7665 72.9112C68.8101 72.9112 68.8536 72.9112 68.8972 72.9112C68.9407 72.9112 68.9843 72.9112 69.0279 72.9112C69.0714 72.9112 69.115 72.9112 69.1586 72.9112C69.2021 72.9112 69.2457 72.9112 69.2893 72.9112C69.3328 72.9112 69.3764 72.9112 69.42 72.9112C69.4635 72.9112 69.5071 72.9112 69.5507 72.9112C69.5942 72.9112 69.6378 72.9112 69.6813 72.9112C69.7249 72.9112 69.7685 72.9112 69.812 72.9112C69.8556 72.9112 69.8992 72.9112 69.9427 72.9112C69.9863 72.9112 70.0299 72.9112 70.0734 72.9112C70.117 72.9112 70.1606 72.9112 70.2041 72.9112C70.2477 72.9112 70.2913 72.9112 70.3348 72.9112C70.3784 72.9112 70.4219 72.9112 70.4655 72.9112C70.5091 72.9112 70.5526 72.9112 70.5962 72.9112C70.6398 72.9112 70.6833 72.9112 70.7269 72.9112C70.7705 72.9112 70.814 72.9112 70.8576 72.9112C70.9012 72.9112 70.9447 72.9112 70.9883 72.9112C71.0319 72.9112 71.0754 72.9112 71.119 72.9112C71.1625 72.9112 71.2061 72.9112 71.2497 72.9112C71.2932 72.9112 71.3368 72.9112 71.3804 72.9112C71.4239 72.9112 71.4675 72.9112 71.5111 72.9112C71.5546 72.9112 71.5982 72.9112 71.6418 72.9112C71.6853 72.9112 71.7289 72.9112 71.7725 72.9112C71.816 72.9112 71.8596 72.9112 71.9031 72.9112C71.9467 72.9112 71.9903 72.9112 72.0338 72.9112C72.0774 72.9112 72.121 72.9112 72.1645 72.9112C72.2081 72.9112 72.2517 72.9112 72.2952 72.9112C72.3388 72.9112 72.3824 72.9112 72.4259 72.9112C72.4695 72.9112 72.5131 72.9112 72.5566 72.9112C72.6002 72.9112 72.6437 72.9112 72.6873 72.9112C72.7309 72.9112 72.7744 72.9112 72.818 72.9112C72.8616 72.9112 72.9051 72.9112 72.9487 72.9112C72.9923 72.9112 73.0358 72.9112 73.0794 72.9112C73.123 72.9112 73.1665 72.9112 73.2101 72.9112C73.2537 72.9112 73.2972 72.9112 73.3408 72.9112C73.3843 72.9112 73.4279 72.9112 73.4715 72.9112C73.515 72.9112 73.5586 72.9112 73.6022 72.9112C73.6457 72.9112 73.6893 72.9112 73.7329 72.9112C73.7764 72.9112 73.82 72.9112 73.8636 72.9112C73.9071 72.9112 73.9507 72.9112 73.9943 72.9112C74.0378 72.9112 74.0814 72.9112 74.1249 72.9112C74.1685 72.9112 74.2121 72.9112 74.2556 72.9112C74.2992 72.9112 74.3428 72.9112 74.3863 72.9112C74.4299 72.9112 74.4735 72.9112 74.517 72.9112C74.5606 72.9112 74.6042 72.9112 74.6477 72.9112C74.6913 72.9112 74.7349 72.9112 74.7784 72.9112C74.822 72.9112 74.8655 72.9112 74.9091 72.9112C74.9527 72.9112 74.9962 72.9112 75.0398 72.9112C75.0834 72.9112 75.1269 72.9112 75.1705 72.9112C75.2141 72.9112 75.2576 72.9112 75.3012 72.9112C75.3448 72.9112 75.3883 72.9112 75.4319 72.9112C75.4754 72.9112 75.519 72.9112 75.5626 72.9112C75.6061 72.9112 75.6497 72.9112 75.6933 72.9112C75.7368 72.9112 75.7804 72.9112 75.824 72.9112C75.8675 72.9112 75.9111 72.9112 75.9547 72.9112C75.9982 72.9112 76.0418 72.9112 76.0854 72.9112C76.1289 72.9112 76.1725 72.9112 76.216 72.9112C76.2596 72.9112 76.3032 72.9112 76.3467 72.9112C76.3903 72.9112 76.4339 72.9112 76.4774 72.9112C76.521 72.9112 76.5646 72.9112 76.6081 72.9112C76.6517 72.9112 76.6953 72.9112 76.7388 72.9112C76.7824 72.9112 76.826 72.9112 76.8695 72.9112C76.9131 72.9112 76.9566 72.9112 77.0002 72.9112C77.0438 72.9112 77.0873 72.9112 77.1309 72.9112C77.1745 72.9112 77.218 72.9112 77.2616 72.9112C77.3052 72.9112 77.3487 72.9112 77.3923 72.9112C77.4359 72.9112 77.4794 72.9112 77.523 72.9112C77.5666 72.9112 77.6101 72.9112 77.6537 72.9112C77.6973 72.9112 77.7408 72.9112 77.7844 72.9112C77.8279 72.9112 77.8715 72.9112 77.9151 72.9112C77.9586 72.9112 78.0022 72.9112 78.0458 72.9112C78.0893 72.9112 78.1329 72.9112 78.1765 72.9112C78.22 72.9112 78.2636 72.9112 78.3072 72.9112C78.3507 72.9112 78.3943 72.9112 78.4378 72.9112C78.4814 72.9112 78.525 72.9112 78.5685 72.9112C78.6121 72.9112 78.6557 72.9112 78.6992 72.9112C78.7428 72.9112 78.7864 72.9112 78.8299 72.9112C78.8735 72.9112 78.9171 72.9112 78.9606 72.9112C79.0042 72.9112 79.0478 72.9112 79.0913 72.9112C79.1349 72.9112 79.1784 72.9112 79.222 72.9112C79.2656 72.9112 79.3091 72.9112 79.3527 72.9112C79.3963 72.9112 79.4398 72.9112 79.4834 72.9112C79.527 72.9112 79.5705 72.9112 79.6141 72.9112C79.6577 72.9112 79.7012 72.9112 79.7448 72.9112C79.7884 72.9112 79.8319 72.9112 79.8755 72.9112C79.919 72.9112 79.9626 72.9112 80.0062 72.9112C80.0497 72.9112 80.0933 72.9112 80.1369 72.9112C80.1804 72.9112 80.224 72.9112 80.2676 72.9112C80.3111 72.9112 80.3547 72.9112 80.3983 72.9112C80.4418 72.9112 80.4854 72.9112 80.529 72.9112C80.5725 72.9112 80.6161 72.9112 80.6596 72.9112C80.7032 72.9112 80.7468 72.9112 80.7903 72.9112C80.8339 72.9112 80.8775 72.9112 80.921 72.9112C80.9646 72.9112 81.0082 72.9112 81.0517 72.9112C81.0953 72.9112 81.1389 72.9112 81.1824 72.9112C81.226 72.9112 81.2696 72.9112 81.3131 72.9112C81.3567 72.9112 81.4002 72.9112 81.4438 72.9112C81.4874 72.9112 81.5309 72.9112 81.5745 72.9112C81.6181 72.9112 81.6616 72.9112 81.7052 72.9112C81.7488 72.9112 81.7923 72.9112 81.8359 72.9112C81.8795 72.9112 81.923 72.9112 81.9666 72.9112C82.0102 72.9112 82.0537 72.9112 82.0973 72.9112C82.1408 72.9112 82.1844 72.9112 82.228 72.9112C82.2715 72.9112 82.3151 72.9112 82.3587 72.9112C82.4022 72.9112 82.4458 72.9112 82.4894 72.9112C82.5329 72.9112 82.5765 72.9112 82.6201 72.9112C82.6636 72.9112 82.7072 72.9112 82.7508 72.9112C82.7943 72.9112 82.8379 72.9112 82.8814 72.9112C82.925 72.9112 82.9686 72.9112 83.0121 72.9112C83.0557 72.9112 83.0993 72.9112 83.1428 72.9112C83.1864 72.9112 83.23 72.9112 83.2735 72.9112C83.3171 72.9112 83.3607 72.9112 83.4042 72.9112C83.4478 72.9112 83.4914 72.9112 83.5349 72.9112C83.5785 72.9112 83.622 72.9112 83.6656 72.9112C83.7092 72.9112 83.7527 72.9112 83.7963 72.9112C83.8399 72.9112 83.8834 72.9112 83.927 72.9112C83.9706 72.9112 84.0141 72.9112 84.0577 72.9112C84.1013 72.9112 84.1448 72.9112 84.1884 72.9112C84.2319 72.9112 84.2755 72.9112 84.3191 72.9112C84.3626 72.9112 84.4062 72.9112 84.4498 72.9112C84.4933 72.9112 84.5369 72.9112 84.5805 72.9112C84.624 72.9112 84.6676 72.9112 84.7112 72.9112C84.7547 72.9112 84.7983 72.9112 84.8419 72.9112C84.8854 72.9112 84.929 72.9112 84.9725 72.9112C85.0161 72.9112 85.0597 72.9112 85.1032 72.9112C85.1468 72.9112 85.1904 72.9112 85.2339 72.9112C85.2775 72.9112 85.3211 72.9112 85.3646 72.9112C85.4082 72.9112 85.4518 72.9112 85.4953 72.9112C85.5389 72.9112 85.5825 72.9112 85.626 72.9112C85.6696 72.9112 85.7132 72.9112 85.7567 72.9112C85.8003 72.9112 85.8438 72.9112 85.8874 72.9112C85.931 72.9112 85.9745 72.9112 86.0181 72.9112C86.0617 72.9112 86.1052 72.9112 86.1488 72.9112C86.1924 72.9112 86.2359 72.9112 86.2795 72.9112C86.3231 72.9112 86.3666 72.9112 86.4102 72.9112C86.4538 72.9112 86.4973 72.9112 86.5409 72.9112C86.5844 72.9112 86.628 72.9112 86.6716 72.9112C86.7151 72.9112 86.7587 72.9112 86.8023 72.9112C86.8458 72.9112 86.8894 72.9112 86.933 72.9112C86.9765 72.9112 87.0201 72.9112 87.0637 72.9112C87.1072 72.9112 87.1508 72.9112 87.1943 72.9112C87.2379 72.9112 87.2815 72.9112 87.325 72.9112C87.3686 72.9112 87.4122 72.9112 87.4557 72.9112C87.4993 72.9112 87.5429 72.9112 87.5864 72.9112C87.63 72.9112 87.6736 72.9112 87.7171 72.9112C87.7607 72.9112 87.8043 72.9112 87.8478 72.9112C87.8914 72.9112 87.9349 72.9112 87.9785 72.9112C88.0221 72.9112 88.0656 72.9112 88.1092 72.9112C88.1528 72.9112 88.1963 72.9112 88.2399 72.9112C88.2835 72.9112 88.327 72.9112 88.3706 72.9112C88.4142 72.9112 88.4577 72.9112 88.5013 72.9112C88.5449 72.9112 88.5884 72.9112 88.632 72.9112C88.6755 72.9112 88.7191 72.9112 88.7627 72.9112C88.8062 72.9112 88.8498 72.9112 88.8934 72.9112C88.9369 72.9112 88.9805 72.9112 89.0241 72.9112C89.0676 72.9112 89.1112 72.9112 89.1548 72.9112C89.1983 72.9112 89.2419 72.9112 89.2855 72.9112C89.329 72.9112 89.3726 72.9112 89.4161 72.9112C89.4597 72.9112 89.5033 72.9112 89.5468 72.9112C89.5904 72.9112 89.634 72.9112 89.6775 72.9112C89.7211 72.9112 89.7647 72.9112 89.8082 72.9112C89.8518 72.9112 89.8954 72.9112 89.9389 72.9112C89.9825 72.9112 90.0261 72.9112 90.0696 72.9112C90.1132 72.9112 90.1567 72.9112 90.2003 72.9112C90.2439 72.9112 90.2874 72.9112 90.331 72.9112C90.3746 72.9112 90.4181 72.9112 90.4617 72.9112C90.5053 72.9112 90.5488 72.9112 90.5924 72.9112C90.636 72.9112 90.6795 72.9112 90.7231 72.9112C90.7667 72.9112 90.8102 72.9112 90.8538 72.9112C90.8973 72.9112 90.9409 72.9112 90.9845 72.9112C91.028 72.9112 91.0716 72.9112 91.1152 72.9112C91.1587 72.9112 91.2023 72.9112 91.2459 72.9112C91.2894 72.9112 91.333 72.9112 91.3766 72.9112C91.4201 72.9112 91.4637 72.9112 91.5073 72.9112C91.5508 72.9112 91.5944 72.9112 91.6379 72.9112C91.6815 72.9112 91.7251 72.9112 91.7686 72.9112C91.8122 72.9112 91.8558 72.9112 91.8993 72.9112C91.9429 72.9112 91.9865 72.9112 92.03 72.9112C92.0736 72.9112 92.1172 72.9112 92.1607 72.9112C92.2043 72.9112 92.2479 72.9112 92.2914 72.9112C92.335 72.9112 92.3785 72.9112 92.4221 72.9112C92.4657 72.9112 92.5092 72.9112 92.5528 72.9112C92.5964 72.9112 92.6399 72.9112 92.6835 72.9112C92.7271 72.9112 92.7706 72.9112 92.8142 72.9112C92.8578 72.9112 92.9013 72.9112 92.9449 72.9112C92.9885 72.9112 93.032 72.9112 93.0756 72.9112C93.1191 72.9112 93.1627 72.9112 93.2063 72.9112C93.2498 72.9112 93.2934 72.9112 93.337 72.9112C93.3805 72.9112 93.4241 72.9112 93.4677 72.9112C93.5112 72.9112 93.5548 72.9112 93.5984 72.9112C93.6419 72.9112 93.6855 72.9112 93.729 72.9112C93.7726 72.9112 93.8162 72.9112 93.8597 72.9112C93.9033 72.9112 93.9469 72.9112 93.9904 72.9112C94.034 72.9112 94.0776 72.9112 94.1211 72.9112C94.1647 72.9112 94.2083 72.9112 94.2518 72.9112C94.2954 72.9112 94.339 72.9112 94.3825 72.9112C94.4261 72.9112 94.4697 72.9112 94.5132 72.9112C94.5568 72.9112 94.6003 72.9112 94.6439 72.9112C94.6875 72.9112 94.731 72.9112 94.7746 72.9112C94.8182 72.9112 94.8617 72.9112 94.9053 72.9112C94.9489 72.9112 94.9924 72.9112 95.036 72.9112C95.0796 72.9112 95.1231 72.9112 95.1667 72.9112C95.2103 72.9112 95.2538 72.9112 95.2974 72.9112C95.3409 72.9112 95.3845 72.9112 95.4281 72.9112C95.4716 72.9112 95.5152 72.9112 95.5588 72.9112C95.6023 72.9112 95.6459 72.9112 95.6895 72.9112C95.733 72.9112 95.7766 72.9112 95.8202 72.9112C95.8637 72.9112 95.9073 72.9112 95.9508 72.9112C95.9944 72.9112 96.038 72.9112 96.0815 72.9112C96.1251 72.9112 96.1687 72.9112 96.2122 72.9112C96.2558 72.9112 96.2994 72.9112 96.3429 72.9112C96.3865 72.9112 96.4301 72.9112 96.4736 72.9112C96.5172 72.9112 96.5608 72.9112 96.6043 72.9112C96.6479 72.9112 96.6914 72.9112 96.735 72.9112C96.7786 72.9112 96.8221 72.9112 96.8657 72.9112C96.9093 72.9112 96.9528 72.9112 96.9964 72.9112C97.04 72.9112 97.0835 72.9112 97.1271 72.9112C97.1707 72.9112 97.2142 72.9112 97.2578 72.9112C97.3014 72.9112 97.3449 72.9112 97.3885 72.9112C97.432 72.9112 97.4756 72.9112 97.5192 72.9112C97.5627 72.9112 97.6063 72.9112 97.6499 72.9112C97.6934 72.9112 97.737 72.9112 97.7806 72.9112C97.8241 72.9112 97.8677 72.9112 97.9113 72.9112C97.9548 72.9112 97.9984 72.9112 98.042 72.9112C98.0855 72.9112 98.1291 72.9112 98.1726 72.9112C98.2162 72.9112 98.2598 72.9112 98.3033 72.9112C98.3469 72.9112 98.3905 72.9112 98.434 72.9112C98.4776 72.9112 98.5212 72.9112 98.5647 72.9112C98.6083 72.9112 98.6519 72.9112 98.6954 72.9112C98.739 72.9112 98.7826 72.9112 98.8261 72.9112C98.8697 72.9112 98.9132 72.9112 98.9568 72.9112C99.0004 72.9112 99.0439 72.9112 99.0875 72.9112C99.1311 72.9112 99.1746 72.9112 99.2182 72.9112C99.2618 72.9112 99.3053 72.9112 99.3489 72.9112C99.3925 72.9112 99.436 72.9112 99.4796 72.9112C99.5232 72.9112 99.5667 72.9112 99.6103 72.9112C99.6538 72.9112 99.6974 72.9112 99.741 72.9112C99.7845 72.9112 99.8281 72.9112 99.8717 72.9112C99.9152 72.9112 99.9588 72.9112 100.002 72.9112C100.046 72.9112 100.089 72.9112 100.133 72.9112C100.177 72.9112 100.22 72.9112 100.264 72.9112C100.307 72.9112 100.351 72.9112 100.394 72.9112C100.438 72.9112 100.482 72.9112 100.525 72.9112C100.569 72.9112 100.612 72.9112 100.656 72.9112C100.699 72.9112 100.743 72.9112 100.787 72.9112C100.83 72.9112 100.874 72.9112 100.917 72.9112C100.961 72.9112 101.004 72.9112 101.048 72.9112C101.091 72.9112 101.135 72.9112 101.179 72.9112C101.222 72.9112 101.266 72.9112 101.309 72.9112C101.353 72.9112 101.396 72.9112 101.44 72.9112C101.484 72.9112 101.527 72.9112 101.571 72.9112C101.614 72.9112 101.658 72.9112 101.701 72.9112C101.745 72.9112 101.789 72.9112 101.832 72.9112C101.876 72.9112 101.919 72.9112 101.963 72.9112C102.006 72.9112 102.05 72.9112 102.093 72.9112C102.137 72.9112 102.181 72.9112 102.224 72.9112C102.268 72.9112 102.311 72.9112 102.355 72.9112C102.398 72.9112 102.442 72.9112 102.486 72.9112C102.529 72.9112 102.573 72.9112 102.616 72.9112C102.66 72.9112 102.703 72.9112 102.747 72.9112C102.791 72.9112 102.834 72.9112 102.878 72.9112C102.921 72.9112 102.965 72.9112 103.008 72.9112C103.052 72.9112 103.095 72.9112 103.139 72.9112C103.183 72.9112 103.226 72.9112 103.27 72.9112C103.313 72.9112 103.357 72.9112 103.4 72.9112C103.444 72.9112 103.488 72.9112 103.531 72.9112C103.575 72.9112 103.618 72.9112 103.662 72.9112C103.705 72.9112 103.749 72.9112 103.792 72.9112C103.836 72.9112 103.88 72.9112 103.923 72.9112C103.967 72.9112 104.01 72.9112 104.054 72.9112C104.097 72.9112 104.141 72.9112 104.185 72.9112C104.228 72.9112 104.272 72.9112 104.315 72.9112C104.359 72.9112 104.402 72.9112 104.446 72.9112C104.49 72.9112 104.533 72.9112 104.577 72.9112C104.62 72.9112 104.664 72.9112 104.707 72.9112C104.751 72.9112 104.794 72.9112 104.838 72.9112C104.882 72.9112 104.925 72.9112 104.969 72.9112C105.012 72.9112 105.056 72.9112 105.099 72.9112C105.143 72.9112 105.187 72.9112 105.23 72.9112C105.274 72.9112 105.317 72.9112 105.361 72.9112C105.404 72.9112 105.448 72.9112 105.492 72.9112C105.535 72.9112 105.579 72.9112 105.622 72.9112C105.666 72.9112 105.709 72.9112 105.753 72.9112C105.796 72.9112 105.84 72.9112 105.884 72.9112C105.927 72.9112 105.971 72.9112 106.014 72.9112C106.058 72.9112 106.101 72.9112 106.145 72.9112C106.189 72.9112 106.232 72.9112 106.276 72.9112C106.319 72.9112 106.363 72.9112 106.406 72.9112C106.45 72.9112 106.493 72.9112 106.537 72.9112C106.581 72.9112 106.624 72.9112 106.668 72.9112C106.711 72.9112 106.755 72.9112 106.798 72.9112C106.842 72.9112 106.886 72.9112 106.929 72.9112C106.973 72.9112 107.016 72.9112 107.06 72.9112C107.103 72.9112 107.147 72.9112 107.191 72.9112C107.234 72.9112 107.278 72.9112 107.321 72.9112C107.365 72.9112 107.408 72.9112 107.452 72.9112C107.495 72.9112 107.539 72.9112 107.583 72.9112C107.626 72.9112 107.67 72.9112 107.713 72.9112C107.757 72.9112 107.8 72.9112 107.844 72.9112C107.888 72.9112 107.931 72.9112 107.975 72.9112C108.018 72.9112 108.062 72.9112 108.105 72.9112C108.149 72.9112 108.193 72.9112 108.236 72.9112C108.28 72.9112 108.323 72.9112 108.367 72.9112C108.41 72.9112 108.454 72.9112 108.497 72.9112C108.541 72.9112 108.585 72.9112 108.628 72.9112C108.672 72.9112 108.715 72.9112 108.759 72.9112C108.802 72.9112 108.846 72.9112 108.89 72.9112C108.933 72.9112 108.977 72.9112 109.02 72.9112C109.064 72.9112 109.107 72.9112 109.151 72.9112C109.195 72.9112 109.238 72.9112 109.282 72.9112C109.325 72.9112 109.369 72.9112 109.412 72.9112C109.456 72.9112 109.499 72.9112 109.543 72.9112C109.587 72.9112 109.63 72.9112 109.674 72.9112C109.717 72.9112 109.761 72.9112 109.804 72.9112C109.848 72.9112 109.892 72.9112 109.935 72.9112C109.979 72.9112 110.022 72.9112 110.066 72.9112C110.109 72.9112 110.153 72.9112 110.197 72.9112C110.24 72.9112 110.284 72.9112 110.327 72.9112C110.371 72.9112 110.414 72.9112 110.458 72.9112C110.501 72.9112 110.545 72.9112 110.589 72.9112C110.632 72.9112 110.676 72.9112 110.719 72.9112C110.763 72.9112 110.806 72.9112 110.85 72.9112C110.894 72.9112 110.937 72.9112 110.981 72.9112C111.024 72.9112 111.068 72.9112 111.111 72.9112C111.155 72.9112 111.198 72.9112 111.242 72.9112C111.286 72.9112 111.329 72.9112 111.373 72.9112C111.416 72.9112 111.46 72.9112 111.503 72.9112C111.547 72.9112 111.591 72.9112 111.634 72.9112C111.678 72.9112 111.721 72.9112 111.765 72.9112C111.808 72.9112 111.852 72.9112 111.896 72.9112C111.939 72.9112 111.983 72.9112 112.026 72.9112C112.07 72.9112 112.113 72.9112 112.157 72.9112C112.2 72.9112 112.244 72.9112 112.288 72.9112C112.331 72.9112 112.375 72.9112 112.418 72.9112C112.462 72.9112 112.505 72.9112 112.549 72.9112C112.593 72.9112 112.636 72.9112 112.68 72.9112C112.723 72.9112 112.767 72.9112 112.81 72.9112C112.854 72.9112 112.898 72.9112 112.941 72.9112C112.985 72.9112 113.028 72.9112 113.072 72.9112C113.115 72.9112 113.159 72.9112 113.202 72.9112C113.246 72.9112 113.29 72.9112 113.333 72.9112C113.377 72.9112 113.42 72.9112 113.464 72.9112C113.507 72.9112 113.551 72.9112 113.595 72.9112C113.638 72.9112 113.682 72.9112 113.725 72.9112C113.769 72.9112 113.812 72.9112 113.856 72.9112C113.899 72.9112 113.943 72.9112 113.987 72.9112C114.03 72.9112 114.074 72.9112 114.117 72.9112C114.161 72.9112 114.204 72.9112 114.248 72.9112C114.292 72.9112 114.335 72.9112 114.379 72.9112C114.422 72.9112 114.466 72.9112 114.509 72.9112C114.553 72.9112 114.597 72.9112 114.64 72.9112C114.684 72.9112 114.727 72.9112 114.771 72.9112C114.814 72.9112 114.858 72.9112 114.901 72.9112C114.945 72.9112 114.989 72.9112 115.032 72.9112C115.076 72.9112 115.119 72.9112 115.163 72.9112C115.206 72.9112 115.25 72.9112 115.294 72.9112C115.337 72.9112 115.381 72.9112 115.424 72.9112C115.468 72.9112 115.511 72.9112 115.555 72.9112C115.599 72.9112 115.642 72.9112 115.686 72.9112C115.729 72.9112 115.773 72.9112 115.816 72.9112C115.86 72.9112 115.903 72.9112 115.947 72.9112C115.991 72.9112 116.034 72.9112 116.078 72.9112C116.121 72.9112 116.165 72.9112 116.208 72.9112C116.252 72.9112 116.296 72.9112 116.339 72.9112C116.383 72.9112 116.426 72.9112 116.47 72.9112C116.513 72.9112 116.557 72.9112 116.601 72.9112C116.644 72.9112 116.688 72.9112 116.731 72.9112C116.775 72.9112 116.818 72.9112 116.862 72.9112C116.905 72.9112 116.949 72.9112 116.993 72.9112C117.036 72.9112 117.08 72.9112 117.123 72.9112C117.167 72.9112 117.21 72.9112 117.254 72.9112C117.298 72.9112 117.341 72.9112 117.385 72.9112C117.428 72.9112 117.472 72.9112 117.515 72.9112C117.559 72.9112 117.602 72.9112 117.646 72.9112C117.69 72.9112 117.733 72.9112 117.777 72.9112C117.82 72.9112 117.864 72.9112 117.907 72.9112C117.951 72.9112 117.995 72.9112 118.038 72.9112C118.082 72.9112 118.125 72.9112 118.169 72.9112C118.212 72.9112 118.256 72.9112 118.3 72.9112C118.343 72.9112 118.387 72.9112 118.43 72.9112C118.474 72.9112 118.517 72.9112 118.561 72.9112C118.604 72.9112 118.648 72.9112 118.692 72.9112C118.735 72.9112 118.779 72.9112 118.822 72.9112C118.866 72.9112 118.909 72.9112 118.953 72.9112C118.997 72.9112 119.04 72.9112 119.084 72.9112C119.127 72.9112 119.171 72.9112 119.214 72.9112C119.258 72.9112 119.302 72.9112 119.345 72.9112C119.389 72.9112 119.432 72.9112 119.476 72.9112V67.9112C119.432 67.9112 119.389 67.9112 119.345 67.9112C119.302 67.9112 119.258 67.9112 119.214 67.9112C119.171 67.9112 119.127 67.9112 119.084 67.9112C119.04 67.9112 118.997 67.9112 118.953 67.9112C118.909 67.9112 118.866 67.9112 118.822 67.9112C118.779 67.9112 118.735 67.9112 118.692 67.9112C118.648 67.9112 118.604 67.9112 118.561 67.9112C118.517 67.9112 118.474 67.9112 118.43 67.9112C118.387 67.9112 118.343 67.9112 118.3 67.9112C118.256 67.9112 118.212 67.9112 118.169 67.9112C118.125 67.9112 118.082 67.9112 118.038 67.9112C117.995 67.9112 117.951 67.9112 117.907 67.9112C117.864 67.9112 117.82 67.9112 117.777 67.9112C117.733 67.9112 117.69 67.9112 117.646 67.9112C117.602 67.9112 117.559 67.9112 117.515 67.9112C117.472 67.9112 117.428 67.9112 117.385 67.9112C117.341 67.9112 117.298 67.9112 117.254 67.9112C117.21 67.9112 117.167 67.9112 117.123 67.9112C117.08 67.9112 117.036 67.9112 116.993 67.9112C116.949 67.9112 116.905 67.9112 116.862 67.9112C116.818 67.9112 116.775 67.9112 116.731 67.9112C116.688 67.9112 116.644 67.9112 116.601 67.9112C116.557 67.9112 116.513 67.9112 116.47 67.9112C116.426 67.9112 116.383 67.9112 116.339 67.9112C116.296 67.9112 116.252 67.9112 116.208 67.9112C116.165 67.9112 116.121 67.9112 116.078 67.9112C116.034 67.9112 115.991 67.9112 115.947 67.9112C115.903 67.9112 115.86 67.9112 115.816 67.9112C115.773 67.9112 115.729 67.9112 115.686 67.9112C115.642 67.9112 115.599 67.9112 115.555 67.9112C115.511 67.9112 115.468 67.9112 115.424 67.9112C115.381 67.9112 115.337 67.9112 115.294 67.9112C115.25 67.9112 115.206 67.9112 115.163 67.9112C115.119 67.9112 115.076 67.9112 115.032 67.9112C114.989 67.9112 114.945 67.9112 114.901 67.9112C114.858 67.9112 114.814 67.9112 114.771 67.9112C114.727 67.9112 114.684 67.9112 114.64 67.9112C114.597 67.9112 114.553 67.9112 114.509 67.9112C114.466 67.9112 114.422 67.9112 114.379 67.9112C114.335 67.9112 114.292 67.9112 114.248 67.9112C114.204 67.9112 114.161 67.9112 114.117 67.9112C114.074 67.9112 114.03 67.9112 113.987 67.9112C113.943 67.9112 113.899 67.9112 113.856 67.9112C113.812 67.9112 113.769 67.9112 113.725 67.9112C113.682 67.9112 113.638 67.9112 113.595 67.9112C113.551 67.9112 113.507 67.9112 113.464 67.9112C113.42 67.9112 113.377 67.9112 113.333 67.9112C113.29 67.9112 113.246 67.9112 113.202 67.9112C113.159 67.9112 113.115 67.9112 113.072 67.9112C113.028 67.9112 112.985 67.9112 112.941 67.9112C112.898 67.9112 112.854 67.9112 112.81 67.9112C112.767 67.9112 112.723 67.9112 112.68 67.9112C112.636 67.9112 112.593 67.9112 112.549 67.9112C112.505 67.9112 112.462 67.9112 112.418 67.9112C112.375 67.9112 112.331 67.9112 112.288 67.9112C112.244 67.9112 112.2 67.9112 112.157 67.9112C112.113 67.9112 112.07 67.9112 112.026 67.9112C111.983 67.9112 111.939 67.9112 111.896 67.9112C111.852 67.9112 111.808 67.9112 111.765 67.9112C111.721 67.9112 111.678 67.9112 111.634 67.9112C111.591 67.9112 111.547 67.9112 111.503 67.9112C111.46 67.9112 111.416 67.9112 111.373 67.9112C111.329 67.9112 111.286 67.9112 111.242 67.9112C111.198 67.9112 111.155 67.9112 111.111 67.9112C111.068 67.9112 111.024 67.9112 110.981 67.9112C110.937 67.9112 110.894 67.9112 110.85 67.9112C110.806 67.9112 110.763 67.9112 110.719 67.9112C110.676 67.9112 110.632 67.9112 110.589 67.9112C110.545 67.9112 110.501 67.9112 110.458 67.9112C110.414 67.9112 110.371 67.9112 110.327 67.9112C110.284 67.9112 110.24 67.9112 110.197 67.9112C110.153 67.9112 110.109 67.9112 110.066 67.9112C110.022 67.9112 109.979 67.9112 109.935 67.9112C109.892 67.9112 109.848 67.9112 109.804 67.9112C109.761 67.9112 109.717 67.9112 109.674 67.9112C109.63 67.9112 109.587 67.9112 109.543 67.9112C109.499 67.9112 109.456 67.9112 109.412 67.9112C109.369 67.9112 109.325 67.9112 109.282 67.9112C109.238 67.9112 109.195 67.9112 109.151 67.9112C109.107 67.9112 109.064 67.9112 109.02 67.9112C108.977 67.9112 108.933 67.9112 108.89 67.9112C108.846 67.9112 108.802 67.9112 108.759 67.9112C108.715 67.9112 108.672 67.9112 108.628 67.9112C108.585 67.9112 108.541 67.9112 108.497 67.9112C108.454 67.9112 108.41 67.9112 108.367 67.9112C108.323 67.9112 108.28 67.9112 108.236 67.9112C108.193 67.9112 108.149 67.9112 108.105 67.9112C108.062 67.9112 108.018 67.9112 107.975 67.9112C107.931 67.9112 107.888 67.9112 107.844 67.9112C107.8 67.9112 107.757 67.9112 107.713 67.9112C107.67 67.9112 107.626 67.9112 107.583 67.9112C107.539 67.9112 107.495 67.9112 107.452 67.9112C107.408 67.9112 107.365 67.9112 107.321 67.9112C107.278 67.9112 107.234 67.9112 107.191 67.9112C107.147 67.9112 107.103 67.9112 107.06 67.9112C107.016 67.9112 106.973 67.9112 106.929 67.9112C106.886 67.9112 106.842 67.9112 106.798 67.9112C106.755 67.9112 106.711 67.9112 106.668 67.9112C106.624 67.9112 106.581 67.9112 106.537 67.9112C106.493 67.9112 106.45 67.9112 106.406 67.9112C106.363 67.9112 106.319 67.9112 106.276 67.9112C106.232 67.9112 106.189 67.9112 106.145 67.9112C106.101 67.9112 106.058 67.9112 106.014 67.9112C105.971 67.9112 105.927 67.9112 105.884 67.9112C105.84 67.9112 105.796 67.9112 105.753 67.9112C105.709 67.9112 105.666 67.9112 105.622 67.9112C105.579 67.9112 105.535 67.9112 105.492 67.9112C105.448 67.9112 105.404 67.9112 105.361 67.9112C105.317 67.9112 105.274 67.9112 105.23 67.9112C105.187 67.9112 105.143 67.9112 105.099 67.9112C105.056 67.9112 105.012 67.9112 104.969 67.9112C104.925 67.9112 104.882 67.9112 104.838 67.9112C104.794 67.9112 104.751 67.9112 104.707 67.9112C104.664 67.9112 104.62 67.9112 104.577 67.9112C104.533 67.9112 104.49 67.9112 104.446 67.9112C104.402 67.9112 104.359 67.9112 104.315 67.9112C104.272 67.9112 104.228 67.9112 104.185 67.9112C104.141 67.9112 104.097 67.9112 104.054 67.9112C104.01 67.9112 103.967 67.9112 103.923 67.9112C103.88 67.9112 103.836 67.9112 103.792 67.9112C103.749 67.9112 103.705 67.9112 103.662 67.9112C103.618 67.9112 103.575 67.9112 103.531 67.9112C103.488 67.9112 103.444 67.9112 103.4 67.9112C103.357 67.9112 103.313 67.9112 103.27 67.9112C103.226 67.9112 103.183 67.9112 103.139 67.9112C103.095 67.9112 103.052 67.9112 103.008 67.9112C102.965 67.9112 102.921 67.9112 102.878 67.9112C102.834 67.9112 102.791 67.9112 102.747 67.9112C102.703 67.9112 102.66 67.9112 102.616 67.9112C102.573 67.9112 102.529 67.9112 102.486 67.9112C102.442 67.9112 102.398 67.9112 102.355 67.9112C102.311 67.9112 102.268 67.9112 102.224 67.9112C102.181 67.9112 102.137 67.9112 102.093 67.9112C102.05 67.9112 102.006 67.9112 101.963 67.9112C101.919 67.9112 101.876 67.9112 101.832 67.9112C101.789 67.9112 101.745 67.9112 101.701 67.9112C101.658 67.9112 101.614 67.9112 101.571 67.9112C101.527 67.9112 101.484 67.9112 101.44 67.9112C101.396 67.9112 101.353 67.9112 101.309 67.9112C101.266 67.9112 101.222 67.9112 101.179 67.9112C101.135 67.9112 101.091 67.9112 101.048 67.9112C101.004 67.9112 100.961 67.9112 100.917 67.9112C100.874 67.9112 100.83 67.9112 100.787 67.9112C100.743 67.9112 100.699 67.9112 100.656 67.9112C100.612 67.9112 100.569 67.9112 100.525 67.9112C100.482 67.9112 100.438 67.9112 100.394 67.9112C100.351 67.9112 100.307 67.9112 100.264 67.9112C100.22 67.9112 100.177 67.9112 100.133 67.9112C100.089 67.9112 100.046 67.9112 100.002 67.9112C99.9588 67.9112 99.9152 67.9112 99.8717 67.9112C99.8281 67.9112 99.7845 67.9112 99.741 67.9112C99.6974 67.9112 99.6538 67.9112 99.6103 67.9112C99.5667 67.9112 99.5232 67.9112 99.4796 67.9112C99.436 67.9112 99.3925 67.9112 99.3489 67.9112C99.3053 67.9112 99.2618 67.9112 99.2182 67.9112C99.1746 67.9112 99.1311 67.9112 99.0875 67.9112C99.0439 67.9112 99.0004 67.9112 98.9568 67.9112C98.9132 67.9112 98.8697 67.9112 98.8261 67.9112C98.7826 67.9112 98.739 67.9112 98.6954 67.9112C98.6519 67.9112 98.6083 67.9112 98.5647 67.9112C98.5212 67.9112 98.4776 67.9112 98.434 67.9112C98.3905 67.9112 98.3469 67.9112 98.3033 67.9112C98.2598 67.9112 98.2162 67.9112 98.1726 67.9112C98.1291 67.9112 98.0855 67.9112 98.042 67.9112C97.9984 67.9112 97.9548 67.9112 97.9113 67.9112C97.8677 67.9112 97.8241 67.9112 97.7806 67.9112C97.737 67.9112 97.6934 67.9112 97.6499 67.9112C97.6063 67.9112 97.5627 67.9112 97.5192 67.9112C97.4756 67.9112 97.432 67.9112 97.3885 67.9112C97.3449 67.9112 97.3014 67.9112 97.2578 67.9112C97.2142 67.9112 97.1707 67.9112 97.1271 67.9112C97.0835 67.9112 97.04 67.9112 96.9964 67.9112C96.9528 67.9112 96.9093 67.9112 96.8657 67.9112C96.8221 67.9112 96.7786 67.9112 96.735 67.9112C96.6914 67.9112 96.6479 67.9112 96.6043 67.9112C96.5608 67.9112 96.5172 67.9112 96.4736 67.9112C96.4301 67.9112 96.3865 67.9112 96.3429 67.9112C96.2994 67.9112 96.2558 67.9112 96.2122 67.9112C96.1687 67.9112 96.1251 67.9112 96.0815 67.9112C96.038 67.9112 95.9944 67.9112 95.9508 67.9112C95.9073 67.9112 95.8637 67.9112 95.8202 67.9112C95.7766 67.9112 95.733 67.9112 95.6895 67.9112C95.6459 67.9112 95.6023 67.9112 95.5588 67.9112C95.5152 67.9112 95.4716 67.9112 95.4281 67.9112C95.3845 67.9112 95.3409 67.9112 95.2974 67.9112C95.2538 67.9112 95.2103 67.9112 95.1667 67.9112C95.1231 67.9112 95.0796 67.9112 95.036 67.9112C94.9924 67.9112 94.9489 67.9112 94.9053 67.9112C94.8617 67.9112 94.8182 67.9112 94.7746 67.9112C94.731 67.9112 94.6875 67.9112 94.6439 67.9112C94.6003 67.9112 94.5568 67.9112 94.5132 67.9112C94.4697 67.9112 94.4261 67.9112 94.3825 67.9112C94.339 67.9112 94.2954 67.9112 94.2518 67.9112C94.2083 67.9112 94.1647 67.9112 94.1211 67.9112C94.0776 67.9112 94.034 67.9112 93.9904 67.9112C93.9469 67.9112 93.9033 67.9112 93.8597 67.9112C93.8162 67.9112 93.7726 67.9112 93.729 67.9112C93.6855 67.9112 93.6419 67.9112 93.5984 67.9112C93.5548 67.9112 93.5112 67.9112 93.4677 67.9112C93.4241 67.9112 93.3805 67.9112 93.337 67.9112C93.2934 67.9112 93.2498 67.9112 93.2063 67.9112C93.1627 67.9112 93.1191 67.9112 93.0756 67.9112C93.032 67.9112 92.9885 67.9112 92.9449 67.9112C92.9013 67.9112 92.8578 67.9112 92.8142 67.9112C92.7706 67.9112 92.7271 67.9112 92.6835 67.9112C92.6399 67.9112 92.5964 67.9112 92.5528 67.9112C92.5092 67.9112 92.4657 67.9112 92.4221 67.9112C92.3785 67.9112 92.335 67.9112 92.2914 67.9112C92.2479 67.9112 92.2043 67.9112 92.1607 67.9112C92.1172 67.9112 92.0736 67.9112 92.03 67.9112C91.9865 67.9112 91.9429 67.9112 91.8993 67.9112C91.8558 67.9112 91.8122 67.9112 91.7686 67.9112C91.7251 67.9112 91.6815 67.9112 91.6379 67.9112C91.5944 67.9112 91.5508 67.9112 91.5073 67.9112C91.4637 67.9112 91.4201 67.9112 91.3766 67.9112C91.333 67.9112 91.2894 67.9112 91.2459 67.9112C91.2023 67.9112 91.1587 67.9112 91.1152 67.9112C91.0716 67.9112 91.028 67.9112 90.9845 67.9112C90.9409 67.9112 90.8973 67.9112 90.8538 67.9112C90.8102 67.9112 90.7667 67.9112 90.7231 67.9112C90.6795 67.9112 90.636 67.9112 90.5924 67.9112C90.5488 67.9112 90.5053 67.9112 90.4617 67.9112C90.4181 67.9112 90.3746 67.9112 90.331 67.9112C90.2874 67.9112 90.2439 67.9112 90.2003 67.9112C90.1567 67.9112 90.1132 67.9112 90.0696 67.9112C90.0261 67.9112 89.9825 67.9112 89.9389 67.9112C89.8954 67.9112 89.8518 67.9112 89.8082 67.9112C89.7647 67.9112 89.7211 67.9112 89.6775 67.9112C89.634 67.9112 89.5904 67.9112 89.5468 67.9112C89.5033 67.9112 89.4597 67.9112 89.4161 67.9112C89.3726 67.9112 89.329 67.9112 89.2855 67.9112C89.2419 67.9112 89.1983 67.9112 89.1548 67.9112C89.1112 67.9112 89.0676 67.9112 89.0241 67.9112C88.9805 67.9112 88.9369 67.9112 88.8934 67.9112C88.8498 67.9112 88.8062 67.9112 88.7627 67.9112C88.7191 67.9112 88.6755 67.9112 88.632 67.9112C88.5884 67.9112 88.5449 67.9112 88.5013 67.9112C88.4577 67.9112 88.4142 67.9112 88.3706 67.9112C88.327 67.9112 88.2835 67.9112 88.2399 67.9112C88.1963 67.9112 88.1528 67.9112 88.1092 67.9112C88.0656 67.9112 88.0221 67.9112 87.9785 67.9112C87.9349 67.9112 87.8914 67.9112 87.8478 67.9112C87.8043 67.9112 87.7607 67.9112 87.7171 67.9112C87.6736 67.9112 87.63 67.9112 87.5864 67.9112C87.5429 67.9112 87.4993 67.9112 87.4557 67.9112C87.4122 67.9112 87.3686 67.9112 87.325 67.9112C87.2815 67.9112 87.2379 67.9112 87.1943 67.9112C87.1508 67.9112 87.1072 67.9112 87.0637 67.9112C87.0201 67.9112 86.9765 67.9112 86.933 67.9112C86.8894 67.9112 86.8458 67.9112 86.8023 67.9112C86.7587 67.9112 86.7151 67.9112 86.6716 67.9112C86.628 67.9112 86.5844 67.9112 86.5409 67.9112C86.4973 67.9112 86.4538 67.9112 86.4102 67.9112C86.3666 67.9112 86.3231 67.9112 86.2795 67.9112C86.2359 67.9112 86.1924 67.9112 86.1488 67.9112C86.1052 67.9112 86.0617 67.9112 86.0181 67.9112C85.9745 67.9112 85.931 67.9112 85.8874 67.9112C85.8438 67.9112 85.8003 67.9112 85.7567 67.9112C85.7132 67.9112 85.6696 67.9112 85.626 67.9112C85.5825 67.9112 85.5389 67.9112 85.4953 67.9112C85.4518 67.9112 85.4082 67.9112 85.3646 67.9112C85.3211 67.9112 85.2775 67.9112 85.2339 67.9112C85.1904 67.9112 85.1468 67.9112 85.1032 67.9112C85.0597 67.9112 85.0161 67.9112 84.9725 67.9112C84.929 67.9112 84.8854 67.9112 84.8419 67.9112C84.7983 67.9112 84.7547 67.9112 84.7112 67.9112C84.6676 67.9112 84.624 67.9112 84.5805 67.9112C84.5369 67.9112 84.4933 67.9112 84.4498 67.9112C84.4062 67.9112 84.3626 67.9112 84.3191 67.9112C84.2755 67.9112 84.2319 67.9112 84.1884 67.9112C84.1448 67.9112 84.1013 67.9112 84.0577 67.9112C84.0141 67.9112 83.9706 67.9112 83.927 67.9112C83.8834 67.9112 83.8399 67.9112 83.7963 67.9112C83.7527 67.9112 83.7092 67.9112 83.6656 67.9112C83.622 67.9112 83.5785 67.9112 83.5349 67.9112C83.4914 67.9112 83.4478 67.9112 83.4042 67.9112C83.3607 67.9112 83.3171 67.9112 83.2735 67.9112C83.23 67.9112 83.1864 67.9112 83.1428 67.9112C83.0993 67.9112 83.0557 67.9112 83.0121 67.9112C82.9686 67.9112 82.925 67.9112 82.8814 67.9112C82.8379 67.9112 82.7943 67.9112 82.7508 67.9112C82.7072 67.9112 82.6636 67.9112 82.6201 67.9112C82.5765 67.9112 82.5329 67.9112 82.4894 67.9112C82.4458 67.9112 82.4022 67.9112 82.3587 67.9112C82.3151 67.9112 82.2715 67.9112 82.228 67.9112C82.1844 67.9112 82.1408 67.9112 82.0973 67.9112C82.0537 67.9112 82.0102 67.9112 81.9666 67.9112C81.923 67.9112 81.8795 67.9112 81.8359 67.9112C81.7923 67.9112 81.7488 67.9112 81.7052 67.9112C81.6616 67.9112 81.6181 67.9112 81.5745 67.9112C81.5309 67.9112 81.4874 67.9112 81.4438 67.9112C81.4002 67.9112 81.3567 67.9112 81.3131 67.9112C81.2696 67.9112 81.226 67.9112 81.1824 67.9112C81.1389 67.9112 81.0953 67.9112 81.0517 67.9112C81.0082 67.9112 80.9646 67.9112 80.921 67.9112C80.8775 67.9112 80.8339 67.9112 80.7903 67.9112C80.7468 67.9112 80.7032 67.9112 80.6596 67.9112C80.6161 67.9112 80.5725 67.9112 80.529 67.9112C80.4854 67.9112 80.4418 67.9112 80.3983 67.9112C80.3547 67.9112 80.3111 67.9112 80.2676 67.9112C80.224 67.9112 80.1804 67.9112 80.1369 67.9112C80.0933 67.9112 80.0497 67.9112 80.0062 67.9112C79.9626 67.9112 79.919 67.9112 79.8755 67.9112C79.8319 67.9112 79.7884 67.9112 79.7448 67.9112C79.7012 67.9112 79.6577 67.9112 79.6141 67.9112C79.5705 67.9112 79.527 67.9112 79.4834 67.9112C79.4398 67.9112 79.3963 67.9112 79.3527 67.9112C79.3091 67.9112 79.2656 67.9112 79.222 67.9112C79.1784 67.9112 79.1349 67.9112 79.0913 67.9112C79.0478 67.9112 79.0042 67.9112 78.9606 67.9112C78.9171 67.9112 78.8735 67.9112 78.8299 67.9112C78.7864 67.9112 78.7428 67.9112 78.6992 67.9112C78.6557 67.9112 78.6121 67.9112 78.5685 67.9112C78.525 67.9112 78.4814 67.9112 78.4378 67.9112C78.3943 67.9112 78.3507 67.9112 78.3072 67.9112C78.2636 67.9112 78.22 67.9112 78.1765 67.9112C78.1329 67.9112 78.0893 67.9112 78.0458 67.9112C78.0022 67.9112 77.9586 67.9112 77.9151 67.9112C77.8715 67.9112 77.8279 67.9112 77.7844 67.9112C77.7408 67.9112 77.6973 67.9112 77.6537 67.9112C77.6101 67.9112 77.5666 67.9112 77.523 67.9112C77.4794 67.9112 77.4359 67.9112 77.3923 67.9112C77.3487 67.9112 77.3052 67.9112 77.2616 67.9112C77.218 67.9112 77.1745 67.9112 77.1309 67.9112C77.0873 67.9112 77.0438 67.9112 77.0002 67.9112C76.9566 67.9112 76.9131 67.9112 76.8695 67.9112C76.826 67.9112 76.7824 67.9112 76.7388 67.9112C76.6953 67.9112 76.6517 67.9112 76.6081 67.9112C76.5646 67.9112 76.521 67.9112 76.4774 67.9112C76.4339 67.9112 76.3903 67.9112 76.3467 67.9112C76.3032 67.9112 76.2596 67.9112 76.216 67.9112C76.1725 67.9112 76.1289 67.9112 76.0854 67.9112C76.0418 67.9112 75.9982 67.9112 75.9547 67.9112C75.9111 67.9112 75.8675 67.9112 75.824 67.9112C75.7804 67.9112 75.7368 67.9112 75.6933 67.9112C75.6497 67.9112 75.6061 67.9112 75.5626 67.9112C75.519 67.9112 75.4754 67.9112 75.4319 67.9112C75.3883 67.9112 75.3448 67.9112 75.3012 67.9112C75.2576 67.9112 75.2141 67.9112 75.1705 67.9112C75.1269 67.9112 75.0834 67.9112 75.0398 67.9112C74.9962 67.9112 74.9527 67.9112 74.9091 67.9112C74.8655 67.9112 74.822 67.9112 74.7784 67.9112C74.7349 67.9112 74.6913 67.9112 74.6477 67.9112C74.6042 67.9112 74.5606 67.9112 74.517 67.9112C74.4735 67.9112 74.4299 67.9112 74.3863 67.9112C74.3428 67.9112 74.2992 67.9112 74.2556 67.9112C74.2121 67.9112 74.1685 67.9112 74.1249 67.9112C74.0814 67.9112 74.0378 67.9112 73.9943 67.9112C73.9507 67.9112 73.9071 67.9112 73.8636 67.9112C73.82 67.9112 73.7764 67.9112 73.7329 67.9112C73.6893 67.9112 73.6457 67.9112 73.6022 67.9112C73.5586 67.9112 73.515 67.9112 73.4715 67.9112C73.4279 67.9112 73.3843 67.9112 73.3408 67.9112C73.2972 67.9112 73.2537 67.9112 73.2101 67.9112C73.1665 67.9112 73.123 67.9112 73.0794 67.9112C73.0358 67.9112 72.9923 67.9112 72.9487 67.9112C72.9051 67.9112 72.8616 67.9112 72.818 67.9112C72.7744 67.9112 72.7309 67.9112 72.6873 67.9112C72.6437 67.9112 72.6002 67.9112 72.5566 67.9112C72.5131 67.9112 72.4695 67.9112 72.4259 67.9112C72.3824 67.9112 72.3388 67.9112 72.2952 67.9112C72.2517 67.9112 72.2081 67.9112 72.1645 67.9112C72.121 67.9112 72.0774 67.9112 72.0338 67.9112C71.9903 67.9112 71.9467 67.9112 71.9031 67.9112C71.8596 67.9112 71.816 67.9112 71.7725 67.9112C71.7289 67.9112 71.6853 67.9112 71.6418 67.9112C71.5982 67.9112 71.5546 67.9112 71.5111 67.9112C71.4675 67.9112 71.4239 67.9112 71.3804 67.9112C71.3368 67.9112 71.2932 67.9112 71.2497 67.9112C71.2061 67.9112 71.1625 67.9112 71.119 67.9112C71.0754 67.9112 71.0319 67.9112 70.9883 67.9112C70.9447 67.9112 70.9012 67.9112 70.8576 67.9112C70.814 67.9112 70.7705 67.9112 70.7269 67.9112C70.6833 67.9112 70.6398 67.9112 70.5962 67.9112C70.5526 67.9112 70.5091 67.9112 70.4655 67.9112C70.4219 67.9112 70.3784 67.9112 70.3348 67.9112C70.2913 67.9112 70.2477 67.9112 70.2041 67.9112C70.1606 67.9112 70.117 67.9112 70.0734 67.9112C70.0299 67.9112 69.9863 67.9112 69.9427 67.9112C69.8992 67.9112 69.8556 67.9112 69.812 67.9112C69.7685 67.9112 69.7249 67.9112 69.6813 67.9112C69.6378 67.9112 69.5942 67.9112 69.5507 67.9112C69.5071 67.9112 69.4635 67.9112 69.42 67.9112C69.3764 67.9112 69.3328 67.9112 69.2893 67.9112C69.2457 67.9112 69.2021 67.9112 69.1586 67.9112C69.115 67.9112 69.0714 67.9112 69.0279 67.9112C68.9843 67.9112 68.9407 67.9112 68.8972 67.9112C68.8536 67.9112 68.8101 67.9112 68.7665 67.9112C68.7229 67.9112 68.6794 67.9112 68.6358 67.9112C68.5922 67.9112 68.5487 67.9112 68.5051 67.9112C68.4615 67.9112 68.418 67.9112 68.3744 67.9112C68.3308 67.9112 68.2873 67.9112 68.2437 67.9112C68.2001 67.9112 68.1566 67.9112 68.113 67.9112C68.0695 67.9112 68.0259 67.9112 67.9823 67.9112C67.9388 67.9112 67.8952 67.9112 67.8516 67.9112C67.8081 67.9112 67.7645 67.9112 67.7209 67.9112C67.6774 67.9112 67.6338 67.9112 67.5902 67.9112C67.5467 67.9112 67.5031 67.9112 67.4595 67.9112C67.416 67.9112 67.3724 67.9112 67.3289 67.9112C67.2853 67.9112 67.2417 67.9112 67.1982 67.9112C67.1546 67.9112 67.111 67.9112 67.0675 67.9112C67.0239 67.9112 66.9803 67.9112 66.9368 67.9112C66.8932 67.9112 66.8496 67.9112 66.8061 67.9112C66.7625 67.9112 66.7189 67.9112 66.6754 67.9112C66.6318 67.9112 66.5883 67.9112 66.5447 67.9112C66.5011 67.9112 66.4576 67.9112 66.414 67.9112C66.3704 67.9112 66.3269 67.9112 66.2833 67.9112C66.2397 67.9112 66.1962 67.9112 66.1526 67.9112C66.109 67.9112 66.0655 67.9112 66.0219 67.9112C65.9783 67.9112 65.9348 67.9112 65.8912 67.9112C65.8477 67.9112 65.8041 67.9112 65.7605 67.9112C65.717 67.9112 65.6734 67.9112 65.6298 67.9112C65.5863 67.9112 65.5427 67.9112 65.4991 67.9112C65.4556 67.9112 65.412 67.9112 65.3684 67.9112C65.3249 67.9112 65.2813 67.9112 65.2378 67.9112C65.1942 67.9112 65.1506 67.9112 65.1071 67.9112C65.0635 67.9112 65.0199 67.9112 64.9764 67.9112C64.9328 67.9112 64.8892 67.9112 64.8457 67.9112C64.8021 67.9112 64.7585 67.9112 64.715 67.9112C64.6714 67.9112 64.6278 67.9112 64.5843 67.9112C64.5407 67.9112 64.4972 67.9112 64.4536 67.9112C64.41 67.9112 64.3665 67.9112 64.3229 67.9112C64.2793 67.9112 64.2358 67.9112 64.1922 67.9112C64.1486 67.9112 64.1051 67.9112 64.0615 67.9112C64.0179 67.9112 63.9744 67.9112 63.9308 67.9112C63.8872 67.9112 63.8437 67.9112 63.8001 67.9112C63.7566 67.9112 63.713 67.9112 63.6694 67.9112C63.6259 67.9112 63.5823 67.9112 63.5387 67.9112C63.4952 67.9112 63.4516 67.9112 63.408 67.9112C63.3645 67.9112 63.3209 67.9112 63.2773 67.9112C63.2338 67.9112 63.1902 67.9112 63.1466 67.9112C63.1031 67.9112 63.0595 67.9112 63.016 67.9112C62.9724 67.9112 62.9288 67.9112 62.8853 67.9112C62.8417 67.9112 62.7981 67.9112 62.7546 67.9112C62.711 67.9112 62.6674 67.9112 62.6239 67.9112C62.5803 67.9112 62.5367 67.9112 62.4932 67.9112C62.4496 67.9112 62.406 67.9112 62.3625 67.9112C62.3189 67.9112 62.2754 67.9112 62.2318 67.9112C62.1882 67.9112 62.1447 67.9112 62.1011 67.9112C62.0575 67.9112 62.014 67.9112 61.9704 67.9112C61.9268 67.9112 61.8833 67.9112 61.8397 67.9112C61.7961 67.9112 61.7526 67.9112 61.709 67.9112C61.6654 67.9112 61.6219 67.9112 61.5783 67.9112C61.5348 67.9112 61.4912 67.9112 61.4476 67.9112C61.4041 67.9112 61.3605 67.9112 61.3169 67.9112C61.2734 67.9112 61.2298 67.9112 61.1862 67.9112C61.1427 67.9112 61.0991 67.9112 61.0555 67.9112C61.012 67.9112 60.9684 67.9112 60.9248 67.9112C60.8813 67.9112 60.8377 67.9112 60.7942 67.9112C60.7506 67.9112 60.707 67.9112 60.6635 67.9112C60.6199 67.9112 60.5763 67.9112 60.5328 67.9112C60.4892 67.9112 60.4456 67.9112 60.4021 67.9112C60.3585 67.9112 60.3149 67.9112 60.2714 67.9112C60.2278 67.9112 60.1842 67.9112 60.1407 67.9112C60.0971 67.9112 60.0536 67.9112 60.01 67.9112C59.9664 67.9112 59.9229 67.9112 59.8793 67.9112C59.8357 67.9112 59.7922 67.9112 59.7486 67.9112C59.705 67.9112 59.6615 67.9112 59.6179 67.9112C59.5743 67.9112 59.5308 67.9112 59.4872 67.9112C59.4436 67.9112 59.4001 67.9112 59.3565 67.9112C59.313 67.9112 59.2694 67.9112 59.2258 67.9112C59.1823 67.9112 59.1387 67.9112 59.0951 67.9112C59.0516 67.9112 59.008 67.9112 58.9644 67.9112C58.9209 67.9112 58.8773 67.9112 58.8337 67.9112C58.7902 67.9112 58.7466 67.9112 58.703 67.9112C58.6595 67.9112 58.6159 67.9112 58.5724 67.9112C58.5288 67.9112 58.4852 67.9112 58.4417 67.9112C58.3981 67.9112 58.3545 67.9112 58.311 67.9112C58.2674 67.9112 58.2238 67.9112 58.1803 67.9112C58.1367 67.9112 58.0931 67.9112 58.0496 67.9112C58.006 67.9112 57.9624 67.9112 57.9189 67.9112C57.8753 67.9112 57.8318 67.9112 57.7882 67.9112C57.7446 67.9112 57.7011 67.9112 57.6575 67.9112C57.6139 67.9112 57.5704 67.9112 57.5268 67.9112C57.4832 67.9112 57.4397 67.9112 57.3961 67.9112C57.3525 67.9112 57.309 67.9112 57.2654 67.9112C57.2218 67.9112 57.1783 67.9112 57.1347 67.9112C57.0912 67.9112 57.0476 67.9112 57.004 67.9112C56.9605 67.9112 56.9169 67.9112 56.8733 67.9112C56.8298 67.9112 56.7862 67.9112 56.7426 67.9112C56.6991 67.9112 56.6555 67.9112 56.6119 67.9112C56.5684 67.9112 56.5248 67.9112 56.4813 67.9112C56.4377 67.9112 56.3941 67.9112 56.3506 67.9112C56.307 67.9112 56.2634 67.9112 56.2199 67.9112C56.1763 67.9112 56.1327 67.9112 56.0892 67.9112C56.0456 67.9112 56.002 67.9112 55.9585 67.9112C55.9149 67.9112 55.8713 67.9112 55.8278 67.9112C55.7842 67.9112 55.7407 67.9112 55.6971 67.9112C55.6535 67.9112 55.61 67.9112 55.5664 67.9112C55.5228 67.9112 55.4793 67.9112 55.4357 67.9112C55.3921 67.9112 55.3486 67.9112 55.305 67.9112C55.2614 67.9112 55.2179 67.9112 55.1743 67.9112C55.1307 67.9112 55.0872 67.9112 55.0436 67.9112C55.0001 67.9112 54.9565 67.9112 54.9129 67.9112C54.8694 67.9112 54.8258 67.9112 54.7822 67.9112C54.7387 67.9112 54.6951 67.9112 54.6515 67.9112C54.608 67.9112 54.5644 67.9112 54.5208 67.9112C54.4773 67.9112 54.4337 67.9112 54.3901 67.9112C54.3466 67.9112 54.303 67.9112 54.2595 67.9112C54.2159 67.9112 54.1723 67.9112 54.1288 67.9112C54.0852 67.9112 54.0416 67.9112 53.9981 67.9112C53.9545 67.9112 53.9109 67.9112 53.8674 67.9112C53.8238 67.9112 53.7802 67.9112 53.7367 67.9112C53.6931 67.9112 53.6495 67.9112 53.606 67.9112C53.5624 67.9112 53.5189 67.9112 53.4753 67.9112C53.4317 67.9112 53.3882 67.9112 53.3446 67.9112C53.301 67.9112 53.2575 67.9112 53.2139 67.9112C53.1703 67.9112 53.1268 67.9112 53.0832 67.9112C53.0396 67.9112 52.9961 67.9112 52.9525 67.9112C52.9089 67.9112 52.8654 67.9112 52.8218 67.9112C52.7783 67.9112 52.7347 67.9112 52.6911 67.9112C52.6476 67.9112 52.604 67.9112 52.5604 67.9112V72.9112Z" fill="white" fill-opacity="0.6"/>
<circle cx="133.5" cy="22" r="22" fill="#212121"/>
<path fill-rule="evenodd" clip-rule="evenodd" d="M124.65 15.3495C123.904 14.604 123.904 13.3954 124.65 12.6499C125.395 11.9045 126.604 11.9045 127.349 12.6499L134 19.3001L140.65 12.6499C141.395 11.9045 142.604 11.9045 143.349 12.6499C144.095 13.3954 144.095 14.604 143.349 15.3495L136.699 21.9997L143.349 28.6499C144.095 29.3954 144.095 30.604 143.349 31.3495C142.604 32.0949 141.395 32.0949 140.65 31.3495L134 24.6992L127.349 31.3495C126.604 32.0949 125.395 32.0949 124.65 31.3495C123.904 30.604 123.904 29.3954 124.65 28.6499L131.3 21.9997L124.65 15.3495Z" fill="white" fill-opacity="0.6"/>
</svg>
