<svg width="64" height="64" viewBox="0 0 64 64" fill="none" xmlns="http://www.w3.org/2000/svg">
<path fill-rule="evenodd" clip-rule="evenodd" d="M32 58.6667C46.7276 58.6667 58.6667 46.7276 58.6667 32C58.6667 17.2724 46.7276 5.33333 32 5.33333C17.2724 5.33333 5.33333 17.2724 5.33333 32C5.33333 46.7276 17.2724 58.6667 32 58.6667ZM32 64C49.6731 64 64 49.6731 64 32C64 14.3269 49.6731 0 32 0C14.3269 0 0 14.3269 0 32C0 49.6731 14.3269 64 32 64Z" fill="#C4C4C4"/>
<path d="M40.9518 41.3653C39.9796 41.3506 39.0281 41.0818 38.1918 40.5857C37.3556 40.0897 36.6636 39.3835 36.1846 38.5373C36.0962 38.3835 36.0389 38.2137 36.0161 38.0377C35.9933 37.8617 36.0054 37.683 36.0516 37.5117C36.1451 37.1657 36.3721 36.871 36.6829 36.6924C36.9936 36.5138 37.3625 36.466 37.7085 36.5594C38.0545 36.6529 38.3492 36.8799 38.5278 37.1907C38.7827 37.6086 39.1407 37.954 39.5676 38.1937C39.9944 38.4333 40.4757 38.5592 40.9652 38.5592C41.4548 38.5592 41.9361 38.4333 42.3629 38.1937C42.7898 37.954 43.1478 37.6086 43.4027 37.1907C43.5813 36.8799 43.876 36.6529 44.222 36.5594C44.568 36.466 44.9369 36.5138 45.2476 36.6924C45.5584 36.871 45.7854 37.1657 45.8789 37.5117C45.9723 37.8577 45.9245 38.2266 45.7459 38.5373C45.2667 39.3892 44.571 40.0994 43.7291 40.596C42.8873 41.0926 41.9292 41.358 40.9518 41.3653Z" fill="#C4C4C4"/>
<path d="M22.0992 41.3653C21.127 41.3506 20.1756 41.0818 19.3393 40.5857C18.503 40.0897 17.8111 39.3835 17.3321 38.5373C17.1535 38.2266 17.1056 37.8577 17.1991 37.5117C17.2925 37.1657 17.5196 36.871 17.8303 36.6924C18.141 36.5138 18.51 36.466 18.856 36.5594C19.202 36.6529 19.4967 36.8799 19.6752 37.1907C19.9301 37.6086 20.2882 37.954 20.715 38.1937C21.1419 38.4333 21.6232 38.5592 22.1127 38.5592C22.6022 38.5592 23.0835 38.4333 23.5104 38.1937C23.9372 37.954 24.2953 37.6086 24.5502 37.1907C24.7287 36.8799 25.0234 36.6529 25.3694 36.5594C25.7154 36.466 26.0844 36.5138 26.3951 36.6924C26.7058 36.871 26.9329 37.1657 27.0263 37.5117C27.1198 37.8577 27.0719 38.2266 26.8934 38.5373C26.4142 39.3892 25.7184 40.0994 24.8766 40.596C24.0347 41.0926 23.0766 41.358 22.0992 41.3653Z" fill="#C4C4C4"/>
<path d="M33.3017 52.0045H30.6084C30.2512 52.0045 29.9087 51.8626 29.6561 51.6101C29.4036 51.3575 29.2617 51.015 29.2617 50.6578C29.2617 50.3007 29.4036 49.9581 29.6561 49.7056C29.9087 49.453 30.2512 49.3112 30.6084 49.3112H33.3017C33.6589 49.3112 34.0014 49.453 34.2539 49.7056C34.5065 49.9581 34.6484 50.3007 34.6484 50.6578C34.6484 51.015 34.5065 51.3575 34.2539 51.6101C34.0014 51.8626 33.6589 52.0045 33.3017 52.0045Z" fill="#C4C4C4"/>
<path d="M18.7872 29.085C18.1883 29.0821 17.5918 29.0098 17.0096 28.8696C16.6524 28.7874 16.3425 28.5668 16.1481 28.2561C15.9536 27.9455 15.8905 27.5703 15.9727 27.2132C16.0548 26.856 16.2755 26.5461 16.5861 26.3517C16.8967 26.1572 17.2719 26.0941 17.6291 26.1762C18.9324 26.4753 20.301 26.2466 21.4364 25.5402C22.5717 24.8337 23.3815 23.7069 23.689 22.4056C23.7712 22.0484 23.9919 21.7385 24.3025 21.5441C24.4563 21.4478 24.6276 21.3827 24.8065 21.3526C24.9855 21.3225 25.1686 21.328 25.3454 21.3687C25.5223 21.4093 25.6894 21.4844 25.8372 21.5897C25.985 21.6949 26.1107 21.8283 26.207 21.9821C26.3032 22.1359 26.3683 22.3072 26.3984 22.4861C26.4285 22.6651 26.423 22.8482 26.3824 23.0251C25.9832 24.7207 25.0248 26.2326 23.6617 27.3173C22.2986 28.4019 20.61 28.9962 18.868 29.0042L18.7872 29.085Z" fill="#C4C4C4"/>
<path d="M44.9893 29.0846C43.2539 29.0556 41.5783 28.4455 40.2307 27.3517C38.883 26.258 37.9411 24.7438 37.5557 23.0515C37.4735 22.6944 37.5366 22.3192 37.7311 22.0086C37.9255 21.698 38.2354 21.4773 38.5926 21.3952C38.9498 21.313 39.3249 21.3761 39.6356 21.5706C39.9462 21.765 40.1669 22.0749 40.249 22.4321C40.5565 23.7334 41.3664 24.8602 42.5017 25.5667C43.637 26.2731 45.0057 26.5018 46.309 26.2027C46.4858 26.1621 46.669 26.1566 46.8479 26.1867C47.0269 26.2168 47.1981 26.2819 47.3519 26.3782C47.5057 26.4744 47.6391 26.6001 47.7443 26.7479C47.8496 26.8957 47.9247 27.0628 47.9654 27.2397C48.0061 27.4165 48.0115 27.5996 47.9814 27.7786C47.9513 27.9575 47.8863 28.1288 47.79 28.2826C47.6937 28.4364 47.568 28.5698 47.4202 28.675C47.2724 28.7803 47.1053 28.8554 46.9284 28.8961C46.2925 29.0402 45.641 29.1035 44.9893 29.0846Z" fill="#C4C4C4"/>
</svg>
