<svg width="18" height="18" viewBox="0 0 18 18" fill="none" xmlns="http://www.w3.org/2000/svg">
<path d="M15.8827 4.52335C15.5044 3.65124 14.9591 2.86161 14.2775 2.19902C13.5937 1.53045 12.7875 0.99981 11.903 0.636077C10.9829 0.254381 10.0065 0.0615234 9.00007 0.0615234C7.9936 0.0615234 7.01726 0.254381 6.09717 0.634068C5.20721 1.0017 4.40967 1.52804 3.72261 2.19701C3.04143 2.85997 2.49619 3.64951 2.11748 4.52134C1.72574 5.42536 1.52686 6.38563 1.52686 7.37402C1.52686 8.79233 1.86636 10.2046 2.53333 11.5667C3.06971 12.6615 3.81904 13.7283 4.76324 14.7428C6.37641 16.4745 8.06793 17.5332 8.54806 17.8164C8.68435 17.8969 8.83978 17.9393 8.99806 17.939C9.15476 17.939 9.30944 17.8988 9.44806 17.8164C9.92819 17.5332 11.6197 16.4745 13.2329 14.7428C14.1771 13.7303 14.9264 12.6615 15.4628 11.5667C16.1338 10.2066 16.4733 8.79634 16.4733 7.37603C16.4733 6.38764 16.2744 5.42737 15.8827 4.52335ZM9.00007 16.3981C7.67619 15.5564 2.97328 12.2236 2.97328 7.37603C2.97328 5.81108 3.59806 4.34054 4.73311 3.23161C5.87217 2.12068 7.3869 1.50795 9.00007 1.50795C10.6132 1.50795 12.128 2.12068 13.267 3.23362C14.4021 4.34054 15.0269 5.81108 15.0269 7.37603C15.0269 12.2236 10.324 15.5564 9.00007 16.3981ZM9.00007 3.99902C7.04739 3.99902 5.46436 5.58206 5.46436 7.53474C5.46436 9.48742 7.04739 11.0705 9.00007 11.0705C10.9527 11.0705 12.5358 9.48742 12.5358 7.53474C12.5358 5.58206 10.9527 3.99902 9.00007 3.99902ZM10.5911 9.12581C10.3825 9.33509 10.1345 9.50105 9.8614 9.61413C9.58834 9.72722 9.29562 9.7852 9.00007 9.78474C8.3994 9.78474 7.83489 9.54969 7.409 9.12581C7.19972 8.91713 7.03376 8.66912 6.92067 8.39606C6.80759 8.12301 6.74961 7.83029 6.75007 7.53474C6.75007 6.93407 6.98511 6.36956 7.409 5.94367C7.83489 5.51777 8.3994 5.28474 9.00007 5.28474C9.60074 5.28474 10.1652 5.51777 10.5911 5.94367C11.017 6.36956 11.2501 6.93407 11.2501 7.53474C11.2501 8.13541 11.017 8.69992 10.5911 9.12581Z" fill="black" fill-opacity="0.85"/>
</svg>
