<svg width="16" height="16" viewBox="0 0 16 16" fill="none" xmlns="http://www.w3.org/2000/svg">
<g opacity="0.5" clip-path="url(#clip0_1993_12506)">
<path d="M15.1344 0H10.3549L3.45117 10.09H8.23065L15.1344 0Z" fill="url(#paint0_linear_1993_12506)"/>
<path d="M0.794922 0H5.5744L12.4781 10.09H7.69863L0.794922 0Z" fill="url(#paint1_linear_1993_12506)"/>
<path d="M8.23029 4.31665C11.4697 4.31665 14.0719 6.91884 14.0719 10.1583C14.0719 13.3977 11.4697 15.9999 8.23029 15.9999C4.99086 15.9999 2.38867 13.3977 2.38867 10.1583C2.38867 6.91884 4.99086 4.31665 8.23029 4.31665Z" fill="#EFC75E"/>
<path d="M11.7899 9.42578C11.7613 9.28262 11.5612 9.26672 11.5041 9.40033C11.2183 10.0843 10.5069 10.5329 9.72253 10.4406C8.84288 10.3388 8.17917 9.56576 8.21092 8.67817C8.2395 7.88919 8.79207 7.25293 9.50976 7.07477C9.65267 7.03978 9.66537 6.84253 9.52882 6.78845C9.21443 6.67074 8.88098 6.59757 8.53166 6.56894C6.57546 6.42578 4.8479 7.89874 4.68277 9.85526C4.51446 11.8563 6.01972 13.6092 8.02356 13.746C9.98294 13.8797 11.701 12.394 11.8534 10.4374C11.882 10.0939 11.8566 9.75346 11.7899 9.42578Z" fill="#CDA439"/>
<path d="M9.93118 9.66148C10.4293 9.66148 10.8331 9.25839 10.8331 8.76116C10.8331 8.26393 10.4293 7.86084 9.93118 7.86084C9.43308 7.86084 9.0293 8.26393 9.0293 8.76116C9.0293 9.25839 9.43308 9.66148 9.93118 9.66148Z" fill="#CDA439"/>
<rect x="3.20285" y="5.09201" width="10.0889" height="10.0889" rx="5.04447" stroke="#CDA439" stroke-width="0.643975"/>
</g>
<defs>
<linearGradient id="paint0_linear_1993_12506" x1="15.1344" y1="5.52046" x2="3.45115" y2="5.55061" gradientUnits="userSpaceOnUse">
<stop stop-color="#00AAE4"/>
<stop offset="1" stop-color="#8255BE"/>
</linearGradient>
<linearGradient id="paint1_linear_1993_12506" x1="12.4781" y1="5.52046" x2="0.794898" y2="5.55061" gradientUnits="userSpaceOnUse">
<stop stop-color="#00AAE4"/>
<stop offset="1" stop-color="#8255BE"/>
</linearGradient>
<clipPath id="clip0_1993_12506">
<rect width="16" height="16" fill="white"/>
</clipPath>
</defs>
</svg>
