<svg width="207" height="202" viewBox="0 0 207 202" fill="none" xmlns="http://www.w3.org/2000/svg">
<path opacity="0.1" d="M27.0695 108.15C27.0695 155.728 65.601 194.296 113.131 194.296C160.661 194.296 199.193 155.728 199.193 108.15C199.193 60.5729 160.661 22.0043 113.131 22.0043C65.601 22.0043 27.0695 60.5729 27.0695 108.15Z" stroke="url(#paint0_linear_6381_29523)" stroke-width="0.754778"/>
<path opacity="0.05" d="M20.0992 108.151C20.0992 159.581 61.7512 201.273 113.131 201.273C164.51 201.273 206.162 159.581 206.162 108.151C206.162 56.7201 164.51 15.0281 113.131 15.0281C61.7512 15.0281 20.0992 56.7201 20.0992 108.151Z" stroke="url(#paint1_linear_6381_29523)" stroke-width="0.815905"/>
<g clip-path="url(#clip0_6381_29523)">
<path d="M113.128 188.211C68.8515 188.211 32.958 152.283 32.958 107.963C32.958 63.6428 68.8515 27.7144 113.128 27.7144C157.405 27.7144 193.299 63.6428 193.299 107.963C193.299 152.283 157.405 188.211 113.128 188.211Z" fill="white"/>
<path opacity="0.1" d="M113.128 188.211C68.8515 188.211 32.958 152.283 32.958 107.963C32.958 63.6428 68.8515 27.7144 113.128 27.7144C157.405 27.7144 193.299 63.6428 193.299 107.963C193.299 152.283 157.405 188.211 113.128 188.211Z" fill="url(#paint2_linear_6381_29523)"/>
<path opacity="0.1" d="M33.308 107.963C33.308 152.09 69.0452 187.861 113.128 187.861C157.212 187.861 192.949 152.09 192.949 107.963C192.949 63.8358 157.212 28.0644 113.128 28.0644C69.0452 28.0644 33.308 63.8358 33.308 107.963Z" stroke="url(#paint3_linear_6381_29523)" stroke-width="0.70004"/>
<path opacity="0.1" d="M33.308 108.151C33.308 152.278 69.0452 188.049 113.128 188.049C157.212 188.049 192.949 152.278 192.949 108.151C192.949 64.0238 157.212 28.2524 113.128 28.2524C69.0452 28.2524 33.308 64.0238 33.308 108.151Z" stroke="url(#paint4_linear_6381_29523)" stroke-width="0.70004"/>
</g>
<mask id="mask0_6381_29523" style="mask-type:alpha" maskUnits="userSpaceOnUse" x="0" y="0" width="205" height="189">
<path fill-rule="evenodd" clip-rule="evenodd" d="M205 0H0V132H36.6196C46.824 164.577 77.2203 188.211 113.131 188.211C149.042 188.211 179.439 164.577 189.643 132H205V0Z" fill="#C4C4C4"/>
</mask>
<g mask="url(#mask0_6381_29523)">
<path d="M25.901 184.333C28.9172 179.878 31.4552 175.792 33.1104 172.515C41.6808 155.32 54.187 119.385 61.2126 105.063C68.2381 90.7402 83.6133 75.6445 83.6133 75.6445L96.8552 115.63L98.8047 166.808C98.8047 166.808 95.4207 172.146 89.5722 184.886C83.7237 197.662 78.7948 198.951 70.0772 207.272C68.0174 209.26 65.884 211.8 63.7874 214.562C48.6328 207.934 35.5749 197.441 25.901 184.333Z" fill="#F7DAC1"/>
<path d="M150.301 59.8494C150.301 59.8494 156.481 58.1558 159.019 59.8494C161.52 61.5431 160.968 72.5519 152.472 74.2087L150.301 59.8494Z" fill="#F5C9AA"/>
<path d="M151.845 80.763C155.67 78.2961 157.767 78.112 158.907 80.0634C160.047 82.0148 164.939 89.7836 152.139 97.1841C139.339 104.585 145.886 92.6186 145.886 92.6186L151.845 80.763Z" fill="#F5C9AA"/>
<path d="M149.601 103.333C149.601 103.333 154.566 101.639 157.141 103.039C159.716 104.438 161.298 114.673 151.697 117.84C142.134 121.006 146.106 111.175 146.106 111.175L149.601 103.333Z" fill="#F5C9AA"/>
<path d="M151.181 123.289C151.181 123.289 154.675 122.626 155.669 124.356C156.662 126.087 155.889 130.616 152.174 134.003C148.459 137.39 148.054 128.149 148.054 128.149L151.181 123.289Z" fill="#F5C9AA"/>
<path d="M80.4487 103.222C80.4487 103.222 79.0142 113.679 73.4232 118.465C67.8322 123.252 56.0616 136.433 54.7375 140.851L64.7056 138.752L76.9175 127.817L85.2305 114.268L80.4487 103.222Z" fill="#D8A988"/>
<path d="M75.4789 153.111C75.4789 153.111 77.0238 158.708 77.3181 164.304C77.6123 169.901 72.3892 188.273 72.3892 188.273C72.3892 188.273 83.7551 168.759 83.608 155.873C83.4608 142.986 75.4789 153.111 75.4789 153.111Z" fill="#D8A988"/>
<path d="M152.544 56.9042V32.1988C152.544 26.5655 147.983 22 142.355 22H89.6452C84.0174 22 79.4564 26.5655 79.4564 32.1988V42.4712C79.1253 42.6185 78.9414 42.9499 78.9414 43.3181V47.3681C78.9414 47.7363 79.1621 48.0677 79.4564 48.2149V52.5596C79.1253 52.7068 78.9414 53.0382 78.9414 53.4064V62.5006C78.9414 62.8688 79.1621 63.2002 79.4564 63.3475V66.4402C79.1253 66.5875 78.9414 66.9189 78.9414 67.2871V76.3813C78.9414 76.7495 79.1621 77.0808 79.4564 77.2281V160.218C79.4564 165.851 84.0174 170.416 89.6452 170.416H142.355C147.983 170.416 152.544 165.851 152.544 160.218V73.8776C152.875 73.7303 153.059 73.399 153.059 73.0308V57.7142C153.059 57.346 152.838 57.0514 152.544 56.9042Z" fill="#0B080F"/>
<path d="M149.601 160.217C149.601 164.231 146.364 167.471 142.355 167.471H89.6447C85.6353 167.471 82.3984 164.231 82.3984 160.217V32.1986C82.3984 28.1854 85.6353 24.9453 89.6447 24.9453H99.0243L99.8335 27.6331C100.312 29.2163 101.783 30.3208 103.438 30.3208H128.524C130.179 30.3208 131.651 29.2163 132.129 27.6331L132.938 24.9453H142.318C146.327 24.9453 149.564 28.1854 149.564 32.1986V160.217H149.601Z" fill="white"/>
<g filter="url(#filter0_d_6381_29523)">
<rect x="87" y="34" width="59" height="19" rx="5" fill="white"/>
</g>
<rect x="106" y="38" width="25" height="2" rx="1" fill="#DFDFDF"/>
<rect x="106" y="42" width="35" height="3" rx="1.5" fill="#DFDFDF"/>
<rect x="106" y="46" width="35" height="3" rx="1.5" fill="#DFDFDF"/>
<g clip-path="url(#clip1_6381_29523)">
<path d="M101.565 35H92.4354C90.5381 35 89 36.5262 89 38.4088V47.5912C89 49.4738 90.5381 51 92.4354 51H101.565C103.462 51 105 49.4738 105 47.5912V38.4088C105 36.5262 103.462 35 101.565 35Z" fill="white"/>
<path d="M102.857 41.7391C102.808 41.5012 102.48 41.4748 102.386 41.6991C101.916 42.8265 100.741 43.5666 99.4488 43.4162C97.9967 43.2474 96.9005 41.9712 96.9532 40.5104C96.9998 39.2093 97.9098 38.1599 99.0963 37.8653C99.3317 37.8071 99.355 37.4798 99.1277 37.3949C98.5984 37.1971 98.0435 37.0759 97.4799 37.035C94.2498 36.7981 91.4008 39.2313 91.1305 42.4587C90.8535 45.7633 93.3354 48.6528 96.6442 48.8779C99.8751 49.0976 102.71 46.6489 102.964 43.4206C103.008 42.8579 102.973 42.2917 102.857 41.7391Z" fill="url(#paint5_radial_6381_29523)"/>
<path d="M100.844 41.6925C101.425 41.1121 101.425 40.1711 100.844 39.5907C100.264 39.0102 99.3228 39.0102 98.7424 39.5907C98.1619 40.1711 98.1619 41.1121 98.7424 41.6925C99.3228 42.273 100.264 42.273 100.844 41.6925Z" fill="url(#paint6_linear_6381_29523)"/>
<g style="mix-blend-mode:multiply" opacity="0.12">
<path d="M94.8127 39.5024C94.6716 42.639 97.0222 45.3762 100.144 45.7108C100.904 45.7933 101.672 45.7293 102.408 45.5222C102.422 45.5182 102.435 45.5113 102.446 45.5019C102.457 45.4925 102.465 45.4808 102.471 45.4676C102.996 44.309 103.139 43.0138 102.88 41.7686C102.83 41.5289 102.501 41.501 102.407 41.7267C102.154 42.3316 101.701 42.8309 101.123 43.1404C100.545 43.4499 99.8786 43.5506 99.2351 43.4256C97.9441 43.1807 96.9815 42.0591 96.9338 40.7461C96.9075 40.0911 97.1079 39.4471 97.5012 38.9228C97.8946 38.3984 98.4567 38.0258 99.0928 37.8677C99.3306 37.8087 99.3523 37.4795 99.1229 37.3936C97.9311 36.9495 96.6292 36.8953 95.4046 37.2387C95.3907 37.2426 95.3778 37.2495 95.3668 37.2589C95.3558 37.2684 95.3471 37.2801 95.3411 37.2932C95.0253 37.9891 94.8459 38.739 94.8127 39.5024Z" fill="#3680B2"/>
</g>
<g style="mix-blend-mode:lighten" opacity="0.18">
<path d="M96.5899 48.8747C98.6311 49.0298 100.509 48.131 101.689 46.6373C100.666 47.22 99.4912 47.4827 98.3169 47.3916C95.0551 47.1438 92.6118 44.2986 92.8597 41.0368C92.947 39.8622 93.3842 38.7407 94.1148 37.8169C92.4599 38.7581 91.2873 40.4787 91.1325 42.5199C90.8847 45.7817 93.328 48.6269 96.5899 48.8747Z" fill="#F769ED"/>
</g>
</g>
<path d="M50.3966 143.317C50.3966 143.317 74.5998 119.532 83.6852 118.465C92.8073 117.397 115.797 115.593 116.716 124.834C117.636 134.076 103.842 139.157 89.9382 140.445C89.9382 140.445 77.5792 150.202 77.4688 157.897C77.3217 165.593 58.7463 159.996 58.7463 159.996L50.3966 143.317Z" fill="#F7DAC1"/>
<path d="M133.323 104.87H128.115V87.9132C128.115 86.8754 127.703 85.88 126.97 85.1462C126.238 84.4124 125.244 84 124.208 84H107.281C106.245 84 105.252 84.4124 104.519 85.1462C103.787 85.88 103.375 86.8753 103.375 87.9132V107.478C103.375 109.208 104.061 110.867 105.282 112.09C106.503 113.313 108.159 114 109.885 114H128.115C129.841 114 131.497 113.313 132.718 112.09C133.939 110.867 134.625 109.208 134.625 107.478V106.174C134.625 105.828 134.488 105.496 134.244 105.252C133.999 105.007 133.668 104.87 133.323 104.87L133.323 104.87ZM105.979 107.478V87.9133C105.979 87.5673 106.116 87.2355 106.361 86.991C106.605 86.7462 106.936 86.6088 107.281 86.6088H124.208C124.553 86.6088 124.885 86.7462 125.129 86.991C125.373 87.2355 125.51 87.5673 125.51 87.9133V104.87H115.093C114.748 104.87 114.417 105.007 114.173 105.252C113.929 105.496 113.791 105.828 113.791 106.174V107.478C113.791 108.876 113.047 110.168 111.838 110.867C110.63 111.566 109.14 111.566 107.932 110.867C106.723 110.168 105.979 108.876 105.979 107.478L105.979 107.478ZM128.114 111.391H115.061C115.923 110.269 116.391 108.894 116.396 107.478H132.021C132.021 108.516 131.609 109.511 130.877 110.245C130.144 110.979 129.15 111.391 128.115 111.391L128.114 111.391Z" fill="#B3B3B3"/>
<path d="M109.886 91.8264H121.605C122.07 91.8264 122.5 91.5778 122.732 91.1743C122.965 90.7706 122.965 90.2734 122.732 89.8699C122.5 89.4664 122.07 89.2178 121.605 89.2178H109.886C109.421 89.2178 108.991 89.4664 108.758 89.8699C108.526 90.2734 108.526 90.7706 108.758 91.1743C108.991 91.5779 109.421 91.8264 109.886 91.8264Z" fill="#B3B3B3"/>
<path d="M109.886 97.0435H121.605C122.07 97.0435 122.5 96.7949 122.732 96.3914C122.965 95.9879 122.965 95.4906 122.732 95.0872C122.5 94.6837 122.07 94.4351 121.605 94.4351H109.886C109.421 94.4351 108.991 94.6837 108.758 95.0872C108.526 95.4907 108.526 95.9879 108.758 96.3914C108.991 96.7949 109.421 97.0435 109.886 97.0435Z" fill="#B3B3B3"/>
<path d="M121.605 102.261C122.07 102.261 122.5 102.012 122.732 101.609C122.965 101.205 122.965 100.708 122.732 100.304C122.5 99.9009 122.07 99.6523 121.605 99.6523H109.886C109.421 99.6523 108.991 99.901 108.758 100.304C108.526 100.708 108.526 101.205 108.758 101.609C108.991 102.012 109.421 102.261 109.886 102.261H121.605Z" fill="#B3B3B3"/>
</g>
<defs>
<filter id="filter0_d_6381_29523" x="84" y="31" width="65" height="25" filterUnits="userSpaceOnUse" color-interpolation-filters="sRGB">
<feFlood flood-opacity="0" result="BackgroundImageFix"/>
<feColorMatrix in="SourceAlpha" type="matrix" values="0 0 0 0 0 0 0 0 0 0 0 0 0 0 0 0 0 0 127 0" result="hardAlpha"/>
<feOffset/>
<feGaussianBlur stdDeviation="1.5"/>
<feComposite in2="hardAlpha" operator="out"/>
<feColorMatrix type="matrix" values="0 0 0 0 0 0 0 0 0 0 0 0 0 0 0 0 0 0 0.15 0"/>
<feBlend mode="normal" in2="BackgroundImageFix" result="effect1_dropShadow_6381_29523"/>
<feBlend mode="normal" in="SourceGraphic" in2="effect1_dropShadow_6381_29523" result="shape"/>
</filter>
<linearGradient id="paint0_linear_6381_29523" x1="37.9047" y1="187.123" x2="189.128" y2="33.3125" gradientUnits="userSpaceOnUse">
<stop offset="0.0416667" stop-color="#47BAD8"/>
<stop offset="0.34375" stop-color="#6A6CE9"/>
<stop offset="0.609375" stop-color="#9454E6"/>
<stop offset="1" stop-color="#CE57D3"/>
</linearGradient>
<linearGradient id="paint1_linear_6381_29523" x1="31.812" y1="193.519" x2="195.282" y2="27.2521" gradientUnits="userSpaceOnUse">
<stop offset="0.0416667" stop-color="#47BAD8"/>
<stop offset="0.34375" stop-color="#6A6CE9"/>
<stop offset="0.609375" stop-color="#9454E6"/>
<stop offset="1" stop-color="#CE57D3"/>
</linearGradient>
<linearGradient id="paint2_linear_6381_29523" x1="179.124" y1="172.2" x2="76.0635" y2="72.0908" gradientUnits="userSpaceOnUse">
<stop offset="0.01" stop-color="#FF55AA"/>
<stop offset="0.25" stop-color="#B850C9"/>
<stop offset="0.62" stop-color="#6572D6"/>
<stop offset="1" stop-color="#4EAEB8"/>
</linearGradient>
<linearGradient id="paint3_linear_6381_29523" x1="43.3575" y1="181.209" x2="183.614" y2="38.5525" gradientUnits="userSpaceOnUse">
<stop offset="0.0416667" stop-color="#47BAD8"/>
<stop offset="0.34375" stop-color="#6A6CE9"/>
<stop offset="0.609375" stop-color="#9454E6"/>
<stop offset="1" stop-color="#CE57D3"/>
</linearGradient>
<linearGradient id="paint4_linear_6381_29523" x1="43.3575" y1="181.397" x2="183.614" y2="38.7405" gradientUnits="userSpaceOnUse">
<stop offset="0.0416667" stop-color="#47BAD8"/>
<stop offset="0.34375" stop-color="#6A6CE9"/>
<stop offset="0.609375" stop-color="#9454E6"/>
<stop offset="1" stop-color="#CE57D3"/>
</linearGradient>
<radialGradient id="paint5_radial_6381_29523" cx="0" cy="0" r="1" gradientUnits="userSpaceOnUse" gradientTransform="translate(102.179 38.7038) scale(12.3313)">
<stop stop-color="#0EE6A2"/>
<stop offset="0.22" stop-color="#43C1D6"/>
<stop offset="0.66" stop-color="#844EF3"/>
<stop offset="0.94" stop-color="#CD56D2"/>
</radialGradient>
<linearGradient id="paint6_linear_6381_29523" x1="98.8241" y1="41.7051" x2="100.82" y2="39.6106" gradientUnits="userSpaceOnUse">
<stop offset="0.0364583" stop-color="#5CA1DF"/>
<stop offset="0.510417" stop-color="#45C0D7"/>
<stop offset="1" stop-color="#39C9CD"/>
</linearGradient>
<clipPath id="clip0_6381_29523">
<rect width="160.309" height="172.21" fill="white" transform="matrix(-1 0 0 1 193.299 16.0015)"/>
</clipPath>
<clipPath id="clip1_6381_29523">
<rect width="16" height="16" fill="white" transform="translate(89 35)"/>
</clipPath>
</defs>
</svg>
