<svg width="207" height="202" viewBox="0 0 207 202" fill="none" xmlns="http://www.w3.org/2000/svg">
<path opacity="0.1" d="M27.0695 108.15C27.0695 155.728 65.601 194.296 113.131 194.296C160.661 194.296 199.193 155.728 199.193 108.15C199.193 60.5729 160.661 22.0043 113.131 22.0043C65.601 22.0043 27.0695 60.5729 27.0695 108.15Z" stroke="url(#paint0_linear_6425_32954)" stroke-width="0.754778"/>
<path opacity="0.05" d="M20.0992 108.151C20.0992 159.581 61.7512 201.273 113.131 201.273C164.51 201.273 206.162 159.581 206.162 108.151C206.162 56.7201 164.51 15.0281 113.131 15.0281C61.7512 15.0281 20.0992 56.7201 20.0992 108.151Z" stroke="url(#paint1_linear_6425_32954)" stroke-width="0.815905"/>
<g clip-path="url(#clip0_6425_32954)">
<path d="M113.128 188.212C68.8515 188.212 32.958 152.283 32.958 107.963C32.958 63.6433 68.8515 27.7148 113.128 27.7148C157.405 27.7148 193.299 63.6433 193.299 107.963C193.299 152.283 157.405 188.212 113.128 188.212Z" fill="white"/>
<path opacity="0.1" d="M113.128 188.212C68.8515 188.212 32.958 152.283 32.958 107.963C32.958 63.6433 68.8515 27.7148 113.128 27.7148C157.405 27.7148 193.299 63.6433 193.299 107.963C193.299 152.283 157.405 188.212 113.128 188.212Z" fill="url(#paint2_linear_6425_32954)"/>
<path opacity="0.1" d="M33.308 107.963C33.308 152.09 69.0452 187.862 113.128 187.862C157.212 187.862 192.949 152.09 192.949 107.963C192.949 63.8363 157.212 28.0649 113.128 28.0649C69.0452 28.0649 33.308 63.8363 33.308 107.963Z" stroke="url(#paint3_linear_6425_32954)" stroke-width="0.70004"/>
<path opacity="0.1" d="M33.308 108.151C33.308 152.278 69.0452 188.049 113.128 188.049C157.212 188.049 192.949 152.278 192.949 108.151C192.949 64.0238 157.212 28.2524 113.128 28.2524C69.0452 28.2524 33.308 64.0238 33.308 108.151Z" stroke="url(#paint4_linear_6425_32954)" stroke-width="0.70004"/>
</g>
<mask id="mask0_6425_32954" style="mask-type:alpha" maskUnits="userSpaceOnUse" x="0" y="0" width="205" height="189">
<path fill-rule="evenodd" clip-rule="evenodd" d="M205 0H0V132H36.6196C46.824 164.577 77.2203 188.211 113.131 188.211C149.042 188.211 179.439 164.577 189.643 132H205V0Z" fill="#C4C4C4"/>
</mask>
<g mask="url(#mask0_6425_32954)">
<path d="M172.408 195.162C171.873 189.946 171.578 185.267 171.669 181.69C172.24 162.976 178.076 126.356 178.649 110.819C179.223 95.2825 163.163 85.1101 163.163 85.1101L143.175 103.454L112.572 131.557C112.572 131.557 118.342 152.638 117.488 166.272C116.617 179.938 120.254 183.318 123.901 194.482C124.753 197.139 125.413 200.304 125.939 203.642C142.007 204.941 158.057 201.954 172.408 195.162Z" fill="#F7DAC1"/>
<path d="M162.982 100.366C162.982 100.366 159.392 110.005 161.984 116.693C164.577 123.381 168.604 140.126 167.703 144.53L160.113 138.131L154.671 123.111L153.783 107.644L162.982 100.366Z" fill="#D8A988"/>
<path d="M144.24 145.49C144.24 145.49 140.333 149.583 137.499 154.252C134.666 158.921 130.677 177.103 130.677 177.103C130.677 177.103 129.918 155.108 135.988 144.112C142.057 133.116 144.24 145.49 144.24 145.49Z" fill="#D8A988"/>
<path d="M79.9331 79.2904L79.9319 79.2917C79.1283 80.1501 78.6859 80.9997 78.5605 81.8549C78.4357 82.7061 78.6148 83.6308 79.1768 84.6612C80.048 86.2327 81.0488 87.729 82.1688 89.1344L82.1708 89.1368C96.435 107.227 110.72 125.303 125.025 143.363L125.025 143.363C126.064 144.677 127.167 145.942 128.317 147.176C129.382 148.308 130.418 148.923 131.447 149.086C132.466 149.248 133.579 148.98 134.838 148.144C137.185 146.579 139.414 144.84 141.662 143.086C142.182 142.681 142.702 142.275 143.225 141.87M79.9331 79.2904L143.59 142.342M79.9331 79.2904C80.7092 78.4564 81.5439 77.6791 82.4309 76.9642M79.9331 79.2904L153.918 127.581C154.952 126.835 156.05 126.503 157.25 126.664C158.309 126.807 159.391 127.327 160.535 128.172L160.98 127.82L161.008 127.798C166.36 123.565 171.711 119.334 177.046 115.083C178.01 114.31 178.92 113.472 179.771 112.576L179.773 112.574C180.678 111.633 181.15 110.71 181.263 109.788C181.376 108.868 181.14 107.871 180.484 106.762C179.752 105.535 178.939 104.358 178.05 103.239L178.049 103.238C163.335 84.6031 148.608 65.9789 133.868 47.3651C132.979 46.2443 132.02 45.1807 130.997 44.1804C130.123 43.329 129.235 42.8734 128.337 42.75C127.438 42.6267 126.463 42.8268 125.397 43.4061C124.399 43.9498 123.447 44.5748 122.552 45.2748C117.714 49.0622 112.896 52.8734 108.086 56.6775C107.394 57.2245 106.703 57.7714 106.011 58.3181L106.011 58.3183L96.8439 65.56L96.8432 65.5605C92.0392 69.3448 87.226 73.1365 82.4309 76.9642M143.225 141.87C143.225 141.87 143.225 141.87 143.225 141.87L143.59 142.342M143.225 141.87C143.225 141.87 143.225 141.87 143.225 141.87L143.59 142.342M143.225 141.87C145.368 140.209 147.487 138.523 149.6 136.84C150.546 136.087 151.491 135.335 152.437 134.586M143.59 142.342C145.736 140.679 147.861 138.988 149.976 137.304C151.031 136.464 152.084 135.626 153.136 134.794M152.437 134.586C152.48 134.717 152.524 134.851 152.571 134.987L153.136 134.794M152.437 134.586C151.905 132.945 151.675 131.639 151.864 130.532C152.075 129.285 152.796 128.389 153.918 127.581L153.136 134.794M152.437 134.586C152.546 134.499 152.656 134.413 152.765 134.326L153.136 134.794M82.4309 76.9642C82.4307 76.9643 82.4305 76.9644 82.4304 76.9646L82.0579 76.498M82.4309 76.9642C82.4314 76.9637 82.432 76.9633 82.4325 76.9628L82.0579 76.498M82.0579 76.498C81.1482 77.2311 80.2921 78.0283 79.4961 78.8837M82.0579 76.498C86.855 72.6688 91.6699 68.8758 96.4738 65.0915L105.641 57.8498C106.332 57.3033 107.023 56.7565 107.715 56.2096C112.525 52.4054 117.345 48.593 122.184 44.8044C123.105 44.0841 124.085 43.441 125.112 42.8816L79.4961 78.8837M79.4961 78.8837C77.7705 80.7269 77.4325 82.711 78.6536 84.9488C79.5412 86.5501 80.5608 88.0746 81.702 89.5065M79.4961 78.8837L81.702 89.5065M81.702 89.5065C95.9664 107.597 110.251 125.673 124.557 143.734C125.607 145.062 126.722 146.341 127.881 147.584L81.702 89.5065Z" fill="white" stroke="black" stroke-width="1.19401"/>
<rect x="170.17" y="104.782" width="52.238" height="17.9102" rx="3.54435" transform="rotate(141.665 170.17 104.782)" fill="#F2F2F2"/>
<rect x="156.84" y="87.9238" width="52.238" height="3.58203" rx="1.79102" transform="rotate(141.665 156.84 87.9238)" fill="#F2F2F2"/>
<rect x="152.58" y="82.5391" width="25.9697" height="3.58203" rx="1.79102" transform="rotate(141.665 152.58 82.5391)" fill="#F2F2F2"/>
<rect x="138.879" y="65.2119" width="22.0892" height="3.58203" rx="1.79102" transform="rotate(141.665 138.879 65.2119)" fill="#F2F2F2"/>
<rect x="135.732" y="61.2314" width="16.7162" height="3.58203" rx="1.79102" transform="rotate(141.665 135.732 61.2314)" fill="#F2F2F2"/>
<rect x="132.584" y="57.251" width="10.4476" height="3.58203" rx="1.79102" transform="rotate(141.665 132.584 57.251)" fill="#F2F2F2"/>
<rect x="149.062" y="78.0898" width="52.238" height="3.58203" rx="1.79102" transform="rotate(141.665 149.062 78.0898)" fill="#F2F2F2"/>
<path fill-rule="evenodd" clip-rule="evenodd" d="M103.781 95.4457C103.933 95.6375 103.9 95.9159 103.709 96.0675L99.6541 99.2735C99.4624 99.4252 99.1839 99.3926 99.0323 99.2008L95.8263 95.1465C95.6746 94.9547 95.7072 94.6762 95.8989 94.5246L98.4477 92.5092L97.623 91.4662L95.0743 93.4816C94.8825 93.6333 94.6041 93.6007 94.4524 93.4089L92.6204 91.0921C92.4687 90.9003 92.5013 90.6219 92.693 90.4702C92.8848 90.3186 93.1632 90.3511 93.3149 90.5429L94.8723 92.5125L97.4197 90.4982L97.421 90.4971L98.8114 89.3976L97.9866 88.3545L94.8586 90.828C94.6668 90.9796 94.3884 90.9471 94.2368 90.7553L92.2213 88.2066L91.4102 88.8479C91.2184 88.9996 90.94 88.9671 90.7884 88.7753L88.5101 85.8941C88.3585 85.7023 88.391 85.4239 88.5828 85.2723L91.1315 83.2568L90.9364 83.01C90.7847 82.8183 90.8172 82.5398 91.009 82.3882L96.2219 78.2661C96.4137 78.1145 96.6921 78.147 96.8438 78.3388L98.6758 80.6556C98.8274 80.8474 98.7949 81.1258 98.6031 81.2775L97.4447 82.1935C97.2529 82.3452 96.9745 82.3126 96.8228 82.1208C96.6712 81.9291 96.7037 81.6506 96.8955 81.499L97.7066 80.8576L96.4238 79.2353L91.9055 82.8081L95.4783 87.3265L97.6799 85.5856L96.8551 84.5426L95.4796 85.6302C95.2878 85.7819 95.0094 85.7494 94.8577 85.5576L93.0257 83.2408C92.8741 83.049 92.9066 82.7705 93.0984 82.6189L94.8211 81.2566C95.0129 81.1049 95.2914 81.1375 95.443 81.3293L97.0004 83.2988L98.3907 82.1994C98.5825 82.0478 98.8609 82.0803 99.0126 82.2721L100.112 83.6625L103.24 81.189C103.432 81.0374 103.71 81.0699 103.862 81.2617L105.877 83.8105L107.5 82.5276L105.759 80.3261L104.948 80.9675C104.756 81.1192 104.477 81.0867 104.326 80.8949C104.174 80.7031 104.207 80.4247 104.398 80.273L105.557 79.357C105.749 79.2054 106.027 79.2379 106.179 79.4297L108.469 82.3257C108.62 82.5175 108.588 82.7959 108.396 82.9476L106.079 84.7796C105.887 84.9312 105.609 84.8987 105.457 84.7069L104.816 83.8957L103.194 85.1786L104.293 86.5689C104.445 86.7607 104.412 87.0391 104.22 87.1908L103.409 87.8322L104.314 88.9769C104.466 89.1687 104.434 89.4471 104.242 89.5988L102.851 90.6982L104.786 93.1453L105.83 92.3205L104.73 90.9302C104.578 90.7384 104.611 90.46 104.803 90.3084C104.995 90.1567 105.273 90.1892 105.425 90.381L106.799 92.1186C106.95 92.3104 106.918 92.5888 106.726 92.7405L104.988 94.1144C104.797 94.2661 104.518 94.2336 104.367 94.0418L102.54 91.7314L102.534 91.725L100.519 89.1762L98.3175 90.917L99.1422 91.96L99.9533 91.3186C100.145 91.1669 100.424 91.1995 100.575 91.3913L103.781 95.4457ZM102.812 95.6476L100.155 92.2877L96.7954 94.9445L99.4522 98.3044L102.812 95.6476ZM102.302 90.0037L103.345 89.1789L102.44 88.0341C102.288 87.8423 102.321 87.5639 102.513 87.4123L103.324 86.7709L102.499 85.7278L101.688 86.3692L101.685 86.3714L100.529 87.2852C100.338 87.4369 100.059 87.4043 99.9076 87.2125C99.756 87.0207 99.7885 86.7423 99.9803 86.5907L100.791 85.9492L99.9667 84.9062L98.5764 86.0056L98.5709 86.0098L95.6803 88.2956C95.4885 88.4473 95.2101 88.4147 95.0584 88.2229L93.959 86.8325L93.8245 86.9388L92.9159 87.6574L94.6567 89.8589L97.7847 87.3854C97.9765 87.2338 98.2549 87.2663 98.4065 87.4581L99.5059 88.8484L100.317 88.2071C100.509 88.0554 100.787 88.088 100.939 88.2797L102.302 90.0037ZM104.267 83.2012L103.442 82.1582L100.661 84.357L101.486 85.4001L102.294 84.761L102.297 84.7587L104.267 83.2012ZM98.5927 83.1686L99.4175 84.2117L98.3744 85.0365L97.5496 83.9934L98.5927 83.1686ZM95.0231 82.2258L96.3059 83.848L95.2776 84.6611L93.9948 83.0388L95.0231 82.2258ZM92.0642 85.3898C92.2159 85.5816 92.1833 85.86 91.9915 86.0117L91.4123 86.4697C91.2205 86.6213 90.9421 86.5888 90.7905 86.397C90.6388 86.2052 90.6713 85.9268 90.8631 85.7752L91.4424 85.3171C91.6341 85.1655 91.9126 85.198 92.0642 85.3898ZM91.6807 83.9514L93.4098 86.138L93.2753 86.2443L92.0194 87.2374L91.2083 87.8788L89.4792 85.6922L91.6807 83.9514ZM101.824 95.8473C102.016 95.6956 102.048 95.4172 101.897 95.2254L100.355 93.2758C100.203 93.084 99.925 93.0515 99.7332 93.2031L97.7835 94.7448C97.5918 94.8965 97.5592 95.1749 97.7109 95.3667L99.2525 97.3163C99.4042 97.5081 99.6826 97.5406 99.8744 97.389L101.824 95.8473ZM99.9351 94.1723L100.928 95.4274L99.6725 96.4198L98.68 95.1647L99.9351 94.1723ZM113.628 87.6596C113.779 87.8514 113.747 88.1298 113.555 88.2815L109.501 91.4875C109.309 91.6391 109.03 91.6066 108.879 91.4148L105.673 87.3604L106.02 87.0858L105.745 86.7386L109.8 83.5326C109.992 83.3809 110.27 83.4134 110.422 83.6052L113.628 87.6596ZM106.642 87.1585L109.299 90.5184L112.659 87.8615L110.002 84.5017L106.642 87.1585ZM111.671 88.0612C111.862 87.9096 111.895 87.6312 111.743 87.4394L110.202 85.4897C110.05 85.2979 109.771 85.2654 109.58 85.4171L107.63 86.9587C107.438 87.1104 107.406 87.3888 107.557 87.5806L109.099 89.5302C109.251 89.722 109.529 89.7545 109.721 89.6029L111.671 88.0612ZM109.782 86.3862L110.774 87.6413L109.519 88.6338L108.526 87.3787L109.782 86.3862ZM105.842 77.8132C105.993 78.005 105.961 78.2835 105.769 78.4351L101.715 81.6411C101.523 81.7928 101.245 81.7602 101.093 81.5684L97.8869 77.514L98.2342 77.2394L97.9596 76.8921L102.014 73.6862C102.206 73.5345 102.484 73.5671 102.636 73.7588L105.842 77.8132ZM98.856 77.3121L101.513 80.672L104.873 78.0152L102.216 74.6553L98.856 77.3121ZM103.885 78.2149C104.076 78.0632 104.109 77.7848 103.957 77.593L102.416 75.6434C102.264 75.4516 101.986 75.419 101.794 75.5707L99.8441 77.1123C99.6523 77.264 99.6198 77.5424 99.7714 77.7342L101.313 79.6839C101.465 79.8757 101.743 79.9082 101.935 79.7565L103.885 78.2149ZM101.996 76.5398L102.988 77.7949L101.733 78.7874L100.741 77.5323L101.996 76.5398Z" fill="black"/>
<path d="M170.291 148.649C170.291 148.649 160.481 117.067 153.173 111.96C145.833 106.836 126.928 94.6848 121.876 102.195C116.825 109.705 126.324 120.429 137.667 127.948C137.667 127.948 143.778 142.024 140.324 148.682C136.901 155.356 155.43 159.118 155.43 159.118L170.291 148.649Z" fill="#F7DAC1"/>
<path d="M19.4024 178.873C21.9957 175.043 24.1779 171.529 25.601 168.711C32.9697 153.928 43.7224 123.031 49.7628 110.717C55.8033 98.4029 69.0227 85.4238 69.0227 85.4238L80.4078 119.802L82.084 163.805C82.084 163.805 79.1744 168.395 74.146 179.348C69.1176 190.333 64.8798 191.441 57.3845 198.595C55.6135 200.304 53.7792 202.489 51.9766 204.863C38.9469 199.165 27.7199 190.143 19.4024 178.873Z" fill="#F7DAC1"/>
<path d="M126.361 71.8435C126.361 71.8435 131.674 70.3873 133.856 71.8435C136.006 73.2997 135.532 82.7649 128.227 84.1894L126.361 71.8435Z" fill="#F5C9AA"/>
<path d="M127.689 89.8235C130.978 87.7025 132.78 87.5443 133.761 89.222C134.741 90.8998 138.947 97.5793 127.942 103.942C116.936 110.305 122.565 100.017 122.565 100.017L127.689 89.8235Z" fill="#F5C9AA"/>
<path d="M125.758 109.229C125.758 109.229 130.027 107.773 132.241 108.976C134.455 110.179 135.815 118.979 127.56 121.702C119.338 124.424 122.753 115.972 122.753 115.972L125.758 109.229Z" fill="#F5C9AA"/>
<path d="M127.118 126.386C127.118 126.386 130.122 125.817 130.976 127.305C131.83 128.792 131.166 132.686 127.972 135.598C124.777 138.511 124.43 130.565 124.43 130.565L127.118 126.386Z" fill="#F5C9AA"/>
<path d="M66.3028 109.135C66.3028 109.135 65.0694 118.125 60.2623 122.24C55.4553 126.356 45.3351 137.689 44.1966 141.487L52.7671 139.683L63.2667 130.281L70.4141 118.632L66.3028 109.135Z" fill="#D8A988"/>
<path d="M62.0311 152.028C62.0311 152.028 63.3593 156.84 63.6123 161.652C63.8653 166.464 59.3745 182.26 59.3745 182.26C59.3745 182.26 69.1468 165.482 69.0203 154.403C68.8938 143.323 62.0311 152.028 62.0311 152.028Z" fill="#D8A988"/>
<path d="M128.288 61.3109V40.0696C128.288 35.2262 124.367 31.3008 119.528 31.3008H74.2088C69.3702 31.3008 65.4486 35.2262 65.4486 40.0696V48.9016C65.164 49.0283 65.0059 49.3132 65.0059 49.6297V53.1119C65.0059 53.4285 65.1956 53.7134 65.4486 53.84V57.5754C65.164 57.7021 65.0059 57.987 65.0059 58.3035V66.1226C65.0059 66.4392 65.1956 66.7241 65.4486 66.8507V69.5098C65.164 69.6365 65.0059 69.9214 65.0059 70.2379V78.057C65.0059 78.3736 65.1956 78.6585 65.4486 78.7851V150.138C65.4486 154.982 69.3702 158.907 74.2088 158.907H119.528C124.367 158.907 128.288 154.982 128.288 150.138V75.9044C128.573 75.7778 128.731 75.4929 128.731 75.1763V62.0073C128.731 61.6908 128.541 61.4375 128.288 61.3109Z" fill="#0B080F"/>
<path d="M125.758 150.138C125.758 153.588 122.975 156.374 119.528 156.374H74.2087C70.7615 156.374 67.9785 153.588 67.9785 150.138V40.0693C67.9785 36.6188 70.7615 33.833 74.2087 33.833H82.2732L82.969 36.1439C83.3801 37.5051 84.6451 38.4548 86.0682 38.4548H107.637C109.06 38.4548 110.325 37.5051 110.736 36.1439L111.432 33.833H119.496C122.943 33.833 125.726 36.6188 125.726 40.0693V150.138H125.758Z" fill="#A5A5A5"/>
<path d="M40.4654 143.608C40.4654 143.608 61.2749 123.158 69.0864 122.24C76.9295 121.322 96.6953 119.77 97.486 127.716C98.2766 135.662 86.4171 140.03 74.4627 141.138C74.4627 141.138 63.8366 149.527 63.7417 156.143C63.6152 162.76 47.6443 157.948 47.6443 157.948L40.4654 143.608Z" fill="#F7DAC1"/>
<rect x="73" y="57.0449" width="48" height="46.9091" fill="#DADADA"/>
<mask id="mask1_6425_32954" style="mask-type:alpha" maskUnits="userSpaceOnUse" x="73" y="57" width="48" height="47">
<rect x="73" y="57.0449" width="48" height="46.9091" fill="#C4C4C4"/>
</mask>
<g mask="url(#mask1_6425_32954)">
<path d="M63.1015 68.0109L63.0995 68.013C61.7765 69.4261 61.0482 70.825 60.8417 72.2329C60.6362 73.6343 60.9312 75.1567 61.8563 76.8532C63.2907 79.4405 64.9384 81.9039 66.7823 84.2177L66.7855 84.2216C90.2695 114.005 113.787 143.763 137.339 173.497L137.339 173.498C139.049 175.66 140.865 177.744 142.758 179.775C144.513 181.638 146.218 182.652 147.912 182.92C149.59 183.186 151.422 182.746 153.495 181.369C157.359 178.792 161.029 175.928 164.73 173.041C165.585 172.374 166.442 171.706 167.303 171.04L63.1015 68.0109ZM63.1015 68.0109C64.3796 66.6374 65.7542 65.3573 67.2149 64.1801M63.1015 68.0109L90.9427 45.4056M90.9427 45.4056L90.9416 45.4064C83.033 51.6365 75.109 57.8787 67.2149 64.1801M90.9427 45.4056L106.035 33.4831L106.036 33.4828L90.9427 45.4056ZM67.2149 64.1801C67.2142 64.1806 67.2136 64.1811 67.2129 64.1817L66.5997 63.4135L67.2165 64.1788C67.2159 64.1792 67.2154 64.1797 67.2149 64.1801ZM224.637 107.439L224.635 107.437C200.411 76.7574 176.165 46.0952 151.898 15.4503C150.434 13.6056 148.856 11.8549 147.173 10.2085C145.733 8.8059 144.271 8.05532 142.792 7.85222C141.312 7.64909 139.706 7.97854 137.952 8.93231C136.308 9.82736 134.742 10.8561 133.268 12.0084C133.268 12.0085 133.267 12.0087 133.267 12.0088L132.662 11.2345L224.637 107.439ZM224.637 107.439C226.101 109.281 227.439 111.218 228.644 113.238C229.725 115.064 230.112 116.706 229.927 118.221C229.741 119.739 228.964 121.258 227.474 122.807L227.47 122.811M224.637 107.439L227.47 122.811M227.47 122.811C226.069 124.286 224.571 125.665 222.985 126.938M227.47 122.811L222.985 126.938M222.985 126.938C214.201 133.937 205.391 140.904 196.58 147.871L196.534 147.907L195.801 148.487C193.918 147.096 192.137 146.24 190.393 146.005C188.417 145.74 186.61 146.287 184.907 147.515C183.061 148.844 181.874 150.32 181.525 152.373C181.215 154.196 181.594 156.346 182.469 159.047C180.912 160.28 179.356 161.518 177.799 162.758C174.319 165.528 170.831 168.305 167.303 171.039L222.985 126.938Z" fill="white" stroke="black" stroke-width="1.96577"/>
<rect x="189.715" y="82.2246" width="86.0026" height="5.89732" rx="2.94866" transform="rotate(141.665 189.715 82.2246)" fill="#F2F2F2"/>
<rect x="176.91" y="66.0342" width="86.0026" height="5.89732" rx="2.94866" transform="rotate(141.665 176.91 66.0342)" fill="#F2F2F2"/>
<path fill-rule="evenodd" clip-rule="evenodd" d="M102.364 94.6073C102.614 94.9231 102.56 95.3815 102.245 95.6311L95.5697 100.909C95.2539 101.159 94.7955 101.105 94.5459 100.79L89.2676 94.1147C89.018 93.799 89.0715 93.3406 89.3872 93.0909L93.5834 89.7728L92.2257 88.0557L88.0295 91.3738C87.7138 91.6235 87.2554 91.5699 87.0057 91.2542L83.9895 87.4398C83.7399 87.1241 83.7934 86.6657 84.1092 86.416C84.4249 86.1663 84.8833 86.2199 85.133 86.5357L87.697 89.7783L91.8909 86.462L91.8932 86.4602L94.1822 84.6501L92.8243 82.9328L87.6745 87.005C87.3587 87.2547 86.9004 87.2011 86.6507 86.8853L83.3326 82.6892L81.9972 83.7451C81.6814 83.9948 81.2231 83.9412 80.9734 83.6255L77.2226 78.8821C76.9729 78.5663 77.0264 78.1079 77.3422 77.8582L81.5383 74.5401L81.2171 74.1338C80.9674 73.8181 81.0209 73.3597 81.3367 73.11L89.919 66.3237C90.2347 66.074 90.6931 66.1275 90.9428 66.4433L93.9589 70.2576C94.2086 70.5733 94.155 71.0317 93.8393 71.2814L91.9321 72.7895C91.6163 73.0392 91.1579 72.9856 90.9083 72.6699C90.6586 72.3541 90.7122 71.8958 91.0279 71.6461L92.3634 70.5901L90.2514 67.9192L82.8126 73.8014L88.6948 81.2402L92.3193 78.3741L90.9614 76.6569L88.6968 78.4476C88.3811 78.6973 87.9227 78.6437 87.673 78.328L84.6569 74.5137C84.4072 74.1979 84.4607 73.7395 84.7765 73.4898L87.6128 71.247C87.9286 70.9973 88.387 71.0509 88.6366 71.3667L91.2007 74.6093L93.4896 72.7993C93.8054 72.5496 94.2638 72.6032 94.5134 72.919L96.3235 75.208L101.473 71.1358C101.789 70.8861 102.247 70.9397 102.497 71.2554L105.815 75.4516L108.486 73.3396L105.62 69.7152L104.285 70.7711C103.969 71.0208 103.511 70.9673 103.261 70.6515C103.011 70.3357 103.065 69.8774 103.38 69.6277L105.288 68.1196C105.603 67.87 106.062 67.9235 106.311 68.2393L110.082 73.0072C110.331 73.3229 110.278 73.7813 109.962 74.031L106.148 77.0471C105.832 77.2968 105.374 77.2433 105.124 76.9275L104.068 75.592L101.397 77.704L103.207 79.993C103.457 80.3088 103.403 80.7672 103.087 81.0169L101.752 82.0729L103.242 83.9575C103.492 84.2733 103.438 84.7316 103.122 84.9813L100.834 86.7913L104.019 90.8201L105.737 89.4622L103.927 87.1733C103.677 86.8575 103.73 86.3992 104.046 86.1495C104.362 85.8998 104.82 85.9534 105.07 86.2691L107.332 89.1298C107.582 89.4455 107.528 89.9039 107.212 90.1536L104.352 92.4156C104.036 92.6653 103.578 92.6118 103.328 92.296L100.32 88.4923L100.312 88.4818L96.9936 84.2855L93.3691 87.1516L94.7269 88.8686L96.0623 87.8127C96.378 87.563 96.8364 87.6166 97.0861 87.9323L102.364 94.6073ZM100.769 94.9398L96.3947 89.4082L90.8632 93.7823L95.2372 99.3138L100.769 94.9398ZM99.9292 85.6479L101.647 84.2899L100.156 82.4053C99.9066 82.0895 99.9602 81.6312 100.276 81.3815L101.611 80.3255L100.253 78.6082L98.918 79.6642L98.9135 79.6678L97.0108 81.1723C96.6951 81.422 96.2367 81.3684 95.987 81.0526C95.7373 80.7369 95.7909 80.2785 96.1066 80.0288L97.4421 78.9728L96.0842 77.2556L93.7953 79.0655L93.7863 79.0725L89.0273 82.8358C88.7115 83.0854 88.2531 83.0318 88.0034 82.7161L86.1934 80.427L85.972 80.6021L84.476 81.785L87.342 85.4095L92.4918 81.3373C92.8076 81.0876 93.266 81.1412 93.5156 81.4569L95.3257 83.746L96.6611 82.69C96.9768 82.4403 97.4352 82.4939 97.6849 82.8097L99.9292 85.6479ZM103.164 74.4486L101.806 72.7313L97.2276 76.3514L98.5856 78.0687L99.9162 77.0165L99.9209 77.0127L103.164 74.4486ZM93.8221 74.3948L95.18 76.1121L93.4628 77.47L92.1049 75.7527L93.8221 74.3948ZM87.9452 72.8426L90.0572 75.5135L88.3643 76.8521L86.2524 74.1812L87.9452 72.8426ZM83.0739 78.0517C83.3236 78.3675 83.27 78.8259 82.9543 79.0756L82.0006 79.8296C81.6849 80.0793 81.2265 80.0258 80.9768 79.71C80.7272 79.3943 80.7807 78.9359 81.0965 78.6862L82.0501 77.9321C82.3658 77.6825 82.8242 77.736 83.0739 78.0517ZM82.4425 75.6836L85.2892 79.2836L85.0679 79.4586L83.0001 81.0937L81.6647 82.1496L78.8181 78.5496L82.4425 75.6836ZM99.1421 95.2686C99.4578 95.0189 99.5114 94.5605 99.2617 94.2448L96.7236 91.035C96.4739 90.7192 96.0155 90.6657 95.6998 90.9153L92.49 93.4535C92.1742 93.7032 92.1207 94.1615 92.3703 94.4773L94.9085 97.6871C95.1582 98.0028 95.6165 98.0564 95.9323 97.8067L99.1421 95.2686ZM96.0322 92.5109L97.6662 94.5772L95.5998 96.2112L93.9659 94.1448L96.0322 92.5109ZM118.575 81.7887C118.825 82.1045 118.771 82.5628 118.455 82.8125L111.78 88.0908C111.465 88.3404 111.006 88.2869 110.757 87.9711L105.478 81.2961L106.05 80.844L105.598 80.2723L112.273 74.9941C112.589 74.7444 113.047 74.7979 113.297 75.1137L118.575 81.7887ZM107.074 80.9637L111.448 86.4952L116.98 82.1212L112.606 76.5896L107.074 80.9637ZM115.353 82.4499C115.669 82.2002 115.722 81.7418 115.473 81.4261L112.934 78.2163C112.685 77.9005 112.226 77.847 111.911 78.0967L108.701 80.6348C108.385 80.8844 108.331 81.3428 108.581 81.6586L111.119 84.8684C111.369 85.1842 111.827 85.2377 112.143 84.988L115.353 82.4499ZM112.243 79.6922L113.877 81.7585L111.811 83.3925L110.177 81.3262L112.243 79.6922ZM105.757 65.578C106.006 65.8937 105.953 66.3522 105.637 66.6018L98.9622 71.88C98.6464 72.1297 98.188 72.0762 97.9383 71.7604L92.6601 65.0854L93.2319 64.6333L92.7798 64.0616L99.4548 58.7833C99.7705 58.5337 100.229 58.5873 100.479 58.903L105.757 65.578ZM94.2557 64.7529L98.6297 70.2845L104.161 65.9105L99.7872 60.3789L94.2557 64.7529ZM102.534 66.2392C102.85 65.9896 102.904 65.5312 102.654 65.2154L100.116 62.0056C99.8663 61.6899 99.4079 61.6363 99.0922 61.886L95.8824 64.4241C95.5666 64.6738 95.5131 65.1322 95.7627 65.4479L98.3009 68.6577C98.5506 68.9735 99.0089 69.0271 99.3247 68.7773L102.534 66.2392ZM99.4246 63.4815L101.059 65.5479L98.9922 67.1818L97.3583 65.1155L99.4246 63.4815Z" fill="black"/>
</g>
<path d="M80.767 56.8115H74.2427C73.5564 56.8115 73 57.3679 73 58.0542V64.5785" stroke="white" stroke-width="2.23256" stroke-linecap="round"/>
<path d="M121 64.5785L121 58.0542C121 57.3679 120.444 56.8115 119.757 56.8115L113.233 56.8115" stroke="white" stroke-width="2.23256" stroke-linecap="round"/>
<path d="M113.233 104.19L119.757 104.19C120.444 104.19 121 103.634 121 102.948L121 96.4234" stroke="white" stroke-width="2.23256" stroke-linecap="round"/>
<path d="M73 96.4234L73 102.948C73 103.634 73.5564 104.19 74.2427 104.19L80.767 104.19" stroke="white" stroke-width="2.23256" stroke-linecap="round"/>
</g>
<defs>
<linearGradient id="paint0_linear_6425_32954" x1="37.9047" y1="187.123" x2="189.128" y2="33.3125" gradientUnits="userSpaceOnUse">
<stop offset="0.0416667" stop-color="#47BAD8"/>
<stop offset="0.34375" stop-color="#6A6CE9"/>
<stop offset="0.609375" stop-color="#9454E6"/>
<stop offset="1" stop-color="#CE57D3"/>
</linearGradient>
<linearGradient id="paint1_linear_6425_32954" x1="31.812" y1="193.519" x2="195.282" y2="27.2521" gradientUnits="userSpaceOnUse">
<stop offset="0.0416667" stop-color="#47BAD8"/>
<stop offset="0.34375" stop-color="#6A6CE9"/>
<stop offset="0.609375" stop-color="#9454E6"/>
<stop offset="1" stop-color="#CE57D3"/>
</linearGradient>
<linearGradient id="paint2_linear_6425_32954" x1="179.124" y1="172.201" x2="76.0635" y2="72.0912" gradientUnits="userSpaceOnUse">
<stop offset="0.01" stop-color="#FF55AA"/>
<stop offset="0.25" stop-color="#B850C9"/>
<stop offset="0.62" stop-color="#6572D6"/>
<stop offset="1" stop-color="#4EAEB8"/>
</linearGradient>
<linearGradient id="paint3_linear_6425_32954" x1="43.3575" y1="181.209" x2="183.614" y2="38.553" gradientUnits="userSpaceOnUse">
<stop offset="0.0416667" stop-color="#47BAD8"/>
<stop offset="0.34375" stop-color="#6A6CE9"/>
<stop offset="0.609375" stop-color="#9454E6"/>
<stop offset="1" stop-color="#CE57D3"/>
</linearGradient>
<linearGradient id="paint4_linear_6425_32954" x1="43.3575" y1="181.397" x2="183.614" y2="38.7405" gradientUnits="userSpaceOnUse">
<stop offset="0.0416667" stop-color="#47BAD8"/>
<stop offset="0.34375" stop-color="#6A6CE9"/>
<stop offset="0.609375" stop-color="#9454E6"/>
<stop offset="1" stop-color="#CE57D3"/>
</linearGradient>
<clipPath id="clip0_6425_32954">
<rect width="160.309" height="172.21" fill="white" transform="matrix(-1 0 0 1 193.299 16.002)"/>
</clipPath>
</defs>
</svg>
