<svg width="191" height="188" viewBox="0 0 191 188" fill="none" xmlns="http://www.w3.org/2000/svg">
<path opacity="0.1" d="M8.49915 93.5302C8.49915 141.108 47.0306 179.676 94.5609 179.676C142.091 179.676 180.623 141.108 180.623 93.5302C180.623 45.9527 142.091 7.38422 94.5609 7.38422C47.0306 7.38422 8.49915 45.9527 8.49915 93.5302Z" stroke="url(#paint0_linear_300_25776)" stroke-width="0.754778"/>
<path opacity="0.05" d="M1.5289 93.5306C1.5289 144.961 43.1809 186.653 94.5605 186.653C145.94 186.653 187.592 144.961 187.592 93.5306C187.592 42.1 145.94 0.407952 94.5605 0.407952C43.1809 0.407952 1.5289 42.1 1.5289 93.5306Z" stroke="url(#paint1_linear_300_25776)" stroke-width="0.815905"/>
<g clip-path="url(#clip0_300_25776)">
<path d="M94.5581 173.591C50.2812 173.591 14.3877 137.663 14.3877 93.3428C14.3877 49.0227 50.2812 13.0942 94.5581 13.0942C138.835 13.0942 174.729 49.0227 174.729 93.3428C174.729 137.663 138.835 173.591 94.5581 173.591Z" fill="white"/>
<path opacity="0.1" d="M94.5581 173.591C50.2812 173.591 14.3877 137.663 14.3877 93.3428C14.3877 49.0227 50.2812 13.0942 94.5581 13.0942C138.835 13.0942 174.729 49.0227 174.729 93.3428C174.729 137.663 138.835 173.591 94.5581 173.591Z" fill="url(#paint2_linear_300_25776)"/>
<path opacity="0.1" d="M14.7377 93.3428C14.7377 137.47 50.4749 173.241 94.5581 173.241C138.641 173.241 174.378 137.47 174.378 93.3428C174.378 49.2157 138.641 13.4443 94.5581 13.4443C50.4749 13.4443 14.7377 49.2157 14.7377 93.3428Z" stroke="url(#paint3_linear_300_25776)" stroke-width="0.70004"/>
<path opacity="0.1" d="M14.7377 93.5308C14.7377 137.658 50.4749 173.429 94.5581 173.429C138.641 173.429 174.378 137.658 174.378 93.5308C174.378 49.4037 138.641 13.6322 94.5581 13.6322C50.4749 13.6322 14.7377 49.4037 14.7377 93.5308Z" stroke="url(#paint4_linear_300_25776)" stroke-width="0.70004"/>
</g>
<rect x="1.8817" y="76.1439" width="182.208" height="66.7634" rx="3.82499" transform="rotate(-5.33188 1.8817 76.1439)" fill="white" stroke="#1C0D68" stroke-width="2.08636"/>
<path d="M29.1354 108.184L21.5475 89.7676L21.3987 89.7814C21.968 93.6188 22.3129 96.1822 22.4332 97.4715L23.4822 108.712L18.9035 109.139L16.6481 84.9726L23.6236 84.3216L31.0676 102.268L31.1668 102.259L35.5085 83.2124L42.484 82.5614L44.7395 106.728L39.9624 107.174L38.8948 95.7351C38.8444 95.1951 38.7918 94.572 38.737 93.8657C38.6933 93.1584 38.5956 91.2778 38.4439 88.224L38.2952 88.2379L33.8298 107.746L29.1354 108.184ZM60.6767 80.8635L65.8505 80.3806L59.8906 105.314L54.3036 105.835L43.8494 82.4339L49.0232 81.9511L54.911 95.9077C55.2437 96.7326 55.5952 97.7002 55.9656 98.8105C56.346 99.9089 56.5898 100.675 56.6971 101.11C56.7237 100.085 56.9714 98.272 57.4401 95.6717L60.6767 80.8635ZM87.5436 89.1773L89.1966 89.023C90.8165 88.8718 91.9869 88.4902 92.7079 87.8783C93.4289 87.2663 93.7354 86.3818 93.6274 85.2247C93.5205 84.0786 93.0477 83.3002 92.209 82.8894C91.3813 82.4775 90.141 82.3487 88.488 82.503L86.9342 82.648L87.5436 89.1773ZM87.9324 93.3428L88.7978 102.616L83.6736 103.094L81.4182 78.9277L88.4598 78.2705C91.7437 77.964 94.2297 78.3378 95.9176 79.3919C97.6045 80.435 98.5616 82.1742 98.7889 84.6096C98.9216 86.0312 98.6486 87.335 97.9701 88.521C97.2905 89.696 96.2638 90.6644 94.8898 91.4262C99.0334 96.5196 101.73 99.8083 102.98 101.292L97.2941 101.823L90.6598 93.0882L87.9324 93.3428ZM127.867 98.9696L122.032 99.5142L117.575 87.1248C117.411 86.6843 117.115 85.7727 116.686 84.3899C116.267 82.9951 116.013 82.0573 115.923 81.5766C115.913 82.1778 115.837 83.1519 115.696 84.499C115.554 85.835 115.437 86.7908 115.346 87.3661L113.272 100.332L107.453 100.875L99.0323 77.2838L104.074 76.8133L108.396 89.7155C109.163 92.1005 109.751 94.1743 110.16 95.9369C110.168 95.3026 110.226 94.319 110.335 92.986C110.454 91.641 110.584 90.5951 110.726 89.8482L112.983 75.9818L117.827 75.5298L122.611 88.739C122.822 89.3307 123.101 90.2384 123.449 91.462C123.796 92.6857 124.072 93.7381 124.277 94.6194C124.307 93.7496 124.383 92.6642 124.506 91.3633C124.629 90.0513 124.752 88.9894 124.876 88.1775L126.72 74.6998L131.761 74.2293L127.867 98.9696ZM153.409 96.5859L148.302 97.0625L146.996 83.0784L146.832 80.7761L146.68 78.2559C145.91 79.1836 145.373 79.7951 145.067 80.0905L142.498 82.5812L139.748 79.7365L146.955 72.8112L151.154 72.4194L153.409 96.5859ZM157.304 85.868C156.858 81.0854 157.534 77.4319 159.333 74.9074C161.142 72.382 164.064 70.9311 168.097 70.5547C169.474 70.4261 170.562 70.408 171.36 70.5002L171.741 74.5831C170.74 74.4542 169.76 74.4345 168.801 74.524C167.049 74.6875 165.641 75.0857 164.577 75.7185C163.525 76.3503 162.771 77.2099 162.317 78.2972C161.863 79.3844 161.675 80.8859 161.753 82.8016L161.968 82.7816C162.884 80.8064 164.544 79.7067 166.946 79.4825C169.106 79.2809 170.861 79.8007 172.21 81.042C173.56 82.2833 174.347 84.0996 174.57 86.4909C174.81 89.0695 174.274 91.1816 172.96 92.827C171.645 94.4615 169.699 95.3991 167.12 95.6397C165.335 95.8063 163.737 95.5386 162.326 94.8366C160.927 94.1335 159.789 93.0225 158.914 91.5035C158.05 89.9835 157.513 88.105 157.304 85.868ZM166.64 91.5661C167.731 91.4643 168.534 91.0225 169.051 90.2407C169.566 89.4478 169.76 88.3737 169.634 87.0183C169.523 85.8391 169.162 84.9392 168.548 84.3184C167.944 83.6856 167.091 83.4206 165.989 83.5234C164.953 83.6201 164.098 84.039 163.422 84.7801C162.758 85.5202 162.467 86.3365 162.55 87.2292C162.673 88.5405 163.118 89.6161 163.885 90.456C164.664 91.2948 165.582 91.6649 166.64 91.5661Z" fill="#1C0D68"/>
<path d="M77.1104 116.472C75.87 116.588 74.9281 117.094 74.2849 117.99C73.6463 118.88 73.394 120.043 73.528 121.48C73.6659 122.957 74.1174 124.067 74.8825 124.811C75.6523 125.549 76.678 125.858 77.9596 125.739C78.7472 125.665 79.6321 125.44 80.6145 125.063L80.7219 126.213C79.9669 126.579 79.0155 126.816 77.8677 126.923C76.2052 127.078 74.8739 126.694 73.8739 125.77C72.879 124.845 72.2948 123.453 72.1214 121.595C72.0128 120.432 72.1339 119.393 72.4846 118.477C72.8404 117.561 73.4055 116.829 74.1797 116.279C74.959 115.728 75.9046 115.401 77.0163 115.297C78.2002 115.187 79.2549 115.307 80.1806 115.656L79.7299 116.835C78.838 116.514 77.9648 116.393 77.1104 116.472ZM94.3076 125.233L92.9951 125.356L92.4993 120.044L86.5544 120.599L87.0501 125.91L85.7376 126.033L84.6842 114.745L85.9967 114.623L86.4449 119.425L92.3898 118.87L91.9416 114.068L93.2541 113.946L94.3076 125.233ZM99.9375 124.708L98.884 113.42L100.197 113.298L101.25 124.585L99.9375 124.708ZM106.88 124.06L105.826 112.772L107.139 112.65L108.081 122.748L113.061 122.284L113.172 123.473L106.88 124.06ZM123.913 122.47L117.621 123.057L116.567 111.77L122.86 111.183L122.969 112.348L117.989 112.813L118.328 116.45L123.007 116.013L123.115 117.171L118.436 117.608L118.824 121.761L123.804 121.297L123.913 122.47Z" fill="#1C0D68"/>
<circle cx="73.1804" cy="93.5314" r="2.08636" transform="rotate(-5.33188 73.1804 93.5314)" fill="#1C0D68"/>
<circle cx="137.017" cy="88.5392" r="2.08636" transform="rotate(-5.33188 137.017 88.5392)" fill="#1C0D68"/>
<defs>
<linearGradient id="paint0_linear_300_25776" x1="19.3344" y1="172.503" x2="170.558" y2="18.6924" gradientUnits="userSpaceOnUse">
<stop offset="0.0416667" stop-color="#47BAD8"/>
<stop offset="0.34375" stop-color="#6A6CE9"/>
<stop offset="0.609375" stop-color="#9454E6"/>
<stop offset="1" stop-color="#CE57D3"/>
</linearGradient>
<linearGradient id="paint1_linear_300_25776" x1="13.2416" y1="178.899" x2="176.712" y2="12.632" gradientUnits="userSpaceOnUse">
<stop offset="0.0416667" stop-color="#47BAD8"/>
<stop offset="0.34375" stop-color="#6A6CE9"/>
<stop offset="0.609375" stop-color="#9454E6"/>
<stop offset="1" stop-color="#CE57D3"/>
</linearGradient>
<linearGradient id="paint2_linear_300_25776" x1="160.554" y1="157.58" x2="57.4932" y2="57.4706" gradientUnits="userSpaceOnUse">
<stop offset="0.01" stop-color="#FF55AA"/>
<stop offset="0.25" stop-color="#B850C9"/>
<stop offset="0.62" stop-color="#6572D6"/>
<stop offset="1" stop-color="#4EAEB8"/>
</linearGradient>
<linearGradient id="paint3_linear_300_25776" x1="24.7872" y1="166.588" x2="165.043" y2="23.9324" gradientUnits="userSpaceOnUse">
<stop offset="0.0416667" stop-color="#47BAD8"/>
<stop offset="0.34375" stop-color="#6A6CE9"/>
<stop offset="0.609375" stop-color="#9454E6"/>
<stop offset="1" stop-color="#CE57D3"/>
</linearGradient>
<linearGradient id="paint4_linear_300_25776" x1="24.7872" y1="166.776" x2="165.043" y2="24.1204" gradientUnits="userSpaceOnUse">
<stop offset="0.0416667" stop-color="#47BAD8"/>
<stop offset="0.34375" stop-color="#6A6CE9"/>
<stop offset="0.609375" stop-color="#9454E6"/>
<stop offset="1" stop-color="#CE57D3"/>
</linearGradient>
<clipPath id="clip0_300_25776">
<rect width="160.309" height="172.21" fill="white" transform="matrix(-1 0 0 1 174.729 1.38135)"/>
</clipPath>
</defs>
</svg>
