<svg width="188" height="188" viewBox="0 0 188 188" fill="none" xmlns="http://www.w3.org/2000/svg">
<path opacity="0.1" d="M8.06946 94.1503C8.06946 141.728 46.601 180.296 94.1312 180.296C141.661 180.296 180.193 141.728 180.193 94.1503C180.193 46.5729 141.661 8.00434 94.1312 8.00434C46.601 8.00434 8.06946 46.5729 8.06946 94.1503Z" stroke="url(#paint0_linear_7116_33822)" stroke-width="0.754778"/>
<path opacity="0.05" d="M1.09921 94.1507C1.09921 145.581 42.7512 187.273 94.1308 187.273C145.51 187.273 187.162 145.581 187.162 94.1507C187.162 42.7201 145.51 1.02807 94.1308 1.02807C42.7512 1.02807 1.09921 42.7201 1.09921 94.1507Z" stroke="url(#paint1_linear_7116_33822)" stroke-width="0.815905"/>
<g clip-path="url(#clip0_7116_33822)">
<path d="M94.1284 174.212C49.8515 174.212 13.958 138.283 13.958 93.9634C13.958 49.6433 49.8515 13.7148 94.1284 13.7148C138.405 13.7148 174.299 49.6433 174.299 93.9634C174.299 138.283 138.405 174.212 94.1284 174.212Z" fill="white"/>
<path opacity="0.1" d="M94.1284 174.212C49.8515 174.212 13.958 138.283 13.958 93.9634C13.958 49.6433 49.8515 13.7148 94.1284 13.7148C138.405 13.7148 174.299 49.6433 174.299 93.9634C174.299 138.283 138.405 174.212 94.1284 174.212Z" fill="url(#paint2_linear_7116_33822)"/>
<path opacity="0.1" d="M14.308 93.9634C14.308 138.09 50.0452 173.862 94.1284 173.862C138.212 173.862 173.949 138.09 173.949 93.9634C173.949 49.8363 138.212 14.0649 94.1284 14.0649C50.0452 14.0649 14.308 49.8363 14.308 93.9634Z" stroke="url(#paint3_linear_7116_33822)" stroke-width="0.70004"/>
<path opacity="0.1" d="M14.308 94.1509C14.308 138.278 50.0452 174.049 94.1284 174.049C138.212 174.049 173.949 138.278 173.949 94.1509C173.949 50.0238 138.212 14.2524 94.1284 14.2524C50.0452 14.2524 14.308 50.0238 14.308 94.1509Z" stroke="url(#paint4_linear_7116_33822)" stroke-width="0.70004"/>
<g clip-path="url(#clip1_7116_33822)">
<path d="M51.3063 148.379L65.0808 139.895L59.1671 134.546L53.2535 129.197L46.1878 143.75C44.431 147.367 47.8821 150.488 51.3063 148.379Z" fill="#3F2A10"/>
<path d="M117.223 159.019L116.761 142.847L109.171 145.293L101.582 147.74L110.655 161.135C112.91 164.467 117.337 163.039 117.223 159.019Z" fill="#3F2A10"/>
<path d="M78.9222 35.4157L70.9453 37.9873L76.2194 54.3473L84.1963 51.7757L78.9222 35.4157Z" fill="#3F2A10"/>
<path d="M77.695 36.2684L74.3831 25.9964C74.1524 25.3072 73.6591 24.7368 73.0104 24.409C72.3617 24.0812 71.6099 24.0225 70.9182 24.2455C70.2264 24.4685 69.6506 24.9553 69.3155 25.6003C68.9804 26.2453 68.9133 26.9963 69.1285 27.6906L72.4388 37.9623L77.695 36.2684Z" fill="#3F2A10"/>
<path d="M67.0559 49.018L88.5293 42.0954C89.3932 41.8167 90.111 41.2063 90.525 40.3985C90.9391 39.5907 91.0154 38.6515 90.7372 37.7875L90.2134 36.1625C89.2413 33.1501 87.1128 30.6469 84.2959 29.2032C81.479 27.7594 78.2041 27.4932 75.1909 28.463L69.9216 30.1573C66.9092 31.1294 64.406 33.2578 62.9623 36.0748C61.5185 38.8917 61.2523 42.1666 62.2221 45.1797L62.7474 46.8051C62.8847 47.2335 63.1052 47.6306 63.3961 47.9737C63.687 48.3169 64.0427 48.5993 64.4429 48.8048C64.843 49.0103 65.2798 49.1349 65.7281 49.1715C66.1765 49.2081 66.6277 49.156 67.0559 49.018V49.018Z" fill="#6572D6"/>
<path d="M65.2681 50.5741L90.8804 42.3175C91.6445 42.0694 92.2791 41.5287 92.6455 40.8138C93.0118 40.0989 93.08 39.268 92.8352 38.5029L92.7157 38.1306C92.4676 37.3665 91.927 36.7319 91.2121 36.3655C90.4971 35.9992 89.6662 35.931 88.9011 36.1758L63.2884 44.434C62.5248 44.6822 61.8905 45.2226 61.5243 45.9371C61.158 46.6517 61.0896 47.4822 61.334 48.247L61.4531 48.6209C61.7015 49.3847 62.2424 50.0191 62.9574 50.3851C63.6723 50.7512 64.5032 50.8191 65.2681 50.5741V50.5741Z" fill="#B850C9"/>
<path d="M131.9 46.8033L120.369 59.5508L126.585 65.1732L138.116 52.4257L131.9 46.8033Z" fill="#3F2A10"/>
<path d="M143.807 39.887C143.264 39.3957 142.548 39.1403 141.816 39.1769C141.085 39.2134 140.398 39.5389 139.906 40.0819L132.668 48.0859L136.762 51.7898L144.002 43.7861C144.493 43.2431 144.749 42.5273 144.712 41.7961C144.675 41.0649 144.35 40.3782 143.807 39.887V39.887Z" fill="#3F2A10"/>
<path d="M137.132 64.0817C137.805 64.6903 138.692 65.0066 139.599 64.961C140.505 64.9154 141.356 64.5118 141.965 63.8388L143.11 62.5726C145.234 60.2245 146.337 57.1293 146.178 53.9676C146.02 50.806 144.612 47.8368 142.264 45.7131L138.166 42.0051C135.818 39.8828 132.723 38.7797 129.561 38.9384C126.4 39.097 123.431 40.5044 121.307 42.8512L120.161 44.1175C119.86 44.4507 119.627 44.8401 119.475 45.2634C119.324 45.6867 119.258 46.1356 119.28 46.5846C119.303 47.0335 119.413 47.4736 119.606 47.8798C119.798 48.2859 120.069 48.6502 120.402 48.9518L137.132 64.0817Z" fill="#6572D6"/>
<path d="M138.116 66.2332C138.713 66.7704 139.498 67.0496 140.3 67.0096C141.101 66.9696 141.855 66.6138 142.395 66.0199L142.659 65.7284C143.196 65.1315 143.475 64.3463 143.435 63.5444C143.394 62.7424 143.038 61.9891 142.444 61.449L122.486 43.3949C121.889 42.8578 121.104 42.5788 120.302 42.6191C119.5 42.6593 118.747 43.0155 118.207 43.6097L117.943 43.8997C117.405 44.4966 117.126 45.2821 117.166 46.0845C117.207 46.8868 117.563 47.6405 118.158 48.1806L138.116 66.2332Z" fill="#B850C9"/>
<path d="M105.543 52.6652L107.014 45.8215C107.211 44.9057 106.251 43.9243 104.87 43.6274C103.488 43.3304 102.21 43.8306 102.013 44.7465L100.542 51.5901C100.345 52.5059 101.306 53.4876 102.686 53.7843C104.066 54.0809 105.346 53.581 105.543 52.6652Z" fill="#3F2A10"/>
<path d="M108.896 46.1835C110.42 46.511 111.93 45.503 112.268 43.9308C112.606 42.3586 111.643 40.8207 110.119 40.4932L101.367 38.6118C99.8421 38.284 98.3336 39.2923 97.9957 40.8645C97.6577 42.4367 98.6185 43.9758 100.144 44.3037L108.896 46.1835Z" fill="#6572D6"/>
<path d="M82.2435 148.885C109.706 154.788 136.754 137.311 142.657 109.849C148.561 82.3866 131.084 55.3384 103.621 49.435C76.1591 43.5317 49.1109 61.0087 43.2075 88.471C37.3042 115.933 54.7812 142.981 82.2435 148.885Z" fill="#6572D6"/>
<path d="M83.8465 141.425C107.189 146.443 130.18 131.588 135.197 108.245C140.215 84.9024 125.36 61.9118 102.017 56.8941C78.6748 51.8763 55.6843 66.7315 50.6665 90.074C45.6487 113.417 60.5039 136.407 83.8465 141.425Z" fill="white"/>
<path d="M101.504 59.2836C124.079 64.1365 138.246 87.9847 134.637 110.517C134.84 109.769 135.025 109.011 135.19 108.243C140.207 84.9007 125.352 61.9101 102.01 56.8924C78.667 51.8746 55.6856 66.7252 50.6665 90.0741C50.5016 90.8409 50.3587 91.6075 50.2375 92.3739C56.2143 70.351 78.9285 54.4308 101.504 59.2836Z" fill="#B850C9"/>
<path d="M99.6237 69.6118C101.559 69.8317 103.306 68.4412 103.526 66.5061C103.745 64.571 102.355 62.824 100.42 62.6041C98.4847 62.3843 96.7378 63.7748 96.5179 65.7099C96.2981 67.645 97.6886 69.392 99.6237 69.6118Z" fill="#3F2A10"/>
<path d="M125.135 109.541C127.039 109.95 128.915 108.738 129.324 106.834C129.733 104.93 128.522 103.055 126.618 102.645C124.713 102.236 122.838 103.448 122.429 105.352C122.02 107.256 123.231 109.131 125.135 109.541Z" fill="#3F2A10"/>
<path d="M87.8012 134.893C89.437 133.836 89.9062 131.653 88.8493 130.017C87.7923 128.381 85.6094 127.912 83.9736 128.969C82.3378 130.026 81.8685 132.209 82.9255 133.845C83.9825 135.48 86.1654 135.95 87.8012 134.893Z" fill="#3F2A10"/>
<path d="M68.8627 78.8479C68.9801 78.957 69.118 79.0418 69.2684 79.0972C69.4188 79.1526 69.5787 79.1776 69.7389 79.1706C69.8991 79.1637 70.0562 79.125 70.2013 79.0569C70.3464 78.9887 70.4765 78.8924 70.584 78.7735C70.6916 78.6546 70.7744 78.5156 70.8278 78.3644C70.8811 78.2132 70.9039 78.053 70.8948 77.8929C70.8857 77.7329 70.8449 77.5763 70.7747 77.4321C70.7046 77.288 70.6065 77.1592 70.4862 77.0533L67.1298 74.0166C66.8916 73.8013 66.5776 73.6893 66.257 73.7055C65.9363 73.7216 65.6351 73.8645 65.4198 74.1027C65.2045 74.3409 65.0926 74.6549 65.1087 74.9756C65.1249 75.2963 65.2678 75.5974 65.506 75.8127L68.8627 78.8479Z" fill="#6572D6"/>
<path d="M118.79 124.017C119.03 124.221 119.339 124.323 119.653 124.302C119.967 124.282 120.261 124.14 120.472 123.906C120.683 123.673 120.795 123.367 120.785 123.052C120.774 122.738 120.641 122.44 120.415 122.221L117.058 119.186C116.82 118.976 116.508 118.868 116.19 118.886C115.873 118.905 115.575 119.047 115.361 119.283C115.148 119.519 115.036 119.829 115.05 120.147C115.064 120.465 115.202 120.764 115.435 120.981L118.79 124.017Z" fill="#6572D6"/>
<path d="M69.757 126.473L72.7934 123.118C72.9969 122.879 73.0992 122.569 73.0786 122.255C73.0579 121.941 72.9159 121.647 72.6826 121.436C72.4493 121.225 72.143 121.113 71.8286 121.123C71.5141 121.134 71.2161 121.267 70.9976 121.493L67.9624 124.85C67.7522 125.089 67.6445 125.4 67.6626 125.718C67.6807 126.036 67.823 126.333 68.0589 126.547C68.2948 126.76 68.6052 126.872 68.923 126.858C69.2408 126.845 69.5404 126.706 69.757 126.473V126.473Z" fill="#6572D6"/>
<path d="M114.932 76.5428L117.969 73.1864C118.184 72.9482 118.296 72.6343 118.28 72.3136C118.264 71.9929 118.121 71.6918 117.883 71.4764C117.645 71.2611 117.331 71.1492 117.01 71.1654C116.689 71.1815 116.388 71.3244 116.173 71.5626L113.138 74.9177C112.922 75.1556 112.81 75.4694 112.826 75.7901C112.842 76.1107 112.985 76.4119 113.222 76.6274C113.46 76.8429 113.774 76.955 114.095 76.9392C114.415 76.9233 114.717 76.7807 114.932 76.5428V76.5428Z" fill="#6572D6"/>
<path d="M123.221 90.5337L127.528 89.146C127.684 89.1011 127.83 89.0253 127.956 88.9231C128.082 88.8209 128.186 88.6943 128.263 88.551C128.339 88.4077 128.386 88.2504 128.4 88.0887C128.415 87.927 128.396 87.764 128.346 87.6094C128.296 87.4549 128.216 87.312 128.11 87.1891C128.004 87.0663 127.874 86.966 127.728 86.8944C127.582 86.8227 127.424 86.781 127.262 86.7718C127.1 86.7626 126.937 86.7861 126.784 86.8409L122.478 88.2305C122.325 88.2776 122.183 88.3547 122.059 88.4572C121.936 88.5598 121.835 88.6859 121.761 88.828C121.687 88.9702 121.641 89.1256 121.628 89.2854C121.615 89.4451 121.633 89.6059 121.682 89.7585C121.731 89.9111 121.81 90.0523 121.915 90.1741C122.019 90.2959 122.146 90.3957 122.289 90.4678C122.433 90.54 122.589 90.5829 122.748 90.5942C122.908 90.6055 123.069 90.5849 123.221 90.5337V90.5337Z" fill="#6572D6"/>
<path d="M59.1377 111.194L63.4454 109.805C63.5987 109.758 63.741 109.681 63.8642 109.578C63.9874 109.475 64.0889 109.349 64.163 109.207C64.2371 109.065 64.2822 108.91 64.2956 108.75C64.3091 108.59 64.2907 108.429 64.2415 108.277C64.1923 108.124 64.1133 107.983 64.0091 107.861C63.9048 107.739 63.7774 107.639 63.6343 107.567C63.4911 107.495 63.3351 107.452 63.1752 107.441C63.0152 107.43 62.8547 107.45 62.7028 107.502L58.3954 108.889C58.0897 108.988 57.8357 109.203 57.6892 109.489C57.5427 109.775 57.5157 110.107 57.6141 110.413C57.7126 110.718 57.9284 110.972 58.2141 111.119C58.4998 111.265 58.832 111.292 59.1377 111.194V111.194Z" fill="#6572D6"/>
<path d="M104.358 134.364C104.663 134.266 104.917 134.05 105.063 133.765C105.209 133.479 105.236 133.147 105.138 132.841L103.757 128.535C103.658 128.23 103.442 127.976 103.156 127.83C102.87 127.684 102.538 127.657 102.233 127.756C101.927 127.854 101.673 128.07 101.527 128.356C101.381 128.642 101.354 128.974 101.453 129.28L102.841 133.585C102.94 133.889 103.155 134.141 103.439 134.287C103.723 134.433 104.053 134.461 104.358 134.364V134.364Z" fill="#6572D6"/>
<path d="M83.6963 70.2811C83.8479 70.2326 83.9883 70.1546 84.1097 70.0516C84.2311 69.9487 84.3309 69.8229 84.4036 69.6813C84.4762 69.5397 84.5202 69.3852 84.5331 69.2266C84.546 69.068 84.5274 68.9084 84.4785 68.757L83.089 64.4508C82.9872 64.1494 82.7709 63.9002 82.4869 63.7571C82.2028 63.614 81.8738 63.5885 81.5711 63.6861C81.2683 63.7837 81.0162 63.9966 80.8693 64.2787C80.7223 64.5607 80.6923 64.8894 80.7858 65.1934L82.1734 69.5009C82.2719 69.8063 82.4877 70.06 82.7733 70.2064C83.0589 70.3527 83.3909 70.3796 83.6963 70.2811V70.2811Z" fill="#6572D6"/>
<path d="M111.837 105.774C112.523 105.921 113.239 105.79 113.828 105.41C114.417 105.029 114.831 104.43 114.978 103.745C115.125 103.059 114.994 102.343 114.614 101.754C114.233 101.165 113.634 100.752 112.949 100.604L94.415 96.6201C93.7295 96.4727 93.0134 96.6037 92.4244 96.9843C91.8355 97.3649 91.4218 97.9638 91.2744 98.6494C91.127 99.3349 91.2581 100.051 91.6386 100.64C92.0192 101.229 92.6181 101.643 93.3037 101.79L111.837 105.774Z" fill="#3F2A10"/>
<path d="M92.4536 99.4529C92.5945 99.5346 92.7473 99.5939 92.9064 99.6287C93.227 99.6983 93.5614 99.6643 93.8614 99.5317C94.1614 99.399 94.4116 99.1745 94.5758 98.8905L111.081 70.5548C111.184 70.3784 111.251 70.1835 111.278 69.9811C111.306 69.7787 111.293 69.5729 111.241 69.3755C111.189 69.1781 111.098 68.9929 110.974 68.8305C110.85 68.6682 110.696 68.5319 110.519 68.4294C110.343 68.326 110.148 68.2585 109.946 68.2307C109.743 68.2029 109.537 68.2154 109.34 68.2674C109.142 68.3195 108.957 68.4101 108.795 68.5341C108.632 68.658 108.496 68.8128 108.394 68.9896L91.8891 97.3254C91.786 97.5017 91.7188 97.6966 91.6912 97.899C91.6636 98.1014 91.6761 98.3072 91.7281 98.5047C91.7801 98.7022 91.8705 98.8876 91.9942 99.0501C92.1179 99.2126 92.2724 99.3492 92.4489 99.4519L92.4536 99.4529Z" fill="#3F2A10"/>
<path d="M91.9496 103.735C94.476 104.278 96.9643 102.67 97.5073 100.144C98.0504 97.6172 96.4426 95.1289 93.9162 94.5859C91.3898 94.0428 88.9015 95.6506 88.3585 98.177C87.8154 100.703 89.4232 103.192 91.9496 103.735Z" fill="#3F2A10"/>
<path d="M66.5237 100.73L69.1496 100.685L75.4751 100.573L83.1249 100.446L89.7357 100.339C90.8026 100.32 91.8799 100.343 92.9455 100.285L92.9897 100.284C93.2905 100.266 93.5721 100.131 93.7734 99.9064C93.9746 99.6821 94.0793 99.3875 94.0647 99.0865C94.0428 98.7872 93.9058 98.508 93.6824 98.3075C93.4591 98.1071 93.1667 98.001 92.8668 98.0114L90.241 98.0569L83.9154 98.1687L76.2656 98.295L69.6545 98.4043C68.5879 98.4219 67.5106 98.398 66.445 98.4567L66.4008 98.457C66.1 98.475 65.8184 98.6108 65.6171 98.8351C65.4159 99.0594 65.3112 99.354 65.3258 99.655C65.3473 99.9544 65.4842 100.234 65.7077 100.434C65.9311 100.635 66.2237 100.741 66.5237 100.73Z" fill="#F96262"/>
<path d="M94.8577 99.5738C94.9396 99.1927 94.9067 98.7958 94.7631 98.4334C94.6195 98.071 94.3716 97.7593 94.0508 97.5378C93.7301 97.3162 93.3508 97.1948 92.9611 97.1888C92.5713 97.1828 92.1885 97.2925 91.8611 97.5041C91.5336 97.7157 91.2763 98.0196 91.1216 98.3774C90.9669 98.7352 90.9217 99.1308 90.9919 99.5143C91.0621 99.8978 91.2444 100.252 91.5157 100.532C91.7871 100.812 92.1354 101.005 92.5165 101.087C93.0276 101.196 93.5613 101.099 94.0004 100.815C94.4395 100.531 94.7478 100.085 94.8577 99.5738V99.5738Z" fill="#F96262"/>
<path d="M59.3072 95.3903C61.2113 95.7996 63.0866 94.5878 63.4959 92.6837C63.9052 90.7797 62.6935 88.9043 60.7894 88.495C58.8854 88.0857 57.01 89.2975 56.6007 91.2015C56.1914 93.1056 57.4031 94.981 59.3072 95.3903Z" fill="#3F2A10"/>
</g>
</g>
<defs>
<linearGradient id="paint0_linear_7116_33822" x1="18.9047" y1="173.123" x2="170.128" y2="19.3125" gradientUnits="userSpaceOnUse">
<stop offset="0.0416667" stop-color="#47BAD8"/>
<stop offset="0.34375" stop-color="#6A6CE9"/>
<stop offset="0.609375" stop-color="#9454E6"/>
<stop offset="1" stop-color="#CE57D3"/>
</linearGradient>
<linearGradient id="paint1_linear_7116_33822" x1="12.812" y1="179.519" x2="176.282" y2="13.2521" gradientUnits="userSpaceOnUse">
<stop offset="0.0416667" stop-color="#47BAD8"/>
<stop offset="0.34375" stop-color="#6A6CE9"/>
<stop offset="0.609375" stop-color="#9454E6"/>
<stop offset="1" stop-color="#CE57D3"/>
</linearGradient>
<linearGradient id="paint2_linear_7116_33822" x1="160.124" y1="158.201" x2="57.0635" y2="58.0912" gradientUnits="userSpaceOnUse">
<stop offset="0.01" stop-color="#FF55AA"/>
<stop offset="0.25" stop-color="#B850C9"/>
<stop offset="0.62" stop-color="#6572D6"/>
<stop offset="1" stop-color="#4EAEB8"/>
</linearGradient>
<linearGradient id="paint3_linear_7116_33822" x1="24.3575" y1="167.209" x2="164.614" y2="24.553" gradientUnits="userSpaceOnUse">
<stop offset="0.0416667" stop-color="#47BAD8"/>
<stop offset="0.34375" stop-color="#6A6CE9"/>
<stop offset="0.609375" stop-color="#9454E6"/>
<stop offset="1" stop-color="#CE57D3"/>
</linearGradient>
<linearGradient id="paint4_linear_7116_33822" x1="24.3575" y1="167.397" x2="164.614" y2="24.7405" gradientUnits="userSpaceOnUse">
<stop offset="0.0416667" stop-color="#47BAD8"/>
<stop offset="0.34375" stop-color="#6A6CE9"/>
<stop offset="0.609375" stop-color="#9454E6"/>
<stop offset="1" stop-color="#CE57D3"/>
</linearGradient>
<clipPath id="clip0_7116_33822">
<rect width="160.309" height="172.21" fill="white" transform="matrix(-1 0 0 1 174.299 2.00195)"/>
</clipPath>
<clipPath id="clip1_7116_33822">
<rect width="101.72" height="127.1" fill="white" transform="translate(57.7109 21) rotate(12.1318)"/>
</clipPath>
</defs>
</svg>
