<svg width="207" height="202" viewBox="0 0 207 202" fill="none" xmlns="http://www.w3.org/2000/svg">
<path opacity="0.1" d="M27.0704 108.15C27.0704 155.728 65.6019 194.296 113.132 194.296C160.662 194.296 199.194 155.728 199.194 108.15C199.194 60.5729 160.662 22.0043 113.132 22.0043C65.6019 22.0043 27.0704 60.5729 27.0704 108.15Z" stroke="url(#paint0_linear_300_25655)" stroke-width="0.754778"/>
<path opacity="0.05" d="M20.1002 108.151C20.1002 159.581 61.7522 201.273 113.132 201.273C164.511 201.273 206.163 159.581 206.163 108.151C206.163 56.7201 164.511 15.0281 113.132 15.0281C61.7522 15.0281 20.1002 56.7201 20.1002 108.151Z" stroke="url(#paint1_linear_300_25655)" stroke-width="0.815905"/>
<g clip-path="url(#clip0_300_25655)">
<path d="M113.129 188.211C68.8525 188.211 32.959 152.283 32.959 107.963C32.959 63.6428 68.8525 27.7144 113.129 27.7144C157.406 27.7144 193.3 63.6428 193.3 107.963C193.3 152.283 157.406 188.211 113.129 188.211Z" fill="white"/>
<path opacity="0.1" d="M113.129 188.211C68.8525 188.211 32.959 152.283 32.959 107.963C32.959 63.6428 68.8525 27.7144 113.129 27.7144C157.406 27.7144 193.3 63.6428 193.3 107.963C193.3 152.283 157.406 188.211 113.129 188.211Z" fill="url(#paint2_linear_300_25655)"/>
<path opacity="0.1" d="M33.309 107.963C33.309 152.09 69.0462 187.861 113.129 187.861C157.213 187.861 192.95 152.09 192.95 107.963C192.95 63.8358 157.213 28.0644 113.129 28.0644C69.0462 28.0644 33.309 63.8358 33.309 107.963Z" stroke="url(#paint3_linear_300_25655)" stroke-width="0.70004"/>
<path opacity="0.1" d="M33.309 108.151C33.309 152.278 69.0462 188.049 113.129 188.049C157.213 188.049 192.95 152.278 192.95 108.151C192.95 64.0238 157.213 28.2524 113.129 28.2524C69.0462 28.2524 33.309 64.0238 33.309 108.151Z" stroke="url(#paint4_linear_300_25655)" stroke-width="0.70004"/>
</g>
<mask id="mask0_300_25655" style="mask-type:alpha" maskUnits="userSpaceOnUse" x="0" y="0" width="205" height="189">
<path fill-rule="evenodd" clip-rule="evenodd" d="M205 0H0V132H36.6196C46.824 164.577 77.2203 188.211 113.131 188.211C149.042 188.211 179.439 164.577 189.643 132H205V0Z" fill="#C4C4C4"/>
</mask>
<g mask="url(#mask0_300_25655)">
<path d="M25.899 184.333C28.9152 179.878 31.4532 175.792 33.1085 172.515C41.6789 155.32 54.1851 119.385 61.2106 105.063C68.2361 90.7402 83.6114 75.6445 83.6114 75.6445L96.8532 115.63L98.8027 166.808C98.8027 166.808 95.4187 172.146 89.5702 184.886C83.7217 197.662 78.7928 198.951 70.0753 207.272C68.0154 209.26 65.882 211.8 63.7854 214.562C48.6309 207.934 35.5729 197.441 25.899 184.333Z" fill="#F7DAC1"/>
<path d="M150.3 59.8494C150.3 59.8494 156.48 58.1558 159.018 59.8494C161.519 61.5431 160.967 72.5519 152.471 74.2087L150.3 59.8494Z" fill="#F5C9AA"/>
<path d="M151.845 80.763C155.67 78.2961 157.767 78.112 158.907 80.0634C160.047 82.0148 164.939 89.7836 152.139 97.1841C139.339 104.585 145.886 92.6186 145.886 92.6186L151.845 80.763Z" fill="#F5C9AA"/>
<path d="M149.599 103.333C149.599 103.333 154.564 101.639 157.139 103.039C159.714 104.438 161.296 114.673 151.695 117.84C142.132 121.006 146.104 111.175 146.104 111.175L149.599 103.333Z" fill="#F5C9AA"/>
<path d="M151.18 123.289C151.18 123.289 154.674 122.626 155.668 124.356C156.661 126.087 155.888 130.616 152.173 134.003C148.458 137.39 148.053 128.149 148.053 128.149L151.18 123.289Z" fill="#F5C9AA"/>
<path d="M80.4477 103.222C80.4477 103.222 79.0132 113.679 73.4222 118.465C67.8312 123.252 56.0607 136.433 54.7365 140.851L64.7046 138.752L76.9166 127.817L85.2295 114.268L80.4477 103.222Z" fill="#D8A988"/>
<path d="M75.4789 153.111C75.4789 153.111 77.0238 158.708 77.3181 164.304C77.6123 169.901 72.3892 188.273 72.3892 188.273C72.3892 188.273 83.7551 168.759 83.608 155.873C83.4608 142.986 75.4789 153.111 75.4789 153.111Z" fill="#D8A988"/>
<path d="M152.543 56.9042V32.1988C152.543 26.5655 147.982 22 142.354 22H89.6442C84.0165 22 79.4554 26.5655 79.4554 32.1988V42.4712C79.1243 42.6185 78.9404 42.9499 78.9404 43.3181V47.3681C78.9404 47.7363 79.1611 48.0677 79.4554 48.2149V52.5596C79.1243 52.7068 78.9404 53.0382 78.9404 53.4064V62.5006C78.9404 62.8688 79.1611 63.2002 79.4554 63.3475V66.4402C79.1243 66.5875 78.9404 66.9189 78.9404 67.2871V76.3813C78.9404 76.7495 79.1611 77.0808 79.4554 77.2281V160.218C79.4554 165.851 84.0165 170.416 89.6442 170.416H142.354C147.982 170.416 152.543 165.851 152.543 160.218V73.8776C152.874 73.7303 153.058 73.399 153.058 73.0308V57.7142C153.058 57.346 152.837 57.0514 152.543 56.9042Z" fill="#0B080F"/>
<path d="M149.6 160.217C149.6 164.231 146.363 167.471 142.354 167.471H89.6437C85.6344 167.471 82.3975 164.231 82.3975 160.217V32.1986C82.3975 28.1854 85.6344 24.9453 89.6437 24.9453H99.0233L99.8326 27.6331C100.311 29.2163 101.782 30.3208 103.437 30.3208H128.523C130.178 30.3208 131.65 29.2163 132.128 27.6331L132.937 24.9453H142.317C146.326 24.9453 149.563 28.1854 149.563 32.1986V160.217H149.6Z" fill="white"/>
<g filter="url(#filter0_d_300_25655)">
<rect x="86.999" y="34" width="59" height="19" rx="5" fill="white"/>
</g>
<rect x="105.999" y="38" width="25" height="2" rx="1" fill="#DFDFDF"/>
<rect x="105.999" y="42" width="35" height="3" rx="1.5" fill="#DFDFDF"/>
<rect x="105.999" y="46" width="35" height="3" rx="1.5" fill="#DFDFDF"/>
<g clip-path="url(#clip1_300_25655)">
<path d="M101.564 35H92.4344C90.5371 35 88.999 36.5262 88.999 38.4088V47.5912C88.999 49.4738 90.5371 51 92.4344 51H101.564C103.461 51 104.999 49.4738 104.999 47.5912V38.4088C104.999 36.5262 103.461 35 101.564 35Z" fill="white"/>
<path d="M102.856 41.7391C102.807 41.5012 102.479 41.4748 102.386 41.6991C101.915 42.8265 100.74 43.5666 99.4478 43.4162C97.9957 43.2474 96.8995 41.9712 96.9522 40.5104C96.9988 39.2093 97.9088 38.1599 99.0953 37.8653C99.3307 37.8071 99.354 37.4798 99.1268 37.3949C98.5974 37.1971 98.0425 37.0759 97.4789 37.035C94.2489 36.7981 91.3998 39.2313 91.1295 42.4587C90.8526 45.7633 93.3344 48.6529 96.6432 48.8779C99.8741 49.0976 102.709 46.6489 102.963 43.4207C103.007 42.8579 102.972 42.2917 102.856 41.7391Z" fill="url(#paint5_radial_300_25655)"/>
<path d="M100.843 41.6925C101.424 41.1121 101.424 40.1711 100.843 39.5907C100.263 39.0102 99.3218 39.0102 98.7414 39.5907C98.161 40.1711 98.161 41.1121 98.7414 41.6925C99.3218 42.273 100.263 42.273 100.843 41.6925Z" fill="url(#paint6_linear_300_25655)"/>
<g style="mix-blend-mode:multiply" opacity="0.12">
<path d="M94.8127 39.5024C94.6716 42.639 97.0222 45.3762 100.144 45.7108C100.904 45.7933 101.672 45.7293 102.408 45.5222C102.422 45.5182 102.435 45.5113 102.446 45.5019C102.457 45.4925 102.465 45.4808 102.471 45.4676C102.996 44.309 103.139 43.0138 102.88 41.7686C102.83 41.5289 102.501 41.501 102.407 41.7267C102.154 42.3316 101.701 42.8309 101.123 43.1404C100.545 43.4499 99.8786 43.5506 99.2351 43.4256C97.9441 43.1807 96.9815 42.0591 96.9338 40.7461C96.9075 40.0911 97.1079 39.4471 97.5012 38.9228C97.8946 38.3984 98.4567 38.0258 99.0928 37.8677C99.3305 37.8087 99.3523 37.4795 99.1228 37.3936C97.9311 36.9495 96.6291 36.8953 95.4046 37.2387C95.3907 37.2426 95.3778 37.2495 95.3668 37.2589C95.3558 37.2684 95.3471 37.2801 95.3411 37.2932C95.0253 37.9891 94.8459 38.739 94.8127 39.5024Z" fill="#3680B2"/>
</g>
<g style="mix-blend-mode:lighten" opacity="0.18">
<path d="M96.588 48.8747C98.6291 49.0298 100.507 48.131 101.688 46.6373C100.664 47.22 99.4893 47.4827 98.315 47.3916C95.0532 47.1438 92.6099 44.2986 92.8577 41.0368C92.945 39.8622 93.3822 38.7407 94.1129 37.8169C92.4579 38.7581 91.2853 40.4787 91.1306 42.5199C90.8827 45.7817 93.3261 48.6269 96.588 48.8747Z" fill="#F769ED"/>
</g>
</g>
<path d="M50.3956 143.317C50.3956 143.317 74.5988 119.532 83.6842 118.465C92.8063 117.397 115.796 115.593 116.715 124.834C117.635 134.076 103.841 139.157 89.9373 140.445C89.9373 140.445 77.5782 150.202 77.4679 157.897C77.3207 165.593 58.7454 159.996 58.7454 159.996L50.3956 143.317Z" fill="#F7DAC1"/>
<path d="M133.322 104.87H128.114V87.9132C128.114 86.8754 127.702 85.88 126.969 85.1462C126.237 84.4124 125.243 84 124.207 84H107.28C106.244 84 105.251 84.4124 104.518 85.1462C103.786 85.88 103.374 86.8753 103.374 87.9132V107.478C103.374 109.208 104.06 110.867 105.281 112.09C106.502 113.313 108.158 114 109.884 114H128.114C129.84 114 131.496 113.313 132.717 112.09C133.938 110.867 134.624 109.208 134.624 107.478V106.174C134.624 105.828 134.487 105.496 134.243 105.252C133.998 105.007 133.667 104.87 133.322 104.87L133.322 104.87ZM105.978 107.478V87.9133C105.978 87.5673 106.115 87.2355 106.36 86.991C106.604 86.7462 106.935 86.6088 107.28 86.6088H124.207C124.552 86.6088 124.884 86.7462 125.128 86.991C125.372 87.2355 125.509 87.5673 125.509 87.9133V104.87H115.092C114.747 104.87 114.416 105.007 114.172 105.252C113.928 105.496 113.79 105.828 113.79 106.174V107.478C113.79 108.876 113.046 110.168 111.837 110.867C110.629 111.566 109.139 111.566 107.931 110.867C106.722 110.168 105.978 108.876 105.978 107.478L105.978 107.478ZM128.113 111.391H115.06C115.922 110.269 116.39 108.894 116.395 107.478H132.02C132.02 108.516 131.608 109.511 130.876 110.245C130.143 110.979 129.149 111.391 128.114 111.391L128.113 111.391Z" fill="#B3B3B3"/>
<path d="M109.884 91.8264H121.603C122.068 91.8264 122.498 91.5778 122.73 91.1743C122.963 90.7706 122.963 90.2734 122.73 89.8699C122.498 89.4664 122.068 89.2178 121.603 89.2178H109.884C109.419 89.2178 108.989 89.4664 108.756 89.8699C108.524 90.2734 108.524 90.7706 108.756 91.1743C108.989 91.5779 109.419 91.8264 109.884 91.8264Z" fill="#B3B3B3"/>
<path d="M109.884 97.0435H121.603C122.068 97.0435 122.498 96.7949 122.73 96.3914C122.963 95.9879 122.963 95.4906 122.73 95.0872C122.498 94.6837 122.068 94.4351 121.603 94.4351H109.884C109.419 94.4351 108.989 94.6837 108.756 95.0872C108.524 95.4907 108.524 95.9879 108.756 96.3914C108.989 96.7949 109.419 97.0435 109.884 97.0435Z" fill="#B3B3B3"/>
<path d="M121.603 102.261C122.068 102.261 122.498 102.012 122.73 101.609C122.963 101.205 122.963 100.708 122.73 100.304C122.498 99.9009 122.068 99.6523 121.603 99.6523H109.884C109.419 99.6523 108.989 99.901 108.756 100.304C108.524 100.708 108.524 101.205 108.756 101.609C108.989 102.012 109.419 102.261 109.884 102.261H121.603Z" fill="#B3B3B3"/>
</g>
<defs>
<filter id="filter0_d_300_25655" x="83.999" y="31" width="65" height="25" filterUnits="userSpaceOnUse" color-interpolation-filters="sRGB">
<feFlood flood-opacity="0" result="BackgroundImageFix"/>
<feColorMatrix in="SourceAlpha" type="matrix" values="0 0 0 0 0 0 0 0 0 0 0 0 0 0 0 0 0 0 127 0" result="hardAlpha"/>
<feOffset/>
<feGaussianBlur stdDeviation="1.5"/>
<feComposite in2="hardAlpha" operator="out"/>
<feColorMatrix type="matrix" values="0 0 0 0 0 0 0 0 0 0 0 0 0 0 0 0 0 0 0.15 0"/>
<feBlend mode="normal" in2="BackgroundImageFix" result="effect1_dropShadow_300_25655"/>
<feBlend mode="normal" in="SourceGraphic" in2="effect1_dropShadow_300_25655" result="shape"/>
</filter>
<linearGradient id="paint0_linear_300_25655" x1="37.9057" y1="187.123" x2="189.129" y2="33.3125" gradientUnits="userSpaceOnUse">
<stop offset="0.0416667" stop-color="#47BAD8"/>
<stop offset="0.34375" stop-color="#6A6CE9"/>
<stop offset="0.609375" stop-color="#9454E6"/>
<stop offset="1" stop-color="#CE57D3"/>
</linearGradient>
<linearGradient id="paint1_linear_300_25655" x1="31.8129" y1="193.519" x2="195.283" y2="27.2521" gradientUnits="userSpaceOnUse">
<stop offset="0.0416667" stop-color="#47BAD8"/>
<stop offset="0.34375" stop-color="#6A6CE9"/>
<stop offset="0.609375" stop-color="#9454E6"/>
<stop offset="1" stop-color="#CE57D3"/>
</linearGradient>
<linearGradient id="paint2_linear_300_25655" x1="179.125" y1="172.2" x2="76.0645" y2="72.0908" gradientUnits="userSpaceOnUse">
<stop offset="0.01" stop-color="#FF55AA"/>
<stop offset="0.25" stop-color="#B850C9"/>
<stop offset="0.62" stop-color="#6572D6"/>
<stop offset="1" stop-color="#4EAEB8"/>
</linearGradient>
<linearGradient id="paint3_linear_300_25655" x1="43.3585" y1="181.209" x2="183.615" y2="38.5525" gradientUnits="userSpaceOnUse">
<stop offset="0.0416667" stop-color="#47BAD8"/>
<stop offset="0.34375" stop-color="#6A6CE9"/>
<stop offset="0.609375" stop-color="#9454E6"/>
<stop offset="1" stop-color="#CE57D3"/>
</linearGradient>
<linearGradient id="paint4_linear_300_25655" x1="43.3585" y1="181.397" x2="183.615" y2="38.7405" gradientUnits="userSpaceOnUse">
<stop offset="0.0416667" stop-color="#47BAD8"/>
<stop offset="0.34375" stop-color="#6A6CE9"/>
<stop offset="0.609375" stop-color="#9454E6"/>
<stop offset="1" stop-color="#CE57D3"/>
</linearGradient>
<radialGradient id="paint5_radial_300_25655" cx="0" cy="0" r="1" gradientUnits="userSpaceOnUse" gradientTransform="translate(102.179 38.7038) scale(12.3313)">
<stop stop-color="#0EE6A2"/>
<stop offset="0.22" stop-color="#43C1D6"/>
<stop offset="0.66" stop-color="#844EF3"/>
<stop offset="0.94" stop-color="#CD56D2"/>
</radialGradient>
<linearGradient id="paint6_linear_300_25655" x1="98.8231" y1="41.7051" x2="100.819" y2="39.6106" gradientUnits="userSpaceOnUse">
<stop offset="0.0364583" stop-color="#5CA1DF"/>
<stop offset="0.510417" stop-color="#45C0D7"/>
<stop offset="1" stop-color="#39C9CD"/>
</linearGradient>
<clipPath id="clip0_300_25655">
<rect width="160.309" height="172.21" fill="white" transform="matrix(-1 0 0 1 193.3 16.0015)"/>
</clipPath>
<clipPath id="clip1_300_25655">
<rect width="16" height="16" fill="white" transform="translate(88.999 35)"/>
</clipPath>
</defs>
</svg>
