<svg width="92" height="98" viewBox="0 0 92 102" fill="none" xmlns="http://www.w3.org/2000/svg">
<g filter="url(#filter0_d_1781_12626)">
<rect x="14" y="14" width="64" height="64" rx="32" fill="white"/>
</g>
<path d="M62.0057 44.371C62.0057 40.5278 60.5151 36.9176 57.8016 34.2041C55.0997 31.5256 51.443 30.0116 47.6348 30C43.2326 30 39.1217 31.9914 36.3034 35.5318C34.277 38.0822 33.2172 41.2266 33.2172 44.4758V46.7816C33.2172 47.9812 32.3904 49.0992 30.7367 49.204C30.3407 49.2389 30.003 49.5068 30.003 49.9027C29.9331 50.9974 31.0977 52.9889 32.6815 54.5727C33.7762 55.7023 35.0689 56.5991 36.4548 57.2862C36.2451 58.4508 36.5596 59.6503 37.3282 60.5587C38.0852 61.467 39.2148 61.9911 40.4027 61.9911C42.3592 61.9911 43.943 60.6285 44.3157 58.8118H47.6581C48.089 61.0711 50.4414 62.62 52.9569 61.7582C55.1463 61.0245 56.1013 58.5439 55.3094 56.5176C56.1712 55.9586 56.998 55.2947 57.755 54.5611C60.4918 51.8709 62.0174 48.2024 62.0057 44.371ZM47.6231 57.1814H44.3506C43.9896 55.3646 42.3592 53.9671 40.4376 53.9671C39.0169 53.9671 37.7824 54.7008 37.0604 55.7839V55.8188C35.8725 55.2249 34.7778 54.398 33.8461 53.4314C32.7165 52.3018 32.0876 51.2769 31.8314 50.6131C32.5651 50.4501 33.2172 50.0541 33.7529 49.4835C34.4517 48.7498 34.8127 47.7599 34.8127 46.77V44.3826C34.8127 41.5643 35.7444 38.781 37.4913 36.5682C39.9718 33.3889 43.6519 31.5955 47.6231 31.5955C51.0354 31.5955 54.2496 32.9231 56.6719 35.3338C59.0943 37.7561 60.4102 40.9704 60.4102 44.3826C60.4102 47.7948 59.0826 51.0091 56.6719 53.4314C54.2729 55.8305 51.0237 57.1814 47.6231 57.1814ZM55.6122 41.1916C55.6122 42.0651 54.9018 42.7755 54.0283 42.7755C53.1549 42.7755 52.4328 42.0651 52.4328 41.1916C52.4328 40.3182 53.1432 39.5962 54.0283 39.5962C54.9018 39.5962 55.6122 40.3066 55.6122 41.1916ZM46.0044 41.1916C46.0044 42.0651 45.294 42.7755 44.4205 42.7755C43.5471 42.7755 42.825 42.0651 42.825 41.1916C42.825 40.3182 43.5354 39.5962 44.4205 39.5962C45.294 39.5962 46.0044 40.3066 46.0044 41.1916ZM44.9096 46.4206C44.7815 46.1528 44.4787 45.9548 44.176 45.9548C43.5937 45.9548 43.2094 46.5487 43.4423 47.0844C44.4671 49.2389 46.6565 50.7645 49.2419 50.7645C51.8273 50.7645 54.0167 49.2738 55.0415 47.0844C55.2744 46.5604 54.9134 45.9548 54.3078 45.9548H54.2729C53.9701 45.9548 53.7139 46.1178 53.5741 46.4206C52.8172 48.0394 51.1518 49.169 49.2302 49.169C47.332 49.169 45.6783 48.0394 44.9096 46.4206Z" fill="black"/>
<defs>
<filter id="filter0_d_1781_12626" x="0" y="0" width="92" height="92" filterUnits="userSpaceOnUse" color-interpolation-filters="sRGB">
<feFlood flood-opacity="0" result="BackgroundImageFix"/>
<feColorMatrix in="SourceAlpha" type="matrix" values="0 0 0 0 0 0 0 0 0 0 0 0 0 0 0 0 0 0 127 0" result="hardAlpha"/>
<feOffset/>
<feGaussianBlur stdDeviation="7"/>
<feComposite in2="hardAlpha" operator="out"/>
<feColorMatrix type="matrix" values="0 0 0 0 0 0 0 0 0 0 0 0 0 0 0 0 0 0 0.24 0"/>
<feBlend mode="normal" in2="BackgroundImageFix" result="effect1_dropShadow_1781_12626"/>
<feBlend mode="normal" in="SourceGraphic" in2="effect1_dropShadow_1781_12626" result="shape"/>
</filter>
</defs>
</svg>
