<svg width="92" height="100" viewBox="0 0 92 102" fill="none" xmlns="http://www.w3.org/2000/svg">
<g filter="url(#filter0_d_1781_12641)">
<rect x="14" y="14" width="64" height="64" rx="32" fill="white"/>
</g>
<path d="M30.3201 46.5286C30.6501 52.8542 36.9754 57.9948 44.9874 58.5781C45.6658 58.6328 46.3442 58.651 47.0225 58.6146C54.9796 58.3958 61.4699 53.5286 62.3866 47.4766C62.4966 46.8021 62.5333 46.0911 62.5333 45.3802C62.4966 44.0495 62.2399 42.7734 61.6899 41.6068C59.6365 37.2318 54.5396 33.987 48.3976 33.4219C47.5909 33.349 46.7842 33.3125 45.9591 33.3307C44.8591 33.349 43.7774 33.4766 42.7507 33.6589C37.7638 34.4792 31.2918 38.2708 30.4301 44.5964C30.3017 45.2891 30.3201 46.0547 30.3201 46.5286ZM46.5092 32C56.1713 32 64 38.2708 64 46C64 53.7292 56.1713 60 46.5092 60C37.7821 60 30.5584 54.8958 29.2383 48.2057C29.0917 47.5312 29 46.7656 29 46C29 39.4922 34.4453 34.4245 41.0639 32.6927C42.8057 32.237 44.6024 32 46.5092 32ZM42.0356 45.9453L37.6904 53.7656L33.3452 45.9453L37.6904 38.125L42.0356 45.9453ZM59.5265 45.9453L55.1812 53.7656L50.836 45.9453L55.1812 38.125L59.5265 45.9453ZM50.781 45.9453L46.4358 53.7656L42.0906 45.9453L46.4358 38.125L50.781 45.9453Z" fill="#CE0E2D"/>
<defs>
<filter id="filter0_d_1781_12641" x="0" y="0" width="92" height="92" filterUnits="userSpaceOnUse" color-interpolation-filters="sRGB">
<feFlood flood-opacity="0" result="BackgroundImageFix"/>
<feColorMatrix in="SourceAlpha" type="matrix" values="0 0 0 0 0 0 0 0 0 0 0 0 0 0 0 0 0 0 127 0" result="hardAlpha"/>
<feOffset/>
<feGaussianBlur stdDeviation="7"/>
<feComposite in2="hardAlpha" operator="out"/>
<feColorMatrix type="matrix" values="0 0 0 0 0 0 0 0 0 0 0 0 0 0 0 0 0 0 0.24 0"/>
<feBlend mode="normal" in2="BackgroundImageFix" result="effect1_dropShadow_1781_12641"/>
<feBlend mode="normal" in="SourceGraphic" in2="effect1_dropShadow_1781_12641" result="shape"/>
</filter>
</defs>
</svg>
