<svg width="92" height="98" viewBox="0 0 92 102" fill="none" xmlns="http://www.w3.org/2000/svg">
<g filter="url(#filter0_d_1781_12647)">
<rect x="14" y="14" width="64" height="64" rx="32" fill="white"/>
</g>
<path d="M45.9929 30C38.8249 30 33 35.9117 33 43.1943C33 53.1043 45.9929 63 45.9929 63C45.9929 63 58.9859 53.1043 58.9859 43.2086C59 35.9117 53.1751 30 45.9929 30Z" fill="#FF6400"/>
<path d="M53.3731 41.952C53.3731 42.7374 52.7368 43.3657 51.9592 43.3657C51.1817 43.3657 50.5596 42.7231 50.5596 41.952C50.5596 41.1666 51.1958 40.5383 51.9592 40.5383C52.7368 40.5383 53.3731 41.1666 53.3731 41.952ZM40.1398 40.5383C39.5743 40.5383 39.0511 40.881 38.8391 41.4094C38.6129 41.9377 38.7401 42.5517 39.136 42.9659C39.5318 43.38 40.1398 43.4942 40.677 43.28C41.2001 43.0658 41.5536 42.5375 41.5536 41.9663C41.5395 41.1666 40.9174 40.5383 40.1398 40.5383ZM49.8668 44.7222C49.6547 44.708 49.4285 44.7936 49.273 44.9364C49.2589 44.9507 48.0713 45.9931 46.1768 45.9931C44.2681 45.9931 42.8119 44.8079 42.7977 44.7936C42.6281 44.6508 42.416 44.5794 42.1898 44.608C41.9777 44.6223 41.7657 44.7365 41.6243 44.9079C41.3274 45.2649 41.3839 45.7932 41.7232 46.0931C41.9212 46.2501 43.6884 47.6781 46.1626 47.6781C48.7075 47.6781 50.3051 46.2644 50.3616 46.193C50.701 45.8789 50.7292 45.3505 50.4323 45.0078C50.3051 44.8365 50.093 44.7365 49.8668 44.7222Z" fill="#11100D"/>
<defs>
<filter id="filter0_d_1781_12647" x="0" y="0" width="92" height="92" filterUnits="userSpaceOnUse" color-interpolation-filters="sRGB">
<feFlood flood-opacity="0" result="BackgroundImageFix"/>
<feColorMatrix in="SourceAlpha" type="matrix" values="0 0 0 0 0 0 0 0 0 0 0 0 0 0 0 0 0 0 127 0" result="hardAlpha"/>
<feOffset/>
<feGaussianBlur stdDeviation="7"/>
<feComposite in2="hardAlpha" operator="out"/>
<feColorMatrix type="matrix" values="0 0 0 0 0 0 0 0 0 0 0 0 0 0 0 0 0 0 0.24 0"/>
<feBlend mode="normal" in2="BackgroundImageFix" result="effect1_dropShadow_1781_12647"/>
<feBlend mode="normal" in="SourceGraphic" in2="effect1_dropShadow_1781_12647" result="shape"/>
</filter>
</defs>
</svg>
