<svg width="20" height="20" viewBox="0 0 20 20" fill="none" xmlns="http://www.w3.org/2000/svg">
<path d="M18.7107 8.26975C18.2733 8.03508 17.8963 7.83205 17.7557 7.38196C17.615 6.93262 17.8058 6.53716 18.027 6.07947C18.3181 5.47851 18.6794 4.72963 18.0906 3.88578C17.5024 3.04225 16.7056 3.16967 16.0672 3.27131C15.58 3.3486 15.1593 3.41472 14.7932 3.13783C14.4254 2.8597 14.3574 2.42295 14.2776 1.91759C14.1728 1.25314 14.043 0.426057 13.0905 0.10414C12.1066 -0.227848 11.6077 0.302805 11.2067 0.730411C10.9016 1.05681 10.6131 1.36491 10.06 1.50878C9.67506 1.60827 9.37867 1.34364 8.93295 0.899117C8.43948 0.405872 7.82258 -0.205657 6.9096 0.104299C5.95697 0.426355 5.82728 1.2533 5.72248 1.91775C5.64273 2.42311 5.57474 2.85986 5.20649 3.13799C4.8396 3.41658 4.41709 3.34969 3.93335 3.27147C3.29173 3.16981 2.49828 3.04285 1.90928 3.88641C1.32025 4.73042 1.68179 5.47867 1.97309 6.08011C2.19388 6.53767 2.38546 6.93313 2.24531 7.38216C2.10458 7.83241 1.72681 8.03529 1.28986 8.26995C0.715018 8.57896 0 8.96309 0 10.0061C0 11.0491 0.71498 11.4332 1.28986 11.7422C1.72696 11.9769 2.10475 12.1799 2.24531 12.6292C2.3856 13.079 2.19403 13.4744 1.97309 13.932C1.68208 14.5334 1.32028 15.2819 1.90928 16.1257C2.4974 16.9692 3.29425 16.8432 3.93335 16.7407C4.42057 16.6641 4.84038 16.5963 5.20649 16.8741C5.57472 17.1523 5.64272 17.589 5.72248 18.0944C5.82729 18.7588 5.95714 19.5859 6.9096 19.9078C7.85926 20.2289 8.43486 19.641 8.89402 19.1673C9.24346 18.8071 9.5461 18.4954 9.99977 18.4954C10.4539 18.4954 10.7562 18.8071 11.1055 19.1673C11.4733 19.5466 11.9142 20 12.564 20C12.7259 20 12.9005 19.9722 13.0904 19.9078C14.043 19.5858 14.1727 18.7588 14.2775 18.0944C14.3573 17.589 14.4253 17.1523 14.793 16.8741C15.1613 16.5965 15.5829 16.6643 16.0671 16.7406C16.7053 16.8428 17.5022 16.9693 18.0904 16.1257C18.6795 15.2817 18.3179 14.5334 18.0269 13.9323C17.8057 13.4748 17.6149 13.0793 17.7556 12.629C17.8963 12.1797 18.2732 11.9767 18.7106 11.742C19.2846 11.433 20 11.0489 20 10.0059C20.0003 8.96292 19.2847 8.57878 18.7108 8.26978L18.7107 8.26975ZM14.2775 13.1609C14.0913 13.8697 13.4719 14.3364 12.7977 14.3364C12.6646 14.3364 12.5294 14.3181 12.3949 14.2804C11.58 14.0488 11.0976 13.1696 11.3196 12.3209V12.3204C11.5424 11.4713 12.3886 10.9685 13.2026 11.2009C14.0169 11.4322 14.4995 12.3117 14.2775 13.1609V13.1609ZM5.72246 6.83658V6.83612C5.94579 5.98699 6.79226 5.48456 7.60552 5.7166C8.42041 5.94786 8.90282 6.82694 8.68085 7.67607C8.49465 8.38491 7.87477 8.85209 7.20063 8.85209C7.0675 8.85209 6.93228 8.83377 6.7978 8.79559C5.9829 8.56402 5.5008 7.68478 5.72246 6.83656V6.83658ZM6.31104 13.383L13.0227 5.95928C13.1964 5.7676 13.4865 5.75767 13.6706 5.93848C13.8552 6.1193 13.8643 6.42132 13.6906 6.61331L6.97894 14.0374C6.8883 14.1369 6.7665 14.1873 6.645 14.1873C6.53185 14.1873 6.41914 14.1448 6.33074 14.0579C6.14618 13.8771 6.13738 13.5751 6.31106 13.3829L6.31104 13.383Z" fill="black"/>
</svg>
