<svg width="81" height="81" viewBox="0 0 81 81" fill="none" xmlns="http://www.w3.org/2000/svg">
<path d="M36.45 64.8H44.55V56.7H36.45V64.8ZM40.5 0C35.1815 0 29.915 1.04756 25.0013 3.08288C20.0876 5.11819 15.6229 8.1014 11.8622 11.8622C4.26695 19.4574 0 29.7587 0 40.5C0 51.2413 4.26695 61.5426 11.8622 69.1378C15.6229 72.8986 20.0876 75.8818 25.0013 77.9171C29.915 79.9524 35.1815 81 40.5 81C51.2413 81 61.5426 76.7331 69.1378 69.1378C76.7331 61.5426 81 51.2413 81 40.5C81 35.1815 79.9524 29.915 77.9171 25.0013C75.8818 20.0876 72.8986 15.6229 69.1378 11.8622C65.3771 8.1014 60.9124 5.11819 55.9987 3.08288C51.085 1.04756 45.8185 0 40.5 0ZM40.5 72.9C22.6395 72.9 8.1 58.3605 8.1 40.5C8.1 22.6395 22.6395 8.1 40.5 8.1C58.3605 8.1 72.9 22.6395 72.9 40.5C72.9 58.3605 58.3605 72.9 40.5 72.9ZM40.5 16.2C36.2035 16.2 32.083 17.9068 29.0449 20.9449C26.0068 23.983 24.3 28.1035 24.3 32.4H32.4C32.4 30.2517 33.2534 28.1915 34.7724 26.6724C36.2915 25.1534 38.3517 24.3 40.5 24.3C42.6483 24.3 44.7085 25.1534 46.2276 26.6724C47.7466 28.1915 48.6 30.2517 48.6 32.4C48.6 40.5 36.45 39.4875 36.45 52.65H44.55C44.55 43.5375 56.7 42.525 56.7 32.4C56.7 28.1035 54.9932 23.983 51.9551 20.9449C48.917 17.9068 44.7965 16.2 40.5 16.2Z" fill="black"/>
</svg>
