<svg width="183" height="182" viewBox="0 0 183 182" fill="none" xmlns="http://www.w3.org/2000/svg">
<circle opacity="0.2" cx="91.5" cy="91" r="80.5" stroke="url(#paint0_linear_3120_31919)"/>
<circle opacity="0.2" cx="91.5" cy="91" r="85.5" stroke="url(#paint1_linear_3120_31919)"/>
<circle cx="91.5" cy="91" r="75.5" fill="url(#paint2_linear_3120_31919)" fill-opacity="0.2" stroke="url(#paint3_linear_3120_31919)"/>
<g style="mix-blend-mode:multiply" opacity="0.2">
<path d="M140.5 132C140.5 134.761 107.5 137.5 95.5 137C83.5 136.5 40 134.761 40 132C40 129.239 61.438 123.5 88.5 123.5C115.562 123.5 140.5 129.239 140.5 132Z" fill="#241833"/>
</g>
<path d="M46.5 86.6001H104.986V135L46.5 132.372V86.6001Z" fill="#9379EA"/>
<circle cx="76" cy="109.5" r="20.5" fill="#5938C6"/>
<mask id="mask0_3120_31919" style="mask-type:alpha" maskUnits="userSpaceOnUse" x="55" y="87" width="42" height="42">
<circle cx="75.9014" cy="107.901" r="19.4014" fill="#DFE2FF" stroke="#141414" stroke-width="1.60178"/>
</mask>
<g mask="url(#mask0_3120_31919)">
<ellipse cx="75.9344" cy="109.239" rx="18.4149" ry="18.7218" fill="#E1D6F9"/>
<path d="M67.9262 97.5547L66.9489 110.615C66.8899 111.404 67.3909 112.127 68.1505 112.348L69.8138 112.833L69.0631 130.223C69.0266 131.067 69.4094 131.874 70.0857 132.38L70.1492 132.428C71.0593 133.109 72.3179 133.077 73.1919 132.35V132.35C73.7818 131.859 74.1087 131.122 74.0756 130.355L73.3192 112.833L74.97 112.352C75.7352 112.129 76.2373 111.398 76.1704 110.603L75.0719 97.5547M72.6916 97.5547V106.203M70.3531 97.5547V106.203" stroke="#371EA3" stroke-width="1.60178" stroke-linecap="round" stroke-linejoin="round"/>
<path d="M85.5042 130.477L84.3502 117.683L85.1808 115.714C86.1938 113.312 86.588 110.694 86.3274 108.1L86.1386 106.222C85.8015 102.867 84.0085 99.8281 81.2341 97.9109C81.0162 97.7602 80.7188 97.9162 80.7188 98.1812V130.352C80.7188 131.149 81.0958 131.899 81.7355 132.374L81.9011 132.497C82.759 133.134 83.9456 133.084 84.7471 132.377C85.2877 131.9 85.5689 131.195 85.5042 130.477Z" stroke="#371EA3" stroke-width="1.60178" stroke-linecap="round" stroke-linejoin="round"/>
</g>
<path d="M60.9098 51V69.6476H53.2812L60.9098 51Z" fill="#7D5EE5"/>
<path d="M53.281 69.6475H111.767L104.986 86.5998H46.5L53.281 69.6475Z" fill="#AD92F5"/>
<path d="M128.719 69.6475H111.767L104.986 86.5998H135.5L128.719 69.6475Z" fill="#7D5EE5"/>
<path d="M135.5 86.6001H104.986V135L135.5 132.372V86.6001Z" fill="#6D4BDF"/>
<path d="M119.395 51H121.937C125.682 51 128.718 54.0359 128.718 57.781V69.6476H119.395V51Z" fill="#AE9AEF"/>
<path fill-rule="evenodd" clip-rule="evenodd" d="M119.396 51H60.9102V69.6476H119.396V51ZM78.501 57C76.8441 57 75.501 58.3431 75.501 60C75.501 61.6569 76.8441 63 78.501 63H100.501C102.158 63 103.501 61.6569 103.501 60C103.501 58.3431 102.158 57 100.501 57H78.501Z" fill="#AE9AEF"/>
<path d="M119.394 51V69.6476H111.766L119.394 51Z" fill="#7D5EE5"/>
<circle opacity="0.1" cx="151" cy="38" r="32" fill="url(#paint4_linear_3120_31919)"/>
<circle cx="151.002" cy="38.0002" r="22.8571" fill="url(#paint5_linear_3120_31919)"/>
<path d="M151 24C143.271 24 137 30.2708 137 38C137 45.7292 143.271 52 151 52C158.729 52 165 45.7292 165 38C165 30.2708 158.729 24 151 24Z" stroke="white" stroke-width="2.8" stroke-miterlimit="10"/>
<path d="M151 30V39H157" stroke="white" stroke-width="2.8" stroke-linecap="round" stroke-linejoin="round"/>
<defs>
<linearGradient id="paint0_linear_3120_31919" x1="44.0333" y1="-5.53333" x2="152.3" y2="251.533" gradientUnits="userSpaceOnUse">
<stop offset="0.219581" stop-color="#DDF5FB"/>
<stop offset="1" stop-color="#DA0095"/>
</linearGradient>
<linearGradient id="paint1_linear_3120_31919" x1="41.0667" y1="-11.5667" x2="156.1" y2="261.567" gradientUnits="userSpaceOnUse">
<stop offset="0.219581" stop-color="#DDF5FB"/>
<stop offset="1" stop-color="#DA0095"/>
</linearGradient>
<linearGradient id="paint2_linear_3120_31919" x1="47" y1="0.500002" x2="148.5" y2="241.5" gradientUnits="userSpaceOnUse">
<stop offset="0.219581" stop-color="#DDF5FB"/>
<stop offset="1" stop-color="#DA0095"/>
</linearGradient>
<linearGradient id="paint3_linear_3120_31919" x1="47" y1="0.500002" x2="148.5" y2="241.5" gradientUnits="userSpaceOnUse">
<stop offset="0.219581" stop-color="#DDF5FB"/>
<stop offset="1" stop-color="#DA0095"/>
</linearGradient>
<linearGradient id="paint4_linear_3120_31919" x1="126.149" y1="18" x2="172.209" y2="83.9495" gradientUnits="userSpaceOnUse">
<stop stop-color="#CE57D3"/>
<stop offset="0.349738" stop-color="#9454E6"/>
<stop offset="0.635417" stop-color="#6A6CE9"/>
<stop offset="1" stop-color="#47BAD8"/>
</linearGradient>
<linearGradient id="paint5_linear_3120_31919" x1="133.251" y1="23.7145" x2="166.151" y2="70.8213" gradientUnits="userSpaceOnUse">
<stop stop-color="#CE57D3"/>
<stop offset="0.349738" stop-color="#9454E6"/>
<stop offset="0.635417" stop-color="#6A6CE9"/>
<stop offset="1" stop-color="#47BAD8"/>
</linearGradient>
</defs>
</svg>
