<svg width="183" height="182" viewBox="0 0 183 182" fill="none" xmlns="http://www.w3.org/2000/svg">
<circle opacity="0.2" cx="91.5" cy="91" r="80.5" stroke="url(#paint0_linear_2802_23291)"/>
<circle opacity="0.2" cx="91.5" cy="91" r="85.5" stroke="url(#paint1_linear_2802_23291)"/>
<circle cx="91.5" cy="91" r="75.5" fill="url(#paint2_linear_2802_23291)" fill-opacity="0.2" stroke="url(#paint3_linear_2802_23291)"/>
<g style="mix-blend-mode:multiply" opacity="0.2">
<path d="M140.5 132C140.5 134.761 107.5 137.5 95.5 137C83.5 136.5 40 134.761 40 132C40 129.239 61.438 123.5 88.5 123.5C115.562 123.5 140.5 129.239 140.5 132Z" fill="#241833"/>
</g>
<path d="M46.5 86.5996H104.986V135L46.5 132.371V86.5996Z" fill="#9379EA"/>
<circle cx="76" cy="109.5" r="20.5" fill="#5938C6"/>
<mask id="mask0_2802_23291" style="mask-type:alpha" maskUnits="userSpaceOnUse" x="55" y="87" width="42" height="42">
<circle cx="75.9014" cy="107.901" r="19.4014" fill="#DFE2FF" stroke="#141414" stroke-width="1.60178"/>
</mask>
<g mask="url(#mask0_2802_23291)">
<ellipse cx="75.9334" cy="109.238" rx="18.4149" ry="18.7218" fill="#E1D6F9"/>
<path d="M67.9243 97.5547L66.947 110.615C66.8879 111.404 67.389 112.127 68.1486 112.348L69.8118 112.833L69.0611 130.223C69.0247 131.067 69.4074 131.874 70.0838 132.38L70.1473 132.428C71.0574 133.109 72.3159 133.077 73.19 132.35V132.35C73.7799 131.859 74.1068 131.122 74.0737 130.355L73.3172 112.833L74.9681 112.352C75.7333 112.129 76.2353 111.398 76.1684 110.603L75.07 97.5547M72.6897 97.5547V106.203M70.3511 97.5547V106.203" stroke="#371EA3" stroke-width="1.60178" stroke-linecap="round" stroke-linejoin="round"/>
<path d="M85.5051 130.477L84.3511 117.683L85.1818 115.714C86.1948 113.312 86.589 110.694 86.3283 108.1L86.1396 106.222C85.8024 102.867 84.0095 99.8281 81.2351 97.9109C81.0172 97.7602 80.7197 97.9162 80.7197 98.1812V130.352C80.7197 131.149 81.0968 131.899 81.7364 132.374L81.9021 132.497C82.76 133.134 83.9466 133.084 84.748 132.377C85.2887 131.9 85.5699 131.195 85.5051 130.477Z" stroke="#371EA3" stroke-width="1.60178" stroke-linecap="round" stroke-linejoin="round"/>
</g>
<path d="M60.9098 51V69.6476H53.2812L60.9098 51Z" fill="#7D5EE5"/>
<path d="M53.281 69.6475H111.767L104.986 86.5998H46.5L53.281 69.6475Z" fill="#AD92F5"/>
<path d="M128.719 69.6475H111.767L104.986 86.5998H135.5L128.719 69.6475Z" fill="#7D5EE5"/>
<path d="M135.5 86.5996H104.986V135L135.5 132.371V86.5996Z" fill="#6D4BDF"/>
<path d="M119.396 51H121.938C125.683 51 128.719 54.0359 128.719 57.781V69.6476H119.396V51Z" fill="#AE9AEF"/>
<path fill-rule="evenodd" clip-rule="evenodd" d="M119.395 51H60.9092V69.6476H119.395V51ZM78.5 57C76.8431 57 75.5 58.3431 75.5 60C75.5 61.6569 76.8431 63 78.5 63H100.5C102.157 63 103.5 61.6569 103.5 60C103.5 58.3431 102.157 57 100.5 57H78.5Z" fill="#AE9AEF"/>
<path d="M119.395 51V69.6476H111.767L119.395 51Z" fill="#7D5EE5"/>
<circle opacity="0.1" cx="151" cy="38" r="32" fill="#32D74B"/>
<circle cx="151" cy="37.9997" r="22.8571" fill="#32D74B"/>
<path d="M140.714 37.9997L147.571 44.8569L162.428 31.1426" stroke="white" stroke-width="4.57143"/>
<defs>
<linearGradient id="paint0_linear_2802_23291" x1="44.0333" y1="-5.53333" x2="152.3" y2="251.533" gradientUnits="userSpaceOnUse">
<stop offset="0.219581" stop-color="#DDF5FB"/>
<stop offset="1" stop-color="#DA0095"/>
</linearGradient>
<linearGradient id="paint1_linear_2802_23291" x1="41.0667" y1="-11.5667" x2="156.1" y2="261.567" gradientUnits="userSpaceOnUse">
<stop offset="0.219581" stop-color="#DDF5FB"/>
<stop offset="1" stop-color="#DA0095"/>
</linearGradient>
<linearGradient id="paint2_linear_2802_23291" x1="47" y1="0.500002" x2="148.5" y2="241.5" gradientUnits="userSpaceOnUse">
<stop offset="0.219581" stop-color="#DDF5FB"/>
<stop offset="1" stop-color="#DA0095"/>
</linearGradient>
<linearGradient id="paint3_linear_2802_23291" x1="47" y1="0.500002" x2="148.5" y2="241.5" gradientUnits="userSpaceOnUse">
<stop offset="0.219581" stop-color="#DDF5FB"/>
<stop offset="1" stop-color="#DA0095"/>
</linearGradient>
</defs>
</svg>
