<svg width="41" height="40" viewBox="0 0 41 40" fill="none" xmlns="http://www.w3.org/2000/svg">
<circle opacity="0.1" cx="20.2" cy="19.9998" r="19.9998" fill="url(#paint0_linear_12329_49032)"/>
<mask id="mask0_12329_49032" style="mask-type:alpha" maskUnits="userSpaceOnUse" x="0" y="0" width="41" height="40">
<circle cx="20.2" cy="19.9998" r="19.9998" fill="#EEEEEE"/>
</mask>
<g mask="url(#mask0_12329_49032)">
</g>
<circle cx="20" cy="20" r="12" fill="white"/>
<path d="M20 8C13.4 8 8 13.4 8 20C8 26.6 13.4 32 20 32C26.6 32 32 26.6 32 20C32 13.4 26.6 8 20 8ZM19.9247 11.9748C21.2747 11.9748 22.0998 13.0998 22.0998 13.9248C22.0998 14.9748 21.3498 15.8748 19.9247 15.8748C18.725 15.8748 17.825 14.8248 17.825 13.9248C17.8252 13.1002 18.5752 11.9748 19.9247 11.9748ZM23.45 26.8998H16.55V24.35H18.0502V19.7H16.55V17.1502H21.8V24.3502H23.45V26.8998Z" fill="url(#paint1_linear_12329_49032)"/>
<defs>
<linearGradient id="paint0_linear_12329_49032" x1="3.73632" y1="36.0092" x2="29.4221" y2="11.0346" gradientUnits="userSpaceOnUse">
<stop offset="0.01" stop-color="#FF55AA"/>
<stop offset="0.25" stop-color="#B850C9"/>
<stop offset="0.62" stop-color="#6572D6"/>
<stop offset="1" stop-color="#4EAEB8"/>
</linearGradient>
<linearGradient id="paint1_linear_12329_49032" x1="32" y1="21.1309" x2="7.99991" y2="21.1844" gradientUnits="userSpaceOnUse">
<stop stop-color="#00AAE4"/>
<stop offset="1" stop-color="#8255BE"/>
</linearGradient>
</defs>
</svg>
