<svg width="24" height="16" viewBox="0 0 24 16" fill="none" xmlns="http://www.w3.org/2000/svg">
<path d="M9.12536 4.13119L5.97667 11.6385H3.92128L2.37609 5.64723C2.28863 5.28279 2.20116 5.13702 1.90962 4.99125C1.44315 4.74344 0.67055 4.49562 0 4.34985L0.04373 4.13119H3.35277C3.77551 4.13119 4.15452 4.40816 4.24198 4.88921L5.05831 9.24776L7.06996 4.14577H9.12536V4.13119ZM17.1575 9.18946C17.172 7.20699 14.4169 7.10495 14.4461 6.21574C14.4461 5.95335 14.7085 5.6618 15.2624 5.58892C15.5394 5.55976 16.312 5.53061 17.172 5.92419L17.5073 4.33527C17.0408 4.16035 16.4432 4 15.6852 4C13.761 4 12.4199 5.0204 12.4053 6.47813C12.3907 7.55685 13.3674 8.15456 14.0962 8.51896C14.8543 8.88336 15.1021 9.11666 15.1021 9.45186C15.1021 9.96206 14.5044 10.1808 13.9359 10.1808C12.9592 10.1954 12.3907 9.91836 11.9388 9.69966L11.589 11.347C12.0409 11.5511 12.8863 11.7406 13.7464 11.7406C15.8164 11.7551 17.1575 10.7493 17.1575 9.18946ZM22.2304 11.6385H24.0234L22.449 4.13119H20.7872C20.4082 4.13119 20.1021 4.34985 19.9563 4.68513L17.0409 11.6385H19.0817L19.4898 10.5161H21.9825L22.2304 11.6385ZM20.0583 8.98546L21.0787 6.17201L21.6618 8.98546H20.0583ZM11.8951 4.13119L10.2916 11.6385H8.35276L9.95626 4.13119H11.8951Z" fill="#1A1F71"/>
</svg>
