<svg width="24" height="18" viewBox="0 0 24 18" fill="currentColor" xmlns="http://www.w3.org/2000/svg">
<path d="M2 4C3.10457 4 4 3.10457 4 2C4 0.895431 3.10457 0 2 0C0.895431 0 0 0.895431 0 2C0 3.10457 0.895431 4 2 4Z" fill="currentColor"/>
<path d="M10 4H22C22.5304 4 23.0391 3.78929 23.4142 3.41421C23.7893 3.03914 24 2.53043 24 2C24 1.46957 23.7893 0.960859 23.4142 0.585786C23.0391 0.210713 22.5304 1.1178e-08 22 0H10C9.46957 1.1178e-08 8.96086 0.210713 8.58579 0.585786C8.21071 0.960859 8 1.46957 8 2C8 2.53043 8.21071 3.03914 8.58579 3.41421C8.96086 3.78929 9.46957 4 10 4Z" fill="currentColor"/>
<path d="M2 10.667C3.10457 10.667 4 9.77156 4 8.66699C4 7.56242 3.10457 6.66699 2 6.66699C0.895431 6.66699 0 7.56242 0 8.66699C0 9.77156 0.895431 10.667 2 10.667Z" fill="currentColor"/>
<path d="M22 6.66699H10C9.46957 6.66699 8.96086 6.87771 8.58579 7.25278C8.21071 7.62785 8 8.13656 8 8.66699C8 9.19743 8.21071 9.70613 8.58579 10.0812C8.96086 10.4563 9.46957 10.667 10 10.667H22C22.5304 10.667 23.0391 10.4563 23.4142 10.0812C23.7893 9.70613 24 9.19743 24 8.66699C24 8.13656 23.7893 7.62785 23.4142 7.25278C23.0391 6.87771 22.5304 6.66699 22 6.66699Z" fill="currentColor"/>
<path d="M2 17.333C3.10457 17.333 4 16.4376 4 15.333C4 14.2284 3.10457 13.333 2 13.333C0.895431 13.333 0 14.2284 0 15.333C0 16.4376 0.895431 17.333 2 17.333Z" fill="currentColor"/>
<path d="M22 13.333H10C9.46957 13.333 8.96086 13.5437 8.58579 13.9188C8.21071 14.2939 8 14.8026 8 15.333C8 15.8634 8.21071 16.3721 8.58579 16.7472C8.96086 17.1223 9.46957 17.333 10 17.333H22C22.5304 17.333 23.0391 17.1223 23.4142 16.7472C23.7893 16.3721 24 15.8634 24 15.333C24 14.8026 23.7893 14.2939 23.4142 13.9188C23.0391 13.5437 22.5304 13.333 22 13.333Z" fill="currentColor"/>
</svg>
