<svg width="16" height="20" viewBox="0 0 16 20" fill="none" xmlns="http://www.w3.org/2000/svg">
<path d="M7.85739 9.38547e-06C5.90227 -0.00298105 4.01654 0.708742 2.5694 1.99591C1.12226 3.28308 0.218892 5.05256 0.0347262 6.95789C-0.149003 8.86322 0.400875 10.7673 1.57613 12.2967L7.27042 19.7129C7.4092 19.8936 7.6261 20 7.85696 20C8.08782 20 8.30515 19.8936 8.44349 19.7129L14.1378 12.2967C15.313 10.7673 15.8629 8.86322 15.6792 6.95789C15.4955 5.05256 14.5917 3.28308 13.1445 1.99591C11.6974 0.708742 9.81251 -0.00298105 7.85739 9.38547e-06ZM7.85739 11.8182C6.74411 11.8182 5.67621 11.3859 4.88805 10.6156C4.09989 9.84579 3.65606 8.80085 3.65432 7.71105C3.65214 6.62125 4.0916 5.57503 4.87671 4.80179C5.66181 4.02897 6.72796 3.59237 7.84125 3.5881C8.95453 3.58383 10.0242 4.01231 10.8154 4.77914C11.6062 5.54598 12.0544 6.58921 12.0609 7.67901C12.0609 8.77051 11.6179 9.81717 10.8298 10.5887C10.0416 11.3602 8.97242 11.7938 7.85739 11.7938V11.8178V11.8182Z" fill="black"/>
</svg>
