<svg width="24" height="24" viewBox="0 0 24 24" fill="none" xmlns="http://www.w3.org/2000/svg">
<mask id="path-1-outside-1_1152_13825" maskUnits="userSpaceOnUse" x="1" y="3" width="22" height="18" fill="black">
<rect fill="white" x="1" y="3" width="22" height="18"/>
<path fill-rule="evenodd" clip-rule="evenodd" d="M15.1803 19.9889C14.9594 19.9889 14.7803 19.8098 14.7803 19.5889V16.7604C14.7803 16.5395 14.9594 16.3604 15.1803 16.3604C15.4012 16.3604 15.5803 16.5395 15.5803 16.7604L15 19.7692L18.0087 19.1889C18.2297 19.1889 18.4087 19.3679 18.4087 19.5889C18.4087 19.8098 18.2297 19.9889 18.0087 19.9889H15.1803Z"/>
<path fill-rule="evenodd" clip-rule="evenodd" d="M14.8975 19.8717C14.7413 19.7155 14.7413 19.4622 14.8975 19.306L19.7058 14.4977C19.862 14.3415 20.1153 14.3415 20.2715 14.4977C20.4277 14.6539 20.4277 14.9072 20.2715 15.0634L15.4632 19.8717C15.307 20.0279 15.0537 20.0279 14.8975 19.8717Z"/>
<path d="M4.50543 14.9762H6.35808L7.916 13.5197L7.91586 9.55136C7.91586 8.7704 8.31589 8.09486 8.90532 7.67274C8.44217 7.29287 8.14744 6.72291 8.14744 6.06856C8.14744 4.9288 9.07378 4 10.2105 4C11.3473 4 12.2736 4.9288 12.2736 6.06856C12.2736 6.72287 11.9789 7.29283 11.5158 7.67274C12.0421 8.03156 12.4 8.62257 12.4631 9.27692L14.9473 6.9551C15.4105 6.51175 16.021 6.27957 16.6526 6.27957H19.4947C20.8842 6.27957 22 7.3983 22 8.79147C22 10.1846 20.8842 11.3034 19.4947 11.3034H17.6421L9.05265 19.3245C8.5895 19.7678 7.97902 20 7.34744 20H4.50528C3.11578 20 2 18.8813 2 17.4881C2 16.116 3.11593 14.9762 4.50543 14.9762ZM11.3896 6.06856C11.3896 5.41424 10.8633 4.88654 10.2107 4.88654C9.5581 4.88654 9.03179 5.41424 9.03179 6.06856C9.03179 6.72287 9.5581 7.25058 10.2107 7.25058C10.8633 7.25058 11.3896 6.72287 11.3896 6.06856ZM11.6 9.55132C11.6 8.77036 10.9684 8.13708 10.1895 8.13708C9.41061 8.13708 8.77899 8.77036 8.77899 9.55132V12.6965L11.6 10.079L11.6 9.55132ZM4.50534 19.1133H7.34735C7.76836 19.1133 8.14738 18.9655 8.44212 18.67L17.1578 10.5222C17.242 10.4379 17.3473 10.3956 17.4526 10.3956H19.4737C20.3579 10.3956 21.0948 9.65674 21.0948 8.77023C21.0948 7.88369 20.3578 7.14487 19.4737 7.14487H16.6315C16.2105 7.14487 15.8315 7.2927 15.5368 7.58822L6.82103 15.736C6.73689 15.8203 6.63159 15.8626 6.5263 15.8626H4.50519C3.62099 15.8626 2.88411 16.6014 2.88411 17.4879C2.88426 18.3955 3.60001 19.1133 4.50534 19.1133Z"/>
</mask>
<path fill-rule="evenodd" clip-rule="evenodd" d="M15.1803 19.9889C14.9594 19.9889 14.7803 19.8098 14.7803 19.5889V16.7604C14.7803 16.5395 14.9594 16.3604 15.1803 16.3604C15.4012 16.3604 15.5803 16.5395 15.5803 16.7604L15 19.7692L18.0087 19.1889C18.2297 19.1889 18.4087 19.3679 18.4087 19.5889C18.4087 19.8098 18.2297 19.9889 18.0087 19.9889H15.1803Z" fill="black"/>
<path fill-rule="evenodd" clip-rule="evenodd" d="M14.8975 19.8717C14.7413 19.7155 14.7413 19.4622 14.8975 19.306L19.7058 14.4977C19.862 14.3415 20.1153 14.3415 20.2715 14.4977C20.4277 14.6539 20.4277 14.9072 20.2715 15.0634L15.4632 19.8717C15.307 20.0279 15.0537 20.0279 14.8975 19.8717Z" fill="black"/>
<path d="M4.50543 14.9762H6.35808L7.916 13.5197L7.91586 9.55136C7.91586 8.7704 8.31589 8.09486 8.90532 7.67274C8.44217 7.29287 8.14744 6.72291 8.14744 6.06856C8.14744 4.9288 9.07378 4 10.2105 4C11.3473 4 12.2736 4.9288 12.2736 6.06856C12.2736 6.72287 11.9789 7.29283 11.5158 7.67274C12.0421 8.03156 12.4 8.62257 12.4631 9.27692L14.9473 6.9551C15.4105 6.51175 16.021 6.27957 16.6526 6.27957H19.4947C20.8842 6.27957 22 7.3983 22 8.79147C22 10.1846 20.8842 11.3034 19.4947 11.3034H17.6421L9.05265 19.3245C8.5895 19.7678 7.97902 20 7.34744 20H4.50528C3.11578 20 2 18.8813 2 17.4881C2 16.116 3.11593 14.9762 4.50543 14.9762ZM11.3896 6.06856C11.3896 5.41424 10.8633 4.88654 10.2107 4.88654C9.5581 4.88654 9.03179 5.41424 9.03179 6.06856C9.03179 6.72287 9.5581 7.25058 10.2107 7.25058C10.8633 7.25058 11.3896 6.72287 11.3896 6.06856ZM11.6 9.55132C11.6 8.77036 10.9684 8.13708 10.1895 8.13708C9.41061 8.13708 8.77899 8.77036 8.77899 9.55132V12.6965L11.6 10.079L11.6 9.55132ZM4.50534 19.1133H7.34735C7.76836 19.1133 8.14738 18.9655 8.44212 18.67L17.1578 10.5222C17.242 10.4379 17.3473 10.3956 17.4526 10.3956H19.4737C20.3579 10.3956 21.0948 9.65674 21.0948 8.77023C21.0948 7.88369 20.3578 7.14487 19.4737 7.14487H16.6315C16.2105 7.14487 15.8315 7.2927 15.5368 7.58822L6.82103 15.736C6.73689 15.8203 6.63159 15.8626 6.5263 15.8626H4.50519C3.62099 15.8626 2.88411 16.6014 2.88411 17.4879C2.88426 18.3955 3.60001 19.1133 4.50534 19.1133Z" fill="black"/>
<path d="M15.1803 19.9889V19.7389V19.9889ZM14.7803 19.5889H15.0303H14.7803ZM14.7803 16.7604H15.0303H14.7803ZM15.1803 16.3604V16.6104V16.3604ZM15.5803 16.7604L15.8258 16.8078L15.8303 16.7843V16.7604H15.5803ZM15 19.7692L14.7545 19.7218L14.6845 20.0846L15.0473 20.0146L15 19.7692ZM18.0087 19.1889V18.9389H17.9849L17.9614 18.9434L18.0087 19.1889ZM18.4087 19.5889H18.1587H18.4087ZM18.0087 19.9889V19.7389V19.9889ZM14.8975 19.8717L15.0743 19.6949L14.8975 19.8717ZM14.8975 19.306L15.0743 19.4828L14.8975 19.306ZM15.4632 19.8717L15.2864 19.6949L15.4632 19.8717ZM20.2715 15.0634L20.4483 15.2401L20.2715 15.0634ZM19.7058 14.4977L19.529 14.3209L19.7058 14.4977ZM6.35808 14.9762V15.2262H6.45674L6.52881 15.1588L6.35808 14.9762ZM7.916 13.5197L8.08674 13.7023L8.16601 13.6282L8.166 13.5197L7.916 13.5197ZM7.91586 9.55136H7.66586V9.55137L7.91586 9.55136ZM8.90532 7.67274L9.05089 7.87599L9.31593 7.68618L9.06386 7.47944L8.90532 7.67274ZM11.5158 7.67274L11.3572 7.47945L11.099 7.69121L11.3749 7.8793L11.5158 7.67274ZM12.4631 9.27692L12.2142 9.30092L12.263 9.80613L12.6338 9.45957L12.4631 9.27692ZM14.9473 6.9551L15.1181 7.13776L15.1202 7.1357L14.9473 6.9551ZM17.6421 11.3034V11.0534H17.5435L17.4714 11.1207L17.6421 11.3034ZM9.05265 19.3245L8.88201 19.1417L8.87978 19.1439L9.05265 19.3245ZM11.6 9.55132L11.85 9.55134V9.55132H11.6ZM8.77899 12.6965H8.52899V13.2695L8.94903 12.8797L8.77899 12.6965ZM11.6 10.079L11.77 10.2623L11.85 10.1881L11.85 10.079L11.6 10.079ZM8.44212 18.67L8.27129 18.4872L8.2651 18.4934L8.44212 18.67ZM17.1578 10.5222L17.3287 10.705L17.3348 10.6988L17.1578 10.5222ZM15.5368 7.58822L15.7076 7.77096L15.7138 7.76476L15.5368 7.58822ZM6.82103 15.736L6.6502 15.5532L6.64402 15.5594L6.82103 15.736ZM2.88411 17.4879H2.63411V17.488L2.88411 17.4879ZM15.1803 19.7389C15.0975 19.7389 15.0303 19.6717 15.0303 19.5889H14.5303C14.5303 19.9478 14.8213 20.2389 15.1803 20.2388V19.7389ZM15.0303 19.5889V16.7604H14.5303V19.5889H15.0303ZM15.0303 16.7604C15.0303 16.6776 15.0975 16.6104 15.1803 16.6104V16.1104C14.8213 16.1104 14.5303 16.4014 14.5303 16.7604H15.0303ZM15.1803 16.6104C15.2632 16.6104 15.3303 16.6776 15.3303 16.7604H15.8303C15.8303 16.4014 15.5393 16.1104 15.1803 16.1104V16.6104ZM15.3348 16.7131L14.7545 19.7218L15.2455 19.8165L15.8258 16.8078L15.3348 16.7131ZM15.0473 20.0146L18.0561 19.4343L17.9614 18.9434L14.9527 19.5237L15.0473 20.0146ZM18.0087 19.4389C18.0916 19.4389 18.1587 19.506 18.1587 19.5889H18.6587C18.6587 19.2299 18.3677 18.9389 18.0087 18.9389V19.4389ZM18.1587 19.5889C18.1587 19.6717 18.0916 19.7389 18.0087 19.7389V20.2388C18.3677 20.2389 18.6587 19.9478 18.6587 19.5889H18.1587ZM18.0087 19.7389H15.1803V20.2388H18.0087V19.7389ZM15.0743 19.6949C15.0157 19.6363 15.0157 19.5414 15.0743 19.4828L14.7207 19.1292C14.4669 19.3831 14.4669 19.7946 14.7207 20.0485L15.0743 19.6949ZM15.0743 19.4828L19.8826 14.6745L19.529 14.3209L14.7207 19.1292L15.0743 19.4828ZM20.0947 14.8866L15.2864 19.6949L15.6399 20.0485L20.4483 15.2401L20.0947 14.8866ZM15.2864 19.6949C15.2278 19.7535 15.1328 19.7535 15.0743 19.6949L14.7207 20.0485C14.9745 20.3023 15.3861 20.3023 15.6399 20.0485L15.2864 19.6949ZM20.4483 15.2401C20.7021 14.9863 20.7021 14.5747 20.4483 14.3209L20.0947 14.6745C20.1533 14.733 20.1533 14.828 20.0947 14.8866L20.4483 15.2401ZM19.8826 14.6745C19.9412 14.6159 20.0361 14.6159 20.0947 14.6745L20.4483 14.3209C20.1944 14.0671 19.7829 14.0671 19.529 14.3209L19.8826 14.6745ZM4.50543 15.2262H6.35808V14.7262H4.50543V15.2262ZM6.52881 15.1588L8.08674 13.7023L7.74527 13.3371L6.18735 14.7936L6.52881 15.1588ZM8.166 13.5197L8.16586 9.55135L7.66586 9.55137L7.666 13.5197L8.166 13.5197ZM8.16586 9.55136C8.16586 8.85966 8.51966 8.25644 9.05089 7.87599L8.75976 7.46949C8.11213 7.93329 7.66586 8.68114 7.66586 9.55136H8.16586ZM9.06386 7.47944C8.65603 7.14494 8.39744 6.64476 8.39744 6.06856H7.89744C7.89744 6.80106 8.22831 7.4408 8.74678 7.86604L9.06386 7.47944ZM8.39744 6.06856C8.39744 5.06624 9.21247 4.25 10.2105 4.25V3.75C8.93509 3.75 7.89744 4.79135 7.89744 6.06856H8.39744ZM10.2105 4.25C11.2086 4.25 12.0236 5.06624 12.0236 6.06856H12.5236C12.5236 4.79135 11.486 3.75 10.2105 3.75V4.25ZM12.0236 6.06856C12.0236 6.64472 11.7651 7.1449 11.3572 7.47945L11.6743 7.86603C12.1928 7.44076 12.5236 6.80103 12.5236 6.06856H12.0236ZM11.3749 7.8793C11.8406 8.19676 12.1583 8.72122 12.2142 9.30092L12.7119 9.25291C12.6416 8.52391 12.2436 7.86636 11.6566 7.46618L11.3749 7.8793ZM12.6338 9.45957L15.1181 7.13775L14.7766 6.77245L12.2924 9.09427L12.6338 9.45957ZM15.1202 7.1357C15.5347 6.73891 16.0824 6.52957 16.6526 6.52957V6.02957C15.9595 6.02957 15.2863 6.2846 14.7745 6.7745L15.1202 7.1357ZM16.6526 6.52957H19.4947V6.02957H16.6526V6.52957ZM19.4947 6.52957C20.7455 6.52957 21.75 7.53574 21.75 8.79147H22.25C22.25 7.26085 21.0229 6.02957 19.4947 6.02957V6.52957ZM21.75 8.79147C21.75 10.0472 20.7455 11.0534 19.4947 11.0534V11.5534C21.0229 11.5534 22.25 10.3221 22.25 8.79147H21.75ZM19.4947 11.0534H17.6421V11.5534H19.4947V11.0534ZM17.4714 11.1207L8.88203 19.1417L9.22328 19.5072L17.8127 11.4861L17.4714 11.1207ZM8.87978 19.1439C8.46526 19.5407 7.91758 19.75 7.34744 19.75V20.25C8.04046 20.25 8.71374 19.995 9.22553 19.5051L8.87978 19.1439ZM7.34744 19.75H4.50528V20.25H7.34744V19.75ZM4.50528 19.75C3.25447 19.75 2.25 18.7438 2.25 17.4881H1.75C1.75 19.0187 2.97709 20.25 4.50528 20.25V19.75ZM2.25 17.4881C2.25 16.2521 3.25596 15.2262 4.50543 15.2262V14.7262C2.97589 14.7262 1.75 15.9799 1.75 17.4881H2.25ZM11.6396 6.06856C11.6396 5.2768 11.002 4.63654 10.2107 4.63654V5.13654C10.7246 5.13654 11.1396 5.55169 11.1396 6.06856H11.6396ZM10.2107 4.63654C9.4194 4.63654 8.78179 5.2768 8.78179 6.06856H9.28179C9.28179 5.55169 9.69679 5.13654 10.2107 5.13654V4.63654ZM8.78179 6.06856C8.78179 6.86032 9.4194 7.50058 10.2107 7.50058V7.00058C9.69679 7.00058 9.28179 6.58542 9.28179 6.06856H8.78179ZM10.2107 7.50058C11.002 7.50058 11.6396 6.86032 11.6396 6.06856H11.1396C11.1396 6.58542 10.7246 7.00058 10.2107 7.00058V7.50058ZM11.85 9.55132C11.85 8.63291 11.1071 7.88708 10.1895 7.88708V8.38708C10.8297 8.38708 11.35 8.90781 11.35 9.55132H11.85ZM10.1895 7.88708C9.27191 7.88708 8.52899 8.63291 8.52899 9.55132H9.02899C9.02899 8.90781 9.5493 8.38708 10.1895 8.38708V7.88708ZM8.52899 9.55132V12.6965H9.02899V9.55132H8.52899ZM8.94903 12.8797L11.77 10.2623L11.4299 9.89576L8.60895 12.5132L8.94903 12.8797ZM11.85 10.079L11.85 9.55134L11.35 9.55131L11.35 10.079L11.85 10.079ZM4.50534 19.3633H7.34735V18.8633H4.50534V19.3633ZM7.34735 19.3633C7.83043 19.3633 8.2745 19.192 8.61913 18.8465L8.2651 18.4934C8.02026 18.7389 7.70629 18.8633 7.34735 18.8633V19.3633ZM8.61284 18.8526L17.3286 10.7049L16.9871 10.3396L8.27139 18.4873L8.61284 18.8526ZM17.3348 10.6988C17.3737 10.6598 17.4159 10.6456 17.4526 10.6456V10.1456C17.2787 10.1456 17.1103 10.2159 16.9808 10.3457L17.3348 10.6988ZM17.4526 10.6456H19.4737V10.1456H17.4526V10.6456ZM19.4737 10.6456C20.4966 10.6456 21.3448 9.79418 21.3448 8.77023H20.8448C20.8448 9.51929 20.2192 10.1456 19.4737 10.1456V10.6456ZM21.3448 8.77023C21.3448 7.74624 20.4965 6.89487 19.4737 6.89487V7.39487C20.2192 7.39487 20.8448 8.02114 20.8448 8.77023H21.3448ZM19.4737 6.89487H16.6315V7.39487H19.4737V6.89487ZM16.6315 6.89487C16.1484 6.89487 15.7044 7.06614 15.3597 7.41167L15.7138 7.76476C15.9586 7.51926 16.2726 7.39487 16.6315 7.39487V6.89487ZM15.366 7.40559L6.65031 15.5533L6.99176 15.9186L15.7075 7.77084L15.366 7.40559ZM6.64402 15.5594C6.6052 15.5983 6.56298 15.6126 6.5263 15.6126V16.1126C6.70021 16.1126 6.86857 16.0423 6.99804 15.9125L6.64402 15.5594ZM6.5263 15.6126H4.50519V16.1126H6.5263V15.6126ZM4.50519 15.6126C3.48229 15.6126 2.63411 16.464 2.63411 17.4879H3.13411C3.13411 16.7389 3.75968 16.1126 4.50519 16.1126V15.6126ZM2.63411 17.488C2.63428 18.533 3.4613 19.3633 4.50534 19.3633V18.8633C3.73873 18.8633 3.13424 18.2581 3.13411 17.4879L2.63411 17.488Z" fill="black" mask="url(#path-1-outside-1_1152_13825)"/>
</svg>
