<svg width="25" height="24" viewBox="0 0 25 24" fill="none" xmlns="http://www.w3.org/2000/svg">
<g clip-path="url(#clip0_2015_15938)">
<path d="M5.07395 18.199C5.30461 18.457 5.669 18.548 5.99356 18.4279L12.5003 16.0135L19.0065 18.4278C19.3156 18.5419 19.6622 18.4652 19.8934 18.234L19.9261 18.1989C20.0387 18.0729 20.1108 17.9159 20.1328 17.7484C20.1549 17.5809 20.1259 17.4106 20.0497 17.2597L13.2506 3.80904C13.1074 3.52667 12.8167 3.34773 12.4998 3.34713C12.183 3.34652 11.8947 3.52663 11.7491 3.80898L4.95087 17.2604C4.87441 17.411 4.84525 17.5812 4.86721 17.7487C4.88917 17.9162 4.96124 18.0732 5.07395 18.199Z" fill="white"/>
</g>
<defs>
<clipPath id="clip0_2015_15938">
<rect width="24" height="24" fill="white" transform="translate(0.5)"/>
</clipPath>
</defs>
</svg>
