<svg width="182" height="182" viewBox="0 0 182 182" fill="none" xmlns="http://www.w3.org/2000/svg">
<circle opacity="0.2" cx="91" cy="91" r="80.5" stroke="url(#paint0_linear_1336_16584)"/>
<circle opacity="0.2" cx="91" cy="91" r="85.5" stroke="url(#paint1_linear_1336_16584)"/>
<circle cx="91" cy="91" r="75.5" fill="url(#paint2_linear_1336_16584)" fill-opacity="0.2" stroke="url(#paint3_linear_1336_16584)"/>
<g style="mix-blend-mode:multiply" opacity="0.3">
<ellipse cx="91" cy="132" rx="49" ry="5" fill="#A366F0"/>
</g>
<rect x="46" y="86.6001" width="58.4857" height="45.7714" fill="#9379EA"/>
<circle cx="75.5" cy="109.5" r="20.5" fill="#5938C6"/>
<mask id="mask0_1336_16584" style="mask-type:alpha" maskUnits="userSpaceOnUse" x="55" y="87" width="41" height="42">
<circle cx="75.4014" cy="107.901" r="19.4014" fill="#DFE2FF" stroke="#141414" stroke-width="1.60178"/>
</mask>
<g mask="url(#mask0_1336_16584)">
<ellipse cx="75.4334" cy="109.239" rx="18.4149" ry="18.7218" fill="#E1D6F9"/>
<path d="M67.4243 97.5547L66.447 110.615C66.3879 111.404 66.889 112.127 67.6486 112.348L69.3118 112.833L68.5611 130.223C68.5247 131.067 68.9074 131.874 69.5838 132.38L69.6473 132.428C70.5574 133.109 71.8159 133.077 72.69 132.35V132.35C73.2799 131.859 73.6068 131.122 73.5737 130.355L72.8172 112.833L74.4681 112.352C75.2333 112.129 75.7353 111.398 75.6684 110.603L74.57 97.5547M72.1897 97.5547V106.203M69.8511 97.5547V106.203" stroke="#371EA3" stroke-width="1.60178" stroke-linecap="round" stroke-linejoin="round"/>
<path d="M85.0046 130.477L83.8506 117.683L84.6813 115.714C85.6943 113.312 86.0885 110.694 85.8278 108.1L85.6391 106.222C85.302 102.867 83.509 99.8281 80.7346 97.9109C80.5167 97.7602 80.2192 97.9162 80.2192 98.1812V130.352C80.2192 131.149 80.5963 131.899 81.2359 132.374L81.4016 132.497C82.2595 133.134 83.4461 133.084 84.2475 132.377C84.7882 131.9 85.0694 131.195 85.0046 130.477Z" stroke="#371EA3" stroke-width="1.60178" stroke-linecap="round" stroke-linejoin="round"/>
</g>
<path d="M60.4093 51V69.6476H52.7808L60.4093 51Z" fill="#7D5EE5"/>
<path d="M52.781 69.6475H111.267L104.486 86.5998H46L52.781 69.6475Z" fill="#AD92F5"/>
<path d="M128.219 69.6475H111.267L104.486 86.5998H135L128.219 69.6475Z" fill="#7D5EE5"/>
<rect width="30.5143" height="45.7714" transform="matrix(-1 0 0 1 135 86.6001)" fill="#6D4BDF"/>
<path d="M118.895 51H121.438C125.183 51 128.219 54.0359 128.219 57.781V69.6476H118.895V51Z" fill="#AE9AEF"/>
<path fill-rule="evenodd" clip-rule="evenodd" d="M118.895 51H60.4092V69.6476H118.895V51ZM78 57C76.3431 57 75 58.3431 75 60C75 61.6569 76.3431 63 78 63H100C101.657 63 103 61.6569 103 60C103 58.3431 101.657 57 100 57H78Z" fill="#AE9AEF"/>
<path d="M118.895 51V69.6476H111.267L118.895 51Z" fill="#7D5EE5"/>
<defs>
<linearGradient id="paint0_linear_1336_16584" x1="43.5333" y1="-5.53333" x2="151.8" y2="251.533" gradientUnits="userSpaceOnUse">
<stop offset="0.219581" stop-color="#DDF5FB"/>
<stop offset="1" stop-color="#DA0095"/>
</linearGradient>
<linearGradient id="paint1_linear_1336_16584" x1="40.5667" y1="-11.5667" x2="155.6" y2="261.567" gradientUnits="userSpaceOnUse">
<stop offset="0.219581" stop-color="#DDF5FB"/>
<stop offset="1" stop-color="#DA0095"/>
</linearGradient>
<linearGradient id="paint2_linear_1336_16584" x1="46.5" y1="0.500002" x2="148" y2="241.5" gradientUnits="userSpaceOnUse">
<stop offset="0.219581" stop-color="#DDF5FB"/>
<stop offset="1" stop-color="#DA0095"/>
</linearGradient>
<linearGradient id="paint3_linear_1336_16584" x1="46.5" y1="0.500002" x2="148" y2="241.5" gradientUnits="userSpaceOnUse">
<stop offset="0.219581" stop-color="#DDF5FB"/>
<stop offset="1" stop-color="#DA0095"/>
</linearGradient>
</defs>
</svg>
