<svg width="20" height="20" viewBox="0 0 20 20" fill="none" xmlns="http://www.w3.org/2000/svg">
<path d="M19.4501 6.72128C18.6672 7.28619 17.7058 7.61905 16.6667 7.61905C14.0367 7.61905 11.9048 5.48707 11.9048 2.85714C11.9048 1.93576 12.1664 1.07549 12.6195 0.34661C11.7846 0.120592 10.9064 0 10 0C4.47715 0 0 4.47715 0 10C0 15.5228 4.47715 20 10 20C15.5228 20 20 15.5228 20 10C20 8.85159 19.8064 7.74841 19.4501 6.72128Z" fill="black"/>
<path d="M19.5238 2.85714C19.5238 4.4351 18.2446 5.71429 16.6667 5.71429C15.0887 5.71429 13.8095 4.4351 13.8095 2.85714C13.8095 1.27919 15.0887 0 16.6667 0C18.2446 0 19.5238 1.27919 19.5238 2.85714Z" fill="black"/>
</svg>
