<svg width="249" height="215" viewBox="0 0 249 215" fill="none" xmlns="http://www.w3.org/2000/svg">
<path d="M117.791 106.683H130.844M104.739 106.683H78.6333H104.739Z" stroke="black" stroke-width="7" stroke-linecap="round" stroke-linejoin="round"/>
<path d="M137.366 126.262H169.998V184.999H111.261V158.894H124.314" stroke="black" stroke-width="7" stroke-linecap="round" stroke-linejoin="round"/>
<path d="M175.429 145.84H202.633V178.304H170.002V145.84H189.581V113.209H150.423V93.6298H170.002V76.8877" stroke="black" stroke-width="7" stroke-linecap="round" stroke-linejoin="round"/>
<path d="M202.633 119.735V93.6298H137.371V60.998M183.054 162.317H189.581" stroke="black" stroke-width="7" stroke-linecap="round" stroke-linejoin="round"/>
<path d="M65.5758 126.261H52.5234V93.63H78.6286V126.261H137.365V171.945H156.777V145.84H117.787V106.683H104.734V87.1038H117.787V70.2927H137.365V34.8936H117.787V54.472" stroke="black" stroke-width="7" stroke-linecap="round" stroke-linejoin="round"/>
<path d="M202.63 74.0528H156.946V28.3691H202.63V74.0528Z" stroke="black" stroke-width="7" stroke-linecap="round" stroke-linejoin="round"/>
<path d="M190.771 62.1943H168.804V40.2266H190.771V62.1943Z" stroke="black" stroke-width="7" stroke-linecap="round" stroke-linejoin="round"/>
<path d="M91.6836 74.0528H46V28.3691H91.6836V74.0528V74.0528Z" stroke="black" stroke-width="7" stroke-linecap="round" stroke-linejoin="round"/>
<path d="M79.8242 62.1943H57.8564V40.2266H79.8242V62.1943Z" stroke="black" stroke-width="7" stroke-linecap="round" stroke-linejoin="round"/>
<path d="M91.6836 184.998H46V139.314H91.6836V184.998V184.998Z" stroke="black" stroke-width="7" stroke-linecap="round" stroke-linejoin="round"/>
<path d="M79.8242 173.141H57.8564V151.173H79.8242V173.141Z" stroke="black" stroke-width="7" stroke-linecap="round" stroke-linejoin="round"/>
<path d="M53.8442 4H28C23.5817 4 20 7.58172 20 12V37.8442" stroke="black" stroke-opacity="0.6" stroke-width="8" stroke-linecap="round"/>
<path d="M229.157 37.8442L229.157 12C229.157 7.58172 225.576 4 221.157 4L195.313 4" stroke="black" stroke-opacity="0.6" stroke-width="8" stroke-linecap="round"/>
<path d="M195.313 210.45L221.157 210.45C225.576 210.45 229.157 206.868 229.157 202.45L229.157 176.606" stroke="black" stroke-opacity="0.6" stroke-width="8" stroke-linecap="round"/>
<path d="M20 176.606L20 202.45C20 206.868 23.5817 210.45 28 210.45L53.8442 210.45" stroke="black" stroke-opacity="0.6" stroke-width="8" stroke-linecap="round"/>
<rect y="151" width="249" height="8" rx="4" fill="url(#paint0_linear_5001_27849)"/>
<defs>
<linearGradient id="paint0_linear_5001_27849" x1="232.85" y1="158.651" x2="232.409" y2="144.681" gradientUnits="userSpaceOnUse">
<stop offset="0.0416667" stop-color="#47BAD8"/>
<stop offset="0.34375" stop-color="#6A6CE9"/>
<stop offset="0.609375" stop-color="#9454E6"/>
<stop offset="1" stop-color="#CE57D3"/>
</linearGradient>
</defs>
</svg>
