<svg width="183" height="182" viewBox="0 0 183 182" fill="none" xmlns="http://www.w3.org/2000/svg">
<circle opacity="0.2" cx="91.5" cy="91" r="80.5" stroke="url(#paint0_linear_2138_20204)"/>
<circle opacity="0.2" cx="91.5" cy="91" r="85.5" stroke="url(#paint1_linear_2138_20204)"/>
<circle cx="91.5" cy="91" r="75.5" fill="url(#paint2_linear_2138_20204)" fill-opacity="0.2" stroke="url(#paint3_linear_2138_20204)"/>
<mask id="mask0_2138_20204" style="mask-type:alpha" maskUnits="userSpaceOnUse" x="14" y="14" width="154" height="152">
<path d="M166.5 91C166.5 132.421 132.921 166 91.5001 166C50.0788 166 16.5001 132.421 16.5001 91C16.5001 -1.49995 -2.99996 15.9997 91.5001 15.9999C183 15.9998 166.5 -4.5 166.5 91Z" fill="black"/>
</mask>
<g mask="url(#mask0_2138_20204)">
<path d="M129.185 79.6031V53.6952C129.185 47.7877 124.402 43 118.5 43H63.2248C57.3231 43 52.54 47.7877 52.54 53.6952V64.4677C52.1929 64.6221 52 64.9696 52 65.3557V69.6029C52 69.989 52.2314 70.3365 52.54 70.4909V75.047C52.1929 75.2015 52 75.549 52 75.9351V85.472C52 85.8581 52.2314 86.2056 52.54 86.36V89.6033C52.1929 89.7578 52 90.1053 52 90.4914V100.028C52 100.414 52.2314 100.762 52.54 100.916V178.188C52.54 184.095 57.3231 188.883 63.2248 188.883H118.5C124.402 188.883 129.185 184.095 129.185 178.188V97.4027C129.532 97.2483 129.725 96.9008 129.725 96.5147V80.4526C129.725 80.0664 129.494 79.7576 129.185 79.6031Z" fill="#0B080F"/>
<path d="M126.099 178.188C126.099 182.396 122.704 185.794 118.5 185.794H63.2244C59.0199 185.794 55.6255 182.396 55.6255 178.188V53.6952C55.6255 49.4866 59.0199 46.0889 63.2244 46.0889H73.0606L73.9092 48.9075C74.4107 50.5677 75.9536 51.7261 77.6894 51.7261H103.996C105.732 51.7261 107.275 50.5677 107.777 48.9075L108.625 46.0889H118.461C122.666 46.0889 126.06 49.4866 126.06 53.6952V178.188H126.099Z" fill="white"/>
<rect opacity="0.15" x="61" y="125" width="59" height="12" rx="3" fill="#909090"/>
<rect opacity="0.15" x="61" y="141" width="59" height="12" rx="3" fill="#909090"/>
<rect opacity="0.15" x="61" y="157" width="59" height="12" rx="3" fill="#909090"/>
<circle opacity="0.05" cx="91" cy="90" r="28" fill="#7F2684"/>
<circle opacity="0.1" cx="91.0001" cy="90.0001" r="24.2667" fill="#7F2684"/>
<path d="M70.9993 90.0466C71.0399 90.7203 70.9993 91.394 71.0601 92.0881C71.2223 93.946 71.6479 95.7629 72.3167 97.5187C72.9246 99.0703 73.715 100.561 74.6878 101.928C76.0052 103.827 77.667 105.44 79.5721 106.747C81.2745 107.91 83.1593 108.829 85.1251 109.441C86.6857 109.931 88.2867 110.217 89.9283 110.278C92.0563 110.401 94.1843 110.156 96.2312 109.584C98.3795 108.992 100.406 108.033 102.25 106.767C103.629 105.807 104.885 104.685 106 103.419C106.709 102.623 107.337 101.786 107.905 100.867C108.715 99.5807 109.364 98.2128 109.871 96.7837C110.499 94.9463 110.884 93.0477 110.985 91.1082C111.066 89.5974 110.945 88.0867 110.681 86.5963C110.175 83.6565 109.019 80.8596 107.276 78.4505C107.094 78.2464 107.074 77.9401 107.236 77.736C107.844 76.5723 107.743 75.1432 106.952 74.102C105.878 72.8158 104.196 72.3871 102.635 73.367C102.453 73.5099 102.21 73.5099 102.048 73.367C101.622 73.0608 101.176 72.7954 100.71 72.5504C98.5213 71.3459 96.1299 70.5293 93.6776 70.2026C91.9955 69.978 90.3134 69.978 88.6312 70.1618C86.7059 70.3659 84.8211 70.8763 83.0377 71.6521C81.011 72.53 79.1262 73.7549 77.5049 75.2657C75.9646 76.6335 74.6878 78.2464 73.6542 80.0021C72.7422 81.5741 72.0532 83.2482 71.5871 85.0039C71.1412 86.6576 70.9385 88.3521 70.9993 90.0466Z" fill="#EEEEEE"/>
<path d="M70.9993 90.048C70.9385 88.3535 71.1412 86.659 71.6073 85.0053C72.0532 83.2496 72.7422 81.5551 73.6745 80.0035C74.6878 78.2478 75.9646 76.6349 77.4643 75.2262C79.0857 73.7155 80.9705 72.4906 82.9971 71.6127C84.7806 70.8369 86.6654 70.3265 88.5907 70.1223C90.2728 69.9386 91.9549 69.9386 93.6371 70.1632C96.1096 70.5102 98.501 71.3064 100.67 72.511C101.136 72.756 101.561 73.0418 102.007 73.3276C102.169 73.4705 102.433 73.4705 102.595 73.3276C104.155 72.3681 105.838 72.7968 106.912 74.0626C107.702 75.1242 107.803 76.5328 107.195 77.6965C107.033 77.9211 107.054 78.2069 107.236 78.4111C108.979 80.8405 110.134 83.6171 110.641 86.5569C110.924 88.0472 111.026 89.558 110.945 91.0688C110.843 93.0082 110.458 94.9069 109.83 96.7443C109.323 98.1734 108.675 99.5412 107.864 100.827C107.297 101.726 106.668 102.583 105.959 103.379C104.844 104.645 103.588 105.768 102.21 106.728C100.386 108.014 98.3389 108.953 96.1907 109.545C94.1437 110.117 92.0157 110.362 89.8878 110.239C88.2664 110.157 86.6451 109.872 85.0846 109.402C83.0984 108.79 81.2339 107.871 79.5315 106.707C77.6265 105.421 75.9646 103.788 74.6473 101.889C73.6745 100.521 72.8841 99.0513 72.2761 97.4793C71.6073 95.7439 71.1817 93.9065 71.0196 92.0487C70.9993 91.4158 71.0196 90.7217 70.9993 90.048ZM72.9449 90.1296C72.9449 90.5175 72.9449 90.9258 72.9449 91.3137C72.9449 91.5179 72.9854 91.7425 73.0057 91.9466C73.3502 95.9685 75.0729 99.7658 77.8899 102.644C82.0851 106.993 87.2126 108.83 93.1912 108.157C96.7987 107.769 100.183 106.238 102.858 103.767C107.499 99.5208 109.526 94.2128 108.857 87.9043C108.513 84.8624 107.398 81.9838 105.615 79.5135C105.513 79.3298 105.29 79.2481 105.108 79.3094C103.365 79.7381 101.622 78.6765 101.197 76.9207C101.075 76.4716 101.055 76.002 101.156 75.5529C101.237 75.2875 101.095 75.0221 100.852 74.92C96.9811 72.3272 92.2387 71.3677 87.6584 72.266C79.1059 73.838 72.9044 81.3713 72.9449 90.1296ZM104.338 77.8803C105.311 77.9007 106.101 77.1249 106.101 76.1449C106.101 76.1245 106.101 76.1245 106.101 76.1041C106.081 75.1242 105.311 74.3484 104.338 74.3484C103.365 74.3484 102.575 75.1242 102.575 76.1041V76.1245C102.595 77.1045 103.365 77.8803 104.338 77.8803Z" fill="#FEFDFE"/>
<path d="M72.9449 90.1296C72.9044 81.3713 79.1059 73.8584 87.6584 72.266C92.2387 71.3677 96.9608 72.3272 100.852 74.92C101.095 75.0221 101.217 75.2875 101.156 75.5529C100.832 77.3291 101.986 79.0234 103.75 79.35C104.195 79.4317 104.662 79.4319 105.108 79.3094C105.311 79.2481 105.533 79.3296 105.634 79.5134C107.418 81.9836 108.532 84.8827 108.877 87.9042C109.546 94.2126 107.539 99.5206 102.878 103.767C100.203 106.237 96.8184 107.769 93.2109 108.156C87.2323 108.83 82.1048 106.993 77.9097 102.644C75.0926 99.7452 73.37 95.9683 73.0254 91.9465C73.0052 91.7423 72.9646 91.5177 72.9646 91.3136C72.9444 90.9257 72.9449 90.5175 72.9449 90.1296ZM90.1304 87.8429L90.2115 87.9246L90.556 88.4554C90.5357 88.5166 90.5763 88.5983 90.6168 88.6391L90.6371 91.7015C91.1235 91.824 91.6301 91.824 92.0963 91.7015C92.1368 90.7623 92.1368 89.8232 92.0963 88.8841C92.1165 88.8637 92.1165 88.8229 92.0963 88.8025C92.076 88.6391 92.0557 88.4554 92.0355 88.2921L91.9747 88.1492L91.9544 88.0267C91.9747 87.9654 91.9341 87.8837 91.8936 87.8429C91.8125 87.5571 91.6504 87.2917 91.4275 87.0875C91.3667 86.9446 91.2451 86.8426 91.1235 86.7813L90.9613 86.6588L90.86 86.5772C90.4344 86.2505 89.9277 86.0872 89.4211 86.0872H89.0968L88.8941 86.128C88.8739 86.1076 88.8536 86.1076 88.8334 86.128L88.6712 86.1484C88.6104 86.128 88.5294 86.1484 88.4888 86.2097C88.2051 86.2505 87.9619 86.373 87.739 86.5567L87.6376 86.6384C87.5363 86.6588 87.4552 86.7405 87.4147 86.8221L87.3336 86.9038C87.212 86.9855 87.1107 87.0875 87.0702 87.2304L86.9891 87.3325C86.7459 87.6388 86.5838 88.0267 86.5635 88.435C86.4014 89.1495 86.5027 89.8845 86.5027 90.599C86.4824 91.824 86.5027 91.824 87.739 91.7831C87.9619 91.7831 88.0227 91.7015 88.0227 91.4973C88.0024 90.7215 88.0024 89.9253 88.0024 89.1495C87.9011 88.3941 88.428 87.7204 89.1779 87.6183C89.4819 87.5775 89.7859 87.6388 90.0291 87.7817L90.1304 87.8429ZM74.8089 91.089C74.8089 91.6198 74.7886 92.1302 74.8089 92.661C74.8291 93.0489 74.6467 93.5593 74.8899 93.7634C75.1331 93.9472 75.6195 93.8043 75.9843 93.8451C76.2478 93.8655 76.3289 93.7839 76.3289 93.5185C76.3086 93.0489 76.3289 92.5793 76.3086 92.1098C76.3086 91.8648 76.3491 91.7423 76.6329 91.7627C76.9774 91.7831 77.3017 91.7831 77.6462 91.7627C79.2067 91.7423 80.443 90.4561 80.4227 88.8841C80.4025 87.3325 79.1459 86.0872 77.6057 86.0668C76.0451 86.0668 74.7886 87.3325 74.7886 88.8841V88.9045C74.7886 89.6395 74.8089 90.3745 74.8089 91.089ZM105.31 86.0668C104.824 86.0668 104.317 86.0668 103.831 86.0668C102.858 86.0463 102.027 86.8221 102.007 87.8021C102.007 87.8225 102.007 87.8225 102.007 87.8429C102.007 88.8433 102.797 89.6395 103.77 89.6599H103.79C104.418 89.6599 105.067 89.6599 105.695 89.6599C105.898 89.6599 106.121 89.6803 106.121 89.9457C106.121 90.2111 105.898 90.2315 105.695 90.2315C105.006 90.2315 104.317 90.2315 103.628 90.2315C103.263 90.2315 102.777 90.0682 102.574 90.3132C102.392 90.5378 102.534 91.0278 102.493 91.3748C102.473 91.6402 102.534 91.7627 102.838 91.7423C103.81 91.7219 104.783 91.7423 105.756 91.7219C105.979 91.7219 106.202 91.6811 106.425 91.6198C107.215 91.3544 107.722 90.5786 107.641 89.7416C107.539 88.8229 106.79 88.1287 105.878 88.1287C105.249 88.1083 104.601 88.1287 103.972 88.1083C103.77 88.1083 103.547 88.1287 103.527 87.8429C103.527 87.5571 103.75 87.5775 103.952 87.5775C104.621 87.5775 105.31 87.5775 105.979 87.5775C107.195 87.5775 107.195 87.5775 107.154 86.3322C107.154 86.1076 107.094 86.0463 106.871 86.0463C106.344 86.0668 105.817 86.0668 105.31 86.0668ZM98.9464 92.0281C100.507 92.0281 101.784 90.7624 101.804 89.1903V89.1699C101.784 87.6183 100.527 86.373 98.9869 86.3526C97.4264 86.3526 96.1496 87.5979 96.1496 89.1699C96.1293 90.7419 97.3656 92.0077 98.9261 92.0281H98.9464ZM80.6457 87.9654C80.6457 88.3941 80.6457 88.8229 80.6457 89.2516C80.6862 90.7419 81.8616 91.9465 83.3208 92.0281C84.5368 92.1098 86.0366 91.1911 86.2392 89.6395C86.3 88.9249 86.3203 88.2308 86.2798 87.5163C86.3 86.3117 86.2798 86.3117 85.084 86.3322C84.8206 86.3322 84.7598 86.4138 84.7598 86.6792C84.78 87.4754 84.78 88.2716 84.7598 89.0679C84.8206 89.8028 84.2531 90.4561 83.5235 90.5174C83.483 90.5174 83.4627 90.5174 83.4222 90.5174C82.6723 90.5174 82.1454 89.9253 82.1454 89.0679C82.1454 88.2716 82.1251 87.4754 82.1454 86.6792C82.1454 86.4138 82.0846 86.3117 81.8211 86.3322C81.5171 86.3526 81.1929 86.3526 80.8889 86.3322C80.6862 86.3322 80.6254 86.4138 80.6254 86.5976C80.6457 87.0467 80.6457 87.4959 80.6457 87.9654ZM92.3395 86.6588C92.3395 87.3734 92.3395 88.1083 92.3395 88.8229C92.3192 90.3745 93.5149 91.6811 95.0552 91.7423C95.9267 91.8035 95.9267 91.8035 95.9267 90.9461C95.9267 90.8236 95.9267 90.6807 95.9267 90.5582C95.9469 90.3132 95.8659 90.1907 95.6024 90.2111C95.4605 90.2315 95.3187 90.2315 95.1768 90.2111C94.4877 90.2315 93.9203 89.7007 93.8797 89.0066C93.8392 88.5779 93.8595 88.1492 93.8392 87.7204C93.8392 87.5367 93.9 87.4754 94.0824 87.4754C94.4067 87.4959 94.7309 87.4754 95.0552 87.4754C95.9267 87.4754 95.9267 87.4754 95.9267 86.5772C95.9267 85.9239 95.9875 86.0259 95.3997 86.0259C95.1971 86.0259 94.9741 86.0259 94.7715 86.0259C93.8595 86.0259 93.8595 86.0259 93.8595 85.1072C93.8595 83.9027 93.8595 83.9231 92.6435 83.964C92.4003 83.964 92.3395 84.0456 92.3395 84.2906C92.3597 85.0868 92.3597 85.8626 92.3395 86.6588ZM101.074 95.7846C101.074 95.4375 101.074 95.1109 101.074 94.7638C101.074 94.6209 101.054 94.5188 100.872 94.5188C100.73 94.5188 100.629 94.5392 100.629 94.723C100.608 94.968 100.73 95.2538 100.568 95.4171C100.385 95.5804 100.081 95.4375 99.8381 95.4988C99.7976 95.4988 99.757 95.4988 99.7165 95.5192C99.1288 95.6213 98.7032 96.1521 98.7437 96.7645C98.8045 97.377 99.3112 97.867 99.9192 97.867C100.547 97.867 101.054 97.377 101.095 96.7645C101.074 96.4379 101.074 96.1112 101.074 95.7846ZM94.7512 97.8874C94.9741 97.8874 95.1971 97.8874 95.42 97.867C95.7848 97.8466 96.0685 97.5199 96.0483 97.1524C96.0483 96.785 95.7443 96.4787 95.3795 96.4787C95.0957 96.4583 94.812 96.4787 94.5283 96.4787C94.3661 96.4787 94.204 96.4583 94.1837 96.2541C94.1635 96.0092 94.3459 95.9887 94.5283 95.9887C94.8728 95.9887 95.2376 95.9887 95.5821 95.9887C95.7443 95.9887 95.8051 95.9275 95.8051 95.7642C95.8051 95.6213 95.8051 95.4988 95.6227 95.4988C95.1768 95.4988 94.7107 95.4988 94.2648 95.5396C93.9 95.5804 93.6568 95.8867 93.6771 96.2541C93.6771 96.6216 93.9811 96.9279 94.3661 96.9279C94.6701 96.9483 94.9539 96.9279 95.2579 96.9279C95.4403 96.9279 95.5821 96.9891 95.5619 97.1933C95.5416 97.377 95.3997 97.4178 95.2579 97.4178C94.9133 97.4178 94.5485 97.4178 94.204 97.4178C94.0419 97.4178 93.9405 97.4178 93.9405 97.6424C93.9405 97.8466 94.0216 97.9282 94.2243 97.9078C94.3864 97.867 94.5688 97.8874 94.7512 97.8874ZM85.2259 95.5192C84.6787 95.4784 84.172 95.8254 84.0302 96.3562C83.868 96.8666 84.091 97.4383 84.5571 97.7241C85.003 97.9895 85.5907 97.9282 85.9555 97.5812C86.0366 97.4995 86.2392 97.4383 86.0568 97.2545C85.9352 97.132 85.8339 97.0095 85.6515 97.2137C85.5299 97.3566 85.3475 97.4383 85.1651 97.4178C85.1043 97.4178 85.003 97.3974 84.9827 97.3566C84.9219 97.2749 85.003 97.2137 85.0638 97.1524C85.307 96.9074 85.5299 96.6625 85.7731 96.4379C86.1987 96.0092 86.1379 95.7642 85.5502 95.5804C85.4286 95.5396 85.3272 95.5192 85.2259 95.5192ZM92.3395 95.5192C91.6909 95.5192 91.164 96.05 91.164 96.7033C91.1843 97.3566 91.7112 97.8874 92.38 97.8874C93.0285 97.867 93.5352 97.3158 93.5352 96.6625C93.5352 96.0296 93.0285 95.4988 92.4003 95.4988C92.38 95.5192 92.3597 95.5192 92.3395 95.5192ZM96.2104 96.2541C96.2104 96.3971 96.2104 96.54 96.2104 96.6829C96.1901 97.3158 96.6968 97.867 97.325 97.8874C97.9533 97.9078 98.4802 97.4382 98.541 96.8258C98.5816 96.4583 98.541 96.0908 98.5613 95.7233C98.5613 95.5192 98.4397 95.4988 98.2978 95.4988C98.1357 95.4988 98.0749 95.56 98.0749 95.7233C98.0749 96.0296 98.0749 96.3154 98.0749 96.6216C98.1154 97.0095 97.8114 97.377 97.4264 97.4178C97.4061 97.4178 97.3858 97.4178 97.3656 97.4178C96.9805 97.4178 96.6562 97.0912 96.6562 96.6829V96.6625C96.636 96.3562 96.6562 96.0704 96.6562 95.7642C96.6562 95.6008 96.6157 95.4988 96.4333 95.4988C96.2509 95.4988 96.1901 95.5804 96.1901 95.7438C96.2307 95.9071 96.2306 96.0704 96.2104 96.2541ZM88.6712 97.1728C88.6712 97.0095 88.6712 96.8258 88.6712 96.6625C88.651 96.0092 88.1038 95.4988 87.4552 95.5192C87.435 95.5192 87.435 95.5192 87.4147 95.5192C86.7864 95.5396 86.3 96.0704 86.3203 96.7033V96.7237C86.3203 97.0299 86.3203 97.3158 86.3203 97.622C86.3203 97.7649 86.3203 97.9078 86.523 97.9078C86.7459 97.9078 86.7864 97.8262 86.7864 97.622C86.7864 97.3158 86.7662 96.9891 86.7864 96.6829C86.7864 96.295 87.1107 95.9887 87.4958 95.9887C87.8808 95.9887 88.2051 96.3154 88.1848 96.7237V96.7441C88.1848 97.0504 88.1848 97.377 88.1848 97.6832C88.1848 97.8874 88.2862 97.9078 88.4483 97.9078C88.6104 97.9078 88.6915 97.867 88.6915 97.6832C88.6712 97.4995 88.6712 97.3362 88.6712 97.1728ZM82.7736 95.4988C82.2264 95.4988 81.7603 95.8663 81.6387 96.3971C81.5171 96.9074 81.74 97.4383 82.1859 97.7037C82.652 97.9691 83.2195 97.8874 83.6046 97.5403C83.7059 97.4383 83.8275 97.3566 83.6654 97.2137C83.5438 97.0912 83.4627 97.0299 83.2803 97.1728C82.8952 97.4791 82.5507 97.4587 82.267 97.1524C82.0238 96.887 82.0238 96.4787 82.2467 96.2133C82.4696 95.9275 82.8952 95.8662 83.179 96.0908C83.1992 96.1112 83.2398 96.1317 83.26 96.1521C83.4424 96.3154 83.5438 96.2541 83.6654 96.1112C83.868 95.9071 83.6248 95.8458 83.5438 95.7642C83.3411 95.5804 83.0574 95.4784 82.7736 95.4988ZM88.8334 96.6829C88.8131 97.1728 89.1171 97.6016 89.5629 97.7853C89.9885 97.9691 90.4952 97.867 90.8195 97.5403C90.9208 97.4383 91.0424 97.3566 90.8803 97.1933C90.7587 97.0708 90.6573 96.9891 90.5155 97.1524C90.3533 97.3566 90.0696 97.4383 89.8264 97.3362C89.5427 97.2545 89.34 97.0095 89.3197 96.7237C89.2792 96.4379 89.4211 96.1725 89.6845 96.05C89.948 95.8663 90.2925 95.9071 90.4952 96.1521C90.6573 96.3154 90.7587 96.295 90.9005 96.1317C91.0829 95.9275 90.8803 95.8458 90.7992 95.7642C90.4547 95.4375 89.948 95.3763 89.5427 95.5804C89.0765 95.7846 88.8131 96.2133 88.8334 96.6829Z" fill="#7F2684"/>
<path d="M104.338 77.8803C103.385 77.8803 102.594 77.1047 102.574 76.1452C102.574 76.1452 102.575 76.1449 102.575 76.1245C102.575 75.1446 103.344 74.3486 104.317 74.3486L104.338 74.3484C105.311 74.3484 106.081 75.1242 106.101 76.1041C106.101 77.0841 105.33 77.8805 104.358 77.8805C104.378 77.8805 104.358 77.8803 104.338 77.8803Z" fill="#E2890A"/>
<path d="M74.8092 91.0879C74.8092 90.3733 74.8092 89.6384 74.8092 88.9238C74.8092 87.3518 76.0454 86.0861 77.606 86.0861H77.6262C79.1665 86.0861 80.423 87.3518 80.4433 88.9034C80.4636 90.4754 79.2273 91.7616 77.6668 91.782C77.3222 91.782 76.998 91.8024 76.6534 91.782C76.3697 91.7616 76.3292 91.8637 76.3292 92.1291C76.3494 92.5986 76.3292 93.0682 76.3494 93.5378C76.3697 93.8032 76.2684 93.8848 76.0049 93.8644C75.6198 93.844 75.1334 93.9869 74.9105 93.7828C74.6673 93.5786 74.8497 93.0682 74.8294 92.6803C74.7889 92.1495 74.7889 91.6187 74.8092 91.0879ZM76.3089 89.373C76.3292 90.2304 76.3292 90.2304 77.1601 90.2304C77.3425 90.2304 77.5249 90.2304 77.7073 90.2304C78.3761 90.1896 78.903 89.618 78.9436 88.9443C78.9436 88.2705 78.4774 87.7193 77.8086 87.5968C77.1601 87.5152 76.5318 87.9235 76.3494 88.5564C76.3089 88.8422 76.2886 89.1076 76.3089 89.373Z" fill="#FEFDFE"/>
<path d="M105.31 86.0682C105.837 86.0682 106.364 86.0682 106.871 86.0682C107.094 86.0682 107.154 86.1294 107.154 86.354C107.195 87.5994 107.195 87.5994 105.979 87.5994C105.31 87.5994 104.621 87.5994 103.952 87.5994C103.75 87.5994 103.527 87.5994 103.527 87.8648C103.527 88.1506 103.77 88.1302 103.972 88.1302C104.601 88.1302 105.249 88.1098 105.878 88.1506C106.79 88.1506 107.56 88.8447 107.641 89.7634C107.722 90.6005 107.215 91.3763 106.425 91.6417C106.202 91.7029 105.979 91.7437 105.756 91.7437C104.783 91.7642 103.81 91.7437 102.838 91.7642C102.534 91.7642 102.473 91.6621 102.493 91.3967C102.513 91.0292 102.392 90.5596 102.574 90.3351C102.777 90.0901 103.263 90.2534 103.628 90.2534C104.317 90.233 105.006 90.2534 105.695 90.2534C105.898 90.2534 106.121 90.233 106.121 89.9676C106.121 89.7022 105.898 89.6818 105.695 89.6818C105.067 89.6818 104.418 89.6818 103.79 89.6818C102.797 89.6818 102.007 88.8856 101.986 87.9056C101.986 87.8852 101.986 87.8852 101.986 87.8648C101.986 86.8848 102.797 86.0886 103.77 86.0886C103.79 86.0886 103.79 86.0886 103.81 86.0886C104.317 86.0478 104.803 86.0682 105.31 86.0682Z" fill="#FEFDFE"/>
<path d="M98.9467 92.0293C97.3862 92.0293 96.1499 90.7431 96.1499 89.1915V89.1711C96.1702 87.5991 97.4267 86.3333 98.9872 86.3537C100.527 86.3742 101.764 87.6195 101.804 89.1711C101.804 90.7431 100.548 92.0293 98.9872 92.0293C98.9669 92.0293 98.9467 92.0293 98.9467 92.0293ZM98.9467 90.4981C99.6763 90.5185 100.264 89.9265 100.284 89.2119C100.284 89.2119 100.284 89.2119 100.284 89.1915C100.264 88.4565 99.6763 87.8645 98.9669 87.8645C98.2576 87.8849 97.6901 88.4565 97.6699 89.1711C97.6496 89.8856 98.1968 90.4777 98.9061 90.4981C98.9061 90.4981 98.9264 90.4981 98.9467 90.4981Z" fill="#FEFDFE"/>
<path d="M80.6468 87.9649C80.6468 87.5158 80.6468 87.0462 80.6468 86.5971C80.6468 86.3929 80.7076 86.3113 80.9103 86.3317C81.2143 86.3521 81.5386 86.3521 81.8426 86.3317C82.106 86.3113 82.1871 86.4133 82.1668 86.6787C82.1466 87.475 82.1668 88.2712 82.1668 89.0674C82.1668 89.9248 82.6938 90.4965 83.4436 90.5169C84.1732 90.5169 84.7812 89.9248 84.7812 89.1694C84.7812 89.1286 84.7812 89.1082 84.7812 89.0674C84.7812 88.2712 84.7812 87.475 84.7812 86.6787C84.7812 86.4338 84.842 86.3317 85.1055 86.3317C86.3012 86.3113 86.3012 86.3113 86.3012 87.5158C86.3215 88.2303 86.3215 88.9449 86.2607 89.639C86.058 91.1702 84.5583 92.0889 83.3423 92.0276C81.8628 91.946 80.7076 90.7415 80.6671 89.2511C80.6468 88.802 80.6468 88.3937 80.6468 87.9649Z" fill="#FEFDFE"/>
<path d="M90.6579 91.6821C90.6579 90.6613 90.6376 89.6406 90.6376 88.6198C90.6579 88.5585 90.6376 88.4769 90.5768 88.436L90.2323 87.9052L90.1513 87.8236L90.0499 87.7419C89.4014 87.354 88.5705 87.5786 88.1854 88.2319C88.0435 88.4973 87.9827 88.8035 88.0233 89.0893C87.8814 89.5793 87.9625 90.1101 87.9625 90.6001C87.9422 91.58 87.9625 91.58 86.9694 91.5596C86.7059 91.5596 86.6046 91.478 86.6046 91.1921C86.6249 90.253 86.6046 89.3139 86.6046 88.3748C86.6249 87.9665 86.787 87.599 87.0302 87.2724L87.1113 87.1703C87.1721 87.0274 87.2531 86.9253 87.3747 86.8436L87.4558 86.762C87.4963 86.6599 87.5977 86.5986 87.6787 86.5782L87.7801 86.4966C87.9827 86.3128 88.2462 86.1903 88.5299 86.1495C88.5907 86.1699 88.6718 86.1495 88.7123 86.0882L88.8745 86.0678C88.8947 86.0678 88.915 86.0678 88.9353 86.0678L89.1379 86.027C89.2393 86.1087 89.3609 86.1087 89.4622 86.027C89.9891 86.027 90.4958 86.1903 90.9011 86.517L91.0024 86.5986L91.1646 86.7211C91.1646 86.9457 91.2659 87.0478 91.4686 87.0274C91.6915 87.2315 91.8536 87.4969 91.9144 87.7827C91.8942 87.844 91.9347 87.9257 91.9752 87.9665L91.9955 88.089L92.0563 88.2319L92.1171 88.7423L92.0968 88.7627C92.0968 88.7831 92.1171 88.8035 92.1171 88.8239C92.1374 89.7631 92.1576 90.7022 92.1171 91.6413L90.6579 91.6821Z" fill="white"/>
<path d="M92.3609 86.6591C92.3609 85.8833 92.3609 85.0871 92.3609 84.3113C92.3609 84.0663 92.4217 84.0051 92.6649 83.9847C93.8809 83.9438 93.8809 83.9438 93.8809 85.1279C93.8809 86.0466 93.8809 86.0466 94.7929 86.0466C94.9955 86.0466 95.2185 86.0466 95.4211 86.0466C96.0089 86.0466 95.9481 85.965 95.9481 86.5979C95.9481 87.4961 95.9481 87.4961 95.0766 87.4961C94.7523 87.4961 94.4281 87.4961 94.1038 87.4961C93.9214 87.4961 93.8606 87.5574 93.8606 87.7411C93.8809 88.1699 93.8606 88.5986 93.9012 89.0273C93.9417 89.7214 94.5091 90.2522 95.1982 90.2318C95.3401 90.2522 95.4819 90.2522 95.6238 90.2318C95.8873 90.191 95.9683 90.3135 95.9481 90.5789C95.9481 90.7014 95.9481 90.8443 95.9481 90.9668C95.9481 91.8242 95.9481 91.8242 95.0766 91.763C93.5364 91.7017 92.3204 90.3952 92.3609 88.8436C92.3406 88.1086 92.3609 87.3736 92.3609 86.6591Z" fill="#FAFAFA"/>
<path d="M101.074 95.7846C101.074 96.1112 101.095 96.4382 101.074 96.7649C101.034 97.3978 100.527 97.8673 99.899 97.8673C99.2707 97.8469 98.764 97.3774 98.7235 96.7649C98.683 96.1524 99.1086 95.6216 99.6963 95.5195C99.7368 95.5195 99.7774 95.5195 99.8179 95.4991C100.061 95.4379 100.365 95.5808 100.548 95.4175C100.71 95.2541 100.608 94.9683 100.608 94.7233C100.608 94.5396 100.71 94.5192 100.852 94.5192C101.034 94.5192 101.054 94.6213 101.054 94.7642C101.074 95.1112 101.074 95.4579 101.074 95.7846ZM100.629 96.4587C100.568 96.2749 100.71 96.0708 100.507 95.9687C100.122 95.887 99.7166 95.9687 99.3923 96.1728C99.1896 96.377 99.1288 96.6628 99.2504 96.9282C99.3518 97.214 99.6152 97.3978 99.899 97.3774C100.183 97.3978 100.466 97.1936 100.548 96.9282C100.588 96.7853 100.629 96.622 100.629 96.4587Z" fill="#FAFAFA"/>
<path d="M94.7512 97.8874C94.5688 97.8874 94.3867 97.888 94.2043 97.888C94.0016 97.9084 93.9205 97.8268 93.9205 97.6226C93.9205 97.398 94.0421 97.398 94.184 97.398C94.5285 97.398 94.8933 97.398 95.2379 97.398C95.4 97.398 95.5216 97.3572 95.5419 97.1735C95.5621 96.9693 95.4203 96.9081 95.2379 96.9081C94.9339 96.9081 94.6501 96.9081 94.3461 96.9081C93.9813 96.9081 93.6773 96.6018 93.6571 96.2344C93.6368 95.8669 93.88 95.5606 94.2448 95.5198C94.6907 95.479 95.1365 95.4994 95.6027 95.479C95.7851 95.479 95.785 95.6015 95.785 95.7444C95.785 95.9077 95.7243 95.969 95.5621 95.969C95.2176 95.969 94.8528 95.969 94.5083 95.969C94.3259 95.969 94.1435 95.9894 94.1637 96.2344C94.184 96.4385 94.3461 96.4589 94.5083 96.4589C94.792 96.4589 95.0757 96.4589 95.3595 96.4589C95.7243 96.4589 96.0283 96.7652 96.0283 97.1326C96.0485 97.5001 95.7648 97.8268 95.4 97.8472C95.1973 97.8676 94.9741 97.867 94.7512 97.8874Z" fill="#FAFAFA"/>
<path d="M85.227 95.5183C85.3283 95.5183 85.4297 95.5387 85.531 95.5592C86.1187 95.7429 86.1795 95.9879 85.7539 96.4166C85.5107 96.6616 85.2675 96.9066 85.0446 97.1312C84.9838 97.1924 84.9027 97.2537 84.9635 97.3353C85.0041 97.3762 85.0851 97.3762 85.1459 97.3966C85.3283 97.417 85.5107 97.3353 85.6323 97.1924C85.8147 96.9883 85.8958 97.1108 86.0377 97.2332C86.2201 97.417 86.0377 97.4782 85.9363 97.5599C85.5513 97.9274 84.9838 97.9886 84.538 97.7028C84.0718 97.417 83.8692 96.8658 84.011 96.335C84.1732 95.8246 84.6798 95.4775 85.227 95.5183ZM84.4974 96.9883C84.8217 96.7024 85.1257 96.3962 85.4094 96.0491C84.7609 95.8858 84.3961 96.2329 84.4974 96.9883Z" fill="#FAFAFA"/>
<path d="M92.3395 95.5192C92.9677 95.4988 93.4946 95.9885 93.5351 96.6214C93.5351 96.6418 93.5351 96.6622 93.5351 96.6827C93.5351 97.336 93.0284 97.8872 92.3799 97.9076C91.7314 97.9076 91.2044 97.3768 91.1639 96.7235C91.1639 96.0498 91.6909 95.5192 92.3395 95.5192ZM93.0892 96.6827C93.069 96.2948 92.765 95.9885 92.3799 95.9681C91.9746 95.9681 91.6503 96.3152 91.6706 96.7031C91.6908 97.091 91.9948 97.3972 92.3799 97.3972C92.765 97.3972 93.069 97.0706 93.0892 96.6827Z" fill="#FAFAFA"/>
<path d="M96.2323 96.254C96.2323 96.0907 96.2323 95.907 96.2323 95.7437C96.212 95.5599 96.2728 95.4987 96.4755 95.4987C96.6782 95.4987 96.7187 95.6007 96.6984 95.7641C96.6984 96.0703 96.6782 96.3561 96.6984 96.6624C96.6782 97.0503 96.9822 97.3973 97.3875 97.4177H97.4078C97.8131 97.4177 98.1171 97.0911 98.1171 96.6828C98.1171 96.6624 98.1171 96.6419 98.1171 96.6215C98.1171 96.3153 98.1171 96.0295 98.1171 95.7232C98.1171 95.5599 98.1779 95.4987 98.34 95.4987C98.4819 95.4987 98.6238 95.4987 98.6035 95.7232C98.5832 96.0907 98.6238 96.4582 98.5832 96.8257C98.5224 97.4382 97.9752 97.9077 97.3672 97.8873C96.739 97.8669 96.2323 97.3157 96.2526 96.6828C96.212 96.5399 96.2323 96.397 96.2323 96.254Z" fill="#FAFAFA"/>
<path d="M88.6712 97.1728C88.6712 97.3362 88.6712 97.5198 88.6712 97.6831C88.6712 97.8465 88.5901 97.9077 88.428 97.9077C88.2659 97.9077 88.1645 97.8873 88.1645 97.6831C88.1848 97.3769 88.1645 97.0503 88.1645 96.744C88.1848 96.3561 87.8808 96.0092 87.4958 95.9887L87.4755 95.9887C87.0904 95.9887 86.7661 96.2949 86.7661 96.6828C86.7459 96.989 86.7459 97.3157 86.7661 97.6219C86.7661 97.8056 86.7256 97.9077 86.5027 97.9077C86.3 97.9077 86.3 97.7648 86.3 97.6219C86.3 97.3157 86.3 97.0298 86.3 96.7236C86.2595 96.0907 86.7459 95.5395 87.3741 95.5191H87.3944C88.0429 95.4783 88.6104 95.9682 88.6509 96.6215C88.6509 96.642 88.6509 96.6419 88.6509 96.6624C88.6914 96.8257 88.6712 96.9891 88.6712 97.1728Z" fill="#FAFAFA"/>
<path d="M82.7741 95.4996C83.0578 95.4792 83.3416 95.5813 83.5442 95.7854C83.6253 95.8671 83.8685 95.9283 83.6658 96.1325C83.524 96.2754 83.4429 96.3366 83.2605 96.1733C83.0173 95.9079 82.5917 95.8875 82.3282 96.1529C82.308 96.1733 82.2877 96.1937 82.2674 96.2346C82.0445 96.5 82.0445 96.9083 82.2877 97.1737C82.5714 97.4799 82.916 97.5003 83.301 97.1941C83.4834 97.0512 83.5442 97.1124 83.6861 97.2349C83.8685 97.3982 83.7266 97.4799 83.6253 97.5616C83.2402 97.929 82.6728 97.9903 82.2066 97.7249C81.7608 97.4595 81.5176 96.9287 81.6595 96.4183C81.7608 95.8671 82.2269 95.4996 82.7741 95.4996Z" fill="#FAFAFA"/>
<path d="M88.8338 96.6837C88.8136 96.2141 89.077 95.7854 89.5026 95.6017C89.9282 95.3975 90.4146 95.4588 90.7592 95.7854C90.8605 95.8671 91.0632 95.9487 90.8605 96.1529C90.7186 96.2958 90.6173 96.3366 90.4552 96.1733C90.2322 95.9487 89.8877 95.9079 89.6445 96.0712C89.4013 96.1937 89.2594 96.4591 89.2797 96.745C89.3 97.0308 89.5026 97.2758 89.7864 97.3574C90.0296 97.4391 90.3133 97.3778 90.4754 97.1737C90.6376 97.0104 90.7186 97.0716 90.8402 97.2145C91.0024 97.3778 90.901 97.4595 90.7794 97.5616C90.4552 97.8882 89.9485 97.9903 89.5229 97.8066C89.1176 97.6228 88.8136 97.1737 88.8338 96.6837Z" fill="#FAFAFA"/>
<path d="M86.5638 88.4339C86.5638 89.373 86.5841 90.3121 86.5638 91.2512C86.5638 91.5371 86.6652 91.6187 86.9286 91.6187C87.9217 91.6391 87.9014 91.6391 87.9217 90.6592C87.9217 90.1488 87.8406 89.6384 87.9825 89.1484C87.9825 89.9242 87.9825 90.7204 88.0028 91.4962C88.0028 91.7208 87.942 91.782 87.719 91.782C86.4828 91.8229 86.4828 91.8433 86.4828 90.5979C86.503 89.863 86.4017 89.1484 86.5638 88.4339Z" fill="#FAFAFA"/>
<path d="M90.6579 91.6808H92.1171C91.6509 91.8033 91.1443 91.8033 90.6579 91.6808Z" fill="#FAFAFA"/>
<path d="M91.4684 87.0863C91.2455 87.0863 91.1441 86.9842 91.1644 86.7801C91.286 86.8413 91.3873 86.9434 91.4684 87.0863Z" fill="#FAFAFA"/>
<path d="M89.4424 86.0861C89.3411 86.1677 89.2195 86.1677 89.1181 86.0861H89.4424Z" fill="#FAFAFA"/>
<path d="M91.9944 88.0056C91.9336 87.9648 91.9134 87.9036 91.9336 87.8219C91.9742 87.8832 91.9944 87.9444 91.9944 88.0056Z" fill="#FAFAFA"/>
<path d="M90.5759 88.4552C90.6367 88.496 90.657 88.5777 90.6367 88.639C90.5759 88.5777 90.5556 88.5165 90.5759 88.4552Z" fill="#FAFAFA"/>
<path d="M88.6927 86.1484C88.6522 86.2097 88.5711 86.2301 88.5103 86.2097C88.5509 86.1688 88.6319 86.1484 88.6927 86.1484Z" fill="#FAFAFA"/>
<path d="M92.1368 88.865C92.1368 88.8446 92.1166 88.8242 92.1166 88.8038L92.1368 88.7833C92.1571 88.8038 92.1571 88.8446 92.1368 88.865Z" fill="#FAFAFA"/>
<path d="M88.9155 86.1293C88.8953 86.1293 88.875 86.1497 88.8547 86.1293C88.875 86.1089 88.8953 86.1089 88.9155 86.1293Z" fill="#FAFAFA"/>
<path d="M76.309 89.3747C76.309 89.1093 76.3293 88.8439 76.3698 88.5785C76.5522 87.9456 77.1602 87.5373 77.829 87.619C78.4775 87.7211 78.9639 88.2927 78.9639 88.9664C78.9436 89.6401 78.4167 90.1914 77.7276 90.2526C77.5452 90.273 77.3629 90.2526 77.1805 90.2526C76.309 90.2322 76.309 90.2322 76.309 89.3747Z" fill="#7F2684"/>
<path d="M98.9467 90.4981C98.2373 90.5185 97.67 89.947 97.6497 89.2324C97.6497 89.212 97.6497 89.1916 97.6497 89.1712C97.67 88.4566 98.2374 87.885 98.9468 87.8646C99.6764 87.8646 100.264 88.4566 100.264 89.1916C100.284 89.9265 99.6965 90.4981 98.9467 90.4981C98.9669 90.4981 98.9669 90.4981 98.9467 90.4981Z" fill="#7F2684"/>
<path d="M100.628 96.457C100.608 96.6204 100.588 96.7837 100.547 96.9266C100.466 97.2124 100.203 97.3961 99.8987 97.3757C99.615 97.3961 99.3313 97.192 99.2502 96.9266C99.1286 96.6612 99.1894 96.3754 99.3921 96.1712C99.7163 95.9466 100.122 95.865 100.507 95.9671C100.709 96.0895 100.568 96.2733 100.628 96.457Z" fill="#7F2684"/>
<path d="M84.4968 96.9893C84.4158 96.2339 84.7603 95.8869 85.4088 96.0502C85.1251 96.3972 84.8211 96.7035 84.4968 96.9893Z" fill="#7F2684"/>
<path d="M93.0892 96.6827C93.069 97.0706 92.765 97.3768 92.3799 97.3972C91.9948 97.3972 91.6706 97.091 91.6706 96.7031C91.6706 96.2948 91.9948 95.9681 92.3799 95.9681C92.765 95.9885 93.069 96.3152 93.0892 96.6827Z" fill="#7F2684"/>
</g>
<circle cx="135" cy="141" r="25" fill="url(#paint4_linear_2138_20204)"/>
<path d="M140.652 148.285C140.088 148.135 139.631 147.855 139.433 147.268C139.36 147.052 139.339 146.822 139.372 146.596C139.405 146.371 139.49 146.156 139.622 145.97C139.754 145.784 139.928 145.632 140.13 145.526C140.332 145.42 140.556 145.364 140.784 145.362C141.759 145.345 142.734 145.362 143.711 145.355C146.226 145.338 148.17 143.295 148.069 140.778C147.981 138.562 146.098 136.694 143.88 136.649C142.905 136.628 141.93 136.645 140.952 136.643C140.084 136.643 139.463 136.141 139.365 135.369C139.271 134.612 139.738 133.988 140.563 133.763C140.594 133.75 140.624 133.735 140.652 133.716H144.124C144.198 133.74 144.274 133.759 144.351 133.772C147.482 134.073 150.007 136.227 150.761 139.258C150.87 139.695 150.922 140.143 151 140.592V141.409C150.98 141.496 150.952 141.582 150.942 141.671C150.558 144.726 148.92 146.802 146.04 147.866C145.431 148.089 144.764 148.149 144.124 148.285H140.652Z" fill="white"/>
<path d="M129.351 133.716C129.903 133.862 130.354 134.132 130.558 134.7C130.637 134.917 130.663 135.15 130.634 135.379C130.604 135.607 130.52 135.826 130.389 136.016C130.258 136.206 130.083 136.361 129.88 136.469C129.676 136.578 129.449 136.636 129.218 136.638C128.243 136.656 127.268 136.638 126.291 136.645C124.298 136.656 122.57 137.982 122.075 139.874C121.825 140.807 121.893 141.798 122.268 142.689C122.644 143.579 123.305 144.32 124.148 144.792C124.779 145.158 125.495 145.353 126.225 145.355C127.178 145.36 128.131 145.355 129.084 145.355C129.924 145.355 130.538 145.863 130.637 146.627C130.736 147.391 130.264 148.013 129.44 148.237C129.408 148.25 129.379 148.266 129.351 148.285H125.879C125.805 148.261 125.729 148.242 125.652 148.229C122.54 147.936 120.016 145.793 119.253 142.775C119.139 142.328 119.084 141.865 119.003 141.409V140.592C119.029 140.494 119.049 140.395 119.063 140.295C119.317 137.406 121.404 134.852 124.188 134.056C124.739 133.901 125.315 133.827 125.879 133.716H129.351Z" fill="white"/>
<path d="M134.967 142.447C133.061 142.447 131.154 142.453 129.248 142.447C128.232 142.442 127.561 141.61 127.782 140.657C127.853 140.364 128.015 140.1 128.245 139.905C128.475 139.709 128.761 139.591 129.062 139.568C129.153 139.561 129.244 139.561 129.334 139.561C133.111 139.561 136.888 139.561 140.665 139.561C141.513 139.561 142.086 139.994 142.231 140.729C142.399 141.604 141.778 142.416 140.888 142.444C140.083 142.469 139.277 142.453 138.472 142.453L134.967 142.447Z" fill="white"/>
<defs>
<linearGradient id="paint0_linear_2138_20204" x1="44.0333" y1="-5.53333" x2="152.3" y2="251.533" gradientUnits="userSpaceOnUse">
<stop offset="0.219581" stop-color="#DDF5FB"/>
<stop offset="1" stop-color="#DA0095"/>
</linearGradient>
<linearGradient id="paint1_linear_2138_20204" x1="41.0667" y1="-11.5667" x2="156.1" y2="261.567" gradientUnits="userSpaceOnUse">
<stop offset="0.219581" stop-color="#DDF5FB"/>
<stop offset="1" stop-color="#DA0095"/>
</linearGradient>
<linearGradient id="paint2_linear_2138_20204" x1="47" y1="0.500002" x2="148.5" y2="241.5" gradientUnits="userSpaceOnUse">
<stop offset="0.219581" stop-color="#DDF5FB"/>
<stop offset="1" stop-color="#DA0095"/>
</linearGradient>
<linearGradient id="paint3_linear_2138_20204" x1="47" y1="0.500002" x2="148.5" y2="241.5" gradientUnits="userSpaceOnUse">
<stop offset="0.219581" stop-color="#DDF5FB"/>
<stop offset="1" stop-color="#DA0095"/>
</linearGradient>
<linearGradient id="paint4_linear_2138_20204" x1="115.585" y1="125.375" x2="151.569" y2="176.898" gradientUnits="userSpaceOnUse">
<stop stop-color="#CE57D3"/>
<stop offset="0.349738" stop-color="#9454E6"/>
<stop offset="0.635417" stop-color="#6A6CE9"/>
<stop offset="1" stop-color="#47BAD8"/>
</linearGradient>
</defs>
</svg>
