<svg width="22" height="21" viewBox="0 0 22 21" fill="none" xmlns="http://www.w3.org/2000/svg">
<path d="M20.3281 2.55783C19.8388 2.06853 19.1715 1.77932 18.4821 1.77932H16.6139V1.02317C16.6139 0.444939 16.1467 0 15.5907 0H14.8567C14.2785 0 13.8336 0.46714 13.8336 1.02317V1.80168L7.25064 1.80152V1.02317C7.25064 0.444943 6.7835 3.71187e-06 6.22748 3.71187e-06H5.49353C4.9153 3.71187e-06 4.47036 0.467144 4.47036 1.02317V1.80168H2.62436C1.17877 1.80168 0 2.98046 0 4.42604V18.1487C0 19.5943 1.17877 20.7731 2.62436 20.7731H14.9014C15.6353 20.7731 16.3248 20.4839 16.8363 19.9724L20.3282 16.4805C20.8397 15.969 21.1289 15.2796 21.1289 14.5456V4.42592C21.1067 3.71429 20.8399 3.04718 20.3282 2.55788L20.3281 2.55783ZM1.46771 18.1265V7.16172H19.5941V14.1232H15.3461C14.8789 14.1232 14.4787 14.5012 14.4787 14.9905V19.2608H2.602C1.97909 19.2386 1.46763 18.7493 1.46763 18.1266L1.46771 18.1265Z" fill="black"/>
<path d="M6.69436 9.27441H3.86972C3.69177 9.27441 3.55835 9.40784 3.55835 9.58578V11.9211C3.55835 12.0991 3.69177 12.2325 3.86972 12.2325H6.67204C6.84999 12.2325 6.98341 12.0991 6.98341 11.9211V9.58578C6.98341 9.43017 6.84999 9.27441 6.69438 9.27441H6.69436Z" fill="black"/>
<path d="M17.2144 12.2325C17.3923 12.2325 17.5257 12.0991 17.5257 11.9211V9.58578C17.5257 9.40783 17.3923 9.27441 17.2144 9.27441H14.3897C14.2118 9.27441 14.0784 9.40784 14.0784 9.58578V11.9211C14.0784 12.0991 14.2118 12.2325 14.3897 12.2325H17.2144Z" fill="black"/>
<path d="M11.9432 9.27441H9.14071C8.96276 9.27441 8.82935 9.40784 8.82935 9.58578V11.9211C8.82935 12.0991 8.96277 12.2325 9.14071 12.2325H11.943C12.121 12.2325 12.2544 12.0991 12.2544 11.9211L12.2546 9.58578C12.2546 9.43017 12.1211 9.27441 11.9432 9.27441H11.9432Z" fill="black"/>
<path d="M6.69436 14.1006H3.86972C3.69177 14.1006 3.55835 14.234 3.55835 14.412V16.7473C3.55835 16.9252 3.69177 17.0587 3.86972 17.0587H6.67204C6.84999 17.0587 6.98341 16.9252 6.98341 16.7473V14.4121C6.98341 14.2342 6.84999 14.1006 6.69438 14.1006H6.69436Z" fill="black"/>
<path d="M11.9432 14.1006H9.14071C8.96276 14.1006 8.82935 14.234 8.82935 14.412V16.7473C8.82935 16.9252 8.96277 17.0587 9.14071 17.0587H11.943C12.121 17.0587 12.2544 16.9252 12.2544 16.7473L12.2546 14.4121C12.2546 14.2342 12.1211 14.1006 11.9432 14.1006H11.9432Z" fill="black"/>
</svg>
