<svg width="17" height="17" viewBox="0 0 17 17" fill="none" xmlns="http://www.w3.org/2000/svg">
<path d="M15.1074 4.2183V1.9308C15.1074 1.61473 14.8521 1.35938 14.536 1.35938H2.46458C2.1485 1.35938 1.89315 1.61473 1.89315 1.9308V4.2183C1.59493 4.23616 1.35743 4.48438 1.35743 4.78795V7.13973C1.35629 7.57196 1.44381 7.99982 1.61458 8.39688C1.69136 8.57902 1.786 8.75045 1.89315 8.91295V15.0737C1.89315 15.3879 2.1485 15.6451 2.46458 15.6451H14.536C14.8521 15.6451 15.1074 15.3897 15.1074 15.0737V8.91295C15.2163 8.75004 15.3095 8.57725 15.386 8.39688C15.5556 7.99866 15.6431 7.57545 15.6431 7.13973V4.78795C15.6431 4.48438 15.4056 4.23616 15.1074 4.2183ZM3.17886 2.64509H13.8217V4.21652H3.17886V2.64509ZM9.64315 14.3612H7.35743V12.5022H9.64315V14.3612ZM13.8217 14.3612H10.786V11.9308C10.786 11.6147 10.5306 11.3594 10.2146 11.3594H6.786C6.46993 11.3594 6.21458 11.6147 6.21458 11.9308V14.3612H3.17886V10.0362C3.23065 10.0612 3.28422 10.0862 3.33958 10.1076C3.73779 10.2754 4.161 10.3594 4.59672 10.3594C5.03243 10.3594 5.45386 10.2754 5.85386 10.1076C6.10029 10.004 6.33243 9.87188 6.54493 9.71295C6.5485 9.71116 6.55208 9.71116 6.55565 9.71295C6.76881 9.87255 7.00094 10.0051 7.24672 10.1076C7.64493 10.2754 8.06815 10.3594 8.50386 10.3594C8.93958 10.3594 9.361 10.2754 9.761 10.1076C10.0074 10.004 10.2396 9.87188 10.4521 9.71295C10.4556 9.71116 10.4592 9.71116 10.4628 9.71295C10.676 9.87255 10.9081 10.0051 11.1539 10.1076C11.5521 10.2754 11.9753 10.3594 12.411 10.3594C12.8467 10.3594 13.2681 10.2754 13.6681 10.1076C13.7217 10.0844 13.7753 10.0612 13.8289 10.0362V14.3612H13.8217ZM14.3574 7.13973C14.3574 8.20759 13.4824 9.07366 12.4056 9.07366C11.6771 9.07366 11.0414 8.67902 10.7056 8.0933C10.6539 8.00402 10.561 7.94866 10.4574 7.94866H10.4467C10.3449 7.94866 10.2503 8.00402 10.1985 8.0933C10.0272 8.39208 9.77981 8.64018 9.48153 8.81237C9.18325 8.98456 8.8447 9.07471 8.50029 9.07366C7.7735 9.07366 7.13958 8.6808 6.80386 8.09688C6.75029 8.0058 6.65386 7.94866 6.5485 7.94866C6.44315 7.94866 6.34493 8.0058 6.29315 8.09688C6.12083 8.39451 5.87314 8.6415 5.57501 8.81298C5.27689 8.98445 4.93885 9.07436 4.59493 9.07366C3.51815 9.07366 2.64315 8.20759 2.64315 7.13973V5.51116C2.64315 5.5058 2.64672 5.50223 2.65208 5.50223H14.3485C14.3539 5.50223 14.3574 5.5058 14.3574 5.51116V7.13973Z" fill="white"/>
</svg>
