<svg width="22" height="22" viewBox="0 0 22 22" fill="none" xmlns="http://www.w3.org/2000/svg">
<path d="M10.0489 4.92707C10.3483 4.00576 11.6517 4.00576 11.951 4.92707L12.7961 7.52788C12.93 7.9399 13.3139 8.21886 13.7471 8.21886H16.4818C17.4505 8.21886 17.8533 9.45848 17.0696 10.0279L14.8572 11.6353C14.5067 11.8899 14.3601 12.3413 14.4939 12.7533L15.339 15.3541C15.6383 16.2754 14.5839 17.0416 13.8001 16.4722L11.5878 14.8648C11.2373 14.6101 10.7627 14.6101 10.4122 14.8648L8.19981 16.4722C7.41609 17.0416 6.36161 16.2754 6.66097 15.3541L7.50602 12.7533C7.63989 12.3413 7.49324 11.8899 7.14275 11.6353L4.93037 10.0279C4.14665 9.45848 4.54943 8.21886 5.51815 8.21886H8.25281C8.68603 8.21886 9.06999 7.9399 9.20386 7.52788L10.0489 4.92707Z" fill="black"/>
<path fill-rule="evenodd" clip-rule="evenodd" d="M11 19C15.4183 19 19 15.4183 19 11C19 6.58172 15.4183 3 11 3C6.58172 3 3 6.58172 3 11C3 15.4183 6.58172 19 11 19ZM11 22C17.0751 22 22 17.0751 22 11C22 4.92487 17.0751 0 11 0C4.92487 0 0 4.92487 0 11C0 17.0751 4.92487 22 11 22Z" fill="black"/>
</svg>
