<svg width="208" height="208" viewBox="0 0 208 208" fill="none" xmlns="http://www.w3.org/2000/svg">
<circle opacity="0.2" cx="104" cy="104" r="97.4412" stroke="url(#paint0_linear_1365_11711)"/>
<circle opacity="0.2" cx="104" cy="104" r="103.5" stroke="url(#paint1_linear_1365_11711)"/>
<circle cx="103.882" cy="103.882" r="91.3824" fill="url(#paint2_linear_1365_11711)" fill-opacity="0.2" stroke="url(#paint3_linear_1365_11711)"/>
<circle opacity="0.1" cx="103.608" cy="104.608" r="90.6078" fill="url(#paint4_linear_1365_11711)"/>
<mask id="mask0_1365_11711" style="mask-type:alpha" maskUnits="userSpaceOnUse" x="13" y="14" width="182" height="182">
<circle cx="103.608" cy="104.608" r="90.6078" fill="url(#paint5_linear_1365_11711)"/>
</mask>
<g mask="url(#mask0_1365_11711)">
<path d="M82.8631 16.6667C85.1277 13.9492 87.3735 11.2317 89.6381 8.53302C90.9968 6.92894 92.6009 5.72115 94.8089 5.72115C97.583 5.72115 99.3569 7.62719 101.15 9.47661C107.491 16.0062 113.379 24.3852 114.02 33.7455C114.454 40.1619 111.925 46.0498 107.906 50.9564C105.981 53.2965 109.604 56.3348 111.529 53.9759C115.813 48.7673 118.606 42.5963 118.776 35.7836C118.927 29.9523 117.077 24.3474 114.341 19.2521C111.812 14.5342 108.453 10.3258 104.773 6.45715C102.659 4.2303 100.565 2.11667 97.4886 1.32407C94.0729 0.455972 90.3363 1.36181 87.7131 3.68302C84.505 6.51376 81.9762 10.3447 79.2398 13.6095C77.296 15.9496 80.9194 18.969 82.8631 16.6289V16.6667Z" fill="#7F2684"/>
<path d="M13 246.938L25.8516 241.05L76.3331 197.023L100.243 120.291L126.607 133.709C126.607 133.709 123.531 191.362 119.53 211.196C115.511 231.03 34.3815 295.118 34.3815 295.118L13 246.938Z" fill="#FFD3CA"/>
<path d="M99.9604 121.914L101.357 114.082C101.357 114.082 96.7899 97.0973 97.2617 94.6629C97.7335 92.2285 98.2242 80.5658 98.2242 80.5658L109.962 67.2802C109.962 67.2802 112.661 67.0537 113.925 69.7146C113.925 69.7146 119.285 69.2806 120.493 72.9039C120.493 72.9039 124.38 71.1677 125.022 75.4893C125.38 77.9238 125.399 78.6786 125.343 78.8862C126.116 79.0561 130.551 80.1129 130.608 82.3397C130.646 84.1703 129.91 89.3788 128.74 92.3039C128.287 93.474 127.249 94.3043 126.022 94.5497L124.72 100.57C124.72 100.57 123.55 110.44 121.342 115.063L119.662 117.8L119.153 130.123L99.9604 121.914Z" fill="#FFD3CA"/>
<path d="M117.322 78.0377C116.832 74.8861 115.36 71.961 113.661 69.2812L109.17 72.1309C109.604 73.8104 110.321 74.9427 111 76.5846C111.68 78.2453 113.001 79.7361 114.718 80.189C115.7 80.4344 116.983 80.189 117.304 79.2077C117.436 78.8303 117.379 78.4151 117.304 78.0377H117.322Z" fill="#FFD3CA"/>
<path d="M109.17 72.1315C109.17 72.1315 109.189 72.4712 109.378 73.0562C109.547 73.6412 109.906 74.4527 110.359 75.4529C110.585 75.9624 110.812 76.5097 111.057 77.0759C111.34 77.6609 111.718 78.2648 112.208 78.812C112.699 79.3593 113.322 79.85 114.077 80.1708C114.813 80.4916 115.737 80.6237 116.568 80.2652C116.983 80.0953 117.341 79.7368 117.492 79.3027C117.643 78.8498 117.568 78.4157 117.511 78.0383C117.379 77.2646 117.209 76.5097 116.983 75.8303C116.549 74.4527 116.02 73.2638 115.511 72.2825C115.001 71.32 114.548 70.5652 114.209 70.0556C113.869 69.5461 113.68 69.2819 113.643 69.3007C113.624 69.3007 113.775 69.6027 114.077 70.1311C114.378 70.6595 114.794 71.4332 115.265 72.3957C115.737 73.377 116.247 74.5471 116.643 75.9247C116.851 76.6041 117.021 77.3401 117.134 78.0949C117.19 78.4724 117.228 78.8498 117.134 79.1895C117.021 79.5103 116.756 79.7934 116.398 79.9255C115.7 80.2274 114.888 80.1331 114.19 79.8311C113.492 79.548 112.907 79.0951 112.435 78.5856C111.963 78.076 111.585 77.5099 111.321 76.9438C111.057 76.3776 110.831 75.8115 110.585 75.3397C110.095 74.3583 109.717 73.5846 109.51 73.0185C109.283 72.4523 109.189 72.1315 109.17 72.1315Z" fill="#EB996E"/>
<path d="M116.321 80.1321C116.321 80.1321 116.302 80.2265 116.283 80.3963C116.283 80.5662 116.283 80.8304 116.283 81.1701C116.321 81.8306 116.491 82.8119 117.019 83.8876C117.566 84.9633 118.435 86.1144 119.756 87.058C120.416 87.4921 121.303 87.8129 122.209 87.5864C122.643 87.4732 123.096 87.2467 123.398 86.8693C123.719 86.4919 123.851 85.9823 123.851 85.5105C123.851 84.5481 123.587 83.7177 123.417 82.8874C123.209 82.057 123.001 81.2644 122.775 80.5284C122.322 79.0564 121.907 77.7166 121.548 76.5654C121.209 75.4331 120.944 74.5273 120.775 73.8856C120.605 73.244 120.51 72.9043 120.492 72.9043C120.473 72.9043 120.51 73.2629 120.643 73.9234C120.775 74.565 120.982 75.5086 121.303 76.6409C121.643 77.792 122.02 79.1319 122.454 80.6228C122.662 81.3777 122.869 82.1514 123.077 82.9817C123.247 83.7932 123.492 84.6613 123.492 85.5105C123.492 85.9257 123.36 86.3409 123.115 86.6428C122.869 86.9448 122.511 87.1524 122.133 87.2467C121.36 87.4543 120.567 87.1712 119.944 86.7749C118.699 85.9257 117.793 84.7934 117.265 83.7743C116.717 82.7553 116.529 81.8117 116.434 81.1701C116.359 80.5284 116.359 80.151 116.321 80.151V80.1321Z" fill="#EB996E"/>
<path d="M119.19 86.4913C119.19 86.4913 119.133 86.5857 119.077 86.7933C119.02 86.982 118.945 87.2839 118.869 87.6802C118.737 88.454 118.643 89.624 118.869 91.0205C119.096 92.3981 119.643 94.1343 121.077 95.4365C121.775 96.0781 122.738 96.5876 123.832 96.5688C124.361 96.5688 124.946 96.3423 125.323 95.9083C125.72 95.4742 125.889 94.9081 125.965 94.3608C126.154 92.1905 125.984 90.1524 125.871 88.303C125.72 86.4724 125.606 84.8118 125.493 83.3964C125.38 81.9999 125.323 80.8676 125.304 80.0938C125.267 79.3201 125.267 78.8861 125.229 78.8672C125.229 78.8672 125.21 78.9804 125.191 79.188C125.191 79.3956 125.153 79.6975 125.153 80.0938C125.153 80.8865 125.153 82.0187 125.229 83.4152C125.323 84.8306 125.418 86.4913 125.531 88.3407C125.625 90.1902 125.776 92.2472 125.606 94.323C125.531 94.8326 125.38 95.3232 125.059 95.6629C124.757 96.0215 124.285 96.1913 123.832 96.2102C122.889 96.2291 121.983 95.7762 121.322 95.1911C119.964 93.9834 119.398 92.3226 119.152 90.9828C118.68 88.2275 119.303 86.5102 119.209 86.5102L119.19 86.4913Z" fill="#EB996E"/>
<path d="M33.796 68.8093C31.3993 71.6778 28.9271 74.5085 26.6059 77.4525C24.5678 80.0191 23.5864 83.2272 24.2281 86.492C24.9074 90.0021 27.1154 92.3233 29.965 94.286C38.7781 100.325 49.5538 105.42 60.4993 104.08C68.0668 103.156 74.4643 99.0416 79.3143 93.2858C81.277 90.9646 77.6536 87.9451 75.691 90.2663C72.0299 94.5879 67.3497 98.0226 61.7071 99.1171C56.9703 100.042 52.0071 99.4379 47.4402 97.966C43.0619 96.5506 38.8724 94.4558 34.9849 91.9837C33.1732 90.8325 30.8143 89.587 29.6631 87.7375C28.2289 85.3975 28.5685 82.6045 30.2292 80.4908C32.5505 77.5469 35.0226 74.735 37.4193 71.8476C39.3631 69.5076 35.7398 66.4881 33.796 68.8282V68.8093Z" fill="#7F2684"/>
<path d="M116.738 83.0755L111.774 86.831L111.718 86.7743L111.642 86.9253L111.51 87.0197L111.567 87.0763L108.755 92.6434C108.755 92.6434 117.474 100.947 121.172 110.005L128.513 101.192L128.721 100.947L136.062 92.1339C126.494 90.1335 116.738 83.0566 116.738 83.0566V83.0755Z" fill="#7F2684"/>
<path d="M118.869 81.9814L108.075 94.9462C106.678 96.6258 104.187 96.8522 102.508 95.4557C100.828 94.0592 100.602 91.5682 101.998 89.8886L112.793 76.9238C114.189 75.2442 116.68 75.0178 118.36 76.4143C120.04 77.8108 120.266 80.3018 118.869 81.9814Z" fill="#7F2684"/>
<path d="M74.0302 3.62598L48.5346 34.2169L47.1759 35.8398L23.0957 64.7511C23.5486 65.4683 81.1825 118.592 108.263 84.0002L108.32 83.9247C137.477 51.0126 74.8039 3.92792 74.0302 3.62598Z" fill="#7F2684"/>
<g opacity="0.3">
<path d="M74.0313 3.62598C77.7301 6.72092 81.3912 9.49505 84.7315 12.5334C107.264 33.0091 121.795 56.1834 113.718 75.8477L107.491 85.3589C107.491 85.3589 114.039 61.241 101.773 43.8225C89.506 26.3851 72.6914 6.62656 72.6914 6.62656L74.0124 3.62598H74.0313Z" fill="black"/>
</g>
<path d="M151.649 87.2646L119.851 125.442C114.642 121.101 113.925 113.345 118.284 108.137L134.363 88.8498C138.704 83.6413 146.46 82.9242 151.668 87.2835L151.649 87.2646Z" fill="#7F2684"/>
<path d="M156.352 80.5777L113.674 131.802L138.322 152.338L181 101.114L156.352 80.5777Z" fill="#966299"/>
<path d="M156.388 93.5244L126.2 129.757L138.278 139.819L168.465 103.587L156.388 93.5244Z" fill="#D1E0E7"/>
<path d="M64.1989 46.4097L76.1069 49.2593L85.2219 41.0879L86.1655 53.2978L96.7713 59.4311L85.4483 64.1113L82.9007 76.0759L74.9557 66.7533L62.7646 68.0366L69.181 57.6006L64.1989 46.4097Z" fill="white"/>
<path d="M95.2613 89.7189C95.2613 89.7189 95.2235 89.7566 95.1103 89.8321C94.9971 89.9076 94.865 90.0209 94.6763 90.1718C94.2988 90.4738 93.6949 90.8512 92.8646 91.2664C92.0342 91.6627 90.9585 92.059 89.6753 92.3232C88.392 92.5874 86.9011 92.7384 85.2404 92.7195C83.5986 92.7006 81.7869 92.5119 79.8809 92.1722C78.9373 91.9835 77.9371 91.7948 76.9369 91.6061C75.9367 91.3796 74.8988 91.0965 73.842 90.8512C69.6336 89.7189 65.1233 88.0582 60.5752 85.9257C56.0272 83.7932 51.8566 81.3965 48.1577 79.1131C44.4589 76.8107 41.2318 74.6027 38.5332 72.7156C35.8534 70.8095 33.6832 69.2432 32.2112 68.1675C31.4752 67.6202 30.9091 67.2051 30.5128 66.9031C30.324 66.7521 30.1731 66.6578 30.0787 66.5634C29.9843 66.4879 29.9277 66.4502 29.9277 66.4502C29.9277 66.4502 29.9843 66.4879 30.0787 66.5446C30.1919 66.62 30.3429 66.7333 30.5316 66.8654C30.9279 67.1484 31.5129 67.5636 32.2489 68.092C33.7398 69.1677 35.91 70.7152 38.6087 72.6023C41.3262 74.4706 44.5532 76.6786 48.2521 78.9621C51.9509 81.2455 56.1027 83.6234 60.6507 85.7559C65.1988 87.8884 69.6902 89.5491 73.8797 90.6814C74.9365 90.9456 75.9556 91.2286 76.9558 91.4551C77.956 91.6627 78.9373 91.8514 79.8998 92.0401C81.8058 92.3987 83.5986 92.5685 85.2404 92.6063C86.8823 92.6251 88.3731 92.493 89.6375 92.2477C90.9208 92.0024 91.9776 91.6061 92.808 91.2286C93.6383 90.8323 94.2422 90.4549 94.6385 90.1718C94.8272 90.0397 94.9782 89.9265 95.0914 89.851C95.1858 89.7755 95.2424 89.7378 95.2424 89.7378L95.2613 89.7189Z" fill="white"/>
<path d="M103.112 91.0771C103.112 91.0771 102.923 91.3602 102.904 91.8886C102.866 92.3982 103.093 93.1341 103.678 93.6814C104.263 94.2287 104.961 94.474 105.471 94.6628C105.98 94.8326 106.301 94.927 106.282 94.9647C106.282 94.9836 105.943 94.9458 105.414 94.8137C104.905 94.6628 104.15 94.4363 103.527 93.8513C102.904 93.2663 102.678 92.4359 102.753 91.8886C102.791 91.6056 102.866 91.398 102.961 91.2659C103.036 91.1338 103.112 91.0771 103.112 91.0771Z" fill="white"/>
<path d="M120.153 107.95C120.153 107.95 120.021 108.138 119.795 108.44C119.549 108.761 119.228 109.214 118.87 109.837C118.153 111.044 117.417 112.875 117.228 115.026C117.058 117.178 117.492 119.103 118.002 120.405C118.247 121.065 118.511 121.575 118.681 121.915C118.87 122.254 118.983 122.462 118.964 122.462C118.964 122.462 118.927 122.424 118.87 122.33C118.813 122.235 118.719 122.122 118.625 121.952C118.417 121.613 118.153 121.103 117.87 120.443C117.322 119.14 116.851 117.178 117.021 114.989C117.19 112.818 117.983 110.95 118.738 109.742C119.115 109.138 119.455 108.686 119.719 108.384C119.851 108.233 119.964 108.119 120.021 108.044C120.097 107.968 120.134 107.931 120.134 107.931L120.153 107.95Z" fill="white"/>
<path d="M109.755 94.9081C111.775 92.6435 113.85 90.3035 114.851 87.435C115.832 84.5665 115.473 80.9998 113.171 79.0371C108.774 84.0947 104.358 89.1523 99.9609 94.2099L114.756 113.534C119.021 106.024 115.549 97.286 109.755 94.927V94.9081Z" fill="#FFD3CA"/>
<path d="M117.473 110.27C117.473 110.27 117.511 110.156 117.567 109.93C117.605 109.703 117.718 109.364 117.775 108.93C117.907 108.043 118.001 106.703 117.737 105.061C117.473 103.419 116.85 101.475 115.567 99.5693C114.321 97.6633 112.378 95.8327 109.811 94.7571L109.868 95.0401C110.887 93.9078 111.944 92.7189 112.925 91.379C113.887 90.0392 114.774 88.5294 115.208 86.8121C115.586 85.3779 115.623 83.8681 115.303 82.4716C114.982 81.0751 114.265 79.7919 113.246 78.9238L113.114 78.8105L113 78.9426C109.207 83.3397 105.923 87.1518 103.565 89.8693C102.432 91.2092 101.508 92.2849 100.866 93.0586C100.564 93.4172 100.337 93.7003 100.149 93.9267C99.9978 94.1154 99.9034 94.2287 99.9223 94.2287C99.9223 94.2287 100.017 94.1343 100.205 93.9645C100.394 93.7569 100.639 93.4738 100.96 93.1341C101.64 92.3792 102.583 91.3224 103.753 90.0203C106.131 87.3028 109.452 83.5473 113.283 79.1691H113.038C114.001 80.0183 114.68 81.2072 114.963 82.5471C115.265 83.887 115.227 85.3213 114.869 86.7178C114.435 88.3596 113.585 89.8504 112.642 91.1715C111.698 92.4925 110.641 93.6814 109.622 94.8137L109.452 95.0024L109.679 95.0967C112.151 96.1347 114.076 97.8897 115.322 99.758C116.605 101.607 117.246 103.513 117.53 105.118C117.813 106.722 117.775 108.043 117.662 108.93C117.548 109.817 117.435 110.288 117.454 110.288L117.473 110.27Z" fill="#EB996E"/>
<path d="M118.112 109.195C123.491 102.099 130.115 94.7578 135.493 87.6621L118.112 109.195Z" fill="#7F2684"/>
<path d="M135.494 87.6617C135.721 87.8315 132.097 92.8891 127.172 98.7393C124.851 101.495 122.737 103.986 120.869 106.213C119.246 108.119 118.227 109.27 118.114 109.194C117.887 109.024 121.51 103.967 126.436 98.1166C128.757 95.3613 130.871 92.8703 132.739 90.6434C134.362 88.7374 135.381 87.5862 135.494 87.6617Z" fill="#263238"/>
<path d="M132 197L80 185L70.5 223L132 197Z" fill="#F9B2B2"/>
</g>
<path d="M82.7674 16.6667C85.032 13.9492 87.2778 11.2317 89.5423 8.53302C90.9011 6.92894 92.5052 5.72115 94.7132 5.72115C97.4873 5.72115 99.2612 7.62719 101.054 9.47661C107.395 16.0062 113.283 24.3852 113.924 33.7455C114.359 40.1619 111.83 46.0498 107.81 50.9564C105.885 53.2965 109.509 56.3348 111.433 53.9759C115.717 48.7673 118.51 42.5963 118.68 35.7836C118.831 29.9523 116.982 24.3474 114.245 19.2521C111.716 14.5342 108.357 10.3258 104.677 6.45715C102.564 4.2303 100.469 2.11667 97.3929 1.32407C93.9772 0.455972 90.2406 1.36181 87.6174 3.68302C84.4093 6.51376 81.8805 10.3447 79.1441 13.6095C77.2003 15.9496 80.8237 18.969 82.7674 16.6289V16.6667Z" fill="#7F2684"/>
<path d="M99.8647 121.914L101.261 114.082C101.261 114.082 96.6942 97.0973 97.166 94.6629C97.6378 92.2285 98.1285 80.5658 98.1285 80.5658L109.867 67.2802C109.867 67.2802 112.565 67.0537 113.83 69.7146C113.83 69.7146 119.189 69.2806 120.397 72.9039C120.397 72.9039 124.285 71.1677 124.926 75.4893C125.285 77.9238 125.304 78.6786 125.247 78.8862C126.021 79.0561 130.456 80.1129 130.512 82.3397C130.55 84.1703 129.814 89.3788 128.644 92.3039C128.191 93.474 127.153 94.3043 125.926 94.5497L124.624 100.57C124.624 100.57 123.454 110.44 121.246 115.063L119.567 117.8L119.057 130.123L99.8647 121.914Z" fill="#FFD3CA"/>
<path d="M117.227 78.0377C116.736 74.8861 115.264 71.961 113.566 69.2812L109.074 72.1309C109.508 73.8104 110.225 74.9427 110.905 76.5846C111.584 78.2453 112.905 79.7361 114.622 80.189C115.604 80.4344 116.887 80.189 117.208 79.2077C117.34 78.8303 117.283 78.4151 117.208 78.0377H117.227Z" fill="#FFD3CA"/>
<path d="M109.074 72.1315C109.074 72.1315 109.093 72.4712 109.282 73.0562C109.452 73.6412 109.81 74.4527 110.263 75.4529C110.49 75.9624 110.716 76.5097 110.961 77.0759C111.244 77.6609 111.622 78.2648 112.113 78.812C112.603 79.3593 113.226 79.85 113.981 80.1708C114.717 80.4916 115.642 80.6237 116.472 80.2652C116.887 80.0953 117.246 79.7368 117.397 79.3027C117.548 78.8498 117.472 78.4157 117.415 78.0383C117.283 77.2646 117.114 76.5097 116.887 75.8303C116.453 74.4527 115.925 73.2638 115.415 72.2825C114.906 71.32 114.453 70.5652 114.113 70.0556C113.773 69.5461 113.585 69.2819 113.547 69.3007C113.528 69.3007 113.679 69.6027 113.981 70.1311C114.283 70.6595 114.698 71.4332 115.17 72.3957C115.642 73.377 116.151 74.5471 116.547 75.9247C116.755 76.6041 116.925 77.3401 117.038 78.0949C117.095 78.4724 117.132 78.8498 117.038 79.1895C116.925 79.5103 116.661 79.7934 116.302 79.9255C115.604 80.2274 114.792 80.1331 114.094 79.8311C113.396 79.548 112.811 79.0951 112.339 78.5856C111.867 78.076 111.49 77.5099 111.226 76.9438C110.961 76.3776 110.735 75.8115 110.49 75.3397C109.999 74.3583 109.621 73.5846 109.414 73.0185C109.187 72.4523 109.093 72.1315 109.074 72.1315Z" fill="#FFD3CA"/>
<path d="M116.225 80.1321C116.225 80.1321 116.206 80.2265 116.188 80.3963C116.188 80.5662 116.188 80.8304 116.188 81.1701C116.225 81.8306 116.395 82.8119 116.923 83.8876C117.471 84.9633 118.339 86.1144 119.66 87.058C120.32 87.4921 121.207 87.8129 122.113 87.5864C122.547 87.4732 123 87.2467 123.302 86.8693C123.623 86.4919 123.755 85.9823 123.755 85.5105C123.755 84.5481 123.491 83.7177 123.321 82.8874C123.113 82.057 122.906 81.2644 122.679 80.5284C122.226 79.0564 121.811 77.7166 121.453 76.5654C121.113 75.4331 120.849 74.5273 120.679 73.8856C120.509 73.244 120.415 72.9043 120.396 72.9043C120.377 72.9043 120.415 73.2629 120.547 73.9234C120.679 74.565 120.887 75.5086 121.207 76.6409C121.547 77.792 121.924 79.1319 122.359 80.6228C122.566 81.3777 122.774 82.1514 122.981 82.9817C123.151 83.7932 123.396 84.6613 123.396 85.5105C123.396 85.9257 123.264 86.3409 123.019 86.6428C122.774 86.9448 122.415 87.1524 122.038 87.2467C121.264 87.4543 120.471 87.1712 119.849 86.7749C118.603 85.9257 117.697 84.7934 117.169 83.7743C116.622 82.7553 116.433 81.8117 116.338 81.1701C116.263 80.5284 116.263 80.151 116.225 80.151V80.1321Z" fill="#FFD3CA"/>
<path d="M119.094 86.4913C119.094 86.4913 119.038 86.5857 118.981 86.7933C118.924 86.982 118.849 87.2839 118.773 87.6802C118.641 88.454 118.547 89.624 118.773 91.0205C119 92.3981 119.547 94.1343 120.981 95.4365C121.68 96.0781 122.642 96.5876 123.737 96.5688C124.265 96.5688 124.85 96.3423 125.228 95.9083C125.624 95.4742 125.794 94.9081 125.869 94.3608C126.058 92.1905 125.888 90.1524 125.775 88.303C125.624 86.4724 125.511 84.8118 125.397 83.3964C125.284 81.9999 125.228 80.8676 125.209 80.0938C125.171 79.3201 125.171 78.8861 125.133 78.8672C125.133 78.8672 125.114 78.9804 125.095 79.188C125.095 79.3956 125.058 79.6975 125.058 80.0938C125.058 80.8865 125.058 82.0187 125.133 83.4152C125.228 84.8306 125.322 86.4913 125.435 88.3407C125.529 90.1902 125.68 92.2472 125.511 94.323C125.435 94.8326 125.284 95.3232 124.963 95.6629C124.661 96.0215 124.19 96.1913 123.737 96.2102C122.793 96.2291 121.887 95.7762 121.227 95.1911C119.868 93.9834 119.302 92.3226 119.057 90.9828C118.585 88.2275 119.207 86.5102 119.113 86.5102L119.094 86.4913Z" fill="#FFD3CA"/>
<path d="M33.7003 68.8093C31.3036 71.6778 28.8314 74.5085 26.5102 77.4525C24.4721 80.0191 23.4907 83.2272 24.1324 86.492C24.8117 90.0021 27.0197 92.3233 29.8693 94.286C38.6824 100.325 49.4581 105.42 60.4036 104.08C67.9711 103.156 74.3686 99.0416 79.2186 93.2858C81.1813 90.9646 77.5579 87.9451 75.5953 90.2663C71.9342 94.5879 67.254 98.0226 61.6114 99.1171C56.8746 100.042 51.9114 99.4379 47.3445 97.966C42.9662 96.5506 38.7767 94.4558 34.8892 91.9837C33.0775 90.8325 30.7186 89.587 29.5674 87.7375C28.1332 85.3975 28.4728 82.6045 30.1335 80.4908C32.4548 77.5469 34.9269 74.735 37.3236 71.8476C39.2674 69.5076 35.6441 66.4881 33.7003 68.8282V68.8093Z" fill="#7F2684"/>
<path d="M116.642 83.0755L111.679 86.831L111.622 86.7743L111.547 86.9253L111.414 87.0197L111.471 87.0763L108.659 92.6434C108.659 92.6434 117.378 100.947 121.077 110.005L128.418 101.192L128.625 100.947L135.966 92.1339C126.398 90.1335 116.642 83.0566 116.642 83.0566V83.0755Z" fill="#7F2684"/>
<path d="M118.774 81.9814L107.979 94.9462C106.583 96.6258 104.092 96.8522 102.412 95.4557C100.732 94.0592 100.506 91.5682 101.903 89.8886L112.697 76.9238C114.094 75.2442 116.585 75.0178 118.264 76.4143C119.944 77.8108 120.17 80.3018 118.774 81.9814Z" fill="#7F2684"/>
<path d="M73.9345 3.62598L48.4389 34.2169L47.0802 35.8398L23 64.7511C23.4529 65.4683 81.0868 118.592 108.168 84.0002L108.224 83.9247C137.381 51.0126 74.7082 3.92792 73.9345 3.62598Z" fill="#7F2684"/>
<g opacity="0.3">
<path d="M73.9356 3.62598C77.6344 6.72092 81.2955 9.49505 84.6358 12.5334C107.169 33.0091 121.7 56.1834 113.623 75.8477L107.395 85.3589C107.395 85.3589 113.943 61.241 101.677 43.8225C89.4103 26.3851 72.5957 6.62656 72.5957 6.62656L73.9167 3.62598H73.9356Z" fill="black"/>
</g>
<path d="M151.554 87.2646L119.755 125.442C114.547 121.101 113.829 113.345 118.189 108.137L134.267 88.8498C138.608 83.6413 146.364 82.9242 151.573 87.2835L151.554 87.2646Z" fill="#7F2684"/>
<path d="M156.256 80.5777L113.578 131.802L138.226 152.338L180.904 101.114L156.256 80.5777Z" fill="#966299"/>
<path d="M156.292 93.5244L126.104 129.757L138.182 139.819L168.37 103.587L156.292 93.5244Z" fill="#D1E0E7"/>
<path d="M64.1032 46.4097L76.0112 49.2593L85.1262 41.0879L86.0698 53.2978L96.6756 59.4311L85.3526 64.1113L82.805 76.0759L74.86 66.7533L62.6689 68.0366L69.0853 57.6006L64.1032 46.4097Z" fill="white"/>
<path d="M95.1656 89.7189C95.1656 89.7189 95.1278 89.7566 95.0146 89.8321C94.9014 89.9076 94.7693 90.0209 94.5806 90.1718C94.2031 90.4738 93.5992 90.8512 92.7689 91.2664C91.9385 91.6627 90.8628 92.059 89.5796 92.3232C88.2963 92.5874 86.8054 92.7384 85.1447 92.7195C83.5029 92.7006 81.6912 92.5119 79.7852 92.1722C78.8416 91.9835 77.8414 91.7948 76.8412 91.6061C75.841 91.3796 74.8031 91.0965 73.7463 90.8512C69.5379 89.7189 65.0276 88.0582 60.4795 85.9257C55.9315 83.7932 51.7608 81.3965 48.062 79.1131C44.3632 76.8107 41.1361 74.6027 38.4375 72.7156C35.7577 70.8095 33.5875 69.2432 32.1155 68.1675C31.3795 67.6202 30.8134 67.2051 30.4171 66.9031C30.2283 66.7521 30.0774 66.6578 29.983 66.5634C29.8886 66.4879 29.832 66.4502 29.832 66.4502C29.832 66.4502 29.8886 66.4879 29.983 66.5446C30.0962 66.62 30.2472 66.7333 30.4359 66.8654C30.8322 67.1484 31.4172 67.5636 32.1532 68.092C33.6441 69.1677 35.8143 70.7152 38.513 72.6023C41.2305 74.4706 44.4575 76.6786 48.1564 78.9621C51.8552 81.2455 56.007 83.6234 60.555 85.7559C65.1031 87.8884 69.5945 89.5491 73.784 90.6814C74.8408 90.9456 75.8599 91.2286 76.8601 91.4551C77.8603 91.6627 78.8416 91.8514 79.8041 92.0401C81.7101 92.3987 83.5029 92.5685 85.1447 92.6063C86.7866 92.6251 88.2774 92.493 89.5418 92.2477C90.8251 92.0024 91.8819 91.6061 92.7123 91.2286C93.5426 90.8323 94.1465 90.4549 94.5428 90.1718C94.7315 90.0397 94.8825 89.9265 94.9957 89.851C95.0901 89.7755 95.1467 89.7378 95.1467 89.7378L95.1656 89.7189Z" fill="white"/>
<path d="M103.016 91.0771C103.016 91.0771 102.827 91.3602 102.808 91.8886C102.771 92.3982 102.997 93.1341 103.582 93.6814C104.167 94.2287 104.866 94.474 105.375 94.6628C105.885 94.8326 106.205 94.927 106.187 94.9647C106.187 94.9836 105.847 94.9458 105.318 94.8137C104.809 94.6628 104.054 94.4363 103.431 93.8513C102.809 93.2663 102.582 92.4359 102.658 91.8886C102.695 91.6056 102.771 91.398 102.865 91.2659C102.941 91.1338 103.016 91.0771 103.016 91.0771Z" fill="white"/>
<path d="M120.057 107.95C120.057 107.95 119.925 108.138 119.699 108.44C119.454 108.761 119.133 109.214 118.774 109.837C118.057 111.044 117.321 112.875 117.132 115.026C116.963 117.178 117.397 119.103 117.906 120.405C118.151 121.065 118.416 121.575 118.586 121.915C118.774 122.254 118.887 122.462 118.869 122.462C118.869 122.462 118.831 122.424 118.774 122.33C118.718 122.235 118.623 122.122 118.529 121.952C118.321 121.613 118.057 121.103 117.774 120.443C117.227 119.14 116.755 117.178 116.925 114.989C117.095 112.818 117.887 110.95 118.642 109.742C119.02 109.138 119.359 108.686 119.623 108.384C119.756 108.233 119.869 108.119 119.925 108.044C120.001 107.968 120.039 107.931 120.039 107.931L120.057 107.95Z" fill="white"/>
<path d="M109.66 94.9081C111.679 92.6435 113.755 90.3035 114.755 87.435C115.736 84.5665 115.378 80.9998 113.075 79.0371C108.678 84.0947 104.262 89.1523 99.8652 94.2099L114.661 113.534C118.926 106.024 115.453 97.286 109.66 94.927V94.9081Z" fill="#FFD3CA"/>
<path d="M117.377 110.27C117.377 110.27 117.415 110.156 117.472 109.93C117.509 109.703 117.623 109.364 117.679 108.93C117.811 108.043 117.906 106.703 117.641 105.061C117.377 103.419 116.754 101.475 115.471 99.5693C114.226 97.6633 112.282 95.8327 109.715 94.7571L109.772 95.0401C110.791 93.9078 111.848 92.7189 112.829 91.379C113.792 90.0392 114.679 88.5294 115.113 86.8121C115.49 85.3779 115.528 83.8681 115.207 82.4716C114.886 81.0751 114.169 79.7919 113.15 78.9238L113.018 78.8105L112.905 78.9426C109.111 83.3397 105.828 87.1518 103.469 89.8693C102.337 91.2092 101.412 92.2849 100.77 93.0586C100.468 93.4172 100.242 93.7003 100.053 93.9267C99.9021 94.1154 99.8077 94.2287 99.8266 94.2287C99.8266 94.2287 99.921 94.1343 100.11 93.9645C100.298 93.7569 100.544 93.4738 100.865 93.1341C101.544 92.3792 102.488 91.3224 103.658 90.0203C106.035 87.3028 109.357 83.5473 113.188 79.1691H112.942C113.905 80.0183 114.584 81.2072 114.867 82.5471C115.169 83.887 115.131 85.3213 114.773 86.7178C114.339 88.3596 113.49 89.8504 112.546 91.1715C111.602 92.4925 110.546 93.6814 109.527 94.8137L109.357 95.0024L109.583 95.0967C112.055 96.1347 113.98 97.8897 115.226 99.758C116.509 101.607 117.151 103.513 117.434 105.118C117.717 106.722 117.679 108.043 117.566 108.93C117.453 109.817 117.339 110.288 117.358 110.288L117.377 110.27Z" fill="#EB996E"/>
<path d="M118.017 109.195C123.395 102.099 130.019 94.7578 135.397 87.6621L118.017 109.195Z" fill="#7F2684"/>
<path d="M135.399 87.6617C135.625 87.8315 132.002 92.8891 127.076 98.7393C124.755 101.495 122.641 103.986 120.773 106.213C119.15 108.119 118.131 109.27 118.018 109.194C117.791 109.024 121.415 103.967 126.34 98.1166C128.661 95.3613 130.775 92.8703 132.643 90.6434C134.266 88.7374 135.285 87.5862 135.399 87.6617Z" fill="#263238"/>
<path d="M30.5824 21C30.6113 24.116 30.5052 27.1162 26 27.8205C30.756 27.753 30.3991 30.7532 30.6306 34.5156C30.756 30.7628 31.084 28.0617 34.7981 27.888C30.9586 27.2513 31.0647 25.4762 30.5824 21Z" fill="#FF9600"/>
<path d="M136.582 49C136.611 52.116 136.505 55.1162 132 55.8205C136.756 55.753 136.399 58.7532 136.631 62.5156C136.756 58.7628 137.084 56.0617 140.798 55.888C136.959 55.2513 137.065 53.4762 136.582 49Z" fill="#7F2684"/>
<path d="M128.713 39.0444C128.712 42.1606 128.577 45.1596 124.065 45.8202C128.821 45.7988 128.435 48.7954 128.63 52.5598C128.792 48.8085 129.146 46.1106 132.862 45.973C129.029 45.2991 129.152 43.5251 128.713 39.0444Z" fill="#FF9600"/>
<path d="M126.713 21.0444C126.712 24.1606 126.577 27.1596 122.065 27.8202C126.821 27.7988 126.435 30.7954 126.63 34.5598C126.792 30.8085 127.146 28.1106 130.862 27.973C127.029 27.2991 127.152 25.5251 126.713 21.0444Z" fill="white"/>
<path d="M52.713 63.0444C52.7117 66.1606 52.5766 69.1596 48.0647 69.8202C52.8212 69.7988 52.4352 72.7954 52.6302 76.5598C52.792 72.8085 53.1462 70.1106 56.8618 69.973C53.0286 69.2991 53.152 67.5251 52.713 63.0444Z" fill="white"/>
<defs>
<linearGradient id="paint0_linear_1365_11711" x1="46.4813" y1="-12.9759" x2="177.675" y2="298.528" gradientUnits="userSpaceOnUse">
<stop offset="0.219581" stop-color="#DDF5FB"/>
<stop offset="1" stop-color="#DA0095"/>
</linearGradient>
<linearGradient id="paint1_linear_1365_11711" x1="42.8867" y1="-20.2867" x2="182.28" y2="310.687" gradientUnits="userSpaceOnUse">
<stop offset="0.219581" stop-color="#DDF5FB"/>
<stop offset="1" stop-color="#DA0095"/>
</linearGradient>
<linearGradient id="paint2_linear_1365_11711" x1="49.9588" y1="-5.78235" x2="172.953" y2="286.253" gradientUnits="userSpaceOnUse">
<stop offset="0.219581" stop-color="#DDF5FB"/>
<stop offset="1" stop-color="#DA0095"/>
</linearGradient>
<linearGradient id="paint3_linear_1365_11711" x1="49.9588" y1="-5.78235" x2="172.953" y2="286.253" gradientUnits="userSpaceOnUse">
<stop offset="0.219581" stop-color="#DDF5FB"/>
<stop offset="1" stop-color="#DA0095"/>
</linearGradient>
<linearGradient id="paint4_linear_1365_11711" x1="29.0202" y1="177.137" x2="145.388" y2="63.9916" gradientUnits="userSpaceOnUse">
<stop offset="0.01" stop-color="#FF55AA"/>
<stop offset="0.25" stop-color="#B850C9"/>
<stop offset="0.62" stop-color="#6572D6"/>
<stop offset="1" stop-color="#4EAEB8"/>
</linearGradient>
<linearGradient id="paint5_linear_1365_11711" x1="29.0202" y1="177.137" x2="145.388" y2="63.9916" gradientUnits="userSpaceOnUse">
<stop offset="0.01" stop-color="#FF55AA"/>
<stop offset="0.25" stop-color="#B850C9"/>
<stop offset="0.62" stop-color="#6572D6"/>
<stop offset="1" stop-color="#4EAEB8"/>
</linearGradient>
</defs>
</svg>
