<svg width="151" height="140" viewBox="0 0 151 140" fill="none" xmlns="http://www.w3.org/2000/svg">
<circle opacity="0.2" cx="81.8432" cy="69.9994" r="61.9231" stroke="url(#paint0_linear_5871_36006)" stroke-width="0.769231"/>
<circle opacity="0.2" cx="81.8416" cy="69.9998" r="65.7692" stroke="url(#paint1_linear_5871_36006)" stroke-width="0.769231"/>
<circle cx="81.8368" cy="70.0009" r="58.0769" fill="url(#paint2_linear_5871_36006)" fill-opacity="0.2" stroke="url(#paint3_linear_5871_36006)" stroke-width="0.769231"/>
<path d="M131.842 98.9729C124.84 111.252 113.584 120.542 100.201 125.088L104.612 113.601C107.021 107.325 105.829 100.235 101.498 95.0924L89.2184 80.5099L89.0703 80.2754C91.1104 80.3955 93.1418 80.6345 95.1541 80.9912C103.694 82.4105 119.563 86.619 131.842 98.9729Z" fill="#824EF1"/>
<path d="M66.9206 59.0234C66.9206 59.0234 53.7535 68.8967 52.7787 81.0162C51.2978 99.257 72.0542 91.272 74.3371 79.6586C76.6201 68.0451 66.9206 59.0234 66.9206 59.0234Z" fill="black"/>
<path d="M65.7369 57.7762C64.2551 55.9122 63.1872 53.754 62.6042 51.4451C62.0212 49.1363 61.9365 46.7297 62.3557 44.3856C63.2936 38.8812 65.7369 37.0917 65.7369 37.0917C65.7369 37.0917 62.0349 29.5633 73.1411 30.02C79.5006 30.1514 85.6691 32.2178 90.8247 35.9439C90.8247 35.9439 95.9089 33.4756 98.2289 39.3749C100.549 45.2742 98.2289 54.0491 98.2289 54.0491L65.7369 57.7762Z" fill="black"/>
<path d="M63.7591 56.8897C63.4752 60.1356 64.882 62.9001 66.9058 63.0605C68.9296 63.221 70.7807 60.7526 71.0645 57.5192C71.3483 54.2857 69.9415 51.5211 67.9301 51.3483C65.9186 51.1756 64.0059 53.6562 63.7591 56.8897Z" fill="#2B3751"/>
<path d="M118.945 114.485C109.538 122.443 97.8245 127.168 85.5298 127.966C73.2352 128.764 61.0094 125.591 50.6536 118.916C50.16 118.611 49.6787 118.29 49.2098 117.953C45.4252 115.361 41.9693 112.319 38.918 108.894C42.7612 105.482 65.7758 87.3996 71.1185 83.2898L74.8652 79.3486L89.1676 80.5087L95.1032 80.9901L118.945 114.485Z" fill="#824EF1"/>
<path d="M74.8673 80.2754L38.9201 108.896C38.2907 108.204 37.686 107.489 37.0937 106.76C35.3892 104.659 33.8346 102.44 32.4414 100.121C33.552 99.121 34.712 98.1213 35.909 97.1217C52.408 83.3608 68.6971 80.8925 73.5098 80.3741C74.4354 80.2877 74.8673 80.2754 74.8673 80.2754Z" fill="#824EF1"/>
<path d="M90.1667 66.9473L89.8952 81.4733C89.8952 81.4733 87.4271 85.5584 79.4059 86.0027C73.4703 86.3236 71.6562 83.016 71.6562 83.016L73.3222 70.3535L87.748 67.4409L90.1667 66.9473Z" fill="#E8B9A4"/>
<path d="M90.1637 66.084C90.0853 66.5155 89.9396 66.9319 89.7318 67.3181C86.5233 74.032 75.7626 76.5867 72.332 76.8088L73.3193 70.1197L90.1637 66.084Z" fill="black"/>
<path d="M71.0612 39.1776C71.0612 39.1776 63.5089 56.0239 66.125 65.564C68.7412 75.104 77.33 73.6847 82.5253 71.8952C85.4703 70.9693 88.1098 69.2634 90.1639 66.9586C91.6419 67.4161 93.2269 67.3925 94.6906 66.8912C96.1544 66.39 97.4212 65.4369 98.3085 64.1694C101.591 59.7017 99.6536 54.5059 96.8894 53.2964C94.1251 52.0869 90.8303 54.0492 90.8303 54.0492L93.4588 49.1126C93.4588 49.1126 82.8214 24.0468 71.0612 39.1776Z" fill="#E8B9A4"/>
<path d="M90.7922 54.0474C90.7922 54.0474 83.5238 55.5161 78.452 47.42C73.3801 39.3239 73.8614 35.9917 73.8614 35.9917L68.8266 44.3469C68.8266 44.3469 67.6913 38.5587 70.0606 34.8563C72.4299 31.1538 74.7869 31.9313 74.7869 31.9313L90.8293 35.9423L95.025 48.8023L90.7922 54.0474Z" fill="black"/>
<path d="M71.6438 60.7504C71.5146 60.7534 71.388 60.7139 71.2833 60.6382C71.1786 60.5624 71.1015 60.4545 71.0638 60.3308C69.9409 56.6284 72.52 52.9259 72.631 52.8148C72.7253 52.6835 72.8673 52.5944 73.0265 52.5667C73.1857 52.5391 73.3495 52.5749 73.4825 52.6667C73.6118 52.7628 73.6984 52.9057 73.7238 53.0648C73.7492 53.224 73.7113 53.3867 73.6183 53.5183C73.6183 53.5183 71.2859 56.8875 72.2238 59.9729C72.2466 60.0491 72.2541 60.129 72.2459 60.2081C72.2378 60.2872 72.2141 60.3639 72.1763 60.4338C72.1385 60.5037 72.0872 60.5655 72.0255 60.6156C71.9638 60.6657 71.8928 60.7031 71.8166 60.7258C71.7614 60.746 71.7025 60.7544 71.6438 60.7504Z" fill="black"/>
<path d="M91.4933 62.0604C91.3368 62.057 91.1872 61.9954 91.0737 61.8876C90.9614 61.7744 90.8984 61.6213 90.8984 61.4618C90.8984 61.3023 90.9614 61.1493 91.0737 61.036L95.6643 56.2105C95.7194 56.1529 95.7853 56.1068 95.8582 56.0748C95.9311 56.0427 96.0097 56.0253 96.0893 56.0236C96.1689 56.0219 96.2481 56.0358 96.3224 56.0647C96.3966 56.0936 96.4644 56.1369 96.522 56.192C96.5795 56.2471 96.6256 56.313 96.6577 56.3859C96.6897 56.4588 96.7071 56.5374 96.7088 56.617C96.7106 56.6967 96.6966 56.7759 96.6677 56.8501C96.6388 56.9243 96.5956 56.9922 96.5405 57.0497L91.9375 61.9123C91.814 62.017 91.6549 62.07 91.4933 62.0604Z" fill="black"/>
<path d="M96.3718 60.7621H96.2731L93.1017 60.2684C93.0206 60.2563 92.9428 60.2283 92.8726 60.186C92.8024 60.1438 92.7412 60.0881 92.6925 60.0222C92.6438 59.9563 92.6085 59.8815 92.5888 59.802C92.569 59.7224 92.5651 59.6398 92.5772 59.5588C92.6018 59.3951 92.6903 59.2479 92.8234 59.1495C92.8893 59.1008 92.9641 59.0656 93.0436 59.0458C93.1231 59.026 93.2058 59.0221 93.2868 59.0342L96.4582 59.5156C96.6181 59.5428 96.7608 59.6319 96.8554 59.7635C96.9501 59.8952 96.9892 60.0588 96.9642 60.219C96.9518 60.3674 96.8839 60.5057 96.7742 60.6064C96.6644 60.707 96.5208 60.7626 96.3718 60.7621Z" fill="black"/>
<path d="M77.7331 65.5991C76.4181 65.4896 75.1486 65.0663 74.031 64.365C73.9373 64.3095 73.8603 64.2298 73.8082 64.1342C73.7561 64.0386 73.7307 63.9308 73.7348 63.822C73.7424 63.7145 73.7769 63.6108 73.8351 63.5202C73.8933 63.4296 73.9734 63.3551 74.068 63.3036L79.1892 60.6378C79.2699 60.5985 79.3586 60.5781 79.4483 60.5781C79.5381 60.5781 79.6268 60.5985 79.7075 60.6378C79.7876 60.6755 79.8594 60.7287 79.9187 60.7944C79.9781 60.86 80.0237 60.9369 80.053 61.0204C80.053 61.1438 80.8798 63.8837 79.1892 65.1919C78.7584 65.4766 78.2491 65.6191 77.7331 65.5991ZM75.6846 63.8343C76.6594 64.2663 77.9058 64.6242 78.4735 64.1922C78.7314 63.9124 78.9178 63.5743 79.0166 63.2068C79.1155 62.8392 79.1239 62.4533 79.0411 62.0818L75.6846 63.8343Z" fill="black"/>
<path d="M99.9927 59.0234C103.188 62.0848 105.658 65.8236 107.219 69.9648C108.78 74.106 109.393 78.5444 109.013 82.9538C107.533 97.7637 92.823 95.8755 89.7379 90.4698C85.061 82.2627 90.1698 66.9467 90.1698 66.9467C90.1698 66.9467 99.1906 68.4648 99.9927 59.0234Z" fill="black"/>
<path d="M79.304 86.2961C76.2441 86.3382 73.2678 85.2979 70.9002 83.3588C70.8428 83.3025 70.7971 83.2353 70.766 83.1611C70.7348 83.087 70.7188 83.0073 70.7188 82.9269C70.7188 82.8464 70.7348 82.7668 70.766 82.6926C70.7971 82.6184 70.8428 82.5512 70.9002 82.4949C71.0177 82.3811 71.1748 82.3174 71.3383 82.3174C71.5019 82.3174 71.659 82.3811 71.7764 82.4949C72.0232 82.7294 77.9465 88.098 87.4856 82.717C87.6296 82.6369 87.7995 82.6172 87.9581 82.6623C88.1166 82.7074 88.2507 82.8137 88.3309 82.9577C88.4111 83.1017 88.4308 83.2717 88.3856 83.4303C88.3405 83.5888 88.2342 83.7229 88.0902 83.8031C85.4271 85.3818 82.3993 86.2409 79.304 86.2961Z" fill="white"/>
<path d="M89.2951 58.9493C89.147 62.1952 90.6649 64.898 92.6887 64.9844C94.7125 65.0708 96.4772 62.5161 96.6129 59.2826C96.7487 56.0491 95.2431 53.3339 93.2193 53.2352C91.1955 53.1364 89.4432 55.7035 89.2951 58.9493Z" fill="#2B3751"/>
<path d="M90.1271 58.9864C89.979 62.2323 91.5092 64.9351 93.533 65.0215C95.5568 65.1079 97.3091 62.5532 97.4572 59.3197C97.6053 56.0862 96.0874 53.371 94.0636 53.2723C92.0398 53.1736 90.2752 55.7406 90.1271 58.9864Z" fill="#39476B"/>
<path d="M83.3171 69.0202C82.6531 69.0147 81.9899 68.9735 81.3303 68.8968C81.2396 68.8862 81.1518 68.8579 81.072 68.8135C80.9922 68.769 80.9219 68.7093 80.8652 68.6376C80.8085 68.566 80.7664 68.4839 80.7414 68.396C80.7164 68.3081 80.7089 68.2162 80.7195 68.1254C80.73 68.0347 80.7583 67.9469 80.8028 67.867C80.8472 67.7872 80.907 67.7169 80.9786 67.6602C81.0502 67.6035 81.1323 67.5614 81.2202 67.5364C81.3081 67.5114 81.4 67.504 81.4908 67.5145C83.7355 67.8291 86.0233 67.5632 88.1361 66.7422C90.2489 65.9212 92.1161 64.5725 93.5595 62.8247C93.6683 62.6752 93.8316 62.5745 94.0141 62.5445C94.1965 62.5145 94.3835 62.5575 94.5344 62.6643C94.6831 62.7708 94.7835 62.932 94.8136 63.1124C94.8436 63.2929 94.8009 63.4779 94.6948 63.6269C93.333 65.3317 91.6005 66.7035 89.6289 67.638C87.6574 68.5726 85.4987 69.0453 83.3171 69.0202Z" fill="#39476B"/>
<path d="M75.7383 67.9956C75.7383 68.9706 77.071 69.8345 78.811 69.9085C80.551 69.9826 81.9948 69.2544 82.0442 68.2795C82.0935 67.3045 80.7114 66.4406 78.9714 66.3665C77.2315 66.2925 75.7876 67.0206 75.7383 67.9956Z" fill="#39476B"/>
<path d="M92.9576 57.0124C92.8477 57.0116 92.7395 56.9851 92.6417 56.9349C92.5439 56.8848 92.4592 56.8124 92.3944 56.7236C92.3296 56.6348 92.2866 56.5321 92.2687 56.4236C92.2507 56.3152 92.2585 56.204 92.2913 56.0991C95.3393 47.028 90.1317 36.0564 90.07 35.9453C90.0301 35.8635 90.0067 35.7746 90.0012 35.6837C89.9958 35.5929 90.0083 35.5018 90.0381 35.4158C90.0679 35.3298 90.1144 35.2505 90.175 35.1825C90.2355 35.1146 90.3089 35.0592 90.3909 35.0197C90.4723 34.978 90.5614 34.9533 90.6527 34.9469C90.744 34.9406 90.8356 34.9528 90.922 34.9828C91.0085 35.0127 91.088 35.0599 91.1557 35.1214C91.2235 35.1829 91.2782 35.2574 91.3164 35.3406C91.5508 35.8095 96.8448 46.917 93.6117 56.5434C93.5637 56.6791 93.4753 56.7968 93.3583 56.8807C93.2414 56.9646 93.1015 57.0105 92.9576 57.0124Z" fill="#39476B"/>
<path d="M3 20.7691C3 17.3704 5.75517 14.6152 9.15385 14.6152H44.5385C47.9371 14.6152 50.6923 17.3704 50.6923 20.7691V41.5383C50.6923 44.937 47.9371 47.6922 44.5385 47.6922H9.15385C5.75517 47.6922 3 44.937 3 41.5383V20.7691Z" fill="white"/>
<path d="M3 20.7691C3 17.3704 5.75517 14.6152 9.15385 14.6152H44.5385C47.9371 14.6152 50.6923 17.3704 50.6923 20.7691V41.5383C50.6923 44.937 47.9371 47.6922 44.5385 47.6922H9.15385C5.75517 47.6922 3 44.937 3 41.5383V20.7691Z" fill="url(#paint4_linear_5871_36006)" fill-opacity="0.2"/>
<path d="M44.5385 53.2566C44.5385 53.8545 43.8862 54.2239 43.3735 53.9162L33 47.6922H44.5385V53.2566Z" fill="white"/>
<path d="M44.5385 53.2566C44.5385 53.8545 43.8862 54.2239 43.3735 53.9162L33 47.6922H44.5385V53.2566Z" fill="url(#paint5_linear_5871_36006)" fill-opacity="0.2"/>
<path opacity="0.5" d="M11.5473 37.3838H27.4898C28.0237 37.3838 28.456 37.8415 28.4306 38.3754C28.4051 38.884 27.9983 39.2908 27.4898 39.2908H11.5473C11.0134 39.2908 10.5811 38.8331 10.6065 38.2991C10.632 37.7906 11.0388 37.3838 11.5473 37.3838Z" fill="#7F2684"/>
<path opacity="0.5" d="M11.7348 32.4043H38.7633C39.2972 32.4043 39.7295 32.862 39.704 33.3959C39.6786 33.9045 39.2718 34.3113 38.7633 34.3113H11.7348C11.2009 34.3113 10.7686 33.8536 10.794 33.3197C10.794 32.8111 11.2263 32.4043 11.7348 32.4043Z" fill="#7F2684"/>
<path opacity="0.5" d="M11.8833 27.418H33.3687C33.9027 27.418 34.3349 27.8756 34.3095 28.4096C34.2841 28.9181 33.8772 29.325 33.3687 29.325H11.8833C11.3493 29.325 10.917 28.8673 10.9425 28.3333C10.9679 27.8248 11.3747 27.418 11.8833 27.418Z" fill="#7F2684"/>
<path opacity="0.5" d="M42.8037 23.4282C42.7782 23.9367 42.3714 24.3435 41.8629 24.3435H12.0629C11.529 24.3435 11.0967 23.8858 11.1222 23.3519C11.1476 22.8433 11.5544 22.4365 12.0629 22.4365H41.8629C42.3968 22.4365 42.8291 22.8942 42.8037 23.4282Z" fill="#7F2684"/>
<path d="M147.613 29.7635C147.613 27.3452 145.658 25.3848 143.246 25.3848H118.134C115.722 25.3848 113.767 27.3452 113.767 29.7635V44.5416C113.767 46.9599 115.722 48.9203 118.134 48.9203H143.246C145.658 48.9203 147.613 46.9599 147.613 44.5416V29.7635Z" fill="white"/>
<path d="M147.613 29.7635C147.613 27.3452 145.658 25.3848 143.246 25.3848H118.134C115.722 25.3848 113.767 27.3452 113.767 29.7635V44.5416C113.767 46.9599 115.722 48.9203 118.134 48.9203H143.246C145.658 48.9203 147.613 46.9599 147.613 44.5416V29.7635Z" fill="url(#paint6_linear_5871_36006)" fill-opacity="0.2"/>
<path d="M118.134 52.4859C118.134 53.0842 118.787 53.4534 119.3 53.145L126.323 48.9203H118.134V52.4859Z" fill="white"/>
<path d="M118.134 52.4859C118.134 53.0842 118.787 53.4534 119.3 53.145L126.323 48.9203H118.134V52.4859Z" fill="url(#paint7_linear_5871_36006)" fill-opacity="0.2"/>
<g opacity="0.5">
<circle r="1.92308" transform="matrix(-1 0 0 1 137.999 37.3078)" fill="#7F2684"/>
<circle r="1.92308" transform="matrix(-1 0 0 1 131.077 37.3078)" fill="#7F2684"/>
<circle r="1.92308" transform="matrix(-1 0 0 1 124.151 37.3078)" fill="#7F2684"/>
</g>
<defs>
<linearGradient id="paint0_linear_5871_36006" x1="45.3303" y1="-4.25701" x2="128.612" y2="193.487" gradientUnits="userSpaceOnUse">
<stop offset="0.219581" stop-color="#DDF5FB"/>
<stop offset="1" stop-color="#DA0095"/>
</linearGradient>
<linearGradient id="paint1_linear_5871_36006" x1="43.0468" y1="-8.89758" x2="131.534" y2="201.205" gradientUnits="userSpaceOnUse">
<stop offset="0.219581" stop-color="#DDF5FB"/>
<stop offset="1" stop-color="#DA0095"/>
</linearGradient>
<linearGradient id="paint2_linear_5871_36006" x1="47.6061" y1="0.385518" x2="125.683" y2="185.77" gradientUnits="userSpaceOnUse">
<stop offset="0.219581" stop-color="#DDF5FB"/>
<stop offset="1" stop-color="#DA0095"/>
</linearGradient>
<linearGradient id="paint3_linear_5871_36006" x1="47.6061" y1="0.385518" x2="125.683" y2="185.77" gradientUnits="userSpaceOnUse">
<stop offset="0.219581" stop-color="#DDF5FB"/>
<stop offset="1" stop-color="#DA0095"/>
</linearGradient>
<linearGradient id="paint4_linear_5871_36006" x1="8.32733" y1="21.7547" x2="33.1574" y2="66.2849" gradientUnits="userSpaceOnUse">
<stop stop-color="#CE57D3"/>
<stop offset="0.349738" stop-color="#9454E6"/>
<stop offset="0.635417" stop-color="#6A6CE9"/>
<stop offset="1" stop-color="#47BAD8"/>
</linearGradient>
<linearGradient id="paint5_linear_5871_36006" x1="8.32733" y1="21.7547" x2="33.1574" y2="66.2849" gradientUnits="userSpaceOnUse">
<stop stop-color="#CE57D3"/>
<stop offset="0.349738" stop-color="#9454E6"/>
<stop offset="0.635417" stop-color="#6A6CE9"/>
<stop offset="1" stop-color="#47BAD8"/>
</linearGradient>
<linearGradient id="paint6_linear_5871_36006" x1="143.833" y1="30.4647" x2="126.141" y2="62.1103" gradientUnits="userSpaceOnUse">
<stop stop-color="#CE57D3"/>
<stop offset="0.349738" stop-color="#9454E6"/>
<stop offset="0.635417" stop-color="#6A6CE9"/>
<stop offset="1" stop-color="#47BAD8"/>
</linearGradient>
<linearGradient id="paint7_linear_5871_36006" x1="143.833" y1="30.4647" x2="126.141" y2="62.1103" gradientUnits="userSpaceOnUse">
<stop stop-color="#CE57D3"/>
<stop offset="0.349738" stop-color="#9454E6"/>
<stop offset="0.635417" stop-color="#6A6CE9"/>
<stop offset="1" stop-color="#47BAD8"/>
</linearGradient>
</defs>
</svg>
