<svg width="12" height="13" viewBox="0 0 12 13" fill="none" xmlns="http://www.w3.org/2000/svg">
<path fill-rule="evenodd" clip-rule="evenodd" d="M1 3.5C1 3.22386 1.22386 3 1.5 3H10.5C10.7761 3 11 3.22386 11 3.5C11 3.77614 10.7761 4 10.5 4H1.5C1.22386 4 1 3.77614 1 3.5Z" fill="black"/>
<path fill-rule="evenodd" clip-rule="evenodd" d="M5 2C4.86739 2 4.74022 2.05268 4.64645 2.14645C4.55268 2.24021 4.5 2.36739 4.5 2.5V3H7.5V2.5C7.5 2.36739 7.44732 2.24021 7.35355 2.14645C7.25979 2.05268 7.13261 2 7 2H5ZM8.5 3V2.5C8.5 2.10217 8.34196 1.72064 8.06066 1.43934C7.77936 1.15804 7.39782 1 7 1H5C4.60218 1 4.22064 1.15804 3.93934 1.43934C3.65804 1.72064 3.5 2.10217 3.5 2.5V3H2.5C2.22386 3 2 3.22386 2 3.5V10.5C2 10.8978 2.15804 11.2794 2.43934 11.5607C2.72064 11.842 3.10217 12 3.5 12H8.5C8.89783 12 9.27936 11.842 9.56066 11.5607C9.84196 11.2794 10 10.8978 10 10.5V3.5C10 3.22386 9.77614 3 9.5 3H8.5ZM3 4V10.5C3 10.6326 3.05268 10.7598 3.14645 10.8536C3.24021 10.9473 3.36739 11 3.5 11H8.5C8.63261 11 8.75978 10.9473 8.85355 10.8536C8.94732 10.7598 9 10.6326 9 10.5V4H3Z" fill="black"/>
<path fill-rule="evenodd" clip-rule="evenodd" d="M5 5.5C5.27614 5.5 5.5 5.72386 5.5 6V9C5.5 9.27614 5.27614 9.5 5 9.5C4.72386 9.5 4.5 9.27614 4.5 9V6C4.5 5.72386 4.72386 5.5 5 5.5Z" fill="black"/>
<path fill-rule="evenodd" clip-rule="evenodd" d="M7 5.5C7.27614 5.5 7.5 5.72386 7.5 6V9C7.5 9.27614 7.27614 9.5 7 9.5C6.72386 9.5 6.5 9.27614 6.5 9V6C6.5 5.72386 6.72386 5.5 7 5.5Z" fill="black"/>
</svg>
