<svg width="21" height="20" viewBox="0 0 21 20" xmlns="http://www.w3.org/2000/svg">
<path d="M13.9737 3.43757C13.9737 4.23152 13.304 4.87513 12.4786 4.87513C11.6532 4.87513 10.9836 4.23152 10.9836 3.43757C10.9836 2.64361 11.6532 2 12.4786 2C13.304 2 13.9737 2.64361 13.9737 3.43757ZM9.94013 7.9689C9.91209 7.98088 9.88095 7.99286 9.85291 8.00484L9.51029 8.15159C9.03405 8.35524 8.6606 8.72661 8.46748 9.19083L8.42045 9.30463C8.21613 9.7958 7.63616 10.0354 7.12504 9.83773C6.61391 9.64007 6.36536 9.08301 6.56968 8.59184L6.61672 8.47803C7.00263 7.5526 7.74985 6.80686 8.69922 6.39955L9.04184 6.2528C9.69095 5.97727 10.3637 5.83351 11.0988 5.83351C12.488 5.83351 13.7401 6.63615 14.2727 7.86707L14.7243 8.9692L15.4158 9.28966C15.9079 9.52626 16.1073 10.1013 15.8612 10.5745C15.6152 11.0477 15.0171 11.2394 14.525 11.0028L13.6934 10.6044C13.3726 10.4487 13.1203 10.1881 12.9832 9.87068L12.6842 9.18184L12.0831 11.1435L13.6248 12.7638C13.793 12.9405 13.9145 13.1531 13.9737 13.3867L14.6901 16.1421C14.824 16.6572 14.5001 17.1783 13.9675 17.3041C13.4317 17.4329 12.8898 17.1214 12.7309 16.6093L12.0706 13.9677L9.8716 11.6586C9.41062 11.1765 9.21128 10.5026 9.41374 9.87068L9.94013 7.9689ZM8.14075 13.9198L8.91819 12.051C8.98515 12.1408 9.05741 12.2247 9.13653 12.3085L10.4042 13.6383L9.95259 14.7225C9.87783 14.9052 9.7657 15.0699 9.62242 15.2046L7.70157 17.0525C7.31223 17.4269 6.68119 17.4269 6.29191 17.0525C5.9027 16.6782 5.9027 16.0732 6.29191 15.6988L8.14075 13.9198Z" fill="inherit"/>
</svg>
