<svg width="20" height="20" viewBox="0 0 20 20" fill="none" xmlns="http://www.w3.org/2000/svg">
<path d="M14.4978 11.9566C14.2545 11.8316 13.0425 11.2379 12.817 11.1575C12.5916 11.0727 12.4264 11.0325 12.2634 11.2825C12.0983 11.5303 11.6295 12.0816 11.4822 12.249C11.3393 12.4142 11.1943 12.4343 10.951 12.3115C9.50455 11.5883 8.5559 11.0214 7.60279 9.3852C7.35056 8.94993 7.85502 8.98118 8.32599 8.04145C8.40635 7.87627 8.36617 7.73565 8.30367 7.61065C8.24117 7.48565 7.75011 6.27583 7.54475 5.78252C7.3461 5.30261 7.14074 5.36958 6.99119 5.36065C6.84833 5.35172 6.68539 5.35172 6.52021 5.35172C6.35504 5.35172 6.08942 5.41422 5.86397 5.65752C5.63853 5.90529 5.00238 6.50127 5.00238 7.71109C5.00238 8.92092 5.88406 10.0928 6.00459 10.258C6.12959 10.4231 7.73895 12.9053 10.2099 13.9745C11.7724 14.6486 12.384 14.7066 13.1652 14.5906C13.6407 14.5191 14.6206 13.9968 14.8237 13.4187C15.0268 12.8428 15.0268 12.3495 14.9665 12.2468C14.9063 12.1374 14.7411 12.0749 14.4978 11.9566Z" fill="black"/>
<path d="M19.2231 6.125C18.7186 4.92634 17.9954 3.85045 17.0736 2.92634C16.1582 2.00758 15.0714 1.27728 13.875 0.776786C12.6473 0.261161 11.3437 0 10 0H9.95536C8.6027 0.00669643 7.29245 0.274554 6.06032 0.801339C4.87408 1.30697 3.79754 2.03857 2.89072 2.95536C1.97778 3.87723 1.26127 4.94866 0.765742 6.14286C0.252356 7.37947 -0.00656971 8.6942 0.000126634 10.0469C0.00770076 11.597 0.374434 13.1243 1.07154 14.5089V17.9018C1.07154 18.1741 1.17972 18.4353 1.37228 18.6278C1.56483 18.8204 1.826 18.9286 2.09831 18.9286H5.49336C6.87793 19.6257 8.40522 19.9924 9.95536 20H10.0022C11.3393 20 12.6361 19.7411 13.8571 19.2344C15.0475 18.7398 16.1302 18.0181 17.0446 17.1094C17.9664 16.1964 18.6919 15.1295 19.1985 13.9397C19.7253 12.7076 19.9932 11.3973 19.9999 10.0446C20.0066 8.68527 19.7432 7.36607 19.2231 6.125ZM15.8504 15.9018C14.2857 17.4509 12.2098 18.3036 10 18.3036H9.96205C8.61609 18.2969 7.27905 17.9621 6.09826 17.3326L5.91077 17.2321H2.76795V14.0893L2.6675 13.9018C2.03805 12.721 1.70323 11.3839 1.69653 10.0379C1.68761 7.8125 2.53804 5.72321 4.09829 4.14955C5.65631 2.57589 7.73887 1.70536 9.96429 1.69643H10.0022C11.1183 1.69643 12.2009 1.91295 13.2209 2.34152C14.2165 2.75893 15.1093 3.35938 15.8772 4.12723C16.6428 4.89286 17.2454 5.78795 17.6628 6.78348C18.0959 7.81473 18.3124 8.90848 18.3079 10.0379C18.2945 12.2612 17.4218 14.3438 15.8504 15.9018Z" fill="black"/>
</svg>
