<svg width="25" height="25" viewBox="0 0 25 25" fill="none" xmlns="http://www.w3.org/2000/svg">
<circle cx="12.5" cy="12.5" r="12.5" fill="#F5F5F5"/>
<path d="M13.5 7C13.5 6.44772 13.0523 6 12.5 6C11.9477 6 11.5 6.44772 11.5 7H13.5ZM11.5 18C11.5 18.5523 11.9477 19 12.5 19C13.0523 19 13.5 18.5523 13.5 18H11.5ZM11.5 7V18H13.5V7H11.5Z" fill="black"/>
<path d="M7 11.5C6.44772 11.5 6 11.9477 6 12.5C6 13.0523 6.44772 13.5 7 13.5L7 11.5ZM18 13.5C18.5523 13.5 19 13.0523 19 12.5C19 11.9477 18.5523 11.5 18 11.5L18 13.5ZM7 13.5L18 13.5L18 11.5L7 11.5L7 13.5Z" fill="black"/>
</svg>
