<svg width="17" height="17" viewBox="0 0 17 17" fill="none" xmlns="http://www.w3.org/2000/svg">
<g clip-path="url(#clip0_1336_15080)">
<path fill-rule="evenodd" clip-rule="evenodd" d="M5.1665 14.5003C5.1665 13.7639 5.76346 13.167 6.49984 13.167C7.23622 13.167 7.83317 13.7639 7.83317 14.5003C7.83317 15.2367 7.23622 15.8337 6.49984 15.8337C5.76346 15.8337 5.1665 15.2367 5.1665 14.5003Z" fill="black"/>
<path fill-rule="evenodd" clip-rule="evenodd" d="M12.5 14.5003C12.5 13.7639 13.097 13.167 13.8333 13.167C14.5697 13.167 15.1667 13.7639 15.1667 14.5003C15.1667 15.2367 14.5697 15.8337 13.8333 15.8337C13.097 15.8337 12.5 15.2367 12.5 14.5003Z" fill="black"/>
<path fill-rule="evenodd" clip-rule="evenodd" d="M0.5 1.16667C0.5 0.798477 0.798477 0.5 1.16667 0.5H3.83333C4.15108 0.5 4.42467 0.724257 4.48704 1.03583L5.04695 3.83333H15.8333C16.032 3.83333 16.2203 3.92195 16.347 4.07504C16.4736 4.22812 16.5254 4.42972 16.4882 4.62489L15.4206 10.2232C15.3291 10.6836 15.0787 11.0972 14.713 11.3915C14.3492 11.6844 13.8944 11.8406 13.4276 11.8333H6.9591C6.49225 11.8406 6.03747 11.6844 5.67365 11.3915C5.30817 11.0973 5.05776 10.6839 4.96622 10.2238C4.96618 10.2236 4.96626 10.224 4.96622 10.2238L3.85253 4.65947C3.84801 4.64106 3.84425 4.62236 3.8413 4.60338L3.28688 1.83333H1.16667C0.798477 1.83333 0.5 1.53486 0.5 1.16667ZM5.31382 5.16667L6.27389 9.96346C6.30437 10.1169 6.38786 10.2548 6.50974 10.3529C6.63162 10.451 6.78413 10.5031 6.94056 10.5001L6.95333 10.5H13.4333L13.4461 10.5001C13.6025 10.5031 13.755 10.451 13.8769 10.3529C13.9982 10.2552 14.0815 10.1182 14.1123 9.9656L15.0275 5.16667H5.31382Z" fill="black"/>
</g>
<defs>
<clipPath id="clip0_1336_15080">
<rect width="16" height="16" fill="white" transform="translate(0.5 0.5)"/>
</clipPath>
</defs>
</svg>
