<svg width="32" height="32" viewBox="0 0 32 32" fill="none" xmlns="http://www.w3.org/2000/svg">
<circle cx="16" cy="16" r="12" fill="white"/>
<path d="M16 28C18.3734 28 20.6935 27.2962 22.6668 25.9776C24.6402 24.6591 26.1783 22.7849 27.0865 20.5922C27.9948 18.3995 28.2324 15.9867 27.7694 13.6589C27.3064 11.3311 26.1635 9.19295 24.4853 7.51472C22.807 5.83649 20.6689 4.6936 18.3411 4.23058C16.0133 3.76756 13.6005 4.0052 11.4078 4.91345C9.21508 5.8217 7.34094 7.35977 6.02236 9.33316C4.70379 11.3066 4 13.6266 4 16C4 19.1826 5.26428 22.2348 7.51472 24.4853C9.76515 26.7357 12.8174 28 16 28ZM9.77091 16.3164C9.9753 16.1132 10.2518 15.9991 10.54 15.9991C10.8282 15.9991 11.1047 16.1132 11.3091 16.3164L13.8182 18.8255L20.1345 12.5091C20.3432 12.3304 20.6117 12.237 20.8862 12.2476C21.1608 12.2582 21.4212 12.372 21.6155 12.5663C21.8098 12.7606 21.9236 13.021 21.9342 13.2956C21.9448 13.5701 21.8514 13.8386 21.6727 14.0473L14.5818 21.1382C14.3774 21.3414 14.1009 21.4554 13.8127 21.4554C13.5245 21.4554 13.248 21.3414 13.0436 21.1382L9.77091 17.8655C9.66866 17.764 9.5875 17.6434 9.53212 17.5104C9.47673 17.3775 9.44822 17.2349 9.44822 17.0909C9.44822 16.9469 9.47673 16.8043 9.53212 16.6714C9.5875 16.5384 9.66866 16.4178 9.77091 16.3164Z" fill="black"/>
</svg>
