<svg width="20" height="18" viewBox="0 0 20 18" fill="none" xmlns="http://www.w3.org/2000/svg">
<path fill-rule="evenodd" clip-rule="evenodd" d="M9.09091 1.89474C6.58052 1.89474 4.54545 4.01549 4.54545 6.63158V14.2105H1.81818C0.814028 14.2105 0 13.3622 0 12.3158V8.52632C0 7.47988 0.814028 6.63158 1.81818 6.63158L2.72727 6.63158C2.72727 2.96906 5.57637 0 9.09091 0H10.9091C14.4236 0 17.2727 2.96906 17.2727 6.63158H18.1818C19.186 6.63158 20 7.47988 20 8.52632V12.3158C20 13.3622 19.186 14.2105 18.1818 14.2105H17.1582C16.7545 15.845 15.3308 17.0526 13.6364 17.0526H12.484C12.1697 17.619 11.5821 18 10.9091 18C9.90494 18 9.09091 17.1517 9.09091 16.1053C9.09091 15.0588 9.90494 14.2105 10.9091 14.2105C11.5821 14.2105 12.1697 14.5916 12.484 15.1579H13.6364C14.6405 15.1579 15.4545 14.3096 15.4545 13.2632V6.63158C15.4545 4.01549 13.4195 1.89474 10.9091 1.89474H9.09091ZM2.72727 8.52632H1.81818L1.81818 12.3158H2.72727V8.52632ZM17.2727 8.52632H18.1818V12.3158H17.2727V8.52632Z" fill="black"/>
<path d="M9.09091 8.76316C9.09091 9.41718 8.58214 9.94737 7.95455 9.94737C7.32695 9.94737 6.81818 9.41718 6.81818 8.76316C6.81818 8.10914 7.32695 7.57895 7.95455 7.57895C8.58214 7.57895 9.09091 8.10914 9.09091 8.76316Z" fill="black"/>
<path d="M12.0455 9.94737C12.6731 9.94737 13.1818 9.41718 13.1818 8.76316C13.1818 8.10914 12.6731 7.57895 12.0455 7.57895C11.4179 7.57895 10.9091 8.10914 10.9091 8.76316C10.9091 9.41718 11.4179 9.94737 12.0455 9.94737Z" fill="black"/>
</svg>
