<svg width="24" height="24" viewBox="0 0 24 24" fill="none" xmlns="http://www.w3.org/2000/svg">
<path d="M0 12C0 5.37258 5.37258 0 12 0V0C18.6274 0 24 5.37258 24 12V12C24 18.6274 18.6274 24 12 24V24C5.37258 24 0 18.6274 0 12V12Z" fill="white"/>
<path fill-rule="evenodd" clip-rule="evenodd" d="M14.1954 5.52876C14.4558 5.26841 14.8779 5.26841 15.1382 5.52876L18.4716 8.86209C18.7319 9.12244 18.7319 9.54455 18.4716 9.8049L9.8049 18.4716C9.67988 18.5966 9.51031 18.6668 9.3335 18.6668H6.00016C5.63197 18.6668 5.3335 18.3684 5.3335 18.0002V14.6668C5.3335 14.49 5.40373 14.3204 5.52876 14.1954L14.1954 5.52876ZM6.66683 14.943V17.3335H9.05735L17.0574 9.3335L14.6668 6.94297L6.66683 14.943Z" fill="black"/>
</svg>
