<svg width="161" height="160" viewBox="0 0 161 160" fill="none" xmlns="http://www.w3.org/2000/svg">
<path d="M147.812 48.439C143.498 50.849 138.526 52.2225 133.233 52.2225C116.699 52.2225 103.295 38.8191 103.295 22.2851C103.295 18.9924 103.827 15.8238 104.809 12.8605C101.6 12.295 98.2967 12 94.925 12H62.075C30.8295 12 5.5 37.3295 5.5 68.575V101.425C5.5 132.671 30.8295 158 62.075 158H94.925C126.171 158 151.5 132.671 151.5 101.425V68.575C151.5 61.4825 150.195 54.6948 147.812 48.439Z" fill="#F1F1F1"/>
<path d="M34 60.4797H46.748C48.2766 60.4797 49.6305 61.4644 50.0982 62.9165L63.478 103.643M63.478 103.643H104.681C105.952 103.643 107.124 102.96 107.747 101.855L122.542 75.6456C123.863 73.305 122.168 70.4112 119.476 70.4112C97.1707 70.4112 74.8655 70.4112 52.5604 70.4112M63.478 103.643C60.7294 103.643 58.5012 105.867 58.5012 108.609C58.5012 111.352 60.7294 113.575 63.478 113.575H101.378M73.0488 61.1488L68.4548 56.5651M86.8307 58.9872V45.9999M99.847 61.1488L104.441 56.5651M76.1114 125.416C76.1114 127.948 74.0546 130 71.5175 130C68.9803 130 66.9235 127.948 66.9235 125.416C66.9235 122.885 68.9803 120.833 71.5175 120.833C74.0546 120.833 76.1114 122.885 76.1114 125.416ZM98.3156 125.416C98.3156 127.948 96.2589 130 93.7217 130C91.1845 130 89.1277 127.948 89.1277 125.416C89.1277 122.885 91.1845 120.833 93.7217 120.833C96.2589 120.833 98.3156 122.885 98.3156 125.416Z" stroke="#B0B0B0" stroke-width="5" stroke-linecap="round"/>
<circle cx="133.5" cy="22" r="22" fill="#F1F1F1"/>
<path d="M126 30L142 14" stroke="#B0B0B0" stroke-width="3.81773" stroke-linecap="round" stroke-linejoin="round"/>
<path d="M142 30L126 14" stroke="#B0B0B0" stroke-width="3.81773" stroke-linecap="round" stroke-linejoin="round"/>
</svg>
