<svg width="48" height="48" viewBox="0 0 48 48" fill="none" xmlns="http://www.w3.org/2000/svg">
<circle opacity="0.1" cx="24" cy="24" r="24" fill="url(#paint0_linear_436_9657)"/>
<mask id="mask0_436_9657" style="mask-type:alpha" maskUnits="userSpaceOnUse" x="0" y="0" width="48" height="48">
<circle cx="24" cy="24" r="24" fill="#EEEEEE"/>
</mask>
<g mask="url(#mask0_436_9657)">
<path d="M31.2387 9H16.7614C14.0155 9 11.7896 11.1627 11.7896 13.8306V33.1694C11.7896 35.8373 14.0155 38 16.7614 38H31.2387C33.9846 38 36.2106 35.8373 36.2106 33.1694V13.8306C36.2106 11.1627 33.9846 9 31.2387 9Z" fill="url(#paint1_linear_436_9657)"/>
<path d="M30.7693 16.6252H29.077V14.9064C29.077 14.5902 28.8243 14.3335 28.5129 14.3335H18.3591C17.426 14.3335 16.6667 15.1046 16.6667 16.0522V30.3752C16.6667 31.639 17.6787 32.6668 18.9232 32.6668H30.7693C31.0807 32.6668 31.3334 32.4102 31.3334 32.0939V17.1981C31.3334 16.8818 31.0807 16.6252 30.7693 16.6252ZM27.3847 29.2293H20.6155C20.3041 29.2293 20.0514 28.9727 20.0514 28.6564C20.0514 28.3402 20.3041 28.0835 20.6155 28.0835H27.3847C27.6961 28.0835 27.9488 28.3402 27.9488 28.6564C27.9488 28.9727 27.6961 29.2293 27.3847 29.2293ZM20.0514 21.2085C20.0514 19.9229 20.7949 18.9168 21.7437 18.9168C22.6925 18.9168 23.436 19.9229 23.436 21.2085C23.436 22.2226 22.97 23.0556 22.3078 23.3638V26.3647C22.3078 26.681 22.0551 26.9377 21.7437 26.9377C21.4323 26.9377 21.1796 26.681 21.1796 26.3647V23.3638C20.5173 23.0556 20.0514 22.2226 20.0514 21.2085ZM27.9488 24.0731C27.9488 24.3893 27.6961 24.646 27.3847 24.646H25.6924V26.3647C25.6924 26.681 25.4397 26.9377 25.1283 26.9377C24.8169 26.9377 24.5642 26.681 24.5642 26.3647V19.4897C24.5642 19.1735 24.8169 18.9168 25.1283 18.9168C26.6841 18.9168 27.9488 20.2025 27.9488 21.7814V24.0731ZM27.9488 16.6252H18.3591C18.0477 16.6252 17.795 16.3685 17.795 16.0522C17.795 15.736 18.0477 15.4793 18.3591 15.4793H27.9488V16.6252Z" fill="white"/>
</g>
<defs>
<linearGradient id="paint0_linear_436_9657" x1="4.24339" y1="43.2115" x2="35.0667" y2="13.2417" gradientUnits="userSpaceOnUse">
<stop offset="0.01" stop-color="#FF55AA"/>
<stop offset="0.25" stop-color="#B850C9"/>
<stop offset="0.62" stop-color="#6572D6"/>
<stop offset="1" stop-color="#4EAEB8"/>
</linearGradient>
<linearGradient id="paint1_linear_436_9657" x1="36.2106" y1="24.8665" x2="11.7894" y2="24.9123" gradientUnits="userSpaceOnUse">
<stop stop-color="#00AAE4"/>
<stop offset="1" stop-color="#8255BE"/>
</linearGradient>
</defs>
</svg>
