<svg width="182" height="182" viewBox="0 0 182 182" fill="none" xmlns="http://www.w3.org/2000/svg">
<circle opacity="0.2" cx="91" cy="91" r="80.5" stroke="url(#paint0_linear_1336_16441)"/>
<circle opacity="0.2" cx="91" cy="91" r="85.5" stroke="url(#paint1_linear_1336_16441)"/>
<circle cx="91" cy="91" r="75.5" fill="url(#paint2_linear_1336_16441)" fill-opacity="0.2" stroke="url(#paint3_linear_1336_16441)"/>
<mask id="mask0_1336_16441" style="mask-type:alpha" maskUnits="userSpaceOnUse" x="15" y="4" width="152" height="162">
<path d="M166 91C166 132.421 132.421 166 90.9996 166C49.5783 166 15.9996 132.421 15.9996 91C15.9996 49.5786 11.5 4 78.4996 4C173 4 166 49.5786 166 91Z" fill="#D9D9D9"/>
</mask>
<g mask="url(#mask0_1336_16441)">
<path d="M46.7859 93.7163L84.3264 96.6079C84.3264 96.6079 79.4349 106.31 65.3942 113.218C61.9145 114.927 58.8782 117.421 56.5241 120.503L53.435 120.596L46.7859 93.7163Z" fill="#F2DBC4"/>
<path d="M60.3281 96.6079C60.3281 96.6079 60.4346 99.8321 59.3928 104.354C59.3928 104.354 62.7632 100.516 84.3264 96.6079H60.3281Z" fill="#D0AB8C"/>
<path d="M79.9995 47.0417L80.9535 59.001C92.0004 55.3723 90.311 57.0871 98.8602 48.8072C107.542 42.5402 108.616 29.3928 100.367 33.937L98.9264 34.8632L79.9995 47.0417Z" fill="#F2DBC4"/>
<path d="M87.0128 64.4084C82.6966 62.8038 85.0518 54.1546 89.9102 51.793V83.7197C89.6079 83.8653 89.2912 83.9789 88.9654 84.0588C84.4595 84.7358 85.0017 78.0229 88.1537 74.6953C83.9365 75.2284 83.8576 67.9856 87.0128 64.4084Z" fill="#BBC9F9"/>
<rect x="38" y="18.5283" width="48" height="100" rx="7.57143" transform="rotate(-12.8078 38 18.5283)" fill="white" stroke="black" stroke-width="1.5"/>
<path d="M64.4053 53.6258L71.6803 83.0242C71.8071 83.6633 71.6748 84.3266 71.3125 84.8682C70.9503 85.4097 70.3877 85.7852 69.7486 85.912L69.6956 85.9225C69.0565 86.0493 68.3932 85.917 67.8516 85.5548C67.31 85.1925 66.9345 84.63 66.8078 83.9908L62.2992 54.0436C58.8833 54.02 55.639 50.7715 54.7422 46.2508C53.7506 41.2529 56.0021 36.5935 59.771 35.8458C63.5398 35.0981 67.4043 38.5442 68.3959 43.542C69.2927 48.0627 67.5343 52.3037 64.4053 53.6258Z" fill="#EEEEEE"/>
<path d="M66.8431 62.1215L63.2718 62.83L66.9372 87.214C67.0893 87.9809 67.5399 88.656 68.1898 89.0907C68.8397 89.5254 69.6356 89.6841 70.4025 89.532L70.4556 89.5215C71.2225 89.3693 71.8976 88.9187 72.3323 88.2689C72.767 87.619 72.9257 86.823 72.7736 86.0561L66.8431 62.1215Z" fill="#7A50E8"/>
<path d="M66.8247 62.1272L65.0801 62.4733L70.4398 84.1117C70.592 84.8786 70.4332 85.6746 69.9985 86.3245C69.5638 86.9744 68.8887 87.425 68.1218 87.5771L68.0736 87.5867C67.7291 87.6551 67.375 87.6591 67.029 87.5985C67.264 88.2672 67.732 88.8288 68.3473 89.1805C68.9626 89.5322 69.684 89.6504 70.3794 89.5136L70.4276 89.504C71.1945 89.3519 71.8696 88.9013 72.3043 88.2514C72.739 87.6015 72.8978 86.8056 72.7456 86.0387L66.8247 62.1272Z" fill="#6738E3"/>
<path d="M71.0399 85.4721C71.0944 85.7468 71.0662 86.0315 70.9588 86.2902C70.8513 86.5488 70.6696 86.7698 70.4365 86.9251C70.2034 87.0804 69.9294 87.163 69.6494 87.1625C69.3693 87.162 69.0956 87.0784 68.8631 86.9222C68.6306 86.7661 68.4496 86.5445 68.3431 86.2854C68.2366 86.0264 68.2094 85.7416 68.2649 85.467C68.3204 85.1925 68.4561 84.9406 68.6549 84.7433C68.8536 84.5459 69.1065 84.412 69.3814 84.3585C69.7489 84.2869 70.1298 84.3639 70.4407 84.5726C70.7516 84.7813 70.9671 85.1048 71.0399 85.4721Z" fill="#EEEEEE"/>
<path d="M80.107 32.7017C80.0856 32.5902 80.042 32.4842 79.9787 32.39C79.9155 32.2957 79.8339 32.2152 79.7388 32.1532C79.6438 32.0912 79.5372 32.0489 79.4255 32.029C79.3137 32.0091 79.1991 32.0118 79.0885 32.0371C78.8674 32.081 78.6727 32.2109 78.5474 32.3983C78.422 32.5857 78.3763 32.8152 78.4201 33.0363L79.861 40.2993C79.8673 40.4993 79.802 40.695 79.6769 40.8511C79.5518 41.0073 79.375 41.1136 79.1784 41.1511C78.9768 41.204 78.7626 41.1804 78.5773 41.085C78.3919 40.9895 78.2483 40.8289 78.1742 40.634L76.7333 33.371C76.6896 33.1507 76.5605 32.9566 76.3742 32.8312C76.1879 32.7058 75.9595 32.6592 75.7389 32.7017C75.6297 32.7233 75.5258 32.7664 75.4332 32.8284C75.3406 32.8903 75.2612 32.97 75.1996 33.0628C75.1379 33.1555 75.0952 33.2596 75.0739 33.3689C75.0526 33.4783 75.0531 33.5907 75.0754 33.6999L76.5163 40.9629C76.5226 41.1629 76.4573 41.3586 76.3321 41.5147C76.207 41.6708 76.0303 41.7772 75.8337 41.8146C75.6378 41.854 75.4343 41.8228 75.2593 41.7264C75.0842 41.6299 74.949 41.4746 74.8777 41.288L73.4368 34.025C73.4145 33.9121 73.3696 33.805 73.3047 33.71C73.2398 33.615 73.1563 33.5342 73.0593 33.4725C72.9623 33.4107 72.8538 33.3693 72.7403 33.3507C72.6268 33.3321 72.5107 33.3367 72.399 33.3643C72.2897 33.3859 72.1858 33.429 72.0933 33.491C72.0007 33.5529 71.9213 33.6326 71.8596 33.7254C71.798 33.8182 71.7553 33.9222 71.734 34.0315C71.7126 34.1409 71.7132 34.2533 71.7355 34.3625L73.1764 41.6255C73.1816 41.8253 73.116 42.0204 72.991 42.1763C72.8661 42.3323 72.6899 42.4389 72.4938 42.4772C72.2979 42.5156 72.0948 42.4839 71.9201 42.3876C71.7453 42.2913 71.6099 42.1366 71.5377 41.9506L70.0968 34.6876C70.0751 34.5735 70.0302 34.4652 69.9648 34.3693C69.8993 34.2734 69.8148 34.192 69.7166 34.1301C69.6183 34.0683 69.5083 34.0274 69.3936 34.01C69.2788 33.9925 69.1616 33.9989 69.0494 34.0288C68.8283 34.0726 68.6337 34.2026 68.5083 34.3899C68.383 34.5773 68.3372 34.8068 68.3811 35.028L70.1624 44.0067C70.1629 44.0232 70.1662 44.0395 70.1719 44.0549C70.9707 47.8287 73.8139 50.5456 76.5385 50.8968L81.0552 81.1379C81.182 81.777 81.5575 82.3396 82.0991 82.7018C82.6407 83.0641 83.304 83.1964 83.9431 83.0696L83.9913 83.06C84.6304 82.9332 85.1929 82.5578 85.5552 82.0162C85.9175 81.4746 86.0497 80.8113 85.9229 80.1722L78.6253 50.4828C80.995 49.121 82.5867 45.5292 81.8978 41.7286L80.107 32.7017Z" fill="#EEEEEE"/>
<path d="M81.1248 59.2885L77.5584 59.996L81.2189 84.381C81.371 85.1479 81.8216 85.823 82.4715 86.2577C83.1214 86.6924 83.9174 86.8511 84.6843 86.699L84.7373 86.6885C85.5042 86.5363 86.1793 86.0857 86.614 85.4358C87.0487 84.786 87.2075 83.99 87.0553 83.2231L81.1248 59.2885Z" fill="#7A50E8"/>
<path d="M81.1078 59.2937L79.3631 59.6398L84.7325 81.2763C84.8847 82.0432 84.7259 82.8392 84.2912 83.489C83.8565 84.1389 83.1814 84.5895 82.4145 84.7417L82.3663 84.7512C82.0218 84.8196 81.6677 84.8236 81.3217 84.7631C81.5568 85.4317 82.0248 85.9933 82.6401 86.345C83.2553 86.6967 83.9767 86.815 84.6721 86.6782L84.7251 86.6676C85.4921 86.5155 86.1672 86.0649 86.6019 85.415C87.0366 84.7651 87.1953 83.9692 87.0432 83.2022L81.1078 59.2937Z" fill="#6738E3"/>
<path d="M85.3402 82.6366C85.3947 82.9113 85.3665 83.1961 85.2591 83.4547C85.1516 83.7134 84.9699 83.9344 84.7368 84.0896C84.5037 84.2449 84.2297 84.3275 83.9496 84.327C83.6696 84.3265 83.3959 84.2429 83.1634 84.0868C82.9309 83.9307 82.7499 83.709 82.6434 83.45C82.5369 83.1909 82.5097 82.9061 82.5652 82.6316C82.6207 82.3571 82.7564 82.1052 82.9552 81.9078C83.1539 81.7105 83.4067 81.5766 83.6817 81.523C84.0492 81.4514 84.4301 81.5284 84.741 81.7371C85.0519 81.9459 85.2674 82.2693 85.3402 82.6366Z" fill="#EEEEEE"/>
<path d="M49 16.3203L72.4029 11C72.7702 12.6156 71.7582 14.2231 70.1425 14.5904L52.5904 18.5806C50.9748 18.9479 49.3673 17.9359 49 16.3203Z" fill="black"/>
<path d="M46.7859 40.6583V85.5161L57.4998 109C57.4998 109 65.5723 95.4995 58.7558 85.5161C51.9392 75.5327 49.4998 71.9995 48.649 58.1698C48.649 58.1698 50.6974 54.9114 51.5538 52.1147C53.4744 45.8369 49.2295 40.5964 46.7859 40.6583Z" fill="#D0AB8C"/>
<path d="M99.2076 81.3837C100.29 81.2131 102.008 79.891 103.149 78.9314C105.619 76.9056 108.129 74.2678 106.138 71.3538C105.525 70.4784 104.86 69.9858 103.945 69.7609C101.623 69.1681 98.429 71.4583 97.0591 73.7272C95.0107 77.2063 95.7254 82.2036 99.2076 81.3837Z" fill="#F2DBC4"/>
<path d="M97.7534 72.7422C99.5291 70.7303 102.3 68.939 104.552 69.9637C102.394 71.708 99.7283 74.5303 97.061 73.7263C97.2645 73.3799 97.4961 73.0507 97.7534 72.7422Z" fill="#D0AB8C"/>
<path d="M98.7544 72.1663C100.287 71.8059 102.577 69.714 104.133 68.4633C107.519 65.9374 109.505 61.4263 105.511 58.7863C102.635 57.171 99.5725 59.2843 97.376 61.5414C94.0791 64.8094 93.962 73.2847 98.7544 72.1663Z" fill="#F2DBC4"/>
<path d="M97.3756 61.5409C99.5721 59.2837 102.639 57.1694 105.511 58.7858C104.911 59.4008 104.277 59.981 103.611 60.5237C101.472 62.2446 98.6198 64.8259 96.2944 63.0219C96.6004 62.4906 96.9629 61.9941 97.3756 61.5409Z" fill="#D0AB8C"/>
<path d="M97.7402 61.6787C99.0802 61.5018 101.22 59.831 102.611 58.6539C110.989 53.2588 104.839 43.2343 97.0723 50.621C92.7656 54.2526 92.984 62.6821 97.7402 61.6787Z" fill="#F2DBC4"/>
<path d="M15.2917 119.646L10.0945 138.895H45.7026C48.1271 134.663 50.8679 130.307 53.0878 125.854C53.9592 124.067 54.8539 122.248 55.5197 120.341C56.9247 114.79 60.3281 102.5 60.3281 96.6051C59.6645 81.3241 46.2672 79.0125 47.3122 57.5645C54.1115 48.9868 48.7865 34.6953 43.6649 42.8827C42.7012 44.5993 41.7901 46.3088 40.9315 48.0112C33.638 62.4851 30.1036 76.6103 29.7137 92.1718C29.6025 96.7279 28.3148 101.178 25.9758 105.088C22.6619 108.231 20.3419 116.41 15.2917 119.646Z" fill="#F2DBC4"/>
<path d="M-17.0005 168.02H58.8613C58.8091 160.848 58.2349 149.126 57.6693 139.119C57.643 138.642 57.616 138.168 57.5883 137.697C57.0408 128.148 56.5231 120.502 56.5231 120.502C45.4714 118.669 33.8105 113.691 26.0344 105.155L25.9726 105.088L25.9225 105.099C25.9225 105.099 21.1152 110.51 14.3255 119.279C12.9876 121.012 -8.95488 151.805 -17.0005 168.02Z" fill="#6738E3"/>
<path d="M14.3286 119.277C29.5612 137.124 57.5882 137.694 57.5882 137.694C63.8624 126.593 56.523 120.5 56.523 120.5C45.4713 118.669 33.8104 113.691 26.0343 105.155L25.9278 105.098C13.6628 106.796 14.3169 119.135 14.3286 119.277Z" fill="#7A50E8"/>
<path d="M130.37 95.6559C130.37 98.6882 134.327 121.835 151.617 112.909C145.836 93.0138 131.526 83.6012 130.37 95.6559Z" fill="#F2DBC4"/>
<path d="M124.008 167.755C124.008 167.755 121.118 159.144 117.998 152.872C113.92 144.677 100.068 125.559 101.762 108.605L141.309 98.9985C141.309 98.9985 146.931 99.3909 152.301 114.793C161.329 140.682 161.934 155.018 170.995 167.758L124.008 167.755Z" fill="#F2DBC4"/>
<path d="M78.1394 118.582C78.6177 120.25 80.42 122.439 83.6785 125.022C95.1829 134.136 100.584 141.809 118.527 153.21C130.625 160.896 141.268 141.918 128.302 135.878C119.18 131.789 111.67 124.29 102.806 122.955C99.8972 122.498 97.0303 121.807 94.2327 120.888C90.1849 116.698 87.8553 115.64 84.9653 115.071C79.8257 114.062 77.3671 115.891 78.1394 118.582Z" fill="#F2DBC4"/>
<path d="M121.631 168H176.49C173.401 163.618 167.898 158.376 164.994 156.432C153.234 162.296 136.822 164.988 123.084 165.118C123.081 165.118 122.232 166.149 121.631 168Z" fill="#1D3F70"/>
<path d="M130.37 95.6561L134.233 103.416C137.235 96.8055 131.676 91.6802 131.676 91.6802C130.953 92.5534 130.386 93.8734 130.37 95.6561Z" fill="#D0AB8C"/>
<path d="M122.592 105.999C125.079 110.741 134.002 110.135 134.233 103.416C133.872 89.4815 123.681 88.6498 120.223 92.8816C118.558 94.9192 122.141 105.142 122.592 105.999Z" fill="#F2DBC4"/>
<path d="M121.75 101.728C121.875 102.09 121.947 102.468 121.963 102.851C121.963 102.851 121.963 102.882 121.963 102.899C121.962 102.903 121.962 102.907 121.963 102.911C121.902 104.112 123.196 105.269 123.646 106.126C126.189 96.9996 120.224 92.8818 120.224 92.8818C118.558 94.9194 121.705 101.618 121.75 101.728Z" fill="#D0AB8C"/>
<path d="M109.086 103.525C109.513 105.361 110.214 107.122 111.165 108.749C111.824 109.878 112.62 110.92 113.537 111.851C113.936 112.265 114.372 112.641 114.841 112.975C122.225 119.463 128.644 110.203 121.103 96.8397C117.396 90.2719 111.234 92.2945 109.052 96.715C108.523 97.7731 108.251 98.941 108.257 100.124C108.263 101.307 108.547 102.472 109.086 103.525Z" fill="#F2DBC4"/>
<path d="M109.086 103.525C109.593 105.657 113.537 111.853 113.537 111.853C113.963 102.216 109.056 96.7129 109.052 96.7129C108.523 97.7713 108.251 98.9395 108.256 100.123C108.262 101.306 108.547 102.472 109.086 103.525Z" fill="#D0AB8C"/>
<path d="M84.8651 85.1752C94.9485 98.8142 98.7524 111.211 103.228 124.185C106.197 130.323 106.043 138.33 115.319 138.507C137.636 135.544 103.737 92.3135 90.8645 78.217C80.7097 68.2831 77.3894 77.1146 84.8651 85.1752Z" fill="#F2DBC4"/>
<path d="M94.2327 120.889C101.663 124.408 106.108 130.46 106.108 130.46C103.743 125.853 102.806 122.955 102.806 122.955C99.8973 122.498 97.0304 121.807 94.2327 120.889Z" fill="#D0AB8C"/>
</g>
<defs>
<linearGradient id="paint0_linear_1336_16441" x1="43.5333" y1="-5.53333" x2="151.8" y2="251.533" gradientUnits="userSpaceOnUse">
<stop offset="0.219581" stop-color="#DDF5FB"/>
<stop offset="1" stop-color="#DA0095"/>
</linearGradient>
<linearGradient id="paint1_linear_1336_16441" x1="40.5667" y1="-11.5667" x2="155.6" y2="261.567" gradientUnits="userSpaceOnUse">
<stop offset="0.219581" stop-color="#DDF5FB"/>
<stop offset="1" stop-color="#DA0095"/>
</linearGradient>
<linearGradient id="paint2_linear_1336_16441" x1="46.5" y1="0.500002" x2="148" y2="241.5" gradientUnits="userSpaceOnUse">
<stop offset="0.219581" stop-color="#DDF5FB"/>
<stop offset="1" stop-color="#DA0095"/>
</linearGradient>
<linearGradient id="paint3_linear_1336_16441" x1="46.5" y1="0.500002" x2="148" y2="241.5" gradientUnits="userSpaceOnUse">
<stop offset="0.219581" stop-color="#DDF5FB"/>
<stop offset="1" stop-color="#DA0095"/>
</linearGradient>
</defs>
</svg>
