<svg width="182" height="187" viewBox="0 0 182 187" fill="none" xmlns="http://www.w3.org/2000/svg">
<circle opacity="0.2" cx="91" cy="96" r="80.5" stroke="url(#paint0_linear_1336_16506)"/>
<circle opacity="0.2" cx="91" cy="96" r="85.5" stroke="url(#paint1_linear_1336_16506)"/>
<circle cx="91" cy="96" r="75.5" fill="url(#paint2_linear_1336_16506)" fill-opacity="0.2" stroke="url(#paint3_linear_1336_16506)"/>
<mask id="mask0_1336_16506" style="mask-type:alpha" maskUnits="userSpaceOnUse" x="15" y="9" width="152" height="162">
<path d="M166 96C166 137.421 132.421 171 90.9996 171C49.5783 171 15.9996 137.421 15.9996 96C15.9996 54.5786 11.5 9 78.4996 9C173 9 166 54.5786 166 96Z" fill="#D9D9D9"/>
</mask>
<g mask="url(#mask0_1336_16506)">
<path d="M52.8875 95.7289L85.8156 100.332C85.8156 100.332 80.068 109.311 65.679 114.641C62.114 115.962 55.7065 122.147 53.7991 128.296L42.2008 130.637C42.2008 130.637 51.3914 109.016 52.8875 95.7289Z" fill="#F2DBC4"/>
<path d="M62.4116 97.9261C62.4116 97.9261 62.1923 101.082 60.7191 105.391C60.7191 105.391 64.3928 101.986 85.8175 100.333L62.4116 97.9261Z" fill="#D0AB8C"/>
<rect x="53.1121" y="16.9336" width="48" height="100" rx="7.57143" transform="rotate(-1.7555 53.1121 16.9336)" fill="white" stroke="black" stroke-width="1.5"/>
<rect x="63.5781" y="47.6948" width="29.6839" height="5.93678" rx="2.96839" transform="rotate(-2 63.5781 47.6948)" fill="#9D7B44"/>
<rect x="62.7954" y="39.979" width="29.6839" height="5.93678" rx="2.96839" transform="rotate(-2 62.7954 39.979)" fill="#69C583"/>
<rect x="61.5183" y="42.9956" width="32.6523" height="5.93678" rx="2.96839" transform="rotate(-2 61.5183 42.9956)" fill="#AE524A"/>
<path d="M60.8958 55.0276C60.8386 53.3892 62.1204 52.0147 63.7588 51.9574L93.4246 50.9215C95.063 50.8643 96.4376 52.1461 96.4948 53.7845C96.552 55.4229 95.2702 56.7974 93.6318 56.8546L63.966 57.8906C62.3276 57.9478 60.953 56.666 60.8958 55.0276Z" fill="#E9AD56"/>
<circle r="0.742097" transform="matrix(-0.999391 0.0348995 0.0348995 0.999391 90.4874 54.5532)" fill="#D27E05"/>
<circle r="0.742097" transform="matrix(-0.999391 0.0348995 0.0348995 0.999391 78.6695 54.5532)" fill="#D27E05"/>
<circle r="0.742097" transform="matrix(-0.999391 0.0348995 0.0348995 0.999391 66.7384 56.0376)" fill="#D27E05"/>
<path d="M95.8609 39.4773C95.8687 39.7007 95.6939 39.8882 95.4705 39.896L60.6806 41.1109C60.4571 41.1187 60.2697 40.9439 60.2619 40.7204C60.1371 37.1458 62.9337 34.1467 66.5084 34.0219L89.1623 33.2308C92.737 33.106 95.736 35.9026 95.8609 39.4773Z" fill="#E9AD56"/>
<circle cx="67.5361" cy="36.4159" r="0.742097" transform="rotate(-2 67.5361 36.4159)" fill="#D27E05"/>
<circle cx="74.2634" cy="37.6669" r="0.742097" transform="rotate(-2 74.2634 37.6669)" fill="#D27E05"/>
<circle cx="81.6284" cy="35.9242" r="0.742097" transform="rotate(-2 81.6284 35.9242)" fill="#D27E05"/>
<circle cx="89.8386" cy="37.122" r="0.742097" transform="rotate(-2 89.8386 37.122)" fill="#D27E05"/>
<path d="M64.3313 16.8755L88.32 16.1403C88.3708 17.7963 87.0694 19.18 85.4133 19.2308L67.4218 19.7822C65.7657 19.8329 64.3821 18.5316 64.3313 16.8755Z" fill="black"/>
<path d="M98.9342 65.9335C94.8671 63.9279 98.0531 55.6972 103.047 53.8717L104 83.4995C103.689 83.6117 99.1899 85.3287 98.8628 85.3738C94.3795 85.5831 95.5882 79.0644 99.0128 76.1224C94.8273 76.2191 95.4815 69.1199 98.9342 65.9335Z" fill="#D0AB8C"/>
<path d="M100.688 85.5606C101.76 85.5025 103.57 84.3854 104.781 83.5621C107.393 81.8366 110.107 79.5113 108.463 76.4722C107.956 75.5583 107.352 75.0097 106.483 74.6979C104.279 73.8866 100.934 75.8016 99.3693 77.8777C97.0136 81.0666 97.2076 86.0146 100.688 85.5606Z" fill="#F2DBC4"/>
<path d="M100.14 76.986C102.074 75.2014 104.959 73.7335 107.053 74.959C104.773 76.4438 101.89 78.9305 99.3689 77.8788C99.6011 77.5607 99.8589 77.2621 100.14 76.986Z" fill="#D0AB8C"/>
<path d="M54.8499 41.8169L50.319 85.7451L61.9724 115.676C61.9724 115.676 68.1766 102.02 62.0482 86.9517C55.9197 71.8837 53.4483 75.3867 54.9085 59.1497C54.9085 59.1497 57.2455 56.1667 58.3667 53.5135C60.8802 47.5622 57.2511 42.0027 54.8499 41.8169Z" fill="#D0AB8C"/>
<path d="M101.172 76.5231C102.703 76.3249 105.147 74.516 106.79 73.4501C110.347 71.3243 112.738 67.1208 109.108 64.1458C106.469 62.2806 103.266 64.0353 100.897 66.018C97.3516 68.8762 96.3843 77.1337 101.172 76.5231Z" fill="#F2DBC4"/>
<path d="M100.899 66.0184C103.267 64.0357 106.471 62.2811 109.109 64.1462C108.463 64.6844 107.787 65.1857 107.085 65.6477C104.825 67.1114 101.781 69.3491 99.697 67.3519C100.048 66.8651 100.451 66.4179 100.899 66.0184Z" fill="#D0AB8C"/>
<path d="M102.215 66.2889C103.54 66.251 105.795 64.8358 107.27 63.826C115.983 59.4022 110.994 49.0036 102.672 55.4312C98.1081 58.5441 97.4733 66.7901 102.215 66.2889Z" fill="#F2DBC4"/>
<path d="M17.3688 121.845L6.53766 133.881L43.8905 137.721C47.5776 132.573 55.581 127.706 58.8284 121.387C60.7273 116.299 67.3399 111.351 62.9376 95.7946C58.5354 80.2387 49.9061 79.7924 53.0807 58.9648C60.5226 51.3578 57.4615 36.3447 51.5649 43.8351C41.0001 58.8161 35.1739 73.5989 33.0026 90.5286C32.432 94.9631 24.726 105.749 22.0486 109.329C18.0573 112.374 25.0568 117.775 17.3688 121.845Z" fill="#F2DBC4"/>
<path d="M44.4429 168.736C42.0681 173.666 37.6648 181.88 35.8569 184.959L-21.8472 158.744C-15.0023 146.009 7.02039 106.319 22.0451 109.327C47.474 135.792 62.0017 118.214 53.7617 146.242C51.4202 153.768 47.901 161.651 44.4429 168.736Z" fill="#6738E3"/>
<path d="M55.4885 139.326C25.7305 135.14 11.1886 113.036 11.1886 113.036C18.8809 107.232 22.4533 109.233 22.0476 109.322C37.3729 125.102 53.8022 128.291 53.8022 128.291C56.0753 130.265 56.3778 134.29 55.4885 139.326Z" fill="#7A50E8"/>
<path d="M50.9079 154.261C44.1826 153.062 37.617 151.096 31.3397 148.401C30.8377 148.185 30.3365 147.964 29.8397 147.738C22.7788 144.534 16.1913 140.375 10.2618 135.378C6.42249 132.152 2.88857 128.578 -0.295146 124.702C1.71896 122.194 3.59492 120.076 5.33376 118.288C8.48306 122.286 12.0425 125.943 15.9539 129.198C26.7314 138.197 39.4207 143.913 53.7605 146.244C52.9614 148.833 51.9871 151.536 50.9079 154.261Z" fill="#7A50E8"/>
<path d="M44.4438 168.735C36.8603 167.534 29.622 165.46 22.8332 162.528C22.3309 162.312 21.831 162.09 21.3337 161.864C14.2726 158.66 7.68503 154.502 1.75534 149.505C-2.42573 145.992 -6.24149 142.065 -9.63391 137.785C-7.89916 135.1 -6.237 132.661 -4.64683 130.447C-2.42419 133.532 1.54 138.39 7.45197 143.322C18.9536 152.929 32.6248 158.787 48.1594 160.792C46.9418 163.533 45.6784 166.215 44.4438 168.735Z" fill="#7A50E8"/>
<path d="M125.228 131.902C123.803 134.579 116.416 156.869 135.872 157.118C140.121 136.84 131.915 121.806 125.228 131.902Z" fill="#F2DBC4"/>
<path d="M85.724 192.55C85.724 192.55 87.2205 183.591 87.4144 176.589C87.6671 167.439 84.4267 144.054 93.8904 129.885L133.312 139.994C133.312 139.994 138.09 142.983 135.59 159.102C131.39 186.196 125.186 199.134 127.195 214.638L85.724 192.55Z" fill="#F2DBC4"/>
<path d="M68.3508 127.588C67.9887 129.286 68.5507 132.065 70.213 135.876C76.0835 149.328 77.2436 158.639 87.7227 177.136C94.7885 189.606 113.102 177.858 104.497 166.432C98.3677 158.536 95.2638 148.387 88.0668 143.042C85.7146 141.271 83.5091 139.314 81.4716 137.188C79.8683 131.587 78.3092 129.558 76.026 127.697C71.9636 124.391 68.9341 124.85 68.3508 127.588Z" fill="#F2DBC4"/>
<path d="M125.228 131.903L124.99 140.568C130.747 136.144 128.25 129.007 128.25 129.007C127.201 129.438 126.08 130.337 125.228 131.903Z" fill="#D0AB8C"/>
<path d="M113.501 137.376C113.468 142.73 121.628 146.39 124.99 140.567C131.221 128.098 122.617 122.574 117.576 124.684C115.149 125.7 113.506 136.408 113.501 137.376Z" fill="#F2DBC4"/>
<path d="M114.765 133.21C114.706 133.589 114.591 133.956 114.425 134.301C114.425 134.301 114.411 134.329 114.403 134.344C114.4 134.347 114.398 134.35 114.397 134.354C113.779 135.386 114.378 137.016 114.371 137.984C120.907 131.123 117.577 124.685 117.577 124.685C115.149 125.7 114.777 133.092 114.765 133.21Z" fill="#D0AB8C"/>
<path d="M102.743 128.844C102.258 130.665 102.049 132.549 102.123 134.433C102.173 135.738 102.387 137.032 102.758 138.285C102.916 138.838 103.124 139.375 103.381 139.889C106.849 149.087 116.867 143.93 116.492 128.591C116.307 121.052 109.918 119.941 105.914 122.817C104.95 123.502 104.161 124.405 103.61 125.452C103.059 126.499 102.762 127.661 102.743 128.844Z" fill="#F2DBC4"/>
<path d="M102.743 128.844C102.189 130.964 102.757 138.286 102.757 138.286C107.663 129.98 105.919 122.817 105.915 122.815C104.951 123.501 104.161 124.404 103.61 125.451C103.059 126.498 102.762 127.661 102.743 128.844Z" fill="#D0AB8C"/>
<path d="M89.9895 101.263C92.4788 118.041 90.0094 130.771 87.8622 144.326C87.5975 151.14 83.6975 158.135 91.8017 162.651C112.893 170.525 103.291 116.434 98.5553 97.9414C94.2615 84.4002 87.1798 90.6347 89.9895 101.263Z" fill="#F2DBC4"/>
<path d="M81.4712 137.189C86.3754 143.787 87.4544 151.218 87.4544 151.218C87.5321 146.041 88.0668 143.042 88.0668 143.042C85.715 141.271 83.5094 139.314 81.4712 137.189Z" fill="#D0AB8C"/>
<circle opacity="0.1" cx="79" cy="85" r="14" fill="#32D74B"/>
<circle cx="79" cy="85" r="10" fill="#32D74B"/>
<path d="M74.5 85L77.5 88L84 82" stroke="white" stroke-width="2"/>
</g>
<g filter="url(#filter0_d_1336_16506)">
<path d="M88 12.5C88 8.35786 91.3579 5 95.5 5H121.5C125.642 5 129 8.35786 129 12.5C129 16.6421 125.642 20 121.5 20H95.5C91.3579 20 88 16.6421 88 12.5Z" fill="white"/>
</g>
<g filter="url(#filter1_d_1336_16506)">
<path d="M96 25L108 20H96V25Z" fill="white"/>
</g>
<circle opacity="0.3" cx="99.5" cy="12.5" r="2.5" fill="#6738E3"/>
<circle opacity="0.3" cx="107.5" cy="12.5" r="2.5" fill="#6738E3"/>
<circle opacity="0.3" cx="115.5" cy="12.5" r="2.5" fill="#6738E3"/>
<defs>
<filter id="filter0_d_1336_16506" x="80" y="0" width="57" height="31" filterUnits="userSpaceOnUse" color-interpolation-filters="sRGB">
<feFlood flood-opacity="0" result="BackgroundImageFix"/>
<feColorMatrix in="SourceAlpha" type="matrix" values="0 0 0 0 0 0 0 0 0 0 0 0 0 0 0 0 0 0 127 0" result="hardAlpha"/>
<feOffset dy="3"/>
<feGaussianBlur stdDeviation="4"/>
<feComposite in2="hardAlpha" operator="out"/>
<feColorMatrix type="matrix" values="0 0 0 0 0 0 0 0 0 0 0 0 0 0 0 0 0 0 0.15 0"/>
<feBlend mode="normal" in2="BackgroundImageFix" result="effect1_dropShadow_1336_16506"/>
<feBlend mode="normal" in="SourceGraphic" in2="effect1_dropShadow_1336_16506" result="shape"/>
</filter>
<filter id="filter1_d_1336_16506" x="88" y="15" width="28" height="21" filterUnits="userSpaceOnUse" color-interpolation-filters="sRGB">
<feFlood flood-opacity="0" result="BackgroundImageFix"/>
<feColorMatrix in="SourceAlpha" type="matrix" values="0 0 0 0 0 0 0 0 0 0 0 0 0 0 0 0 0 0 127 0" result="hardAlpha"/>
<feOffset dy="3"/>
<feGaussianBlur stdDeviation="4"/>
<feComposite in2="hardAlpha" operator="out"/>
<feColorMatrix type="matrix" values="0 0 0 0 0 0 0 0 0 0 0 0 0 0 0 0 0 0 0.15 0"/>
<feBlend mode="normal" in2="BackgroundImageFix" result="effect1_dropShadow_1336_16506"/>
<feBlend mode="normal" in="SourceGraphic" in2="effect1_dropShadow_1336_16506" result="shape"/>
</filter>
<linearGradient id="paint0_linear_1336_16506" x1="43.5333" y1="-0.533331" x2="151.8" y2="256.533" gradientUnits="userSpaceOnUse">
<stop offset="0.219581" stop-color="#DDF5FB"/>
<stop offset="1" stop-color="#DA0095"/>
</linearGradient>
<linearGradient id="paint1_linear_1336_16506" x1="40.5667" y1="-6.56666" x2="155.6" y2="266.567" gradientUnits="userSpaceOnUse">
<stop offset="0.219581" stop-color="#DDF5FB"/>
<stop offset="1" stop-color="#DA0095"/>
</linearGradient>
<linearGradient id="paint2_linear_1336_16506" x1="46.5" y1="5.5" x2="148" y2="246.5" gradientUnits="userSpaceOnUse">
<stop offset="0.219581" stop-color="#DDF5FB"/>
<stop offset="1" stop-color="#DA0095"/>
</linearGradient>
<linearGradient id="paint3_linear_1336_16506" x1="46.5" y1="5.5" x2="148" y2="246.5" gradientUnits="userSpaceOnUse">
<stop offset="0.219581" stop-color="#DDF5FB"/>
<stop offset="1" stop-color="#DA0095"/>
</linearGradient>
</defs>
</svg>
