<svg width="300" height="301" viewBox="0 0 300 301" fill="none" xmlns="http://www.w3.org/2000/svg">
<rect opacity="0.1" y="0.5" width="300" height="300" fill="#A0A0A0"/>
<path opacity="0.7" d="M99.6429 52.0625L94.4946 120.861C94.0605 126.663 97.7447 131.977 103.33 133.606L109.955 135.538L105.854 230.543C105.655 235.155 107.746 239.566 111.441 242.332L111.788 242.591C116.76 246.313 123.636 246.137 128.412 242.166V242.166C131.635 239.486 133.421 235.454 133.24 231.266L129.107 135.538L135.641 133.632C141.268 131.992 144.959 126.614 144.467 120.774L138.683 52.0625M126.897 52.0625V99.3125M112.902 52.0625V99.3125" stroke="#828282" stroke-width="7.5" stroke-linecap="round" stroke-linejoin="round"/>
<path opacity="0.7" d="M199.582 231.931L193.278 162.036L197.816 151.274C203.35 138.15 205.504 123.848 204.08 109.677L203.049 99.4162C201.207 81.0836 191.411 64.4834 176.253 54.0084C175.063 53.1855 173.438 54.0378 173.438 55.4853V231.252C173.438 235.605 175.498 239.701 178.992 242.296L179.897 242.968C184.584 246.449 191.067 246.176 195.446 242.315C198.4 239.71 199.936 235.853 199.582 231.931Z" stroke="#828282" stroke-width="7.5" stroke-linecap="round" stroke-linejoin="round"/>
</svg>
