<svg width="17" height="16" viewBox="0 0 17 16" fill="none" xmlns="http://www.w3.org/2000/svg">
<path fill-rule="evenodd" clip-rule="evenodd" d="M3.96732 0.933171C4.09322 0.7653 4.29081 0.666504 4.50065 0.666504H12.5007C12.7105 0.666504 12.9081 0.7653 13.034 0.933171L15.034 3.59984C15.1205 3.71523 15.1673 3.85559 15.1673 3.99984V13.3332C15.1673 13.8636 14.9566 14.3723 14.5815 14.7474C14.2065 15.1225 13.6978 15.3332 13.1673 15.3332H3.83398C3.30355 15.3332 2.79484 15.1225 2.41977 14.7474C2.0447 14.3723 1.83398 13.8636 1.83398 13.3332V3.99984C1.83398 3.85559 1.88077 3.71523 1.96732 3.59984L3.96732 0.933171ZM4.83398 1.99984L3.16732 4.22206V13.3332C3.16732 13.51 3.23756 13.6796 3.36258 13.8046C3.4876 13.9296 3.65717 13.9998 3.83398 13.9998H13.1673C13.3441 13.9998 13.5137 13.9296 13.6387 13.8046C13.7637 13.6796 13.834 13.51 13.834 13.3332V4.22206L12.1673 1.99984H4.83398Z" fill="black" fill-opacity="0.6"/>
<path fill-rule="evenodd" clip-rule="evenodd" d="M1.83398 3.99984C1.83398 3.63165 2.13246 3.33317 2.50065 3.33317H14.5007C14.8688 3.33317 15.1673 3.63165 15.1673 3.99984C15.1673 4.36803 14.8688 4.6665 14.5007 4.6665H2.50065C2.13246 4.6665 1.83398 4.36803 1.83398 3.99984Z" fill="black" fill-opacity="0.6"/>
<path fill-rule="evenodd" clip-rule="evenodd" d="M5.83398 5.99984C6.20217 5.99984 6.50065 6.29831 6.50065 6.6665C6.50065 7.19694 6.71136 7.70565 7.08644 8.08072C7.46151 8.45579 7.97022 8.6665 8.50065 8.6665C9.03108 8.6665 9.53979 8.45579 9.91486 8.08072C10.2899 7.70565 10.5007 7.19694 10.5007 6.6665C10.5007 6.29831 10.7991 5.99984 11.1673 5.99984C11.5355 5.99984 11.834 6.29831 11.834 6.6665C11.834 7.55056 11.4828 8.39841 10.8577 9.02353C10.2326 9.64865 9.38471 9.99984 8.50065 9.99984C7.6166 9.99984 6.76875 9.64865 6.14363 9.02353C5.51851 8.39841 5.16732 7.55056 5.16732 6.6665C5.16732 6.29831 5.46579 5.99984 5.83398 5.99984Z" fill="black" fill-opacity="0.6"/>
</svg>
