<svg width="100" height="100" viewBox="0 0 100 100" fill="none" xmlns="http://www.w3.org/2000/svg">
<path opacity="0.7" d="M22.9991 29.7431L33.5196 41.9655C34.5876 43.2062 36.378 43.5305 37.8133 42.7433L38.9 42.1472L42.147 45.6066M29.618 23.1241L41.9279 33.5224C43.1878 34.5866 43.5233 36.3911 42.7302 37.837L42.1471 38.9002L45.7687 41.985M27.6199 25.1223L35.6307 33.1332M25.247 27.4952L33.2579 35.506M57.0194 52.1375L72.6638 67.3035C73.3725 67.9905 73.7319 68.9614 73.6415 69.9441V69.9441C73.5033 71.447 72.352 72.6587 70.8582 72.8737L70.7724 72.8861C69.6856 73.0425 68.5907 72.6599 67.8379 71.8607L53.023 56.1339" stroke="#828282" stroke-width="2.11039" stroke-linecap="round" stroke-linejoin="round"/>
<path opacity="0.7" d="M75.7574 27.7446L31.5335 72.1267C31.1172 72.5445 30.5951 72.841 30.0231 72.9845C27.7101 73.5648 25.5812 71.538 26.0472 69.1993L26.0677 69.0969C26.1953 68.4564 26.5093 67.8679 26.9703 67.4053L39.4316 54.8994C40.0665 54.2622 40.8884 53.8445 41.7774 53.7073L42.2111 53.6403C43.1001 53.5031 43.922 53.0854 44.5569 52.4482L46.6415 50.3561C47.2409 49.7546 47.2409 48.7816 46.6415 48.1801C46.0318 47.5682 46.0439 46.5747 46.6684 45.9778L61.6004 31.706C64.4545 28.9781 68.1743 27.3367 72.1131 27.0672L75.3477 26.8459C75.8337 26.8126 76.1013 27.3995 75.7574 27.7446Z" stroke="#828282" stroke-width="2.11039" stroke-linecap="round"/>
</svg>
