<svg width="21" height="20" viewBox="0 0 21 20" fill="none" xmlns="http://www.w3.org/2000/svg">
<path fill-rule="evenodd" clip-rule="evenodd" d="M7.625 0C11.7606 0 15.125 3.36442 15.125 7.5C15.125 11.6356 11.7606 15 7.625 15C6.27719 15 4.9649 14.6412 3.81281 13.96L0.152574 14.9723L1.165 11.3122C0.483756 10.1601 0.125 8.84781 0.125 7.5C0.125 3.36442 3.48942 0 7.625 0ZM5.32321 5.75448H6.4741C6.4741 5.11983 6.99036 4.60358 7.625 4.60358C8.25964 4.60358 8.7759 5.11983 8.7759 5.75448C8.7759 6.08131 8.64282 6.38297 8.40125 6.60401L7.04955 7.84122V9.24552H8.20045V8.34804L9.17826 7.45309C9.65405 7.01791 9.92679 6.39871 9.92679 5.75448C9.92679 4.48519 8.89428 3.45269 7.625 3.45269C6.35572 3.45269 5.32321 4.48519 5.32321 5.75448ZM8.20045 11.5473V10.3964H7.04955V11.5473H8.20045Z" fill="black"/>
<path d="M16.6383 8C18.729 9.05638 20.125 11.2281 20.125 13.6614C20.125 14.8023 19.8211 15.9118 19.2438 16.8867L20.0973 19.9723L17.0117 19.1188C16.0368 19.6961 14.9273 20 13.7864 20C11.3531 20 9.18138 18.604 8.125 16.5133C12.7907 16.4483 16.5733 12.6657 16.6383 8Z" fill="black"/>
</svg>
