<?xml version="1.0" encoding="UTF-8" standalone="no"?>
<svg
   width="100"
   height="100"
   viewBox="0 0 100 100"
   fill="none"
   version="1.1"
   id="svg2"
   sodipodi:docname="Frame 27695.svg"
   inkscape:version="1.3 (0e150ed, 2023-07-21)"
   xmlns:inkscape="http://www.inkscape.org/namespaces/inkscape"
   xmlns:sodipodi="http://sodipodi.sourceforge.net/DTD/sodipodi-0.dtd"
   xmlns="http://www.w3.org/2000/svg"
   xmlns:svg="http://www.w3.org/2000/svg">
  <defs
     id="defs2" />
  <sodipodi:namedview
     id="namedview2"
     pagecolor="#505050"
     bordercolor="#ffffff"
     borderopacity="1"
     inkscape:showpageshadow="0"
     inkscape:pageopacity="0"
     inkscape:pagecheckerboard="1"
     inkscape:deskcolor="#505050"
     inkscape:zoom="4.7584683"
     inkscape:cx="6.0943981"
     inkscape:cy="9.5619005"
     inkscape:window-width="1920"
     inkscape:window-height="1080"
     inkscape:window-x="0"
     inkscape:window-y="617"
     inkscape:window-maximized="0"
     inkscape:current-layer="svg2" />
  <path
     d="m 13.21681,64.835583 h 9.092822 l 7.646196,-7.260736 -6.75e-4,-19.780491 c 0,-3.892822 1.963313,-7.260123 4.856258,-9.364295 -2.273129,-1.893497 -3.719693,-4.734601 -3.719693,-7.996319 0,-5.681289 4.546442,-10.311043 10.125644,-10.311043 5.579202,0 10.125583,4.629754 10.125583,10.311043 0,3.261534 -1.446442,6.102577 -3.719632,7.996319 2.583435,1.788589 4.339877,4.734602 4.649693,7.996319 L 64.465644,24.852883 c 2.273006,-2.209938 5.269325,-3.3673 8.368712,-3.3673 h 13.949693 c 6.819632,0 12.295701,5.576503 12.295701,12.520981 0,6.944479 -5.476069,12.520982 -12.295701,12.520982 h -9.093251 l -42.156319,39.98227 c -2.273129,2.209816 -5.269387,3.367485 -8.369142,3.367485 H 13.216074 c -6.8196325,0 -12.2958288,-5.576688 -12.2958288,-12.520859 0,-6.839878 5.4769325,-12.520859 12.2965648,-12.520859 z m 33.7873,-44.401841 c 0,-3.261534 -2.583128,-5.891963 -5.786012,-5.891963 -3.202883,0 -5.786012,2.630429 -5.786012,5.891963 0,3.261534 2.583129,5.891964 5.786012,5.891964 3.202884,0 5.786012,-2.63043 5.786012,-5.891964 z m 1.032823,17.36043 c 0,-3.892822 -3.099939,-7.049509 -6.922761,-7.049509 -3.822884,0 -6.922822,3.156687 -6.922822,7.049509 V 53.471779 L 48.036748,40.424601 Z M 13.21638,85.457669 h 13.948528 c 2.066319,0 3.926503,-0.73681 5.373067,-2.21043 L 75.314724,42.633804 c 0.412883,-0.420552 0.929448,-0.631227 1.446626,-0.631227 h 9.919018 c 4.339877,0 7.956442,-3.682945 7.956442,-8.101902 0,-4.41908 -3.616565,-8.101841 -7.956442,-8.101841 h -13.94908 c -2.066257,0 -3.92638,0.736872 -5.373006,2.209939 L 24.581718,68.622699 c -0.412945,0.420246 -0.929755,0.630675 -1.446503,0.630675 h -9.919571 c -4.3396322,0 -7.9561963,3.683436 -7.9561963,8.102454 7.362e-4,4.523927 3.5136191,8.101841 7.9569323,8.101841 z"
     fill="#000000"
     id="path1"
     style="stroke-width:6.13497" />
  <path
     d="m 32.221166,82.91411 -1.84e-4,-6.13e-4 -0.01129,0.01166 c -1.355276,1.379755 -3.094969,2.072393 -5.044785,2.072393 H 13.21638 c -4.1813492,0 -7.4961348,-3.364417 -7.4968096,-7.641718 0,-4.173006 3.4184044,-7.642331 7.4960736,-7.642331 h 9.919571 c 0.642883,0 1.273987,-0.261963 1.768957,-0.762577 l 42.770675,-40.60847 6.13e-4,1.84e-4 0.01104,-0.01153 c 1.355215,-1.380061 3.095092,-2.072147 5.044785,-2.072147 h 13.94908 c 4.077914,0 7.496319,3.468834 7.496319,7.641718 0,4.172761 -3.418405,7.641779 -7.496319,7.641779 H 76.76135 c -0.642945,0 -1.274233,0.261902 -1.769325,0.762883 z M 22.125951,64.37546 H 13.21681 c -7.0840495,0 -12.7566875,5.897546 -12.7566875,12.980982 0,7.190797 5.6744172,12.980981 12.7559515,12.980981 h 13.949263 c 3.214172,0 6.326013,-1.200613 8.687976,-3.495705 6.13e-4,-6.14e-4 0.0013,-0.0012 0.0019,-0.0018 L 77.874847,46.987669 h 8.909202 c 7.081595,0 12.755831,-5.790368 12.755831,-12.981105 0,-7.190736 -5.674236,-12.981104 -12.755831,-12.981104 H 72.834356 c -3.214111,0 -6.325767,1.200307 -8.68773,3.495644 -6.14e-4,6.14e-4 -0.0012,0.0012 -0.0018,0.0018 L 52.607362,35.474172 c -0.5,-2.832516 -2.048466,-5.370736 -4.250491,-7.076749 2.12043,-1.968466 3.446196,-4.775705 3.446196,-7.963681 0,-5.927546 -4.744539,-10.7711652 -10.585705,-10.7711652 -5.841104,0 -10.585767,4.8436192 -10.585767,10.7711652 0,3.192086 1.329387,6.002393 3.454233,7.971043 -2.750122,2.196626 -4.590797,5.543927 -4.590797,9.389571 l 6.75e-4,19.582945 z M 41.218098,15.001902 c 2.94092,0 5.32589,2.416564 5.32589,5.43184 0,3.015338 -2.38497,5.431841 -5.32589,5.431841 -2.94092,0 -5.325889,-2.416503 -5.325889,-5.431841 0,-3.015276 2.384969,-5.43184 5.325889,-5.43184 z m -0.103926,16.202883 c 3.560859,0 6.462638,2.942761 6.462638,6.589387 L 47.576626,40.225951 34.651472,52.40589 V 37.794172 c 0,-3.646626 2.90178,-6.589387 6.4627,-6.589387 z"
     stroke="#000000"
     stroke-width="0.920245"
     id="path2" />
</svg>
