<svg width="24" height="24" viewBox="0 0 24 24" fill="none" xmlns="http://www.w3.org/2000/svg">
<path fill-rule="evenodd" clip-rule="evenodd" d="M15.1803 19.9889C14.9594 19.9889 14.7803 19.8098 14.7803 19.5889V16.7604C14.7803 16.5395 14.9594 16.3604 15.1803 16.3604C15.4012 16.3604 15.5803 16.5395 15.5803 16.7604L15 19.7692L18.0087 19.1889C18.2297 19.1889 18.4087 19.3679 18.4087 19.5889C18.4087 19.8098 18.2297 19.9889 18.0087 19.9889H15.1803Z" fill="black"/>
<path fill-rule="evenodd" clip-rule="evenodd" d="M14.8975 19.8717C14.7413 19.7155 14.7413 19.4622 14.8975 19.306L19.7058 14.4977C19.862 14.3415 20.1153 14.3415 20.2715 14.4977C20.4277 14.6539 20.4277 14.9072 20.2715 15.0634L15.4632 19.8717C15.307 20.0279 15.0537 20.0279 14.8975 19.8717Z" fill="black"/>
<path d="M4.50543 14.9762H6.35808L7.916 13.5197L7.91586 9.55136C7.91586 8.7704 8.31589 8.09486 8.90532 7.67274C8.44217 7.29287 8.14744 6.72291 8.14744 6.06856C8.14744 4.9288 9.07378 4 10.2105 4C11.3473 4 12.2736 4.9288 12.2736 6.06856C12.2736 6.72287 11.9789 7.29283 11.5158 7.67274C12.0421 8.03156 12.4 8.62257 12.4631 9.27692L14.9473 6.9551C15.4105 6.51175 16.021 6.27957 16.6526 6.27957H19.4947C20.8842 6.27957 22 7.3983 22 8.79147C22 10.1846 20.8842 11.3034 19.4947 11.3034H17.6421L9.05265 19.3245C8.5895 19.7678 7.97902 20 7.34744 20H4.50528C3.11578 20 2 18.8813 2 17.4881C2 16.116 3.11593 14.9762 4.50543 14.9762ZM11.3896 6.06856C11.3896 5.41424 10.8633 4.88654 10.2107 4.88654C9.5581 4.88654 9.03179 5.41424 9.03179 6.06856C9.03179 6.72287 9.5581 7.25058 10.2107 7.25058C10.8633 7.25058 11.3896 6.72287 11.3896 6.06856ZM11.6 9.55132C11.6 8.77036 10.9684 8.13708 10.1895 8.13708C9.41061 8.13708 8.77899 8.77036 8.77899 9.55132V12.6965L11.6 10.079L11.6 9.55132ZM4.50534 19.1133H7.34735C7.76836 19.1133 8.14738 18.9655 8.44212 18.67L17.1578 10.5222C17.242 10.4379 17.3473 10.3956 17.4526 10.3956H19.4737C20.3579 10.3956 21.0948 9.65674 21.0948 8.77023C21.0948 7.88369 20.3578 7.14487 19.4737 7.14487H16.6315C16.2105 7.14487 15.8315 7.2927 15.5368 7.58822L6.82103 15.736C6.73689 15.8203 6.63159 15.8626 6.5263 15.8626H4.50519C3.62099 15.8626 2.88411 16.6014 2.88411 17.4879C2.88426 18.3955 3.60001 19.1133 4.50534 19.1133Z" fill="black"/>
<path d="M15.7053 16.7724L15.7031 16.7841L15.3352 18.6916L19.6174 14.4093C19.8224 14.2043 20.1549 14.2043 20.3599 14.4093C20.5649 14.6143 20.5649 14.9467 20.3599 15.1518L16.0776 19.434L17.9851 19.0661L17.9968 19.0639H18.0087C18.2987 19.0639 18.5337 19.2989 18.5337 19.5889C18.5337 19.8788 18.2987 20.1138 18.0087 20.1138H15.1808H15.1803C15.1793 20.1138 15.1782 20.1138 15.1772 20.1138C15.1071 20.1134 15.0403 20.0993 14.9794 20.074C14.9174 20.0484 14.8594 20.0104 14.8091 19.9601C14.7588 19.9097 14.7208 19.8517 14.6952 19.7898C14.6707 19.7307 14.6566 19.6662 14.6554 19.5985C14.6553 19.5953 14.6553 19.5921 14.6553 19.5889V19.588M15.7053 16.7724L15.5803 16.7604C15.5803 16.5395 15.4012 16.3604 15.1803 16.3604C14.9594 16.3604 14.7803 16.5395 14.7803 16.7604V19.2488C14.6972 19.3463 14.6555 19.4671 14.6553 19.588M15.7053 16.7724V16.7604C15.7053 16.4705 15.4703 16.2354 15.1803 16.2354C14.8904 16.2354 14.6553 16.4705 14.6553 16.7604V19.588M15.7053 16.7724L14.6553 19.588M8.35675 18.5786L8.3567 18.5786L8.35361 18.5817C8.08382 18.8522 7.73733 18.9883 7.34735 18.9883H4.50534C3.66937 18.9883 3.00926 18.3268 3.00911 17.4879C3.00911 16.6702 3.69034 15.9876 4.50519 15.9876H6.5263C6.66519 15.9876 6.80133 15.9319 6.9079 15.8259L15.6221 7.67953L15.6222 7.67959L15.6253 7.67649C15.8951 7.40598 16.2415 7.26987 16.6315 7.26987H19.4737C20.2885 7.26987 20.9698 7.95242 20.9698 8.77023C20.9698 9.58801 20.2885 10.2706 19.4737 10.2706H17.4526C17.3137 10.2706 17.1775 10.3263 17.071 10.4323L8.35675 18.5786ZM6.30875 14.8512H4.50543C3.04591 14.8512 1.875 16.0479 1.875 17.4881C1.875 18.95 3.04643 20.125 4.50528 20.125H7.34744C8.00949 20.125 8.65113 19.8816 9.13854 19.4153C9.13872 19.4151 9.13891 19.4149 9.13909 19.4148L17.6914 11.4284H19.4947C20.9536 11.4284 22.125 10.2534 22.125 8.79147C22.125 7.32957 20.9536 6.15457 19.4947 6.15457H16.6526C15.9905 6.15457 15.3489 6.398 14.8615 6.86428C14.8613 6.86445 14.8611 6.86463 14.8609 6.8648L12.5512 9.0235C12.4401 8.4827 12.1384 7.99887 11.7147 7.6639C12.1361 7.26472 12.3986 6.7038 12.3986 6.06856C12.3986 4.86007 11.4166 3.875 10.2105 3.875C9.00444 3.875 8.02244 4.86007 8.02244 6.06856C8.02244 6.70482 8.28579 7.26651 8.70838 7.66578C8.15808 8.11202 7.79086 8.78226 7.79086 9.55136L7.791 13.4654L6.30875 14.8512ZM10.2107 5.01154C10.7939 5.01154 11.2646 5.48297 11.2646 6.06856C11.2646 6.65415 10.7939 7.12558 10.2107 7.12558C9.62744 7.12558 9.15679 6.65415 9.15679 6.06856C9.15679 5.48297 9.62744 5.01154 10.2107 5.01154ZM10.1895 8.26208C10.8991 8.26208 11.475 8.83909 11.475 9.55132L11.475 10.0245L8.90399 12.41V9.55132C8.90399 8.83909 9.47995 8.26208 10.1895 8.26208Z" stroke="black" stroke-width="0.25"/>
</svg>
