<svg width="24" height="24" viewBox="0 0 24 24" fill="none" xmlns="http://www.w3.org/2000/svg">
<mask id="path-1-outside-1_1_16372" maskUnits="userSpaceOnUse" x="1" y="3" width="22" height="18" fill="black">
<rect fill="white" x="1" y="3" width="22" height="18"/>
<path d="M4.50543 14.9762H6.35808L7.916 13.5197L7.91586 9.55136C7.91586 8.7704 8.31589 8.09486 8.90532 7.67274C8.44217 7.29287 8.14743 6.72291 8.14743 6.06856C8.14743 4.9288 9.07378 4 10.2105 4C11.3473 4 12.2736 4.9288 12.2736 6.06856C12.2736 6.72287 11.9789 7.29283 11.5158 7.67274C12.0421 8.03156 12.4 8.62257 12.4631 9.27692L14.9473 6.9551C15.4105 6.51175 16.021 6.27957 16.6526 6.27957H19.4947C20.8842 6.27957 22 7.3983 22 8.79147C22 10.1846 20.8842 11.3034 19.4947 11.3034H17.6421L9.05265 19.3245C8.5895 19.7678 7.97901 20 7.34744 20H4.50528C3.11578 20 2 18.8813 2 17.4881C2 16.116 3.11593 14.9762 4.50543 14.9762ZM11.3896 6.06856C11.3896 5.41424 10.8633 4.88654 10.2107 4.88654C9.5581 4.88654 9.03179 5.41424 9.03179 6.06856C9.03179 6.72287 9.5581 7.25058 10.2107 7.25058C10.8633 7.25058 11.3896 6.72287 11.3896 6.06856ZM11.6 9.55132C11.6 8.77036 10.9684 8.13708 10.1895 8.13708C9.41061 8.13708 8.77899 8.77036 8.77899 9.55132V12.6965L11.6 10.079L11.6 9.55132ZM4.50534 19.1133H7.34735C7.76836 19.1133 8.14738 18.9655 8.44212 18.67L17.1578 10.5222C17.242 10.4379 17.3473 10.3956 17.4526 10.3956H19.4737C20.3579 10.3956 21.0948 9.65674 21.0948 8.77023C21.0948 7.88369 20.3578 7.14487 19.4737 7.14487H16.6315C16.2105 7.14487 15.8315 7.2927 15.5368 7.58822L6.82103 15.736C6.73689 15.8203 6.63159 15.8626 6.5263 15.8626H4.50519C3.62099 15.8626 2.88411 16.6014 2.88411 17.4879C2.88426 18.3955 3.60001 19.1133 4.50534 19.1133Z"/>
<path fill-rule="evenodd" clip-rule="evenodd" d="M19.9884 14.3799C20.2093 14.3799 20.3884 14.559 20.3884 14.7799V17.6083C20.3884 17.8292 20.2093 18.0083 19.9884 18.0083C19.7675 18.0083 19.5884 17.8292 19.5884 17.6083V15.1799H17.16C16.9391 15.1799 16.76 15.0008 16.76 14.7799C16.76 14.559 16.9391 14.3799 17.16 14.3799H19.9884Z"/>
<path fill-rule="evenodd" clip-rule="evenodd" d="M20.2713 14.4971C20.4275 14.6533 20.4275 14.9065 20.2713 15.0627L15.4629 19.8711C15.3067 20.0273 15.0535 20.0273 14.8973 19.8711C14.7411 19.7149 14.7411 19.4616 14.8973 19.3054L19.7056 14.4971C19.8618 14.3408 20.1151 14.3408 20.2713 14.4971Z"/>
</mask>
<path d="M4.50543 14.9762H6.35808L7.916 13.5197L7.91586 9.55136C7.91586 8.7704 8.31589 8.09486 8.90532 7.67274C8.44217 7.29287 8.14743 6.72291 8.14743 6.06856C8.14743 4.9288 9.07378 4 10.2105 4C11.3473 4 12.2736 4.9288 12.2736 6.06856C12.2736 6.72287 11.9789 7.29283 11.5158 7.67274C12.0421 8.03156 12.4 8.62257 12.4631 9.27692L14.9473 6.9551C15.4105 6.51175 16.021 6.27957 16.6526 6.27957H19.4947C20.8842 6.27957 22 7.3983 22 8.79147C22 10.1846 20.8842 11.3034 19.4947 11.3034H17.6421L9.05265 19.3245C8.5895 19.7678 7.97901 20 7.34744 20H4.50528C3.11578 20 2 18.8813 2 17.4881C2 16.116 3.11593 14.9762 4.50543 14.9762ZM11.3896 6.06856C11.3896 5.41424 10.8633 4.88654 10.2107 4.88654C9.5581 4.88654 9.03179 5.41424 9.03179 6.06856C9.03179 6.72287 9.5581 7.25058 10.2107 7.25058C10.8633 7.25058 11.3896 6.72287 11.3896 6.06856ZM11.6 9.55132C11.6 8.77036 10.9684 8.13708 10.1895 8.13708C9.41061 8.13708 8.77899 8.77036 8.77899 9.55132V12.6965L11.6 10.079L11.6 9.55132ZM4.50534 19.1133H7.34735C7.76836 19.1133 8.14738 18.9655 8.44212 18.67L17.1578 10.5222C17.242 10.4379 17.3473 10.3956 17.4526 10.3956H19.4737C20.3579 10.3956 21.0948 9.65674 21.0948 8.77023C21.0948 7.88369 20.3578 7.14487 19.4737 7.14487H16.6315C16.2105 7.14487 15.8315 7.2927 15.5368 7.58822L6.82103 15.736C6.73689 15.8203 6.63159 15.8626 6.5263 15.8626H4.50519C3.62099 15.8626 2.88411 16.6014 2.88411 17.4879C2.88426 18.3955 3.60001 19.1133 4.50534 19.1133Z" fill="black"/>
<path fill-rule="evenodd" clip-rule="evenodd" d="M19.9884 14.3799C20.2093 14.3799 20.3884 14.559 20.3884 14.7799V17.6083C20.3884 17.8292 20.2093 18.0083 19.9884 18.0083C19.7675 18.0083 19.5884 17.8292 19.5884 17.6083V15.1799H17.16C16.9391 15.1799 16.76 15.0008 16.76 14.7799C16.76 14.559 16.9391 14.3799 17.16 14.3799H19.9884Z" fill="black"/>
<path fill-rule="evenodd" clip-rule="evenodd" d="M20.2713 14.4971C20.4275 14.6533 20.4275 14.9065 20.2713 15.0627L15.4629 19.8711C15.3067 20.0273 15.0535 20.0273 14.8973 19.8711C14.7411 19.7149 14.7411 19.4616 14.8973 19.3054L19.7056 14.4971C19.8618 14.3408 20.1151 14.3408 20.2713 14.4971Z" fill="black"/>
<path d="M6.35808 14.9762V15.2262H6.45674L6.52882 15.1588L6.35808 14.9762ZM7.916 13.5197L8.08674 13.7023L8.16601 13.6282L8.166 13.5197L7.916 13.5197ZM7.91586 9.55136H7.66586V9.55137L7.91586 9.55136ZM8.90532 7.67274L9.05089 7.87599L9.31593 7.68618L9.06386 7.47944L8.90532 7.67274ZM11.5158 7.67274L11.3572 7.47945L11.099 7.69121L11.3749 7.8793L11.5158 7.67274ZM12.4631 9.27692L12.2142 9.30092L12.263 9.80613L12.6338 9.45957L12.4631 9.27692ZM14.9473 6.9551L15.1181 7.13776L15.1202 7.1357L14.9473 6.9551ZM17.6421 11.3034V11.0534H17.5435L17.4714 11.1207L17.6421 11.3034ZM9.05265 19.3245L8.88201 19.1417L8.87978 19.1439L9.05265 19.3245ZM11.6 9.55132L11.85 9.55134V9.55132H11.6ZM8.77899 12.6965H8.52899V13.2695L8.94903 12.8797L8.77899 12.6965ZM11.6 10.079L11.77 10.2623L11.85 10.1881L11.85 10.079L11.6 10.079ZM8.44212 18.67L8.27129 18.4872L8.26511 18.4934L8.44212 18.67ZM17.1578 10.5222L17.3287 10.705L17.3349 10.6988L17.1578 10.5222ZM15.5368 7.58822L15.7076 7.77096L15.7138 7.76476L15.5368 7.58822ZM6.82103 15.736L6.6502 15.5532L6.64402 15.5594L6.82103 15.736ZM2.88411 17.4879H2.63411V17.488L2.88411 17.4879ZM19.9884 14.3799V14.6299V14.3799ZM20.3884 14.7799H20.1384H20.3884ZM20.3884 17.6083H20.1384H20.3884ZM19.9884 18.0083L19.9884 17.7583H19.9884V18.0083ZM19.5884 17.6083H19.8384H19.5884ZM19.5884 15.1799H19.8384C19.8384 15.0418 19.7265 14.9299 19.5884 14.9299V15.1799ZM17.16 15.1799V14.9299V15.1799ZM16.76 14.7799H17.01H16.76ZM17.16 14.3799V14.6299V14.3799ZM20.2713 15.0627L20.4481 15.2395L20.2713 15.0627ZM15.4629 19.8711L15.2862 19.6943L15.4629 19.8711ZM4.50543 15.2262H6.35808V14.7262H4.50543V15.2262ZM6.52882 15.1588L8.08674 13.7023L7.74527 13.3371L6.18735 14.7936L6.52882 15.1588ZM8.166 13.5197L8.16586 9.55135L7.66586 9.55137L7.666 13.5197L8.166 13.5197ZM8.16586 9.55136C8.16586 8.85966 8.51966 8.25643 9.05089 7.87599L8.75976 7.46949C8.11213 7.93329 7.66586 8.68114 7.66586 9.55136H8.16586ZM9.06386 7.47944C8.65603 7.14494 8.39743 6.64476 8.39743 6.06856H7.89743C7.89743 6.80106 8.22831 7.4408 8.74678 7.86604L9.06386 7.47944ZM8.39743 6.06856C8.39743 5.06624 9.21247 4.25 10.2105 4.25V3.75C8.93509 3.75 7.89743 4.79135 7.89743 6.06856H8.39743ZM10.2105 4.25C11.2086 4.25 12.0236 5.06624 12.0236 6.06856H12.5236C12.5236 4.79135 11.486 3.75 10.2105 3.75V4.25ZM12.0236 6.06856C12.0236 6.64472 11.7651 7.1449 11.3572 7.47945L11.6743 7.86603C12.1928 7.44076 12.5236 6.80103 12.5236 6.06856H12.0236ZM11.3749 7.8793C11.8406 8.19676 12.1583 8.72122 12.2142 9.30092L12.7119 9.25291C12.6416 8.52391 12.2436 7.86636 11.6566 7.46618L11.3749 7.8793ZM12.6338 9.45957L15.1181 7.13775L14.7766 6.77245L12.2924 9.09427L12.6338 9.45957ZM15.1202 7.1357C15.5347 6.73891 16.0824 6.52957 16.6526 6.52957V6.02957C15.9595 6.02957 15.2863 6.2846 14.7745 6.7745L15.1202 7.1357ZM16.6526 6.52957H19.4947V6.02957H16.6526V6.52957ZM19.4947 6.52957C20.7455 6.52957 21.75 7.53574 21.75 8.79147H22.25C22.25 7.26085 21.0229 6.02957 19.4947 6.02957V6.52957ZM21.75 8.79147C21.75 10.0472 20.7455 11.0534 19.4947 11.0534V11.5534C21.0229 11.5534 22.25 10.3221 22.25 8.79147H21.75ZM19.4947 11.0534H17.6421V11.5534H19.4947V11.0534ZM17.4714 11.1207L8.88203 19.1417L9.22328 19.5072L17.8127 11.4861L17.4714 11.1207ZM8.87978 19.1439C8.46526 19.5407 7.91757 19.75 7.34744 19.75V20.25C8.04045 20.25 8.71374 19.995 9.22553 19.5051L8.87978 19.1439ZM7.34744 19.75H4.50528V20.25H7.34744V19.75ZM4.50528 19.75C3.25447 19.75 2.25 18.7438 2.25 17.4881H1.75C1.75 19.0187 2.97709 20.25 4.50528 20.25V19.75ZM2.25 17.4881C2.25 16.2521 3.25596 15.2262 4.50543 15.2262V14.7262C2.97589 14.7262 1.75 15.9799 1.75 17.4881H2.25ZM11.6396 6.06856C11.6396 5.2768 11.002 4.63654 10.2107 4.63654V5.13654C10.7246 5.13654 11.1396 5.55169 11.1396 6.06856H11.6396ZM10.2107 4.63654C9.4194 4.63654 8.78179 5.2768 8.78179 6.06856H9.28179C9.28179 5.55169 9.69679 5.13654 10.2107 5.13654V4.63654ZM8.78179 6.06856C8.78179 6.86032 9.4194 7.50058 10.2107 7.50058V7.00058C9.69679 7.00058 9.28179 6.58542 9.28179 6.06856H8.78179ZM10.2107 7.50058C11.002 7.50058 11.6396 6.86032 11.6396 6.06856H11.1396C11.1396 6.58542 10.7246 7.00058 10.2107 7.00058V7.50058ZM11.85 9.55132C11.85 8.63291 11.1071 7.88708 10.1895 7.88708V8.38708C10.8297 8.38708 11.35 8.90781 11.35 9.55132H11.85ZM10.1895 7.88708C9.27191 7.88708 8.52899 8.63291 8.52899 9.55132H9.02899C9.02899 8.90781 9.5493 8.38708 10.1895 8.38708V7.88708ZM8.52899 9.55132V12.6965H9.02899V9.55132H8.52899ZM8.94903 12.8797L11.77 10.2623L11.4299 9.89576L8.60895 12.5132L8.94903 12.8797ZM11.85 10.079L11.85 9.55134L11.35 9.55131L11.35 10.079L11.85 10.079ZM4.50534 19.3633H7.34735V18.8633H4.50534V19.3633ZM7.34735 19.3633C7.83043 19.3633 8.2745 19.192 8.61913 18.8465L8.26511 18.4934C8.02026 18.7389 7.70629 18.8633 7.34735 18.8633V19.3633ZM8.61284 18.8526L17.3286 10.7049L16.9871 10.3396L8.27139 18.4873L8.61284 18.8526ZM17.3349 10.6988C17.3737 10.6598 17.4159 10.6456 17.4526 10.6456V10.1456C17.2787 10.1456 17.1103 10.2159 16.9808 10.3457L17.3349 10.6988ZM17.4526 10.6456H19.4737V10.1456H17.4526V10.6456ZM19.4737 10.6456C20.4966 10.6456 21.3448 9.79418 21.3448 8.77023H20.8448C20.8448 9.51929 20.2192 10.1456 19.4737 10.1456V10.6456ZM21.3448 8.77023C21.3448 7.74624 20.4965 6.89487 19.4737 6.89487V7.39487C20.2192 7.39487 20.8448 8.02114 20.8448 8.77023H21.3448ZM19.4737 6.89487H16.6315V7.39487H19.4737V6.89487ZM16.6315 6.89487C16.1484 6.89487 15.7044 7.06614 15.3597 7.41167L15.7138 7.76476C15.9586 7.51926 16.2726 7.39487 16.6315 7.39487V6.89487ZM15.366 7.40559L6.65031 15.5533L6.99176 15.9186L15.7075 7.77084L15.366 7.40559ZM6.64402 15.5594C6.6052 15.5983 6.56298 15.6126 6.5263 15.6126V16.1126C6.70021 16.1126 6.86857 16.0423 6.99804 15.9125L6.64402 15.5594ZM6.5263 15.6126H4.50519V16.1126H6.5263V15.6126ZM4.50519 15.6126C3.48229 15.6126 2.63411 16.464 2.63411 17.4879H3.13411C3.13411 16.7389 3.75968 16.1126 4.50519 16.1126V15.6126ZM2.63411 17.488C2.63428 18.533 3.46129 19.3633 4.50534 19.3633V18.8633C3.73872 18.8633 3.13424 18.2581 3.13411 17.4879L2.63411 17.488ZM19.9884 14.6299C20.0713 14.6299 20.1384 14.6971 20.1384 14.7799L20.6384 14.7799C20.6384 14.4209 20.3474 14.1299 19.9884 14.1299V14.6299ZM20.1384 14.7799V17.6083H20.6384V14.7799H20.1384ZM20.1384 17.6083C20.1384 17.6912 20.0713 17.7583 19.9884 17.7583L19.9884 18.2583C20.3474 18.2583 20.6384 17.9673 20.6384 17.6083H20.1384ZM19.9884 17.7583C19.9056 17.7583 19.8384 17.6912 19.8384 17.6083H19.3384C19.3384 17.9673 19.6294 18.2583 19.9884 18.2583V17.7583ZM19.8384 17.6083V15.1799H19.3384V17.6083H19.8384ZM19.5884 14.9299H17.16V15.4299H19.5884V14.9299ZM17.16 14.9299C17.0772 14.9299 17.01 14.8627 17.01 14.7799H16.51C16.51 15.1389 16.801 15.4299 17.16 15.4299V14.9299ZM17.01 14.7799C17.01 14.6971 17.0772 14.6299 17.16 14.6299V14.1299C16.801 14.1299 16.51 14.4209 16.51 14.7799L17.01 14.7799ZM17.16 14.6299H19.9884V14.1299H17.16V14.6299ZM20.0945 14.6738C20.1531 14.7324 20.1531 14.8274 20.0945 14.886L20.4481 15.2395C20.7019 14.9857 20.7019 14.5741 20.4481 14.3203L20.0945 14.6738ZM20.0945 14.886L15.2862 19.6943L15.6397 20.0478L20.4481 15.2395L20.0945 14.886ZM15.074 19.4822L19.8824 14.6738L19.5288 14.3203L14.7205 19.1286L15.074 19.4822ZM19.8824 14.6738C19.9409 14.6153 20.0359 14.6153 20.0945 14.6738L20.4481 14.3203C20.1942 14.0664 19.7827 14.0664 19.5288 14.3203L19.8824 14.6738ZM14.7205 19.1286C14.4666 19.3824 14.4666 19.794 14.7205 20.0478L15.074 19.6943C15.0155 19.6357 15.0155 19.5407 15.074 19.4822L14.7205 19.1286ZM15.2862 19.6943C15.2276 19.7529 15.1326 19.7529 15.074 19.6943L14.7205 20.0478C14.9743 20.3017 15.3859 20.3017 15.6397 20.0478L15.2862 19.6943Z" fill="black" mask="url(#path-1-outside-1_1_16372)"/>
</svg>
