<?xml version="1.0" encoding="UTF-8" standalone="no"?>
<svg
   width="30.461538"
   height="36"
   viewBox="0 0 30.461538 36"
   fill="none"
   version="1.1"
   id="svg4"
   sodipodi:docname="switch.svg"
   inkscape:version="1.3 (0e150ed, 2023-07-21)"
   xmlns:inkscape="http://www.inkscape.org/namespaces/inkscape"
   xmlns:sodipodi="http://sodipodi.sourceforge.net/DTD/sodipodi-0.dtd"
   xmlns="http://www.w3.org/2000/svg"
   xmlns:svg="http://www.w3.org/2000/svg">
  <defs
     id="defs4" />
  <sodipodi:namedview
     id="namedview4"
     pagecolor="#505050"
     bordercolor="#ffffff"
     borderopacity="1"
     inkscape:showpageshadow="0"
     inkscape:pageopacity="0"
     inkscape:pagecheckerboard="1"
     inkscape:deskcolor="#505050"
     inkscape:zoom="12.060696"
     inkscape:cx="18.075243"
     inkscape:cy="25.66187"
     inkscape:window-width="1392"
     inkscape:window-height="938"
     inkscape:window-x="0"
     inkscape:window-y="642"
     inkscape:window-maximized="0"
     inkscape:current-layer="svg4" />
  <path
     d="M 18.791226,10.544081 10.285675,0.74180071 C 10.208784,0.65310733 10.113737,0.58197197 10.006965,0.53321669 9.9001768,0.48446154 9.7841605,0.45923411 9.6667804,0.45923411 c -0.1173711,0 -0.2333832,0.0252278 -0.3401698,0.0739814 C 9.2198331,0.58197025 9.1247765,0.65310604 9.0479022,0.74179964 L 0.54489921,10.544081 c -0.0257031,0.02956 -0.042358,0.06585 -0.0480037,0.104614 -0.005647,0.03876 -1.536e-5,0.07828 0.0161788,0.11396 0.0162089,0.03567 0.0423093,0.0659 0.0752217,0.08708 0.0328971,0.02122 0.0712132,0.03259 0.11036992,0.03266 H 2.7744338 c 0.1178888,0 0.2306419,-0.05124 0.3100903,-0.14094 L 8.694245,4.2757424 V 18.706315 c 0,0.11273 0.092272,0.20498 0.2050177,0.20498 H 10.43687 c 0.112765,0 0.205015,-0.09241 0.205015,-0.20498 V 4.2757424 l 5.609784,6.4656756 c 0.07705,0.08972 0.189512,0.14094 0.309994,0.14094 h 2.075873 c 0.174212,0 0.268969,-0.205022 0.15369,-0.338277 z"
     fill="#000000"
     fill-opacity="0.85"
     id="path1"
     style="stroke-width:1.53064" />
  <path
     d="m 18.964677,10.393588 1.38e-4,2.34e-4 c 0.244313,0.282216 0.04316,0.718147 -0.327279,0.718147 h -2.075873 c -0.185689,0 -0.362499,-0.07912 -0.483886,-0.220612 L 16.07731,10.89085 10.871498,4.8907776 V 18.706315 c 0,0.239571 -0.195047,0.434586 -0.434628,0.434586 H 8.8992627 c -0.2395819,0 -0.4346343,-0.195015 -0.4346343,-0.434586 V 4.8907776 l -5.206668,6.0011084 -0.0018,0.0018 v -1.6e-5 C 3.134137,11.031562 2.9592161,11.1119 2.774374,11.1119 H 0.69865735 0.69824406 C 0.6150769,11.111794 0.5336853,11.087741 0.46380525,11.04266 0.39390976,10.997569 0.33844967,10.933336 0.30403789,10.857619 l 0.20873691,-0.09495 -0.20873691,0.09495 C 0.26961013,10.781925 0.25768584,10.6979 0.2696716,10.615584 0.2816422,10.533412 0.31695715,10.456327 0.37143759,10.393608 5.1527293,6.8524668 7.0998484,-3.7740984 18.964673,10.393579 Z m 0,0 -8.505506,-9.80218628 M 18.964677,10.393588 C 16.467859,10.393564 10.847317,3.0771648 9.4696274,2.8906175 L 0.37163038,10.39341 8.8743871,0.59140172 l 6.09e-5,-6.127e-5 c 0.098424,-0.11353786 0.220111,-0.2045886 0.3567945,-0.26699836 0.1367167,-0.0624261 0.2852452,-0.0947243 0.4355379,-0.0947243 0.1502922,0 0.298823,0.032301 0.4355516,0.094724 l -0.09538,0.20887494 0.09538,-0.20887455 c 0.13672,0.0624264 0.258412,0.15349122 0.356839,0.26705967 m 0,0 -0.173496,0.15039885 0.17342,-0.15049088 z"
     stroke="#000000"
     stroke-opacity="0.85"
     stroke-width="0.459244"
     id="path2"
     sodipodi:nodetypes="ccsscccssssccccscsccccscccccccccsscccccccc" />
  <path
     d="m 29.351922,25.074817 h -2.075733 c -0.117959,0 -0.230691,0.0512 -0.310135,0.140991 l -5.609688,6.465556 v -14.43051 c 0,-0.112722 -0.09242,-0.204967 -0.20514,-0.204967 h -1.537512 c -0.112914,0 -0.205121,0.09243 -0.205121,0.204967 V 31.68136 l -5.609695,-6.465558 c -0.077,-0.0898 -0.189666,-0.140991 -0.310046,-0.140991 h -2.07577 c -0.174265,0 -0.269081,0.207579 -0.153771,0.338301 l 8.505498,9.802183 c 0.07715,0.089 0.172056,0.15998 0.278761,0.20866 0.106962,0.04856 0.222879,0.07411 0.340135,0.07411 0.117328,0 0.233448,-0.02506 0.340289,-0.07411 0.106786,-0.04856 0.201766,-0.119887 0.278608,-0.20866 l 8.503006,-9.802183 c 0.115314,-0.133275 0.02066,-0.338301 -0.153686,-0.338301 z"
     fill="#000000"
     fill-opacity="0.85"
     id="path3"
     style="stroke-width:1.53064" />
  <path
     d="m 26.794146,25.063491 -0.0011,0.0013 -5.206638,6.001107 v -13.81514 c 0,-0.239576 -0.195176,-0.434595 -0.434747,-0.434595 h -1.537609 c -0.239555,0 -0.434741,0.195019 -0.434741,0.434595 v 13.815593 l -5.205827,-5.99999 c -1.63e-4,-3.04e-4 -3.05e-4,-4.64e-4 -4.69e-4,-6.1e-4 -0.121547,-0.141446 -0.298234,-0.220585 -0.483991,-0.220585 h -2.075897 c -0.369096,0 -0.573393,0.438117 -0.326643,0.719013 2.34e-4,3.05e-4 4.56e-4,4.59e-4 7.02e-4,7.66e-4 l 8.504237,9.800816 c 0,0 0,0 0,0 0.09855,0.11367 0.220116,0.204656 0.356812,0.266972 l 0.0955,-0.208799 -0.0955,0.208799 c 0.136746,0.06256 0.285335,0.09494 0.435511,0.09494 0.150326,0 0.298961,-0.0324 0.435665,-0.09494 l -0.09549,-0.208799 0.09549,0.208799 c 0.136732,-0.06242 0.25824,-0.153396 0.356673,-0.266972 1.41e-4,0 1.41e-4,0 1.41e-4,0 l 8.502873,-9.802193 1.45e-4,-3.04e-4 c 0.244318,-0.282125 0.04315,-0.718098 -0.327281,-0.718098 H 27.27623 c -0.184914,0 -0.359887,0.08046 -0.482036,0.218299 z"
     stroke="#000000"
     stroke-opacity="0.85"
     stroke-width="0.43039"
     id="path4" />
</svg>
