<svg width="161" height="161" viewBox="0 0 161 161" fill="none" xmlns="http://www.w3.org/2000/svg">
<path d="M152.281 0H104.188L34.7188 101.531H82.8122L152.281 0Z" fill="url(#paint0_linear_1966_12282)"/>
<path d="M8 0H56.0935L125.562 101.531H77.4685L8 0Z" fill="url(#paint1_linear_1966_12282)"/>
<path d="M82.8126 43.4375C115.409 43.4375 141.594 69.622 141.594 102.219C141.594 134.816 115.409 161 82.8126 161C50.2158 161 24.0312 134.816 24.0312 102.219C24.0312 69.622 50.2158 43.4375 82.8126 43.4375Z" fill="#EFC75E"/>
<path d="M118.645 94.8437C118.357 93.4032 116.344 93.2431 115.769 94.5876C112.893 101.47 105.735 105.984 97.8419 105.056C88.9904 104.031 82.3118 96.2523 82.6313 87.3208C82.9189 79.3818 88.4791 72.9794 95.7009 71.1867C97.1389 70.8345 97.2667 68.8498 95.8926 68.3056C92.7291 67.1211 89.3738 66.3848 85.8588 66.0967C66.1745 64.6562 48.7909 79.4778 47.1293 99.1654C45.4357 119.301 60.5823 136.94 80.746 138.316C100.462 139.661 117.75 124.711 119.284 105.024C119.571 101.566 119.316 98.141 118.645 94.8437Z" fill="#CDA439"/>
<path d="M99.9463 97.2127C104.958 97.2127 109.022 93.1566 109.022 88.1532C109.022 83.1498 104.958 79.0938 99.9463 79.0938C94.9342 79.0938 90.8711 83.1498 90.8711 88.1532C90.8711 93.1566 94.9342 97.2127 99.9463 97.2127Z" fill="#CDA439"/>
<rect x="32.24" y="51.24" width="101.52" height="101.52" rx="50.76" stroke="#CDA439" stroke-width="6.48"/>
<defs>
<linearGradient id="paint0_linear_1966_12282" x1="152.281" y1="55.5496" x2="34.7185" y2="55.8531" gradientUnits="userSpaceOnUse">
<stop stop-color="#00AAE4"/>
<stop offset="1" stop-color="#8255BE"/>
</linearGradient>
<linearGradient id="paint1_linear_1966_12282" x1="125.562" y1="55.5496" x2="7.99976" y2="55.8531" gradientUnits="userSpaceOnUse">
<stop stop-color="#00AAE4"/>
<stop offset="1" stop-color="#8255BE"/>
</linearGradient>
</defs>
</svg>
