<svg width="60" height="60" viewBox="0 0 60 60" fill="none" xmlns="http://www.w3.org/2000/svg">
<g opacity="0.3">
<path d="M30 60C13.4167 60 0 46.5001 0 30C0 13.5 13.4999 0 30 0C46.5 0 60 13.4999 60 30C60 46.5 46.5833 60 30 60ZM30 3.33333C15.2499 3.33333 3.33333 15.3335 3.33333 30C3.33333 44.7501 15.3335 56.6667 30 56.6667C44.7502 56.6667 56.6667 44.6665 56.6667 30C56.6667 15.2499 44.7503 3.33333 30 3.33333Z" fill="black"/>
<path d="M21.7499 20.1667C21.7499 22.4169 19.9166 18.917 17.7501 18.917C15.4999 18.917 13.7502 22.417 13.7502 20.1667C13.7502 17.9165 15.5836 16.1669 17.7501 16.1669C19.9166 16.1663 21.7499 17.9166 21.7499 20.1667Z" fill="black"/>
<path d="M46.3334 20.1667C46.3334 22.4169 44.5001 18.917 42.3336 18.917C40.1671 18.917 38.3337 22.417 38.3337 20.1667C38.3337 17.9165 40.1671 16.1669 42.3336 16.1669C44.5001 16.1663 46.3334 17.9166 46.3334 20.1667Z" fill="black"/>
<path d="M17.4167 30.5831C17.4167 23.5832 23.0831 30.833 29.9999 30.833C36.9167 30.833 42.5831 23.5832 42.5831 30.5831C42.5831 37.583 36.9998 43.1663 29.9999 43.1663C23.0001 43.1663 17.4167 37.4993 17.4167 30.5831Z" fill="black"/>
</g>
</svg>
