<svg width="40" height="40" viewBox="0 0 40 40" fill="none" xmlns="http://www.w3.org/2000/svg">
<circle opacity="0.1" cx="19.9998" cy="19.9998" r="19.9998" fill="url(#paint0_linear_173_6253)"/>
<circle cx="19.7998" cy="20" r="12" fill="url(#paint1_linear_173_6253)"/>
<path d="M14 19.8137C14 20.0126 14.079 20.2034 14.2197 20.344C14.3604 20.4847 14.5511 20.5636 14.75 20.5636H15.5001L15.5 25.2511C15.5 25.45 15.5791 25.6408 15.7197 25.7814C15.8603 25.9221 16.0511 26.0011 16.25 26.0011H19.25V20.5637H20.75V26.0011H23.75C23.9489 26.0011 24.1396 25.9221 24.2803 25.7814C24.4209 25.6408 24.5 25.45 24.5 25.2511V20.5636H25.2501H25.25C25.4489 20.5636 25.6396 20.4847 25.7803 20.344C25.921 20.2034 26 20.0126 26 19.8137V18.5012C26 18.3023 25.921 18.1115 25.7803 17.9709C25.6396 17.8302 25.4489 17.7512 25.25 17.7512H24.6737C25.1566 17.2151 25.352 16.4796 25.1989 15.7745C25.0459 15.0696 24.5629 14.4813 23.9013 14.1937C23.5009 14.015 23.0566 13.9588 22.6244 14.0322C22.1922 14.1056 21.7914 14.3053 21.4726 14.6062L20.0001 15.9737L18.5275 14.6062C18.2089 14.3052 17.8081 14.1052 17.3758 14.0316C16.9436 13.9579 16.4993 14.0139 16.0988 14.1925C15.4368 14.4799 14.9535 15.0684 14.8003 15.7738C14.6472 16.4792 14.843 17.2151 15.3264 17.7512H14.7501C14.5512 17.7512 14.3605 17.8302 14.2198 17.9709C14.0791 18.1115 14.0001 18.3023 14.0001 18.5012L14 19.8137ZM22.4999 15.7263C22.6783 15.5602 22.9272 15.493 23.1649 15.5471C23.4026 15.6011 23.5982 15.7692 23.6871 15.9962C23.7761 16.2231 23.747 16.4793 23.6094 16.6806C23.4718 16.8817 23.2437 17.0018 22.9999 17.0013H21.1249L22.4999 15.7263ZM16.7038 15.5913C16.8005 15.5498 16.9047 15.5281 17.01 15.5275C17.193 15.5273 17.3689 15.5986 17.5 15.7263L18.875 17.0013H17.0001C16.772 17.0033 16.5558 16.8994 16.4151 16.72C16.2743 16.5405 16.2247 16.3059 16.2811 16.0849C16.3373 15.8638 16.493 15.6814 16.7026 15.5913L16.7038 15.5913Z" fill="white"/>
<defs>
<linearGradient id="paint0_linear_173_6253" x1="3.53612" y1="36.0092" x2="29.2219" y2="11.0346" gradientUnits="userSpaceOnUse">
<stop offset="0.01" stop-color="#FF55AA"/>
<stop offset="0.25" stop-color="#B850C9"/>
<stop offset="0.62" stop-color="#6572D6"/>
<stop offset="1" stop-color="#4EAEB8"/>
</linearGradient>
<linearGradient id="paint1_linear_173_6253" x1="31.7998" y1="21.1309" x2="7.79971" y2="21.1844" gradientUnits="userSpaceOnUse">
<stop stop-color="#00AAE4"/>
<stop offset="1" stop-color="#8255BE"/>
</linearGradient>
</defs>
</svg>
