<svg width="207" height="202" viewBox="0 0 207 202" fill="none" xmlns="http://www.w3.org/2000/svg">
<path opacity="0.1" d="M27.0704 108.15C27.0704 155.728 65.6019 194.296 113.132 194.296C160.662 194.296 199.194 155.728 199.194 108.15C199.194 60.5729 160.662 22.0043 113.132 22.0043C65.6019 22.0043 27.0704 60.5729 27.0704 108.15Z" stroke="url(#paint0_linear_34_4027)" stroke-width="0.754778"/>
<path opacity="0.05" d="M20.1002 108.151C20.1002 159.581 61.7522 201.273 113.132 201.273C164.511 201.273 206.163 159.581 206.163 108.151C206.163 56.7201 164.511 15.0281 113.132 15.0281C61.7522 15.0281 20.1002 56.7201 20.1002 108.151Z" stroke="url(#paint1_linear_34_4027)" stroke-width="0.815905"/>
<g clip-path="url(#clip0_34_4027)">
<path d="M113.129 188.211C68.8525 188.211 32.959 152.283 32.959 107.963C32.959 63.6428 68.8525 27.7144 113.129 27.7144C157.406 27.7144 193.3 63.6428 193.3 107.963C193.3 152.283 157.406 188.211 113.129 188.211Z" fill="white"/>
<path opacity="0.1" d="M113.129 188.211C68.8525 188.211 32.959 152.283 32.959 107.963C32.959 63.6428 68.8525 27.7144 113.129 27.7144C157.406 27.7144 193.3 63.6428 193.3 107.963C193.3 152.283 157.406 188.211 113.129 188.211Z" fill="url(#paint2_linear_34_4027)"/>
<path opacity="0.1" d="M33.309 107.963C33.309 152.09 69.0461 187.861 113.129 187.861C157.213 187.861 192.95 152.09 192.95 107.963C192.95 63.8358 157.213 28.0644 113.129 28.0644C69.0461 28.0644 33.309 63.8358 33.309 107.963Z" stroke="url(#paint3_linear_34_4027)" stroke-width="0.70004"/>
<path opacity="0.1" d="M33.309 108.151C33.309 152.278 69.0461 188.049 113.129 188.049C157.213 188.049 192.95 152.278 192.95 108.151C192.95 64.0238 157.213 28.2524 113.129 28.2524C69.0461 28.2524 33.309 64.0238 33.309 108.151Z" stroke="url(#paint4_linear_34_4027)" stroke-width="0.70004"/>
</g>
<mask id="mask0_34_4027" style="mask-type:alpha" maskUnits="userSpaceOnUse" x="0" y="0" width="205" height="189">
<path fill-rule="evenodd" clip-rule="evenodd" d="M205 0H0V132H36.6196C46.824 164.577 77.2203 188.211 113.131 188.211C149.042 188.211 179.439 164.577 189.643 132H205V0Z" fill="#C4C4C4"/>
</mask>
<g mask="url(#mask0_34_4027)">
<path d="M172.407 195.162C171.872 189.946 171.578 185.267 171.668 181.69C172.239 162.976 178.075 126.356 178.649 110.819C179.222 95.2825 163.162 85.1101 163.162 85.1101L143.174 103.454L112.571 131.557C112.571 131.557 118.341 152.638 117.487 166.272C116.616 179.938 120.254 183.318 123.9 194.482C124.752 197.139 125.412 200.304 125.938 203.642C142.006 204.941 158.056 201.954 172.407 195.162Z" fill="#F7DAC1"/>
<path d="M162.983 100.366C162.983 100.366 159.392 110.005 161.985 116.693C164.578 123.381 168.605 140.126 167.704 144.53L160.113 138.131L154.672 123.111L153.784 107.644L162.983 100.366Z" fill="#D8A988"/>
<path d="M144.24 145.491C144.24 145.491 140.333 149.583 137.499 154.252C134.665 158.921 130.677 177.104 130.677 177.104C130.677 177.104 129.918 155.108 135.987 144.113C142.057 133.117 144.24 145.491 144.24 145.491Z" fill="#D8A988"/>
<path d="M79.934 79.2914L79.9328 79.2927C79.1292 80.151 78.6869 81.0007 78.5615 81.8559C78.4366 82.7071 78.6158 83.6317 79.1777 84.6622C80.0489 86.2337 81.0498 87.73 82.1698 89.1354L82.1717 89.1378C96.4359 107.228 110.721 125.304 125.026 143.364L125.026 143.364C126.065 144.678 127.168 145.943 128.317 147.177C129.383 148.309 130.419 148.924 131.448 149.087C132.467 149.249 133.58 148.981 134.839 148.145C137.186 146.58 139.415 144.84 141.663 143.087C142.182 142.682 142.703 142.276 143.226 141.871M79.934 79.2914L143.591 142.343M79.934 79.2914C80.7102 78.4574 81.5449 77.68 82.4318 76.9652M79.934 79.2914L179.772 112.577M143.226 141.871C143.226 141.871 143.226 141.871 143.226 141.871L143.591 142.343M143.226 141.871C143.226 141.871 143.226 141.871 143.226 141.871L143.591 142.343M143.226 141.871C145.369 140.21 147.488 138.524 149.601 136.841C150.547 136.088 151.492 135.336 152.438 134.587M143.591 142.343C145.737 140.68 147.862 138.989 149.977 137.305C151.032 136.465 152.085 135.627 153.137 134.795M152.438 134.587C152.481 134.718 152.525 134.852 152.572 134.988L153.137 134.795M152.438 134.587C151.906 132.946 151.676 131.64 151.864 130.533C152.076 129.286 152.797 128.39 153.919 127.582L153.137 134.795M152.438 134.587C152.547 134.5 152.657 134.414 152.766 134.327L153.137 134.795M179.772 112.577L179.774 112.575C180.679 111.634 181.151 110.711 181.264 109.789C181.377 108.869 181.141 107.872 180.485 106.763C179.753 105.536 178.94 104.359 178.051 103.24L178.05 103.239C163.336 84.6041 148.609 65.9798 133.869 47.3661C132.98 46.2453 132.021 45.1817 130.998 44.1814C130.124 43.33 129.236 42.8743 128.338 42.751C127.439 42.6276 126.464 42.8277 125.398 43.4071C124.4 43.9508 123.448 44.5758 122.553 45.2757C117.715 49.0632 112.896 52.8744 108.087 56.6784C107.395 57.2255 106.704 57.7724 106.012 58.3191L106.012 58.3193L96.8448 65.561L96.8442 65.5615C92.0402 69.3458 87.2269 73.1375 82.4318 76.9652M179.772 112.577C178.921 113.473 178.01 114.311 177.047 115.084M179.772 112.577L177.047 115.084M82.4318 76.9652C82.4316 76.9653 82.4315 76.9654 82.4313 76.9655L82.0589 76.4989L82.4335 76.9638C82.4329 76.9642 82.4324 76.9647 82.4318 76.9652ZM177.047 115.084C171.712 119.335 166.361 123.566 161.009 127.799L160.981 127.821L160.536 128.173C159.392 127.328 158.31 126.808 157.251 126.665C156.051 126.504 154.953 126.836 153.919 127.582L177.047 115.084Z" fill="white" stroke="black" stroke-width="1.19401"/>
<rect x="170.171" y="104.782" width="52.238" height="17.9102" rx="3.54435" transform="rotate(141.665 170.171 104.782)" fill="#F2F2F2"/>
<rect x="156.84" y="87.9238" width="52.238" height="3.58203" rx="1.79102" transform="rotate(141.665 156.84 87.9238)" fill="#F2F2F2"/>
<rect x="152.582" y="82.5386" width="25.9697" height="3.58203" rx="1.79102" transform="rotate(141.665 152.582 82.5386)" fill="#F2F2F2"/>
<rect x="138.881" y="65.2119" width="22.0892" height="3.58203" rx="1.79102" transform="rotate(141.665 138.881 65.2119)" fill="#F2F2F2"/>
<rect x="135.733" y="61.231" width="16.7162" height="3.58203" rx="1.79102" transform="rotate(141.665 135.733 61.231)" fill="#F2F2F2"/>
<rect x="132.586" y="57.2505" width="10.4476" height="3.58203" rx="1.79102" transform="rotate(141.665 132.586 57.2505)" fill="#F2F2F2"/>
<rect x="149.064" y="78.0898" width="52.238" height="3.58203" rx="1.79102" transform="rotate(141.665 149.064 78.0898)" fill="#F2F2F2"/>
<path fill-rule="evenodd" clip-rule="evenodd" d="M103.782 95.4462C103.933 95.6379 103.901 95.9164 103.709 96.068L99.6547 99.274C99.4629 99.4257 99.1845 99.3931 99.0329 99.2013L95.8269 95.1469C95.6752 94.9552 95.7077 94.6767 95.8995 94.5251L98.4483 92.5096L97.6236 91.4667L95.0748 93.4821C94.883 93.6338 94.6046 93.6012 94.453 93.4094L92.621 91.0926C92.4693 90.9008 92.5018 90.6224 92.6936 90.4707C92.8854 90.3191 93.1638 90.3516 93.3155 90.5434L94.8729 92.513L97.4202 90.4987L97.4216 90.4976L98.812 89.3981L97.9872 88.355L94.8592 90.8285C94.6674 90.9801 94.389 90.9476 94.2373 90.7558L92.2219 88.207L91.4108 88.8484C91.219 89.0001 90.9406 88.9676 90.7889 88.7758L88.5107 85.8946C88.359 85.7028 88.3915 85.4244 88.5833 85.2727L91.1321 83.2573L90.9369 83.0105C90.7853 82.8187 90.8178 82.5403 91.0096 82.3887L96.2225 78.2666C96.4143 78.115 96.6927 78.1475 96.8444 78.3393L98.6764 80.6561C98.828 80.8479 98.7955 81.1263 98.6037 81.278L97.4452 82.194C97.2535 82.3457 96.975 82.3131 96.8234 82.1213C96.6717 81.9295 96.7043 81.6511 96.8961 81.4995L97.7072 80.858L96.4244 79.2358L91.9061 82.8086L95.4789 87.3269L97.6804 85.5861L96.8557 84.5431L95.4802 85.6307C95.2884 85.7824 95.01 85.7499 94.8583 85.5581L93.0263 83.2412C92.8746 83.0495 92.9071 82.771 93.0989 82.6194L94.8217 81.2571C95.0135 81.1054 95.2919 81.138 95.4436 81.3298L97.001 83.2993L98.3913 82.1999C98.5831 82.0483 98.8615 82.0808 99.0132 82.2726L100.113 83.663L103.241 81.1895C103.432 81.0379 103.711 81.0704 103.862 81.2622L105.878 83.811L107.5 82.5281L105.759 80.3266L104.948 80.968C104.756 81.1197 104.478 81.0872 104.326 80.8954C104.175 80.7036 104.207 80.4252 104.399 80.2735L105.557 79.3575C105.749 79.2059 106.028 79.2384 106.179 79.4302L108.469 82.3262C108.621 82.518 108.588 82.7964 108.397 82.9481L106.08 84.7801C105.888 84.9317 105.61 84.8992 105.458 84.7074L104.816 83.8962L103.194 85.1791L104.294 86.5694C104.445 86.7612 104.413 87.0396 104.221 87.1913L103.41 87.8327L104.315 88.9774C104.467 89.1692 104.434 89.4476 104.242 89.5993L102.852 90.6987L104.787 93.1458L105.83 92.321L104.731 90.9307C104.579 90.7389 104.612 90.4605 104.803 90.3088C104.995 90.1572 105.274 90.1897 105.425 90.3815L106.799 92.1191C106.951 92.3109 106.918 92.5893 106.727 92.7409L104.989 94.1149C104.797 94.2666 104.519 94.2341 104.367 94.0423L102.54 91.7318L102.535 91.7255L100.52 89.1767L98.3181 90.9175L99.1428 91.9605L99.9539 91.3191C100.146 91.1674 100.424 91.2 100.576 91.3918L103.782 95.4462ZM102.813 95.6481L100.156 92.2882L96.796 94.945L99.4528 98.3049L102.813 95.6481ZM102.303 90.0042L103.346 89.1794L102.441 88.0346C102.289 87.8428 102.322 87.5644 102.513 87.4128L103.324 86.7713L102.5 85.7282L101.689 86.3697L101.686 86.3718L100.53 87.2857C100.338 87.4374 100.06 87.4048 99.9082 87.213C99.7565 87.0212 99.7891 86.7428 99.9809 86.5912L100.792 85.9497L99.9673 84.9067L98.577 86.0061L98.5715 86.0103L95.6809 88.2961C95.4891 88.4477 95.2106 88.4152 95.059 88.2234L93.9596 86.833L93.8251 86.9393L92.9164 87.6579L94.6573 89.8594L97.7853 87.3859C97.977 87.2343 98.2555 87.2668 98.4071 87.4586L99.5065 88.8489L100.318 88.2075C100.509 88.0559 100.788 88.0884 100.94 88.2802L102.303 90.0042ZM104.267 83.2017L103.443 82.1586L100.662 84.3575L101.487 85.4006L102.295 84.7615L102.298 84.7592L104.267 83.2017ZM98.5933 83.1691L99.4181 84.2122L98.375 85.0369L97.5502 83.9939L98.5933 83.1691ZM95.0237 82.2262L96.3065 83.8485L95.2782 84.6616L93.9954 83.0393L95.0237 82.2262ZM92.0648 85.3903C92.2165 85.5821 92.1839 85.8605 91.9921 86.0121L91.4129 86.4702C91.2211 86.6218 90.9427 86.5893 90.791 86.3975C90.6394 86.2057 90.6719 85.9273 90.8637 85.7756L91.4429 85.3176C91.6347 85.166 91.9132 85.1985 92.0648 85.3903ZM91.6813 83.9519L93.4103 86.1385L93.2759 86.2448L92.02 87.2379L91.2089 87.8793L89.4798 85.6927L91.6813 83.9519ZM101.825 95.8478C102.016 95.6961 102.049 95.4177 101.897 95.2259L100.356 93.2763C100.204 93.0845 99.9255 93.052 99.7338 93.2036L97.7841 94.7453C97.5923 94.8969 97.5598 95.1754 97.7115 95.3671L99.2531 97.3168C99.4048 97.5086 99.6832 97.5411 99.875 97.3894L101.825 95.8478ZM99.9357 94.1727L100.928 95.4279L99.673 96.4203L98.6806 95.1652L99.9357 94.1727ZM113.628 87.6601C113.78 87.8519 113.747 88.1303 113.556 88.282L109.501 91.488C109.309 91.6396 109.031 91.6071 108.879 91.4153L105.673 87.3609L106.021 87.0863L105.746 86.739L109.8 83.533C109.992 83.3814 110.271 83.4139 110.422 83.6057L113.628 87.6601ZM106.642 87.159L109.299 90.5188L112.659 87.862L110.002 84.5022L106.642 87.159ZM111.671 88.0617C111.863 87.9101 111.895 87.6316 111.744 87.4399L110.202 85.4902C110.05 85.2984 109.772 85.2659 109.58 85.4176L107.631 86.9592C107.439 87.1109 107.406 87.3893 107.558 87.5811L109.1 89.5307C109.251 89.7225 109.53 89.755 109.721 89.6034L111.671 88.0617ZM109.782 86.3867L110.775 87.6418L109.52 88.6342L108.527 87.3792L109.782 86.3867ZM105.842 77.8137C105.994 78.0055 105.962 78.2839 105.77 78.4356L101.715 81.6416C101.524 81.7932 101.245 81.7607 101.093 81.5689L97.8875 77.5145L98.2347 77.2399L97.9601 76.8926L102.015 73.6866C102.206 73.535 102.485 73.5675 102.636 73.7593L105.842 77.8137ZM98.8566 77.3126L101.513 80.6724L104.873 78.0157L102.216 74.6558L98.8566 77.3126ZM103.885 78.2154C104.077 78.0637 104.109 77.7853 103.958 77.5935L102.416 75.6439C102.265 75.4521 101.986 75.4195 101.794 75.5712L99.8447 77.1128C99.6529 77.2645 99.6203 77.5429 99.772 77.7347L101.314 79.6844C101.465 79.8761 101.744 79.9087 101.936 79.757L103.885 78.2154ZM101.996 76.5403L102.989 77.7954L101.734 78.7879L100.741 77.5328L101.996 76.5403Z" fill="black"/>
<path d="M170.291 148.65C170.291 148.65 160.48 117.067 153.173 111.96C145.833 106.837 126.928 94.6853 121.876 102.195C116.825 109.706 126.324 120.429 137.667 127.948C137.667 127.948 143.778 142.025 140.324 148.682C136.901 155.357 155.43 159.119 155.43 159.119L170.291 148.65Z" fill="#F7DAC1"/>
<path d="M19.4025 178.873C21.9958 175.043 24.178 171.529 25.6011 168.711C32.9698 153.928 43.7225 123.031 49.7629 110.717C55.8034 98.4029 69.0228 85.4238 69.0228 85.4238L80.4079 119.802L82.0841 163.805C82.0841 163.805 79.1745 168.395 74.1461 179.348C69.1177 190.333 64.8799 191.441 57.3846 198.595C55.6136 200.304 53.7793 202.489 51.9767 204.863C38.947 199.165 27.72 190.143 19.4025 178.873Z" fill="#F7DAC1"/>
<path d="M126.361 71.8435C126.361 71.8435 131.674 70.3873 133.856 71.8435C136.007 73.2997 135.532 82.7649 128.227 84.1894L126.361 71.8435Z" fill="#F5C9AA"/>
<path d="M127.689 89.8235C130.978 87.7025 132.781 87.5443 133.761 89.222C134.741 90.8998 138.948 97.5793 127.942 103.942C116.936 110.305 122.566 100.017 122.566 100.017L127.689 89.8235Z" fill="#F5C9AA"/>
<path d="M125.758 109.229C125.758 109.229 130.027 107.773 132.241 108.976C134.455 110.179 135.815 118.979 127.56 121.702C119.338 124.424 122.753 115.972 122.753 115.972L125.758 109.229Z" fill="#F5C9AA"/>
<path d="M127.118 126.386C127.118 126.386 130.122 125.817 130.976 127.305C131.83 128.792 131.166 132.686 127.972 135.598C124.778 138.511 124.43 130.565 124.43 130.565L127.118 126.386Z" fill="#F5C9AA"/>
<path d="M66.3029 109.135C66.3029 109.135 65.0695 118.125 60.2624 122.24C55.4554 126.356 45.3352 137.689 44.1967 141.487L52.7672 139.683L63.2668 130.281L70.4142 118.632L66.3029 109.135Z" fill="#D8A988"/>
<path d="M62.0311 152.028C62.0311 152.028 63.3594 156.84 63.6124 161.652C63.8654 166.464 59.3746 182.26 59.3746 182.26C59.3746 182.26 69.1469 165.482 69.0204 154.403C68.8939 143.323 62.0311 152.028 62.0311 152.028Z" fill="#D8A988"/>
<path d="M128.288 61.3109V40.0696C128.288 35.2262 124.367 31.3008 119.528 31.3008H74.2088C69.3702 31.3008 65.4486 35.2262 65.4486 40.0696V48.9016C65.164 49.0283 65.0059 49.3132 65.0059 49.6297V53.1119C65.0059 53.4285 65.1956 53.7134 65.4486 53.84V57.5754C65.164 57.7021 65.0059 57.987 65.0059 58.3035V66.1226C65.0059 66.4392 65.1956 66.7241 65.4486 66.8507V69.5098C65.164 69.6365 65.0059 69.9214 65.0059 70.2379V78.057C65.0059 78.3736 65.1956 78.6585 65.4486 78.7851V150.138C65.4486 154.982 69.3702 158.907 74.2088 158.907H119.528C124.367 158.907 128.288 154.982 128.288 150.138V75.9044C128.573 75.7778 128.731 75.4929 128.731 75.1763V62.0073C128.731 61.6908 128.541 61.4375 128.288 61.3109Z" fill="#0B080F"/>
<path d="M125.758 150.138C125.758 153.588 122.975 156.374 119.528 156.374H74.2087C70.7615 156.374 67.9785 153.588 67.9785 150.138V40.0693C67.9785 36.6188 70.7615 33.833 74.2087 33.833H82.2732L82.969 36.1439C83.3801 37.5051 84.6451 38.4548 86.0682 38.4548H107.637C109.06 38.4548 110.325 37.5051 110.736 36.1439L111.432 33.833H119.496C122.943 33.833 125.726 36.6188 125.726 40.0693V150.138H125.758Z" fill="#A5A5A5"/>
<path d="M40.4655 143.608C40.4655 143.608 61.275 123.158 69.0865 122.24C76.9296 121.322 96.6954 119.77 97.4861 127.716C98.2767 135.662 86.4172 140.03 74.4628 141.138C74.4628 141.138 63.8366 149.527 63.7418 156.143C63.6153 162.76 47.6444 157.948 47.6444 157.948L40.4655 143.608Z" fill="#F7DAC1"/>
<rect x="73.0001" y="57.0449" width="48" height="46.9091" fill="#DADADA"/>
<mask id="mask1_34_4027" style="mask-type:alpha" maskUnits="userSpaceOnUse" x="73" y="57" width="48" height="47">
<rect x="73.0001" y="57.0449" width="48" height="46.9091" fill="#C4C4C4"/>
</mask>
<g mask="url(#mask1_34_4027)">
<path d="M63.1012 68.0113L63.0992 68.0135C61.7762 69.4266 61.0479 70.8255 60.8414 72.2334C60.6359 73.6348 60.9309 75.1572 61.856 76.8537C63.2904 79.441 64.9381 81.9044 66.782 84.2181L66.7852 84.2221C90.2692 114.005 113.787 143.764 137.338 173.498L137.339 173.499C139.049 175.661 140.865 177.744 142.758 179.775C144.512 181.639 146.217 182.652 147.912 182.921C149.59 183.186 151.421 182.746 153.495 181.37C157.359 178.792 161.029 175.929 164.729 173.042C165.585 172.375 166.441 171.706 167.302 171.04L63.1012 68.0113ZM63.1012 68.0113C64.3793 66.6379 65.7539 65.3578 67.2146 64.1806M63.1012 68.0113L67.2146 64.1806M227.47 122.812L227.474 122.808C228.963 121.259 229.74 119.739 229.926 118.222C230.112 116.707 229.725 115.064 228.643 113.238C227.439 111.218 226.1 109.281 224.637 107.44L224.635 107.437C200.411 76.7579 176.165 46.0957 151.897 15.4508C150.434 13.6061 148.856 11.8554 147.173 10.209C145.733 8.80639 144.271 8.05581 142.791 7.85271C141.312 7.64958 139.706 7.97903 137.951 8.9328C136.308 9.82785 134.741 10.8566 133.267 12.0088C133.267 12.009 133.267 12.0091 133.267 12.0093L132.662 11.2349C124.695 17.4725 116.759 23.7492 108.84 30.0125L227.47 122.812ZM227.47 122.812C226.069 124.287 224.57 125.665 222.984 126.939M227.47 122.812L222.984 126.939M222.984 126.939C214.201 133.938 205.391 140.904 196.579 147.872L196.534 147.908L195.8 148.488C193.918 147.097 192.136 146.241 190.393 146.006C188.417 145.74 186.609 146.287 184.907 147.515C183.06 148.845 181.873 150.321 181.525 152.373C181.215 154.197 181.593 156.346 182.469 159.048C180.912 160.28 179.356 161.519 177.799 162.759C174.319 165.529 170.831 168.305 167.303 171.04L222.984 126.939ZM67.2146 64.1806C67.2151 64.1801 67.2156 64.1797 67.2162 64.1793L66.5994 63.414L67.2146 64.1806Z" fill="white" stroke="black" stroke-width="1.96577"/>
<rect x="189.715" y="82.2241" width="86.0026" height="5.89732" rx="2.94866" transform="rotate(141.665 189.715 82.2241)" fill="#F2F2F2"/>
<rect x="176.911" y="66.0342" width="86.0026" height="5.89732" rx="2.94866" transform="rotate(141.665 176.911 66.0342)" fill="#F2F2F2"/>
<path fill-rule="evenodd" clip-rule="evenodd" d="M102.364 94.6078C102.613 94.9236 102.56 95.382 102.244 95.6316L95.5691 100.91C95.2533 101.16 94.795 101.106 94.5453 100.79L89.2671 94.1152C89.0174 93.7995 89.0709 93.3411 89.3867 93.0914L93.5828 89.7733L92.2251 88.0562L88.0289 91.3743C87.7132 91.624 87.2548 91.5704 87.0051 91.2547L83.989 87.4403C83.7393 87.1245 83.7928 86.6662 84.1086 86.4165C84.4243 86.1668 84.8827 86.2204 85.1324 86.5361L87.6965 89.7787L91.8903 86.4625L91.8926 86.4607L94.1817 84.6506L92.8237 82.9333L87.6739 87.0055C87.3582 87.2551 86.8998 87.2016 86.6501 86.8858L83.332 82.6897L81.9966 83.7456C81.6809 83.9953 81.2225 83.9417 80.9728 83.626L77.222 78.8826C76.9723 78.5668 77.0258 78.1084 77.3416 77.8587L81.5378 74.5406L81.2165 74.1343C80.9668 73.8186 81.0204 73.3602 81.3361 73.1105L89.9184 66.3242C90.2341 66.0745 90.6925 66.128 90.9422 66.4438L93.9584 70.2581C94.208 70.5738 94.1544 71.0322 93.8387 71.2819L91.9315 72.79C91.6157 73.0397 91.1574 72.9861 90.9077 72.6704C90.658 72.3546 90.7116 71.8963 91.0273 71.6466L92.3628 70.5906L90.2508 67.9197L82.812 73.8019L88.6942 81.2407L92.3187 78.3746L90.9608 76.6574L88.6962 78.4481C88.3805 78.6978 87.9221 78.6442 87.6724 78.3285L84.6563 74.5142C84.4066 74.1984 84.4601 73.74 84.7759 73.4903L87.6122 71.2475C87.928 70.9978 88.3864 71.0514 88.6361 71.3672L91.2001 74.6097L93.489 72.7998C93.8048 72.5501 94.2632 72.6037 94.5129 72.9194L96.3229 75.2085L101.473 71.1363C101.788 70.8866 102.247 70.9402 102.496 71.2559L105.815 75.4521L108.485 73.3401L105.619 69.7157L104.284 70.7716C103.968 71.0213 103.51 70.9677 103.26 70.652C103.011 70.3362 103.064 69.8779 103.38 69.6282L105.287 68.1201C105.603 67.8705 106.061 67.924 106.311 68.2398L110.081 73.0077C110.331 73.3234 110.277 73.7818 109.961 74.0315L106.147 77.0476C105.831 77.2973 105.373 77.2437 105.123 76.928L104.067 75.5925L101.396 77.7045L103.206 79.9935C103.456 80.3093 103.403 80.7677 103.087 81.0174L101.751 82.0734L103.242 83.958C103.491 84.2737 103.438 84.7321 103.122 84.9818L100.833 86.7918L104.019 90.8206L105.736 89.4627L103.926 87.1738C103.676 86.858 103.73 86.3996 104.046 86.15C104.361 85.9003 104.82 85.9538 105.069 86.2696L107.331 89.1303C107.581 89.446 107.528 89.9044 107.212 90.1541L104.351 92.4161C104.035 92.6658 103.577 92.6123 103.327 92.2965L100.32 88.4927L100.311 88.4822L96.993 84.286L93.3685 87.1521L94.7263 88.8691L96.0617 87.8132C96.3774 87.5635 96.8358 87.6171 97.0855 87.9328L102.364 94.6078ZM100.768 94.9403L96.3942 89.4087L90.8626 93.7828L95.2367 99.3143L100.768 94.9403ZM99.9287 85.6484L101.646 84.2904L100.156 82.4058C99.9061 82.09 99.9596 81.6317 100.275 81.382L101.611 80.326L100.253 78.6087L98.9174 79.6647L98.9129 79.6682L97.0102 81.1728C96.6945 81.4225 96.2361 81.3689 95.9864 81.0531C95.7367 80.7374 95.7903 80.279 96.106 80.0293L97.4415 78.9733L96.0836 77.2561L93.7947 79.066L93.7857 79.073L89.0267 82.8362C88.7109 83.0859 88.2525 83.0323 88.0029 82.7166L86.1928 80.4275L85.9714 80.6025L84.4754 81.7855L87.3415 85.41L92.4913 81.3378C92.807 81.0881 93.2654 81.1417 93.5151 81.4574L95.3251 83.7464L96.6605 82.6905C96.9763 82.4408 97.4346 82.4944 97.6843 82.8102L99.9287 85.6484ZM103.163 74.449L101.805 72.7318L97.2271 76.3519L98.585 78.0692L99.9156 77.017L99.9203 77.0132L103.163 74.449ZM93.8215 74.3953L95.1795 76.1126L93.4622 77.4705L92.1043 75.7532L93.8215 74.3953ZM87.9447 72.8431L90.0566 75.5139L88.3638 76.8526L86.2518 74.1817L87.9447 72.8431ZM83.0733 78.0522C83.323 78.368 83.2694 78.8264 82.9537 79.0761L82.0001 79.8301C81.6843 80.0798 81.2259 80.0262 80.9763 79.7105C80.7266 79.3947 80.7801 78.9364 81.0959 78.6867L82.0495 77.9326C82.3653 77.6829 82.8237 77.7365 83.0733 78.0522ZM82.4419 75.6841L85.2886 79.2841L85.0673 79.4591L82.9996 81.0941L81.6642 82.1501L78.8175 78.5501L82.4419 75.6841ZM99.1415 95.2691C99.4572 95.0194 99.5108 94.561 99.2611 94.2453L96.723 91.0355C96.4733 90.7197 96.0149 90.6662 95.6992 90.9158L92.4894 93.454C92.1736 93.7036 92.1201 94.162 92.3698 94.4778L94.9079 97.6876C95.1576 98.0033 95.6159 98.0569 95.9317 97.8072L99.1415 95.2691ZM96.0316 92.5113L97.6656 94.5777L95.5992 96.2117L93.9653 94.1453L96.0316 92.5113ZM118.575 81.7892C118.824 82.1049 118.771 82.5633 118.455 82.813L111.78 88.0912C111.464 88.3409 111.006 88.2873 110.756 87.9716L105.478 81.2966L106.05 80.8445L105.597 80.2728L112.273 74.9946C112.588 74.7449 113.047 74.7984 113.296 75.1142L118.575 81.7892ZM107.073 80.9641L111.447 86.4957L116.979 82.1216L112.605 76.5901L107.073 80.9641ZM115.352 82.4504C115.668 82.2007 115.722 81.7423 115.472 81.4266L112.934 78.2168C112.684 77.901 112.226 77.8475 111.91 78.0971L108.7 80.6353C108.385 80.8849 108.331 81.3433 108.581 81.6591L111.119 84.8689C111.368 85.1846 111.827 85.2382 112.143 84.9885L115.352 82.4504ZM112.243 79.6927L113.876 81.759L111.81 83.393L110.176 81.3266L112.243 79.6927ZM105.756 65.5785C106.006 65.8942 105.952 66.3526 105.637 66.6023L98.9616 71.8805C98.6459 72.1302 98.1874 72.0766 97.9377 71.7609L92.6595 65.0859L93.2313 64.6338L92.7792 64.062L99.4542 58.7838C99.7699 58.5342 100.228 58.5877 100.478 58.9035L105.756 65.5785ZM94.2551 64.7534L98.6291 70.285L104.161 65.9109L99.7866 60.3794L94.2551 64.7534ZM102.534 66.2397C102.85 65.99 102.903 65.5317 102.654 65.2159L100.115 62.0061C99.8657 61.6904 99.4073 61.6368 99.0916 61.8865L95.8818 64.4246C95.566 64.6743 95.5125 65.1327 95.7622 65.4484L98.3003 68.6582C98.55 68.974 99.0083 69.0275 99.3241 68.7778L102.534 66.2397ZM99.4241 63.482L101.058 65.5483L98.9917 67.1823L97.3577 65.116L99.4241 63.482Z" fill="black"/>
</g>
<path d="M80.7671 56.8115H74.2428C73.5565 56.8115 73.0001 57.3679 73.0001 58.0542V64.5785" stroke="white" stroke-width="2.23256" stroke-linecap="round"/>
<path d="M121 64.5785L121 58.0542C121 57.3679 120.444 56.8115 119.757 56.8115L113.233 56.8115" stroke="white" stroke-width="2.23256" stroke-linecap="round"/>
<path d="M113.233 104.19L119.757 104.19C120.444 104.19 121 103.634 121 102.948L121 96.4234" stroke="white" stroke-width="2.23256" stroke-linecap="round"/>
<path d="M73.0001 96.4234L73.0001 102.948C73.0001 103.634 73.5565 104.19 74.2428 104.19L80.7671 104.19" stroke="white" stroke-width="2.23256" stroke-linecap="round"/>
</g>
<defs>
<linearGradient id="paint0_linear_34_4027" x1="37.9057" y1="187.123" x2="189.129" y2="33.3125" gradientUnits="userSpaceOnUse">
<stop offset="0.0416667" stop-color="#47BAD8"/>
<stop offset="0.34375" stop-color="#6A6CE9"/>
<stop offset="0.609375" stop-color="#9454E6"/>
<stop offset="1" stop-color="#CE57D3"/>
</linearGradient>
<linearGradient id="paint1_linear_34_4027" x1="31.8129" y1="193.519" x2="195.283" y2="27.2521" gradientUnits="userSpaceOnUse">
<stop offset="0.0416667" stop-color="#47BAD8"/>
<stop offset="0.34375" stop-color="#6A6CE9"/>
<stop offset="0.609375" stop-color="#9454E6"/>
<stop offset="1" stop-color="#CE57D3"/>
</linearGradient>
<linearGradient id="paint2_linear_34_4027" x1="179.125" y1="172.2" x2="76.0645" y2="72.0908" gradientUnits="userSpaceOnUse">
<stop offset="0.01" stop-color="#FF55AA"/>
<stop offset="0.25" stop-color="#B850C9"/>
<stop offset="0.62" stop-color="#6572D6"/>
<stop offset="1" stop-color="#4EAEB8"/>
</linearGradient>
<linearGradient id="paint3_linear_34_4027" x1="43.3585" y1="181.209" x2="183.615" y2="38.5525" gradientUnits="userSpaceOnUse">
<stop offset="0.0416667" stop-color="#47BAD8"/>
<stop offset="0.34375" stop-color="#6A6CE9"/>
<stop offset="0.609375" stop-color="#9454E6"/>
<stop offset="1" stop-color="#CE57D3"/>
</linearGradient>
<linearGradient id="paint4_linear_34_4027" x1="43.3585" y1="181.397" x2="183.615" y2="38.7405" gradientUnits="userSpaceOnUse">
<stop offset="0.0416667" stop-color="#47BAD8"/>
<stop offset="0.34375" stop-color="#6A6CE9"/>
<stop offset="0.609375" stop-color="#9454E6"/>
<stop offset="1" stop-color="#CE57D3"/>
</linearGradient>
<clipPath id="clip0_34_4027">
<rect width="160.309" height="172.21" fill="white" transform="matrix(-1 0 0 1 193.3 16.0015)"/>
</clipPath>
</defs>
</svg>
