<svg width="23" height="23" viewBox="0 0 23 23" fill="none" xmlns="http://www.w3.org/2000/svg">
<path d="M22.9995 15.6151C22.9995 12.7802 21.3732 10.2502 18.9375 9.01953C18.8618 14.455 14.455 18.8618 9.01953 18.9375C10.2502 21.3732 12.7802 22.9995 15.6151 22.9995C16.9443 22.9995 18.2368 22.6455 19.3725 21.9729L22.9673 22.9673L21.9729 19.3725C22.6455 18.2368 22.9995 16.9443 22.9995 15.6151Z" fill="black"/>
<path d="M17.5877 8.79386C17.5877 3.94483 13.6429 0 8.79386 0C3.94483 0 0 3.94483 0 8.79386C0 10.3742 0.420646 11.9129 1.21942 13.2637L0.0323304 17.5552L4.32401 16.3683C5.67486 17.1671 7.21354 17.5877 8.79386 17.5877C13.6429 17.5877 17.5877 13.6429 17.5877 8.79386ZM7.44442 6.74721H6.09498C6.09498 5.25896 7.30561 4.04832 8.79386 4.04832C10.2821 4.04832 11.4927 5.25896 11.4927 6.74721C11.4927 7.50258 11.173 8.22861 10.6151 8.73886L9.46858 9.7882V10.8405H8.11914V9.19395L9.70403 7.7433C9.98727 7.48413 10.1433 7.13043 10.1433 6.74721C10.1433 6.00308 9.53799 5.39777 8.79386 5.39777C8.04974 5.39777 7.44442 6.00308 7.44442 6.74721ZM8.11914 12.19H9.46858V13.5394H8.11914V12.19Z" fill="black"/>
</svg>
