<svg width="96" height="96" viewBox="0 0 96 96" fill="none" xmlns="http://www.w3.org/2000/svg">
<path d="M69.2183 32.7693C70.6831 34.2341 70.6831 36.6086 69.2183 38.0728L44.061 63.2307C42.5962 64.6948 40.2224 64.6948 38.7576 63.2307L26.7817 51.2542C25.3169 49.79 25.3169 47.4155 26.7817 45.9514C28.2458 44.4866 30.6204 44.4866 32.0845 45.9514L41.4089 55.2759L63.9148 32.7693C65.3796 31.3052 67.7542 31.3052 69.2183 32.7693ZM96 48C96 74.532 74.5283 96 48 96C21.468 96 0 74.5283 0 48C0 21.468 21.4717 0 48 0C74.532 0 96 21.4717 96 48ZM88.5 48C88.5 25.6135 70.3835 7.5 48 7.5C25.6135 7.5 7.5 25.6165 7.5 48C7.5 70.3865 25.6165 88.5 48 88.5C70.3865 88.5 88.5 70.3835 88.5 48Z" fill="black"/>
</svg>
