<svg width="35" height="26" viewBox="0 0 35 26" fill="none" xmlns="http://www.w3.org/2000/svg">
<path fill-rule="evenodd" clip-rule="evenodd" d="M3.86405 0.678614C3.9792 0.56425 4.13538 0.5 4.29823 0.5C4.46108 0.5 4.61727 0.56425 4.73242 0.678614C4.84757 0.792979 4.91227 0.948091 4.91227 1.10983V7.81793C4.91358 8.3955 4.70714 8.95455 4.33016 9.39434C3.92934 9.83425 3.70021 10.4021 3.6842 10.9951V16.3915C3.68536 17.6077 3.78805 18.8218 3.99122 20.0212L4.507 23.0941C4.52636 23.209 4.53663 23.3252 4.53771 23.4417C4.53654 23.727 4.47588 24.009 4.35956 24.2699C4.24324 24.5308 4.07378 24.7649 3.86185 24.9575C3.64992 25.1501 3.40012 25.2971 3.12818 25.3891C2.85624 25.4811 2.56807 25.5161 2.28181 25.492C1.99556 25.468 1.71743 25.3853 1.46494 25.2492C1.21246 25.113 0.991099 24.9265 0.814806 24.7012C0.638513 24.4759 0.511111 24.2168 0.440626 23.9402C0.370141 23.6636 0.358101 23.3756 0.405266 23.0941L0.921054 20.0212C1.12422 18.8218 1.22691 17.6077 1.22807 16.3915V10.9951C1.21206 10.4021 0.982932 9.83425 0.582108 9.39434C0.205129 8.95455 -0.00130419 8.3955 4.77541e-06 7.81793V1.10983C4.77541e-06 0.948091 0.0646974 0.792979 0.179851 0.678614C0.295004 0.56425 0.451186 0.5 0.614037 0.5C0.776889 0.5 0.93307 0.56425 1.04822 0.678614C1.16338 0.792979 1.22807 0.948091 1.22807 1.10983V5.98845H1.8421V1.10983C1.8421 0.948091 1.9068 0.792979 2.02195 0.678614C2.1371 0.56425 2.29328 0.5 2.45614 0.5C2.61899 0.5 2.77517 0.56425 2.89032 0.678614C3.00548 0.792979 3.07017 0.948091 3.07017 1.10983V5.98845H3.6842V1.10983C3.6842 0.948091 3.74889 0.792979 3.86405 0.678614ZM31.9295 1.11053C30.2348 1.11053 28.8594 4.91586 28.8594 6.59898C28.8599 7.08592 28.9775 7.5657 29.2024 7.99837C29.4273 8.43104 29.7531 8.8041 30.1525 9.08647C30.3188 9.19934 30.4555 9.35016 30.551 9.5263C30.6465 9.70244 30.6981 9.89875 30.7015 10.0988V16.3922C30.7013 17.6084 30.5997 18.8224 30.3975 20.0219L29.8787 23.0948C29.8593 23.2097 29.849 23.3259 29.848 23.4424C29.8491 23.7277 29.9098 24.0097 30.0261 24.2706C30.1424 24.5315 30.3119 24.7656 30.5238 24.9582C30.7358 25.1508 30.9856 25.2978 31.2575 25.3898C31.5294 25.4818 31.8176 25.5168 32.1039 25.4927C32.3901 25.4687 32.6682 25.386 32.9207 25.2499C33.1732 25.1137 33.3946 24.9272 33.5709 24.7019C33.7472 24.4766 33.8746 24.2175 33.945 23.9409C34.0155 23.6643 34.0276 23.3763 33.9804 23.0948L33.4646 20.0219C33.2614 18.8225 33.1588 17.6084 33.1576 16.3922V10.0988C33.161 9.89875 33.2126 9.70244 33.3081 9.5263C33.4036 9.35016 33.5402 9.19934 33.7065 9.08647C34.106 8.8041 34.4317 8.43104 34.6567 7.99837C34.8816 7.5657 34.9992 7.08592 34.9997 6.59898C34.9997 4.91586 33.6243 1.11053 31.9295 1.11053ZM11.3941 4.68686C13.1107 3.54772 15.1289 2.9397 17.1934 2.9397C19.961 2.94276 22.6143 4.03599 24.5712 5.97953C26.5282 7.92307 27.6289 10.5582 27.632 13.3068C27.632 15.3572 27.0198 17.3615 25.8728 19.0664C24.7258 20.7713 23.0955 22.1 21.1881 22.8847C19.2807 23.6693 17.1819 23.8747 15.157 23.4746C13.1321 23.0746 11.2721 22.0873 9.81227 20.6374C8.35241 19.1875 7.35823 17.3403 6.95546 15.3293C6.55269 13.3183 6.7594 11.2338 7.54947 9.33946C8.33954 7.44513 9.67748 5.82601 11.3941 4.68686ZM12.7586 19.8985C14.0714 20.7696 15.6147 21.2345 17.1934 21.2345C19.3098 21.2321 21.3387 20.3961 22.8352 18.9099C24.3316 17.4236 25.1734 15.4086 25.1759 13.3068C25.1759 11.7388 24.7077 10.2061 23.8306 8.90234C22.9535 7.59863 21.7068 6.58251 20.2482 5.98247C18.7896 5.38244 17.1846 5.22544 15.6362 5.53134C14.0877 5.83723 12.6654 6.59228 11.549 7.70099C10.4327 8.80971 9.6724 10.2223 9.3644 11.7601C9.05639 13.298 9.21447 14.892 9.81864 16.3406C10.4228 17.7892 11.4459 19.0273 12.7586 19.8985ZM23.9472 13.3067C23.9472 17.0115 20.9232 20.0148 17.1928 20.0148C13.4625 20.0148 10.4385 17.0115 10.4385 13.3067C10.4385 9.60189 13.4625 6.59857 17.1928 6.59857C20.9232 6.59857 23.9472 9.60189 23.9472 13.3067Z" fill="url(#paint0_linear_2689:20675)"/>
<defs>
<linearGradient id="paint0_linear_2689:20675" x1="34.9997" y1="14.1781" x2="3.53475e-05" y2="14.2873" gradientUnits="userSpaceOnUse">
<stop stop-color="#00AAE4"/>
<stop offset="1" stop-color="#8255BE"/>
</linearGradient>
</defs>
</svg>
