<svg width="27" height="26" viewBox="0 0 27 26" fill="none" xmlns="http://www.w3.org/2000/svg">
<path d="M13.7299 1.78982C12.7937 -0.213292 10.797 0.675835 10.797 0.675835C8.61672 -0.942103 6.7788 0.853112 6.7788 0.853112C4.50868 0.0575238 3.56415 2.08156 3.56415 2.08156C2.28888 2.2241 1.806 2.96967 1.6304 3.61749H15.6833C15.4151 2.03956 13.7299 1.78982 13.7299 1.78982Z" fill="url(#paint0_linear_3004:24929)"/>
<path d="M24.2085 25.9999L25.747 15.1901H18.0136L17.1864 25.9999H24.2085Z" fill="url(#paint1_linear_3004:24929)"/>
<path d="M13.4182 22.5742H15.9206L17.2548 5.14112H14.0853L13.4182 22.5742Z" fill="url(#paint2_linear_3004:24929)"/>
<path d="M12.5611 5.14112H9.38934V22.5742H11.894L12.5611 5.14112Z" fill="url(#paint3_linear_3004:24929)"/>
<path d="M7.8657 5.14112H4.69396L5.36102 22.5742H7.8657V5.14112Z" fill="url(#paint4_linear_3004:24929)"/>
<path d="M3.83662 22.5742L3.1695 5.14112H0L1.33417 22.5742H3.83662Z" fill="url(#paint5_linear_3004:24929)"/>
<path d="M15.6584 26L15.804 24.0975H1.45055L1.59614 26H15.6584Z" fill="url(#paint6_linear_3004:24929)"/>
<path d="M20.2369 11.7647H18.2761L18.1305 13.6672H25.5733L24.9485 11.7647H21.7603V9.89322L26.0021 8.0388L25.3919 6.64292L20.2369 8.89659V11.7647Z" fill="url(#paint7_linear_3004:24929)"/>
<defs>
<linearGradient id="paint0_linear_3004:24929" x1="26.0021" y1="14.2251" x2="-9.77501e-05" y2="14.2831" gradientUnits="userSpaceOnUse">
<stop stop-color="#00AAE4"/>
<stop offset="1" stop-color="#8255BE"/>
</linearGradient>
<linearGradient id="paint1_linear_3004:24929" x1="26.0021" y1="14.2251" x2="-9.77501e-05" y2="14.2831" gradientUnits="userSpaceOnUse">
<stop stop-color="#00AAE4"/>
<stop offset="1" stop-color="#8255BE"/>
</linearGradient>
<linearGradient id="paint2_linear_3004:24929" x1="26.0021" y1="14.2251" x2="-9.77501e-05" y2="14.2831" gradientUnits="userSpaceOnUse">
<stop stop-color="#00AAE4"/>
<stop offset="1" stop-color="#8255BE"/>
</linearGradient>
<linearGradient id="paint3_linear_3004:24929" x1="26.0021" y1="14.2251" x2="-9.77501e-05" y2="14.2831" gradientUnits="userSpaceOnUse">
<stop stop-color="#00AAE4"/>
<stop offset="1" stop-color="#8255BE"/>
</linearGradient>
<linearGradient id="paint4_linear_3004:24929" x1="26.0021" y1="14.2251" x2="-9.77501e-05" y2="14.2831" gradientUnits="userSpaceOnUse">
<stop stop-color="#00AAE4"/>
<stop offset="1" stop-color="#8255BE"/>
</linearGradient>
<linearGradient id="paint5_linear_3004:24929" x1="26.0021" y1="14.2251" x2="-9.77501e-05" y2="14.2831" gradientUnits="userSpaceOnUse">
<stop stop-color="#00AAE4"/>
<stop offset="1" stop-color="#8255BE"/>
</linearGradient>
<linearGradient id="paint6_linear_3004:24929" x1="26.0021" y1="14.2251" x2="-9.77501e-05" y2="14.2831" gradientUnits="userSpaceOnUse">
<stop stop-color="#00AAE4"/>
<stop offset="1" stop-color="#8255BE"/>
</linearGradient>
<linearGradient id="paint7_linear_3004:24929" x1="26.0021" y1="14.2251" x2="-9.77501e-05" y2="14.2831" gradientUnits="userSpaceOnUse">
<stop stop-color="#00AAE4"/>
<stop offset="1" stop-color="#8255BE"/>
</linearGradient>
</defs>
</svg>
