<svg width="24" height="24" viewBox="0 0 24 24" fill="none" xmlns="http://www.w3.org/2000/svg">
<path d="M0 6.34095C0.224956 5.27241 0.393673 4.14763 1.0123 3.19156C2.36204 0.942003 4.49912 0.0984183 6.97364 0.0421793C10.348 -0.0140598 13.6661 -0.0140598 17.0404 0.0421793C19.29 0.0984183 21.3146 0.829525 22.7206 2.79789C23.6204 4.09139 23.9578 5.49736 23.9578 7.01582C24.0141 10.2214 24.0141 13.4271 23.9578 16.6889C23.9016 19.2759 23.0018 21.4692 20.5835 22.819C19.4587 23.4376 18.2214 23.7188 16.9842 23.7188C13.6661 23.775 10.348 23.775 7.08612 23.7188C4.6116 23.6626 2.47452 22.819 1.06854 20.5694C0.449912 19.6134 0.281195 18.4886 0.056239 17.42C0 13.7083 0 10.0527 0 6.34095ZM11.9789 2.29174C10.348 2.29174 8.71705 2.2355 7.02988 2.29174C4.49912 2.40422 2.92443 3.58524 2.47452 5.77856C2.36204 6.22847 2.3058 6.73462 2.3058 7.18453C2.3058 10.2777 2.24956 13.4271 2.3058 16.5202C2.36204 19.6134 3.93673 21.2443 6.9174 21.3568C10.2917 21.4692 13.6661 21.4692 17.0404 21.3568C19.5149 21.3005 20.9772 20.0633 21.4833 17.9262C21.5958 17.5325 21.652 17.1388 21.652 16.7452C21.652 13.2021 21.877 9.65905 21.5395 6.11599C21.3708 4.03515 19.9648 2.62917 17.884 2.34798C15.9156 2.17926 13.9473 2.34798 11.9789 2.29174Z" fill="#328AD6"/>
<path d="M18.1653 11.9086C18.1653 15.2267 15.4096 17.9824 11.979 18.0387C8.54844 18.0949 5.73649 15.283 5.73649 11.8524C5.73649 8.47803 8.60468 5.66608 11.979 5.72232C15.4658 5.77856 18.1653 8.53427 18.1653 11.9086ZM15.8595 11.9086C15.8595 9.77153 14.1161 8.02812 11.979 8.02812C9.84194 8.02812 8.04229 9.77153 8.04229 11.9086C8.04229 14.0457 9.7857 15.7891 11.9228 15.7891C14.0599 15.7329 15.8595 13.9895 15.8595 11.9086Z" fill="#328AD6"/>
<path d="M18.3341 4.0914C19.1777 4.0914 19.8526 4.76627 19.8526 5.55362C19.8526 6.34096 19.1777 7.01583 18.3904 7.01583C17.5468 7.01583 16.8719 6.3972 16.8157 5.55362C16.8157 4.76627 17.4906 4.0914 18.3341 4.0914Z" fill="#328AD6"/>
</svg>
