<svg width="27" height="19" viewBox="0 0 27 19" fill="none" xmlns="http://www.w3.org/2000/svg">
<path d="M26.8034 7.59817C26.4907 7.25699 25.9789 7.22856 25.6377 7.54131L15.5445 16.4119L2.8357 14.5923L1.98276 11.9482L14.2367 13.7109C14.4926 13.7394 14.72 13.6825 14.8906 13.5119L26.4054 3.36189C26.6612 3.16287 26.7465 2.82169 26.6612 2.50895C26.5759 2.22463 26.3201 1.96875 26.0073 1.94032L12.474 0.00698145C12.2465 -0.02145 11.9906 0.0354125 11.82 0.206001L0.276875 10.356C0.0209924 10.5835 -0.0643018 10.9246 0.0494239 11.209L1.44256 15.5874C1.52786 15.8717 1.78374 16.0992 2.09649 16.156L15.6867 18.0894H15.8004C15.9995 18.0894 16.17 18.0325 16.3406 17.8903L26.7465 8.76386C27.0593 8.45111 27.0877 7.93935 26.8034 7.59817ZM10.9671 5.03934L12.9004 3.33346C13.0426 3.21973 13.2985 3.13444 13.4975 3.16287L20.4063 4.15797C20.6053 4.1864 20.6622 4.30013 20.5201 4.41385L18.5867 6.11974C18.4446 6.23346 18.1887 6.31876 17.9612 6.29033L11.0524 5.29523C10.8818 5.26679 10.8249 5.15307 10.9671 5.03934Z" fill="url(#paint0_linear_3004:25065)"/>
<defs>
<linearGradient id="paint0_linear_3004:25065" x1="27" y1="9.89706" x2="6.32076e-05" y2="9.9869" gradientUnits="userSpaceOnUse">
<stop stop-color="#00AAE4"/>
<stop offset="1" stop-color="#8255BE"/>
</linearGradient>
</defs>
</svg>
