<svg width="31" height="21" viewBox="0 0 31 21" fill="none" xmlns="http://www.w3.org/2000/svg">
<path fill-rule="evenodd" clip-rule="evenodd" d="M27.5903 13.1748C20.7334 20.0318 9.61601 20.0318 2.75903 13.1748C9.61601 6.31783 20.7334 6.31783 27.5903 13.1748ZM1.37952 11.7953L0 13.1748L1.37952 14.5543C8.99838 22.1732 21.351 22.1732 28.9699 14.5543L30.3494 13.1748L28.9699 11.7953C21.351 4.17642 8.99838 4.17642 1.37952 11.7953Z" fill="url(#paint0_linear_656_6631)"/>
<path fill-rule="evenodd" clip-rule="evenodd" d="M19.0443 10.0594C18.8691 10.0205 18.6869 10 18.5 10C17.1193 10 16 11.1193 16 12.5C16 13.8807 17.1193 15 18.5 15C18.9378 15 19.3494 14.8874 19.7073 14.6897C19.0144 16.6196 17.1684 18 15 18C12.2386 18 10 15.7614 10 13C10 10.2386 12.2386 8 15 8C16.6623 8 18.1352 8.81124 19.0443 10.0594Z" fill="url(#paint1_linear_656_6631)"/>
<path d="M28 3L28.8103 5.18973L31 6L28.8103 6.81027L28 9L27.1897 6.81027L25 6L27.1897 5.18973L28 3Z" fill="url(#paint2_linear_656_6631)"/>
<path d="M24 0L24.5402 1.45982L26 2L24.5402 2.54018L24 4L23.4598 2.54018L22 2L23.4598 1.45982L24 0Z" fill="url(#paint3_linear_656_6631)"/>
<defs>
<linearGradient id="paint0_linear_656_6631" x1="23.4771" y1="6.3025" x2="8.33615" y2="21.5111" gradientUnits="userSpaceOnUse">
<stop stop-color="#00AAE4"/>
<stop offset="1" stop-color="#8255BE"/>
</linearGradient>
<linearGradient id="paint1_linear_656_6631" x1="19.7073" y1="13.4712" x2="9.99996" y2="13.4922" gradientUnits="userSpaceOnUse">
<stop stop-color="#00AAE4"/>
<stop offset="1" stop-color="#8255BE"/>
</linearGradient>
<linearGradient id="paint2_linear_656_6631" x1="31" y1="6.28272" x2="25" y2="6.2961" gradientUnits="userSpaceOnUse">
<stop stop-color="#00AAE4"/>
<stop offset="1" stop-color="#8255BE"/>
</linearGradient>
<linearGradient id="paint3_linear_656_6631" x1="26" y1="2.18848" x2="22" y2="2.1974" gradientUnits="userSpaceOnUse">
<stop stop-color="#00AAE4"/>
<stop offset="1" stop-color="#8255BE"/>
</linearGradient>
</defs>
</svg>
