<svg width="34" height="19" viewBox="0 0 34 19" fill="none" xmlns="http://www.w3.org/2000/svg">
<path d="M33.5882 7.71646L28.3719 1.90654C27.5708 1.01736 26.5187 0.400235 25.3588 0.139324C24.199 -0.121588 22.988 -0.0135893 21.891 0.448593C21.6989 0.529475 21.5244 0.647954 21.3776 0.797251C21.2307 0.946548 21.1143 1.12373 21.0351 1.31867C20.9558 1.5136 20.9153 1.72246 20.9158 1.93328C20.9163 2.14411 20.9578 2.35278 21.0379 2.54733C21.118 2.74189 21.2352 2.91852 21.3828 3.06712C21.5303 3.21572 21.7054 3.33338 21.8978 3.41335C22.0903 3.49332 22.2964 3.53405 22.5044 3.53319C22.7125 3.53233 22.9183 3.48991 23.1101 3.40836C23.6045 3.20025 24.1501 3.15159 24.6728 3.269C25.1955 3.38641 25.6697 3.66418 26.0311 4.06452L29.1214 7.50652C28.5886 7.48023 28.0559 7.46355 27.5232 7.46355C25.4937 7.46046 23.4688 7.66223 21.4787 8.06588C20.0032 8.3666 18.4933 9.04757 17.0566 9.04757C17.0376 9.04757 17.0189 9.04742 17 9.04717C16.9811 9.04741 16.9622 9.04757 16.9434 9.04757C15.5066 9.04757 13.9968 8.36665 12.5213 8.06588C10.5311 7.66228 8.5063 7.46051 6.47673 7.46355C5.94401 7.46355 5.41128 7.48023 4.87856 7.50652L7.96886 4.06452C8.33013 3.66406 8.80441 3.3862 9.3271 3.26878C9.8498 3.15137 10.3955 3.20011 10.8899 3.40836C11.0817 3.48991 11.2875 3.53233 11.4955 3.53319C11.7035 3.53405 11.9097 3.49332 12.1021 3.41335C12.2946 3.33338 12.4696 3.21572 12.6172 3.06712C12.7647 2.91852 12.8819 2.74189 12.9621 2.54733C13.0422 2.35278 13.0837 2.14411 13.0842 1.93328C13.0847 1.72246 13.0441 1.5136 12.9649 1.31867C12.8857 1.12373 12.7693 0.946548 12.6224 0.797251C12.4755 0.647954 12.301 0.529475 12.1089 0.448593C11.0119 -0.0137926 9.80091 -0.121899 8.64106 0.139022C7.48121 0.399944 6.42902 1.01719 5.62804 1.90654L0.411779 7.71646C0.271964 7.87223 0.163792 8.0544 0.0934426 8.25254C0.0230929 8.45069 -0.00805735 8.66095 0.00177102 8.8713C0.0115994 9.08165 0.0622139 9.28798 0.150724 9.4785C0.239234 9.66902 0.363905 9.84001 0.51762 9.9817C0.552428 10.0138 0.591444 10.0375 0.628191 10.0659C0.630959 10.0677 0.631379 10.0731 0.634262 10.0747C1.2978 10.4404 1.64438 11.8873 1.79262 13.0751C2.14688 15.9142 3.23003 18.0551 6.28636 18.6842C7.1723 18.8798 8.07523 18.9855 8.98183 19C10.8657 19 12.5782 18.4068 13.9122 16.58C14.5666 15.6837 14.6647 13.747 15.2292 12.7586C15.3942 12.4804 15.5916 12.2234 15.8173 11.9932C15.9707 11.8325 16.1545 11.7047 16.3577 11.6174C16.5609 11.5301 16.7793 11.4851 17 11.4851C17.2207 11.4851 17.4391 11.5301 17.6423 11.6174C17.8455 11.7047 18.0293 11.8325 18.1827 11.9932C18.4084 12.2234 18.6058 12.4804 18.7708 12.7586C19.3353 13.747 19.4333 15.6837 20.0878 16.58C21.4217 18.4066 23.1345 19 25.0182 19C25.9248 18.9856 26.8277 18.8798 27.7136 18.6842C30.7699 18.0551 31.8531 15.9142 32.2074 13.0751C32.3556 11.8873 32.7022 10.4404 33.3657 10.0747C33.3687 10.0731 33.3691 10.0677 33.3719 10.0658C33.4086 10.0375 33.4476 10.0138 33.4824 9.98172C33.6361 9.84004 33.7608 9.66905 33.8493 9.47852C33.9378 9.288 33.9884 9.08167 33.9982 8.87131C34.0081 8.66096 33.9769 8.4507 33.9066 8.25255C33.8362 8.0544 33.728 7.87223 33.5882 7.71646ZM11.5722 13.7719C11.4948 14.0888 11.3813 14.5535 11.3013 14.7618C10.7228 15.5114 10.0823 15.7928 8.98184 15.7928C8.28678 15.7779 7.59487 15.6936 6.91614 15.5411C5.90789 15.3336 5.22518 15.0218 4.93198 12.6727C4.85448 12.0179 4.72874 11.3699 4.55582 10.7342C5.20333 10.692 5.84588 10.6708 6.47677 10.6708C8.2968 10.6687 10.1126 10.8494 11.8974 11.2101C12.0548 11.2422 12.221 11.2825 12.3941 11.3281C12.0217 12.1052 11.7456 12.9261 11.5722 13.7719ZM29.068 12.6726C28.7749 15.0218 28.0921 15.3336 27.0839 15.5411C26.4052 15.6936 25.7132 15.7779 25.0182 15.7928C23.9177 15.7928 23.2771 15.5114 22.6987 14.7617C22.6187 14.5534 22.5052 14.0888 22.4278 13.7719C22.2544 12.9261 21.9783 12.1052 21.6059 11.3281C21.779 11.2825 21.9452 11.2422 22.1025 11.2101C23.8874 10.8493 25.7031 10.6687 27.5232 10.6707C28.1538 10.6707 28.796 10.692 29.4442 10.7343C29.2713 11.37 29.1456 12.0179 29.068 12.6726Z" fill="url(#paint0_linear_3004:25062)"/>
<defs>
<linearGradient id="paint0_linear_3004:25062" x1="34" y1="10.3953" x2="0.000244215" y2="10.5309" gradientUnits="userSpaceOnUse">
<stop stop-color="#00AAE4"/>
<stop offset="1" stop-color="#8255BE"/>
</linearGradient>
</defs>
</svg>
