<svg width="22" height="22" viewBox="0 0 22 22" fill="none" xmlns="http://www.w3.org/2000/svg">
<path d="M20.3281 3.1713C19.8388 2.682 19.1715 2.39278 18.4821 2.39278H16.6139V1.63663C16.6139 1.0584 16.1467 0.613464 15.5907 0.613464H14.8567C14.2785 0.613464 13.8336 1.0806 13.8336 1.63663V2.41514L7.25064 2.41499V1.63663C7.25064 1.05841 6.7835 0.613468 6.22748 0.613468H5.49353C4.9153 0.613468 4.47036 1.08061 4.47036 1.63663V2.41515H2.62436C1.17877 2.41515 0 3.59392 0 5.03951V18.7622C0 20.2078 1.17877 21.3866 2.62436 21.3866H14.9014C15.6353 21.3866 16.3248 21.0974 16.8363 20.5859L20.3282 17.094C20.8397 16.5825 21.1289 15.893 21.1289 15.159V5.03939C21.1067 4.32775 20.8399 3.66064 20.3282 3.17134L20.3281 3.1713ZM1.46771 18.74V7.77518H19.5941V14.7366H15.3461C14.8789 14.7366 14.4787 15.1147 14.4787 15.604V19.8743H2.602C1.97909 19.8521 1.46763 19.3628 1.46763 18.74L1.46771 18.74Z" fill="black"/>
<path d="M6.69436 9.888H3.86972C3.69177 9.888 3.55835 10.0214 3.55835 10.1994V12.5347C3.55835 12.7127 3.69177 12.8461 3.86972 12.8461H6.67204C6.84999 12.8461 6.98341 12.7127 6.98341 12.5347V10.1994C6.98341 10.0438 6.84999 9.888 6.69438 9.888H6.69436Z" fill="black"/>
<path d="M17.2144 12.8461C17.3923 12.8461 17.5257 12.7127 17.5257 12.5347V10.1994C17.5257 10.0214 17.3923 9.888 17.2144 9.888H14.3897C14.2118 9.888 14.0784 10.0214 14.0784 10.1994V12.5347C14.0784 12.7127 14.2118 12.8461 14.3897 12.8461H17.2144Z" fill="black"/>
<path d="M11.9432 9.888H9.1408C8.96285 9.888 8.82944 10.0214 8.82944 10.1994V12.5347C8.82944 12.7127 8.96286 12.8461 9.1408 12.8461H11.9431C12.1211 12.8461 12.2545 12.7127 12.2545 12.5347L12.2546 10.1994C12.2546 10.0438 12.1212 9.888 11.9433 9.888H11.9432Z" fill="black"/>
<path d="M6.69436 14.7144H3.86972C3.69177 14.7144 3.55835 14.8478 3.55835 15.0257V17.3611C3.55835 17.539 3.69177 17.6724 3.86972 17.6724H6.67204C6.84999 17.6724 6.98341 17.539 6.98341 17.3611V15.0259C6.98341 14.8479 6.84999 14.7144 6.69438 14.7144H6.69436Z" fill="black"/>
<path d="M11.9432 14.7144H9.1408C8.96285 14.7144 8.82944 14.8478 8.82944 15.0257V17.3611C8.82944 17.539 8.96286 17.6724 9.1408 17.6724H11.9431C12.1211 17.6724 12.2545 17.539 12.2545 17.3611L12.2546 15.0259C12.2546 14.8479 12.1212 14.7144 11.9433 14.7144H11.9432Z" fill="black"/>
</svg>
