<svg xmlns="http://www.w3.org/2000/svg" width="75" height="75">
    <defs>
        <clipPath id="clip-path">
            <path id="Rect치ngulo_108" data-name="Rect치ngulo 108" style="fill:none" d="M0 0h75v75H0z"/>
        </clipPath>
        <style>
            .cls-4{fill:#ddd}
        </style>
    </defs>
    <g id="dummy-img" transform="translate(-5 -4.89)">
        <g id="Grupo_131" data-name="Grupo 131" transform="translate(5 4.89)">
            <g id="Grupo_130" data-name="Grupo 130" style="clip-path:url(#clip-path)">
                <path id="Rect치ngulo_107" data-name="Rect치ngulo 107" transform="translate(-.313 -.313)" style="fill:#fff" d="M0 0h75.625v75.625H0z"/>
            </g>
        </g>
        <g id="Grupo_132" data-name="Grupo 132" transform="translate(15 14.89)">
            <circle id="Elipse_1" data-name="Elipse 1" class="cls-4" cx="5.625" cy="5.625" r="5.625" transform="translate(7.5 7.5)"/>
            <path id="Trazado_445" data-name="Trazado 445" class="cls-4" d="M88.558 36.89H40.442A3.47 3.47 0 0 0 37 40.388v31.864a.769.769 0 1 0 1.538 0V40.388a1.92 1.92 0 0 1 1.9-1.936h48.12a1.92 1.92 0 0 1 1.9 1.936v17.805a.769.769 0 1 0 1.538 0V40.388a3.47 3.47 0 0 0-3.438-3.498z" transform="translate(-37 -36.89)"/>
            <path id="Trazado_446" data-name="Trazado 446" class="cls-4" d="m91.43 97.681-11.762-14.51a1.561 1.561 0 0 0-1.211-.579 1.564 1.564 0 0 0-1.211.575l-5.688 6.976-8.694 10.129L60.8 98.5l-5.549-5.36a1.563 1.563 0 0 0-2.283.118l-13.8 16.429-2.07 2.277a1.5 1.5 0 0 0-.1.117v8.086a3.143 3.143 0 0 0 3.143 3.143h48.716A3.143 3.143 0 0 0 92 120.167V98.4l-.413-.487a1.559 1.559 0 0 0-.157-.232z" transform="translate(-37 -68.31)"/>
        </g>
    </g>
</svg>
