<svg xmlns="http://www.w3.org/2000/svg" width="280" height="240">
    <defs>
        <style>
            .cls-9{fill:#888}.cls-3{fill:#585858}.cls-4{fill:#fff}.cls-8{fill:#fabb19}.cls-10{fill:#fde8b3}.cls-11{fill:#00a2fd}.cls-12{fill:#343127}.cls-14{fill:#fcd128}.cls-17{fill:#131f2c}
        </style>
    </defs>
    <g id="graphic-done" transform="translate(-37.399 -13.835)">
        <path id="Trazado_456" data-name="Trazado 456" d="m52.288 245.694 94.229-1.657 45.254-.8a10.837 10.837 0 0 0 1.976-.221q-.15-4.079-.337-8.243l-.2-4.407a9.9 9.9 0 0 1-7.53 3.69l-127.189 2.239a9.919 9.919 0 0 1-10.09-9.711L47.153 51.645a4.385 4.385 0 0 1 4.219-4.414l32.887-1.258.656-5.623a10.9 10.9 0 0 1 1.066-3.588l-38.123 1.46A10.874 10.874 0 0 0 37.4 49.309l3.821 185.736a10.878 10.878 0 0 0 11.067 10.649z" transform="translate(0 -1.478)" style="opacity:.902;fill:#888"/>
        <path id="Trazado_457" data-name="Trazado 457" d="m88.121 39.839-.656 5.623-.094.8a4.185 4.185 0 0 0 3.674 4.638 4.245 4.245 0 0 0 .617.025l23.819-.757 40.909-1.3a5.27 5.27 0 0 0 5.1-5.434c0-.127-.012-.254-.025-.381l-.044-.416-.469-4.491a10.373 10.373 0 0 0-10.584-9.292l-6.5.165-45.154 1.139a10.971 10.971 0 0 0-10.593 9.682z" transform="translate(-3.206 -.968)" style="opacity:.902;fill:#585858"/>
        <path id="Trazado_458" data-name="Trazado 458" class="cls-3" d="m74.026 165.773 20.72 1.426q.281.02.561.02h.007a7.969 7.969 0 0 0 7.959-7.726l.606-19.141a7.014 7.014 0 0 0-1.6-4.67l-3.97 6.15-.554 17.485a2.466 2.466 0 0 1-2.632 2.38L74.4 160.271a2.183 2.183 0 0 1-2.027-2.17v-16.995a1.707 1.707 0 0 1 1.659-1.712l22.625-.722 4.118-4.343a7 7 0 0 0-4.105-1.178l-22.81.729a7.206 7.206 0 0 0-7 7.227V158.1a7.718 7.718 0 0 0 7.166 7.673z" transform="translate(-1.891 -7.692)"/>
        <path id="Trazado_459" data-name="Trazado 459" class="cls-4" d="M273.727 176.873c-.811-7.354-6.2-9.945-7.868-11.489a3.651 3.651 0 0 1-1.068-1.222 4.811 4.811 0 0 1-1.306.2c-.134.039-.269.085-.4.12-.156.037-.906-.62-2.237-1.957 1.06 8.39 1.63 17.514 1.93 25.542l.141.1c5.455-2.157 11.333-6.53 10.808-11.294z" transform="translate(-14.344 -9.586)"/>
        <path id="Trazado_460" data-name="Trazado 460" class="cls-4" d="M201.231 257.234a10.844 10.844 0 0 1-1.976.221l-45.254.8a119.485 119.485 0 0 0 47.625 11.231c-.114-3.986-.241-8.079-.395-12.252z" transform="translate(-7.485 -15.692)"/>
        <path id="Trazado_461" data-name="Trazado 461" class="cls-4" d="M154.247 27.881a10.374 10.374 0 0 1 8.964 4.716l41.459-1.589a10.874 10.874 0 0 1 11.279 10.454c.009.259.01.519 0 .778l-1.04 30.595c7.248-4.56 16.013-3.331 16.013-3.331 17.5 2.766 15.7 10.552 15.7 10.552-.036.059-.073.111-.11.168l.386-.276c3.771 1.893 3.843 5.286 3.6 9.137a27.4 27.4 0 0 1-1.01 4.943l51.968 9.768 5.611 1.056 10.967 2.061-5.194 33.96-19.567-2.61-28.939-3.861c1.718 1.438 7.871 7.218 7.871 7.218l-.051.063c.306.567-.073 1.586-.976 2.844 7.708 10.718 10.791 20.512 9.153 29.111-2.142 11.239-13.384 18.471-20.987 21.383a4.2 4.2 0 0 1-3.508.444c0 3.5-.041 5.607-.041 5.607l-.06-.024a.777.777 0 0 1 0 .08c-.1.819-1.742 1.324-4.52 1.552l8.211 37.849a120.02 120.02 0 0 0 64.786-98.667c-5.75-.4-11.373-.99-11.373-.99l5.194-33.963s1.413.181 3.535.539A120.1 120.1 0 0 0 147.75 28.045z" transform="translate(-7.084)"/>
        <path id="Trazado_462" data-name="Trazado 462" d="M200.855 41.527a8.3 8.3 0 0 1 8.613 7.975c.007.2.008.4 0 .6l-1.261 37.153 6.78 1.274q.045-1.336.08-2.673c-4.616-1.892-6.837-4.831-2.2-9.4a18.468 18.468 0 0 1 3.1-2.439l1.04-30.595c.008-.259.007-.519 0-.778a10.874 10.874 0 0 0-11.279-10.454l-41.456 1.59a10.336 10.336 0 0 1 1.62 4.576l.469 4.491z" transform="translate(-8.145 -1.183)" style="opacity:.897;fill:#888"/>
        <path id="Trazado_463" data-name="Trazado 463" d="m192.671 197.941-.08-.654c-2.069-.871-3.2-1.708-3.111-2.436v-.016a280.508 280.508 0 0 1 7.156-45.974c-.014-.013-.031-.026-.044-.04-1-1.015-19.058-3.742-19.2-5.881a27.011 27.011 0 0 1 .172-4.721 35.427 35.427 0 0 1-11.855-14.286l-40.521-5.406s-12.992-8.893-23.031-16.7l-.112 3.542a7.969 7.969 0 0 1-7.959 7.726h-.007q-.279 0-.561-.02l-13.22-.91-7.5-.516a7.718 7.718 0 0 1-7.167-7.671V86.982a7.206 7.206 0 0 1 7-7.227l19.493-.622 3.319-.107a7.023 7.023 0 0 1 4.1 1.18l1.847-1.948a.767.767 0 0 1 1.1 1.057l-1.449 2.243a7.016 7.016 0 0 1 1.254 2.3c10.921-4.688 25.6-9.619 25.653-9.636l33.986 6.388c.4-1.176.845-2.28 1.042-3.057.5-1.972 1.976-1.965 3.992-1.4a2.948 2.948 0 0 1 3.369.281c.415.333 1.416-.415 1.8-.374a7.164 7.164 0 0 1 2.8.943h.01s3.482-.82 3.556 2.843a14.51 14.51 0 0 1-.5 3.793l22.719 4.27 1.261-37.153c.007-.2.007-.4 0-.6a8.3 8.3 0 0 0-8.613-7.975l-34.495 1.32.044.416c.013.126.022.254.025.381a5.27 5.27 0 0 1-5.1 5.434l-40.909 1.3-23.819.757a4.245 4.245 0 0 1-.617-.025 4.185 4.185 0 0 1-3.674-4.637l.094-.8-32.878 1.253a4.385 4.385 0 0 0-4.219 4.414l1.248 174.938a9.919 9.919 0 0 0 10.09 9.711l127.185-2.237a9.9 9.9 0 0 0 7.53-3.69c-.587-13.482-.965-24.51-1.204-32.775zm-93.24 8.409a7.906 7.906 0 0 1-5.339 2.058h-.007q-.279 0-.561-.02L72.8 206.96a7.719 7.719 0 0 1-7.167-7.671V182.3a7.206 7.206 0 0 1 7-7.227l11.856-.379 10.956-.35a7.01 7.01 0 0 1 4.1 1.179l1.848-1.948a.767.767 0 0 1 1.1 1.057l-1.449 2.244a7.009 7.009 0 0 1 1.6 4.67l-.606 19.141a7.9 7.9 0 0 1-1.722 4.7 7.9 7.9 0 0 1-.885.963zm-33.794-71.109a7.206 7.206 0 0 1 7-7.227l22.81-.729a7 7 0 0 1 4.105 1.178l1.848-1.948a.767.767 0 0 1 1.1 1.057l-1.45 2.245a7.014 7.014 0 0 1 1.6 4.67l-.606 19.141a7.969 7.969 0 0 1-7.959 7.726h-.007q-.279 0-.561-.02L72.8 159.907a7.718 7.718 0 0 1-7.167-7.671zm116.34 23.84.18 1.432a2.542 2.542 0 0 1-2.2 2.839 2.583 2.583 0 0 1-.38.019h-.007l-59.142-1.432a2.542 2.542 0 0 1 .062-5.083h58.96a2.544 2.544 0 0 1 2.527 2.225zm-61.491 34.544h58.964a2.544 2.544 0 0 1 2.528 2.225l.18 1.432a2.542 2.542 0 0 1-2.2 2.839 2.461 2.461 0 0 1-.38.019h-.007l-59.142-1.432a2.542 2.542 0 0 1 .062-5.083zm61.491-8.8.18 1.432a2.543 2.543 0 0 1-2.2 2.839 2.463 2.463 0 0 1-.38.019h-.007l-59.142-1.432a2.542 2.542 0 0 1 .062-5.083h58.96a2.544 2.544 0 0 1 2.527 2.229zm0-36.769.18 1.432a2.542 2.542 0 0 1-2.2 2.838 2.573 2.573 0 0 1-.379.019h-.007l-59.142-1.432a2.542 2.542 0 0 1 .062-5.083h58.959a2.544 2.544 0 0 1 2.527 2.23z" transform="translate(-.669 -1.826)" style="fill:#ddd"/>
        <path id="Trazado_464" data-name="Trazado 464" class="cls-4" d="m93.3 200.857-3.647 5.643c-1.762 2.732-4.759 3.868-6.192.949L75.71 194.2a.953.953 0 0 1 1.461-1.183s1.689 1.914 2.631 2.913c3.473 3.68 4.027 6.8 10.124.92l.908-.957 6.2-6.539-8.916.284-13.709.438a1.705 1.705 0 0 0-1.659 1.712v16.994a2.182 2.182 0 0 0 2.027 2.17l20.723 1.424A2.466 2.466 0 0 0 98.131 210l.022-.734.532-16.75z" transform="translate(-2.27 -11.315)"/>
        <path id="Trazado_465" data-name="Trazado 465" class="cls-4" d="M83.46 157.153 75.71 143.9a.949.949 0 0 1-.044-.847.959.959 0 0 1 .158-.251.97.97 0 0 1 .3-.229.956.956 0 0 1 1.045.143s1.689 1.914 2.631 2.913c3.473 3.68 4.027 6.8 10.124.92l7.111-7.5-22.625.722a1.707 1.707 0 0 0-1.659 1.712v16.995a2.183 2.183 0 0 0 2.027 2.17l20.722 1.431a2.466 2.466 0 0 0 2.632-2.38l.554-17.485-9.033 13.986c-1.762 2.736-4.76 3.872-6.193.953z" transform="translate(-2.27 -8.073)"/>
        <path id="Trazado_466" data-name="Trazado 466" class="cls-4" d="m94.586 96.981-4.934 7.641c-1.572 2.437-4.124 3.6-5.674 1.747a3.945 3.945 0 0 1-.518-.8l-7.75-13.252a.953.953 0 0 1 1.461-1.183s1.689 1.914 2.631 2.913c2.763 2.928 3.687 5.486 7.017 3.452a18.873 18.873 0 0 0 3.107-2.533l7.111-7.5-6.12.2-16.506.527a1.707 1.707 0 0 0-1.658 1.707v17a2.183 2.183 0 0 0 2.027 2.17l8.34.574 12.38.856a2.466 2.466 0 0 0 2.632-2.38l.244-7.712c-1.488-1.26-2.784-2.422-3.79-3.427z" transform="translate(-2.27 -4.747)"/>
        <path id="Trazado_467" data-name="Trazado 467" d="M101.935 88.292c1.2-.562 2.5-1.139 3.848-1.719a7.016 7.016 0 0 0-1.254-2.3z" transform="translate(-4.143 -4.541)" style="fill:#eaeaea"/>
        <path id="Trazado_468" data-name="Trazado 468" class="cls-3" d="m98.393 100.359-.393-.334-.244 7.712a2.466 2.466 0 0 1-2.632 2.38l-12.379-.852-8.34-.574a2.183 2.183 0 0 1-2.027-2.17V89.523a1.707 1.707 0 0 1 1.659-1.712l16.506-.527 6.12-.2 4.118-4.343a7.023 7.023 0 0 0-4.1-1.18l-3.319.107-19.493.622a7.206 7.206 0 0 0-7 7.227v16.995a7.718 7.718 0 0 0 7.167 7.671l7.5.516 13.22.91q.281.02.561.02h.007a7.969 7.969 0 0 0 7.959-7.726l.112-3.542a157.043 157.043 0 0 1-5.002-4.002z" transform="translate(-1.891 -4.366)"/>
        <path id="Trazado_469" data-name="Trazado 469" class="cls-8" d="m97.232 87.024-7.111 7.5a18.872 18.872 0 0 1-3.107 2.533c-3.33 2.03-4.254-.528-7.014-3.457-.942-1-2.631-2.913-2.631-2.913a.953.953 0 0 0-1.469 1.184l7.75 13.253a3.945 3.945 0 0 0 .518.8c1.55 1.85 4.1.69 5.674-1.747l4.934-7.641c-1.422-1.421-2.275-2.532-2.3-3.171a.837.837 0 0 1 .022-.162.72.72 0 0 1 .009-.074c.338-1.224 3.447-3.061 7.736-5.073l2.594-4.018 1.449-2.243a.767.767 0 0 0-1.1-1.057l-1.847 1.948z" transform="translate(-2.464 -4.301)"/>
        <path id="Trazado_470" data-name="Trazado 470" class="cls-8" d="M90.12 146.1c-6.1 5.881-6.651 2.761-10.124-.92-.942-1-2.631-2.913-2.631-2.913a.956.956 0 0 0-1.045-.143.97.97 0 0 0-.3.229.959.959 0 0 0-.158.251.949.949 0 0 0 .044.847l7.75 13.253c1.433 2.92 4.43 1.783 6.192-.949l9.032-13.99 3.97-6.15 1.45-2.245a.767.767 0 0 0-1.1-1.057l-1.848 1.948-4.118 4.343z" transform="translate(-2.464 -7.627)"/>
        <path id="Trazado_471" data-name="Trazado 471" class="cls-3" d="m103.273 209.791.606-19.141a7.009 7.009 0 0 0-1.6-4.67l-3.971 6.151-.532 16.75-.022.734A2.466 2.466 0 0 1 95.12 212l-20.72-1.432a2.182 2.182 0 0 1-2.027-2.17V191.4a1.705 1.705 0 0 1 1.659-1.712l13.709-.438 8.916-.284 4.118-4.343a7.011 7.011 0 0 0-4.1-1.179l-10.956.35-11.856.379a7.206 7.206 0 0 0-7 7.227v17a7.719 7.719 0 0 0 7.167 7.671l20.72 1.427q.281.02.561.02h.007a7.9 7.9 0 0 0 6.237-3.026 7.9 7.9 0 0 0 1.718-4.701z" transform="translate(-1.891 -10.935)"/>
        <path id="Trazado_472" data-name="Trazado 472" class="cls-8" d="m97.232 188.9-6.2 6.539-.908.957c-6.1 5.881-6.651 2.761-10.124-.92-.942-1-2.631-2.913-2.631-2.913a.953.953 0 0 0-1.461 1.183L83.655 207c1.433 2.92 4.43 1.783 6.192-.949l3.644-5.645 5.387-8.345 3.971-6.151 1.449-2.244a.767.767 0 0 0-1.1-1.057l-1.848 1.948z" transform="translate(-2.464 -10.869)"/>
        <path id="Trazado_473" data-name="Trazado 473" class="cls-9" d="M125.3 192.282a2.542 2.542 0 0 0-.062 5.083l59.142 1.432h.007a2.465 2.465 0 0 0 .38-.019 2.542 2.542 0 0 0 2.2-2.839l-.18-1.432a2.544 2.544 0 0 0-2.528-2.225z" transform="translate(-5.479 -11.504)"/>
        <path id="Trazado_474" data-name="Trazado 474" class="cls-9" d="M122.754 206.6a2.542 2.542 0 0 0 2.481 2.541l59.142 1.432h.007a2.459 2.459 0 0 0 .38-.019 2.542 2.542 0 0 0 2.2-2.839l-.18-1.432a2.544 2.544 0 0 0-2.528-2.225H125.3a2.542 2.542 0 0 0-2.546 2.542z" transform="translate(-5.479 -12.264)"/>
        <path id="Trazado_475" data-name="Trazado 475" class="cls-9" d="M125.3 152.979a2.542 2.542 0 0 0-.062 5.083l59.142 1.432h.007a2.57 2.57 0 0 0 .379-.019 2.542 2.542 0 0 0 2.2-2.838l-.18-1.432a2.544 2.544 0 0 0-2.528-2.225z" transform="translate(-5.479 -8.971)"/>
        <path id="Trazado_476" data-name="Trazado 476" class="cls-9" d="M125.3 164.76a2.542 2.542 0 0 0-.062 5.083l59.142 1.432h.007a2.585 2.585 0 0 0 .38-.019 2.542 2.542 0 0 0 2.2-2.839l-.18-1.432a2.544 2.544 0 0 0-2.528-2.225z" transform="translate(-5.479 -9.73)"/>
        <path id="Trazado_477" data-name="Trazado 477" class="cls-10" d="M188.674 131.576s1.6.206 3.858.491l-18.729-2.5a35.427 35.427 0 0 0 11.855 14.286 51.352 51.352 0 0 1 3.016-12.277z" transform="translate(-8.756 -7.461)"/>
        <path id="Trazado_478" data-name="Trazado 478" class="cls-11" d="m308.434 109.325 5.608 1.054-5.611-1.056-51.968-9.768z" transform="translate(-14.063 -5.526)"/>
        <path id="Trazado_517" data-name="Trazado 517" class="cls-11" d="M0 0h.017L0 19.74h-.013z" transform="rotate(-81.2 223.687 -97.927)"/>
        <path id="Trazado_479" data-name="Trazado 479" class="cls-12" d="m222.621 124.618-.12-.013.013-.7c-.388.06-.761.112-1.092.148a6.815 6.815 0 0 1-1.872 0 5.245 5.245 0 0 1-1.521-.726s-1.529-.991-2.835-4.134l-77.37-11.824a37.847 37.847 0 0 1-1.669 6.01l86.307 13.19a7.522 7.522 0 0 0 .159-1.951z" transform="translate(-6.34 -6.03)"/>
        <path id="Trazado_480" data-name="Trazado 480" class="cls-12" d="m301.106 121.6 1.765-8.5-48.491-8.7a31.406 31.406 0 0 1-3.161 6.653c-.284.383-.586.751-.882 1.123z" transform="translate(-13.669 -5.839)"/>
        <path id="Trazado_481" data-name="Trazado 481" class="cls-12" d="M243.8 123.552c-.029 2.591.054 5.09.943 5.991a36.5 36.5 0 0 1 6.48 1.408l46.306 7.076 1.261-6.073z" transform="translate(-13.25 -7.073)"/>
        <path id="Trazado_482" data-name="Trazado 482" class="cls-12" d="M181.456 91.256c-.747.925-1.5 1.2-2.025.312a1.983 1.983 0 0 1-.139-.7l-1.176-.211c-.681 1.6-1.575 3-2.516 2.484-.778-.428-.99-1.711-.968-3.109l-1.481-.266c-.6.806-1.22 1.254-1.743.7a2.561 2.561 0 0 1-.574-1.117l-2.388-.428a.787.787 0 0 1-.746-.134L136.02 83.1a52.541 52.541 0 0 1 1.98 8.208l75.512 14.022a27.263 27.263 0 0 1-.453-6.6c-.01-.6 0-1.2 0-1.8z" transform="translate(-6.331 -4.466)"/>
        <path id="Trazado_483" data-name="Trazado 483" class="cls-11" d="m216.444 92.03-6.78-1.274-22.719-4.27z" transform="translate(-9.6 -4.684)"/>
        <path id="Trazado_484" data-name="Trazado 484" class="cls-11" d="m133.463 76.434 33.981 6.387-33.986-6.388z" transform="translate(-6.167 -4.035)"/>
        <path id="Trazado_485" data-name="Trazado 485" d="M245.2 117.143c.227-.635.41-1.25.569-1.852-.262.851-.461 1.497-.569 1.852z" transform="translate(-13.34 -6.541)" style="fill:#016db8"/>
        <path id="Trazado_486" data-name="Trazado 486" class="cls-8" d="M243.843 119.1c.016 1.151-.024 2.461-.039 3.751l54.99 8.4 1.893-9.116-50.769-9.427a39.2 39.2 0 0 1-5.271 5.447c.083-.192.147-.377.222-.566a5.57 5.57 0 0 1-1.026 1.511z" transform="translate(-13.25 -6.375)"/>
        <path id="Trazado_487" data-name="Trazado 487" class="cls-8" d="M138.128 91.874a42.265 42.265 0 0 1-.189 14.5l77.37 11.824a20.312 20.312 0 0 1-1.008-3.164 57.247 57.247 0 0 1-.532-8.722 7.597 7.597 0 0 1-.128-.412z" transform="translate(-6.454 -5.031)"/>
        <path id="Trazado_488" data-name="Trazado 488" class="cls-8" d="m303.149 112.791.887-4.271 4.282.805-51.971-9.769a27.457 27.457 0 0 1-1.271 3.457l-.418 1.076z" transform="translate(-13.947 -5.526)"/>
        <path id="Trazado_489" data-name="Trazado 489" class="cls-14" d="M186.792 86.486a14.208 14.208 0 0 1-2.219 4.988l31.608 5.673c0-.45-.006-.9 0-1.35.022-1.257.064-2.514.106-3.769z" transform="translate(-9.448 -4.684)"/>
        <path id="Trazado_490" data-name="Trazado 490" class="cls-14" d="M177.814 85.626a21.168 21.168 0 0 1-2.116 4.3l1.481.266a24.014 24.014 0 0 1 .635-4.566z" transform="translate(-8.878 -4.628)"/>
        <path id="Trazado_491" data-name="Trazado 491" class="cls-14" d="M173.351 84.565s-1.289 3.969-2.681 4.45l2.388.428a11.643 11.643 0 0 1 .293-4.878z" transform="translate(-8.555 -4.56)"/>
        <path id="Trazado_492" data-name="Trazado 492" class="cls-14" d="M182.18 91.129a37.824 37.824 0 0 1 .06-3.977 28.35 28.35 0 0 1-1.24 3.766z" transform="translate(-9.219 -4.727)"/>
        <path id="Trazado_493" data-name="Trazado 493" class="cls-8" d="M167.536 88.357a1.241 1.241 0 0 1-.223-.183c-1.064-1.183-.538-3.373.131-5.356l-33.982-6.388a62.4 62.4 0 0 1 2.392 6.238z" transform="translate(-6.167 -4.035)"/>
        <path id="Trazado_494" data-name="Trazado 494" class="cls-8" d="M189.753 131.05c5.453.688 14.8 1.84 15.168 1.715 2.433-.829 7.455-3.349 16.128-3.708a4.1 4.1 0 0 0 1.05-2.075l-86.307-13.19a30.044 30.044 0 0 1-5.29 9.352l40.521 5.406z" transform="translate(-5.977 -6.444)"/>
        <path id="Trazado_495" data-name="Trazado 495" class="cls-8" d="m296.617 145.4 1.425-6.865-46.306-7.076a57.746 57.746 0 0 1 13.415 6.347c1.153.733 3.756 2.62 5.538 3.929.074.055.185.145.315.254l28.939 3.861z" transform="translate(-13.759 -7.583)"/>
        <path id="Trazado_496" data-name="Trazado 496" d="M93.63 94.235a.767.767 0 0 1 .021-.163.836.836 0 0 0-.021.163z" transform="translate(-3.61 -5.173)" style="fill:#647185"/>
        <path id="Trazado_497" data-name="Trazado 497" d="M133.427 111.383a37.844 37.844 0 0 0 1.669-6.01 42.266 42.266 0 0 0 .189-14.5 52.54 52.54 0 0 0-1.985-8.206 62.4 62.4 0 0 0-2.392-6.238c-.05.017-14.732 4.948-25.653 9.636-1.35.58-2.647 1.156-3.848 1.719-4.29 2.012-7.4 3.85-7.736 5.073.329-1.219 3.44-3.057 7.729-5.067.895 3.172 1.428 7.918-1.286 12.238a181.92 181.92 0 0 0 4.993 4.01c10.039 7.805 23.031 16.7 23.031 16.7a30.045 30.045 0 0 0 5.289-9.355z" transform="translate(-3.612 -4.036)" style="fill:#fcf2d8"/>
        <path id="Trazado_498" data-name="Trazado 498" class="cls-17" d="M93.631 93.881c.022.638.874 1.749 2.3 3.171 1.006 1.006 2.3 2.168 3.789 3.425l.395.334c2.714-4.319 2.18-9.065 1.286-12.238-4.289 2.011-7.4 3.848-7.736 5.072a.723.723 0 0 0-.009.074.767.767 0 0 0-.025.162z" transform="translate(-3.61 -4.818)"/>
        <path id="Trazado_499" data-name="Trazado 499" d="m311.21 109.943-4.283-.8-.887 4.271-1.765 8.5-1.893 9.116-1.261 6.072-1.425 6.865 3.328.444 19.566 2.611 5.194-33.96L316.817 111z" transform="translate(-16.838 -6.144)" style="fill:#b74242"/>
        <path id="Trazado_500" data-name="Trazado 500" d="m329.355 113.329-5.194 33.963s5.623.586 11.373.99c.174-2.632.271-5.285.273-7.96v-.145a120.334 120.334 0 0 0-2.917-26.308c-2.122-.358-3.535-.54-3.535-.54z" transform="translate(-18.409 -6.414)" style="fill:#f899b3"/>
        <path id="Trazado_501" data-name="Trazado 501" class="cls-17" d="M258.254 215.438c2.778-.228 4.421-.733 4.52-1.552a.773.773 0 0 0 0-.08c-1.8-.783-3.577-1.5-5.34-2.159z" transform="translate(-14.125 -12.753)"/>
        <path id="Trazado_502" data-name="Trazado 502" class="cls-17" d="M199.2 205.32v-.012.016c-.088.728 1.042 1.565 3.111 2.436l-.318-2.582a16.717 16.717 0 0 1 1.891-.566c-3.006.342-4.684.708-4.684.708z" transform="translate(-10.386 -12.299)"/>
        <path id="Trazado_503" data-name="Trazado 503" d="m254.707 214.924-.823-3.789a112.032 112.032 0 0 0-18.348-5.167l.047-.036s-20.852-3.955-31.51-1.381a16.717 16.717 0 0 0-1.891.566l.318 2.582.08.654c.24 8.265.618 19.293 1.21 32.777.064 1.444.128 2.907.2 4.407q.19 4.159.337 8.243c.153 4.173.281 8.27.4 12.249q1.6.042 3.219.044a120.459 120.459 0 0 0 27.2-3.095l-8-34.085a20.1 20.1 0 0 0-9.077-11.193l.271-.473a20.653 20.653 0 0 1 9.333 11.507l.006.023 8 34.092a119.213 119.213 0 0 0 27.247-10.078z" transform="translate(-10.578 -12.239)" style="fill:#5d6c8e"/>
        <path id="Trazado_504" data-name="Trazado 504" d="M266.485 141.64c-1.782-1.31-4.385-3.2-5.538-3.929a57.745 57.745 0 0 0-13.415-6.347 36.5 36.5 0 0 0-6.48-1.408 1.126 1.126 0 0 0 .678.342c.015.007-10.008 4.509-15.932 3.461-3.886-.688-3.812-1.11-3.032-2.258a8.545 8.545 0 0 1 1.384-1.037 2.524 2.524 0 0 0 .477-.366c-8.673.358-13.695 2.879-16.128 3.708-.369.125-9.716-1.027-15.168-1.715-2.262-.285-3.858-.491-3.858-.491a51.354 51.354 0 0 0-3.016 12.279 27.01 27.01 0 0 0-.172 4.721c.14 2.139 18.2 4.866 19.2 5.881.013.014.03.027.044.04a280.509 280.509 0 0 0-7.156 45.974v.012s1.678-.366 4.68-.708c10.659-2.574 31.51 1.381 31.51 1.381l-.047.036a112.034 112.034 0 0 1 18.348 5.167c1.763.663 3.543 1.376 5.34 2.159l.06.024s.041-2.106.041-5.607c-2.611-.92-4.006-4.648-4.858-5.849-1.174-1.654-6.163 2.1-8.072.748-1.588-1.124 3.929-3.285 5.832-3.981a.149.149 0 0 1-.027-.036c-1.758.487-6.554 1.69-7.864.714-1.332-.992 4.632-3 6.756-3.678a.159.159 0 0 1 .069-.093c-1.727.326-6.315 1.052-7.264-.283s3.9-2.656 5.832-3.125a.144.144 0 0 1-.031-.04v-.034a29.153 29.153 0 0 1-5.655.2c-2.789-.3 2.495-4.2 6.9-4.654 2.792-.286 6.054 1.662 8.068 3.126-.3-8.028-.869-17.152-1.93-25.542 1.331 1.337 2.08 1.995 2.237 1.957.133-.035.268-.08.4-.12a1.171 1.171 0 0 1-.965-.36c-.928-1.211 2.1-5.066 6.745-8.612s9.163-5.438 10.091-4.228a.867.867 0 0 1 .052.107l.051-.063s-6.153-5.78-7.871-7.218c-.131-.11-.242-.195-.316-.255z" transform="translate(-9.555 -7.486)" style="fill:#eee"/>
        <path id="Trazado_505" data-name="Trazado 505" d="M228.759 229.669a20.653 20.653 0 0 0-9.333-11.507l-.271.473a20.1 20.1 0 0 1 9.077 11.193l8 34.085c.177-.041.352-.087.529-.129l-8-34.092z" transform="translate(-11.668 -13.173)" style="fill:#465576"/>
        <path id="Trazado_506" data-name="Trazado 506" class="cls-10" d="M242.585 123.293c.015-1.29.055-2.6.039-3.751a.286.286 0 0 1-.022.025l-.05 2.843c-4.106 3.257-8.987 3.614-14.24 2.993a7.524 7.524 0 0 1-.159 1.95 4.1 4.1 0 0 1-1.05 2.075 2.525 2.525 0 0 1-.477.366 8.547 8.547 0 0 0-1.384 1.037c-.78 1.149-.854 1.571 3.032 2.258 5.924 1.048 15.947-3.455 15.932-3.461a1.126 1.126 0 0 1-.678-.342c-.889-.902-.972-3.401-.943-5.993z" transform="translate(-12.031 -6.815)"/>
        <path id="Trazado_507" data-name="Trazado 507" class="cls-14" d="M228.544 125.4c5.254.621 10.134.264 14.24-2.993l.05-2.843c-1.529 1.561-4.264 2.415-10.139 4.311 0 0-2.34.514-4.257.811l-.013.7z" transform="translate(-12.263 -6.817)"/>
        <path id="Trazado_508" data-name="Trazado 508" class="cls-10" d="M219.5 114.945a20.307 20.307 0 0 0 1.008 3.164c1.306 3.143 2.835 4.134 2.835 4.134a5.245 5.245 0 0 0 1.521.726 6.816 6.816 0 0 0 1.872 0c.331-.036.7-.088 1.092-.148 1.917-.3 4.257-.811 4.257-.811 5.875-1.9 8.61-2.75 10.139-4.311a.288.288 0 0 0 .022-.025 5.57 5.57 0 0 0 1.025-1.508c.081-.206.168-.414.241-.617l.569-1.852c.247-.936.436-1.837.609-2.71 2.515 1.022 4.553-2.268 4.553-2.268 1.74-2.852.387-3.98.387-3.98a2.457 2.457 0 0 0-3.167-.449 12.4 12.4 0 0 0-1.552 4.326l-1.423-.337c1.313-3.934 1.543-11.112 1.571-12.179-.041-.108-.072-.218-.115-.326a5.083 5.083 0 0 0-2.873-2.624 2.3 2.3 0 0 1-1.071-.132s-11.611-.164-19.655-2.458a58.252 58.252 0 0 0-1.843 24.385z" transform="translate(-11.656 -4.946)"/>
        <path id="Trazado_509" data-name="Trazado 509" class="cls-12" d="M243.66 92.76a5.083 5.083 0 0 1 2.873 2.624c.043.108.074.218.115.326-.028 1.067-.258 8.245-1.571 12.179l1.423.337a12.4 12.4 0 0 1 1.552-4.326 2.457 2.457 0 0 1 3.167.449s1.352 1.127-.387 3.98c0 0-2.037 3.289-4.553 2.268a43.873 43.873 0 0 1-.609 2.71c-.159.6-.342 1.217-.569 1.852-.073.2-.16.411-.241.616-.075.189-.138.374-.222.566a39.2 39.2 0 0 0 5.271-5.447c.3-.371.6-.74.882-1.123a31.405 31.405 0 0 0 3.161-6.654c.13-.334.267-.684.418-1.076a27.457 27.457 0 0 0 1.271-3.457 27.4 27.4 0 0 0 1.01-4.943c.246-3.852.174-7.245-3.6-9.137l-.386.276c-4.307 6.666-7.458 7.877-9.005 7.98z" transform="translate(-13.241 -4.556)"/>
        <path id="Trazado_510" data-name="Trazado 510" class="cls-12" d="M216.03 79.1c-4.641 4.567-2.42 7.507 2.2 9.4q-.035 1.336-.08 2.673a236.376 236.376 0 0 0-.106 3.769c-.006.45 0 .9 0 1.35 0 .6-.01 1.2 0 1.8a27.261 27.261 0 0 0 .453 6.6c.039.139.082.277.128.412A57.256 57.256 0 0 1 221 89.441c8.044 2.294 19.655 2.458 19.655 2.458a2.3 2.3 0 0 0 1.075.133c1.547-.1 4.7-1.314 9.008-7.98.037-.057.074-.109.11-.168 0 0 1.8-7.785-15.7-10.552 0 0-8.765-1.228-16.013 3.331a18.466 18.466 0 0 0-3.105 2.437z" transform="translate(-11.303 -3.826)"/>
        <path id="Trazado_511" data-name="Trazado 511" class="cls-9" d="M269.369 154.586c-4.649 3.546-7.674 7.4-6.745 8.612a1.171 1.171 0 0 0 .965.36 4.811 4.811 0 0 0 1.306-.2 3.658 3.658 0 0 1-.43-1.279c0-.787 1.649-2.807 5.252-5.558.74-.562 3.631-3.392 5.7-4.351 1.267-.588 2.754.632 2.99.959.044.062.084.123.129.185.9-1.258 1.282-2.277.976-2.844a.873.873 0 0 0-.052-.107c-.929-1.215-5.442.678-10.091 4.223z" transform="translate(-14.447 -8.778)"/>
        <path id="Trazado_512" data-name="Trazado 512" class="cls-14" d="M253.12 191.362a.168.168 0 0 0 .06-.01c.022-.008 2.192-.8 3.3-.022a.171.171 0 0 0 .239-.043.172.172 0 0 0-.041-.24c-1.256-.889-3.524-.056-3.618-.021a.167.167 0 0 0-.1.188c0 .011-.006.022 0 .034a.144.144 0 0 0 .031.04.168.168 0 0 0 .129.074z" transform="translate(-13.838 -11.399)"/>
        <path id="Trazado_513" data-name="Trazado 513" class="cls-14" d="M254.606 195.259v-.007a.159.159 0 0 0 .063-.012 5.818 5.818 0 0 1 3.995 0 .171.171 0 0 0 .226-.087.172.172 0 0 0-.089-.227 6.071 6.071 0 0 0-4.26 0c-.011 0-.015.018-.024.024a.159.159 0 0 0-.069.093.163.163 0 0 0 0 .108.17.17 0 0 0 .158.108z" transform="translate(-13.933 -11.65)"/>
        <path id="Trazado_514" data-name="Trazado 514" class="cls-14" d="M255.767 198.278a.171.171 0 0 0 .061-.011c.025-.01 2.6-.961 3.7-.03a.172.172 0 0 0 .242-.022.173.173 0 0 0-.021-.242c-1.259-1.058-3.937-.072-4.049-.029a.172.172 0 0 0-.1.222c0 .013.016.02.023.03a.149.149 0 0 0 .027.036.163.163 0 0 0 .117.046z" transform="translate(-14.007 -11.84)"/>
        <path id="Trazado_515" data-name="Trazado 515" class="cls-10" d="M274.366 152.3c-2.069.959-4.96 3.789-5.7 4.351-3.6 2.751-5.252 4.771-5.252 5.558a3.795 3.795 0 0 0 1.5 2.5c1.665 1.545 5.986 3.848 6.8 11.2.525 4.765-4.283 9.425-9.739 11.59l-.141-.1c-2.015-1.464-5.276-3.412-8.069-3.126-4.4.451-9.687 4.354-6.9 4.654a29.152 29.152 0 0 0 5.655-.2.167.167 0 0 1 .1-.188c.094-.036 2.362-.868 3.618.021a.172.172 0 0 1 .041.24.171.171 0 0 1-.239.043c-1.105-.783-3.275.013-3.3.022a.168.168 0 0 1-.06.01.168.168 0 0 1-.131-.072c-1.932.469-6.777 1.8-5.832 3.125s5.537.61 7.264.283c.009-.007.013-.02.024-.024a6.071 6.071 0 0 1 4.26 0 .172.172 0 0 1 .089.227.171.171 0 0 1-.226.087 5.818 5.818 0 0 0-3.995 0 .159.159 0 0 1-.063.012v.008a.17.17 0 0 1-.16-.109.163.163 0 0 1 0-.108c-2.123.673-8.087 2.686-6.756 3.678 1.309.976 6.105-.226 7.864-.714-.007-.01-.02-.017-.023-.03a.172.172 0 0 1 .1-.222c.112-.043 2.791-1.029 4.049.029a.173.173 0 0 1 .021.242.172.172 0 0 1-.242.021c-1.1-.931-3.679.02-3.7.03a.171.171 0 0 1-.061.011.163.163 0 0 1-.111-.047c-1.9.7-7.42 2.857-5.832 3.981 1.909 1.351 6.9-2.4 8.072-.748.852 1.2 2.247 4.929 4.858 5.849a4.2 4.2 0 0 0 3.508-.444c7.6-2.912 18.845-10.144 20.987-21.383 1.638-8.6-1.445-18.393-9.153-29.111l-.129-.185c-.242-.324-1.729-1.544-2.996-.961z" transform="translate(-13.397 -8.917)"/>
        <path id="Trazado_516" data-name="Trazado 516" class="cls-10" d="M169.593 88.279a1.242 1.242 0 0 0 .223.183.787.787 0 0 0 .746.134c1.392-.482 2.681-4.45 2.681-4.45a11.643 11.643 0 0 0-.293 4.879 2.56 2.56 0 0 0 .574 1.117c.523.553 1.148.106 1.743-.7a21.167 21.167 0 0 0 2.116-4.3 24.014 24.014 0 0 0-.634 4.568c-.022 1.4.19 2.681.968 3.109.941.517 1.835-.881 2.516-2.484a28.351 28.351 0 0 0 1.236-3.766 37.824 37.824 0 0 0-.06 3.977 1.983 1.983 0 0 0 .138.7c.53.884 1.278.613 2.025-.312a14.208 14.208 0 0 0 2.219-4.988 14.509 14.509 0 0 0 .5-3.793c-.074-3.663-3.556-2.843-3.556-2.843h-.01a7.164 7.164 0 0 0-2.8-.943c-.381-.041-1.382.707-1.8.374a2.948 2.948 0 0 0-3.369-.281c-2.016-.561-3.492-.569-3.992 1.4-.2.777-.644 1.881-1.042 3.057-.667 1.989-1.193 4.183-.129 5.362z" transform="translate(-8.447 -4.141)"/>
    </g>
</svg>
