<?xml version="1.0" encoding="utf-8"?>
<!-- Generator: Adobe Illustrator 25.2.0, SVG Export Plug-In . SVG Version: 6.00 Build 0)  -->
<svg version="1.1" id="OL" xmlns="http://www.w3.org/2000/svg" xmlns:xlink="http://www.w3.org/1999/xlink" x="0px" y="0px"
	 viewBox="0 0 119.7 40" style="enable-background:new 0 0 119.7 40;" xml:space="preserve">
<g>
	<g id="_Group_">
		<g id="_Group_2">
			<path id="_Path_" d="M66,19.2c0-1.8,0.9-3.4,2.5-4.3c-1-1.4-2.5-2.2-4.2-2.2c-1.7-0.2-3.4,1-4.3,1c-0.9,0-2.3-1-3.8-1
				c-1.9,0.1-3.7,1.1-4.7,2.8c-2,3.5-0.5,8.6,1.4,11.4c1,1.4,2.1,2.9,3.6,2.9c1.4-0.1,2-0.9,3.7-0.9c1.7,0,2.2,0.9,3.7,0.9
				c1.5,0,2.5-1.4,3.5-2.8c0.7-1,1.2-2.1,1.6-3.2C67.2,23,66,21.2,66,19.2z"/>
			<path id="_Path_2" d="M63.2,10.8c0.8-1,1.3-2.3,1.2-3.6C63,7.3,61.8,7.9,61,8.8c-0.8,1-1.3,2.2-1.2,3.5
				C61.1,12.4,62.3,11.8,63.2,10.8z"/>
		</g>
	</g>
</g>
</svg>
