<svg width="2652" height="1092" viewBox="0 0 2652 1092" fill="none" xmlns="http://www.w3.org/2000/svg">
<path d="M2449 15V14H2448V15H2449ZM2650.71 15.7071C2651.1 15.3166 2651.1 14.6834 2650.71 14.2929L2644.34 7.92893C2643.95 7.53841 2643.32 7.53841 2642.93 7.92893C2642.54 8.31946 2642.54 8.95262 2642.93 9.34315L2648.59 15L2642.93 20.6569C2642.54 21.0474 2642.54 21.6805 2642.93 22.0711C2643.32 22.4616 2643.95 22.4616 2644.34 22.0711L2650.71 15.7071ZM2449 1090V1091H2450V1090H2449ZM130 1090H129V1091H130V1090ZM130 731H131V730H130V731ZM0 732H2.32143V730H0L0 732ZM6.96429 732H11.6071V730H6.96429V732ZM16.25 732H20.8929V730H16.25V732ZM25.5357 732H30.1786V730H25.5357V732ZM34.8214 732H39.4643V730H34.8214V732ZM44.1071 732H48.75V730H44.1071V732ZM53.3929 732H58.0357V730H53.3929V732ZM62.6786 732H67.3214V730H62.6786V732ZM71.9643 732H76.6071V730H71.9643V732ZM81.25 732H85.8929V730H81.25V732ZM90.5357 732H95.1786V730H90.5357V732ZM99.8214 732H104.464V730H99.8214V732ZM109.107 732H113.75V730H109.107V732ZM118.393 732H123.036V730H118.393V732ZM127.679 732H130V730H127.679V732ZM129 731V733.362H131V731H129ZM129 738.086V742.809H131V738.086H129ZM129 747.533V752.257H131V747.533H129ZM129 756.98V761.704H131V756.98H129ZM129 766.428V771.151H131V766.428H129ZM129 775.875V780.599H131V775.875H129ZM129 785.322V790.046H131V785.322H129ZM129 794.77V799.493H131V794.77H129ZM129 804.217V808.941H131V804.217H129ZM129 813.664V818.388H131V813.664H129ZM129 823.112V827.836H131V823.112H129ZM129 832.559V837.283H131V832.559H129ZM129 842.007V846.73H131V842.007H129ZM129 851.454V856.178H131V851.454H129ZM129 860.901V865.625H131V860.901H129ZM129 870.349V875.072H131V870.349H129ZM129 879.796V884.52H131V879.796H129ZM129 889.243V893.967H131V889.243H129ZM129 898.691V903.414H131V898.691H129ZM129 908.138V912.862H131V908.138H129ZM129 917.586V922.309H131V917.586H129ZM129 927.033V931.757H131V927.033H129ZM129 936.48V941.204H131V936.48H129ZM129 945.928V950.651H131V945.928H129ZM129 955.375V960.099H131V955.375H129ZM129 964.822V969.546H131V964.822H129ZM129 974.27V978.993H131V974.27H129ZM129 983.717V988.441H131V983.717H129ZM129 993.164V997.888H131V993.164H129ZM129 1002.61V1007.34H131V1002.61H129ZM129 1012.06V1016.78H131V1012.06H129ZM129 1021.51V1026.23H131V1021.51H129ZM129 1030.95V1035.68H131V1030.95H129ZM129 1040.4V1045.12H131V1040.4H129ZM129 1049.85V1054.57H131V1049.85H129ZM129 1059.3V1064.02H131V1059.3H129ZM129 1068.74V1073.47H131V1068.74H129ZM129 1078.19V1082.91H131V1078.19H129ZM129 1087.64V1090H131V1087.64H129ZM130 1091H132.376V1089H130V1091ZM137.128 1091H141.88V1089H137.128V1091ZM146.632 1091H151.384V1089H146.632V1091ZM156.136 1091H160.888V1089H156.136V1091ZM165.64 1091H170.392V1089H165.64V1091ZM175.144 1091H179.897V1089H175.144V1091ZM184.649 1091H189.401V1089H184.649V1091ZM194.153 1091H198.905V1089H194.153V1091ZM203.657 1091H208.409V1089H203.657V1091ZM213.161 1091H217.913V1089H213.161V1091ZM222.665 1091H227.417V1089H222.665V1091ZM232.169 1091H236.921V1089H232.169V1091ZM241.673 1091H246.425V1089H241.673V1091ZM251.177 1091H255.929V1089H251.177V1091ZM260.681 1091H265.433V1089H260.681V1091ZM270.185 1091H274.938V1089H270.185V1091ZM279.69 1091H284.442V1089H279.69V1091ZM289.194 1091H293.946V1089H289.194V1091ZM298.698 1091H303.45V1089H298.698V1091ZM308.202 1091H312.954V1089H308.202V1091ZM317.706 1091H322.458V1089H317.706V1091ZM327.21 1091H331.962V1089H327.21V1091ZM336.714 1091H341.466V1089H336.714V1091ZM346.218 1091H350.97V1089H346.218V1091ZM355.722 1091H360.474V1089H355.722V1091ZM365.226 1091H369.978V1089H365.226V1091ZM374.73 1091H379.482V1089H374.73V1091ZM384.235 1091H388.987V1089H384.235V1091ZM393.739 1091H398.491V1089H393.739V1091ZM403.243 1091H407.995V1089H403.243V1091ZM412.747 1091H417.499V1089H412.747V1091ZM422.251 1091H427.003V1089H422.251V1091ZM431.755 1091H436.507V1089H431.755V1091ZM441.259 1091H446.011V1089H441.259V1091ZM450.763 1091H455.515V1089H450.763V1091ZM460.267 1091H465.019V1089H460.267V1091ZM469.771 1091H474.523V1089H469.771V1091ZM479.275 1091H484.027V1089H479.275V1091ZM488.78 1091H493.532V1089H488.78V1091ZM498.284 1091H503.036V1089H498.284V1091ZM507.788 1091H512.54V1089H507.788V1091ZM517.292 1091H522.044V1089H517.292V1091ZM526.796 1091H531.548V1089H526.796V1091ZM536.3 1091H541.052V1089H536.3V1091ZM545.804 1091H550.556V1089H545.804V1091ZM555.308 1091H560.06V1089H555.308V1091ZM564.812 1091H569.564V1089H564.812V1091ZM574.316 1091H579.068V1089H574.316V1091ZM583.82 1091H588.572V1089H583.82V1091ZM593.325 1091H598.077V1089H593.325V1091ZM602.829 1091H607.581V1089H602.829V1091ZM612.333 1091H617.085V1089H612.333V1091ZM621.837 1091H626.589V1089H621.837V1091ZM631.341 1091H636.093V1089H631.341V1091ZM640.845 1091H645.597V1089H640.845V1091ZM650.349 1091H655.101V1089H650.349V1091ZM659.853 1091H664.605V1089H659.853V1091ZM669.357 1091H674.109V1089H669.357V1091ZM678.862 1091H683.614V1089H678.862V1091ZM688.366 1091H693.118V1089H688.366V1091ZM697.87 1091H702.622V1089H697.87V1091ZM707.374 1091H712.126V1089H707.374V1091ZM716.878 1091H721.63V1089H716.878V1091ZM726.382 1091H731.134V1089H726.382V1091ZM735.886 1091H740.639V1089H735.886V1091ZM745.391 1091H750.143V1089H745.391V1091ZM754.895 1091H759.647V1089H754.895V1091ZM764.399 1091H769.151V1089H764.399V1091ZM773.903 1091H778.655V1089H773.903V1091ZM783.407 1091H788.159V1089H783.407V1091ZM792.911 1091H797.663V1089H792.911V1091ZM802.416 1091H807.168V1089H802.416V1091ZM811.92 1091H816.672V1089H811.92V1091ZM821.424 1091H826.176V1089H821.424V1091ZM830.928 1091H835.68V1089H830.928V1091ZM840.432 1091H845.184V1089H840.432V1091ZM849.936 1091H854.688V1089H849.936V1091ZM859.44 1091H864.193V1089H859.44V1091ZM868.945 1091H873.697V1089H868.945V1091ZM878.449 1091H883.201V1089H878.449V1091ZM887.953 1091H892.705V1089H887.953V1091ZM897.457 1091H902.209V1089H897.457V1091ZM906.961 1091H911.713V1089H906.961V1091ZM916.465 1091H921.217V1089H916.465V1091ZM925.969 1091H930.722V1089H925.969V1091ZM935.474 1091H940.226V1089H935.474V1091ZM944.978 1091H949.73V1089H944.978V1091ZM954.482 1091H959.234V1089H954.482V1091ZM963.986 1091H968.738V1089H963.986V1091ZM973.49 1091H978.242V1089H973.49V1091ZM982.994 1091H987.746V1089H982.994V1091ZM992.499 1091H997.251V1089H992.499V1091ZM1002 1091H1006.75V1089H1002V1091ZM1011.51 1091H1016.26V1089H1011.51V1091ZM1021.01 1091H1025.76V1089H1021.01V1091ZM1030.52 1091H1035.27V1089H1030.52V1091ZM1040.02 1091H1044.77V1089H1040.02V1091ZM1049.52 1091H1054.28V1089H1049.52V1091ZM1059.03 1091H1063.78V1089H1059.03V1091ZM1068.53 1091H1073.28V1089H1068.53V1091ZM1078.04 1091H1082.79V1089H1078.04V1091ZM1087.54 1091H1092.29V1089H1087.54V1091ZM1097.04 1091H1101.8V1089H1097.04V1091ZM1106.55 1091H1111.3V1089H1106.55V1091ZM1116.05 1091H1120.8V1089H1116.05V1091ZM1125.56 1091H1130.31V1089H1125.56V1091ZM1135.06 1091H1139.81V1089H1135.06V1091ZM1144.56 1091H1149.32V1089H1144.56V1091ZM1154.07 1091H1158.82V1089H1154.07V1091ZM1163.57 1091H1168.33V1089H1163.57V1091ZM1173.08 1091H1177.83V1089H1173.08V1091ZM1182.58 1091H1187.33V1089H1182.58V1091ZM1192.09 1091H1196.84V1089H1192.09V1091ZM1201.59 1091H1206.34V1089H1201.59V1091ZM1211.09 1091H1215.85V1089H1211.09V1091ZM1220.6 1091H1225.35V1089H1220.6V1091ZM1230.1 1091H1234.85V1089H1230.1V1091ZM1239.61 1091H1244.36V1089H1239.61V1091ZM1249.11 1091H1253.86V1089H1249.11V1091ZM1258.61 1091H1263.37V1089H1258.61V1091ZM1268.12 1091H1272.87V1089H1268.12V1091ZM1277.62 1091H1282.38V1089H1277.62V1091ZM1287.13 1091H1291.88V1089H1287.13V1091ZM1296.63 1091H1301.38V1089H1296.63V1091ZM1306.14 1091H1310.89V1089H1306.14V1091ZM1315.64 1091H1320.39V1089H1315.64V1091ZM1325.14 1091H1329.9V1089H1325.14V1091ZM1334.65 1091H1339.4V1089H1334.65V1091ZM1344.15 1091H1348.9V1089H1344.15V1091ZM1353.66 1091H1358.41V1089H1353.66V1091ZM1363.16 1091H1367.91V1089H1363.16V1091ZM1372.66 1091H1377.42V1089H1372.66V1091ZM1382.17 1091H1386.92V1089H1382.17V1091ZM1391.67 1091H1396.42V1089H1391.67V1091ZM1401.18 1091H1405.93V1089H1401.18V1091ZM1410.68 1091H1415.43V1089H1410.68V1091ZM1420.19 1091H1424.94V1089H1420.19V1091ZM1429.69 1091H1434.44V1089H1429.69V1091ZM1439.19 1091H1443.95V1089H1439.19V1091ZM1448.7 1091H1453.45V1089H1448.7V1091ZM1458.2 1091H1462.95V1089H1458.2V1091ZM1467.71 1091H1472.46V1089H1467.71V1091ZM1477.21 1091H1481.96V1089H1477.21V1091ZM1486.71 1091H1491.47V1089H1486.71V1091ZM1496.22 1091H1500.97V1089H1496.22V1091ZM1505.72 1091H1510.47V1089H1505.72V1091ZM1515.23 1091H1519.98V1089H1515.23V1091ZM1524.73 1091H1529.48V1089H1524.73V1091ZM1534.23 1091H1538.99V1089H1534.23V1091ZM1543.74 1091H1548.49V1089H1543.74V1091ZM1553.24 1091H1558V1089H1553.24V1091ZM1562.75 1091H1567.5V1089H1562.75V1091ZM1572.25 1091H1577V1089H1572.25V1091ZM1581.76 1091H1586.51V1089H1581.76V1091ZM1591.26 1091H1596.01V1089H1591.26V1091ZM1600.76 1091H1605.52V1089H1600.76V1091ZM1610.27 1091H1615.02V1089H1610.27V1091ZM1619.77 1091H1624.52V1089H1619.77V1091ZM1629.28 1091H1634.03V1089H1629.28V1091ZM1638.78 1091H1643.53V1089H1638.78V1091ZM1648.28 1091H1653.04V1089H1648.28V1091ZM1657.79 1091H1662.54V1089H1657.79V1091ZM1667.29 1091H1672.05V1089H1667.29V1091ZM1676.8 1091H1681.55V1089H1676.8V1091ZM1686.3 1091H1691.05V1089H1686.3V1091ZM1695.81 1091H1700.56V1089H1695.81V1091ZM1705.31 1091H1710.06V1089H1705.31V1091ZM1714.81 1091H1719.57V1089H1714.81V1091ZM1724.32 1091H1729.07V1089H1724.32V1091ZM1733.82 1091H1738.57V1089H1733.82V1091ZM1743.33 1091H1748.08V1089H1743.33V1091ZM1752.83 1091H1757.58V1089H1752.83V1091ZM1762.33 1091H1767.09V1089H1762.33V1091ZM1771.84 1091H1776.59V1089H1771.84V1091ZM1781.34 1091H1786.1V1089H1781.34V1091ZM1790.85 1091H1795.6V1089H1790.85V1091ZM1800.35 1091H1805.1V1089H1800.35V1091ZM1809.86 1091H1814.61V1089H1809.86V1091ZM1819.36 1091H1824.11V1089H1819.36V1091ZM1828.86 1091H1833.62V1089H1828.86V1091ZM1838.37 1091H1843.12V1089H1838.37V1091ZM1847.87 1091H1852.62V1089H1847.87V1091ZM1857.38 1091H1862.13V1089H1857.38V1091ZM1866.88 1091H1871.63V1089H1866.88V1091ZM1876.38 1091H1881.14V1089H1876.38V1091ZM1885.89 1091H1890.64V1089H1885.89V1091ZM1895.39 1091H1900.14V1089H1895.39V1091ZM1904.9 1091H1909.65V1089H1904.9V1091ZM1914.4 1091H1919.15V1089H1914.4V1091ZM1923.91 1091H1928.66V1089H1923.91V1091ZM1933.41 1091H1938.16V1089H1933.41V1091ZM1942.91 1091H1947.67V1089H1942.91V1091ZM1952.42 1091H1957.17V1089H1952.42V1091ZM1961.92 1091H1966.67V1089H1961.92V1091ZM1971.43 1091H1976.18V1089H1971.43V1091ZM1980.93 1091H1985.68V1089H1980.93V1091ZM1990.43 1091H1995.19V1089H1990.43V1091ZM1999.94 1091H2004.69V1089H1999.94V1091ZM2009.44 1091H2014.19V1089H2009.44V1091ZM2018.95 1091H2023.7V1089H2018.95V1091ZM2028.45 1091H2033.2V1089H2028.45V1091ZM2037.96 1091H2042.71V1089H2037.96V1091ZM2047.46 1091H2052.21V1089H2047.46V1091ZM2056.96 1091H2061.72V1089H2056.96V1091ZM2066.47 1091H2071.22V1089H2066.47V1091ZM2075.97 1091H2080.72V1089H2075.97V1091ZM2085.48 1091H2090.23V1089H2085.48V1091ZM2094.98 1091H2099.73V1089H2094.98V1091ZM2104.48 1091H2109.24V1089H2104.48V1091ZM2113.99 1091H2118.74V1089H2113.99V1091ZM2123.49 1091H2128.24V1089H2123.49V1091ZM2133 1091H2137.75V1089H2133V1091ZM2142.5 1091H2147.25V1089H2142.5V1091ZM2152 1091H2156.76V1089H2152V1091ZM2161.51 1091H2166.26V1089H2161.51V1091ZM2171.01 1091H2175.77V1089H2171.01V1091ZM2180.52 1091H2185.27V1089H2180.52V1091ZM2190.02 1091H2194.77V1089H2190.02V1091ZM2199.53 1091H2204.28V1089H2199.53V1091ZM2209.03 1091H2213.78V1089H2209.03V1091ZM2218.53 1091H2223.28V1089H2218.53V1091ZM2228.04 1091H2232.79V1089H2228.04V1091ZM2237.54 1091H2242.29V1089H2237.54V1091ZM2247.04 1091H2251.8V1089H2247.04V1091ZM2256.55 1091H2261.3V1089H2256.55V1091ZM2266.05 1091H2270.8V1089H2266.05V1091ZM2275.56 1091H2280.31V1089H2275.56V1091ZM2285.06 1091H2289.81V1089H2285.06V1091ZM2294.56 1091H2299.32V1089H2294.56V1091ZM2304.07 1091H2308.82V1089H2304.07V1091ZM2313.57 1091H2318.32V1089H2313.57V1091ZM2323.08 1091H2327.83V1089H2323.08V1091ZM2332.58 1091H2337.33V1089H2332.58V1091ZM2342.08 1091H2346.84V1089H2342.08V1091ZM2351.59 1091H2356.34V1089H2351.59V1091ZM2361.09 1091H2365.84V1089H2361.09V1091ZM2370.6 1091H2375.35V1089H2370.6V1091ZM2380.1 1091H2384.85V1089H2380.1V1091ZM2389.6 1091H2394.36V1089H2389.6V1091ZM2399.11 1091H2403.86V1089H2399.11V1091ZM2408.61 1091H2413.36V1089H2408.61V1091ZM2418.11 1091H2422.87V1089H2418.11V1091ZM2427.62 1091H2432.37V1089H2427.62V1091ZM2437.12 1091H2441.87V1089H2437.12V1091ZM2446.63 1091H2449V1089H2446.63V1091ZM2450 1090V1087.62H2448V1090H2450ZM2450 1082.86V1078.11H2448V1082.86H2450ZM2450 1073.35V1068.6H2448V1073.35H2450ZM2450 1063.84V1059.08H2448V1063.84H2450ZM2450 1054.33V1049.57H2448V1054.33H2450ZM2450 1044.81V1040.06H2448V1044.81H2450ZM2450 1035.3V1030.54H2448V1035.3H2450ZM2450 1025.79V1021.03H2448V1025.79H2450ZM2450 1016.27V1011.52H2448V1016.27H2450ZM2450 1006.76V1002H2448V1006.76H2450ZM2450 997.246V992.489H2448V997.246H2450ZM2450 987.732V982.976H2448V987.732H2450ZM2450 978.219V973.462H2448V978.219H2450ZM2450 968.706V963.949H2448V968.706H2450ZM2450 959.192V954.436H2448V959.192H2450ZM2450 949.679V944.923H2448V949.679H2450ZM2450 940.166V935.409H2448V940.166H2450ZM2450 930.653V925.896H2448V930.653H2450ZM2450 921.139V916.383H2448V921.139H2450ZM2450 911.626V906.869H2448V911.626H2450ZM2450 902.113V897.356H2448V902.113H2450ZM2450 892.6V887.843H2448V892.6H2450ZM2450 883.086V878.33H2448V883.086H2450ZM2450 873.573V868.816H2448V873.573H2450ZM2450 864.06V859.303H2448V864.06H2450ZM2450 854.546V849.79H2448V854.546H2450ZM2450 845.033V840.277H2448V845.033H2450ZM2450 835.52V830.763H2448V835.52H2450ZM2450 826.007V821.25H2448V826.007H2450ZM2450 816.493V811.737H2448V816.493H2450ZM2450 806.98V802.224H2448V806.98H2450ZM2450 797.467V792.71H2448V797.467H2450ZM2450 787.954V783.197H2448V787.954H2450ZM2450 778.44V773.684H2448V778.44H2450ZM2450 768.927V764.171H2448V768.927H2450ZM2450 759.414V754.657H2448V759.414H2450ZM2450 749.901V745.144H2448V749.901H2450ZM2450 740.387V735.631H2448V740.387H2450ZM2450 730.874V726.118H2448V730.874H2450ZM2450 721.361V716.604H2448V721.361H2450ZM2450 711.848V707.091H2448V711.848H2450ZM2450 702.334V697.578H2448V702.334H2450ZM2450 692.821V688.065H2448V692.821H2450ZM2450 683.308V678.551H2448V683.308H2450ZM2450 673.795V669.038H2448V673.795H2450ZM2450 664.281V659.525H2448V664.281H2450ZM2450 654.768V650.012H2448V654.768H2450ZM2450 645.255V640.498H2448V645.255H2450ZM2450 635.742V630.985H2448V635.742H2450ZM2450 626.229V621.472H2448V626.229H2450ZM2450 616.715V611.959H2448V616.715H2450ZM2450 607.202V602.445H2448V607.202H2450ZM2450 597.689V592.932H2448V597.689H2450ZM2450 588.176V583.419H2448V588.176H2450ZM2450 578.662V573.906H2448V578.662H2450ZM2450 569.149V564.392H2448V569.149H2450ZM2450 559.636V554.879H2448V559.636H2450ZM2450 550.122V545.366H2448V550.122H2450ZM2450 540.609V535.852H2448V540.609H2450ZM2450 531.096V526.339H2448V531.096H2450ZM2450 521.582V516.826H2448V521.582H2450ZM2450 512.069V507.313H2448V512.069H2450ZM2450 502.556V497.799H2448V502.556H2450ZM2450 493.043V488.286H2448V493.043H2450ZM2450 483.529V478.773H2448V483.529H2450ZM2450 474.016V469.259H2448V474.016H2450ZM2450 464.503V459.746H2448V464.503H2450ZM2450 454.989V450.233H2448V454.989H2450ZM2450 445.476V440.719H2448V445.476H2450ZM2450 435.963V431.206H2448V435.963H2450ZM2450 426.449V421.693H2448V426.449H2450ZM2450 416.936V412.179H2448V416.936H2450ZM2450 407.423V402.666H2448V407.423H2450ZM2450 397.909V393.153H2448V397.909H2450ZM2450 388.396V383.64H2448V388.396H2450ZM2450 378.883V374.126H2448V378.883H2450ZM2450 369.37V364.613H2448V369.37H2450ZM2450 359.856V355.1H2448V359.856H2450ZM2450 350.343V345.586H2448V350.343H2450ZM2450 340.83V336.073H2448V340.83H2450ZM2450 331.316V326.56H2448V331.316H2450ZM2450 321.803V317.046H2448V321.803H2450ZM2450 312.29V307.533H2448V312.29H2450ZM2450 302.776V298.02H2448V302.776H2450ZM2450 293.263V288.506H2448V293.263H2450ZM2450 283.75V278.993H2448V283.75H2450ZM2450 274.237V269.48H2448V274.237H2450ZM2450 264.723V259.967H2448V264.723H2450ZM2450 255.21V250.453H2448V255.21H2450ZM2450 245.697V240.94H2448V245.697H2450ZM2450 236.183V231.427H2448V236.183H2450ZM2450 226.67V221.913H2448V226.67H2450ZM2450 217.157V212.4H2448V217.157H2450ZM2450 207.643V202.887H2448V207.643H2450ZM2450 198.13V193.373H2448V198.13H2450ZM2450 188.617V183.86H2448V188.617H2450ZM2450 179.103V174.347H2448V179.103H2450ZM2450 169.59V164.833H2448V169.59H2450ZM2450 160.077V155.32H2448V160.077H2450ZM2450 150.564V145.807H2448V150.564H2450ZM2450 141.05V136.294H2448V141.05H2450ZM2450 131.537V126.78H2448V131.537H2450ZM2450 122.024V117.267H2448V122.024H2450ZM2450 112.51V107.754H2448V112.51H2450ZM2450 102.997V98.2403H2448V102.997H2450ZM2450 93.4837V88.7271H2448V93.4837H2450ZM2450 83.9704V79.2137H2448V83.9704H2450ZM2450 74.4571V69.7004H2448V74.4571H2450ZM2450 64.9438V60.1873H2448V64.9438H2450ZM2450 55.4307V50.6741H2448V55.4307H2450ZM2450 45.9175V41.1609H2448V45.9175H2450ZM2450 36.4043V31.6477H2448V36.4043H2450ZM2450 26.8911V22.1345H2448V26.8911H2450ZM2450 17.378V15H2448V17.378H2450ZM2449 16H2451.39V14H2449V16ZM2456.18 16H2460.96V14H2456.18V16ZM2465.75 16H2470.54V14H2465.75V16ZM2475.32 16H2480.11V14H2475.32V16ZM2484.89 16H2489.68V14H2484.89V16ZM2494.46 16H2499.25V14H2494.46V16ZM2504.04 16H2508.82V14H2504.04V16ZM2513.61 16H2518.39V14H2513.61V16ZM2523.18 16H2527.96V14H2523.18V16ZM2532.75 16H2537.54V14H2532.75V16ZM2542.32 16H2547.11V14H2542.32V16ZM2551.89 16H2556.68V14H2551.89V16ZM2561.46 16H2566.25V14H2561.46V16ZM2571.04 16H2575.82V14H2571.04V16ZM2580.61 16H2585.39V14H2580.61V16ZM2590.18 16H2594.96V14H2590.18V16ZM2599.75 16H2604.54V14H2599.75V16ZM2609.32 16H2614.11V14H2609.32V16ZM2618.89 16H2623.68V14H2618.89V16ZM2628.46 16H2633.25V14H2628.46V16ZM2638.04 16H2642.82V14H2638.04V16ZM2647.61 16H2650V14H2647.61V16ZM2449 15V13H2447V15H2449ZM2651.41 16.4142C2652.2 15.6332 2652.2 14.3668 2651.41 13.5858L2638.69 0.857864C2637.91 0.0768156 2636.64 0.0768156 2635.86 0.857864C2635.08 1.63891 2635.08 2.90524 2635.86 3.68629L2647.17 15L2635.86 26.3137C2635.08 27.0948 2635.08 28.3611 2635.86 29.1421C2636.64 29.9232 2637.91 29.9232 2638.69 29.1421L2651.41 16.4142ZM2449 1090V1092H2451V1090H2449ZM130 1090H128V1092H130V1090ZM130 731H132V729H130V731ZM0 733H2.32143V729H0L0 733ZM6.96429 733H11.6071V729H6.96429V733ZM16.25 733H20.8929V729H16.25V733ZM25.5357 733H30.1786V729H25.5357V733ZM34.8214 733H39.4643V729H34.8214V733ZM44.1071 733H48.75V729H44.1071V733ZM53.3929 733H58.0357V729H53.3929V733ZM62.6786 733H67.3214V729H62.6786V733ZM71.9643 733H76.6071V729H71.9643V733ZM81.25 733H85.8929V729H81.25V733ZM90.5357 733H95.1786V729H90.5357V733ZM99.8214 733H104.464V729H99.8214V733ZM109.107 733H113.75V729H109.107V733ZM118.393 733H123.036V729H118.393V733ZM127.679 733H130V729H127.679V733ZM128 731V733.362H132V731H128ZM128 738.086V742.809H132V738.086H128ZM128 747.533V752.257H132V747.533H128ZM128 756.98V761.704H132V756.98H128ZM128 766.428V771.151H132V766.428H128ZM128 775.875V780.599H132V775.875H128ZM128 785.322V790.046H132V785.322H128ZM128 794.77V799.493H132V794.77H128ZM128 804.217V808.941H132V804.217H128ZM128 813.664V818.388H132V813.664H128ZM128 823.112V827.836H132V823.112H128ZM128 832.559V837.283H132V832.559H128ZM128 842.007V846.73H132V842.007H128ZM128 851.454V856.178H132V851.454H128ZM128 860.901V865.625H132V860.901H128ZM128 870.349V875.072H132V870.349H128ZM128 879.796V884.52H132V879.796H128ZM128 889.243V893.967H132V889.243H128ZM128 898.691V903.414H132V898.691H128ZM128 908.138V912.862H132V908.138H128ZM128 917.586V922.309H132V917.586H128ZM128 927.033V931.757H132V927.033H128ZM128 936.48V941.204H132V936.48H128ZM128 945.928V950.651H132V945.928H128ZM128 955.375V960.099H132V955.375H128ZM128 964.822V969.546H132V964.822H128ZM128 974.27V978.993H132V974.27H128ZM128 983.717V988.441H132V983.717H128ZM128 993.164V997.888H132V993.164H128ZM128 1002.61V1007.34H132V1002.61H128ZM128 1012.06V1016.78H132V1012.06H128ZM128 1021.51V1026.23H132V1021.51H128ZM128 1030.95V1035.68H132V1030.95H128ZM128 1040.4V1045.12H132V1040.4H128ZM128 1049.85V1054.57H132V1049.85H128ZM128 1059.3V1064.02H132V1059.3H128ZM128 1068.74V1073.47H132V1068.74H128ZM128 1078.19V1082.91H132V1078.19H128ZM128 1087.64V1090H132V1087.64H128ZM130 1092H132.376V1088H130V1092ZM137.128 1092H141.88V1088H137.128V1092ZM146.632 1092H151.384V1088H146.632V1092ZM156.136 1092H160.888V1088H156.136V1092ZM165.64 1092H170.392V1088H165.64V1092ZM175.144 1092H179.897V1088H175.144V1092ZM184.649 1092H189.401V1088H184.649V1092ZM194.153 1092H198.905V1088H194.153V1092ZM203.657 1092H208.409V1088H203.657V1092ZM213.161 1092H217.913V1088H213.161V1092ZM222.665 1092H227.417V1088H222.665V1092ZM232.169 1092H236.921V1088H232.169V1092ZM241.673 1092H246.425V1088H241.673V1092ZM251.177 1092H255.929V1088H251.177V1092ZM260.681 1092H265.433V1088H260.681V1092ZM270.185 1092H274.938V1088H270.185V1092ZM279.69 1092H284.442V1088H279.69V1092ZM289.194 1092H293.946V1088H289.194V1092ZM298.698 1092H303.45V1088H298.698V1092ZM308.202 1092H312.954V1088H308.202V1092ZM317.706 1092H322.458V1088H317.706V1092ZM327.21 1092H331.962V1088H327.21V1092ZM336.714 1092H341.466V1088H336.714V1092ZM346.218 1092H350.97V1088H346.218V1092ZM355.722 1092H360.474V1088H355.722V1092ZM365.226 1092H369.978V1088H365.226V1092ZM374.73 1092H379.482V1088H374.73V1092ZM384.235 1092H388.987V1088H384.235V1092ZM393.739 1092H398.491V1088H393.739V1092ZM403.243 1092H407.995V1088H403.243V1092ZM412.747 1092H417.499V1088H412.747V1092ZM422.251 1092H427.003V1088H422.251V1092ZM431.755 1092H436.507V1088H431.755V1092ZM441.259 1092H446.011V1088H441.259V1092ZM450.763 1092H455.515V1088H450.763V1092ZM460.267 1092H465.019V1088H460.267V1092ZM469.771 1092H474.523V1088H469.771V1092ZM479.275 1092H484.027V1088H479.275V1092ZM488.78 1092H493.532V1088H488.78V1092ZM498.284 1092H503.036V1088H498.284V1092ZM507.788 1092H512.54V1088H507.788V1092ZM517.292 1092H522.044V1088H517.292V1092ZM526.796 1092H531.548V1088H526.796V1092ZM536.3 1092H541.052V1088H536.3V1092ZM545.804 1092H550.556V1088H545.804V1092ZM555.308 1092H560.06V1088H555.308V1092ZM564.812 1092H569.564V1088H564.812V1092ZM574.316 1092H579.068V1088H574.316V1092ZM583.82 1092H588.572V1088H583.82V1092ZM593.325 1092H598.077V1088H593.325V1092ZM602.829 1092H607.581V1088H602.829V1092ZM612.333 1092H617.085V1088H612.333V1092ZM621.837 1092H626.589V1088H621.837V1092ZM631.341 1092H636.093V1088H631.341V1092ZM640.845 1092H645.597V1088H640.845V1092ZM650.349 1092H655.101V1088H650.349V1092ZM659.853 1092H664.605V1088H659.853V1092ZM669.357 1092H674.109V1088H669.357V1092ZM678.862 1092H683.614V1088H678.862V1092ZM688.366 1092H693.118V1088H688.366V1092ZM697.87 1092H702.622V1088H697.87V1092ZM707.374 1092H712.126V1088H707.374V1092ZM716.878 1092H721.63V1088H716.878V1092ZM726.382 1092H731.134V1088H726.382V1092ZM735.886 1092H740.639V1088H735.886V1092ZM745.391 1092H750.143V1088H745.391V1092ZM754.895 1092H759.647V1088H754.895V1092ZM764.399 1092H769.151V1088H764.399V1092ZM773.903 1092H778.655V1088H773.903V1092ZM783.407 1092H788.159V1088H783.407V1092ZM792.911 1092H797.663V1088H792.911V1092ZM802.416 1092H807.168V1088H802.416V1092ZM811.92 1092H816.672V1088H811.92V1092ZM821.424 1092H826.176V1088H821.424V1092ZM830.928 1092H835.68V1088H830.928V1092ZM840.432 1092H845.184V1088H840.432V1092ZM849.936 1092H854.688V1088H849.936V1092ZM859.44 1092H864.193V1088H859.44V1092ZM868.945 1092H873.697V1088H868.945V1092ZM878.449 1092H883.201V1088H878.449V1092ZM887.953 1092H892.705V1088H887.953V1092ZM897.457 1092H902.209V1088H897.457V1092ZM906.961 1092H911.713V1088H906.961V1092ZM916.465 1092H921.217V1088H916.465V1092ZM925.969 1092H930.722V1088H925.969V1092ZM935.474 1092H940.226V1088H935.474V1092ZM944.978 1092H949.73V1088H944.978V1092ZM954.482 1092H959.234V1088H954.482V1092ZM963.986 1092H968.738V1088H963.986V1092ZM973.49 1092H978.242V1088H973.49V1092ZM982.994 1092H987.746V1088H982.994V1092ZM992.499 1092H997.251V1088H992.499V1092ZM1002 1092H1006.75V1088H1002V1092ZM1011.51 1092H1016.26V1088H1011.51V1092ZM1021.01 1092H1025.76V1088H1021.01V1092ZM1030.52 1092H1035.27V1088H1030.52V1092ZM1040.02 1092H1044.77V1088H1040.02V1092ZM1049.52 1092H1054.28V1088H1049.52V1092ZM1059.03 1092H1063.78V1088H1059.03V1092ZM1068.53 1092H1073.28V1088H1068.53V1092ZM1078.04 1092H1082.79V1088H1078.04V1092ZM1087.54 1092H1092.29V1088H1087.54V1092ZM1097.04 1092H1101.8V1088H1097.04V1092ZM1106.55 1092H1111.3V1088H1106.55V1092ZM1116.05 1092H1120.8V1088H1116.05V1092ZM1125.56 1092H1130.31V1088H1125.56V1092ZM1135.06 1092H1139.81V1088H1135.06V1092ZM1144.56 1092H1149.32V1088H1144.56V1092ZM1154.07 1092H1158.82V1088H1154.07V1092ZM1163.57 1092H1168.33V1088H1163.57V1092ZM1173.08 1092H1177.83V1088H1173.08V1092ZM1182.58 1092H1187.33V1088H1182.58V1092ZM1192.09 1092H1196.84V1088H1192.09V1092ZM1201.59 1092H1206.34V1088H1201.59V1092ZM1211.09 1092H1215.85V1088H1211.09V1092ZM1220.6 1092H1225.35V1088H1220.6V1092ZM1230.1 1092H1234.85V1088H1230.1V1092ZM1239.61 1092H1244.36V1088H1239.61V1092ZM1249.11 1092H1253.86V1088H1249.11V1092ZM1258.61 1092H1263.37V1088H1258.61V1092ZM1268.12 1092H1272.87V1088H1268.12V1092ZM1277.62 1092H1282.38V1088H1277.62V1092ZM1287.13 1092H1291.88V1088H1287.13V1092ZM1296.63 1092H1301.38V1088H1296.63V1092ZM1306.14 1092H1310.89V1088H1306.14V1092ZM1315.64 1092H1320.39V1088H1315.64V1092ZM1325.14 1092H1329.9V1088H1325.14V1092ZM1334.65 1092H1339.4V1088H1334.65V1092ZM1344.15 1092H1348.9V1088H1344.15V1092ZM1353.66 1092H1358.41V1088H1353.66V1092ZM1363.16 1092H1367.91V1088H1363.16V1092ZM1372.66 1092H1377.42V1088H1372.66V1092ZM1382.17 1092H1386.92V1088H1382.17V1092ZM1391.67 1092H1396.42V1088H1391.67V1092ZM1401.18 1092H1405.93V1088H1401.18V1092ZM1410.68 1092H1415.43V1088H1410.68V1092ZM1420.19 1092H1424.94V1088H1420.19V1092ZM1429.69 1092H1434.44V1088H1429.69V1092ZM1439.19 1092H1443.95V1088H1439.19V1092ZM1448.7 1092H1453.45V1088H1448.7V1092ZM1458.2 1092H1462.95V1088H1458.2V1092ZM1467.71 1092H1472.46V1088H1467.71V1092ZM1477.21 1092H1481.96V1088H1477.21V1092ZM1486.71 1092H1491.47V1088H1486.71V1092ZM1496.22 1092H1500.97V1088H1496.22V1092ZM1505.72 1092H1510.47V1088H1505.72V1092ZM1515.23 1092H1519.98V1088H1515.23V1092ZM1524.73 1092H1529.48V1088H1524.73V1092ZM1534.23 1092H1538.99V1088H1534.23V1092ZM1543.74 1092H1548.49V1088H1543.74V1092ZM1553.24 1092H1558V1088H1553.24V1092ZM1562.75 1092H1567.5V1088H1562.75V1092ZM1572.25 1092H1577V1088H1572.25V1092ZM1581.76 1092H1586.51V1088H1581.76V1092ZM1591.26 1092H1596.01V1088H1591.26V1092ZM1600.76 1092H1605.52V1088H1600.76V1092ZM1610.27 1092H1615.02V1088H1610.27V1092ZM1619.77 1092H1624.52V1088H1619.77V1092ZM1629.28 1092H1634.03V1088H1629.28V1092ZM1638.78 1092H1643.53V1088H1638.78V1092ZM1648.28 1092H1653.04V1088H1648.28V1092ZM1657.79 1092H1662.54V1088H1657.79V1092ZM1667.29 1092H1672.05V1088H1667.29V1092ZM1676.8 1092H1681.55V1088H1676.8V1092ZM1686.3 1092H1691.05V1088H1686.3V1092ZM1695.81 1092H1700.56V1088H1695.81V1092ZM1705.31 1092H1710.06V1088H1705.31V1092ZM1714.81 1092H1719.57V1088H1714.81V1092ZM1724.32 1092H1729.07V1088H1724.32V1092ZM1733.82 1092H1738.57V1088H1733.82V1092ZM1743.33 1092H1748.08V1088H1743.33V1092ZM1752.83 1092H1757.58V1088H1752.83V1092ZM1762.33 1092H1767.09V1088H1762.33V1092ZM1771.84 1092H1776.59V1088H1771.84V1092ZM1781.34 1092H1786.1V1088H1781.34V1092ZM1790.85 1092H1795.6V1088H1790.85V1092ZM1800.35 1092H1805.1V1088H1800.35V1092ZM1809.86 1092H1814.61V1088H1809.86V1092ZM1819.36 1092H1824.11V1088H1819.36V1092ZM1828.86 1092H1833.62V1088H1828.86V1092ZM1838.37 1092H1843.12V1088H1838.37V1092ZM1847.87 1092H1852.62V1088H1847.87V1092ZM1857.38 1092H1862.13V1088H1857.38V1092ZM1866.88 1092H1871.63V1088H1866.88V1092ZM1876.38 1092H1881.14V1088H1876.38V1092ZM1885.89 1092H1890.64V1088H1885.89V1092ZM1895.39 1092H1900.14V1088H1895.39V1092ZM1904.9 1092H1909.65V1088H1904.9V1092ZM1914.4 1092H1919.15V1088H1914.4V1092ZM1923.91 1092H1928.66V1088H1923.91V1092ZM1933.41 1092H1938.16V1088H1933.41V1092ZM1942.91 1092H1947.67V1088H1942.91V1092ZM1952.42 1092H1957.17V1088H1952.42V1092ZM1961.92 1092H1966.67V1088H1961.92V1092ZM1971.43 1092H1976.18V1088H1971.43V1092ZM1980.93 1092H1985.68V1088H1980.93V1092ZM1990.43 1092H1995.19V1088H1990.43V1092ZM1999.94 1092H2004.69V1088H1999.94V1092ZM2009.44 1092H2014.19V1088H2009.44V1092ZM2018.95 1092H2023.7V1088H2018.95V1092ZM2028.45 1092H2033.2V1088H2028.45V1092ZM2037.96 1092H2042.71V1088H2037.96V1092ZM2047.46 1092H2052.21V1088H2047.46V1092ZM2056.96 1092H2061.72V1088H2056.96V1092ZM2066.47 1092H2071.22V1088H2066.47V1092ZM2075.97 1092H2080.72V1088H2075.97V1092ZM2085.48 1092H2090.23V1088H2085.48V1092ZM2094.98 1092H2099.73V1088H2094.98V1092ZM2104.48 1092H2109.24V1088H2104.48V1092ZM2113.99 1092H2118.74V1088H2113.99V1092ZM2123.49 1092H2128.24V1088H2123.49V1092ZM2133 1092H2137.75V1088H2133V1092ZM2142.5 1092H2147.25V1088H2142.5V1092ZM2152 1092H2156.76V1088H2152V1092ZM2161.51 1092H2166.26V1088H2161.51V1092ZM2171.01 1092H2175.77V1088H2171.01V1092ZM2180.52 1092H2185.27V1088H2180.52V1092ZM2190.02 1092H2194.77V1088H2190.02V1092ZM2199.53 1092H2204.28V1088H2199.53V1092ZM2209.03 1092H2213.78V1088H2209.03V1092ZM2218.53 1092H2223.28V1088H2218.53V1092ZM2228.04 1092H2232.79V1088H2228.04V1092ZM2237.54 1092H2242.29V1088H2237.54V1092ZM2247.04 1092H2251.8V1088H2247.04V1092ZM2256.55 1092H2261.3V1088H2256.55V1092ZM2266.05 1092H2270.8V1088H2266.05V1092ZM2275.56 1092H2280.31V1088H2275.56V1092ZM2285.06 1092H2289.81V1088H2285.06V1092ZM2294.56 1092H2299.32V1088H2294.56V1092ZM2304.07 1092H2308.82V1088H2304.07V1092ZM2313.57 1092H2318.32V1088H2313.57V1092ZM2323.08 1092H2327.83V1088H2323.08V1092ZM2332.58 1092H2337.33V1088H2332.58V1092ZM2342.08 1092H2346.84V1088H2342.08V1092ZM2351.59 1092H2356.34V1088H2351.59V1092ZM2361.09 1092H2365.84V1088H2361.09V1092ZM2370.6 1092H2375.35V1088H2370.6V1092ZM2380.1 1092H2384.85V1088H2380.1V1092ZM2389.6 1092H2394.36V1088H2389.6V1092ZM2399.11 1092H2403.86V1088H2399.11V1092ZM2408.61 1092H2413.36V1088H2408.61V1092ZM2418.11 1092H2422.87V1088H2418.11V1092ZM2427.62 1092H2432.37V1088H2427.62V1092ZM2437.12 1092H2441.87V1088H2437.12V1092ZM2446.63 1092H2449V1088H2446.63V1092ZM2451 1090V1087.62H2447V1090H2451ZM2451 1082.86V1078.11H2447V1082.86H2451ZM2451 1073.35V1068.6H2447V1073.35H2451ZM2451 1063.84V1059.08H2447V1063.84H2451ZM2451 1054.33V1049.57H2447V1054.33H2451ZM2451 1044.81V1040.06H2447V1044.81H2451ZM2451 1035.3V1030.54H2447V1035.3H2451ZM2451 1025.79V1021.03H2447V1025.79H2451ZM2451 1016.27V1011.52H2447V1016.27H2451ZM2451 1006.76V1002H2447V1006.76H2451ZM2451 997.246V992.489H2447V997.246H2451ZM2451 987.732V982.976H2447V987.732H2451ZM2451 978.219V973.462H2447V978.219H2451ZM2451 968.706V963.949H2447V968.706H2451ZM2451 959.192V954.436H2447V959.192H2451ZM2451 949.679V944.923H2447V949.679H2451ZM2451 940.166V935.409H2447V940.166H2451ZM2451 930.653V925.896H2447V930.653H2451ZM2451 921.139V916.383H2447V921.139H2451ZM2451 911.626V906.869H2447V911.626H2451ZM2451 902.113V897.356H2447V902.113H2451ZM2451 892.6V887.843H2447V892.6H2451ZM2451 883.086V878.33H2447V883.086H2451ZM2451 873.573V868.816H2447V873.573H2451ZM2451 864.06V859.303H2447V864.06H2451ZM2451 854.546V849.79H2447V854.546H2451ZM2451 845.033V840.277H2447V845.033H2451ZM2451 835.52V830.763H2447V835.52H2451ZM2451 826.007V821.25H2447V826.007H2451ZM2451 816.493V811.737H2447V816.493H2451ZM2451 806.98V802.224H2447V806.98H2451ZM2451 797.467V792.71H2447V797.467H2451ZM2451 787.954V783.197H2447V787.954H2451ZM2451 778.44V773.684H2447V778.44H2451ZM2451 768.927V764.171H2447V768.927H2451ZM2451 759.414V754.657H2447V759.414H2451ZM2451 749.901V745.144H2447V749.901H2451ZM2451 740.387V735.631H2447V740.387H2451ZM2451 730.874V726.118H2447V730.874H2451ZM2451 721.361V716.604H2447V721.361H2451ZM2451 711.848V707.091H2447V711.848H2451ZM2451 702.334V697.578H2447V702.334H2451ZM2451 692.821V688.065H2447V692.821H2451ZM2451 683.308V678.551H2447V683.308H2451ZM2451 673.795V669.038H2447V673.795H2451ZM2451 664.281V659.525H2447V664.281H2451ZM2451 654.768V650.012H2447V654.768H2451ZM2451 645.255V640.498H2447V645.255H2451ZM2451 635.742V630.985H2447V635.742H2451ZM2451 626.229V621.472H2447V626.229H2451ZM2451 616.715V611.959H2447V616.715H2451ZM2451 607.202V602.445H2447V607.202H2451ZM2451 597.689V592.932H2447V597.689H2451ZM2451 588.176V583.419H2447V588.176H2451ZM2451 578.662V573.906H2447V578.662H2451ZM2451 569.149V564.392H2447V569.149H2451ZM2451 559.636V554.879H2447V559.636H2451ZM2451 550.122V545.366H2447V550.122H2451ZM2451 540.609V535.852H2447V540.609H2451ZM2451 531.096V526.339H2447V531.096H2451ZM2451 521.582V516.826H2447V521.582H2451ZM2451 512.069V507.313H2447V512.069H2451ZM2451 502.556V497.799H2447V502.556H2451ZM2451 493.043V488.286H2447V493.043H2451ZM2451 483.529V478.773H2447V483.529H2451ZM2451 474.016V469.259H2447V474.016H2451ZM2451 464.503V459.746H2447V464.503H2451ZM2451 454.989V450.233H2447V454.989H2451ZM2451 445.476V440.719H2447V445.476H2451ZM2451 435.963V431.206H2447V435.963H2451ZM2451 426.449V421.693H2447V426.449H2451ZM2451 416.936V412.179H2447V416.936H2451ZM2451 407.423V402.666H2447V407.423H2451ZM2451 397.909V393.153H2447V397.909H2451ZM2451 388.396V383.64H2447V388.396H2451ZM2451 378.883V374.126H2447V378.883H2451ZM2451 369.37V364.613H2447V369.37H2451ZM2451 359.856V355.1H2447V359.856H2451ZM2451 350.343V345.586H2447V350.343H2451ZM2451 340.83V336.073H2447V340.83H2451ZM2451 331.316V326.56H2447V331.316H2451ZM2451 321.803V317.046H2447V321.803H2451ZM2451 312.29V307.533H2447V312.29H2451ZM2451 302.776V298.02H2447V302.776H2451ZM2451 293.263V288.506H2447V293.263H2451ZM2451 283.75V278.993H2447V283.75H2451ZM2451 274.237V269.48H2447V274.237H2451ZM2451 264.723V259.967H2447V264.723H2451ZM2451 255.21V250.453H2447V255.21H2451ZM2451 245.697V240.94H2447V245.697H2451ZM2451 236.183V231.427H2447V236.183H2451ZM2451 226.67V221.913H2447V226.67H2451ZM2451 217.157V212.4H2447V217.157H2451ZM2451 207.643V202.887H2447V207.643H2451ZM2451 198.13V193.373H2447V198.13H2451ZM2451 188.617V183.86H2447V188.617H2451ZM2451 179.103V174.347H2447V179.103H2451ZM2451 169.59V164.833H2447V169.59H2451ZM2451 160.077V155.32H2447V160.077H2451ZM2451 150.564V145.807H2447V150.564H2451ZM2451 141.05V136.294H2447V141.05H2451ZM2451 131.537V126.78H2447V131.537H2451ZM2451 122.024V117.267H2447V122.024H2451ZM2451 112.51V107.754H2447V112.51H2451ZM2451 102.997V98.2403H2447V102.997H2451ZM2451 93.4837V88.7271H2447V93.4837H2451ZM2451 83.9704V79.2137H2447V83.9704H2451ZM2451 74.4571V69.7004H2447V74.4571H2451ZM2451 64.9438V60.1873H2447V64.9438H2451ZM2451 55.4307V50.6741H2447V55.4307H2451ZM2451 45.9175V41.1609H2447V45.9175H2451ZM2451 36.4043V31.6477H2447V36.4043H2451ZM2451 26.8911V22.1345H2447V26.8911H2451ZM2451 17.378V15H2447V17.378H2451ZM2449 17H2451.39V13H2449V17ZM2456.18 17H2460.96V13H2456.18V17ZM2465.75 17H2470.54V13H2465.75V17ZM2475.32 17H2480.11V13H2475.32V17ZM2484.89 17H2489.68V13H2484.89V17ZM2494.46 17H2499.25V13H2494.46V17ZM2504.04 17H2508.82V13H2504.04V17ZM2513.61 17H2518.39V13H2513.61V17ZM2523.18 17H2527.96V13H2523.18V17ZM2532.75 17H2537.54V13H2532.75V17ZM2542.32 17H2547.11V13H2542.32V17ZM2551.89 17H2556.68V13H2551.89V17ZM2561.46 17H2566.25V13H2561.46V17ZM2571.04 17H2575.82V13H2571.04V17ZM2580.61 17H2585.39V13H2580.61V17ZM2590.18 17H2594.96V13H2590.18V17ZM2599.75 17H2604.54V13H2599.75V17ZM2609.32 17H2614.11V13H2609.32V17ZM2618.89 17H2623.68V13H2618.89V17ZM2628.46 17H2633.25V13H2628.46V17ZM2638.04 17H2642.82V13H2638.04V17ZM2647.61 17H2650V13H2647.61V17Z" fill="black"/>
</svg>
