<svg width="280" height="69" viewBox="0 0 280 69" fill="none" xmlns="http://www.w3.org/2000/svg">
<g clip-path="url(#clip0_6894_35318)">
<path d="M67.9619 39.6959V39.6045C67.9619 33.6486 72.6122 30.724 79.3541 30.724C81.8735 30.6984 84.3801 31.0864 86.7751 31.8725V31.1932C86.7751 27.2754 84.3712 25.1855 79.9301 25.1855C77.8412 25.1578 75.7661 25.53 73.8156 26.2822C73.4935 26.3829 73.1586 26.4362 72.8213 26.4406C72.4753 26.4459 72.1317 26.3823 71.8102 26.2536C71.4887 26.1249 71.1957 25.9335 70.9481 25.6906C70.7004 25.4477 70.503 25.158 70.3672 24.8381C70.2314 24.5182 70.1598 24.1745 70.1567 23.8267C70.167 23.2847 70.3362 22.7577 70.643 22.3118C70.9498 21.8658 71.3806 21.5207 71.8816 21.3195C74.7135 20.2157 77.7295 19.6666 80.7668 19.7018C84.8956 19.7018 87.9786 20.7985 89.9126 22.7848C91.9498 24.7681 92.8926 27.6927 92.8926 31.2967V44.878C92.8939 45.2824 92.8145 45.6829 92.659 46.0559C92.5035 46.4289 92.2751 46.7667 91.9874 47.0494C91.6996 47.3321 91.3583 47.5538 90.9837 47.7015C90.6091 47.8492 90.2088 47.9199 89.8065 47.9093C87.9877 47.9093 86.7236 46.6541 86.7236 45.2436V44.2017C84.8441 46.4469 81.9672 48.223 77.7353 48.223C72.5606 48.2109 67.9619 45.2314 67.9619 39.6959ZM86.8812 37.7096V35.8299C84.8742 35.0843 82.7488 34.7126 80.6091 34.7332C76.5318 34.7332 74.1279 36.4575 74.1279 39.3303V39.4339C74.1279 42.0996 76.4803 43.6137 79.5117 43.6137C83.6921 43.6137 86.8812 41.21 86.8812 37.7096V37.7096Z" fill="white"/>
<path d="M122.213 44.7621C122.163 45.5763 121.806 46.3408 121.214 46.8996C120.623 47.4584 119.842 47.7695 119.03 47.7695C118.218 47.7695 117.437 47.4584 116.845 46.8996C116.254 46.3408 115.897 45.5763 115.847 44.7621V43.3516C114.07 45.9624 111.509 48.2107 107.225 48.2107C101.005 48.2107 97.3975 44.0309 97.3975 37.6059V22.9279C97.3975 22.5106 97.4792 22.0974 97.6381 21.7119C97.797 21.3264 98.0299 20.9761 98.3235 20.6811C98.6171 20.386 98.9657 20.152 99.3493 19.9923C99.7329 19.8326 100.144 19.7504 100.559 19.7504C100.974 19.7504 101.386 19.8326 101.769 19.9923C102.153 20.152 102.501 20.386 102.795 20.6811C103.089 20.9761 103.321 21.3264 103.48 21.7119C103.639 22.0974 103.721 22.5106 103.721 22.9279V35.7232C103.721 40.0065 105.864 42.4254 109.629 42.4254C113.288 42.4254 115.847 39.9182 115.847 35.6348V22.9279C115.845 22.5085 115.926 22.0928 116.086 21.7051C116.245 21.3174 116.479 20.9651 116.774 20.6688C117.07 20.3725 117.42 20.138 117.807 19.9788C118.193 19.8196 118.606 19.7388 119.024 19.7413C119.866 19.742 120.674 20.0775 121.272 20.6744C121.869 21.2713 122.207 22.0813 122.213 22.9279V44.7621Z" fill="white"/>
<path d="M128.639 40.0098V25.4872H127.593C127.231 25.4994 126.87 25.4382 126.531 25.3072C126.193 25.1762 125.884 24.9781 125.623 24.7247C125.362 24.4713 125.155 24.1678 125.013 23.8322C124.872 23.4966 124.799 23.1358 124.799 22.7713C124.799 22.4067 124.872 22.0459 125.013 21.7104C125.155 21.3748 125.362 21.0712 125.623 20.8178C125.884 20.5644 126.193 20.3663 126.531 20.2353C126.87 20.1043 127.231 20.0431 127.593 20.0553H128.639V15.3546C128.665 14.5285 129.009 13.7448 129.6 13.1695C130.19 12.5942 130.98 12.2725 131.803 12.2725C132.625 12.2725 133.415 12.5942 134.006 13.1695C134.596 13.7448 134.94 14.5285 134.966 15.3546V20.0553H139.928C140.291 20.0431 140.652 20.1043 140.991 20.2353C141.329 20.3663 141.638 20.5644 141.899 20.8178C142.159 21.0712 142.367 21.3748 142.508 21.7104C142.65 22.0459 142.723 22.4067 142.723 22.7713C142.723 23.1358 142.65 23.4966 142.508 23.8322C142.367 24.1678 142.159 24.4713 141.899 24.7247C141.638 24.9781 141.329 25.1762 140.991 25.3072C140.652 25.4382 140.291 25.4994 139.928 25.4872H134.966V39.0167C134.966 41.4722 136.218 42.4653 138.361 42.4653C138.886 42.4405 139.409 42.3876 139.928 42.3069C140.625 42.3051 141.294 42.5779 141.793 43.0665C142.292 43.5552 142.58 44.2209 142.596 44.9208C142.584 45.4488 142.42 45.9619 142.123 46.3974C141.826 46.833 141.409 47.1721 140.923 47.3732C139.531 47.872 138.062 48.1205 136.585 48.1074C131.934 48.1074 128.639 46.0693 128.639 40.0098Z" fill="white"/>
<path d="M143.745 34.0021V33.8985C143.745 26.0112 150.017 19.4795 158.484 19.4795C166.951 19.4795 173.171 25.9045 173.171 33.798V33.9046C173.171 41.7402 166.899 48.2688 158.381 48.2688C149.966 48.2627 143.745 41.8377 143.745 34.0021ZM166.848 34.0021V33.8985C166.848 29.0242 163.343 25.018 158.381 25.018C153.309 25.018 150.069 28.9785 150.069 33.7919V33.8985C150.069 38.7029 153.57 42.7334 158.484 42.7334C163.607 42.7242 166.848 38.7546 166.848 34.0021Z" fill="white"/>
<path d="M175.785 44.8657C175.404 44.645 175.09 44.3242 174.876 43.9379C174.663 43.5515 174.558 43.114 174.573 42.6723C174.57 42.3341 174.634 41.9988 174.762 41.686C174.89 41.3732 175.079 41.0893 175.317 40.8509C175.556 40.6125 175.84 40.4244 176.152 40.2977C176.464 40.1711 176.798 40.1083 177.134 40.1132C177.611 40.1162 178.078 40.2421 178.492 40.4788C181.16 42.2549 183.928 43.1445 186.438 43.1445C189.166 43.1445 190.724 41.9929 190.724 40.165V40.0614C190.724 37.9289 187.796 37.1886 184.555 36.1954C180.481 35.0469 175.934 33.3744 175.934 28.1009V27.9943C175.934 22.7726 180.272 19.5859 185.759 19.5859C188.787 19.6307 191.761 20.4004 194.435 21.8312C194.886 22.0485 195.268 22.3892 195.536 22.8143C195.804 23.2393 195.948 23.7316 195.95 24.2349C195.954 24.5775 195.888 24.9173 195.758 25.234C195.628 25.5506 195.436 25.8377 195.193 26.078C194.95 26.3182 194.661 26.5068 194.344 26.6325C194.026 26.7581 193.687 26.8182 193.346 26.8092C192.909 26.8208 192.476 26.7157 192.091 26.5045C189.845 25.356 187.544 24.6248 185.61 24.6248C183.155 24.6248 181.742 25.7734 181.742 27.3393V27.4185C181.742 29.4535 184.722 30.2913 187.963 31.3363C191.985 32.5884 196.532 34.4163 196.532 39.379V39.4826C196.532 45.2709 192.04 48.1559 186.289 48.1559C182.541 48.1293 178.885 46.9842 175.785 44.8657V44.8657Z" fill="white"/>
<path d="M198.729 34.0021V33.8985C198.729 26.063 204.792 19.4795 213.102 19.4795C217.44 19.4795 220.416 20.89 222.769 22.9281C223.077 23.2043 223.325 23.542 223.496 23.9197C223.667 24.2973 223.758 24.7066 223.763 25.1216C223.762 25.5044 223.684 25.883 223.536 26.2354C223.387 26.5879 223.17 26.9071 222.898 27.1744C222.625 27.4418 222.303 27.652 221.948 27.7928C221.594 27.9336 221.216 28.0021 220.835 27.9944C220.158 27.9881 219.501 27.7686 218.955 27.3669C217.334 26.0112 215.557 25.018 213.05 25.018C208.448 25.018 205.053 28.9785 205.053 33.7919V33.8985C205.053 38.8064 208.448 42.7334 213.311 42.7334C215.818 42.7334 217.752 41.7433 219.477 40.2809C219.865 39.9335 220.346 39.7076 220.86 39.6311C221.374 39.5545 221.9 39.6306 222.371 39.85C222.843 40.0695 223.241 40.4226 223.516 40.8661C223.79 41.3097 223.93 41.8242 223.918 42.3465C223.932 42.7236 223.859 43.099 223.706 43.4434C223.552 43.7879 223.322 44.0922 223.033 44.3328C220.574 46.6847 217.594 48.2506 212.995 48.2506C204.789 48.2628 198.729 41.8377 198.729 34.0021Z" fill="white"/>
<path d="M225.488 39.6959V39.6045C225.488 33.6486 230.139 30.724 236.88 30.724C239.4 30.6982 241.907 31.0862 244.301 31.8725V31.1932C244.301 27.2754 241.901 25.1855 237.456 25.1855C235.368 25.1578 233.292 25.53 231.342 26.2822C231.02 26.3829 230.685 26.4362 230.348 26.4406C230.002 26.4459 229.658 26.3823 229.337 26.2536C229.015 26.1249 228.722 25.9335 228.474 25.6906C228.227 25.4477 228.029 25.158 227.894 24.8381C227.758 24.5182 227.686 24.1745 227.683 23.8267C227.694 23.2849 227.864 22.7583 228.17 22.3125C228.477 21.8666 228.907 21.5213 229.408 21.3195C232.24 20.2157 235.256 19.6666 238.293 19.7018C242.422 19.7018 245.505 20.7985 247.439 22.7848C249.476 24.7681 250.419 27.6927 250.419 31.2967V44.878C250.42 45.2824 250.341 45.6829 250.185 46.0559C250.03 46.4289 249.802 46.7667 249.514 47.0494C249.226 47.3321 248.885 47.5538 248.51 47.7015C248.135 47.8492 247.735 47.9199 247.333 47.9093C245.514 47.9093 244.25 46.6541 244.25 45.2436V44.2017C242.37 46.4469 239.494 48.223 235.262 48.223C230.087 48.2109 225.488 45.2314 225.488 39.6959ZM244.408 37.7096V35.8299C242.401 35.0843 240.275 34.7126 238.135 34.7332C234.058 34.7332 231.654 36.4575 231.654 39.3303V39.4339C231.654 42.0996 234.007 43.6137 237.038 43.6137C241.218 43.6137 244.408 41.21 244.408 37.7096V37.7096Z" fill="white"/>
<path d="M255.227 22.9281C255.219 22.5106 255.295 22.0958 255.449 21.708C255.604 21.3203 255.834 20.9676 256.126 20.6706C256.418 20.3736 256.766 20.1384 257.15 19.9788C257.534 19.8193 257.946 19.7386 258.362 19.7415C258.78 19.7375 259.195 19.817 259.583 19.9755C259.97 20.134 260.322 20.3682 260.619 20.6647C260.916 20.9612 261.151 21.3139 261.311 21.7025C261.471 22.091 261.552 22.5076 261.551 22.9281V24.2869C263.327 21.7278 265.889 19.4795 270.175 19.4795C276.393 19.4795 280 23.6593 280 30.0325V44.7623C280.007 45.1771 279.93 45.589 279.775 45.9733C279.619 46.3577 279.388 46.7066 279.096 46.9992C278.803 47.2919 278.455 47.5222 278.072 47.6765C277.689 47.8308 277.278 47.9058 276.866 47.8972C276.45 47.9069 276.037 47.833 275.65 47.6798C275.263 47.5266 274.911 47.2972 274.614 47.0051C274.317 46.713 274.081 46.3641 273.92 45.9789C273.759 45.5937 273.676 45.1801 273.676 44.7623V31.9671C273.676 27.6837 271.533 25.2282 267.771 25.2282C264.112 25.2282 261.551 27.7903 261.551 32.0737V44.7654C261.551 45.6081 261.218 46.4163 260.625 47.0122C260.032 47.6081 259.227 47.9429 258.389 47.9429C257.55 47.9429 256.746 47.6081 256.153 47.0122C255.56 46.4163 255.227 45.6081 255.227 44.7654V22.9281Z" fill="white"/>
<path fill-rule="evenodd" clip-rule="evenodd" d="M7.83935 35.8116C9.23988 34.4986 12.0834 34.069 14.1872 34.1817C15.0588 34.2334 15.9253 34.3515 16.7791 34.5351C22.0993 35.6471 24.1516 39.0317 25.0944 44.4971C25.5491 47.1324 25.0277 49.7859 23.6999 51.1233C22.4873 52.2383 20.9352 51.8636 19.3467 51.1233C14.0426 48.6235 9.84342 44.244 7.55439 38.8246C7.22093 38.0142 6.66921 36.9205 7.83935 35.8207V35.8116ZM50.9375 35.8207C49.537 34.5077 46.6935 34.0781 44.5896 34.1909C43.718 34.2426 42.8516 34.3607 41.9977 34.5443C36.6775 35.6562 34.6253 39.0409 33.6825 44.5063C33.2308 47.1415 33.7492 49.795 35.0769 51.1324C36.2895 52.2474 37.8416 51.8727 39.4301 51.1324C44.7409 48.63 48.944 44.2433 51.2315 38.8154C51.5559 38.0051 52.1076 36.9114 50.9284 35.8116L50.9375 35.8207ZM29.3869 23.1534C27.8821 23.154 26.4113 23.603 25.1604 24.4436C23.9095 25.2842 22.9348 26.4787 22.3593 27.876C21.7839 29.2733 21.6336 30.8107 21.9276 32.2938C22.2215 33.7769 22.9464 35.1391 24.0107 36.2082C25.0749 37.2773 26.4307 38.0053 27.9066 38.3001C29.3825 38.5949 30.9123 38.4433 32.3025 37.8644C33.6926 37.2856 34.8808 36.3055 35.7168 35.0481C36.5527 33.7906 36.9989 32.3124 36.9989 30.8001C36.9989 29.7957 36.802 28.8011 36.4194 27.8731C36.0368 26.9452 35.4761 26.1021 34.7692 25.392C34.0623 24.6819 33.2232 24.1187 32.2997 23.7346C31.3761 23.3505 30.3864 23.153 29.3869 23.1534V23.1534ZM29.3869 5.72139C24.0021 5.72297 18.7782 7.5659 14.574 10.9472C10.3698 14.3284 7.4356 19.0468 6.2539 24.3263C5.7143 29.5236 10.3251 28.4452 13.6779 26.9067C17.537 25.1336 22.0478 20.573 29.3869 20.573C36.7261 20.573 41.2399 25.1428 45.0989 26.9067C48.4517 28.4452 53.0625 29.5236 52.5229 24.3263C51.3446 19.0432 48.4114 14.3207 44.2062 10.9363C40.001 7.55186 34.7744 5.70727 29.3869 5.70616V5.72139ZM29.3869 69.0153C28.6576 69.0154 27.9354 68.8704 27.2621 68.5886C26.5889 68.3067 25.9778 67.8937 25.4642 67.3732L8.6063 50.4165C4.49674 46.2862 1.69817 41.0239 0.564482 35.2952C-0.569205 29.5665 0.0129072 23.6286 2.23721 18.2324C4.46151 12.8361 8.2281 8.2239 13.0607 4.97893C17.8933 1.73395 23.5748 0.00195312 29.3869 0.00195312C35.199 0.00195312 40.8805 1.73395 45.7131 4.97893C50.5457 8.2239 54.3123 12.8361 56.5366 18.2324C58.7609 23.6286 59.343 29.5665 58.2093 35.2952C57.0756 41.0239 54.2771 46.2862 50.1675 50.4165L33.3005 67.3732C32.7867 67.8897 32.1765 68.2992 31.5049 68.5784C30.8334 68.8575 30.1136 69.0008 29.3869 69.0001V69.0153Z" fill="url(#paint0_radial_6894_35318)"/>
<path d="M29.2688 35.3425C31.8756 35.3425 33.9888 33.2229 33.9888 30.6083C33.9888 27.9936 31.8756 25.874 29.2688 25.874C26.662 25.874 24.5488 27.9936 24.5488 30.6083C24.5488 33.2229 26.662 35.3425 29.2688 35.3425Z" fill="url(#paint1_radial_6894_35318)"/>
</g>
<defs>
<radialGradient id="paint0_radial_6894_35318" cx="0" cy="0" r="1" gradientUnits="userSpaceOnUse" gradientTransform="translate(31.9212 -11.5217) scale(87.0481 87.48)">
<stop stop-color="#0EE4A0"/>
<stop offset="0.22" stop-color="#43BFD4"/>
<stop offset="0.66" stop-color="#824EF1"/>
<stop offset="0.94" stop-color="#CB56D0"/>
</radialGradient>
<radialGradient id="paint1_radial_6894_35318" cx="0" cy="0" r="1" gradientUnits="userSpaceOnUse" gradientTransform="translate(31.9213 -11.5217) scale(87.0481 87.48)">
<stop stop-color="#0EE4A0"/>
<stop offset="0.22" stop-color="#43BFD4"/>
<stop offset="0.66" stop-color="#824EF1"/>
<stop offset="0.94" stop-color="#CB56D0"/>
</radialGradient>
<clipPath id="clip0_6894_35318">
<rect width="280" height="69" fill="white"/>
</clipPath>
</defs>
</svg>
