<svg width="207" height="202" viewBox="0 0 207 202" fill="none" xmlns="http://www.w3.org/2000/svg">
<path opacity="0.1" d="M27.0695 108.15C27.0695 155.728 65.601 194.296 113.131 194.296C160.661 194.296 199.193 155.728 199.193 108.15C199.193 60.5729 160.661 22.0043 113.131 22.0043C65.601 22.0043 27.0695 60.5729 27.0695 108.15Z" stroke="url(#paint0_linear_317_10284)" stroke-width="0.754778"/>
<path opacity="0.05" d="M20.0992 108.151C20.0992 159.581 61.7512 201.273 113.131 201.273C164.51 201.273 206.162 159.581 206.162 108.151C206.162 56.7201 164.51 15.0281 113.131 15.0281C61.7512 15.0281 20.0992 56.7201 20.0992 108.151Z" stroke="url(#paint1_linear_317_10284)" stroke-width="0.815905"/>
<g clip-path="url(#clip0_317_10284)">
<path d="M113.128 188.211C68.8515 188.211 32.958 152.283 32.958 107.963C32.958 63.6428 68.8515 27.7144 113.128 27.7144C157.405 27.7144 193.299 63.6428 193.299 107.963C193.299 152.283 157.405 188.211 113.128 188.211Z" fill="white"/>
<path opacity="0.1" d="M113.128 188.211C68.8515 188.211 32.958 152.283 32.958 107.963C32.958 63.6428 68.8515 27.7144 113.128 27.7144C157.405 27.7144 193.299 63.6428 193.299 107.963C193.299 152.283 157.405 188.211 113.128 188.211Z" fill="url(#paint2_linear_317_10284)"/>
<path opacity="0.1" d="M33.308 107.963C33.308 152.09 69.0452 187.861 113.128 187.861C157.212 187.861 192.949 152.09 192.949 107.963C192.949 63.8358 157.212 28.0644 113.128 28.0644C69.0452 28.0644 33.308 63.8358 33.308 107.963Z" stroke="url(#paint3_linear_317_10284)" stroke-width="0.70004"/>
<path opacity="0.1" d="M33.308 108.151C33.308 152.278 69.0452 188.049 113.128 188.049C157.212 188.049 192.949 152.278 192.949 108.151C192.949 64.0238 157.212 28.2524 113.128 28.2524C69.0452 28.2524 33.308 64.0238 33.308 108.151Z" stroke="url(#paint4_linear_317_10284)" stroke-width="0.70004"/>
</g>
<mask id="mask0_317_10284" style="mask-type:alpha" maskUnits="userSpaceOnUse" x="0" y="0" width="205" height="189">
<path fill-rule="evenodd" clip-rule="evenodd" d="M205 0H0V132H36.6196C46.824 164.577 77.2203 188.211 113.131 188.211C149.042 188.211 179.439 164.577 189.643 132H205V0Z" fill="#C4C4C4"/>
</mask>
<g mask="url(#mask0_317_10284)">
<path d="M172.408 195.162C171.873 189.946 171.578 185.267 171.669 181.69C172.24 162.976 178.076 126.356 178.649 110.819C179.223 95.2825 163.163 85.1101 163.163 85.1101L143.175 103.454L112.572 131.557C112.572 131.557 118.342 152.638 117.488 166.272C116.617 179.938 120.254 183.318 123.901 194.482C124.753 197.139 125.413 200.304 125.939 203.642C142.007 204.941 158.057 201.954 172.408 195.162Z" fill="#F7DAC1"/>
<path d="M162.982 100.366C162.982 100.366 159.392 110.005 161.984 116.693C164.577 123.381 168.604 140.126 167.703 144.53L160.113 138.131L154.671 123.111L153.783 107.644L162.982 100.366Z" fill="#D8A988"/>
<path d="M144.24 145.491C144.24 145.491 140.333 149.583 137.499 154.252C134.666 158.921 130.677 177.104 130.677 177.104C130.677 177.104 129.918 155.108 135.988 144.113C142.057 133.117 144.24 145.491 144.24 145.491Z" fill="#D8A988"/>
<path d="M79.9331 79.2914L79.9319 79.2927C79.1283 80.151 78.6859 81.0007 78.5605 81.8559C78.4357 82.7071 78.6148 83.6317 79.1768 84.6622C80.048 86.2337 81.0488 87.73 82.1688 89.1354L82.1708 89.1378C96.435 107.228 110.72 125.304 125.025 143.364L125.025 143.364C126.064 144.678 127.167 145.943 128.317 147.177C129.382 148.309 130.418 148.924 131.447 149.087C132.466 149.249 133.579 148.981 134.838 148.145C137.185 146.58 139.414 144.84 141.662 143.087C142.182 142.682 142.702 142.276 143.225 141.871M79.9331 79.2914L143.59 142.343M79.9331 79.2914C80.7092 78.4574 81.5439 77.68 82.4309 76.9652M79.9331 79.2914L153.918 127.582C154.952 126.836 156.05 126.504 157.25 126.665C158.309 126.808 159.391 127.328 160.535 128.173L160.98 127.821L161.008 127.799C166.36 123.566 171.711 119.335 177.046 115.084C178.01 114.311 178.92 113.473 179.771 112.577L179.773 112.575C180.678 111.634 181.15 110.711 181.263 109.789C181.376 108.869 181.14 107.872 180.484 106.763C179.752 105.536 178.939 104.359 178.05 103.24L178.049 103.239C163.335 84.6041 148.608 65.9798 133.868 47.3661C132.979 46.2453 132.02 45.1817 130.997 44.1814C130.123 43.33 129.235 42.8743 128.337 42.751C127.438 42.6276 126.463 42.8277 125.397 43.4071C124.399 43.9508 123.447 44.5758 122.552 45.2757C117.714 49.0632 112.896 52.8744 108.086 56.6784C107.394 57.2255 106.703 57.7724 106.011 58.3191L106.011 58.3193L96.8439 65.561L96.8432 65.5615C92.0392 69.3458 87.226 73.1375 82.4309 76.9652M143.225 141.871C143.225 141.871 143.225 141.871 143.225 141.871L143.59 142.343M143.225 141.871C143.225 141.871 143.225 141.871 143.225 141.871L143.59 142.343M143.225 141.871C145.368 140.21 147.487 138.524 149.6 136.841C150.546 136.088 151.491 135.336 152.437 134.587M143.59 142.343C145.736 140.68 147.861 138.989 149.976 137.305C151.031 136.465 152.084 135.627 153.136 134.795M152.437 134.587C152.48 134.718 152.524 134.852 152.571 134.988L153.136 134.795M152.437 134.587C151.905 132.946 151.675 131.64 151.864 130.533C152.075 129.286 152.796 128.39 153.918 127.582L153.136 134.795M152.437 134.587C152.546 134.5 152.656 134.414 152.765 134.327L153.136 134.795M82.4309 76.9652C82.4307 76.9653 82.4305 76.9654 82.4304 76.9655L82.0579 76.4989M82.4309 76.9652C82.4314 76.9647 82.432 76.9642 82.4325 76.9638L82.0579 76.4989M82.0579 76.4989C81.1482 77.2321 80.2921 78.0293 79.4961 78.8847M82.0579 76.4989C86.855 72.6697 91.6699 68.8768 96.4738 65.0925L105.641 57.8508C106.332 57.3043 107.023 56.7575 107.715 56.2106C112.525 52.4064 117.345 48.594 122.184 44.8054C123.105 44.0851 124.085 43.442 125.112 42.8826L79.4961 78.8847M79.4961 78.8847C77.7705 80.7278 77.4325 82.712 78.6536 84.9498C79.5412 86.551 80.5608 88.0756 81.702 89.5075M79.4961 78.8847L81.702 89.5075M81.702 89.5075C95.9664 107.598 110.251 125.674 124.557 143.735C125.607 145.063 126.722 146.342 127.881 147.585L81.702 89.5075Z" fill="white" stroke="black" stroke-width="1.19401"/>
<rect x="170.17" y="104.782" width="52.238" height="17.9102" rx="3.54435" transform="rotate(141.665 170.17 104.782)" fill="#F2F2F2"/>
<rect x="156.84" y="87.9238" width="52.238" height="3.58203" rx="1.79102" transform="rotate(141.665 156.84 87.9238)" fill="#F2F2F2"/>
<rect x="152.58" y="82.5386" width="25.9697" height="3.58203" rx="1.79102" transform="rotate(141.665 152.58 82.5386)" fill="#F2F2F2"/>
<rect x="138.879" y="65.2119" width="22.0892" height="3.58203" rx="1.79102" transform="rotate(141.665 138.879 65.2119)" fill="#F2F2F2"/>
<rect x="135.732" y="61.231" width="16.7162" height="3.58203" rx="1.79102" transform="rotate(141.665 135.732 61.231)" fill="#F2F2F2"/>
<rect x="132.584" y="57.2505" width="10.4476" height="3.58203" rx="1.79102" transform="rotate(141.665 132.584 57.2505)" fill="#F2F2F2"/>
<rect x="149.062" y="78.0898" width="52.238" height="3.58203" rx="1.79102" transform="rotate(141.665 149.062 78.0898)" fill="#F2F2F2"/>
<path fill-rule="evenodd" clip-rule="evenodd" d="M103.781 95.4462C103.933 95.6379 103.9 95.9164 103.709 96.068L99.6541 99.274C99.4624 99.4257 99.1839 99.3931 99.0323 99.2013L95.8263 95.1469C95.6746 94.9552 95.7072 94.6767 95.8989 94.5251L98.4477 92.5096L97.623 91.4667L95.0743 93.4821C94.8825 93.6338 94.6041 93.6012 94.4524 93.4094L92.6204 91.0926C92.4687 90.9008 92.5013 90.6224 92.693 90.4707C92.8848 90.3191 93.1632 90.3516 93.3149 90.5434L94.8723 92.513L97.4197 90.4987L97.421 90.4976L98.8114 89.3981L97.9866 88.355L94.8586 90.8285C94.6668 90.9801 94.3884 90.9476 94.2368 90.7558L92.2213 88.207L91.4102 88.8484C91.2184 89.0001 90.94 88.9676 90.7884 88.7758L88.5101 85.8946C88.3585 85.7028 88.391 85.4244 88.5828 85.2727L91.1315 83.2573L90.9364 83.0105C90.7847 82.8187 90.8172 82.5403 91.009 82.3887L96.2219 78.2666C96.4137 78.115 96.6921 78.1475 96.8438 78.3393L98.6758 80.6561C98.8274 80.8479 98.7949 81.1263 98.6031 81.278L97.4447 82.194C97.2529 82.3457 96.9745 82.3131 96.8228 82.1213C96.6712 81.9295 96.7037 81.6511 96.8955 81.4995L97.7066 80.858L96.4238 79.2358L91.9055 82.8086L95.4783 87.3269L97.6799 85.5861L96.8551 84.5431L95.4796 85.6307C95.2878 85.7824 95.0094 85.7499 94.8577 85.5581L93.0257 83.2413C92.8741 83.0495 92.9066 82.771 93.0984 82.6194L94.8211 81.2571C95.0129 81.1054 95.2914 81.138 95.443 81.3298L97.0004 83.2993L98.3907 82.1999C98.5825 82.0483 98.8609 82.0808 99.0126 82.2726L100.112 83.663L103.24 81.1895C103.432 81.0379 103.71 81.0704 103.862 81.2622L105.877 83.811L107.5 82.5281L105.759 80.3266L104.948 80.968C104.756 81.1197 104.477 81.0872 104.326 80.8954C104.174 80.7036 104.207 80.4252 104.398 80.2735L105.557 79.3575C105.749 79.2059 106.027 79.2384 106.179 79.4302L108.469 82.3262C108.62 82.518 108.588 82.7964 108.396 82.9481L106.079 84.7801C105.887 84.9317 105.609 84.8992 105.457 84.7074L104.816 83.8962L103.194 85.1791L104.293 86.5694C104.445 86.7612 104.412 87.0396 104.22 87.1913L103.409 87.8327L104.314 88.9774C104.466 89.1692 104.434 89.4476 104.242 89.5993L102.851 90.6987L104.786 93.1458L105.83 92.321L104.73 90.9307C104.578 90.7389 104.611 90.4605 104.803 90.3088C104.995 90.1572 105.273 90.1897 105.425 90.3815L106.799 92.1191C106.95 92.3109 106.918 92.5893 106.726 92.7409L104.988 94.1149C104.797 94.2666 104.518 94.2341 104.367 94.0423L102.54 91.7318L102.534 91.7255L100.519 89.1767L98.3175 90.9175L99.1422 91.9605L99.9533 91.3191C100.145 91.1674 100.424 91.2 100.575 91.3918L103.781 95.4462ZM102.812 95.6481L100.155 92.2882L96.7954 94.945L99.4522 98.3049L102.812 95.6481ZM102.302 90.0042L103.345 89.1794L102.44 88.0346C102.288 87.8428 102.321 87.5644 102.513 87.4128L103.324 86.7713L102.499 85.7282L101.688 86.3697L101.685 86.3718L100.529 87.2857C100.338 87.4374 100.059 87.4048 99.9076 87.213C99.756 87.0212 99.7885 86.7428 99.9803 86.5912L100.791 85.9497L99.9667 84.9067L98.5764 86.0061L98.5709 86.0103L95.6803 88.2961C95.4885 88.4477 95.2101 88.4152 95.0584 88.2234L93.959 86.833L93.8245 86.9393L92.9159 87.6579L94.6567 89.8594L97.7847 87.3859C97.9765 87.2343 98.2549 87.2668 98.4065 87.4586L99.5059 88.8489L100.317 88.2075C100.509 88.0559 100.787 88.0884 100.939 88.2802L102.302 90.0042ZM104.267 83.2017L103.442 82.1586L100.661 84.3575L101.486 85.4006L102.294 84.7615L102.297 84.7592L104.267 83.2017ZM98.5927 83.1691L99.4175 84.2122L98.3744 85.0369L97.5496 83.9939L98.5927 83.1691ZM95.0231 82.2262L96.3059 83.8485L95.2776 84.6616L93.9948 83.0393L95.0231 82.2262ZM92.0642 85.3903C92.2159 85.5821 92.1833 85.8605 91.9915 86.0121L91.4123 86.4702C91.2205 86.6218 90.9421 86.5893 90.7905 86.3975C90.6388 86.2057 90.6713 85.9273 90.8631 85.7756L91.4424 85.3176C91.6341 85.166 91.9126 85.1985 92.0642 85.3903ZM91.6807 83.9519L93.4098 86.1385L93.2753 86.2448L92.0194 87.2379L91.2083 87.8793L89.4792 85.6927L91.6807 83.9519ZM101.824 95.8478C102.016 95.6961 102.048 95.4177 101.897 95.2259L100.355 93.2763C100.203 93.0845 99.925 93.052 99.7332 93.2036L97.7835 94.7453C97.5918 94.8969 97.5592 95.1754 97.7109 95.3671L99.2525 97.3168C99.4042 97.5086 99.6826 97.5411 99.8744 97.3894L101.824 95.8478ZM99.9351 94.1727L100.928 95.4279L99.6725 96.4203L98.68 95.1652L99.9351 94.1727ZM113.628 87.6601C113.779 87.8519 113.747 88.1303 113.555 88.282L109.501 91.488C109.309 91.6396 109.03 91.6071 108.879 91.4153L105.673 87.3609L106.02 87.0863L105.745 86.739L109.8 83.533C109.992 83.3814 110.27 83.4139 110.422 83.6057L113.628 87.6601ZM106.642 87.159L109.299 90.5188L112.659 87.862L110.002 84.5022L106.642 87.159ZM111.671 88.0617C111.862 87.9101 111.895 87.6316 111.743 87.4399L110.202 85.4902C110.05 85.2984 109.771 85.2659 109.58 85.4176L107.63 86.9592C107.438 87.1109 107.406 87.3893 107.557 87.5811L109.099 89.5307C109.251 89.7225 109.529 89.755 109.721 89.6034L111.671 88.0617ZM109.782 86.3867L110.774 87.6418L109.519 88.6342L108.526 87.3792L109.782 86.3867ZM105.842 77.8137C105.993 78.0055 105.961 78.2839 105.769 78.4356L101.715 81.6416C101.523 81.7932 101.245 81.7607 101.093 81.5689L97.8869 77.5145L98.2342 77.2399L97.9596 76.8926L102.014 73.6866C102.206 73.535 102.484 73.5675 102.636 73.7593L105.842 77.8137ZM98.856 77.3126L101.513 80.6724L104.873 78.0157L102.216 74.6558L98.856 77.3126ZM103.885 78.2154C104.076 78.0637 104.109 77.7853 103.957 77.5935L102.416 75.6439C102.264 75.4521 101.986 75.4195 101.794 75.5712L99.8441 77.1128C99.6523 77.2645 99.6198 77.5429 99.7714 77.7347L101.313 79.6844C101.465 79.8761 101.743 79.9087 101.935 79.757L103.885 78.2154ZM101.996 76.5403L102.988 77.7954L101.733 78.7879L100.741 77.5328L101.996 76.5403Z" fill="black"/>
<path d="M170.291 148.65C170.291 148.65 160.481 117.067 153.173 111.96C145.833 106.837 126.928 94.6853 121.876 102.195C116.825 109.706 126.324 120.429 137.667 127.948C137.667 127.948 143.778 142.025 140.324 148.682C136.901 155.357 155.43 159.119 155.43 159.119L170.291 148.65Z" fill="#F7DAC1"/>
<path d="M19.4024 178.873C21.9957 175.043 24.1779 171.529 25.601 168.711C32.9697 153.928 43.7224 123.031 49.7628 110.717C55.8033 98.4029 69.0227 85.4238 69.0227 85.4238L80.4078 119.802L82.084 163.805C82.084 163.805 79.1744 168.395 74.146 179.348C69.1176 190.333 64.8798 191.441 57.3845 198.595C55.6135 200.304 53.7792 202.489 51.9766 204.863C38.9469 199.165 27.7199 190.143 19.4024 178.873Z" fill="#F7DAC1"/>
<path d="M126.361 71.8435C126.361 71.8435 131.674 70.3873 133.856 71.8435C136.006 73.2997 135.532 82.7649 128.227 84.1894L126.361 71.8435Z" fill="#F5C9AA"/>
<path d="M127.689 89.8235C130.978 87.7025 132.78 87.5443 133.761 89.222C134.741 90.8998 138.947 97.5793 127.942 103.942C116.936 110.305 122.565 100.017 122.565 100.017L127.689 89.8235Z" fill="#F5C9AA"/>
<path d="M125.758 109.229C125.758 109.229 130.027 107.773 132.241 108.976C134.455 110.179 135.815 118.979 127.56 121.702C119.338 124.424 122.753 115.972 122.753 115.972L125.758 109.229Z" fill="#F5C9AA"/>
<path d="M127.118 126.386C127.118 126.386 130.122 125.817 130.976 127.305C131.83 128.792 131.166 132.686 127.972 135.598C124.777 138.511 124.43 130.565 124.43 130.565L127.118 126.386Z" fill="#F5C9AA"/>
<path d="M66.3028 109.135C66.3028 109.135 65.0694 118.125 60.2623 122.24C55.4553 126.356 45.3351 137.689 44.1966 141.487L52.7671 139.683L63.2667 130.281L70.4141 118.632L66.3028 109.135Z" fill="#D8A988"/>
<path d="M62.0311 152.028C62.0311 152.028 63.3593 156.84 63.6123 161.652C63.8653 166.464 59.3745 182.26 59.3745 182.26C59.3745 182.26 69.1468 165.482 69.0203 154.403C68.8938 143.323 62.0311 152.028 62.0311 152.028Z" fill="#D8A988"/>
<path d="M128.288 61.3109V40.0696C128.288 35.2262 124.367 31.3008 119.528 31.3008H74.2088C69.3702 31.3008 65.4486 35.2262 65.4486 40.0696V48.9016C65.164 49.0283 65.0059 49.3132 65.0059 49.6297V53.1119C65.0059 53.4285 65.1956 53.7134 65.4486 53.84V57.5754C65.164 57.7021 65.0059 57.987 65.0059 58.3035V66.1226C65.0059 66.4392 65.1956 66.7241 65.4486 66.8507V69.5098C65.164 69.6365 65.0059 69.9214 65.0059 70.2379V78.057C65.0059 78.3736 65.1956 78.6585 65.4486 78.7851V150.138C65.4486 154.982 69.3702 158.907 74.2088 158.907H119.528C124.367 158.907 128.288 154.982 128.288 150.138V75.9044C128.573 75.7778 128.731 75.4929 128.731 75.1763V62.0073C128.731 61.6908 128.541 61.4375 128.288 61.3109Z" fill="#0B080F"/>
<path d="M125.758 150.138C125.758 153.588 122.975 156.374 119.528 156.374H74.2087C70.7615 156.374 67.9785 153.588 67.9785 150.138V40.0693C67.9785 36.6188 70.7615 33.833 74.2087 33.833H82.2732L82.969 36.1439C83.3801 37.5051 84.6451 38.4548 86.0682 38.4548H107.637C109.06 38.4548 110.325 37.5051 110.736 36.1439L111.432 33.833H119.496C122.943 33.833 125.726 36.6188 125.726 40.0693V150.138H125.758Z" fill="#A5A5A5"/>
<path d="M40.4654 143.608C40.4654 143.608 61.2749 123.158 69.0864 122.24C76.9295 121.322 96.6953 119.77 97.486 127.716C98.2766 135.662 86.4171 140.03 74.4627 141.138C74.4627 141.138 63.8366 149.527 63.7417 156.143C63.6152 162.76 47.6443 157.948 47.6443 157.948L40.4654 143.608Z" fill="#F7DAC1"/>
<rect x="73" y="57.0449" width="48" height="46.9091" fill="#DADADA"/>
<mask id="mask1_317_10284" style="mask-type:alpha" maskUnits="userSpaceOnUse" x="73" y="57" width="48" height="47">
<rect x="73" y="57.0449" width="48" height="46.9091" fill="#C4C4C4"/>
</mask>
<g mask="url(#mask1_317_10284)">
<path d="M63.1015 68.0113L63.0995 68.0135C61.7765 69.4266 61.0482 70.8255 60.8417 72.2334C60.6362 73.6348 60.9312 75.1572 61.8563 76.8537C63.2907 79.441 64.9384 81.9044 66.7823 84.2181L66.7855 84.2221C90.2695 114.005 113.787 143.764 137.339 173.498L137.339 173.499C139.049 175.661 140.865 177.744 142.758 179.775C144.513 181.639 146.218 182.652 147.912 182.921C149.59 183.186 151.422 182.746 153.495 181.37C157.359 178.792 161.029 175.929 164.73 173.042C165.585 172.375 166.442 171.706 167.303 171.04L63.1015 68.0113ZM63.1015 68.0113C64.3796 66.6379 65.7542 65.3578 67.2149 64.1806M63.1015 68.0113L90.9427 45.4061M90.9427 45.4061L90.9416 45.4069C83.033 51.637 75.109 57.8792 67.2149 64.1806M90.9427 45.4061L106.035 33.4836L106.036 33.4833L90.9427 45.4061ZM67.2149 64.1806C67.2142 64.1811 67.2136 64.1816 67.2129 64.1821L66.5997 63.414L67.2165 64.1793C67.2159 64.1797 67.2154 64.1801 67.2149 64.1806ZM224.637 107.44L224.635 107.437C200.411 76.7579 176.165 46.0957 151.898 15.4508C150.434 13.6061 148.856 11.8554 147.173 10.209C145.733 8.80639 144.271 8.05581 142.792 7.85271C141.312 7.64958 139.706 7.97903 137.952 8.9328C136.308 9.82785 134.742 10.8566 133.268 12.0088C133.268 12.009 133.267 12.0091 133.267 12.0093L132.662 11.2349L224.637 107.44ZM224.637 107.44C226.101 109.281 227.439 111.218 228.644 113.238C229.725 115.064 230.112 116.707 229.927 118.222C229.741 119.739 228.964 121.259 227.474 122.808L227.47 122.812M224.637 107.44L227.47 122.812M227.47 122.812C226.069 124.287 224.571 125.665 222.985 126.939M227.47 122.812L222.985 126.939M222.985 126.939C214.201 133.938 205.391 140.904 196.58 147.872L196.534 147.908L195.801 148.488C193.918 147.097 192.137 146.241 190.393 146.006C188.417 145.74 186.61 146.287 184.907 147.515C183.061 148.845 181.874 150.321 181.525 152.373C181.215 154.197 181.594 156.346 182.469 159.048C180.912 160.28 179.356 161.519 177.799 162.759C174.319 165.529 170.831 168.305 167.303 171.04L222.985 126.939Z" fill="white" stroke="black" stroke-width="1.96577"/>
<rect x="189.715" y="82.2241" width="86.0026" height="5.89732" rx="2.94866" transform="rotate(141.665 189.715 82.2241)" fill="#F2F2F2"/>
<rect x="176.91" y="66.0342" width="86.0026" height="5.89732" rx="2.94866" transform="rotate(141.665 176.91 66.0342)" fill="#F2F2F2"/>
<path fill-rule="evenodd" clip-rule="evenodd" d="M102.364 94.6078C102.614 94.9236 102.56 95.382 102.245 95.6316L95.5697 100.91C95.2539 101.16 94.7955 101.106 94.5459 100.79L89.2676 94.1152C89.018 93.7995 89.0715 93.3411 89.3872 93.0914L93.5834 89.7733L92.2257 88.0562L88.0295 91.3743C87.7138 91.624 87.2554 91.5704 87.0057 91.2547L83.9895 87.4403C83.7399 87.1245 83.7934 86.6662 84.1092 86.4165C84.4249 86.1668 84.8833 86.2204 85.133 86.5361L87.697 89.7787L91.8909 86.4625L91.8932 86.4607L94.1822 84.6506L92.8243 82.9333L87.6745 87.0055C87.3587 87.2551 86.9004 87.2016 86.6507 86.8858L83.3326 82.6897L81.9972 83.7456C81.6814 83.9953 81.2231 83.9417 80.9734 83.626L77.2226 78.8826C76.9729 78.5668 77.0264 78.1084 77.3422 77.8587L81.5383 74.5406L81.2171 74.1343C80.9674 73.8186 81.0209 73.3602 81.3367 73.1105L89.919 66.3242C90.2347 66.0745 90.6931 66.128 90.9428 66.4438L93.9589 70.2581C94.2086 70.5738 94.155 71.0322 93.8393 71.2819L91.9321 72.79C91.6163 73.0397 91.1579 72.9861 90.9083 72.6704C90.6586 72.3546 90.7122 71.8963 91.0279 71.6466L92.3634 70.5906L90.2514 67.9197L82.8126 73.8019L88.6948 81.2407L92.3193 78.3746L90.9614 76.6574L88.6968 78.4481C88.3811 78.6978 87.9227 78.6442 87.673 78.3285L84.6569 74.5142C84.4072 74.1984 84.4607 73.74 84.7765 73.4903L87.6128 71.2475C87.9286 70.9978 88.387 71.0514 88.6366 71.3672L91.2007 74.6097L93.4896 72.7998C93.8054 72.5501 94.2638 72.6037 94.5134 72.9194L96.3235 75.2085L101.473 71.1363C101.789 70.8866 102.247 70.9402 102.497 71.2559L105.815 75.4521L108.486 73.3401L105.62 69.7157L104.285 70.7716C103.969 71.0213 103.511 70.9677 103.261 70.652C103.011 70.3362 103.065 69.8779 103.38 69.6282L105.288 68.1201C105.603 67.8705 106.062 67.924 106.311 68.2398L110.082 73.0077C110.331 73.3234 110.278 73.7818 109.962 74.0315L106.148 77.0476C105.832 77.2973 105.374 77.2437 105.124 76.928L104.068 75.5925L101.397 77.7045L103.207 79.9935C103.457 80.3093 103.403 80.7677 103.087 81.0174L101.752 82.0734L103.242 83.958C103.492 84.2737 103.438 84.7321 103.122 84.9818L100.834 86.7918L104.019 90.8206L105.737 89.4627L103.927 87.1738C103.677 86.858 103.73 86.3996 104.046 86.15C104.362 85.9003 104.82 85.9538 105.07 86.2696L107.332 89.1303C107.582 89.446 107.528 89.9044 107.212 90.1541L104.352 92.4161C104.036 92.6658 103.578 92.6123 103.328 92.2965L100.32 88.4927L100.312 88.4822L96.9936 84.286L93.3691 87.1521L94.7269 88.8691L96.0623 87.8132C96.378 87.5635 96.8364 87.6171 97.0861 87.9328L102.364 94.6078ZM100.769 94.9403L96.3947 89.4087L90.8632 93.7828L95.2372 99.3143L100.769 94.9403ZM99.9292 85.6484L101.647 84.2904L100.156 82.4058C99.9066 82.09 99.9602 81.6317 100.276 81.382L101.611 80.326L100.253 78.6087L98.918 79.6647L98.9135 79.6682L97.0108 81.1728C96.6951 81.4225 96.2367 81.3689 95.987 81.0531C95.7373 80.7374 95.7909 80.279 96.1066 80.0293L97.4421 78.9733L96.0842 77.2561L93.7953 79.066L93.7863 79.073L89.0273 82.8362C88.7115 83.0859 88.2531 83.0323 88.0034 82.7166L86.1934 80.4275L85.972 80.6025L84.476 81.7855L87.342 85.41L92.4918 81.3378C92.8076 81.0881 93.266 81.1417 93.5156 81.4574L95.3257 83.7464L96.6611 82.6905C96.9768 82.4408 97.4352 82.4944 97.6849 82.8102L99.9292 85.6484ZM103.164 74.449L101.806 72.7318L97.2276 76.3519L98.5856 78.0692L99.9162 77.017L99.9209 77.0132L103.164 74.449ZM93.8221 74.3953L95.18 76.1126L93.4628 77.4705L92.1049 75.7532L93.8221 74.3953ZM87.9452 72.8431L90.0572 75.5139L88.3643 76.8526L86.2524 74.1817L87.9452 72.8431ZM83.0739 78.0522C83.3236 78.368 83.27 78.8264 82.9543 79.0761L82.0006 79.8301C81.6849 80.0798 81.2265 80.0262 80.9768 79.7105C80.7272 79.3947 80.7807 78.9364 81.0965 78.6867L82.0501 77.9326C82.3658 77.6829 82.8242 77.7365 83.0739 78.0522ZM82.4425 75.6841L85.2892 79.2841L85.0679 79.4591L83.0001 81.0941L81.6647 82.1501L78.8181 78.5501L82.4425 75.6841ZM99.1421 95.2691C99.4578 95.0194 99.5114 94.561 99.2617 94.2453L96.7236 91.0355C96.4739 90.7197 96.0155 90.6662 95.6998 90.9158L92.49 93.454C92.1742 93.7036 92.1207 94.162 92.3703 94.4778L94.9085 97.6876C95.1582 98.0033 95.6165 98.0569 95.9323 97.8072L99.1421 95.2691ZM96.0322 92.5113L97.6662 94.5777L95.5998 96.2117L93.9659 94.1453L96.0322 92.5113ZM118.575 81.7892C118.825 82.1049 118.771 82.5633 118.455 82.813L111.78 88.0912C111.465 88.3409 111.006 88.2873 110.757 87.9716L105.478 81.2966L106.05 80.8445L105.598 80.2728L112.273 74.9946C112.589 74.7449 113.047 74.7984 113.297 75.1142L118.575 81.7892ZM107.074 80.9641L111.448 86.4957L116.98 82.1216L112.606 76.5901L107.074 80.9641ZM115.353 82.4504C115.669 82.2007 115.722 81.7423 115.473 81.4266L112.934 78.2168C112.685 77.901 112.226 77.8475 111.911 78.0971L108.701 80.6353C108.385 80.8849 108.331 81.3433 108.581 81.6591L111.119 84.8689C111.369 85.1846 111.827 85.2382 112.143 84.9885L115.353 82.4504ZM112.243 79.6927L113.877 81.759L111.811 83.393L110.177 81.3266L112.243 79.6927ZM105.757 65.5785C106.006 65.8942 105.953 66.3526 105.637 66.6023L98.9622 71.8805C98.6464 72.1302 98.188 72.0766 97.9383 71.7609L92.6601 65.0859L93.2319 64.6338L92.7798 64.062L99.4548 58.7838C99.7705 58.5342 100.229 58.5877 100.479 58.9035L105.757 65.5785ZM94.2557 64.7534L98.6297 70.285L104.161 65.9109L99.7872 60.3794L94.2557 64.7534ZM102.534 66.2397C102.85 65.99 102.904 65.5317 102.654 65.2159L100.116 62.0061C99.8663 61.6904 99.4079 61.6368 99.0922 61.8865L95.8824 64.4246C95.5666 64.6743 95.5131 65.1327 95.7627 65.4484L98.3009 68.6582C98.5506 68.974 99.0089 69.0275 99.3247 68.7778L102.534 66.2397ZM99.4246 63.482L101.059 65.5483L98.9922 67.1823L97.3583 65.116L99.4246 63.482Z" fill="black"/>
</g>
<path d="M80.767 56.8115H74.2427C73.5564 56.8115 73 57.3679 73 58.0542V64.5785" stroke="white" stroke-width="2.23256" stroke-linecap="round"/>
<path d="M121 64.5785L121 58.0542C121 57.3679 120.444 56.8115 119.757 56.8115L113.233 56.8115" stroke="white" stroke-width="2.23256" stroke-linecap="round"/>
<path d="M113.233 104.19L119.757 104.19C120.444 104.19 121 103.634 121 102.948L121 96.4234" stroke="white" stroke-width="2.23256" stroke-linecap="round"/>
<path d="M73 96.4234L73 102.948C73 103.634 73.5564 104.19 74.2427 104.19L80.767 104.19" stroke="white" stroke-width="2.23256" stroke-linecap="round"/>
</g>
<defs>
<linearGradient id="paint0_linear_317_10284" x1="37.9047" y1="187.123" x2="189.128" y2="33.3125" gradientUnits="userSpaceOnUse">
<stop offset="0.0416667" stop-color="#47BAD8"/>
<stop offset="0.34375" stop-color="#6A6CE9"/>
<stop offset="0.609375" stop-color="#9454E6"/>
<stop offset="1" stop-color="#CE57D3"/>
</linearGradient>
<linearGradient id="paint1_linear_317_10284" x1="31.812" y1="193.519" x2="195.282" y2="27.2521" gradientUnits="userSpaceOnUse">
<stop offset="0.0416667" stop-color="#47BAD8"/>
<stop offset="0.34375" stop-color="#6A6CE9"/>
<stop offset="0.609375" stop-color="#9454E6"/>
<stop offset="1" stop-color="#CE57D3"/>
</linearGradient>
<linearGradient id="paint2_linear_317_10284" x1="179.124" y1="172.2" x2="76.0635" y2="72.0908" gradientUnits="userSpaceOnUse">
<stop offset="0.01" stop-color="#FF55AA"/>
<stop offset="0.25" stop-color="#B850C9"/>
<stop offset="0.62" stop-color="#6572D6"/>
<stop offset="1" stop-color="#4EAEB8"/>
</linearGradient>
<linearGradient id="paint3_linear_317_10284" x1="43.3575" y1="181.209" x2="183.614" y2="38.5525" gradientUnits="userSpaceOnUse">
<stop offset="0.0416667" stop-color="#47BAD8"/>
<stop offset="0.34375" stop-color="#6A6CE9"/>
<stop offset="0.609375" stop-color="#9454E6"/>
<stop offset="1" stop-color="#CE57D3"/>
</linearGradient>
<linearGradient id="paint4_linear_317_10284" x1="43.3575" y1="181.397" x2="183.614" y2="38.7405" gradientUnits="userSpaceOnUse">
<stop offset="0.0416667" stop-color="#47BAD8"/>
<stop offset="0.34375" stop-color="#6A6CE9"/>
<stop offset="0.609375" stop-color="#9454E6"/>
<stop offset="1" stop-color="#CE57D3"/>
</linearGradient>
<clipPath id="clip0_317_10284">
<rect width="160.309" height="172.21" fill="white" transform="matrix(-1 0 0 1 193.299 16.0015)"/>
</clipPath>
</defs>
</svg>
