<svg xmlns="http://www.w3.org/2000/svg" width="901" height="139" viewBox="0 0 901 139"><title>logo landscape copy 7</title><defs><filter id="a" color-interpolation-filters="auto"><feColorMatrix in="SourceGraphic" values="0 0 0 0 0.666667 0 0 0 0 0.666667 0 0 0 0 0.666667 0 0 0 1.000000 0"/></filter><linearGradient id="b" x1="50%" x2="50%" y1="6.575%" y2="74.15%"><stop offset="0%" stop-color="#FF5D00"/><stop offset="100%" stop-color="#0059AB"/></linearGradient><filter id="c" color-interpolation-filters="auto"><feColorMatrix in="SourceGraphic" values="0 0 0 0 0.000000 0 0 0 0 0.000000 0 0 0 0 0.000000 0 0 0 1.000000 0"/></filter></defs><g fill="none" fill-rule="evenodd"><g filter="url(#a)" transform="translate(31.195 28)"><path fill="url(#b)" fill-rule="nonzero" d="M347.01 42.768c2.318-1.596 4.896-2.175 7.697-1.847 1.939.226 3.765.885 5.167 2.152 2.752 2.485 5.322 5.17 7.95 7.79 2.416 2.408 4.792 4.856 7.224 7.248 1.07 1.05 1.947 2.232 2.584 3.567 2.925 6.123.683 13.535-5.562 16.875-4.872 2.605-11.204 1.613-15.083-2.343-1.728-1.761-3.494-3.487-5.24-5.23l-1.034-1.031-1.242-1.243c-1.079-1.079-2.359-2.36-3.84-3.844l-2.438-2.5 4.488-4.53a578.132 578.132 0 0 1 2.714 2.69c3.733 3.74 7.473 7.474 11.211 11.208 1.215 1.215 2.685 1.817 4.404 1.862 2.61.066 4.84-1.298 5.905-3.698 1.165-2.628.608-5.162-1.13-7.021-2.136-2.288-4.428-4.436-6.624-6.672-2.534-2.58-5.138-5.093-7.702-7.643-1.764-1.753-4.494-1.806-6.288-.078-1.36 1.311-2.694 2.655-4.036 3.985-2.733 2.71-5.47 5.413-8.192 8.134-2.46 2.46-4.913 4.93-7.35 7.412-2.47 2.515-5.09 4.881-7.429 7.526-.501.566-1.02 1.145-1.627 1.587-2.441 1.775-5.125 2.908-8.556 2.873-1.245.036-2.763-.27-4.256-.827-5.737-2.14-9.169-8.266-8.015-14.281.587-3.054 2.187-5.468 4.404-7.573 2.038-1.936 4.015-3.938 6.002-5.927 2.395-2.395 4.761-4.818 7.16-7.21l.1-.1.23-.23 1.436-1.444 4.51 4.5-1.75 1.772c-1.802 1.816-3.619 3.62-5.424 5.433a5227.116 5227.116 0 0 0-8.292 8.339c-.47.473-.943.94-1.294 1.524-1.54 2.563-1.006 5.842 1.102 7.864 2.576 2.472 6.453 2.218 8.718.083 1.757-1.657 3.428-3.406 5.136-5.112 3.409-3.405 6.824-6.803 10.226-10.215 4.005-4.017 7.992-8.05 12.002-12.06.633-.635 1.299-1.258 2.034-1.765zM366.556.003c1.245-.036 2.763.27 4.256.827 5.737 2.14 9.169 8.266 8.015 14.281-.587 3.054-2.187 5.468-4.404 7.573-2.038 1.936-4.015 3.938-6.002 5.927-2.395 2.395-4.761 4.818-7.16 7.21l-.1.1-1.666 1.674-4.51-4.5 1.751-1.772c1.801-1.816 3.618-3.62 5.423-5.433 2.767-2.778 5.532-5.556 8.292-8.339.47-.473.943-.94 1.294-1.524 1.54-2.563 1.006-5.842-1.102-7.864-2.576-2.472-6.452-2.218-8.718-.083-1.757 1.657-3.428 3.406-5.136 5.112-3.409 3.405-6.824 6.803-10.226 10.215-4.004 4.017-7.992 8.05-12.002 12.06-.633.635-1.298 1.258-2.034 1.765-2.318 1.596-4.896 2.175-7.697 1.847-1.939-.226-3.765-.885-5.167-2.152-2.752-2.485-5.322-5.17-7.95-7.79-2.416-2.408-4.792-4.856-7.224-7.248-1.07-1.05-1.947-2.232-2.584-3.567-2.925-6.123-.683-13.535 5.562-16.875 4.872-2.605 11.204-1.613 15.083 2.343 1.728 1.761 3.494 3.487 5.24 5.23l.595.594.91.91 1.917 1.916.623.624.325.324.673.675.35.35.724.725 2.437 2.5-4.488 4.53c-.93-.917-1.648-1.627-2.154-2.13l-.256-.255-.112-.112-.192-.192c-3.733-3.742-7.473-7.475-11.211-11.21-1.215-1.214-2.685-1.816-4.404-1.86-2.61-.067-4.84 1.297-5.905 3.697-1.165 2.628-.608 5.162 1.13 7.021 2.136 2.288 4.428 4.436 6.624 6.672 2.534 2.58 5.138 5.093 7.702 7.643 1.764 1.753 4.494 1.806 6.288.078 1.36-1.311 2.694-2.655 4.036-3.985 2.733-2.71 5.47-5.413 8.192-8.134 2.461-2.46 4.913-4.93 7.35-7.412 2.47-2.515 5.09-4.881 7.429-7.526.502-.566 1.02-1.145 1.627-1.587 2.441-1.775 5.125-2.908 8.556-2.873z" transform="translate(464.805)"/><g filter="url(#c)" transform="translate(464.805)"><g fill="#FFF"><path d="M10.719 40.218l.004-.005.01-.009a9.058 9.058 0 013.068-2.046 9.234 9.234 0 016.964 0 9.048 9.048 0 013.072 2.046l.003.005 2.904 2.812 5.624-5.718-2.819-2.813c-1.69-1.697-3.63-2.965-5.8-3.789v.001a16.747 16.747 0 00-6.465-1.304c-2.21 0-4.401.437-6.547 1.306-2.119.825-4.029 2.093-5.72 3.786-1.692 1.687-2.961 3.6-3.786 5.717A17.86 17.86 0 000 46.757a17.664 17.664 0 001.23 6.469c.825 2.12 2.095 4.035 3.787 5.725 1.686 1.687 3.591 2.976 5.704 3.849l.01.003.01.005c2.147.817 4.333 1.234 6.542 1.234 2.209 0 4.372-.418 6.472-1.236l.008-.003a17.282 17.282 0 005.785-3.85l2.817-2.823-5.624-5.716-2.91 2.825-.01.009a8.356 8.356 0 01-2.982 2.034 9.49 9.49 0 01-3.556.681c-2.575-.008-4.701-.894-6.552-2.73a9.029 9.029 0 01-2.044-3.068A9.248 9.248 0 018 46.68c0-1.18.227-2.336.687-3.481a8.326 8.326 0 012.032-2.98zM42.536 46.678c.008-2.57.894-4.698 2.731-6.548 1.48-1.473 3.129-2.314 5.033-2.59.476-.067.943-.099 1.402-.099a9 9 0 013.149.558 235.63 235.63 0 01-2.155 2.087l-.006.005-.004.007c-1.23 1.229-2.534 2.531-3.91 3.91-1.328 1.328-2.606 2.606-3.839 3.834-.74.742-1.362 1.366-1.87 1.873a8.767 8.767 0 01-.53-3.037zM64.082 34.48c-1.692-1.692-3.632-2.96-5.8-3.789v.001a16.833 16.833 0 00-6.469-1.302c-2.21 0-4.4.44-6.545 1.305v-.001c-2.117.83-4.029 2.097-5.72 3.786-1.69 1.692-2.957 3.603-3.785 5.72a17.753 17.753 0 00-1.233 6.471c0 2.211.414 4.4 1.23 6.545l.01.018-.007-.012c.827 2.116 2.094 4.029 3.783 5.72a17.242 17.242 0 005.632 3.78 17.196 17.196 0 006.635 1.312 17.234 17.234 0 0012.269-5.091l2.818-2.824-5.712-5.713-.532.533-2.289 2.286c-1.477 1.47-3.155 2.344-5.115 2.667-.458.064-.91.097-1.354.097a8.91 8.91 0 01-3.122-.561L66.901 37.3l-2.82-2.82zM98.634 34.485a17.016 17.016 0 00-5.555-3.708c-2.063-.92-4.31-1.385-6.711-1.383a16.649 16.649 0 00-6.726 1.388 17.01 17.01 0 00-5.542 3.702c-1.544 1.544-2.778 3.374-3.699 5.47l-.003.008c-.88 2.067-1.315 4.313-1.314 6.714h.74l-.74.001V64.04h8.076V46.677c0-1.284.227-2.458.679-3.544.508-1.146 1.167-2.12 1.976-2.933a9.06 9.06 0 012.932-1.978l.011-.005a8.873 8.873 0 013.61-.745c1.279 0 2.473.248 3.607.745l.016.006.007.002a8.06 8.06 0 012.904 1.962l.016.015.015.014a8.04 8.04 0 011.959 2.905l.007.021.007.014c.497 1.08.743 2.243.743 3.52V64.04h8.077V46.676c0-2.408-.466-4.658-1.392-6.726a16.248 16.248 0 00-3.7-5.465zM130.01 53.224l-.012.012a8.395 8.395 0 01-2.984 2.034 9.486 9.486 0 01-3.555.682c-2.578-.008-4.704-.894-6.554-2.729a9.11 9.11 0 01-2.047-3.07 9.362 9.362 0 01-.684-3.485c0-1.18.229-2.337.685-3.485a8.36 8.36 0 012.032-2.977l.006-.004.008-.008c.92-.92 1.935-1.593 3.068-2.047a9.243 9.243 0 016.968 0c1.135.454 2.15 1.128 3.07 2.047l2.906 2.815 5.624-5.717-2.817-2.813c-1.692-1.697-3.633-2.965-5.798-3.79a16.783 16.783 0 00-6.468-1.303c-2.215 0-4.401.437-6.547 1.308-2.118.824-4.03 2.09-5.72 3.785-1.69 1.687-2.96 3.6-3.784 5.718a17.866 17.866 0 00-1.234 6.549c0 2.209.414 4.37 1.234 6.47.824 2.12 2.092 4.034 3.785 5.724 1.688 1.686 3.594 2.976 5.706 3.848l.006.004.014.005c2.145.817 4.33 1.234 6.541 1.234a17.71 17.71 0 006.472-1.236l.008-.004c2.161-.872 4.096-2.163 5.785-3.85l2.817-2.822-5.625-5.716-2.906 2.821zM149.397 43.138c.51-1.15 1.166-2.123 1.978-2.932l.003-.002a8.748 8.748 0 012.994-1.975l.012-.007.012-.004a8.815 8.815 0 013.609-.746c1.276 0 2.472.247 3.603.746l.013.006.013.005a8.042 8.042 0 012.907 1.96l.012.014.018.016a8.075 8.075 0 011.958 2.903l.007.016.007.016c.494 1.082.743 2.245.743 3.522a8.837 8.837 0 01-.748 3.612l-.004.011-.005.01a8.825 8.825 0 01-1.974 2.995c-.814.814-1.781 1.47-2.927 1.974a9.582 9.582 0 01-3.624.684 9.607 9.607 0 01-3.631-.684 10.6 10.6 0 01-2.998-1.975 10.555 10.555 0 01-1.976-3.005 9.654 9.654 0 01-.679-3.621c0-1.284.227-2.456.677-3.539zm24.58-3.178a16.228 16.228 0 00-3.701-5.475 16.94 16.94 0 00-5.557-3.704c-2.063-.924-4.31-1.388-6.708-1.387a16.572 16.572 0 00-6.713 1.387l-.01.004-.003.002a16.945 16.945 0 00-5.544 3.698c-1.542 1.544-2.778 3.373-3.7 5.471l-.005.013.002-.007c-.879 2.068-1.313 4.316-1.313 6.714-.001 2.358.434 4.603 1.31 6.713l.006.013a18.728 18.728 0 003.691 5.536l.007.008.001.002a18.129 18.129 0 005.542 3.772l.01.004.006.003c2.11.873 4.354 1.312 6.712 1.312 2.4 0 4.648-.437 6.715-1.315l.009-.004a18.147 18.147 0 005.542-3.771 17.069 17.069 0 003.705-5.56 16.562 16.562 0 001.386-6.713c.001-2.396-.46-4.643-1.386-6.706l-.004-.01zM211.61 49.189h.001c-.003-.009-.008-.016-.011-.024a9.6 9.6 0 00-2.297-3.398v-.002a10.017 10.017 0 00-3.391-2.216c-.007-.003-.015-.006-.021-.01l-.017-.007c-1.27-.578-2.65-.868-4.113-.867h-13.284c-.758-.007-1.304-.23-1.815-.724-.514-.57-.747-1.156-.752-1.915.007-.763.235-1.315.737-1.826.518-.507 1.065-.732 1.83-.738h20.75v-8.08h-.753v.75l.001.004h-.003v-.754h-19.997a10.385 10.385 0 00-4.217.875 10.297 10.297 0 00-3.326 2.222c-.955.956-1.72 2.096-2.299 3.405l-.003.01-.003.006c-.533 1.278-.794 2.658-.793 4.126a11.18 11.18 0 00.79 4.193l.008.02.008.014a12.435 12.435 0 002.278 3.375l.007.008.007.006a11.31 11.31 0 003.316 2.293l.018.009.016.006c1.323.53 2.728.79 4.194.79h13.284c.822.008 1.395.247 1.9.742.504.514.732 1.067.741 1.828-.01.822-.244 1.394-.742 1.9-.505.498-1.073.731-1.9.74h-20.678v8.079h20.679c1.466 0 2.85-.267 4.128-.799l.008-.005.001-.001a11.009 11.009 0 003.406-2.3 10.51 10.51 0 002.304-3.41h-.001c.577-1.32.87-2.73.87-4.205a9.927 9.927 0 00-.866-4.12M248.827 30.15h-.001v-.752h-7.321V46.68a8.847 8.847 0 01-.75 3.611l-.007.014-.004.009a8.817 8.817 0 01-1.97 2.992c-.814.81-1.785 1.467-2.929 1.977a9.698 9.698 0 01-3.624.68 9.672 9.672 0 01-3.62-.679 10.91 10.91 0 01-2.932-1.98 10.56 10.56 0 01-1.975-2.996 9.686 9.686 0 01-.684-3.628V29.398h-8.072v17.283c0 2.356.435 4.601 1.312 6.713l.004.008.003.008a18.792 18.792 0 003.69 5.534l.009.007v.003a17.994 17.994 0 005.543 3.767l.008.006.006.002c2.11.876 4.354 1.316 6.71 1.316 2.403 0 4.649-.44 6.713-1.32l.009-.004a18.017 18.017 0 005.544-3.767 17.044 17.044 0 003.704-5.56 16.527 16.527 0 001.388-6.712V29.399h-.754v.751zM262.808 53.308a10.462 10.462 0 01-1.973-2.99 9.614 9.614 0 01-.686-3.634c0-1.285.228-2.459.681-3.545.507-1.146 1.161-2.117 1.978-2.929a8.781 8.781 0 012.992-1.976l.012-.005.013-.006a8.84 8.84 0 013.607-.744h9.21v9.204a8.821 8.821 0 01-.75 3.612l-.005.013-.005.012a8.803 8.803 0 01-1.972 2.99c-.816.813-1.783 1.47-2.929 1.979-1.084.452-2.262.678-3.55.678a9.684 9.684 0 01-3.623-.679 10.543 10.543 0 01-3-1.98zm23.897-37.21h-8.076V29.38h-9.21c-2.355 0-4.6.463-6.709 1.384a16.964 16.964 0 00-5.548 3.698l-.006.006-.003.002c-1.59 1.542-2.852 3.372-3.772 5.472l-.008.013.005-.005c-.88 2.063-1.318 4.31-1.318 6.71 0 2.358.44 4.604 1.313 6.714l.005.01.003.006a18.122 18.122 0 003.771 5.543 18.015 18.015 0 005.545 3.77l.008.003.006.002c2.11.876 4.353 1.316 6.708 1.316 2.356 0 4.601-.44 6.71-1.316l.012-.005c2.102-.92 3.929-2.18 5.472-3.77a17.02 17.02 0 003.704-5.556h-.001a16.571 16.571 0 001.389-6.716V16.098z"/></g></g></g><path fill="#AAA" fill-rule="nonzero" d="M71.672 78.225v-4.082H31.195v4.082h40.477zM90.145 88V73.842h14.48V88h5.156V56.59h-5.156v12.847h-14.48V56.59H85.01V88h5.135zm35.748.43c1.618 0 3.058-.122 4.318-.366a15.502 15.502 0 003.738-1.246v-4.103c-1.39.616-2.689 1.056-3.9 1.321-1.21.265-2.516.398-3.92.398-2.134 0-3.789-.62-4.963-1.859-1.174-1.239-1.798-3.011-1.87-5.317h15.835v-2.729c0-3.337-.91-5.958-2.729-7.863-1.819-1.905-4.297-2.857-7.433-2.857-3.38 0-6.037 1.11-7.971 3.33-1.934 2.22-2.9 5.27-2.9 9.152 0 3.781 1.042 6.75 3.126 8.905 2.084 2.156 4.973 3.234 8.669 3.234zm4.275-14.825h-10.785c.186-1.947.763-3.43 1.73-4.447.966-1.017 2.252-1.525 3.856-1.525s2.864.505 3.781 1.514c.917 1.01 1.39 2.496 1.418 4.458zm18.281 14.825c1.461 0 2.704-.115 3.728-.344a9.97 9.97 0 002.89-1.139v-4.404c-2.006 1.117-4.133 1.676-6.381 1.676-1.977 0-3.477-.67-4.501-2.009-1.025-1.34-1.537-3.34-1.537-6.005 0-5.457 2.056-8.185 6.166-8.185 1.39 0 3.151.415 5.286 1.246l1.525-4.06c-2.005-.932-4.261-1.397-6.768-1.397-3.695 0-6.52 1.074-8.475 3.222-1.955 2.149-2.933 5.221-2.933 9.217 0 3.925.935 6.936 2.804 9.034 1.87 2.099 4.601 3.148 8.196 3.148zm15.252-.43V76.205c0-2.98.498-5.102 1.493-6.37.996-1.268 2.553-1.901 4.673-1.901 1.604 0 2.775.45 3.513 1.353.738.902 1.106 2.27 1.106 4.104V88h5.07V72.51c0-5.801-2.878-8.701-8.636-8.701-1.633 0-3.062.315-4.286.945-1.225.63-2.18 1.518-2.868 2.664h-.323c.172-1.547.258-3 .258-4.361V54.57h-5.049V88h5.05zm30.656.43c3.553 0 6.324-1.089 8.315-3.266 1.99-2.177 2.986-5.206 2.986-9.088 0-3.752-1.002-6.735-3.008-8.948-2.005-2.213-4.726-3.32-8.164-3.32-3.595 0-6.38 1.082-8.357 3.245-1.977 2.162-2.965 5.17-2.965 9.023 0 2.478.458 4.655 1.375 6.531.917 1.877 2.227 3.316 3.932 4.319 1.704 1.002 3.666 1.504 5.886 1.504zm.086-4.125c-4.053 0-6.08-2.743-6.08-8.229 0-2.62.477-4.633 1.429-6.037.952-1.404 2.489-2.105 4.608-2.105 4.04 0 6.059 2.714 6.059 8.142 0 5.486-2.005 8.229-6.016 8.229zm34.028 4.125c1.46 0 2.703-.115 3.727-.344a9.97 9.97 0 002.89-1.139v-4.404c-2.005 1.117-4.132 1.676-6.381 1.676-1.977 0-3.477-.67-4.5-2.009-1.025-1.34-1.537-3.34-1.537-6.005 0-5.457 2.055-8.185 6.166-8.185 1.39 0 3.151.415 5.285 1.246l1.525-4.06c-2.005-.932-4.26-1.397-6.767-1.397-3.695 0-6.52 1.074-8.476 3.222-1.955 2.149-2.932 5.221-2.932 9.217 0 3.925.934 6.936 2.803 9.034 1.87 2.099 4.602 3.148 8.197 3.148zm19.978 0c3.552 0 6.324-1.089 8.315-3.266 1.99-2.177 2.986-5.206 2.986-9.088 0-3.752-1.003-6.735-3.008-8.948s-4.726-3.32-8.164-3.32c-3.595 0-6.38 1.082-8.357 3.245-1.977 2.162-2.965 5.17-2.965 9.023 0 2.478.458 4.655 1.375 6.531.917 1.877 2.227 3.316 3.932 4.319 1.704 1.002 3.666 1.504 5.886 1.504zm.086-4.125c-4.053 0-6.08-2.743-6.08-8.229 0-2.62.476-4.633 1.429-6.037.952-1.404 2.488-2.105 4.608-2.105 4.04 0 6.059 2.714 6.059 8.142 0 5.486-2.005 8.229-6.016 8.229zM268.6 88V76.162c0-2.965.494-5.077 1.482-6.338.988-1.26 2.55-1.89 4.684-1.89 1.604 0 2.775.45 3.512 1.353.738.902 1.107 2.27 1.107 4.104V88h5.07V72.51c0-5.801-2.85-8.701-8.55-8.701-1.605 0-3.066.308-4.384.923-1.317.616-2.334 1.49-3.05 2.622h-.258l-.71-3.116h-3.952V88h5.049zm101.367 10.57v-9.732c0-.43-.1-1.647-.301-3.652h.3c1.662 2.162 3.997 3.244 7.005 3.244 2.965 0 5.288-1.089 6.971-3.266 1.683-2.177 2.525-5.206 2.525-9.088 0-3.881-.827-6.896-2.482-9.045-1.654-2.148-3.964-3.222-6.928-3.222-3.151 0-5.515 1.203-7.09 3.609h-.258c-.358-1.676-.594-2.736-.709-3.18h-4.082V98.57h5.049zm5.865-14.265c-2.077 0-3.574-.648-4.49-1.945-.917-1.296-1.375-3.39-1.375-6.284v-.752c0-2.578.462-4.454 1.386-5.629.923-1.174 2.388-1.761 4.393-1.761 1.82 0 3.198.684 4.136 2.051.938 1.368 1.407 3.384 1.407 6.048 0 2.65-.473 4.691-1.418 6.123-.945 1.433-2.292 2.149-4.039 2.149zm24.275 4.125c3.553 0 6.324-1.089 8.315-3.266 1.99-2.177 2.986-5.206 2.986-9.088 0-3.752-1.002-6.735-3.008-8.948-2.005-2.213-4.726-3.32-8.164-3.32-3.595 0-6.38 1.082-8.357 3.245-1.977 2.162-2.965 5.17-2.965 9.023 0 2.478.458 4.655 1.375 6.531.917 1.877 2.227 3.316 3.932 4.319 1.704 1.002 3.666 1.504 5.886 1.504zm.086-4.125c-4.053 0-6.08-2.743-6.08-8.229 0-2.62.477-4.633 1.429-6.037.952-1.404 2.489-2.105 4.608-2.105 4.04 0 6.059 2.714 6.059 8.142 0 5.486-2.005 8.229-6.016 8.229zM420.258 88V75.582c0-2.105.626-3.817 1.88-5.135 1.253-1.317 2.89-1.976 4.909-1.976.773 0 1.518.086 2.234.258l.494-4.706c-.658-.143-1.496-.214-2.513-.214-1.461 0-2.825.415-4.093 1.246-1.268.83-2.295 1.955-3.083 3.373h-.258l-.666-4.19h-3.953V88h5.049zm59.98-9.775v-4.082h-40.476v4.082h40.476zM314.52 54C306.761 54 302 60.361 302 65.579 302 76.86 315.678 87.333 325.333 94c9.656-6.667 23.334-17.139 23.334-28.421 0-5.218-4.762-11.579-12.52-11.579-4.334 0-8.036 3.239-10.814 6.316-2.777-3.077-6.48-6.316-10.813-6.316z"/></g></svg>