<svg width="28" height="21" viewBox="0 0 28 21" fill="none" xmlns="http://www.w3.org/2000/svg">
<path d="M11.3373 0C11.2327 0 11.1627 4.30179e-05 11.0579 0.0353259C9.56792 0.0353259 8.11259 0.0698912 6.65743 0.104452L6.62757 0.105161L6.53146 0.108992C5.68899 0.142558 4.81658 0.177316 3.97648 0.24459C3.13921 0.24459 2.30188 0.593526 1.6741 1.11668C0.732419 1.88412 0.209021 3.0701 0.174225 4.25608C0.0952639 4.86151 0.0758906 5.4471 0.0561831 6.0428C0.0497758 6.23647 0.0433332 6.43121 0.034796 6.62805C0 7.36048 0 8.05809 0 8.79077C0 8.82338 0.003381 8.85941 0.00698126 8.89776C0.0149308 8.98245 0.0239494 9.07854 0 9.1745V12.2093C0 13.5001 0.0347961 14.8256 0.104632 16.1512C0.139672 16.3955 0.174468 16.6744 0.174468 16.9187C0.209227 17.8954 0.628018 18.8721 1.32563 19.6048C1.98842 20.2676 2.86051 20.6861 3.76742 20.7559C3.90698 20.7559 4.03777 20.7734 4.16856 20.7909C4.29935 20.8083 4.43013 20.8258 4.56968 20.8258C5.45986 20.9043 6.3499 20.9239 7.2399 20.9435C7.53589 20.95 7.83188 20.9565 8.12788 20.9652C10.5753 20.9991 13.0557 21 15.5047 21C15.1124 20.5014 14.7669 19.9643 14.4749 19.3952C14.3709 19.3952 14.2668 19.3952 14.1627 19.3952C11.4765 19.3952 8.79067 19.3604 6.10456 19.2906C5.56655 19.259 5.05654 19.2272 4.5498 19.1956L4.3952 19.186C4.3255 19.186 4.25565 19.1773 4.18589 19.1686C4.11613 19.1599 4.04637 19.1512 3.97667 19.1512C3.6976 19.1512 3.38371 19.0813 3.1394 18.9419C2.44154 18.5929 1.95319 17.8605 1.81376 17.0931C1.77897 16.9188 1.77897 16.7444 1.77897 16.5699C1.73261 16.13 1.71703 15.6747 1.70161 15.2245C1.6938 14.9964 1.68604 14.7696 1.67433 14.5467C1.63954 12.7327 1.63954 10.8838 1.63954 9.06981H15.2614C16.5245 7.32309 18.3427 6.00423 20.4573 5.37202H1.77879C1.77879 5.02573 1.8133 4.67971 1.84783 4.33344L1.84863 4.32545C1.84863 3.8719 1.95326 3.41834 2.19756 2.99981C2.47663 2.51147 2.93022 2.09295 3.45337 1.91848C3.66263 1.84864 3.90668 1.81385 4.15098 1.81385C4.59341 1.76724 5.0358 1.75174 5.47821 1.73623C5.69863 1.72851 5.91905 1.72079 6.13948 1.70922C8.32996 1.63986 10.5543 1.6396 12.8134 1.63936L12.8368 1.63936C13.8614 1.61613 14.8706 1.62391 15.8744 1.63165C16.3744 1.63551 16.8731 1.63936 17.3717 1.63936C18.6905 1.63936 19.9766 1.67228 21.2934 1.70599L21.4183 1.70919C21.9381 1.70919 22.4581 1.74378 22.9779 1.77836L22.988 1.77903C23.0577 1.77903 23.1275 1.78773 23.1973 1.79643C23.2671 1.80512 23.3368 1.81382 23.4065 1.81382C23.8949 1.81382 24.3832 2.05812 24.7322 2.37202C25.2556 2.82532 25.5695 3.558 25.5695 4.25561C25.5695 4.32533 25.5782 4.3864 25.5869 4.44748C25.5956 4.50855 25.6042 4.56963 25.6042 4.63934C25.6331 4.84053 25.6618 5.04153 25.671 5.24264C26.2229 5.37794 26.7567 5.55944 27.268 5.78281C27.2506 5.33813 27.2245 4.89762 27.1746 4.46507C27.157 4.34255 27.1482 4.22879 27.1395 4.11497C27.1308 4.00207 27.1221 3.88911 27.1048 3.76746C27.0001 2.72089 26.4767 1.74421 25.6745 1.08136C25.0464 0.5582 24.2094 0.24406 23.3721 0.209264C22.6046 0.139671 21.8371 0.104631 21.0697 0.0698354C19.5696 0.0347954 18.0346 0 16.5348 0H11.3373Z" fill="white"/>
<path d="M5.24296 15.8347C5.24296 15.1466 5.80075 14.5888 6.48881 14.5888H10.2263C10.9144 14.5888 11.4722 15.1466 11.4722 15.8347C11.4722 16.5227 10.9144 17.0805 10.2263 17.0805H6.48881C5.80075 17.0805 5.24296 16.5227 5.24296 15.8347Z" fill="white"/>
<path d="M15.9307 0C16.0354 0 16.1053 4.30179e-05 16.2102 0.0353259C17.7001 0.0353259 19.1554 0.0698912 20.6106 0.104452L20.6405 0.105161L20.7366 0.108992C21.579 0.142558 22.4515 0.177316 23.2916 0.24459C24.1288 0.24459 24.9662 0.593526 25.5939 1.11668C26.5356 1.88412 27.059 3.0701 27.0938 4.25608C27.1728 4.86151 27.1921 5.4471 27.2118 6.0428C27.2183 6.23647 27.2247 6.43121 27.2332 6.62805C27.268 7.36048 27.268 8.05809 27.268 8.79077C27.268 8.82338 27.2647 8.85941 27.261 8.89776C27.2531 8.98245 27.2441 9.07854 27.268 9.1745V12.2093C27.268 13.5001 27.2332 14.8256 27.1634 16.1512C27.1284 16.3955 27.0936 16.6744 27.0936 16.9187C27.0588 17.8954 26.64 18.8721 25.9424 19.6048C25.2796 20.2676 24.4075 20.6861 23.5006 20.7559C23.3611 20.7559 23.2303 20.7734 23.0995 20.7909C22.9687 20.8083 22.8379 20.8258 22.6983 20.8258C21.8082 20.9043 20.9181 20.9239 20.0281 20.9435C19.7321 20.95 19.4361 20.9565 19.1402 20.9652C16.6928 20.9991 14.2124 21 11.7633 21C12.1556 20.5014 12.5011 19.9643 12.7932 19.3952C12.8971 19.3952 13.0012 19.3952 13.1053 19.3952C15.7915 19.3952 18.4774 19.3604 21.1635 19.2906C21.7015 19.259 22.2115 19.2272 22.7182 19.1956L22.8728 19.186C22.9425 19.186 23.0124 19.1773 23.0821 19.1686C23.1519 19.1599 23.2217 19.1512 23.2914 19.1512C23.5704 19.1512 23.8843 19.0813 24.1286 18.9419C24.8265 18.5929 25.3148 17.8605 25.4543 17.0931C25.4891 16.9188 25.4891 16.7444 25.4891 16.5699C25.5354 16.13 25.551 15.6747 25.5664 15.2245C25.5742 14.9964 25.582 14.7696 25.5937 14.5467C25.6285 12.7327 25.6285 10.8838 25.6285 9.06981H12.0066C10.7436 7.32309 8.92537 6.00423 6.81076 5.37202H25.4892C25.4892 5.02573 25.4547 4.67971 25.4202 4.33344L25.4194 4.32545C25.4194 3.8719 25.3148 3.41834 25.0705 2.99981C24.7914 2.51147 24.3378 2.09295 23.8147 1.91848C23.6054 1.84864 23.3613 1.81385 23.117 1.81385C22.6746 1.76724 22.2322 1.75174 21.7898 1.73623C21.5694 1.72851 21.349 1.72079 21.1286 1.70922C18.9381 1.63986 16.7137 1.6396 14.4546 1.63936L14.4312 1.63936C13.4066 1.61613 12.3975 1.62391 11.3936 1.63165C10.8936 1.63551 10.3949 1.63936 9.89628 1.63936C8.57749 1.63936 7.29142 1.67228 5.97464 1.70599L5.84972 1.70919C5.32996 1.70919 4.80992 1.74378 4.29014 1.77836L4.28002 1.77903C4.2103 1.77903 4.14053 1.78773 4.07075 1.79643C4.00098 1.80512 3.9312 1.81382 3.86149 1.81382C3.37312 1.81382 2.88478 2.05812 2.53584 2.37202C2.01247 2.82532 1.69858 3.558 1.69858 4.25561C1.69858 4.32533 1.68988 4.3864 1.68118 4.44748C1.67248 4.50855 1.66378 4.56963 1.66378 4.63934C1.63493 4.84053 1.60624 5.04153 1.59701 5.24264C1.04508 5.37794 0.511304 5.55944 0 5.78281C0.0174282 5.33813 0.0435291 4.89762 0.0934326 4.46507C0.111023 4.34255 0.119786 4.22879 0.12855 4.11497C0.137244 4.00207 0.145942 3.88911 0.163268 3.76746C0.267919 2.72089 0.791301 1.74421 1.59356 1.08136C2.22159 0.5582 3.05868 0.24406 3.89595 0.209264C4.66339 0.139671 5.43089 0.104631 6.19833 0.0698354C7.69845 0.0347954 9.23339 0 10.7333 0H15.9307Z" fill="white"/>
</svg>
