<svg width="81" height="81" viewBox="0 0 81 81" fill="currentColor" xmlns="http://www.w3.org/2000/svg">
<path d="M43.0332 59.4878C43.0332 61.1188 41.711 62.4409 40.0801 62.4409C38.4491 62.4409 37.127 61.1188 37.127 59.4878C37.127 57.8568 38.4491 56.5347 40.0801 56.5347C41.711 56.5347 43.0332 57.8568 43.0332 59.4878Z" fill="currentColor"/>
<path d="M40.0801 19.4028C38.4491 19.4028 37.127 20.725 37.127 22.356V48.5122C37.127 50.1432 38.4491 51.4653 40.0801 51.4653C41.711 51.4653 43.0332 50.1432 43.0332 48.5122V22.356C43.0332 20.725 41.711 19.4028 40.0801 19.4028Z" fill="currentColor"/>
<path fill-rule="evenodd" clip-rule="evenodd" d="M40.5 81C62.8675 81 81 62.8676 81 40.5C81 18.1325 62.8675 0 40.5 0C18.1325 0 0 18.1325 0 40.5C0 62.8676 18.1325 81 40.5 81ZM40.5 73.5C58.7254 73.5 73.5 58.7254 73.5 40.5C73.5 22.2746 58.7254 7.5 40.5 7.5C22.2746 7.5 7.5 22.2746 7.5 40.5C7.5 58.7254 22.2746 73.5 40.5 73.5Z" fill="currentColor"/>
</svg>
