<svg width="16" height="16" viewBox="0 0 16 16" fill="none" xmlns="http://www.w3.org/2000/svg">
<mask id="path-1-inside-1_13620_64057" fill="white">
<path d="M13.8073 6.84521C13.5157 6.68876 13.2644 6.55341 13.1707 6.25334C13.0768 5.95378 13.2041 5.69014 13.3515 5.38502C13.5455 4.98438 13.7865 4.48512 13.3939 3.92255C13.0018 3.3602 12.4706 3.44515 12.045 3.51291C11.7202 3.56443 11.4397 3.60851 11.1956 3.42392C10.9504 3.2385 10.9051 2.94734 10.8519 2.61043C10.7821 2.16746 10.6955 1.61607 10.0605 1.40146C9.40456 1.18013 9.07199 1.5339 8.80466 1.81897C8.60121 2.03657 8.40889 2.24197 8.04017 2.33789C7.78355 2.40421 7.58595 2.22779 7.2888 1.93144C6.95982 1.60261 6.54856 1.19493 5.9399 1.40156C5.30481 1.61627 5.21836 2.16756 5.14849 2.61053C5.09532 2.94744 5.05 3.23861 4.8045 3.42403C4.5599 3.60976 4.27823 3.56516 3.95574 3.51301C3.52798 3.44524 2.99902 3.3606 2.60635 3.92298C2.21366 4.48565 2.45469 4.98448 2.64889 5.38544C2.79609 5.69049 2.92381 5.95413 2.83037 6.25348C2.73655 6.55364 2.4847 6.6889 2.1934 6.84534C1.81018 7.05135 1.3335 7.30743 1.3335 8.00276C1.3335 8.69809 1.81015 8.95418 2.1934 9.16018C2.4848 9.31663 2.73667 9.45198 2.83037 9.75151C2.9239 10.0514 2.79618 10.315 2.64889 10.6201C2.45489 11.021 2.21368 11.5199 2.60635 12.0825C2.99843 12.6449 3.52966 12.5609 3.95574 12.4925C4.28054 12.4415 4.56042 12.3963 4.8045 12.5815C5.04998 12.7669 5.09531 13.0581 5.14849 13.395C5.21836 13.8379 5.30492 14.3893 5.9399 14.6039C6.57301 14.818 6.95674 14.4261 7.26285 14.1103C7.49581 13.8701 7.69757 13.6623 8.00002 13.6623C8.30274 13.6623 8.5043 13.8701 8.73718 14.1103C8.98237 14.3631 9.27627 14.6654 9.7095 14.6654C9.81743 14.6654 9.93381 14.6469 10.0604 14.6039C10.6955 14.3892 10.782 13.8379 10.8518 13.395C10.905 13.058 10.9503 12.7669 11.1955 12.5815C11.441 12.3963 11.7221 12.4416 12.0449 12.4925C12.4704 12.5606 13.0016 12.6449 13.3938 12.0825C13.7865 11.5198 13.5455 11.021 13.3515 10.6203C13.204 10.3152 13.0768 10.0516 13.1706 9.7514C13.2644 9.45184 13.5156 9.31651 13.8072 9.16007C14.1899 8.95406 14.6668 8.69797 14.6668 8.00265C14.667 7.30732 14.19 7.05121 13.8073 6.84521Z"/>
</mask>
<path d="M13.8073 6.84521L14.4394 5.6712L14.4377 5.67028L13.8073 6.84521ZM13.1707 6.25334L14.4434 5.85588L14.443 5.85483L13.1707 6.25334ZM13.3515 5.38502L12.1515 4.80391L12.1511 4.80474L13.3515 5.38502ZM13.3939 3.92255L12.3001 4.68512L12.3005 4.68559L13.3939 3.92255ZM12.045 3.51291L12.2539 4.82977L12.2546 4.82966L12.045 3.51291ZM11.1956 3.42392L10.3914 4.4874L10.3914 4.48741L11.1956 3.42392ZM10.8519 2.61043L9.53487 2.81817L9.53489 2.8183L10.8519 2.61043ZM10.0605 1.40146L10.4874 0.138318L10.4868 0.1381L10.0605 1.40146ZM8.80466 1.81897L7.83207 0.906907L7.83071 0.908366L8.80466 1.81897ZM8.04017 2.33789L8.37381 3.6288L8.37583 3.62828L8.04017 2.33789ZM7.2888 1.93144L6.34621 2.87447L6.34727 2.87553L7.2888 1.93144ZM5.9399 1.40156L6.36692 2.66467L6.36854 2.66412L5.9399 1.40156ZM5.14849 2.61053L6.46552 2.81839L6.46554 2.81826L5.14849 2.61053ZM4.8045 3.42403L4.0009 2.36006L3.99816 2.36214L4.8045 3.42403ZM3.95574 3.51301L4.16858 2.19677L4.16439 2.1961L3.95574 3.51301ZM2.60635 3.92298L1.51313 3.15966L1.51297 3.1599L2.60635 3.92298ZM2.64889 5.38544L3.84973 4.80599L3.84888 4.80423L2.64889 5.38544ZM2.83037 6.25348L4.10299 6.65125L4.10315 6.65074L2.83037 6.25348ZM2.1934 6.84534L1.56255 5.67068L1.56208 5.67094L2.1934 6.84534ZM2.1934 9.16018L1.56213 10.3346L1.56271 10.3349L2.1934 9.16018ZM2.83037 9.75151L4.10323 9.35451L4.10289 9.35341L2.83037 9.75151ZM2.64889 10.6201L3.84911 11.2008L3.84958 11.1998L2.64889 10.6201ZM2.60635 12.0825L3.70009 11.3199L3.69969 11.3194L2.60635 12.0825ZM3.95574 12.4925L3.74887 11.1753L3.74441 11.176L3.95574 12.4925ZM4.8045 12.5815L3.9985 13.6436L4.00088 13.6454L4.8045 12.5815ZM5.14849 13.395L6.46554 13.1872L6.46552 13.1871L5.14849 13.395ZM5.9399 14.6039L6.36701 13.3409L6.36682 13.3408L5.9399 14.6039ZM7.26285 14.1103L6.30582 13.1819L6.30546 13.1823L7.26285 14.1103ZM8.73718 14.1103L9.69445 13.1821L9.69437 13.182L8.73718 14.1103ZM10.0604 14.6039L9.63342 13.3408L9.63222 13.3412L10.0604 14.6039ZM10.8518 13.395L9.53481 13.1871L9.53479 13.1872L10.8518 13.395ZM11.1955 12.5815L10.3928 11.5169L10.3913 11.518L11.1955 12.5815ZM12.0449 12.4925L12.2556 11.1759L12.2526 11.1754L12.0449 12.4925ZM13.3938 12.0825L12.3004 11.3194L12.3001 11.3198L13.3938 12.0825ZM13.3515 10.6203L12.1511 11.2007L12.1514 11.2012L13.3515 10.6203ZM13.1706 9.7514L11.8982 9.35289L11.898 9.35362L13.1706 9.7514ZM13.8072 9.16007L14.4376 10.335L14.4393 10.3341L13.8072 9.16007ZM14.6668 8.00265L13.3335 8.00226V8.00265H14.6668ZM14.4377 5.67028C14.3597 5.62848 14.3165 5.60496 14.2809 5.58374C14.2478 5.56402 14.2463 5.56072 14.2596 5.57156C14.2751 5.58427 14.3113 5.61666 14.3505 5.67108C14.3915 5.72796 14.4234 5.79185 14.4434 5.85588L11.8979 6.6508C12.1798 7.55343 12.9819 7.91546 13.177 8.02013L14.4377 5.67028ZM14.443 5.85483C14.4633 5.91948 14.4727 5.98817 14.4718 6.05351C14.4709 6.11565 14.4609 6.15775 14.4571 6.17144C14.4541 6.18262 14.4553 6.17447 14.4721 6.13558C14.49 6.09416 14.5127 6.04665 14.552 5.96529L12.1511 4.80474C12.0539 5.00577 11.6205 5.76494 11.8983 6.65185L14.443 5.85483ZM14.5516 5.96612C14.635 5.79392 14.8427 5.38721 14.9123 4.90506C14.9926 4.3492 14.891 3.73801 14.4873 3.15951L12.3005 4.68559C12.3064 4.69405 12.2899 4.672 12.279 4.62334C12.2684 4.5758 12.271 4.53832 12.273 4.52396C12.2744 4.51477 12.2734 4.53002 12.2533 4.58138C12.2436 4.60622 12.2309 4.63598 12.2135 4.67368C12.1957 4.71255 12.1765 4.75231 12.1515 4.80391L14.5516 5.96612ZM14.4876 3.15998C14.0815 2.57745 13.5337 2.26682 12.9589 2.16755C12.4704 2.08318 12.012 2.16802 11.8353 2.19615L12.2546 4.82966C12.31 4.82084 12.351 4.81435 12.3908 4.80888C12.4292 4.8036 12.4577 4.80051 12.4801 4.79883C12.527 4.79531 12.5291 4.79947 12.5051 4.79532C12.4747 4.79007 12.4229 4.77509 12.3686 4.741C12.3143 4.70689 12.2943 4.67677 12.3001 4.68512L14.4876 3.15998ZM11.8361 2.19604C11.7491 2.20984 11.7012 2.21716 11.661 2.22166C11.6236 2.22586 11.6227 2.22387 11.643 2.22468C11.6662 2.2256 11.7207 2.23022 11.792 2.25304C11.8667 2.27695 11.9384 2.314 11.9998 2.36043L10.3914 4.48741C11.1629 5.07081 12.0543 4.86144 12.2539 4.82977L11.8361 2.19604ZM11.9999 2.36044C12.0606 2.40639 12.1121 2.46227 12.1513 2.52025C12.1883 2.57514 12.2047 2.61781 12.2094 2.6311C12.2132 2.64204 12.2095 2.63423 12.2009 2.5914C12.1918 2.54593 12.1832 2.49302 12.169 2.40255L9.53489 2.8183C9.56713 3.02253 9.6418 3.92054 10.3914 4.4874L11.9999 2.36044ZM12.169 2.40269C12.1395 2.21574 12.078 1.75972 11.8613 1.32522C11.6089 0.819136 11.1681 0.368381 10.4874 0.138318L9.63359 2.6646C9.63484 2.66502 9.62502 2.66178 9.60797 2.65195C9.59064 2.64196 9.5703 2.62772 9.54948 2.60895C9.5054 2.56922 9.48256 2.53063 9.47497 2.5154C9.46982 2.50509 9.47767 2.5175 9.49082 2.57287C9.49713 2.59944 9.50375 2.63187 9.51116 2.67353C9.5188 2.7165 9.52582 2.76077 9.53487 2.81817L12.169 2.40269ZM10.4868 0.1381C9.85021 -0.0766865 9.23899 -0.038649 8.70446 0.220901C8.2499 0.441619 7.94127 0.790471 7.83208 0.906908L9.77724 2.73104C9.81211 2.69386 9.83576 2.66874 9.85859 2.64555C9.8803 2.6235 9.89462 2.61005 9.90409 2.60168C9.92385 2.58423 9.91073 2.59959 9.86925 2.61973C9.84757 2.63026 9.82005 2.64118 9.78769 2.64978C9.75507 2.65845 9.72284 2.66332 9.69294 2.66485C9.63056 2.66802 9.60637 2.65542 9.63424 2.66482L10.4868 0.1381ZM7.83071 0.908366C7.7766 0.966236 7.74613 0.998498 7.71798 1.02609C7.69275 1.05081 7.68158 1.0595 7.67964 1.06098C7.67911 1.06137 7.68515 1.05689 7.69534 1.05185C7.70563 1.04676 7.71026 1.046 7.7045 1.04749L8.37583 3.62828C9.14966 3.42698 9.56992 2.95279 9.77861 2.72958L7.83071 0.908366ZM7.70652 1.04697C7.8314 1.01469 7.97433 1.00792 8.1176 1.03656C8.25134 1.06329 8.34071 1.11192 8.37751 1.13453C8.41075 1.15494 8.41542 1.16309 8.38132 1.13277C8.34784 1.10302 8.303 1.05982 8.23034 0.98736L6.34727 2.87553C6.47531 3.00322 6.70734 3.2382 6.98185 3.40681C7.32499 3.61757 7.80973 3.77459 8.37381 3.6288L7.70652 1.04697ZM8.23139 0.988417C8.00509 0.762213 7.00353 -0.367617 5.51126 0.139007L6.36854 2.66412C6.34424 2.67237 6.28793 2.68431 6.2146 2.67619C6.14563 2.66857 6.10221 2.64773 6.0924 2.6425C6.0869 2.63958 6.10583 2.64905 6.15477 2.6912C6.20603 2.73534 6.25999 2.78829 6.34621 2.87447L8.23139 0.988417ZM5.51288 0.138457C4.83226 0.368554 4.39148 0.819238 4.13905 1.32539C3.92235 1.75991 3.8609 2.21597 3.83144 2.4028L6.46554 2.81826C6.4746 2.76084 6.48162 2.71657 6.48926 2.67359C6.49667 2.63191 6.50329 2.59949 6.5096 2.57291C6.52274 2.51755 6.53058 2.50516 6.52542 2.51551C6.51781 2.53077 6.49496 2.56937 6.45089 2.6091C6.43007 2.62786 6.40974 2.64209 6.39244 2.65206C6.37541 2.66188 6.36562 2.66511 6.36692 2.66467L5.51288 0.138457ZM3.83146 2.40268C3.81718 2.49315 3.80866 2.54602 3.79955 2.59144C3.79096 2.63422 3.7872 2.64194 3.79109 2.6309C3.79581 2.6175 3.81231 2.57474 3.84942 2.51979C3.88861 2.46176 3.94019 2.40591 4.00091 2.36006L5.60809 4.48799C6.35857 3.92117 6.43327 3.02278 6.46552 2.81839L3.83146 2.40268ZM3.99816 2.36214C4.05973 2.31539 4.1317 2.27809 4.20674 2.25402C4.27836 2.23104 4.3332 2.22635 4.35701 2.22542C4.37786 2.2246 4.37758 2.22664 4.34097 2.22246C4.30165 2.21798 4.2545 2.21067 4.16858 2.19677L3.7429 4.82925C3.94274 4.86157 4.83707 5.07346 5.61083 4.48591L3.99816 2.36214ZM4.16439 2.1961C3.9876 2.16809 3.52877 2.08332 3.04034 2.16791C2.46497 2.26756 1.91871 2.57879 1.51313 3.15966L3.69958 4.68629C3.70596 4.67715 3.68644 4.70692 3.63233 4.74094C3.57813 4.77502 3.5262 4.79013 3.49543 4.79546C3.47112 4.79967 3.47305 4.79548 3.52008 4.799C3.54258 4.80069 3.57127 4.80378 3.60991 4.80908C3.64999 4.81457 3.6913 4.82108 3.74708 4.82992L4.16439 2.1961ZM1.51297 3.1599C1.10927 3.73834 1.00752 4.34952 1.08792 4.90564C1.15763 5.3878 1.36558 5.79463 1.4489 5.96665L3.84888 4.80423C3.82383 4.75251 3.80461 4.71272 3.78671 4.67377C3.76936 4.63601 3.7566 4.60622 3.74688 4.58136C3.72678 4.52996 3.72581 4.51477 3.72715 4.52406C3.72925 4.53855 3.73181 4.57616 3.72114 4.62382C3.71022 4.67258 3.69376 4.69462 3.69974 4.68606L1.51297 3.1599ZM1.44805 5.96489C1.48753 6.04672 1.51031 6.09434 1.52838 6.1362C1.54533 6.17545 1.54665 6.18388 1.54368 6.17301C1.54002 6.15964 1.52995 6.1177 1.52897 6.05559C1.52793 5.99023 1.53728 5.9213 1.55759 5.85622L4.10315 6.65074C4.37988 5.76414 3.94532 5.00408 3.84973 4.80599L1.44805 5.96489ZM1.55775 5.8557C1.57784 5.79145 1.60983 5.72746 1.65085 5.67059C1.69008 5.6162 1.72631 5.58389 1.7417 5.5713C1.7548 5.56058 1.75315 5.56397 1.71989 5.5838C1.68404 5.60517 1.64074 5.62869 1.56255 5.67068L2.82425 8.01999C3.01729 7.91632 3.8208 7.55409 4.10299 6.65125L1.55775 5.8557ZM1.56208 5.67094C1.39977 5.75819 0.989457 5.96647 0.650936 6.32447C0.258284 6.73972 0.000161052 7.30218 0.000161052 8.00276H2.66683C2.66683 7.98527 2.66899 8.0107 2.64963 8.05847C2.6303 8.10613 2.60412 8.14016 2.58854 8.15664C2.57692 8.16892 2.58075 8.16126 2.62215 8.13446C2.64217 8.12149 2.66773 8.10609 2.70213 8.08666C2.73777 8.06653 2.77499 8.04647 2.82472 8.01974L1.56208 5.67094ZM0.000161052 8.00276C0.000161052 8.70332 0.258261 9.26577 0.650916 9.68104C0.989448 10.0391 1.39976 10.2473 1.56213 10.3346L2.82467 7.98575C2.77495 7.95903 2.73773 7.93897 2.7021 7.91885C2.6677 7.89942 2.64214 7.88402 2.62213 7.87106C2.58074 7.84426 2.57692 7.8366 2.58854 7.8489C2.60413 7.86538 2.63031 7.89941 2.64963 7.94707C2.66899 7.99484 2.66683 8.02026 2.66683 8.00276H0.000161052ZM1.56271 10.3349C1.64082 10.3769 1.68419 10.4004 1.72005 10.4218C1.75336 10.4416 1.7551 10.4451 1.74208 10.4344C1.7268 10.4219 1.69058 10.3897 1.65131 10.3353C1.61023 10.2784 1.57808 10.2143 1.55786 10.1496L4.10289 9.35341C3.82065 8.45124 3.01692 8.08897 2.82409 7.98544L1.56271 10.3349ZM1.55752 10.1485C1.53733 10.0838 1.52799 10.0152 1.52901 9.94993C1.52999 9.88793 1.54003 9.84601 1.54371 9.83257C1.54669 9.82163 1.5454 9.83 1.52848 9.86916C1.51044 9.91094 1.48768 9.95852 1.4482 10.0403L3.84958 11.1998C3.94567 11.0008 4.37984 10.2414 4.10323 9.35451L1.55752 10.1485ZM1.44867 10.0393C1.36561 10.211 1.15774 10.6178 1.08802 11.0998C1.00759 11.6558 1.10916 12.2671 1.51301 12.8457L3.69969 11.3194C3.69379 11.3109 3.71028 11.333 3.72121 11.3819C3.73188 11.4296 3.7293 11.4672 3.72722 11.4816C3.72589 11.4908 3.72688 11.4755 3.74702 11.424C3.75676 11.3991 3.76954 11.3693 3.7869 11.3314C3.80483 11.2924 3.82405 11.2526 3.84911 11.2008L1.44867 10.0393ZM1.51261 12.8451C1.91841 13.4271 2.46569 13.7381 3.04058 13.8378C3.52987 13.9226 3.98811 13.8377 4.16706 13.809L3.74441 11.176C3.68951 11.1848 3.64853 11.1913 3.60908 11.1968C3.57096 11.202 3.54259 11.2051 3.52037 11.2068C3.47389 11.2103 3.47191 11.2061 3.49601 11.2103C3.52646 11.2156 3.57812 11.2306 3.63219 11.2645C3.68627 11.2985 3.70603 11.3285 3.70009 11.3199L1.51261 12.8451ZM4.1626 13.8097C4.25106 13.7958 4.29898 13.7884 4.3401 13.7838C4.37818 13.7795 4.37908 13.7815 4.35872 13.7807C4.33527 13.7798 4.2802 13.7752 4.20811 13.7521C4.13251 13.7279 4.0602 13.6904 3.9985 13.6436L5.61049 11.5193C4.83768 10.9329 3.94136 11.1451 3.74887 11.1753L4.1626 13.8097ZM4.00088 13.6454C3.94017 13.5996 3.88859 13.5437 3.8494 13.4857C3.8123 13.4307 3.79581 13.388 3.79109 13.3746C3.7872 13.3636 3.79096 13.3713 3.79955 13.4141C3.80866 13.4595 3.81718 13.5124 3.83146 13.6028L6.46552 13.1871C6.43326 12.9827 6.35854 12.0843 5.60811 11.5175L4.00088 13.6454ZM3.83144 13.6027C3.86092 13.7896 3.9224 14.2457 4.13911 14.6802C4.39152 15.1863 4.83229 15.637 5.51298 15.8671L6.36682 13.3408C6.36557 13.3404 6.37539 13.3436 6.39244 13.3534C6.40977 13.3634 6.43012 13.3777 6.45094 13.3964C6.49502 13.4362 6.51785 13.4748 6.52545 13.49C6.53059 13.5003 6.52274 13.4879 6.50959 13.4325C6.50328 13.4059 6.49666 13.3735 6.48925 13.3319C6.48161 13.2889 6.47459 13.2446 6.46554 13.1872L3.83144 13.6027ZM5.5128 15.867C6.19562 16.0979 6.82498 16.0056 7.33812 15.7393C7.77444 15.5129 8.09038 15.1722 8.22024 15.0383L6.30546 13.1823C6.26641 13.2225 6.23641 13.2534 6.2071 13.2823C6.17863 13.3104 6.15634 13.3313 6.13796 13.3474C6.09935 13.3811 6.0917 13.3817 6.10988 13.3723C6.13351 13.3601 6.18397 13.3395 6.25222 13.3335C6.28437 13.3306 6.3126 13.3317 6.33487 13.3345C6.35675 13.3373 6.36793 13.3412 6.36701 13.3409L5.5128 15.867ZM8.21988 15.0386C8.28222 14.9744 8.3178 14.938 8.34912 14.9085C8.37857 14.8807 8.38277 14.8796 8.36878 14.8894C8.35258 14.9007 8.30813 14.9293 8.2382 14.9543C8.16447 14.9806 8.0824 14.9957 8.00002 14.9957V12.329C7.03538 12.329 6.44128 13.0422 6.30582 13.1819L8.21988 15.0386ZM8.00002 14.9957C7.91784 14.9957 7.83585 14.9807 7.76207 14.9543C7.69209 14.9294 7.64756 14.9007 7.63128 14.8893C7.6172 14.8795 7.62134 14.8805 7.65077 14.9083C7.68207 14.9378 7.71762 14.9741 7.78 15.0385L9.69437 13.182C9.55895 13.0424 8.96506 12.329 8.00002 12.329V14.9957ZM7.77992 15.0384C7.95613 15.2201 8.62811 15.9987 9.7095 15.9987V13.332C9.76041 13.332 9.80939 13.3416 9.8495 13.3556C9.88667 13.3686 9.90432 13.3813 9.90039 13.3786C9.89519 13.3751 9.87618 13.3613 9.83896 13.3267C9.79968 13.2902 9.75883 13.2485 9.69445 13.1821L7.77992 15.0384ZM9.7095 15.9987C9.97374 15.9987 10.2346 15.9528 10.4886 15.8666L9.63222 13.3412C9.63158 13.3414 9.63875 13.339 9.65303 13.3365C9.66749 13.3341 9.68666 13.332 9.7095 13.332V15.9987ZM10.4875 15.867C11.1681 15.6369 11.6089 15.1862 11.8613 14.6801C12.078 14.2456 12.1394 13.7895 12.1689 13.6027L9.53479 13.1872C9.52574 13.2446 9.51872 13.2889 9.51108 13.3319C9.50367 13.3736 9.49705 13.406 9.49074 13.4326C9.4776 13.4879 9.46976 13.5003 9.47492 13.49C9.48253 13.4747 9.50538 13.4361 9.54945 13.3964C9.57027 13.3776 9.5906 13.3634 9.6079 13.3534C9.62492 13.3436 9.63472 13.3404 9.63342 13.3408L10.4875 15.867ZM12.1689 13.6028C12.1832 13.5123 12.1917 13.4594 12.2008 13.414C12.2094 13.3711 12.2132 13.3633 12.2093 13.3743C12.2046 13.3876 12.1882 13.4302 12.1512 13.4851C12.1121 13.5431 12.0605 13.599 11.9998 13.6449L10.3913 11.518C9.64171 12.0848 9.56705 12.9829 9.53481 13.1871L12.1689 13.6028ZM11.9983 13.6461C11.9371 13.6922 11.8656 13.729 11.7911 13.7527C11.7201 13.7754 11.6659 13.7799 11.6428 13.7808C11.6228 13.7816 11.6238 13.7796 11.6614 13.7838C11.7021 13.7884 11.7496 13.7957 11.8372 13.8095L12.2526 11.1754C12.0583 11.1448 11.1656 10.9341 10.3928 11.5169L11.9983 13.6461ZM11.8342 13.8091C12.0122 13.8375 12.4704 13.9224 12.9594 13.8377C13.5341 13.7381 14.0815 13.4273 14.4875 12.8452L12.3001 11.3198C12.2942 11.3283 12.314 11.2984 12.3681 11.2644C12.4222 11.2304 12.4739 11.2154 12.5043 11.2101C12.5284 11.206 12.5264 11.2101 12.4799 11.2066C12.4576 11.205 12.4292 11.2019 12.3911 11.1966C12.3515 11.1912 12.3106 11.1847 12.2556 11.1759L11.8342 13.8091ZM14.4872 12.8456C14.8909 12.2672 14.9926 11.656 14.9123 11.1C14.8426 10.6179 14.6348 10.2111 14.5516 10.0393L12.1514 11.2012C12.1764 11.253 12.1956 11.2927 12.2135 11.3317C12.2308 11.3694 12.2436 11.3992 12.2533 11.4241C12.2734 11.4754 12.2744 11.4906 12.273 11.4813C12.2709 11.4669 12.2684 11.4293 12.279 11.3816C12.2899 11.3329 12.3064 11.3109 12.3004 11.3194L14.4872 12.8456ZM14.5519 10.0399C14.5125 9.95854 14.4898 9.91108 14.472 9.86972C14.4552 9.8309 14.4541 9.82278 14.4571 9.83398C14.4608 9.84769 14.4708 9.88968 14.4717 9.95161C14.4727 10.0167 14.4633 10.085 14.4432 10.1492L11.898 9.35362C11.6207 10.2405 12.0535 10.9988 12.1511 11.2007L14.5519 10.0399ZM14.443 10.1499C14.4229 10.214 14.3909 10.2779 14.35 10.3347C14.3108 10.389 14.2746 10.4213 14.2592 10.4339C14.2461 10.4447 14.2476 10.4413 14.2808 10.4216C14.3164 10.4003 14.3597 10.3768 14.4376 10.335L13.1769 7.98514C12.9819 8.08976 12.1805 8.45152 11.8982 9.35289L14.443 10.1499ZM14.4393 10.3341C14.6009 10.2471 15.011 10.0387 15.3493 9.68092C15.7418 9.26585 16.0002 8.70345 16.0002 8.00265H13.3335C13.3335 8.02003 13.3314 7.99456 13.3507 7.94679C13.3701 7.89914 13.3962 7.86518 13.4117 7.84878C13.4233 7.83657 13.4194 7.84427 13.3779 7.87114C13.3579 7.88413 13.3323 7.89956 13.2979 7.91902C13.2622 7.9392 13.225 7.95926 13.1752 7.98607L14.4393 10.3341ZM16.0002 8.00303C16.0004 7.30204 15.742 6.7395 15.3495 6.32436C15.0111 5.96654 14.6009 5.75816 14.4394 5.6712L13.1753 8.01921C13.2251 8.04602 13.2623 8.06609 13.298 8.08627C13.3324 8.10573 13.358 8.12116 13.378 8.13416C13.4195 8.16102 13.4234 8.16873 13.4118 8.1565C13.3963 8.14009 13.3701 8.10607 13.3508 8.05834C13.3314 8.0105 13.3335 7.98494 13.3335 8.00226L16.0002 8.00303Z" fill="white" mask="url(#path-1-inside-1_13620_64057)"/>
<path fill-rule="evenodd" clip-rule="evenodd" d="M9.28452 6.71548C9.34961 6.78057 9.34961 6.8861 9.28452 6.95119L6.95119 9.28452C6.8861 9.34961 6.78057 9.34961 6.71548 9.28452C6.6504 9.21943 6.6504 9.11391 6.71548 9.04882L9.04882 6.71548C9.11391 6.6504 9.21943 6.6504 9.28452 6.71548Z" fill="white"/>
<path fill-rule="evenodd" clip-rule="evenodd" d="M6.58333 6.33333C6.44526 6.33333 6.33333 6.44526 6.33333 6.58333C6.33333 6.72141 6.44526 6.83333 6.58333 6.83333C6.72141 6.83333 6.83333 6.72141 6.83333 6.58333C6.83333 6.44526 6.72141 6.33333 6.58333 6.33333ZM6 6.58333C6 6.26117 6.26117 6 6.58333 6C6.9055 6 7.16667 6.26117 7.16667 6.58333C7.16667 6.9055 6.9055 7.16667 6.58333 7.16667C6.26117 7.16667 6 6.9055 6 6.58333Z" fill="white"/>
<path fill-rule="evenodd" clip-rule="evenodd" d="M9.41667 9.16667C9.2786 9.16667 9.16667 9.2786 9.16667 9.41667C9.16667 9.55474 9.2786 9.66667 9.41667 9.66667C9.55474 9.66667 9.66667 9.55474 9.66667 9.41667C9.66667 9.2786 9.55474 9.16667 9.41667 9.16667ZM8.83334 9.41667C8.83334 9.0945 9.0945 8.83334 9.41667 8.83334C9.73884 8.83334 10 9.0945 10 9.41667C10 9.73884 9.73884 10 9.41667 10C9.0945 10 8.83334 9.73884 8.83334 9.41667Z" fill="white"/>
<path d="M9.28452 6.71548L9.04882 6.95119L9.04882 6.95119L9.28452 6.71548ZM9.28452 6.95119L9.04882 6.71548L9.04882 6.71548L9.28452 6.95119ZM6.95119 9.28452L6.71548 9.04882L6.71548 9.04882L6.95119 9.28452ZM6.71548 9.28452L6.95119 9.04882L6.95119 9.04882L6.71548 9.28452ZM6.71548 9.04882L6.95119 9.28452L6.95119 9.28452L6.71548 9.04882ZM9.04882 6.71548L9.28452 6.95119L9.28452 6.95119L9.04882 6.71548ZM9.04882 6.95119C8.98373 6.8861 8.98373 6.78057 9.04882 6.71548L9.52022 7.18689C9.71549 6.99163 9.71549 6.67504 9.52022 6.47978L9.04882 6.95119ZM9.04882 6.71548L6.71548 9.04882L7.18689 9.52022L9.52022 7.18689L9.04882 6.71548ZM6.71548 9.04882C6.78057 8.98373 6.8861 8.98373 6.95119 9.04882L6.47978 9.52022C6.67504 9.71549 6.99163 9.71549 7.18689 9.52022L6.71548 9.04882ZM6.95119 9.04882C7.01627 9.11391 7.01627 9.21943 6.95119 9.28452L6.47978 8.81312C6.28452 9.00838 6.28452 9.32496 6.47978 9.52023L6.95119 9.04882ZM6.95119 9.28452L9.28452 6.95119L8.81312 6.47978L6.47978 8.81312L6.95119 9.28452ZM9.28452 6.95119C9.21943 7.01627 9.11391 7.01627 9.04882 6.95119L9.52023 6.47978C9.32496 6.28452 9.00838 6.28452 8.81312 6.47978L9.28452 6.95119ZM6.58333 6C6.26117 6 6 6.26117 6 6.58333H6.66667C6.66667 6.62936 6.62936 6.66667 6.58333 6.66667V6ZM6 6.58333C6 6.9055 6.26117 7.16667 6.58333 7.16667V6.5C6.62936 6.5 6.66667 6.53731 6.66667 6.58333H6ZM6.58333 7.16667C6.9055 7.16667 7.16667 6.9055 7.16667 6.58333H6.5C6.5 6.53731 6.53731 6.5 6.58333 6.5V7.16667ZM7.16667 6.58333C7.16667 6.26117 6.9055 6 6.58333 6V6.66667C6.53731 6.66667 6.5 6.62936 6.5 6.58333H7.16667ZM6.33333 6.58333C6.33333 6.44526 6.44526 6.33333 6.58333 6.33333V5.66667C6.07707 5.66667 5.66667 6.07707 5.66667 6.58333H6.33333ZM6.58333 6.33333C6.72141 6.33333 6.83333 6.44526 6.83333 6.58333H7.5C7.5 6.07707 7.0896 5.66667 6.58333 5.66667V6.33333ZM6.83333 6.58333C6.83333 6.72141 6.72141 6.83333 6.58333 6.83333V7.5C7.0896 7.5 7.5 7.0896 7.5 6.58333H6.83333ZM6.58333 6.83333C6.44526 6.83333 6.33333 6.72141 6.33333 6.58333H5.66667C5.66667 7.0896 6.07707 7.5 6.58333 7.5V6.83333ZM9.41667 8.83334C9.0945 8.83334 8.83334 9.0945 8.83334 9.41667H9.5C9.5 9.46269 9.46269 9.5 9.41667 9.5V8.83334ZM8.83334 9.41667C8.83334 9.73884 9.0945 10 9.41667 10V9.33334C9.46269 9.33334 9.5 9.37065 9.5 9.41667H8.83334ZM9.41667 10C9.73884 10 10 9.73884 10 9.41667H9.33334C9.33334 9.37065 9.37065 9.33334 9.41667 9.33334V10ZM10 9.41667C10 9.0945 9.73884 8.83334 9.41667 8.83334V9.5C9.37065 9.5 9.33334 9.46269 9.33334 9.41667H10ZM9.16667 9.41667C9.16667 9.2786 9.2786 9.16667 9.41667 9.16667V8.5C8.91041 8.5 8.5 8.91041 8.5 9.41667H9.16667ZM9.41667 9.16667C9.55474 9.16667 9.66667 9.2786 9.66667 9.41667H10.3333C10.3333 8.91041 9.92293 8.5 9.41667 8.5V9.16667ZM9.66667 9.41667C9.66667 9.55474 9.55474 9.66667 9.41667 9.66667V10.3333C9.92293 10.3333 10.3333 9.92293 10.3333 9.41667H9.66667ZM9.41667 9.66667C9.2786 9.66667 9.16667 9.55474 9.16667 9.41667H8.5C8.5 9.92293 8.91041 10.3333 9.41667 10.3333V9.66667Z" fill="white"/>
</svg>
