<svg width="64" height="64" viewBox="0 0 64 64" fill="none" xmlns="http://www.w3.org/2000/svg">
<g opacity="0.1">
<circle cx="32" cy="32" r="32" fill="url(#paint0_linear_4222_27526)"/>
</g>
<path d="M44.6663 30.6663V43.9997C44.6663 44.2663 44.5063 44.5196 44.253 44.613C44.173 44.653 44.0797 44.6663 43.9997 44.6663C43.8263 44.6663 43.653 44.5998 43.5197 44.4665L41.1063 41.9997H29.333C26.7597 41.9997 24.6663 39.9063 24.6663 37.333H34.6663C38.3463 37.333 41.333 34.3463 41.333 30.6663V26.1995C43.253 26.7729 44.6663 28.5597 44.6663 30.6663ZM39.333 30.6663V23.9997C39.333 21.4263 37.2397 19.333 34.6663 19.333H23.9997C21.4263 19.333 19.333 21.4263 19.333 23.9997V37.333C19.333 37.5997 19.493 37.853 19.7463 37.9463C19.8263 37.9863 19.9197 37.9997 19.9997 37.9997C20.173 37.9997 20.3463 37.9331 20.4797 37.7998L22.893 35.333H34.6663C37.2397 35.333 39.333 33.2397 39.333 30.6663Z" fill="url(#paint1_linear_4222_27526)"/>
<path d="M32.4532 25.4618C32.6639 26.6618 32.1585 27.7359 31.0305 28.486C30.3368 28.9472 30.2266 29.194 30.2116 29.239C30.1058 29.5526 29.8141 29.7498 29.5006 29.7498C29.4211 29.7498 29.3401 29.7371 29.2606 29.7101C28.8684 29.5781 28.6576 29.1528 28.7896 28.7598C29.0176 28.084 29.7038 27.5665 30.1996 27.2365C31.1325 26.6162 31.014 25.9419 30.9758 25.7206C30.8723 25.1311 30.3683 24.627 29.7781 24.5235C29.3229 24.4425 28.8819 24.5588 28.5361 24.8498C28.1957 25.1355 27.9999 25.5541 27.9999 25.9988C27.9999 26.4136 27.6639 26.7489 27.25 26.7489C26.836 26.7489 26.5 26.4136 26.5 25.9988C26.5 25.11 26.8907 24.2723 27.5717 23.7007C28.2519 23.1284 29.1519 22.8921 30.0376 23.0459C31.2473 23.2589 32.2402 24.2519 32.4532 25.4618ZM30.2498 31.2499C30.2498 31.664 29.9138 32 29.4998 32C29.0859 32 28.7499 31.664 28.7499 31.2499C28.7499 30.8359 29.0859 30.4999 29.4998 30.4999C29.9138 30.4999 30.2498 30.8359 30.2498 31.2499Z" fill="white"/>
<defs>
<linearGradient id="paint0_linear_4222_27526" x1="5.65785" y1="57.6154" x2="46.7555" y2="17.6556" gradientUnits="userSpaceOnUse">
<stop offset="0.01" stop-color="#FF55AA"/>
<stop offset="0.25" stop-color="#B850C9"/>
<stop offset="0.62" stop-color="#6572D6"/>
<stop offset="1" stop-color="#4EAEB8"/>
</linearGradient>
<linearGradient id="paint1_linear_4222_27526" x1="44.6663" y1="33.1934" x2="19.3329" y2="33.2499" gradientUnits="userSpaceOnUse">
<stop stop-color="#00AAE4"/>
<stop offset="1" stop-color="#8255BE"/>
</linearGradient>
</defs>
</svg>
