<svg width="64" height="64" viewBox="0 0 64 64" fill="none" xmlns="http://www.w3.org/2000/svg">
<g opacity="0.1">
<circle cx="32" cy="32" r="32" fill="url(#paint0_linear_4222_27531)"/>
</g>
<path d="M24.5625 29.125C23.0116 29.125 21.75 30.3866 21.75 31.9375V39.5625C21.75 41.1134 23.0116 42.375 24.5625 42.375C26.1134 42.375 27.375 41.1134 27.375 39.5625V31.9375C27.375 30.3866 26.1134 29.125 24.5625 29.125Z" fill="url(#paint1_linear_4222_27531)"/>
<path d="M19.875 31.9338C19.875 31.6633 19.9107 31.4021 19.9549 31.1442C18.825 31.5093 18 32.5588 18 33.8088V37.6838C18 38.9337 18.825 39.9832 19.9549 40.3484C19.9107 40.0905 19.875 39.8292 19.875 39.5588V31.9338Z" fill="url(#paint2_linear_4222_27531)"/>
<path d="M39.5625 29.125C38.0116 29.125 36.75 30.3866 36.75 31.9375V39.5625C36.75 41.1134 38.0116 42.375 39.5625 42.375C39.8444 42.375 40.1114 42.3208 40.3683 42.2433C40.0193 43.4001 38.9566 44.25 37.6875 44.25H34.7023C34.314 43.1611 33.2831 42.375 32.0625 42.375C30.5116 42.375 29.25 43.6366 29.25 45.1875C29.25 46.7384 30.5116 48 32.0625 48C33.2831 48 34.314 47.2139 34.7023 46.125H37.6875C40.2721 46.125 42.375 44.0221 42.375 41.4375V31.9375C42.375 30.3866 41.1134 29.125 39.5625 29.125Z" fill="url(#paint3_linear_4222_27531)"/>
<path d="M44.1593 31.1442C44.2035 31.4021 44.2392 31.6633 44.2392 31.9338V39.5588C44.2392 39.8292 44.2035 40.0905 44.1593 40.3484C45.2892 39.9832 46.1142 38.9337 46.1142 37.6838V33.8088C46.1142 32.5588 45.2892 31.5093 44.1593 31.1442Z" fill="url(#paint4_linear_4222_27531)"/>
<path d="M32.0625 16C24.308 16 18 22.308 18 30.0625V30.0864C18.5586 29.6636 19.2048 29.3541 19.9179 29.2156C20.3561 22.8907 25.6284 17.875 32.0625 17.875C38.4966 17.875 43.7689 22.8907 44.2071 29.2155C44.9201 29.3541 45.5664 29.6636 46.125 30.0864V30.0625C46.125 22.308 39.817 16 32.0625 16Z" fill="url(#paint5_linear_4222_27531)"/>
<path fill-rule="evenodd" clip-rule="evenodd" d="M17.5 30.0625C17.5 22.0319 24.0319 15.5 32.0625 15.5C40.0931 15.5 46.625 22.0319 46.625 30.0625V31.0919L45.8233 30.4851C45.3191 30.1034 44.7423 29.8289 44.1117 29.7063L43.7348 29.6331L43.7083 29.2501C43.288 23.1844 38.231 18.375 32.0625 18.375C25.894 18.375 20.837 23.1844 20.4167 29.2501L20.3902 29.6332L20.0133 29.7064C19.3826 29.8289 18.8059 30.1035 18.3018 30.4851L17.5 31.0921V30.0625ZM18.5291 29.1686C18.8204 29.022 19.1279 28.9015 19.45 28.8124C20.0813 22.4031 25.4883 17.375 32.0625 17.375C38.6367 17.375 44.0437 22.4031 44.675 28.8123C44.9971 28.9015 45.3046 29.022 45.5959 29.1686C45.1341 22.1053 39.2406 16.5 32.0625 16.5C24.8845 16.5 18.9909 22.1053 18.5291 29.1686ZM21.25 31.9375C21.25 30.1105 22.7355 28.625 24.5625 28.625C26.3895 28.625 27.875 30.1105 27.875 31.9375V39.5625C27.875 41.3895 26.3895 42.875 24.5625 42.875C22.7355 42.875 21.25 41.3895 21.25 39.5625V31.9375ZM24.5625 29.625C23.2878 29.625 22.25 30.6628 22.25 31.9375V39.5625C22.25 40.8372 23.2878 41.875 24.5625 41.875C25.8372 41.875 26.875 40.8372 26.875 39.5625V31.9375C26.875 30.6628 25.8372 29.625 24.5625 29.625ZM36.25 31.9375C36.25 30.1105 37.7355 28.625 39.5625 28.625C41.3895 28.625 42.875 30.1105 42.875 31.9375V41.4375C42.875 44.2982 40.5482 46.625 37.6875 46.625H35.0342C34.5002 47.7286 33.3769 48.5 32.0625 48.5C30.2355 48.5 28.75 47.0145 28.75 45.1875C28.75 43.3605 30.2355 41.875 32.0625 41.875C33.3769 41.875 34.5002 42.6464 35.0342 43.75H37.6875C38.4154 43.75 39.0635 43.4081 39.4852 42.8741C37.6938 42.8329 36.25 41.3637 36.25 39.5625V31.9375ZM39.5625 29.625C38.2878 29.625 37.25 30.6628 37.25 31.9375V39.5625C37.25 40.8372 38.2878 41.875 39.5625 41.875C39.7799 41.875 39.9962 41.8333 40.2238 41.7646L41.1161 41.4954L40.8469 42.3877C40.4374 43.7452 39.1877 44.75 37.6875 44.75H34.3498L34.2314 44.418C33.9104 43.518 33.0611 42.875 32.0625 42.875C30.7878 42.875 29.75 43.9128 29.75 45.1875C29.75 46.4622 30.7878 47.5 32.0625 47.5C33.0611 47.5 33.9104 46.857 34.2314 45.9571L34.3498 45.625H37.6875C39.9959 45.625 41.875 43.7459 41.875 41.4375V31.9375C41.875 30.6628 40.8372 29.625 39.5625 29.625ZM43.527 30.4143L44.313 30.6684C45.6387 31.0968 46.6142 32.331 46.6142 33.8088V37.6838C46.6142 39.1616 45.6387 40.3957 44.313 40.8242L43.527 41.0782L43.6665 40.264C43.7091 40.0153 43.7392 39.7868 43.7392 39.5588V31.9338C43.7392 31.7058 43.7091 31.4773 43.6665 31.2286L43.527 30.4143ZM20.5872 30.4143L20.4477 31.2286C20.4051 31.4773 20.375 31.7058 20.375 31.9338V39.5588C20.375 39.7868 20.4051 40.0153 20.4477 40.264L20.5872 41.0782L19.8011 40.8242C18.4755 40.3957 17.5 39.1616 17.5 37.6838V33.8088C17.5 32.331 18.4755 31.0968 19.8011 30.6684L20.5872 30.4143ZM19.375 32.012C18.8415 32.4339 18.5 33.0816 18.5 33.8088V37.6838C18.5 38.411 18.8415 39.0587 19.375 39.4805V32.012ZM44.7392 32.012V39.4805C45.2727 39.0586 45.6142 38.411 45.6142 37.6838V33.8088C45.6142 33.0816 45.2727 32.4339 44.7392 32.012Z" fill="url(#paint6_linear_4222_27531)"/>
<defs>
<linearGradient id="paint0_linear_4222_27531" x1="5.65785" y1="57.6154" x2="46.7555" y2="17.6556" gradientUnits="userSpaceOnUse">
<stop offset="0.01" stop-color="#FF55AA"/>
<stop offset="0.25" stop-color="#B850C9"/>
<stop offset="0.62" stop-color="#6572D6"/>
<stop offset="1" stop-color="#4EAEB8"/>
</linearGradient>
<linearGradient id="paint1_linear_4222_27531" x1="46.625" y1="33.555" x2="17.4999" y2="33.6123" gradientUnits="userSpaceOnUse">
<stop stop-color="#00AAE4"/>
<stop offset="1" stop-color="#8255BE"/>
</linearGradient>
<linearGradient id="paint2_linear_4222_27531" x1="46.625" y1="33.555" x2="17.4999" y2="33.6123" gradientUnits="userSpaceOnUse">
<stop stop-color="#00AAE4"/>
<stop offset="1" stop-color="#8255BE"/>
</linearGradient>
<linearGradient id="paint3_linear_4222_27531" x1="46.625" y1="33.555" x2="17.4999" y2="33.6123" gradientUnits="userSpaceOnUse">
<stop stop-color="#00AAE4"/>
<stop offset="1" stop-color="#8255BE"/>
</linearGradient>
<linearGradient id="paint4_linear_4222_27531" x1="46.625" y1="33.555" x2="17.4999" y2="33.6123" gradientUnits="userSpaceOnUse">
<stop stop-color="#00AAE4"/>
<stop offset="1" stop-color="#8255BE"/>
</linearGradient>
<linearGradient id="paint5_linear_4222_27531" x1="46.625" y1="33.555" x2="17.4999" y2="33.6123" gradientUnits="userSpaceOnUse">
<stop stop-color="#00AAE4"/>
<stop offset="1" stop-color="#8255BE"/>
</linearGradient>
<linearGradient id="paint6_linear_4222_27531" x1="46.625" y1="33.555" x2="17.4999" y2="33.6123" gradientUnits="userSpaceOnUse">
<stop stop-color="#00AAE4"/>
<stop offset="1" stop-color="#8255BE"/>
</linearGradient>
</defs>
</svg>
