<svg width="190" height="18" viewBox="0 0 190 18" fill="none" xmlns="http://www.w3.org/2000/svg">
<path d="M182.77 9.62265C183.292 9.26355 183.872 9.13328 184.502 9.20708C184.938 9.25793 185.349 9.4062 185.665 9.69127C186.284 10.2504 186.862 10.8545 187.453 11.444C187.997 11.9858 188.531 12.5366 189.079 13.0748C189.319 13.311 189.517 13.577 189.66 13.8773C190.318 15.255 189.814 16.9227 188.409 17.6742C187.312 18.2603 185.888 18.0371 185.015 17.147C184.626 16.7508 184.229 16.3624 183.836 15.9703L183.603 15.7383L183.324 15.4586C183.081 15.2159 182.793 14.9276 182.46 14.5937L181.911 14.0312L182.921 13.012C183.125 13.2131 183.329 13.4148 183.532 13.6172C184.372 14.4587 185.213 15.2989 186.054 16.139C186.328 16.4124 186.658 16.5478 187.045 16.558C187.632 16.5728 188.134 16.2659 188.374 15.7259C188.636 15.1346 188.511 14.5645 188.119 14.1462C187.639 13.6314 187.123 13.1481 186.629 12.645C186.059 12.0645 185.473 11.4991 184.896 10.9254C184.499 10.531 183.885 10.519 183.481 10.9078C183.175 11.2028 182.875 11.5052 182.573 11.8044C181.958 12.4142 181.343 13.0224 180.73 13.6346C180.177 14.1881 179.625 14.7438 179.076 15.3023C178.521 15.8681 177.931 16.4005 177.405 16.9956C177.292 17.1229 177.175 17.2532 177.039 17.3527C176.49 17.752 175.886 18.0069 175.114 17.9991C174.834 18.0072 174.492 17.9383 174.156 17.813C172.865 17.3315 172.093 15.9532 172.353 14.5998C172.485 13.9127 172.845 13.3695 173.344 12.8959C173.802 12.4603 174.247 12.0099 174.694 11.5623C175.233 11.0235 175.765 10.4783 176.305 9.94012L176.328 9.91762L176.379 9.86587L176.702 9.54097L177.717 10.5535L177.323 10.9522C176.918 11.3608 176.509 11.7666 176.103 12.1746C175.48 12.7993 174.859 13.4247 174.237 14.0508C174.132 14.1572 174.025 14.2623 173.946 14.3937C173.6 14.9704 173.72 15.7081 174.194 16.1631C174.774 16.7193 175.646 16.6621 176.156 16.1818C176.551 15.8089 176.927 15.4154 177.311 15.0316C178.078 14.2655 178.847 13.5009 179.612 12.7332C180.513 11.8294 181.41 10.922 182.313 10.0198C182.455 9.87689 182.605 9.73672 182.77 9.62265ZM187.168 0.000642483C187.448 -0.00745742 187.79 0.0613917 188.126 0.186715C189.416 0.668209 190.189 2.04654 189.929 3.3999C189.797 4.08704 189.437 4.63018 188.938 5.1038C188.479 5.5394 188.035 5.98984 187.588 6.43736C187.049 6.97623 186.516 7.5214 185.977 8.05959L185.954 8.08209L185.579 8.45874L184.565 7.44625L184.959 7.04755C185.364 6.63896 185.773 6.23306 186.179 5.82514C186.801 5.2001 187.423 4.57506 188.044 3.94889C188.15 3.84247 188.257 3.7374 188.335 3.606C188.682 3.02933 188.562 2.29156 188.088 1.83662C187.508 1.28043 186.636 1.33758 186.126 1.81794C185.731 2.19076 185.355 2.58429 184.97 2.96813C184.203 3.73425 183.435 4.49879 182.67 5.26648C181.769 6.17029 180.871 7.0777 179.969 7.97994C179.827 8.12282 179.677 8.26299 179.512 8.37706C178.99 8.73616 178.41 8.86643 177.78 8.79263C177.343 8.74178 176.933 8.59351 176.617 8.30844C175.998 7.74932 175.42 7.1452 174.828 6.55571C174.285 6.01392 173.75 5.46312 173.203 4.92493C172.962 4.68868 172.765 4.42274 172.622 4.12237C171.964 2.74471 172.468 1.07703 173.873 0.325538C174.969 -0.260579 176.394 -0.0373821 177.267 0.852707C177.656 1.24893 178.053 1.63727 178.446 2.02944L178.58 2.16309L178.784 2.36784L179.216 2.79893L179.356 2.93933L179.429 3.01223L179.58 3.1641L179.659 3.24285L179.822 3.40597L180.37 3.96847L179.361 4.9877C179.151 4.78138 178.99 4.62163 178.876 4.50846L178.818 4.45109L178.793 4.42589L178.75 4.38269C177.91 3.54075 177.069 2.70083 176.227 1.86047C175.954 1.58732 175.623 1.45187 175.237 1.44197C174.649 1.4269 174.148 1.7338 173.908 2.27379C173.646 2.86508 173.771 3.43522 174.162 3.85349C174.643 4.36829 175.159 4.85158 175.653 5.35468C176.223 5.93517 176.809 6.50059 177.386 7.07433C177.782 7.46875 178.397 7.48067 178.8 7.09188C179.106 6.79691 179.406 6.49451 179.708 6.19526C180.323 5.58552 180.939 4.97736 181.552 4.36514C182.105 3.81164 182.657 3.2559 183.205 2.69746C183.761 2.13159 184.351 1.59925 184.877 1.00413C184.99 0.876782 185.106 0.746508 185.243 0.647059C185.792 0.247689 186.396 -0.00723242 187.168 0.000642483Z" fill="#AAAAAA"/>
<path fill-rule="evenodd" clip-rule="evenodd" d="M107.107 9.04803L107.108 9.0469L107.11 9.04488C107.306 8.84572 107.541 8.68902 107.801 8.58453C108.303 8.38003 108.865 8.38003 109.367 8.58453C109.627 8.68886 109.862 8.84557 110.059 9.04488L110.059 9.046L110.713 9.67869L111.978 8.39216L111.344 7.75924C110.964 7.37742 110.527 7.09213 110.039 6.90673V6.90695C109.578 6.7137 109.084 6.61397 108.584 6.61356C108.087 6.61356 107.594 6.71188 107.111 6.9074C106.634 7.09303 106.205 7.37832 105.824 7.75924C105.443 8.13881 105.158 8.56923 104.972 9.04555C104.788 9.51507 104.694 10.015 104.695 10.5193C104.696 11.0175 104.789 11.5113 104.972 11.9748C105.158 12.4518 105.443 12.8827 105.824 13.2629C106.203 13.6425 106.632 13.9325 107.108 14.1289L107.11 14.1296L107.112 14.1307C107.595 14.3145 108.087 14.4084 108.584 14.4084C109.081 14.4084 109.568 14.3143 110.04 14.1303L110.042 14.1296C110.53 13.9319 110.973 13.6372 111.344 13.2633L111.977 12.6282L110.712 11.3421L110.057 11.9777L110.055 11.9797C109.867 12.1793 109.638 12.3355 109.384 12.4374C109.13 12.5393 108.858 12.5914 108.584 12.5906C108.005 12.5888 107.526 12.3895 107.11 11.9764C106.911 11.7803 106.754 11.5454 106.65 11.2861C106.548 11.0371 106.496 10.7709 106.495 10.502C106.495 10.2365 106.546 9.97636 106.65 9.71874C106.751 9.46452 106.908 9.23566 107.107 9.04825V9.04803ZM114.266 10.5015C114.268 9.92327 114.467 9.44447 114.88 9.02823C115.213 8.69681 115.584 8.50758 116.013 8.44548C116.12 8.43041 116.225 8.42321 116.328 8.42321C116.57 8.42243 116.81 8.46495 117.037 8.54876C116.876 8.70631 116.714 8.86283 116.552 9.01833L116.55 9.01945L116.55 9.02103C116.273 9.29755 115.979 9.59049 115.67 9.90077C115.371 10.1996 115.083 10.4871 114.806 10.7634C114.64 10.9304 114.5 11.0708 114.385 11.1848C114.305 10.9659 114.265 10.7345 114.266 10.5015H114.266ZM119.114 7.75699C118.733 7.3763 118.296 7.091 117.809 6.90448V6.9047C117.348 6.71198 116.853 6.61242 116.353 6.61176C115.856 6.61176 115.363 6.71076 114.88 6.90538V6.90515C114.404 7.0919 113.974 7.37697 113.594 7.75699C113.213 8.13769 112.928 8.56766 112.742 9.04398C112.559 9.50774 112.465 10.0016 112.464 10.4999C112.464 10.9974 112.558 11.4899 112.741 11.9725L112.743 11.9766L112.742 11.9739C112.928 12.45 113.213 12.8804 113.593 13.2609C113.955 13.6255 114.386 13.9146 114.86 14.1114C115.333 14.3076 115.841 14.408 116.353 14.4066C116.866 14.4077 117.374 14.3071 117.848 14.1105C118.322 13.9138 118.752 13.6251 119.114 13.2611L119.748 12.6257L118.462 11.3403L118.343 11.4602L117.828 11.9746C117.495 12.3053 117.118 12.502 116.677 12.5746C116.574 12.589 116.472 12.5965 116.372 12.5965C116.132 12.5967 115.894 12.554 115.67 12.4702L119.748 8.39148L119.113 7.75699H119.114ZM126.888 7.75812C126.53 7.40019 126.105 7.11663 125.638 6.92383C125.174 6.71683 124.668 6.61221 124.128 6.61266C123.607 6.61045 123.092 6.71681 122.615 6.92495C122.148 7.11766 121.724 7.40074 121.368 7.75789C121.02 8.10529 120.743 8.51703 120.535 8.98863L120.535 8.99043C120.337 9.4555 120.239 9.96084 120.239 10.5011H120.406L120.239 10.5013V14.4079H122.056V10.5013C122.056 10.2124 122.107 9.94824 122.209 9.70389C122.323 9.44605 122.471 9.2269 122.653 9.04398C122.842 8.85373 123.066 8.7025 123.313 8.59893L123.316 8.59781C123.572 8.48569 123.848 8.42858 124.128 8.43018C124.416 8.43018 124.684 8.48598 124.939 8.59781L124.943 8.59916L124.945 8.59961C125.192 8.69705 125.415 8.84776 125.598 9.04105L125.602 9.04443L125.605 9.04758C125.798 9.2304 125.949 9.45357 126.046 9.70119L126.047 9.70592L126.049 9.70907C126.161 9.95206 126.216 10.2137 126.216 10.5011V14.4079H128.033V10.5011C128.033 9.95926 127.929 9.45302 127.72 8.98773C127.53 8.52522 127.246 8.10672 126.888 7.75812ZM133.947 11.9743L133.945 11.977C133.757 12.1765 133.527 12.3326 133.273 12.4347C133.019 12.5367 132.747 12.5888 132.473 12.5881C131.893 12.5863 131.415 12.387 130.999 11.9741C130.8 11.7777 130.643 11.5426 130.538 11.2834C130.437 11.0342 130.385 10.7681 130.384 10.4993C130.384 10.2338 130.436 9.97344 130.538 9.71514C130.64 9.46128 130.796 9.2327 130.995 9.04533L130.997 9.04443L130.999 9.04263C131.206 8.83563 131.434 8.68421 131.689 8.58206C132.191 8.37753 132.754 8.37753 133.257 8.58206C133.512 8.68421 133.74 8.83585 133.947 9.04263L134.601 9.67599L135.867 8.38968L135.233 7.75677C134.852 7.37495 134.415 7.08965 133.928 6.90403C133.467 6.71097 132.973 6.61133 132.473 6.61086C131.975 6.61086 131.483 6.70918 131 6.90515C130.523 7.09055 130.093 7.3754 129.713 7.75677C129.333 8.13634 129.047 8.56676 128.862 9.0433C128.677 9.51271 128.583 10.0126 128.584 10.5168C128.584 11.0138 128.677 11.5 128.862 11.9725C129.047 12.4495 129.332 12.8802 129.713 13.2604C130.093 13.6398 130.522 13.93 130.997 14.1262L130.998 14.1271L131.002 14.1282C131.484 14.3121 131.976 14.4059 132.473 14.4059C132.972 14.4051 133.466 14.3108 133.929 14.1278L133.931 14.1269C134.417 13.9307 134.853 13.6402 135.233 13.2606L135.867 12.6257L134.601 11.3396L133.947 11.9743ZM138.309 9.70502C138.424 9.44627 138.572 9.22735 138.754 9.04533L138.755 9.04488C138.946 8.85182 139.176 8.70051 139.429 8.60051L139.431 8.59893L139.434 8.59803C139.69 8.4855 139.967 8.4283 140.246 8.43018C140.533 8.43018 140.802 8.48576 141.057 8.59803L141.06 8.59938L141.063 8.60051C141.31 8.69761 141.534 8.84819 141.717 9.0415L141.719 9.04465L141.723 9.04825C141.916 9.23113 142.067 9.45409 142.164 9.70142L142.165 9.70502L142.167 9.70862C142.278 9.95206 142.334 10.2137 142.334 10.5011C142.336 10.7808 142.279 11.0577 142.166 11.3137L142.165 11.3162L142.164 11.3185C142.064 11.5711 141.912 11.8005 141.72 11.9923C141.537 12.1755 141.319 12.3231 141.061 12.4365C140.802 12.5401 140.525 12.5924 140.246 12.5904C139.966 12.5924 139.689 12.5402 139.429 12.4365C139.18 12.3278 138.952 12.1775 138.754 11.9921C138.568 11.7938 138.418 11.5651 138.31 11.316C138.207 11.0568 138.155 10.7801 138.157 10.5013C138.157 10.2124 138.208 9.94869 138.309 9.70502ZM143.84 8.98998C143.65 8.52659 143.366 8.10727 143.007 7.75812C142.65 7.40011 142.225 7.11681 141.757 6.92473C141.292 6.71683 140.787 6.61243 140.247 6.61266C139.728 6.61028 139.213 6.71658 138.737 6.92473L138.735 6.92563L138.734 6.92608C138.267 7.11812 137.843 7.40094 137.487 7.75812C137.14 8.10551 136.862 8.51703 136.654 8.98908L136.653 8.992L136.653 8.99043C136.456 9.45572 136.358 9.96151 136.358 10.5011C136.358 11.0316 136.456 11.5367 136.653 12.0115L136.654 12.0144C136.854 12.4758 137.136 12.8977 137.485 13.26L137.486 13.2618L137.486 13.2622C137.846 13.6202 138.269 13.908 138.733 14.1109L138.736 14.1118L138.737 14.1125C139.212 14.3089 139.717 14.4077 140.247 14.4077C140.787 14.4077 141.293 14.3094 141.758 14.1118L141.76 14.1109C142.225 13.908 142.648 13.6202 143.007 13.2624C143.365 12.9044 143.648 12.4793 143.841 12.0115C144.049 11.5353 144.155 11.0208 144.152 10.5011C144.153 9.96196 144.049 9.4564 143.841 8.99223L143.84 8.98998ZM152.307 11.0665H152.307C152.307 11.0645 152.305 11.0629 152.305 11.0611C152.19 10.772 152.013 10.5112 151.788 10.2965V10.2961C151.57 10.0797 151.311 9.91 151.025 9.79749C151.023 9.79682 151.022 9.79614 151.02 9.79524L151.016 9.79367C150.731 9.66362 150.42 9.59837 150.091 9.59859H147.102C146.932 9.59702 146.809 9.54685 146.694 9.4357C146.578 9.30745 146.526 9.1756 146.525 9.00483C146.526 8.83315 146.577 8.70896 146.69 8.59398C146.807 8.47991 146.93 8.42928 147.102 8.42793H151.771V6.60996H151.601V6.7787L151.602 6.7796H151.601V6.60996H147.102C146.775 6.60856 146.452 6.67562 146.153 6.80683C145.873 6.92296 145.619 7.09281 145.405 7.30677C145.19 7.52187 145.018 7.77837 144.887 8.07289L144.887 8.07514L144.886 8.07649C144.766 8.36404 144.707 8.67453 144.707 9.00483C144.706 9.32779 144.766 9.6481 144.885 9.94824L144.887 9.95274L144.889 9.95589C145.017 10.2355 145.19 10.492 145.401 10.7153L145.403 10.7171L145.405 10.7184C145.62 10.9337 145.873 11.1084 146.151 11.2343L146.155 11.2363L146.158 11.2377C146.456 11.3569 146.772 11.4154 147.102 11.4154H150.091C150.276 11.4172 150.405 11.471 150.518 11.5824C150.632 11.698 150.683 11.8225 150.685 11.9937C150.683 12.1786 150.63 12.3073 150.518 12.4212C150.404 12.5332 150.277 12.5857 150.091 12.5877H145.438V14.4054H150.091C150.421 14.4054 150.732 14.3454 151.02 14.2257L151.021 14.2245L151.022 14.2243C151.307 14.1014 151.567 13.9259 151.788 13.7068C152.01 13.4877 152.186 13.227 152.306 12.9396H152.306C152.436 12.6426 152.502 12.3253 152.502 11.9935C152.504 11.6741 152.437 11.358 152.307 11.0665ZM160.681 6.78275H160.68V6.61356H159.033V10.502C159.035 10.7816 158.977 11.0585 158.865 11.3144L158.863 11.3176L158.862 11.3196C158.762 11.572 158.611 11.8011 158.419 11.9928C158.236 12.175 158.017 12.3229 157.76 12.4376C157.5 12.5403 157.223 12.5922 156.944 12.5906C156.666 12.5923 156.389 12.5405 156.13 12.4378C155.887 12.3262 155.664 12.1757 155.47 11.9923C155.285 11.7946 155.134 11.5667 155.026 11.3182C154.923 11.0585 154.87 10.7814 154.872 10.502V6.61356H153.056V10.5022C153.056 11.0323 153.154 11.5374 153.351 12.0126L153.352 12.0144L153.353 12.0162C153.553 12.4773 153.834 12.8989 154.183 13.2613L154.185 13.2629V13.2636C154.544 13.6217 154.967 13.9092 155.432 14.1111L155.434 14.1125L155.435 14.1129C155.91 14.31 156.415 14.409 156.945 14.409C157.486 14.409 157.991 14.31 158.455 14.112L158.457 14.1111C158.922 13.9091 159.346 13.6216 159.705 13.2636C160.062 12.9056 160.345 12.4805 160.538 12.0126C160.747 11.5365 160.853 11.0221 160.85 10.5024V6.61378H160.681V6.78275ZM163.826 11.9932C163.641 11.7962 163.491 11.5686 163.382 11.3205C163.279 11.0605 163.226 10.7828 163.228 10.5029C163.228 10.2137 163.279 9.94959 163.381 9.70524C163.495 9.4474 163.643 9.22892 163.826 9.04623C164.018 8.8533 164.247 8.70195 164.5 8.60163L164.502 8.60051L164.505 8.59916C164.761 8.487 165.037 8.42996 165.317 8.43176H167.389V10.5026C167.391 10.7824 167.333 11.0593 167.22 11.3153L167.219 11.3182L167.218 11.3209C167.118 11.5732 166.967 11.8022 166.774 11.9937C166.591 12.1766 166.373 12.3244 166.115 12.439C165.871 12.5407 165.606 12.5915 165.317 12.5915C165.038 12.5932 164.761 12.5414 164.501 12.4387C164.253 12.33 164.024 12.1793 163.826 11.9932ZM169.203 3.62109H167.386V6.60951H165.314C164.784 6.60951 164.279 6.71368 163.804 6.9209C163.337 7.11294 162.913 7.39575 162.556 7.75294L162.555 7.75429L162.554 7.75474C162.196 8.10169 161.912 8.51343 161.705 8.98593L161.704 8.98885L161.705 8.98773C161.507 9.4519 161.408 9.95746 161.408 10.4975C161.408 11.028 161.507 11.5333 161.704 12.0081L161.705 12.0103L161.705 12.0117C161.908 12.4766 162.196 12.8995 162.554 13.2588C162.913 13.6172 163.336 13.9049 163.801 14.1071L163.803 14.1078L163.805 14.1082C164.279 14.3053 164.784 14.4043 165.314 14.4043C165.844 14.4043 166.349 14.3053 166.824 14.1082L166.826 14.1071C167.299 13.9001 167.71 13.6166 168.057 13.2588C168.415 12.9013 168.698 12.4764 168.891 12.0088H168.891C169.099 11.5324 169.205 11.0177 169.203 10.4977V3.62109Z" fill="#AAAAAA"/>
<path d="M9.22049 11.3002V10.3817H0.113281V11.3002H9.22049ZM13.3769 13.4995V10.314H16.6348V13.4995H17.7949V6.43235H16.6348V9.32289H13.3769V6.43235H12.2215V13.4995H13.3769ZM21.4201 13.5963C21.7841 13.5963 22.1081 13.5688 22.3916 13.5139C22.6827 13.4566 22.9654 13.3624 23.2326 13.2336V12.3104C22.9199 12.449 22.6276 12.548 22.3552 12.6076C22.0829 12.6673 21.7891 12.6972 21.4732 12.6972C20.993 12.6972 20.6206 12.5577 20.3565 12.2789C20.0924 12.0001 19.952 11.6014 19.9358 11.0826H23.4986V10.4686C23.4986 9.71776 23.2938 9.12804 22.8846 8.69942C22.4753 8.2708 21.9178 8.05661 21.2122 8.05661C20.4517 8.05661 19.8539 8.30635 19.4187 8.80585C18.9836 9.30534 18.7662 9.99158 18.7662 10.865C18.7662 11.7157 19.0007 12.3838 19.4696 12.8686C19.9385 13.3537 20.5885 13.5963 21.4201 13.5963ZM22.3819 10.2607H19.9553C19.9972 9.82261 20.127 9.48894 20.3446 9.26012C20.5619 9.03129 20.8513 8.917 21.2122 8.917C21.5731 8.917 21.8566 9.03062 22.0629 9.25764C22.2692 9.48489 22.3756 9.81924 22.3819 10.2607ZM26.4951 13.5963C26.8238 13.5963 27.1035 13.5704 27.3339 13.5189C27.5627 13.4679 27.7821 13.3815 27.9841 13.2626V12.2717C27.5328 12.523 27.0542 12.6488 26.5484 12.6488C26.1036 12.6488 25.7661 12.4981 25.5357 12.1968C25.3051 11.8953 25.1899 11.4453 25.1899 10.8457C25.1899 9.61786 25.6525 9.00407 26.5772 9.00407C26.89 9.00407 27.2862 9.09744 27.7666 9.28442L28.1097 8.37093C27.6586 8.16123 27.151 8.05661 26.5869 8.05661C25.7555 8.05661 25.1199 8.29825 24.68 8.78155C24.2402 9.26507 24.0201 9.95626 24.0201 10.8553C24.0201 11.7385 24.2305 12.4159 24.651 12.888C25.0718 13.3602 25.6862 13.5963 26.4951 13.5963ZM29.9268 13.4995V10.8457C29.9268 10.1752 30.0388 9.69774 30.2627 9.41244C30.4868 9.12714 30.8371 8.98472 31.3141 8.98472C31.675 8.98472 31.9385 9.08597 32.1045 9.28914C32.2706 9.49209 32.3533 9.79988 32.3533 10.2125V13.4995H33.4941V10.0143C33.4941 8.7091 32.8465 8.05661 31.551 8.05661C31.1836 8.05661 30.8621 8.12748 30.5867 8.26923C30.3111 8.41098 30.0962 8.61077 29.9414 8.86862H29.8687C29.9074 8.52055 29.9268 8.19363 29.9268 7.88741V5.97786H28.7907V13.4995H29.927H29.9268ZM36.8243 13.5963C37.6237 13.5963 38.2472 13.3512 38.6951 12.8614C39.1429 12.3716 39.367 11.6901 39.367 10.8166C39.367 9.97246 39.1415 9.30129 38.6902 8.80337C38.2391 8.30545 37.6268 8.05638 36.8533 8.05638C36.0444 8.05638 35.4178 8.29983 34.973 8.7865C34.5282 9.27294 34.3059 9.94973 34.3059 10.8166C34.3059 11.3742 34.4089 11.864 34.6152 12.2861C34.8216 12.7084 35.1163 13.0322 35.4999 13.2579C35.8833 13.4833 36.3248 13.5963 36.8243 13.5963ZM36.8436 12.6681C35.9317 12.6681 35.4756 12.051 35.4756 10.8166C35.4756 10.2272 35.583 9.77424 35.7972 9.45834C36.0114 9.14244 36.3572 8.98472 36.8339 8.98472C37.7429 8.98472 38.1972 9.59536 38.1972 10.8166C38.1972 12.051 37.7461 12.6681 36.8436 12.6681ZM44.4998 13.5963C44.8283 13.5963 45.108 13.5704 45.3384 13.5189C45.5672 13.4679 45.7866 13.3815 45.9886 13.2626V12.2717C45.5375 12.523 45.0589 12.6488 44.5529 12.6488C44.1081 12.6488 43.7706 12.4981 43.5404 12.1968C43.3098 11.8953 43.1946 11.4453 43.1946 10.8457C43.1946 9.61786 43.657 9.00407 44.5819 9.00407C44.8947 9.00407 45.2909 9.09744 45.7711 9.28442L46.1142 8.37093C45.6631 8.16123 45.1557 8.05661 44.5916 8.05661C43.7603 8.05661 43.1246 8.29825 42.6845 8.78155C42.2447 9.26507 42.0249 9.95626 42.0249 10.8553C42.0249 11.7385 42.235 12.4159 42.6555 12.888C43.0763 13.3602 43.691 13.5963 44.4998 13.5963ZM48.9948 13.5963C49.794 13.5963 50.4177 13.3512 50.8657 12.8614C51.3134 12.3716 51.5375 11.6901 51.5375 10.8166C51.5375 9.97246 51.3118 9.30129 50.8607 8.80337C50.4096 8.30545 49.7974 8.05638 49.0238 8.05638C48.215 8.05638 47.5884 8.29983 47.1435 8.7865C46.6987 9.27294 46.4764 9.94973 46.4764 10.8166C46.4764 11.3742 46.5795 11.864 46.7858 12.2861C46.9921 12.7084 47.2869 13.0322 47.6705 13.2579C48.0539 13.4833 48.4953 13.5963 48.9948 13.5963ZM49.0142 12.6681C48.1023 12.6681 47.6462 12.051 47.6462 10.8166C47.6462 10.2272 47.7533 9.77424 47.9677 9.45834C48.1819 9.14244 48.5275 8.98472 49.0045 8.98472C49.9135 8.98472 50.3677 9.59536 50.3677 10.8166C50.3677 12.051 49.9166 12.6681 49.0142 12.6681ZM53.5287 13.4995V10.836C53.5287 10.1689 53.6399 9.69369 53.8622 9.40996C54.0845 9.12647 54.4359 8.98472 54.9161 8.98472C55.277 8.98472 55.5404 9.08597 55.7063 9.28914C55.8723 9.49209 55.9553 9.79988 55.9553 10.2125V13.4995H57.0961V10.0143C57.0961 8.7091 56.4548 8.05661 55.1723 8.05661C54.8112 8.05661 54.4825 8.12591 54.186 8.26428C53.8896 8.40288 53.6608 8.59952 53.4997 8.85422H53.4417L53.2819 8.15313H52.3927V13.4995H53.5287ZM76.336 15.8777V13.6881C76.336 13.5913 76.3135 13.3175 76.2683 12.8664H76.3358C76.7097 13.3528 77.2351 13.5963 77.9119 13.5963C78.579 13.5963 79.1017 13.3512 79.4804 12.8614C79.859 12.3716 80.0485 11.6901 80.0485 10.8166C80.0485 9.94343 79.8624 9.26507 79.49 8.78155C79.1179 8.29825 78.5981 8.05661 77.9313 8.05661C77.2223 8.05661 76.6904 8.32728 76.336 8.86862H76.278C76.1974 8.49153 76.1443 8.25303 76.1185 8.15313H75.2V15.8777H76.336ZM77.6556 12.6681C77.1883 12.6681 76.8515 12.5224 76.6454 12.2305C76.4391 11.9389 76.336 11.4678 76.336 10.8166V10.6474C76.336 10.0674 76.44 9.64531 76.6479 9.38094C76.8555 9.11679 77.1852 8.98472 77.6363 8.98472C78.0458 8.98472 78.3558 9.13862 78.5669 9.44619C78.7779 9.75399 78.8834 10.2076 78.8834 10.807C78.8834 11.4032 78.777 11.8624 78.5644 12.1846C78.3518 12.5071 78.0487 12.6681 77.6556 12.6681ZM83.1174 13.5963C83.9169 13.5963 84.5403 13.3512 84.9883 12.8614C85.436 12.3716 85.6601 11.6901 85.6601 10.8166C85.6601 9.97246 85.4347 9.30129 84.9833 8.80337C84.5322 8.30545 83.92 8.05638 83.1465 8.05638C82.3376 8.05638 81.711 8.29983 81.2662 8.7865C80.8213 9.27294 80.599 9.94973 80.599 10.8166C80.599 11.3742 80.7021 11.864 80.9084 12.2861C81.1147 12.7084 81.4095 13.0322 81.7931 13.2579C82.1765 13.4833 82.6179 13.5963 83.1174 13.5963ZM83.1368 12.6681C82.2249 12.6681 81.7688 12.051 81.7688 10.8166C81.7688 10.2272 81.8761 9.77424 82.0903 9.45834C82.3045 9.14244 82.6503 8.98472 83.1271 8.98472C84.0361 8.98472 84.4904 9.59536 84.4904 10.8166C84.4904 12.051 84.0393 12.6681 83.1368 12.6681ZM87.6514 13.4995V10.7055C87.6514 10.2319 87.7922 9.84668 88.0743 9.55014C88.3563 9.25382 88.7246 9.10554 89.1789 9.10554C89.3528 9.10554 89.5204 9.12489 89.6815 9.16359L89.7927 8.10476C89.6446 8.07258 89.4561 8.05661 89.2272 8.05661C88.8985 8.05661 88.5916 8.14998 88.3063 8.33695C88.021 8.5237 87.79 8.77682 87.6127 9.09587H87.5546L87.4048 8.15313H86.5154V13.4995H87.6514ZM101.147 11.3002V10.3817H92.0397V11.3002H101.147ZM63.8606 5.84961C62.1148 5.84961 61.0436 7.28082 61.0436 8.45485C61.0436 10.993 64.1212 13.3494 66.2935 14.8495C68.4661 13.3494 71.5436 10.9933 71.5436 8.45485C71.5436 7.28082 70.4721 5.84961 68.7266 5.84961C67.7515 5.84961 66.9185 6.57838 66.2935 7.27069C65.6687 6.57838 64.8355 5.84961 63.8606 5.84961Z" fill="#AAAAAA"/>
</svg>
