<svg xmlns="http://www.w3.org/2000/svg" width="100" height="100" viewBox="0 0 100 100">
    <path fill="#ddd" fill-rule="evenodd" d="M53.35 3.35a2.569 2.569 0 0 1 2.569 2.569v2.965a2.569 2.569 0 1 1-5.138 0V5.919A2.569 2.569 0 0 1 53.35 3.35zm-12.941 1.7a2.569 2.569 0 0 1 3.147 1.817l.767 2.863a2.569 2.569 0 1 1-4.963 1.33l-.768-2.86a2.569 2.569 0 0 1 1.817-3.145zm25.882 0a2.569 2.569 0 0 1 1.817 3.15l-.767 2.863a2.569 2.569 0 0 1-4.964-1.33l.768-2.863a2.569 2.569 0 0 1 3.146-1.815zm12.059 5a2.569 2.569 0 0 1 .94 3.51l-1.482 2.567a2.569 2.569 0 1 1-4.45-2.569l1.482-2.567a2.569 2.569 0 0 1 3.51-.941zm-50 0a2.569 2.569 0 0 1 3.51.94l1.482 2.567a2.569 2.569 0 1 1-4.45 2.569L27.41 13.56a2.569 2.569 0 0 1 .94-3.51zm60.355 7.945a2.569 2.569 0 0 1 0 3.633l-2.1 2.1a2.569 2.569 0 1 1-3.633-3.633l2.1-2.1a2.569 2.569 0 0 1 3.633 0zm-70.711 0a2.569 2.569 0 0 1 3.633 0l2.1 2.1a2.569 2.569 0 1 1-3.633 3.633l-2.1-2.1a2.569 2.569 0 0 1 .001-3.633zm35.356 5.118a2.569 2.569 0 0 1 2.569 2.569V34.9a2.569 2.569 0 1 1-5.138 0v-9.218a2.569 2.569 0 0 1 2.569-2.569zm-11.327 2.2a2.569 2.569 0 0 1 3.345 1.42l.648 1.6a2.569 2.569 0 0 1-4.764 1.925l-.648-1.6a2.57 2.57 0 0 1 1.419-3.344zm23.141.2a2.569 2.569 0 0 1 1.361 3.369l-.676 1.592a2.569 2.569 0 0 1-4.73-2.008l.675-1.592a2.569 2.569 0 0 1 3.37-1.358zm-55.115 2.838a2.569 2.569 0 0 1 3.51-.94l2.567 1.482a2.569 2.569 0 0 1-2.569 4.45l-2.567-1.482a2.569 2.569 0 0 1-.941-3.51zm86.6 0a2.569 2.569 0 0 1-.94 3.509l-2.567 1.482a2.569 2.569 0 1 1-2.569-4.45l2.567-1.482a2.569 2.569 0 0 1 3.511.941zm-64.68 3.618a2.569 2.569 0 0 1 3.633 0l6.522 6.521a2.569 2.569 0 0 1-3.634 3.634L31.969 35.6a2.57 2.57 0 0 1 0-3.631zm42.762 0a2.569 2.569 0 0 1 0 3.634l-6.521 6.521a2.569 2.569 0 0 1-3.633-3.634l6.523-6.521a2.569 2.569 0 0 1 3.631 0zm26.915 8.441a2.569 2.569 0 0 1-1.817 3.147l-2.863.767a2.569 2.569 0 1 1-1.33-4.963l2.864-.767a2.569 2.569 0 0 1 3.146 1.816zm-96.592 0A2.569 2.569 0 0 1 8.2 38.594l2.863.768a2.569 2.569 0 0 1-1.33 4.963l-2.863-.768a2.569 2.569 0 0 1-1.816-3.146zm20.463 1.125a2.569 2.569 0 0 1 3.369-1.361l1.592.675a2.569 2.569 0 1 1-2.008 4.73l-1.593-.679a2.569 2.569 0 0 1-1.361-3.365zm55.869.488a2.569 2.569 0 0 1-1.42 3.344l-1.6.648a2.569 2.569 0 1 1-1.925-4.764l1.6-.648a2.569 2.569 0 0 1 3.344 1.42zM3.35 53.35a2.569 2.569 0 0 1 2.569-2.569h2.965a2.569 2.569 0 0 1 0 5.138H5.919A2.569 2.569 0 0 1 3.35 53.35zm19.763 0a2.569 2.569 0 0 1 2.569-2.569H34.9a2.569 2.569 0 1 1 0 5.138h-9.218a2.569 2.569 0 0 1-2.569-2.569zm46.113 0a2.569 2.569 0 0 1 2.574-2.569h9.223a2.569 2.569 0 0 1 0 5.138H71.8a2.569 2.569 0 0 1-2.574-2.569zm26.021 0a2.569 2.569 0 0 1 2.569-2.569h2.964a2.569 2.569 0 0 1 0 5.138h-2.964a2.569 2.569 0 0 1-2.569-2.569zM31.682 62.1a2.569 2.569 0 0 1-1.42 3.344l-1.6.648a2.569 2.569 0 1 1-1.925-4.764l1.6-.648a2.569 2.569 0 0 1 3.345 1.42zm43.179.377a2.569 2.569 0 0 1 3.369-1.357l1.592.675a2.569 2.569 0 0 1-2.008 4.73l-1.592-.676a2.569 2.569 0 0 1-1.361-3.368zM12.88 64.195a2.569 2.569 0 0 1-1.817 3.147l-2.863.767a2.569 2.569 0 1 1-1.33-4.963l2.863-.767a2.569 2.569 0 0 1 3.147 1.816zm80.939 0a2.569 2.569 0 0 1 3.147-1.817l2.863.767a2.569 2.569 0 0 1-1.33 4.963l-2.864-.767A2.569 2.569 0 0 1 93.82 64.2zm-29.243.381a2.569 2.569 0 0 1 3.633 0l6.522 6.524a2.569 2.569 0 1 1-3.631 3.631l-6.521-6.522a2.569 2.569 0 0 1-.003-3.633zm-22.452 0a2.57 2.57 0 0 1 0 3.634L35.6 74.731a2.569 2.569 0 0 1-3.631-3.631l6.521-6.521a2.57 2.57 0 0 1 3.634-.003zm11.226 4.65a2.569 2.569 0 0 1 2.569 2.574v9.223a2.569 2.569 0 1 1-5.138 0V71.8a2.569 2.569 0 0 1 2.569-2.574zM89.634 74.3a2.57 2.57 0 0 1 3.51-.941l2.567 1.482a2.569 2.569 0 0 1-2.569 4.45l-2.567-1.482a2.569 2.569 0 0 1-.941-3.509zm-72.568 0a2.569 2.569 0 0 1-.94 3.509l-2.567 1.482a2.569 2.569 0 1 1-2.569-4.45l2.567-1.482a2.569 2.569 0 0 1 3.509.941zm27.153.562a2.569 2.569 0 0 1 1.361 3.368l-.68 1.592a2.569 2.569 0 1 1-4.73-2.008l.675-1.592a2.569 2.569 0 0 1 3.374-1.361zm17.885.156a2.569 2.569 0 0 1 3.345 1.42l.648 1.6a2.569 2.569 0 1 1-4.764 1.925l-.648-1.6a2.57 2.57 0 0 1 1.415-3.345zm-38.38 7.958a2.569 2.569 0 0 1 0 3.634l-2.1 2.1a2.569 2.569 0 0 1-3.633-3.633l2.1-2.1a2.569 2.569 0 0 1 3.633-.001zm59.252 0a2.569 2.569 0 0 1 3.633 0l2.1 2.1a2.569 2.569 0 1 1-3.634 3.633l-2.1-2.1a2.57 2.57 0 0 1 .001-3.633zM32.4 89.635a2.569 2.569 0 0 1 .94 3.509l-1.48 2.568a2.569 2.569 0 0 1-4.45-2.569l1.482-2.568a2.569 2.569 0 0 1 3.508-.94zm41.9 0a2.569 2.569 0 0 1 3.509.94l1.482 2.567a2.569 2.569 0 0 1-4.45 2.569l-1.482-2.567a2.569 2.569 0 0 1 .941-3.509zM64.2 93.82a2.569 2.569 0 0 1 3.146 1.817l.768 2.863a2.569 2.569 0 0 1-4.963 1.33l-.768-2.864a2.569 2.569 0 0 1 1.811-3.145zm-21.688 0a2.569 2.569 0 0 1 1.817 3.147l-.767 2.864a2.569 2.569 0 0 1-4.963-1.33l.767-2.863a2.569 2.569 0 0 1 3.14-1.817zm10.838 1.427a2.569 2.569 0 0 1 2.569 2.569v2.964a2.569 2.569 0 1 1-5.138 0v-2.964a2.569 2.569 0 0 1 2.569-2.569z" transform="translate(-3.35 -3.35)"/>
</svg>
