<svg width="36" height="36" viewBox="0 0 36 36" fill="none" xmlns="http://www.w3.org/2000/svg">
<rect width="36" height="36" rx="18" fill="#EEEEEE"/>
<g clip-path="url(#clip0)">
<mask id="mask0" style="mask-type:alpha" maskUnits="userSpaceOnUse" x="3" y="5" width="31" height="34">
<path d="M32.4212 31.7371C31.5671 29.8448 27.3982 28.5927 24.6282 27.4172C21.8582 26.2416 22.2369 25.529 22.1373 24.5539C22.1238 24.4203 22.1148 24.2781 22.1094 24.1324C23.0598 23.3243 23.8374 22.2164 24.3405 20.9374C24.3405 20.9374 24.3669 20.8724 24.3744 20.8526C24.4806 20.5748 24.5748 20.2851 24.6558 19.9898C25.2909 19.8662 25.6608 19.2021 25.8022 18.5879C25.945 18.3393 26.2417 17.7265 26.1736 17.0313C26.086 16.1363 25.7103 15.7228 25.2885 15.5496C25.2891 15.4958 25.2894 15.4446 25.2894 15.3944C25.2894 14.2549 25.1793 12.6153 24.9618 11.5376C24.9153 11.2403 24.8454 10.9409 24.7545 10.6471C24.3456 9.32669 23.4903 8.14022 22.347 7.3058C21.1667 6.44477 19.4981 5.98987 18.0157 5.98987C16.5334 5.98987 14.8645 6.44477 13.6845 7.3058C12.5412 8.14022 11.6859 9.32669 11.277 10.6471C11.1861 10.9409 11.1162 11.2403 11.0697 11.5376C10.8522 12.615 10.7421 14.2543 10.7421 15.3944C10.7421 15.4408 10.7424 15.4878 10.743 15.5369C10.3082 15.7021 9.91614 16.1138 9.82614 17.031C9.75803 17.7262 10.0547 18.339 10.1975 18.5876C10.3412 19.2124 10.7217 19.889 11.3772 19.9954C11.4585 20.2922 11.5542 20.5836 11.6616 20.8638C11.6685 20.8822 11.676 20.8999 11.6832 20.9179L11.6931 20.9422C12.2061 22.2436 13.0038 23.3671 13.9779 24.1776C13.9722 24.3074 13.9638 24.4336 13.9515 24.5533C13.8519 25.5281 14.1432 26.2411 11.3733 27.4166C8.6033 28.5921 4.4344 29.8442 3.58027 31.7365C2.72615 33.6285 3.06726 34.742 3.06726 34.742L18.0157 38.1854L32.9321 34.742C32.9321 34.742 33.2756 33.6291 32.4212 31.7371Z" fill="black"/>
</mask>
<g mask="url(#mask0)">
<rect width="36" height="35.9392" rx="17.9696" fill="#CCCCCC"/>
</g>
</g>
<defs>
<clipPath id="clip0">
<rect width="36" height="34.5025" fill="white" transform="translate(0 1.49747)"/>
</clipPath>
</defs>
</svg>
