<svg width="183" height="182" viewBox="0 0 183 182" fill="none" xmlns="http://www.w3.org/2000/svg">
<circle opacity="0.2" cx="91.5" cy="91" r="80.5" stroke="url(#paint0_linear_16085_64872)"/>
<circle opacity="0.2" cx="91.5" cy="91" r="85.5" stroke="url(#paint1_linear_16085_64872)"/>
<circle cx="91.5" cy="91" r="75" fill="url(#paint2_linear_16085_64872)" fill-opacity="0.2"/>
<circle cx="91.5" cy="91" r="75.5" stroke="url(#paint3_linear_16085_64872)" stroke-opacity="0.6"/>
<mask id="mask0_16085_64872" style="mask-type:alpha" maskUnits="userSpaceOnUse" x="16" y="4" width="151" height="162">
<path d="M166.5 91C166.5 132.421 132.921 166 91.4996 166C50.0783 166 16.4996 132.421 16.4996 91C16.4996 49.5786 12 4 78.9996 4C173.5 4 166.5 49.5786 166.5 91Z" fill="#D9D9D9"/>
</mask>
<g mask="url(#mask0_16085_64872)">
<path d="M33.5 91.6074C33.5 88.5632 35.1408 85.7553 37.793 84.2609L87.3607 56.3323C89.9303 54.8844 93.0697 54.8844 95.6393 56.3323L145.207 84.2609C147.859 85.7553 149.5 88.5632 149.5 91.6074V152.568C149.5 157.225 145.725 161 141.068 161H41.9324C37.2753 161 33.5 157.225 33.5 152.568V91.6074Z" fill="#5537B9"/>
<path d="M90.2387 121.616C91.2269 120.884 92.7328 120.884 93.7211 121.616L148.203 161.968C149.962 163.271 148.835 165.661 146.462 165.661H37.4981C35.125 165.661 33.9981 163.271 35.7569 161.968L90.2387 121.616Z" fill="#5537B9"/>
<path d="M94.5 125.444L41.125 103.667C37.7333 102.266 35.1898 99.3629 34.248 95.8165L33.5 93L33.5 161L94.5 125.444Z" fill="#6D4BDF"/>
<path d="M88.5 124.556L141.875 103.667C145.267 102.266 147.81 99.3629 148.752 95.8165L149.5 93L149.5 161L88.5 124.556Z" fill="#6D4BDF"/>
<mask id="mask1_16085_64872" style="mask-type:alpha" maskUnits="userSpaceOnUse" x="34" y="35" width="116" height="91">
<path d="M40.2762 102.095C39.7257 101.828 39.1893 101.528 38.7169 101.14C36.0597 98.9543 34.5002 95.6821 34.5002 92.2081L34.5 46.5603C34.5 40.1757 39.6713 35 46.0503 35L137.949 35C144.329 35 149.5 40.1758 149.5 46.5604L149.5 92.2082C149.5 95.6821 147.94 98.9543 145.283 101.139C144.811 101.528 144.274 101.828 143.724 102.095L99.4284 123.526C98.8779 123.792 98.3553 124.112 97.8275 124.421C94.2306 126.526 89.7694 126.526 86.1724 124.421C85.6446 124.112 85.1221 123.792 84.5716 123.526L40.2762 102.095Z" fill="#EEEEEE"/>
</mask>
<g mask="url(#mask1_16085_64872)">
<path fill-rule="evenodd" clip-rule="evenodd" d="M59.9324 39C55.2753 39 51.5 42.7753 51.5 47.4324V128.784C51.5 131.112 53.3876 133 55.7162 133H128.284C130.612 133 132.5 131.112 132.5 128.784V47.4324C132.5 42.7753 128.725 39 124.068 39H59.9324ZM82.6153 42.581C81.8764 42.581 81.2774 43.18 81.2774 43.9189C81.2774 44.6577 81.8764 45.2567 82.6153 45.2567H101.345C102.084 45.2567 102.683 44.6577 102.683 43.9189C102.683 43.18 102.084 42.581 101.345 42.581H82.6153Z" fill="white"/>
<path fill-rule="evenodd" clip-rule="evenodd" d="M59.9324 39C55.2753 39 51.5 42.7753 51.5 47.4324V128.784C51.5 131.112 53.3876 133 55.7162 133H128.284C130.612 133 132.5 131.112 132.5 128.784V47.4324C132.5 42.7753 128.725 39 124.068 39H59.9324ZM82.6153 42.581C81.8764 42.581 81.2774 43.18 81.2774 43.9189C81.2774 44.6577 81.8764 45.2567 82.6153 45.2567H101.345C102.084 45.2567 102.683 44.6577 102.683 43.9189C102.683 43.18 102.084 42.581 101.345 42.581H82.6153Z" fill="url(#paint4_linear_16085_64872)" fill-opacity="0.2"/>
<rect x="61.4126" y="99.1347" width="60.0807" height="6.32428" rx="3.16214" fill="white"/>
<rect x="61.4126" y="109.675" width="60.0807" height="6.32428" rx="3.16214" fill="white"/>
<rect x="61.4126" y="120.216" width="60.0807" height="6.32428" rx="3.16214" fill="white"/>
<rect x="42.707" y="54.8481" width="97.8162" height="32.0176" rx="16.0088" fill="#FBFBE8"/>
<path d="M63.9947 61.6432C64.4006 61.0113 65.3243 61.0113 65.7302 61.6432L68.1612 65.4281C68.3009 65.6455 68.5171 65.8026 68.767 65.8682L73.1179 67.0107C73.8443 67.2014 74.1297 68.0799 73.6542 68.6612L70.8058 72.1428C70.6421 72.3429 70.5596 72.597 70.5744 72.855L70.8323 77.3459C70.8754 78.0958 70.1281 78.6387 69.4283 78.366L65.2369 76.7329C64.9961 76.6391 64.7289 76.6391 64.4881 76.7329L60.2967 78.366C59.5968 78.6387 58.8496 78.0958 58.8926 77.3459L59.1506 72.855C59.1654 72.597 59.0828 72.3429 58.9192 72.1428L56.0708 68.6612C55.5952 68.0799 55.8806 67.2014 56.6071 67.0107L60.9579 65.8682C61.2079 65.8026 61.4241 65.6455 61.5637 65.4281L63.9947 61.6432Z" fill="#FFD02B"/>
<path d="M90.8085 61.6432C91.2144 61.0113 92.138 61.0113 92.5439 61.6432L94.975 65.4281C95.1146 65.6455 95.3308 65.8026 95.5808 65.8682L99.9316 67.0107C100.658 67.2014 100.943 68.0799 100.468 68.6612L97.6195 72.1428C97.4559 72.3429 97.3733 72.597 97.3881 72.855L97.646 77.3459C97.6891 78.0958 96.9419 78.6387 96.242 78.366L92.0506 76.7329C91.8098 76.6391 91.5426 76.6391 91.3018 76.7329L87.1104 78.366C86.4105 78.6387 85.6633 78.0958 85.7063 77.3459L85.9643 72.855C85.9791 72.597 85.8965 72.3429 85.7329 72.1428L82.8845 68.6612C82.4089 68.0799 82.6943 67.2014 83.4208 67.0107L87.7716 65.8682C88.0216 65.8026 88.2378 65.6455 88.3774 65.4281L90.8085 61.6432Z" fill="#FFD02B"/>
<path d="M117.622 61.6432C118.028 61.0113 118.952 61.0113 119.358 61.6432L121.789 65.4281C121.928 65.6455 122.145 65.8026 122.394 65.8682L126.745 67.0107C127.472 67.2014 127.757 68.0799 127.282 68.6612L124.433 72.1428C124.27 72.3429 124.187 72.597 124.202 72.855L124.46 77.3459C124.503 78.0958 123.756 78.6387 123.056 78.366L118.864 76.7329C118.624 76.6391 118.356 76.6391 118.116 76.7329L113.924 78.366C113.224 78.6387 112.477 78.0958 112.52 77.3459L112.778 72.855C112.793 72.597 112.71 72.3429 112.547 72.1428L109.698 68.6612C109.223 68.0799 109.508 67.2014 110.235 67.0107L114.585 65.8682C114.835 65.8026 115.052 65.6455 115.191 65.4281L117.622 61.6432Z" fill="white" stroke="#FFD02B" stroke-width="1.03132" stroke-linejoin="round"/>
<rect x="42.707" y="54.8481" width="97.8162" height="32.0176" rx="16.0088" stroke="#FFEAA0" stroke-width="1.34511"/>
</g>
</g>
<path d="M171.346 34.3787C171.346 31.9604 169.391 30 166.979 30H141.867C139.455 30 137.5 31.9604 137.5 34.3787V49.1568C137.5 51.5751 139.455 53.5355 141.867 53.5355H166.979C169.391 53.5355 171.346 51.5751 171.346 49.1568V34.3787Z" fill="white"/>
<path d="M171.346 34.3787C171.346 31.9604 169.391 30 166.979 30H141.867C139.455 30 137.5 31.9604 137.5 34.3787V49.1568C137.5 51.5751 139.455 53.5355 141.867 53.5355H166.979C169.391 53.5355 171.346 51.5751 171.346 49.1568V34.3787Z" fill="url(#paint5_linear_16085_64872)" fill-opacity="0.2"/>
<path d="M141.867 57.1011C141.867 57.6994 142.52 58.0687 143.033 57.7602L150.056 53.5355H141.867V57.1011Z" fill="white"/>
<path d="M141.867 57.1011C141.867 57.6994 142.52 58.0687 143.033 57.7602L150.056 53.5355H141.867V57.1011Z" fill="url(#paint6_linear_16085_64872)" fill-opacity="0.2"/>
<g opacity="0.5">
<circle r="1.92308" transform="matrix(-1 0 0 1 161.731 41.9231)" fill="#7F2684"/>
<circle r="1.92308" transform="matrix(-1 0 0 1 154.808 41.9231)" fill="#7F2684"/>
<circle r="1.92308" transform="matrix(-1 0 0 1 147.885 41.9231)" fill="#7F2684"/>
</g>
<path d="M11.5 15.3787C11.5 12.9604 13.4553 11 15.8672 11H40.9789C43.3909 11 45.3462 12.9604 45.3462 15.3787V30.1568C45.3462 32.5751 43.3909 34.5355 40.9789 34.5355H15.8672C13.4553 34.5355 11.5 32.5751 11.5 30.1568V15.3787Z" fill="white"/>
<path d="M11.5 15.3787C11.5 12.9604 13.4553 11 15.8672 11H40.9789C43.3909 11 45.3462 12.9604 45.3462 15.3787V30.1568C45.3462 32.5751 43.3909 34.5355 40.9789 34.5355H15.8672C13.4553 34.5355 11.5 32.5751 11.5 30.1568V15.3787Z" fill="url(#paint7_linear_16085_64872)" fill-opacity="0.2"/>
<path d="M40.9789 38.1011C40.9789 38.6994 40.3258 39.0687 39.8132 38.7602L32.7903 34.5355H40.9789V38.1011Z" fill="white"/>
<path d="M40.9789 38.1011C40.9789 38.6994 40.3258 39.0687 39.8132 38.7602L32.7903 34.5355H40.9789V38.1011Z" fill="url(#paint8_linear_16085_64872)" fill-opacity="0.2"/>
<g opacity="0.5">
<circle cx="21.1151" cy="22.9231" r="1.92308" fill="#7F2684"/>
<circle cx="28.0383" cy="22.9231" r="1.92308" fill="#7F2684"/>
<circle cx="34.9615" cy="22.9231" r="1.92308" fill="#7F2684"/>
</g>
<defs>
<linearGradient id="paint0_linear_16085_64872" x1="44.0333" y1="-5.53333" x2="152.3" y2="251.533" gradientUnits="userSpaceOnUse">
<stop offset="0.219581" stop-color="#DDF5FB"/>
<stop offset="1" stop-color="#DA0095"/>
</linearGradient>
<linearGradient id="paint1_linear_16085_64872" x1="41.0667" y1="-11.5667" x2="156.1" y2="261.567" gradientUnits="userSpaceOnUse">
<stop offset="0.219581" stop-color="#DDF5FB"/>
<stop offset="1" stop-color="#DA0095"/>
</linearGradient>
<linearGradient id="paint2_linear_16085_64872" x1="47" y1="0.500002" x2="148.5" y2="241.5" gradientUnits="userSpaceOnUse">
<stop offset="0.219581" stop-color="#DDF5FB"/>
<stop offset="1" stop-color="#DA0095"/>
</linearGradient>
<linearGradient id="paint3_linear_16085_64872" x1="47" y1="0.500002" x2="148.5" y2="241.5" gradientUnits="userSpaceOnUse">
<stop offset="0.219581" stop-color="#DDF5FB"/>
<stop offset="1" stop-color="#DA0095"/>
</linearGradient>
<linearGradient id="paint4_linear_16085_64872" x1="60.8113" y1="58.0856" x2="125.416" y2="142.996" gradientUnits="userSpaceOnUse">
<stop stop-color="#CE57D3"/>
<stop offset="0.349738" stop-color="#9454E6"/>
<stop offset="0.635417" stop-color="#6A6CE9"/>
<stop offset="1" stop-color="#47BAD8"/>
</linearGradient>
<linearGradient id="paint5_linear_16085_64872" x1="167.566" y1="35.08" x2="149.874" y2="66.7255" gradientUnits="userSpaceOnUse">
<stop stop-color="#CE57D3"/>
<stop offset="0.349738" stop-color="#9454E6"/>
<stop offset="0.635417" stop-color="#6A6CE9"/>
<stop offset="1" stop-color="#47BAD8"/>
</linearGradient>
<linearGradient id="paint6_linear_16085_64872" x1="167.566" y1="35.08" x2="149.874" y2="66.7255" gradientUnits="userSpaceOnUse">
<stop stop-color="#CE57D3"/>
<stop offset="0.349738" stop-color="#9454E6"/>
<stop offset="0.635417" stop-color="#6A6CE9"/>
<stop offset="1" stop-color="#47BAD8"/>
</linearGradient>
<linearGradient id="paint7_linear_16085_64872" x1="15.2807" y1="16.08" x2="32.9725" y2="47.7255" gradientUnits="userSpaceOnUse">
<stop stop-color="#CE57D3"/>
<stop offset="0.349738" stop-color="#9454E6"/>
<stop offset="0.635417" stop-color="#6A6CE9"/>
<stop offset="1" stop-color="#47BAD8"/>
</linearGradient>
<linearGradient id="paint8_linear_16085_64872" x1="15.2807" y1="16.08" x2="32.9725" y2="47.7255" gradientUnits="userSpaceOnUse">
<stop stop-color="#CE57D3"/>
<stop offset="0.349738" stop-color="#9454E6"/>
<stop offset="0.635417" stop-color="#6A6CE9"/>
<stop offset="1" stop-color="#47BAD8"/>
</linearGradient>
</defs>
</svg>
