<svg width="80" height="76" viewBox="0 0 80 76" fill="none" xmlns="http://www.w3.org/2000/svg">
<rect width="80" height="76" rx="38" fill="#7F2684"/>
<path d="M14.0137 37.8676C14.0664 38.7365 14.0137 39.6053 14.0927 40.5005C14.3034 42.8965 14.8564 45.2399 15.7253 47.5042C16.5153 49.5053 17.5423 51.4273 18.8062 53.1914C20.5178 55.6401 22.6771 57.7201 25.1524 59.4052C27.3643 60.906 29.8132 62.0909 32.3675 62.8807C34.3951 63.5127 36.4753 63.8813 38.6083 63.9603C41.3732 64.1182 44.1381 63.8023 46.7977 63.065C49.5889 62.3015 52.2222 61.064 54.6184 59.4316C56.409 58.1941 58.0417 56.7459 59.4899 55.1135C60.4116 54.0866 61.2279 53.0071 61.9652 51.8223C63.0185 50.1635 63.8611 48.3994 64.5195 46.5564C65.3358 44.1867 65.8361 41.738 65.9677 39.2367C66.0731 37.2883 65.9151 35.3399 65.5728 33.4179C64.9144 29.6264 63.4135 26.0192 61.1489 22.9123C60.9119 22.649 60.8856 22.2541 61.0962 21.9908C61.8862 20.49 61.7545 18.6469 60.7276 17.3041C59.3319 15.6454 57.1464 15.0924 55.1188 16.3563C54.8818 16.5406 54.5658 16.5406 54.3551 16.3563C53.8021 15.9613 53.2228 15.619 52.6172 15.3031C49.7733 13.7496 46.666 12.6964 43.4798 12.2752C41.2942 11.9855 39.1086 11.9855 36.923 12.2225C34.4214 12.4858 31.9725 13.144 29.6552 14.1446C27.022 15.2767 24.573 16.8565 22.4664 18.8049C20.4652 20.569 18.8062 22.649 17.4633 24.9134C16.2783 26.9408 15.383 29.0998 14.7774 31.3642C14.198 33.4969 13.9347 35.6822 14.0137 37.8676Z" fill="#EEEEEE"/>
<path d="M14.0137 37.8694C13.9347 35.684 14.198 33.4987 14.8037 31.366C15.383 29.1016 16.2783 26.9162 17.4896 24.9152C18.8062 22.6508 20.4652 20.5708 22.4138 18.754C24.5204 16.8057 26.9693 15.2259 29.6025 14.0937C31.9198 13.0932 34.3687 12.4349 36.8703 12.1716C39.0559 11.9347 41.2415 11.9347 43.4271 12.2243C46.6397 12.6719 49.7469 13.6988 52.5645 15.2522C53.1701 15.5682 53.7231 15.9368 54.3024 16.3054C54.5131 16.4897 54.8554 16.4897 55.0661 16.3054C57.0937 15.0679 59.2793 15.6208 60.6749 17.2533C61.7018 18.6224 61.8335 20.4391 61.0435 21.9399C60.8329 22.2296 60.8592 22.5982 61.0962 22.8615C63.3608 25.9947 64.8617 29.5755 65.5201 33.367C65.8887 35.2891 66.0204 37.2375 65.9151 39.1859C65.7834 41.6872 65.2831 44.1358 64.4668 46.5055C63.8085 48.3486 62.9658 50.1127 61.9125 51.7714C61.1752 52.9299 60.3589 54.0358 59.4373 55.0626C57.989 56.6951 56.3564 58.1432 54.5657 59.3807C52.1958 61.0395 49.5362 62.2506 46.745 63.0142C44.0854 63.7514 41.3205 64.0674 38.5556 63.9094C36.449 63.8041 34.3424 63.4355 32.3148 62.8299C29.7342 62.04 27.3116 60.8552 25.0997 59.3544C22.6244 57.6956 20.4651 55.5892 18.7535 53.1406C17.4896 51.3765 16.4626 49.4808 15.6726 47.4534C14.8037 45.2153 14.2507 42.8457 14.04 40.4497C14.0137 39.6335 14.04 38.7383 14.0137 37.8694ZM16.5416 37.9747C16.5416 38.475 16.5416 39.0016 16.5416 39.5018C16.5416 39.7651 16.5943 40.0547 16.6206 40.318C17.0683 45.505 19.3065 50.4023 22.9667 54.1148C28.4176 59.723 35.0797 62.0927 42.8478 61.2238C47.535 60.7235 51.9325 58.7488 55.4084 55.5629C61.4385 50.0863 64.0718 43.2406 63.2028 35.1048C62.7551 31.1816 61.3069 27.4692 58.9896 24.2833C58.8579 24.0463 58.5683 23.941 58.3313 24.02C56.0667 24.5729 53.8021 23.2038 53.2491 20.9394C53.0911 20.3602 53.0648 19.7546 53.1965 19.1753C53.3018 18.833 53.1175 18.4908 52.8015 18.3591C47.772 15.0152 41.6102 13.7777 35.659 14.9363C24.5467 16.9636 16.4889 26.6793 16.5416 37.9747ZM57.3307 22.1769C58.5946 22.2032 59.6216 21.2027 59.6216 19.9389C59.6216 19.9126 59.6216 19.9126 59.6216 19.8862C59.5952 18.6224 58.5946 17.6219 57.3307 17.6219C56.0667 17.6219 55.0397 18.6224 55.0397 19.8862V19.9126C55.0661 21.1764 56.0667 22.1769 57.3307 22.1769Z" fill="white"/>
<path d="M16.5416 37.9747C16.4889 26.6793 24.5467 16.99 35.659 14.9363C41.6102 13.7777 47.7456 15.0152 52.8015 18.3591C53.1175 18.4908 53.2754 18.833 53.1965 19.1753C52.7751 21.466 54.2754 23.6511 56.5663 24.0724C57.1456 24.1777 57.752 24.178 58.3313 24.02C58.5946 23.941 58.8836 24.0461 59.0152 24.2831C61.3325 27.4689 62.7808 31.2078 63.2284 35.1045C64.0974 43.2404 61.4905 50.0861 55.434 55.5627C51.9581 58.7486 47.5606 60.7233 42.8734 61.2236C35.1053 62.0924 28.4432 59.7228 22.9924 54.1145C19.3322 50.3757 17.0939 45.5048 16.6462 40.3178C16.6199 40.0545 16.5672 39.7649 16.5672 39.5016C16.5409 39.0013 16.5416 38.475 16.5416 37.9747ZM38.8709 35.0256L38.9762 35.1309L39.4239 35.8154C39.3975 35.8944 39.4502 35.9998 39.5028 36.0524L39.5292 40.0019C40.1612 40.1598 40.8195 40.1598 41.4251 40.0019C41.4778 38.7907 41.4778 37.5795 41.4251 36.3684C41.4515 36.342 41.4515 36.2894 41.4251 36.263C41.3988 36.0524 41.3725 35.8154 41.3461 35.6048L41.2671 35.4205L41.2408 35.2625C41.2671 35.1835 41.2145 35.0782 41.1618 35.0256C41.0565 34.6569 40.8458 34.3147 40.5562 34.0514C40.4772 33.867 40.3192 33.7354 40.1612 33.6564L39.9505 33.4984L39.8188 33.3931C39.2659 32.9718 38.6075 32.7612 37.9492 32.7612H37.5279L37.2646 32.8139C37.2383 32.7875 37.2119 32.7875 37.1856 32.8139L36.9749 32.8402C36.8959 32.8139 36.7906 32.8402 36.7379 32.9192C36.3693 32.9718 36.0533 33.1298 35.7636 33.3668L35.632 33.4721C35.5003 33.4984 35.395 33.6038 35.3423 33.7091L35.237 33.8144C35.079 33.9197 34.9473 34.0514 34.8947 34.2357L34.7893 34.3673C34.4733 34.7623 34.2627 35.2625 34.2364 35.7891C34.0257 36.7106 34.1574 37.6585 34.1574 38.5801C34.131 40.1598 34.1574 40.1598 35.7636 40.1072C36.0533 40.1072 36.1323 40.0019 36.1323 39.7386C36.106 38.738 36.106 37.7112 36.106 36.7106C35.9743 35.7365 36.6589 34.8676 37.6332 34.7359C38.0282 34.6833 38.4232 34.7623 38.7392 34.9466L38.8709 35.0256ZM18.9635 39.212C18.9635 39.8965 18.9372 40.5548 18.9635 41.2393C18.9898 41.7396 18.7528 42.3979 19.0688 42.6612C19.3848 42.8981 20.0168 42.7138 20.4908 42.7665C20.8331 42.7928 20.9384 42.6875 20.9384 42.3452C20.9121 41.7396 20.9384 41.134 20.9121 40.5284C20.9121 40.2125 20.9648 40.0545 21.3334 40.0808C21.7811 40.1072 22.2024 40.1072 22.65 40.0808C24.6776 40.0545 26.2839 38.3957 26.2576 36.3684C26.2313 34.3673 24.5987 32.7612 22.5974 32.7349C20.5698 32.7349 18.9372 34.3673 18.9372 36.3684V36.3947C18.9372 37.3426 18.9635 38.2904 18.9635 39.212ZM58.5939 32.7349C57.9619 32.7349 57.3036 32.7349 56.6716 32.7349C55.4077 32.7085 54.328 33.7091 54.3017 34.9729C54.3017 34.9992 54.3017 34.9992 54.3017 35.0256C54.3017 36.3157 55.3287 37.3426 56.5926 37.3689H56.619C57.4353 37.3689 58.2779 37.3689 59.0942 37.3689C59.3576 37.3689 59.6472 37.3952 59.6472 37.7375C59.6472 38.0798 59.3576 38.1061 59.0942 38.1061C58.1989 38.1061 57.3036 38.1061 56.4083 38.1061C55.9343 38.1061 55.3024 37.8955 55.039 38.2114C54.802 38.5011 54.9864 39.133 54.9337 39.5806C54.9074 39.9229 54.9864 40.0808 55.3813 40.0545C56.6453 40.0282 57.9093 40.0545 59.1732 40.0282C59.4629 40.0282 59.7525 39.9755 60.0422 39.8965C61.0692 39.5543 61.7275 38.5537 61.6222 37.4742C61.4905 36.2894 60.5162 35.3942 59.3312 35.3942C58.5149 35.3678 57.6723 35.3942 56.856 35.3678C56.5926 35.3678 56.303 35.3942 56.2767 35.0256C56.2767 34.6569 56.5663 34.6833 56.8296 34.6833C57.6986 34.6833 58.5939 34.6833 59.4629 34.6833C61.0428 34.6833 61.0428 34.6833 60.9902 33.0772C60.9902 32.7875 60.9112 32.7085 60.6215 32.7085C59.9369 32.7349 59.2522 32.7349 58.5939 32.7349ZM50.3255 40.4231C52.3531 40.4231 54.0121 38.7907 54.0384 36.7633V36.737C54.0121 34.7359 52.3794 33.1298 50.3782 33.1035C48.3506 33.1035 46.6916 34.7096 46.6916 36.737C46.6653 38.7644 48.2716 40.3968 50.2992 40.4231H50.3255ZM26.5473 35.1835C26.5473 35.7365 26.5473 36.2894 26.5473 36.8423C26.5999 38.7644 28.1272 40.3178 30.0231 40.4231C31.6031 40.5284 33.5517 39.3436 33.815 37.3426C33.894 36.421 33.9204 35.5258 33.8677 34.6043C33.894 33.0508 33.8677 33.0508 32.3141 33.0772C31.9718 33.0772 31.8928 33.1825 31.8928 33.5248C31.9191 34.5516 31.9191 35.5785 31.8928 36.6053C31.9718 37.5532 31.2344 38.3957 30.2865 38.4747C30.2338 38.4747 30.2075 38.4747 30.1548 38.4747C29.1805 38.4747 28.4959 37.7112 28.4959 36.6053C28.4959 35.5785 28.4695 34.5516 28.4959 33.5248C28.4959 33.1825 28.4169 33.0508 28.0745 33.0772C27.6796 33.1035 27.2582 33.1035 26.8632 33.0772C26.5999 33.0772 26.5209 33.1825 26.5209 33.4194C26.5473 33.9987 26.5473 34.5779 26.5473 35.1835ZM41.7411 33.4984C41.7411 34.42 41.7411 35.3678 41.7411 36.2894C41.7148 38.2904 43.2684 39.9755 45.2697 40.0545C46.402 40.1335 46.402 40.1335 46.402 39.0277C46.402 38.8697 46.402 38.6854 46.402 38.5274C46.4283 38.2114 46.323 38.0535 45.9806 38.0798C45.7963 38.1061 45.612 38.1061 45.4277 38.0798C44.5324 38.1061 43.795 37.4216 43.7424 36.5263C43.6897 35.9734 43.716 35.4205 43.6897 34.8676C43.6897 34.6306 43.7687 34.5516 44.0057 34.5516C44.427 34.5779 44.8483 34.5516 45.2697 34.5516C46.402 34.5516 46.402 34.5516 46.402 33.3931C46.402 32.5506 46.481 32.6822 45.7173 32.6822C45.454 32.6822 45.1643 32.6822 44.901 32.6822C43.716 32.6822 43.716 32.6822 43.716 31.4974C43.716 29.9439 43.7161 29.9703 42.1361 30.0229C41.8201 30.0229 41.7411 30.1282 41.7411 30.4442C41.7674 31.4711 41.7674 32.4716 41.7411 33.4984ZM53.0904 45.2678C53.0904 44.8202 53.0904 44.3989 53.0904 43.9513C53.0904 43.767 53.0641 43.6353 52.8271 43.6353C52.6428 43.6353 52.5111 43.6617 52.5111 43.8986C52.4848 44.2146 52.6428 44.5832 52.4321 44.7939C52.1951 45.0045 51.8001 44.8202 51.4841 44.8992C51.4315 44.8992 51.3788 44.8992 51.3261 44.9255C50.5625 45.0571 50.0095 45.7417 50.0622 46.5316C50.1412 47.3215 50.7995 47.9534 51.5895 47.9534C52.4058 47.9534 53.0641 47.3215 53.1168 46.5316C53.0904 46.1103 53.0904 45.6891 53.0904 45.2678ZM44.8747 47.9797C45.1643 47.9797 45.454 47.9797 45.7437 47.9534C46.2176 47.9271 46.5863 47.5058 46.56 47.0319C46.56 46.5579 46.165 46.163 45.691 46.163C45.3223 46.1367 44.9537 46.163 44.585 46.163C44.3744 46.163 44.1637 46.1367 44.1374 45.8734C44.111 45.5574 44.348 45.5311 44.585 45.5311C45.0327 45.5311 45.5067 45.5311 45.9543 45.5311C46.165 45.5311 46.244 45.4521 46.244 45.2415C46.244 45.0571 46.244 44.8992 46.007 44.8992C45.4277 44.8992 44.822 44.8992 44.2427 44.9518C43.7687 45.0045 43.4527 45.3994 43.4791 45.8734C43.4791 46.3473 43.874 46.7422 44.3744 46.7422C44.7694 46.7686 45.138 46.7422 45.533 46.7422C45.77 46.7422 45.9543 46.8212 45.928 47.0845C45.9016 47.3215 45.7173 47.3742 45.533 47.3742C45.0853 47.3742 44.6114 47.3742 44.1637 47.3742C43.953 47.3742 43.8214 47.3742 43.8214 47.6638C43.8214 47.9271 43.9267 48.0324 44.19 48.0061C44.4007 47.9534 44.6377 47.9797 44.8747 47.9797ZM32.4984 44.9255C31.7874 44.8728 31.1291 45.3204 30.9448 46.005C30.7341 46.6633 31.0238 47.4005 31.6294 47.7691C32.2087 48.1114 32.9724 48.0324 33.4464 47.5848C33.5517 47.4795 33.815 47.4005 33.578 47.1635C33.42 47.0055 33.2884 46.8476 33.0514 47.1109C32.8934 47.2952 32.6564 47.4005 32.4194 47.3742C32.3404 47.3742 32.2087 47.3478 32.1824 47.2952C32.1034 47.1898 32.2087 47.1109 32.2877 47.0319C32.6037 46.7159 32.8934 46.4 33.2094 46.1103C33.7624 45.5574 33.6834 45.2415 32.9197 45.0045C32.7617 44.9518 32.6301 44.9255 32.4984 44.9255ZM41.7411 44.9255C40.8985 44.9255 40.2138 45.6101 40.2138 46.4526C40.2402 47.2952 40.9248 47.9797 41.7938 47.9797C42.6364 47.9534 43.2947 47.2425 43.2947 46.4C43.2947 45.5837 42.6364 44.8992 41.8201 44.8992C41.7938 44.9255 41.7674 44.9255 41.7411 44.9255ZM46.7706 45.8734C46.7706 46.0577 46.7706 46.242 46.7706 46.4263C46.7443 47.2425 47.4026 47.9534 48.2189 47.9797C49.0352 48.0061 49.7199 47.4005 49.7989 46.6106C49.8515 46.1367 49.7989 45.6627 49.8252 45.1888C49.8252 44.9255 49.6672 44.8992 49.4829 44.8992C49.2722 44.8992 49.1932 44.9782 49.1932 45.1888C49.1932 45.5837 49.1932 45.9524 49.1932 46.3473C49.2459 46.8476 48.8509 47.3215 48.3506 47.3742C48.3242 47.3742 48.2979 47.3742 48.2716 47.3742C47.7713 47.3742 47.3499 46.9529 47.3499 46.4263V46.4C47.3236 46.005 47.3499 45.6364 47.3499 45.2415C47.3499 45.0308 47.2973 44.8992 47.0603 44.8992C46.8233 44.8992 46.7443 45.0045 46.7443 45.2151C46.797 45.4258 46.797 45.6364 46.7706 45.8734ZM36.9749 47.0582C36.9749 46.8476 36.9749 46.6106 36.9749 46.4C36.9486 45.5574 36.2376 44.8992 35.395 44.9255C35.3686 44.9255 35.3686 44.9255 35.3423 44.9255C34.526 44.9518 33.894 45.6364 33.9204 46.4526V46.479C33.9204 46.8739 33.9204 47.2425 33.9204 47.6375C33.9204 47.8218 33.9204 48.0061 34.1837 48.0061C34.4733 48.0061 34.526 47.9008 34.526 47.6375C34.526 47.2425 34.4997 46.8212 34.526 46.4263C34.526 45.926 34.9473 45.5311 35.4476 45.5311C35.948 45.5311 36.3693 45.9524 36.3429 46.479V46.5053C36.3429 46.9002 36.3429 47.3215 36.3429 47.7164C36.3429 47.9797 36.4746 48.0061 36.6853 48.0061C36.8959 48.0061 37.0013 47.9534 37.0013 47.7164C36.9749 47.4795 36.9749 47.2688 36.9749 47.0582ZM29.3122 44.8992C28.6012 44.8992 27.9955 45.3731 27.8376 46.0577C27.6796 46.7159 27.9692 47.4005 28.5485 47.7428C29.1542 48.0851 29.8915 47.9797 30.3918 47.5321C30.5235 47.4005 30.6815 47.2952 30.4708 47.1109C30.3128 46.9529 30.2075 46.8739 29.9705 47.0582C29.4702 47.4531 29.0225 47.4268 28.6539 47.0319C28.3379 46.6896 28.3379 46.163 28.6275 45.8207C28.9172 45.4521 29.4702 45.3731 29.8388 45.6627C29.8652 45.6891 29.9178 45.7154 29.9442 45.7417C30.1811 45.9524 30.3128 45.8734 30.4708 45.6891C30.7341 45.4258 30.4181 45.3468 30.3128 45.2415C30.0495 45.0045 29.6808 44.8728 29.3122 44.8992ZM37.1856 46.4263C37.1593 47.0582 37.5542 47.6111 38.1336 47.8481C38.6865 48.0851 39.3449 47.9534 39.7662 47.5321C39.8978 47.4005 40.0558 47.2952 39.8452 47.0845C39.6872 46.9266 39.5555 46.8212 39.3712 47.0319C39.1605 47.2952 38.7919 47.4005 38.4759 47.2688C38.1072 47.1635 37.8439 46.8476 37.8176 46.479C37.7649 46.1103 37.9492 45.7681 38.2916 45.6101C38.6339 45.3731 39.0815 45.4258 39.3449 45.7417C39.5555 45.9524 39.6872 45.926 39.8715 45.7154C40.1085 45.4521 39.8452 45.3468 39.7398 45.2415C39.2922 44.8202 38.6339 44.7412 38.1072 45.0045C37.5016 45.2678 37.1593 45.8207 37.1856 46.4263Z" fill="#7F2684"/>
<path d="M57.3307 22.1769C56.093 22.1769 55.0655 21.1767 55.0392 19.9392C55.0392 19.9392 55.0397 19.9389 55.0397 19.9126C55.0397 18.6487 56.0398 17.6222 57.3038 17.6222L57.3307 17.6219C58.5946 17.6219 59.5952 18.6224 59.6216 19.8862C59.6216 21.15 58.6204 22.1772 57.3564 22.1772C57.3828 22.1772 57.357 22.1769 57.3307 22.1769Z" fill="#E2890A"/>
<path d="M18.9639 39.2105C18.9639 38.289 18.9639 37.3411 18.9639 36.4196C18.9639 34.3922 20.5702 32.7598 22.5978 32.7598H22.6241C24.6254 32.7598 26.258 34.3922 26.2843 36.3933C26.3107 38.4206 24.7044 40.0794 22.6768 40.1057C22.2291 40.1057 21.8078 40.1321 21.3601 40.1057C20.9915 40.0794 20.9388 40.2111 20.9388 40.5533C20.9652 41.1589 20.9388 41.7645 20.9652 42.3701C20.9915 42.7124 20.8598 42.8177 20.5175 42.7914C20.0172 42.765 19.3852 42.9493 19.0955 42.6861C18.7796 42.4228 19.0165 41.7645 18.9902 41.2642C18.9375 40.5797 18.9375 39.8951 18.9639 39.2105ZM20.9125 36.9988C20.9388 38.1047 20.9388 38.1047 22.0185 38.1047C22.2554 38.1047 22.4924 38.1047 22.7294 38.1047C23.5984 38.052 24.283 37.3148 24.3357 36.4459C24.3357 35.577 23.7301 34.8661 22.8611 34.7082C22.0185 34.6028 21.2021 35.1294 20.9652 35.9457C20.9125 36.3143 20.8862 36.6566 20.9125 36.9988Z" fill="white"/>
<path d="M58.5939 32.7367C59.2785 32.7367 59.9632 32.7367 60.6215 32.7367C60.9111 32.7367 60.9901 32.8157 60.9901 33.1053C61.0428 34.7115 61.0428 34.7115 59.4629 34.7115C58.5939 34.7115 57.6986 34.7115 56.8296 34.7115C56.5663 34.7115 56.2766 34.7115 56.2766 35.0537C56.2766 35.4224 56.5926 35.396 56.8559 35.396C57.6722 35.396 58.5149 35.3697 59.3312 35.4224C60.5162 35.4224 61.5168 36.3176 61.6221 37.5024C61.7274 38.5819 61.0691 39.5824 60.0422 39.9247C59.7525 40.0037 59.4629 40.0564 59.1732 40.0564C57.9092 40.0827 56.6453 40.0564 55.3813 40.0827C54.9863 40.0827 54.9073 39.9511 54.9337 39.6088C54.96 39.1348 54.802 38.5293 55.039 38.2396C55.3023 37.9237 55.9343 38.1343 56.4083 38.1343C57.3036 38.108 58.1989 38.1343 59.0942 38.1343C59.3575 38.1343 59.6472 38.108 59.6472 37.7657C59.6472 37.4234 59.3575 37.3971 59.0942 37.3971C58.2779 37.3971 57.4353 37.3971 56.6189 37.3971C55.3287 37.3971 54.3017 36.3702 54.2754 35.1064C54.2754 35.0801 54.2754 35.0801 54.2754 35.0537C54.2754 33.7899 55.3287 32.7631 56.5926 32.7631C56.6189 32.7631 56.6189 32.7631 56.6453 32.7631C57.3036 32.7104 57.9356 32.7367 58.5939 32.7367Z" fill="white"/>
<path d="M50.3259 40.4246C48.2983 40.4246 46.692 38.7659 46.692 36.7648V36.7385C46.7184 34.7111 48.351 33.0787 50.3786 33.105C52.3798 33.1313 53.9861 34.7374 54.0388 36.7385C54.0388 38.7659 52.4062 40.4246 50.3786 40.4246C50.3522 40.4246 50.3259 40.4246 50.3259 40.4246ZM50.3259 38.4499C51.2739 38.4762 52.0375 37.7127 52.0639 36.7911C52.0639 36.7911 52.0639 36.7911 52.0639 36.7648C52.0375 35.8169 51.2739 35.0534 50.3522 35.0534C49.4306 35.0797 48.6933 35.8169 48.667 36.7385C48.6406 37.66 49.3516 38.4236 50.2732 38.4499C50.2732 38.4499 50.2996 38.4499 50.3259 38.4499Z" fill="white"/>
<path d="M26.5488 35.1829C26.5488 34.6037 26.5488 33.9981 26.5488 33.4188C26.5488 33.1555 26.6278 33.0502 26.8911 33.0765C27.2861 33.1029 27.7074 33.1029 28.1024 33.0765C28.4447 33.0502 28.5501 33.1819 28.5237 33.5241C28.4974 34.551 28.5237 35.5779 28.5237 36.6047C28.5237 37.7106 29.2084 38.4478 30.1827 38.4741C31.1306 38.4741 31.9206 37.7106 31.9206 36.7364C31.9206 36.6837 31.9206 36.6574 31.9206 36.6047C31.9206 35.5779 31.9206 34.551 31.9206 33.5241C31.9206 33.2082 31.9996 33.0765 32.3419 33.0765C33.8956 33.0502 33.8956 33.0502 33.8956 34.6037C33.9219 35.5252 33.9219 36.4467 33.8429 37.3419C33.5796 39.3167 31.631 40.5015 30.051 40.4225C28.1287 40.3172 26.6278 38.7637 26.5751 36.8417C26.5488 36.2624 26.5488 35.7358 26.5488 35.1829Z" fill="white"/>
<path d="M39.5563 39.9769C39.5563 38.6604 39.5299 37.3439 39.5299 36.0275C39.5563 35.9485 39.5299 35.8432 39.4509 35.7905L39.0033 35.1059L38.8979 35.0006L38.7663 34.8953C37.9236 34.395 36.844 34.6847 36.3437 35.5272C36.1594 35.8695 36.0804 36.2644 36.133 36.633C35.9487 37.265 36.054 37.9495 36.054 38.5814C36.0277 39.8453 36.054 39.8453 34.7637 39.8189C34.4214 39.8189 34.2898 39.7136 34.2898 39.345C34.3161 38.1338 34.2898 36.9227 34.2898 35.7115C34.3161 35.1849 34.5267 34.711 34.8427 34.2897L34.9481 34.1581C35.0271 33.9737 35.1324 33.8421 35.2904 33.7368L35.3957 33.6315C35.4484 33.4998 35.58 33.4208 35.6854 33.3945L35.817 33.2892C36.0804 33.0522 36.4227 32.8942 36.7913 32.8416C36.8703 32.8679 36.9757 32.8416 37.0283 32.7626L37.239 32.7363C37.2653 32.7363 37.2917 32.7363 37.318 32.7363L37.5813 32.6836C37.713 32.7889 37.871 32.7889 38.0026 32.6836C38.6873 32.6836 39.3456 32.8942 39.8722 33.3155L40.0039 33.4208L40.2146 33.5788C40.2146 33.8684 40.3462 34.0001 40.6096 33.9737C40.8992 34.237 41.1099 34.5793 41.1889 34.9479C41.1625 35.0269 41.2152 35.1323 41.2679 35.1849L41.2942 35.3429L41.3732 35.5272L41.4522 36.1854L41.4259 36.2118C41.4259 36.2381 41.4522 36.2644 41.4522 36.2908C41.4785 37.5019 41.5049 38.7131 41.4522 39.9242L39.5563 39.9769Z" fill="white"/>
<path d="M41.7689 33.4988C41.7689 32.4983 41.7689 31.4714 41.7689 30.4709C41.7689 30.1549 41.8479 30.0759 42.1639 30.0496C43.7439 29.997 43.7439 29.997 43.7439 31.5241C43.7439 32.7089 43.7439 32.7089 44.9288 32.7089C45.1922 32.7089 45.4818 32.7089 45.7452 32.7089C46.5088 32.7089 46.4298 32.6036 46.4298 33.4198C46.4298 34.5783 46.4298 34.5783 45.2975 34.5783C44.8762 34.5783 44.4549 34.5783 44.0335 34.5783C43.7965 34.5783 43.7176 34.6573 43.7176 34.8943C43.7439 35.4472 43.7176 36.0001 43.7702 36.553C43.8229 37.4482 44.5602 38.1328 45.4555 38.1065C45.6398 38.1328 45.8242 38.1328 46.0085 38.1065C46.3508 38.0538 46.4561 38.2118 46.4298 38.5541C46.4298 38.7121 46.4298 38.8964 46.4298 39.0544C46.4298 40.1602 46.4298 40.1602 45.2975 40.0812C43.2962 40.0022 41.7163 38.3171 41.7689 36.3161C41.7426 35.3682 41.7689 34.4203 41.7689 33.4988Z" fill="#FAFAFA"/>
<path d="M53.0904 45.2678C53.0904 45.6891 53.1168 46.1108 53.0905 46.5321C53.0378 47.3483 52.3795 47.9539 51.5632 47.9539C50.7469 47.9275 50.0886 47.322 50.0359 46.5321C49.9833 45.7422 50.5363 45.0576 51.2999 44.926C51.3526 44.926 51.4052 44.926 51.4579 44.8996C51.7739 44.8206 52.1689 45.005 52.4059 44.7943C52.6165 44.5837 52.4849 44.2151 52.4849 43.8991C52.4849 43.6621 52.6165 43.6358 52.8009 43.6358C53.0378 43.6358 53.0642 43.7675 53.0642 43.9518C53.0905 44.3994 53.0904 44.8465 53.0904 45.2678ZM52.5112 46.1371C52.4322 45.9002 52.6165 45.6369 52.3532 45.5052C51.8529 45.3999 51.3262 45.5052 50.9049 45.7685C50.6416 46.0318 50.5626 46.4004 50.7206 46.7427C50.8523 47.1113 51.1946 47.3483 51.5632 47.322C51.9319 47.3483 52.3005 47.085 52.4059 46.7427C52.4585 46.5584 52.5112 46.3478 52.5112 46.1371Z" fill="#FAFAFA"/>
<path d="M44.8747 47.9797C44.6377 47.9797 44.401 47.9805 44.164 47.9805C43.9007 48.0069 43.7954 47.9016 43.7954 47.6383C43.7954 47.3486 43.9534 47.3486 44.1377 47.3486C44.5854 47.3486 45.0594 47.3486 45.507 47.3486C45.7177 47.3486 45.8757 47.296 45.902 47.059C45.9283 46.7957 45.744 46.7167 45.507 46.7167C45.112 46.7167 44.7434 46.7167 44.3484 46.7167C43.8744 46.7167 43.4794 46.3218 43.4531 45.8478C43.4267 45.3739 43.7427 44.979 44.2167 44.9263C44.796 44.8736 45.3753 44.9 45.981 44.8736C46.218 44.8736 46.218 45.0316 46.218 45.2159C46.218 45.4266 46.139 45.5056 45.9283 45.5056C45.4807 45.5056 45.0067 45.5056 44.559 45.5056C44.322 45.5056 44.085 45.5319 44.1114 45.8478C44.1377 46.1111 44.3484 46.1375 44.559 46.1375C44.9277 46.1375 45.2963 46.1375 45.665 46.1375C46.139 46.1375 46.534 46.5324 46.534 47.0064C46.5603 47.4803 46.1917 47.9016 45.7177 47.9279C45.4543 47.9542 45.1643 47.9534 44.8747 47.9797Z" fill="#FAFAFA"/>
<path d="M32.4998 44.9244C32.6315 44.9244 32.7632 44.9507 32.8948 44.9771C33.6585 45.214 33.7375 45.53 33.1845 46.0829C32.8685 46.3989 32.5525 46.7148 32.2629 47.0044C32.1839 47.0834 32.0785 47.1624 32.1575 47.2677C32.2102 47.3204 32.3155 47.3204 32.3945 47.3467C32.6315 47.3731 32.8685 47.2677 33.0265 47.0834C33.2635 46.8201 33.3688 46.9781 33.5532 47.1361C33.7901 47.3731 33.5532 47.452 33.4215 47.5574C32.9212 48.0313 32.1839 48.1103 31.6045 47.7417C30.9989 47.3731 30.7356 46.6622 30.9199 45.9776C31.1306 45.3193 31.7889 44.8717 32.4998 44.9244ZM31.5519 46.8201C31.9732 46.4515 32.3682 46.0566 32.7368 45.609C31.8942 45.3983 31.4202 45.8459 31.5519 46.8201Z" fill="#FAFAFA"/>
<path d="M41.7411 44.9255C42.5574 44.8992 43.2419 45.5308 43.2946 46.347C43.2946 46.3734 43.2946 46.3997 43.2946 46.426C43.2946 47.2686 42.6363 47.9795 41.7937 48.0058C40.951 48.0058 40.2664 47.3212 40.2137 46.4787C40.2137 45.6098 40.8985 44.9255 41.7411 44.9255ZM42.7153 46.426C42.689 45.9258 42.294 45.5308 41.7937 45.5045C41.267 45.5045 40.8457 45.9521 40.872 46.4523C40.8984 46.9526 41.2933 47.3476 41.7937 47.3476C42.294 47.3476 42.689 46.9263 42.7153 46.426Z" fill="#FAFAFA"/>
<path d="M46.7991 45.8732C46.7991 45.6626 46.7991 45.4256 46.7991 45.215C46.7728 44.978 46.8518 44.899 47.1151 44.899C47.3784 44.899 47.4311 45.0307 47.4048 45.2413C47.4048 45.6363 47.3784 46.0049 47.4048 46.3998C47.3784 46.9001 47.7734 47.3477 48.3001 47.374H48.3264C48.853 47.374 49.248 46.9528 49.248 46.4262C49.248 46.3998 49.248 46.3735 49.248 46.3472C49.248 45.9522 49.248 45.5836 49.248 45.1887C49.248 44.978 49.327 44.899 49.5377 44.899C49.722 44.899 49.9063 44.899 49.88 45.1887C49.8537 45.6626 49.9063 46.1365 49.8537 46.6105C49.7747 47.4004 49.0637 48.0059 48.2737 47.9796C47.4574 47.9533 46.7991 47.2424 46.8254 46.4262C46.7728 46.2419 46.7991 46.0575 46.7991 45.8732Z" fill="#FAFAFA"/>
<path d="M36.9749 47.0582C36.9749 47.2688 36.9749 47.5057 36.9749 47.7163C36.9749 47.927 36.8696 48.006 36.6589 48.006C36.4482 48.006 36.3166 47.9796 36.3166 47.7163C36.3429 47.3214 36.3166 46.9001 36.3166 46.5052C36.3429 46.0049 35.948 45.5574 35.4476 45.5311L35.4213 45.531C34.9209 45.531 34.4996 45.9259 34.4996 46.4262C34.4733 46.8211 34.4733 47.2424 34.4996 47.6373C34.4996 47.8743 34.447 48.006 34.1573 48.006C33.894 48.006 33.894 47.8216 33.894 47.6373C33.894 47.2424 33.894 46.8738 33.894 46.4788C33.8413 45.6626 34.4733 44.9517 35.2896 44.9254H35.3159C36.1586 44.8727 36.8959 45.5046 36.9485 46.3472C36.9485 46.3735 36.9485 46.3735 36.9485 46.3998C37.0012 46.6105 36.9749 46.8212 36.9749 47.0582Z" fill="#FAFAFA"/>
<path d="M29.3128 44.9002C29.6814 44.8739 30.0501 45.0056 30.3134 45.2688C30.4187 45.3742 30.7347 45.4532 30.4714 45.7164C30.2871 45.9008 30.1818 45.9797 29.9448 45.7691C29.6288 45.4268 29.0758 45.4005 28.7335 45.7428C28.7071 45.7691 28.6808 45.7954 28.6545 45.8481C28.3648 46.1904 28.3648 46.717 28.6808 47.0593C29.0495 47.4542 29.4971 47.4805 29.9974 47.0856C30.2344 46.9013 30.3134 46.9803 30.4977 47.1382C30.7347 47.3489 30.5504 47.4542 30.4187 47.5595C29.9184 48.0335 29.1811 48.1124 28.5755 47.7702C27.9962 47.4279 27.6802 46.7433 27.8645 46.0851C27.9962 45.3742 28.6018 44.9002 29.3128 44.9002Z" fill="#FAFAFA"/>
<path d="M37.1862 46.4274C37.1599 45.8218 37.5022 45.2689 38.0552 45.0319C38.6082 44.7686 39.2402 44.8476 39.6878 45.2689C39.8195 45.3742 40.0828 45.4795 39.8195 45.7428C39.6352 45.9271 39.5035 45.9798 39.2928 45.7691C39.0032 45.4795 38.5555 45.4268 38.2395 45.6375C37.9235 45.7955 37.7392 46.1377 37.7655 46.5064C37.7919 46.875 38.0552 47.1909 38.4239 47.2962C38.7399 47.4016 39.1085 47.3226 39.3192 47.0593C39.5298 46.8486 39.6352 46.9276 39.7932 47.1119C40.0038 47.3226 39.8722 47.4279 39.7142 47.5595C39.2928 47.9808 38.6345 48.1125 38.0815 47.8755C37.5549 47.6385 37.1599 47.0593 37.1862 46.4274Z" fill="#FAFAFA"/>
<path d="M34.2368 35.7877C34.2368 36.9989 34.2631 38.21 34.2368 39.4212C34.2368 39.7898 34.3684 39.8951 34.7108 39.8951C36.0011 39.9215 35.9747 39.9215 36.0011 38.6576C36.0011 37.9994 35.8957 37.3412 36.0801 36.7093C36.0801 37.7098 36.0801 38.7366 36.1064 39.7372C36.1064 40.0268 36.0274 40.1058 35.7377 40.1058C34.1315 40.1584 34.1315 40.1848 34.1315 38.5787C34.1578 37.6308 34.0261 36.7092 34.2368 35.7877Z" fill="#FAFAFA"/>
<path d="M39.5562 39.9752H41.4521C40.8465 40.1332 40.1882 40.1332 39.5562 39.9752Z" fill="#FAFAFA"/>
<path d="M40.6093 34.0498C40.3197 34.0498 40.188 33.9181 40.2144 33.6548C40.3723 33.7338 40.504 33.8655 40.6093 34.0498Z" fill="#FAFAFA"/>
<path d="M37.9769 32.7598C37.8453 32.8651 37.6873 32.8651 37.5556 32.7598H37.9769Z" fill="#FAFAFA"/>
<path d="M41.2928 35.2354C41.2138 35.1828 41.1875 35.1038 41.2138 34.9985C41.2665 35.0774 41.2928 35.1564 41.2928 35.2354Z" fill="#FAFAFA"/>
<path d="M39.4497 35.8152C39.5287 35.8679 39.555 35.9732 39.5287 36.0522C39.4497 35.9732 39.4234 35.8942 39.4497 35.8152Z" fill="#FAFAFA"/>
<path d="M37.0029 32.8402C36.9502 32.9192 36.8449 32.9455 36.7659 32.9192C36.8185 32.8665 36.9239 32.8402 37.0029 32.8402Z" fill="#FAFAFA"/>
<path d="M41.4778 36.3437C41.4778 36.3174 41.4515 36.2911 41.4515 36.2647L41.4778 36.2384C41.5042 36.2647 41.5042 36.3174 41.4778 36.3437Z" fill="#FAFAFA"/>
<path d="M37.2924 32.8155C37.266 32.8155 37.2397 32.8418 37.2134 32.8155C37.2397 32.7892 37.266 32.7892 37.2924 32.8155Z" fill="#FAFAFA"/>
<path d="M20.9126 37.0011C20.9126 36.6588 20.9389 36.3165 20.9916 35.9742C21.2286 35.158 22.0186 34.6314 22.8875 34.7368C23.7302 34.8684 24.3622 35.6056 24.3622 36.4745C24.3358 37.3434 23.6512 38.0543 22.7559 38.1333C22.5189 38.1596 22.2819 38.1333 22.0449 38.1333C20.9126 38.1069 20.9126 38.1069 20.9126 37.0011Z" fill="#7F2684"/>
<path d="M50.3259 38.4499C49.4043 38.4762 48.6671 37.7391 48.6408 36.8176C48.6408 36.7912 48.6408 36.7649 48.6408 36.7386C48.6671 35.817 49.4044 35.0798 50.326 35.0535C51.274 35.0535 52.0376 35.817 52.0376 36.7649C52.064 37.7128 51.3002 38.4499 50.3259 38.4499C50.3522 38.4499 50.3522 38.4499 50.3259 38.4499Z" fill="#7F2684"/>
<path d="M52.5109 46.135C52.4845 46.3457 52.4582 46.5563 52.4055 46.7406C52.3002 47.1092 51.9579 47.3462 51.5629 47.3199C51.1943 47.3462 50.8256 47.0829 50.7203 46.7406C50.5623 46.3983 50.6413 46.0297 50.9046 45.7664C51.3259 45.4768 51.8526 45.3715 52.3529 45.5031C52.6162 45.6611 52.4319 45.8981 52.5109 46.135Z" fill="#7F2684"/>
<path d="M31.5511 46.8215C31.4458 45.8473 31.8934 45.3997 32.7361 45.6103C32.3674 46.0579 31.9724 46.4529 31.5511 46.8215Z" fill="#7F2684"/>
<path d="M42.7153 46.426C42.689 46.9263 42.294 47.3212 41.7937 47.3476C41.2933 47.3476 40.872 46.9526 40.872 46.4523C40.872 45.9258 41.2933 45.5045 41.7937 45.5045C42.294 45.5308 42.689 45.9521 42.7153 46.426Z" fill="#7F2684"/>
</svg>
