<svg width="11" height="11" viewBox="0 0 11 11" fill="none" xmlns="http://www.w3.org/2000/svg">
<path d="M10.8852 4.38231C10.8415 4.16344 10.5356 4.13912 10.4482 4.3434C10.0113 5.3891 8.92374 6.07488 7.72456 5.93383C6.37972 5.77819 5.36502 4.59631 5.41357 3.23934C5.45726 2.03314 6.30204 1.06039 7.39927 0.788025C7.61775 0.734524 7.63717 0.432974 7.4284 0.350291C6.94775 0.170334 6.43798 0.0584683 5.90392 0.0146949C2.91323 -0.204172 0.272104 2.04773 0.0196432 5.03891C-0.237673 8.09819 2.0636 10.7781 5.12712 10.9872C8.12267 11.1915 10.7492 8.92015 10.9823 5.92897C11.026 5.40369 10.9871 4.88327 10.8852 4.38231Z" fill="black" fill-opacity="0.6"/>
<path d="M8.04508 4.74236C8.80659 4.74236 9.42391 4.12611 9.42391 3.36593C9.42391 2.60575 8.80659 1.9895 8.04508 1.9895C7.28358 1.9895 6.66626 2.60575 6.66626 3.36593C6.66626 4.12611 7.28358 4.74236 8.04508 4.74236Z" fill="black" fill-opacity="0.6"/>
</svg>
