<svg width="12" height="12" viewBox="0 0 12 12" fill="none" xmlns="http://www.w3.org/2000/svg">
<path d="M11.8747 4.7807C11.8271 4.54194 11.4934 4.51541 11.3981 4.73825C10.9214 5.87902 9.73499 6.62714 8.42679 6.47327C6.95969 6.30349 5.85275 5.01416 5.90571 3.53382C5.95338 2.21797 6.87495 1.15679 8.07193 0.859664C8.31027 0.801299 8.33145 0.472336 8.10371 0.382136C7.57937 0.185819 7.02325 0.0637837 6.44064 0.0160308C3.17807 -0.222733 0.296841 2.23388 0.021429 5.49699C-0.259279 8.83438 2.25121 11.7579 5.59322 11.9861C8.86109 12.2089 11.7264 9.73108 11.9807 6.46797C12.0283 5.89493 11.986 5.32721 11.8747 4.7807Z" fill="black" fill-opacity="0.6"/>
<path d="M8.77566 5.17381C9.60639 5.17381 10.2798 4.50153 10.2798 3.67225C10.2798 2.84296 9.60639 2.17068 8.77566 2.17068C7.94493 2.17068 7.27148 2.84296 7.27148 3.67225C7.27148 4.50153 7.94493 5.17381 8.77566 5.17381Z" fill="black" fill-opacity="0.6"/>
</svg>
