<svg width="92" height="100" viewBox="0 0 92 102" fill="none" xmlns="http://www.w3.org/2000/svg">
<g filter="url(#filter0_d_1781_12631)">
<rect x="14" y="14" width="64" height="64" rx="32" fill="white"/>
</g>
<path d="M49.5376 30.5179C48.4766 30.1831 47.3399 30 46.1652 30C42.736 30 39.6667 31.5473 37.6143 33.985L42.8876 38.4183L49.5376 30.5179Z" fill="#1A73E8"/>
<path d="M37.6146 33.9849C35.9239 35.9929 34.9978 38.5341 35 41.1591C35 43.2558 35.4168 44.9609 36.1052 46.4829L42.8879 38.4182L37.6146 33.9849Z" fill="#EA4335"/>
<path d="M46.1659 36.8963C46.9799 36.8971 47.7769 37.1304 48.4628 37.5689C49.1487 38.0074 49.695 38.6327 50.0374 39.3713C50.3798 40.1099 50.504 40.9309 50.3955 41.7377C50.2869 42.5445 49.95 43.3035 49.4246 43.9253L56.0683 36.0248C54.7046 33.3975 52.3536 31.419 49.5319 30.5242L42.8945 38.4246C43.2945 37.9457 43.7948 37.5605 44.3601 37.2964C44.9254 37.0323 45.5419 36.8957 46.1659 36.8963Z" fill="#4285F4"/>
<path d="M46.1658 45.4346C43.8102 45.4346 41.8966 43.521 41.8966 41.1654C41.8939 40.1624 42.2475 39.191 42.8945 38.4246L36.1055 46.4892C37.2675 49.0596 39.1937 51.1247 41.1767 53.7266L49.4245 43.9252C49.0238 44.3987 48.5247 44.779 47.9618 45.0397C47.399 45.3004 46.7861 45.4351 46.1658 45.4346Z" fill="#FBBC04"/>
<path d="M49.26 56.3983C52.9861 50.5755 57.3247 47.9293 57.3247 41.1592C57.3247 39.3025 56.87 37.5532 56.068 36.0122L41.1826 53.7269C41.8142 54.5542 42.452 55.432 43.0709 56.4046C45.3318 59.9033 44.7066 62 46.1654 62C47.6243 62 46.9991 59.897 49.26 56.3983Z" fill="#34A853"/>
<defs>
<filter id="filter0_d_1781_12631" x="0" y="0" width="92" height="92" filterUnits="userSpaceOnUse" color-interpolation-filters="sRGB">
<feFlood flood-opacity="0" result="BackgroundImageFix"/>
<feColorMatrix in="SourceAlpha" type="matrix" values="0 0 0 0 0 0 0 0 0 0 0 0 0 0 0 0 0 0 127 0" result="hardAlpha"/>
<feOffset/>
<feGaussianBlur stdDeviation="7"/>
<feComposite in2="hardAlpha" operator="out"/>
<feColorMatrix type="matrix" values="0 0 0 0 0 0 0 0 0 0 0 0 0 0 0 0 0 0 0.2 0"/>
<feBlend mode="normal" in2="BackgroundImageFix" result="effect1_dropShadow_1781_12631"/>
<feBlend mode="normal" in="SourceGraphic" in2="effect1_dropShadow_1781_12631" result="shape"/>
</filter>
</defs>
</svg>
