<svg width="236" height="88" viewBox="0 0 236 88" fill="none" xmlns="http://www.w3.org/2000/svg">
<g clip-path="url(#clip0_13362_50288)">
<path d="M312.275 6.09729C289.892 16.3434 264.99 22.0633 238.761 22.0633C233.008 22.0633 227.305 21.7815 221.684 21.2509C196.865 53.581 159.329 75.6483 116.554 79.9589C132.769 85.1649 150.044 88 168 88C229.311 88 282.929 55.156 312.275 6.09729Z" fill="#2169FF"/>
<path d="M114.763 -28.703C97.9516 -1.59553 72.1705 19.3609 41.5648 30.0381C41.4321 30.0879 41.2995 30.1376 41.1669 30.1873C41.4156 30.4692 41.6643 30.7511 41.9129 31.0329C61.6923 53.4815 87.3739 70.5916 116.537 79.9756C159.312 75.6649 196.848 53.5976 221.668 21.2676C180.169 17.2885 142.849 -1.03184 114.747 -28.6864" fill="#23D3EF"/>
<path d="M290.837 -98.6519C286.626 -98.1048 282.349 -97.8229 277.988 -97.8229C268.24 -97.8229 258.822 -99.2488 249.919 -101.901C251.959 -91.9704 253.036 -81.6911 253.036 -71.1465C253.036 -36.3793 241.348 -4.34777 221.701 21.251C227.321 21.7981 233.008 22.0634 238.778 22.0634C265.007 22.0634 289.909 16.3434 312.291 6.09731C313.27 4.43936 314.248 2.76485 315.176 1.09032C315.972 -5.01093 316.403 -11.2282 316.403 -17.545C316.403 -47.7197 306.953 -75.6893 290.854 -98.6519" fill="#2100FF"/>
<path d="M249.903 -101.902C221.452 -110.374 198.407 -131.38 187.166 -158.521C183.12 -158.869 179.009 -159.068 174.864 -159.068C158.168 -159.068 142.186 -156.166 127.314 -150.877C132.802 -135.856 135.786 -119.625 135.786 -102.697C135.786 -75.5567 128.093 -50.2233 114.763 -28.7362C142.865 -1.08163 180.186 17.2387 221.684 21.2178C241.348 -4.38095 253.02 -36.4125 253.02 -71.1797C253.02 -81.7077 251.942 -92.0036 249.903 -101.935" fill="#FF80FF"/>
<path d="M33.3745 -17.545C33.3745 -52.8593 46.3065 -85.1396 67.6941 -109.926C63.9637 -124.234 61.9576 -139.255 61.9576 -154.74C61.9576 -177.438 66.2351 -199.124 74.0274 -219.069C73.9777 -219.102 73.928 -219.152 73.8782 -219.185C29.296 -188.96 0 -137.912 0 -80C0 -37.8383 15.535 0.692398 41.1835 30.1873C41.3161 30.1376 41.4487 30.0879 41.5814 30.0381C36.2759 15.1663 33.3745 -0.849457 33.3745 -17.545Z" fill="#E774FF"/>
<path d="M67.6941 -109.926C46.3065 -85.1397 33.3745 -52.8594 33.3745 -17.5451C33.3745 -0.849548 36.2759 15.1662 41.5814 30.038C72.1871 19.3609 97.9516 -1.59561 114.763 -28.7031C92.3975 -50.7041 75.8512 -78.6239 67.6775 -109.926" fill="#FF80FF"/>
</g>
<defs>
<clipPath id="clip0_13362_50288">
<rect width="336" height="336" fill="white" transform="translate(0 -248)"/>
</clipPath>
</defs>
</svg>
