<svg xmlns="http://www.w3.org/2000/svg" xmlns:xlink="http://www.w3.org/1999/xlink" width="250" height="250" viewBox="0 0 250 250"><defs><path id="a" d="M0 0h240v240H0z"/><path id="c" d="M142.047 56.338c.202.173.39.362.561.565L176 96.303v69.64c0 5.554-4.503 10.057-10.057 10.057H10.057C4.503 176 0 171.497 0 165.943v-25.875c.096-.13.2-.255.309-.375l55.206-60.746a5.029 5.029 0 0 1 6.993-.437l27.24 23.331a5.029 5.029 0 0 0 7.087-.544l38.122-44.418a5.029 5.029 0 0 1 7.091-.541zM164.985 0C171.069 0 176 5.012 176 11.194V68.17c0 1.38-1.101 2.5-2.461 2.5-1.36 0-2.462-1.12-2.462-2.5V11.194c0-3.422-2.728-6.196-6.092-6.196H11.015c-3.364 0-6.092 2.774-6.092 6.196v101.964c0 1.38-1.102 2.5-2.462 2.5S0 114.537 0 113.157V11.194C0 5.012 4.931 0 11.015 0h153.97zM40.225 53.475c1.188 0 2.17.61 2.302 1.4l1.174 13.154c0 1.304-1.537 2.371-3.473 2.371-1.932 0-3.47-1.067-3.47-2.37l1.174-13.156c.121-.748 1.01-1.334 2.11-1.394l.183-.005zm9.567-5.376l12.097 5.567c1.138.652 1.301 2.506.34 4.165-.971 1.652-2.676 2.438-3.81 1.79l-10.926-7.579c-.588-.485-.664-1.534-.17-2.508l.091-.169.002-.001c.592-1.017 1.618-1.546 2.376-1.265zm-16.851 1.104l.102.164-.003-.002c.599 1.02.55 2.165-.076 2.679l-10.927 7.575c-1.133.652-2.838-.134-3.804-1.79-.97-1.656-.799-3.51.335-4.161l12.096-5.572c.717-.265 1.672.193 2.277 1.107zM21.909 30.828l.128.067 10.927 7.583c.592.481.667 1.53.17 2.504l-.094.17c-.558.956-1.504 1.485-2.247 1.308l-.129-.039-12.096-5.575c-1.134-.652-1.305-2.502-.335-4.161.93-1.595 2.545-2.383 3.676-1.857zm40.32 1.857c.926 1.599.808 3.373-.218 4.084l-.122.078-12.097 5.571c-.716.265-1.671-.196-2.276-1.107l-.103-.165c-.558-.956-.546-2.03-.019-2.577l.099-.09 10.926-7.584c1.134-.652 2.84.13 3.81 1.79zm-22.001-12.57c1.867 0 3.363.991 3.467 2.232l.006.138-1.174 13.155c-.125.749-1.013 1.338-2.117 1.398l-.185.004-.183-.004c-1.04-.057-1.89-.585-2.083-1.275l-.027-.123-1.174-13.155c0-1.304 1.538-2.37 3.47-2.37z"/></defs><g fill="none" fill-rule="evenodd"><g transform="translate(5 5)"><mask id="b" fill="#fff"><use xlink:href="#a"/></mask><path d="M-5-5h250v250H-5z" mask="url(#b)"/></g><g transform="translate(37 37)"><mask id="d" fill="#fff"><use xlink:href="#c"/></mask><path fill="#EAEAEA" d="M-5.001-5H181v186H-5.001z" mask="url(#d)"/></g></g></svg>