<svg width="21" height="22" viewBox="0 0 21 22" fill="none" xmlns="http://www.w3.org/2000/svg">
<path d="M10.4957 4.15969C10.5412 3.23185 10.8128 2.32922 11.287 1.53039C10.7955 1.4561 10.299 1.41901 9.8019 1.41944C7.91327 1.41821 6.0648 1.96472 4.48047 2.99275C4.95165 2.91689 5.42815 2.87889 5.9054 2.87912C7.52399 2.87682 9.11201 3.31984 10.4957 4.15969Z" fill="#00A7E3"/>
<path d="M18.4703 14.8763C18.47 15.2402 18.4459 15.6037 18.3981 15.9644C19.5284 13.9109 19.8873 11.521 19.41 9.22607C18.6808 9.7142 17.8486 10.0271 16.9785 10.1404C17.9518 11.5277 18.4728 13.1817 18.4703 14.8763Z" fill="#00A7E3"/>
<path d="M10.4954 4.45259C10.4954 4.35501 10.4954 4.25743 10.5034 4.16119C9.1181 3.31922 7.52758 2.87522 5.90648 2.87794C5.42919 2.87816 4.95269 2.9166 4.48154 2.99291C4.43075 3.02632 4.37995 3.0584 4.3305 3.09316L4.31445 3.10385H4.32381C5.75295 4.07267 6.84151 5.46611 7.43567 7.08724C8.3269 6.76999 9.26599 6.60812 10.212 6.6087C10.4535 6.6087 10.6928 6.61939 10.9298 6.64078C10.6431 5.94688 10.4955 5.2034 10.4954 4.45259Z" fill="#008CC9"/>
<path d="M18.2289 16.2568C16.8824 16.8746 15.4182 17.1938 13.9367 17.1925C13.6012 17.1925 13.2684 17.1765 12.9409 17.1458C12.2059 18.1057 11.2821 18.9051 10.2264 19.4945C9.17078 20.0839 8.00562 20.451 6.80273 20.5731C8.91439 21.2503 11.1931 21.1928 13.2679 20.4098C15.3427 19.6267 17.0913 18.1644 18.2289 16.2608" fill="#31BBED"/>
<path d="M6.69863 14.2241C5.70708 15.823 4.19732 17.0337 2.42116 17.6541L2.39844 17.6635L2.44255 17.7129C3.61095 19.04 5.11604 20.0269 6.79888 20.5695C8.002 20.4476 9.16741 20.0806 10.2233 19.4912C11.2792 18.9017 12.2032 18.1023 12.9384 17.1422C10.5841 16.9156 8.37969 15.8851 6.69596 14.2241" fill="#00AAE4"/>
<path d="M16.9783 10.1401C16.1772 10.246 15.3628 10.1818 14.5882 9.95166C14.8455 11.1981 14.8315 12.4854 14.5474 13.726C14.2632 14.9666 13.7155 16.1316 12.9414 17.1418C13.2689 17.1726 13.6017 17.1886 13.9373 17.1886C15.4191 17.1897 16.8837 16.8705 18.2308 16.2529C18.2869 16.1567 18.3444 16.0577 18.3978 15.9602C18.4456 15.5994 18.4697 15.236 18.47 14.8721C18.4725 13.1774 17.9515 11.5234 16.9783 10.1361" fill="#008CC9"/>
<path d="M14.5879 9.9502C13.7704 9.70579 13.0176 9.28245 12.3841 8.7109C11.7506 8.13936 11.2522 7.43394 10.9253 6.64585C10.6891 6.62446 10.4499 6.61377 10.2075 6.61377C9.26145 6.61319 8.32235 6.77506 7.43112 7.09231C7.85528 8.25924 8.00961 9.50709 7.88251 10.7422C7.75541 11.9773 7.35019 13.1676 6.69727 14.2237C8.38135 15.8849 10.5863 16.9154 12.941 17.1417C13.7152 16.1312 14.2629 14.966 14.547 13.7252C14.8312 12.4843 14.8451 11.1969 14.5879 9.9502Z" fill="#007FBE"/>
<path d="M1.9413 14.8764C1.93866 12.8958 2.65058 10.9807 3.94636 9.4828C3.3976 7.37214 3.52714 5.14229 4.31663 3.10938H4.30727C3.1592 3.88728 2.1891 4.89976 1.46097 6.08003C0.732839 7.2603 0.263224 8.58153 0.0831005 9.95658C-0.0970228 11.3316 0.0164396 12.7292 0.416003 14.0572C0.815566 15.3852 1.49215 16.6134 2.40113 17.6608L2.42385 17.6514C2.10489 16.761 1.94165 15.8223 1.9413 14.8764Z" fill="#31BBED"/>
<path d="M7.43057 7.09276C6.83641 5.47163 5.74785 4.0782 4.31871 3.10938C3.52654 5.14161 3.39602 7.37204 3.94577 9.4828C4.87841 8.39935 6.07577 7.57594 7.42121 7.09276" fill="#00AAE4"/>
<path d="M3.94681 9.48242C2.99357 10.5897 2.35055 11.9297 2.08313 13.3662C1.81571 14.8026 1.93342 16.2842 2.4243 17.6604C4.20077 17.0405 5.7107 15.8298 6.70176 14.2304C5.37108 12.9259 4.41899 11.285 3.94681 9.48242Z" fill="#009FDE"/>
<path d="M7.43052 7.09229C6.08508 7.57546 4.88772 8.39887 3.95508 9.48232C4.42676 11.2821 5.37637 12.9208 6.70335 14.225C7.35629 13.1686 7.76152 11.9781 7.88861 10.7428C8.01571 9.5075 7.86138 8.25944 7.4372 7.09229" fill="#008CC9"/>
<path d="M13.5999 7.34107C14.9567 7.95402 16.1235 8.92087 16.9778 10.1401C17.8479 10.0269 18.6801 9.71395 19.4093 9.22583C19.0002 7.26927 18.0036 5.4842 16.5527 4.10928C15.1018 2.73435 13.2658 1.8351 11.2901 1.53174C10.8152 2.32993 10.5426 3.2321 10.4961 4.1597C11.7816 4.94107 12.8484 6.03504 13.5973 7.33973" fill="#007FBE"/>
<path d="M10.4963 4.15967C10.4963 4.25591 10.4883 4.35349 10.4883 4.45107C10.4876 5.20326 10.6352 5.9482 10.9227 6.64327C11.8468 6.72292 12.7507 6.95838 13.5961 7.33969C12.8477 6.03516 11.7813 4.94121 10.4963 4.15967Z" fill="#006DAC"/>
<path d="M16.2276 10.1893C16.4784 10.1891 16.7288 10.1726 16.9775 10.1399C16.1231 8.92062 14.9564 7.95378 13.5996 7.34082C14.0658 8.153 14.3997 9.03423 14.5888 9.95142C15.1207 10.1093 15.6727 10.1894 16.2276 10.1893Z" fill="#006DAC"/>
<path d="M14.589 9.95034C14.4012 9.0334 14.0677 8.15247 13.6012 7.34109C12.7558 6.9596 11.8518 6.72455 10.9277 6.646C11.2547 7.43409 11.753 8.1395 12.3865 8.71105C13.02 9.28259 13.7728 9.70593 14.5903 9.95034" fill="#005B98"/>
<path d="M18.8347 4.32826C19.2628 4.32853 19.6814 4.20179 20.0375 3.96409C20.3936 3.7264 20.6712 3.38842 20.8351 2.99292C20.9991 2.59743 21.0421 2.16218 20.9586 1.74226C20.8752 1.32233 20.669 0.936599 20.3663 0.633859C20.0635 0.33112 19.6778 0.12498 19.2579 0.041519C18.838 -0.0419419 18.4027 0.00102792 18.0072 0.164992C17.6117 0.328955 17.2737 0.606541 17.036 0.962635C16.7983 1.31873 16.6716 1.73733 16.6719 2.16547C16.6722 2.73897 16.9002 3.28888 17.3057 3.6944C17.7113 4.09993 18.2612 4.32791 18.8347 4.32826Z" fill="#007FBE"/>
</svg>
