<svg width="40" height="40" viewBox="0 0 40 40" fill="none" xmlns="http://www.w3.org/2000/svg">
<path d="M20 1C30.4934 1 39 9.50659 39 20C39 30.4934 30.4934 39 20 39C9.50659 39 1 30.4934 1 20C1 9.50659 9.50659 1 20 1Z" stroke="black" stroke-width="2"/>
<circle cx="20" cy="20" r="10" fill="black"/>
<path d="M19.7313 12.9416C19.23 12.9416 18.8235 13.3128 18.8235 13.7707V19.5741C18.8235 19.8031 18.924 20.0113 19.0882 20.1613L23.154 23.8748C23.5084 24.1985 24.0854 24.1987 24.4401 23.8748C24.7944 23.5512 24.7944 23.0241 24.4401 22.7003L20.639 19.2283V13.7703C20.639 13.3125 20.2327 12.9412 19.7312 12.9412L19.7313 12.9416Z" fill="white"/>
</svg>
