<svg width="40" height="40" viewBox="0 0 40 40" fill="none" xmlns="http://www.w3.org/2000/svg">
<path d="M20 1C30.4934 1 39 9.50659 39 20C39 30.4934 30.4934 39 20 39C9.50659 39 1 30.4934 1 20C1 9.50659 9.50659 1 20 1Z" stroke="white" stroke-width="2"/>
<path fill-rule="evenodd" clip-rule="evenodd" d="M20 12C21.1046 12 22 11.1046 22 10C22 8.89543 21.1046 8 20 8C18.8954 8 18 8.89543 18 10C18 11.1046 18.8954 12 20 12ZM27.0461 21.5474C26.9341 21.3292 26.7629 21.1458 26.5516 21.0177C26.3403 20.8897 26.0971 20.8218 25.849 20.8217H21.9141V15.0615C21.9141 14.5148 21.6938 13.9904 21.3017 13.6038C20.9095 13.2172 20.3777 13 19.8231 13H14.0671C13.7845 13.0013 13.5139 13.1126 13.314 13.3096C13.1142 13.5066 13.0013 13.7735 13 14.0521V17.3616C13 17.6415 13.1126 17.91 13.3132 18.1082C13.5137 18.3064 13.7858 18.418 14.0697 18.4187C14.3536 18.4187 14.626 18.3077 14.827 18.11C15.028 17.9122 15.1413 17.644 15.1419 17.3641V15.1042H17.8824V21.4444C17.8824 21.9825 18.0992 22.4986 18.4851 22.879C18.871 23.2595 19.3945 23.4733 19.9403 23.4733H25.0213L27.4485 28.2592C27.5271 28.4168 27.6367 28.5575 27.7709 28.673C27.9051 28.7885 28.0613 28.8766 28.2303 28.9321C28.3994 28.9876 28.5779 29.0094 28.7556 28.9963C28.9333 28.9832 29.1065 28.9354 29.2653 28.8557C29.4241 28.776 29.5652 28.6661 29.6805 28.5321C29.7958 28.3982 29.8829 28.2431 29.9369 28.0756C29.9908 27.9082 30.0105 27.7319 29.9947 27.557C29.979 27.382 29.9281 27.2119 29.8451 27.0565L27.0461 21.5474ZM22.3503 25.0647C22.5745 24.9173 22.8532 24.8569 23.1259 24.8966C23.261 24.9168 23.3904 24.9611 23.5068 25.0271C23.6232 25.0931 23.7242 25.1794 23.8041 25.2811C23.884 25.3828 23.9412 25.4979 23.9725 25.6199C24.0037 25.7418 24.0084 25.8682 23.9863 25.9918C23.7515 27.2967 23.0503 28.4935 21.9925 29.3949C20.9347 30.2962 19.5801 30.8513 18.1406 30.973C17.9341 31 17.7252 31 17.5187 31C15.8936 30.997 14.3281 30.4401 13.1277 29.4379C11.9273 28.4358 11.1781 27.0604 11.0265 25.5802C10.9245 24.5454 11.1178 23.504 11.5875 22.558C12.0571 21.612 12.7871 20.7936 13.706 20.1829C13.8169 20.1091 13.9426 20.056 14.0759 20.0266C14.2092 19.9972 14.3476 19.9921 14.4831 20.0116C14.6185 20.0312 14.7485 20.0749 14.8655 20.1404C14.9825 20.2058 15.0842 20.2918 15.1649 20.3932C15.2457 20.4946 15.3037 20.6096 15.3359 20.7316C15.368 20.8536 15.3735 20.9802 15.3522 21.1041C15.3308 21.228 15.283 21.3469 15.2115 21.454C15.1399 21.561 15.046 21.6541 14.9351 21.7279C14.3417 22.1193 13.8629 22.6386 13.5411 23.2396C13.2194 23.8407 13.0646 24.5051 13.0906 25.174C13.1165 25.8429 13.3223 26.4956 13.6898 27.0743C14.0573 27.653 14.5751 28.1399 15.1973 28.4919C15.8196 28.8439 16.5271 29.05 17.2572 29.0921C17.9874 29.1342 18.7176 29.011 19.3833 28.7333C20.0489 28.4556 20.6294 28.032 21.0734 27.5001C21.5174 26.9681 21.8112 26.3443 21.9288 25.6837C21.9746 25.4346 22.1261 25.2122 22.3503 25.0647Z" fill="white"/>
</svg>
