<svg width="40" height="40" viewBox="0 0 40 40" fill="none" xmlns="http://www.w3.org/2000/svg">
<path d="M20 1C30.4934 1 39 9.50659 39 20C39 30.4934 30.4934 39 20 39C9.50659 39 1 30.4934 1 20C1 9.50659 9.50659 1 20 1Z" stroke="white" stroke-width="2"/>
<path d="M33.0001 14.0257C33.0001 15.1568 32.0832 16.0737 30.9521 16.0737C29.821 16.0737 28.9042 15.1568 28.9042 14.0257C28.9042 12.8947 29.821 11.9778 30.9521 11.9778C32.0832 11.9778 33.0001 12.8947 33.0001 14.0257Z" fill="white"/>
<path d="M10.7397 23.9093C10.7397 24.942 9.90259 25.7792 8.86986 25.7792C7.83714 25.7792 7 24.942 7 23.9093C7 22.8766 7.83714 22.0394 8.86986 22.0394C9.90259 22.0394 10.7397 22.8766 10.7397 23.9093Z" fill="white"/>
<path d="M26.4109 29.786C26.4109 30.4745 25.8528 31.0326 25.1643 31.0326C24.4758 31.0326 23.9177 30.4745 23.9177 29.786C23.9177 29.0975 24.4758 28.5394 25.1643 28.5394C25.8528 28.5394 26.4109 29.0975 26.4109 29.786Z" fill="white"/>
<path d="M28.9931 18.2107H27.1233C26.9452 16.9641 26.5 15.8066 25.7876 14.9162L27.1233 13.4915C27.4794 13.1353 27.4794 12.5121 27.1233 12.1559C26.7671 11.7997 26.1438 11.7997 25.7876 12.1559L24.452 13.4915C23.4726 12.7792 22.4041 12.2449 21.1575 12.1559V10.197C21.1575 9.66273 20.7123 9.21753 20.178 9.21753C19.6438 9.21753 19.1986 9.66273 19.1986 10.197V12.1559C17.952 12.334 16.7945 12.7792 15.9041 13.4915L14.4794 12.1559C14.1233 11.7997 13.5 11.7997 13.0548 12.1559C12.6986 12.5121 12.6986 13.1353 13.0548 13.4915L14.3904 14.8271C13.678 15.8066 13.1438 16.8751 13.0548 18.1216H11.1849C10.6506 18.1216 10.2054 18.5668 10.2054 19.1011C10.2054 19.6353 10.6506 20.0805 11.1849 20.0805H13.1438C13.3219 21.3271 13.7671 22.4847 14.4794 23.3751L13.1438 24.7107C12.7876 25.0668 12.7876 25.6901 13.1438 26.0463C13.5 26.4025 14.1233 26.4025 14.4794 26.0463L15.815 24.7107C16.7945 25.423 17.863 25.9573 19.1096 26.0463V28.0052C19.1096 28.5394 19.5548 28.9847 20.089 28.9847C20.6233 28.9847 21.0685 28.5394 21.0685 28.0052V26.0463C22.315 25.8682 23.4726 25.423 24.363 24.7107L25.6986 26.0463C26.0548 26.4025 26.678 26.4025 27.0342 26.0463C27.3904 25.6901 27.3904 25.0668 27.0342 24.7107L25.6986 23.3751C26.4109 22.3956 26.9452 21.3271 27.0342 20.0805H28.9931C29.5274 20.0805 29.9726 19.6353 29.9726 19.1011C29.9726 18.6559 29.5274 18.2107 28.9931 18.2107ZM17.7739 23.197C17.1507 23.197 16.6164 22.6627 16.6164 22.0394C16.6164 21.4162 17.1507 20.8819 17.7739 20.8819C18.3972 20.8819 18.9315 21.4162 18.9315 22.0394C18.9315 22.6627 18.3972 23.197 17.7739 23.197ZM19.7328 18.5668C18.6643 18.5668 17.7739 17.6764 17.7739 16.6079C17.7739 15.5394 18.6643 14.649 19.7328 14.649C20.8013 14.649 21.6917 15.5394 21.6917 16.6079C21.6917 17.6764 20.8013 18.5668 19.7328 18.5668ZM23.9178 21.8614C23.2945 21.8614 22.7602 21.3271 22.7602 20.7038C22.7602 20.0805 23.2945 19.5463 23.9178 19.5463C24.5411 19.5463 25.0753 20.0805 25.0753 20.7038C25.0753 21.3271 24.5411 21.8614 23.9178 21.8614Z" fill="white"/>
</svg>
