<svg width="40" height="40" viewBox="0 0 40 40" fill="none" xmlns="http://www.w3.org/2000/svg">
<path d="M20 1C30.4934 1 39 9.50659 39 20C39 30.4934 30.4934 39 20 39C9.50659 39 1 30.4934 1 20C1 9.50659 9.50659 1 20 1Z" stroke="black" stroke-width="2"/>
<path fill-rule="evenodd" clip-rule="evenodd" d="M16.7702 17.0562L16.2256 17.2806C16.3262 18.6625 16.823 19.9862 17.6566 21.0931C17.8629 21.3301 18.0029 21.6175 18.0624 21.9261C11.0994 24.329 11.7935 19.4165 11.7935 19.4165C11.7935 19.4165 12.6479 21.0825 13.4809 19.4165C13.6756 19.0085 13.7013 18.3771 13.7361 17.5196C13.7815 16.402 13.8425 14.9003 14.3139 13.0088C14.5652 11.6324 15.2815 10.3839 16.3428 9.47221C17.4042 8.56053 18.7463 8.04084 20.1449 8C22.3235 8 25.0255 9.40976 25.9652 13.0088C26.4652 14.9475 26.5335 16.472 26.5836 17.5884C26.6212 18.4276 26.6485 19.0361 26.841 19.4165C27.674 21.0825 28.4856 19.4165 28.4856 19.4165C28.4856 19.4165 29.1797 24.3076 22.2594 21.9368C22.3143 21.6267 22.4549 21.3381 22.6653 21.1038C23.7012 19.9183 24.1283 18.0281 24.2672 15.6466C24.2378 15.5917 24.2128 15.5345 24.1924 15.4756C23.5673 14.1626 22.7817 12.9322 21.8536 11.8127C21.8536 11.8127 21.1808 15.0912 16.7702 17.0562ZM20.2731 24.0083C20.8177 24.0212 21.3613 23.9529 21.8857 23.8054V24.4462L20.4226 26.9238L18.9595 24.4462V23.9015C19.3922 23.9847 19.8327 24.0205 20.2731 24.0083ZM29.671 29.1137V30H20.9032V28.5797L22.9002 25.1196H25.7303C26.7683 25.1698 27.7496 25.6083 28.4795 26.3481C29.2094 27.0879 29.6347 28.075 29.671 29.1137ZM19.4508 28.3336V28.1733L17.5926 25.0976H14.7732C13.7694 25.161 12.8301 25.6142 12.1558 26.3604C11.4814 27.1066 11.1253 28.0867 11.1636 29.0918V29.9781H19.4508V28.3336Z" fill="black"/>
</svg>
