<svg xmlns="http://www.w3.org/2000/svg" xmlns:xlink="http://www.w3.org/1999/xlink" width="230" height="230" viewBox="0 0 230 230"><title>onboarding-notification</title><defs><circle id="a" cx="114.9" cy="114.9" r="114.9"/></defs><g fill="none" fill-rule="evenodd"><circle cx="114.9" cy="114.9" r="114.9" fill="#FAFAFA" fill-rule="nonzero"/><mask id="b" fill="#fff"><use xlink:href="#a"/></mask><g mask="url(#b)" opacity=".797"><path fill="#A4D9E9" d="M56.864 181.005c6.699-10.702 17.467-13.76 17.467-13.76l25.754-9.998 24.745-.432 26.08 9.094s10.866 2.68 17.937 13.141l-111.983 1.955"/><path fill="#4EBED6" d="M147.261 229.435l39.456-.69c-.118-6.778-.727-16.428-.727-16.428-3.027-40.54-32.543-46.407-32.543-46.407-23.025-5.183-9.905 30.266-9.905 30.266-.45 8.606 1.024 20.147 3.719 33.259"/><path fill="#A4D9E9" d="M95.614 166.326l33.995-.593-.576-32.995-33.995.593z"/><path fill="#71C8E4" d="M129.303 148.251l-.27-15.513-33.995.593.134 7.685c9.838 7.957 21.537 8.783 34.131 7.235"/><path fill="#095AA5" d="M166.271 229.103c.335-17.9.051-22.809-.213-28.907-.59-13.586-3.672-25.021-12.73-34.956l-.042-.01-24.189-7.49s5.214 8.84-16.89 9.225c0 0-14.57-.318-16.843-8.636l-24.285 8.336s-20.789 5.544-23.982 27.772l12.673 22.547-.194 13.981 106.695-1.862M154.998 90.803c.83-7.588-.912-14.811-.962-22.274-.033-5.008-1.146-12.548-7.394-13.073-8.658-.73-11.065 14.213-11.462 20.677-.548 8.911 1.83 18.491 3.702 27.168.674 3.134.72 9.42 4.293 10.878 3.056 1.244 6.104-1.868 7.615-4.17 3.642-5.554 3.521-12.854 4.208-19.206"/><path fill="#A4D9E9" d="M139.167 144.991l-8.026 1.712c-4.645-.507-12.671-2.255-12.671-2.255-18.507-5.932-23.867-7.527-26.842-14.47-.125-.293-15.378-49.958-15.378-49.958-2.8-25.65 24-31.465 28.05-32.206 4-.998 29.485-8.56 37.48 15.97 0 0 11.674 28.384 6.505 64.027-3.177 13.4-9.118 17.18-9.118 17.18z"/><path fill="#095AA5" d="M150.584 31.346l.025.012.072.035c.647.32 4.321 2.306 5.165 6.5 1.6 7.944.425 19-5.68 24.197-6.63 5.64-12.43 4.24-20.495 6.173-8.383 2.01-16.982 2.9-25.411 4.68-.829.174-1.676.34-2.526.513l-.639.131c-5.004 1.044-10.024 2.483-12.182 7.688a35.949 35.949 0 0 0-1.14 3.17c.133 3.876.816 18.175 3.87 26.253l-3.285.69c1.527 5.708 2.358 11.549 4.38 18.983-7.758-6.175-13.855-15.272-13.855-15.272-3.93-6.618-3.93-6.618-8.431-18.171-2.64-6.77-4.923-12.727-5.371-19.75-.34-5.324 1.02-8.91 3.156-12.67-5.413-3.874-8.245-1.38-8.418-1.218l-.009.008c2.045-3.097 4.353-4.24 6.45-4.45-1.138-3.196-1.063-7.122 4.624-9.108 0 0-3.254 4.193.824 9.083a92.536 92.536 0 0 0 1.845-3.137c4.424-7.905 10.73-13.434 19.033-16.06l.44.015.33.01c5.73.164 41.51.837 40.623-8.015 0 0 10.208 2.41 8.391 9.18 0 0 10.599-2.121 8.214-9.47z"/><path fill="#A4D9E9" d="M88.704 107.38s-4.784-9.902-11.926-3.861c0 0-3.254 2.614.925 9.223 0 0 6.069 9.5 13.046 4.055l-2.045-9.418"/><path fill="#4EBED6" d="M82.241 230.57l-37.502.654c.012 0-.024-8.84-.015-9.467.13-8.694.53-17.456 1.959-26.048 2.04-12.281 7.84-23.24 20.966-26.581 6.008-1.53 11.435 2.001 14.79 6.872 0 0 6.094 7.2-.198 54.57"/></g></g></svg>