<svg id="graphic-user" xmlns="http://www.w3.org/2000/svg" width="320" height="320">
    <defs>
        <style>
            .cls-7{fill-rule:evenodd;fill:#fce7b4}
        </style>
    </defs>
    <rect id="Rectangle" width="320" height="320" rx="160" style="fill:#fff"/>
    <g id="Group-12" transform="translate(158.783 96.391)">
        <path id="Fill-1" d="M40.742 90.97v-7.4a15.9 15.9 0 0 1-2.63-4.2v.011c-1.465-3.388-3.3-6.606-4.75-9.992-4.515-.028-6.751-6.031-6.751-6.031-2.143-5.888.835-7.395.835-7.395 2.426-1.3 4.234-.961 5.555-.015 1.216-4.369 4.639-5.994 12.131-10.17a34.5 34.5 0 0 0 12.708-11.8c4.435-6.463 1.1-8.725 9.878-8.431 0 0 14.5-.493 19.354 18.054.751 10.581.637 21.607-2.631 31.744-1.762 5.468-3.992 11.855-8.056 16.065-2.852 2.957-7.161 4.12-11.509 4.1v5.777c6.461 3.336 12.306 7.3 19.443 1.65 10.379-8.23 9.92-50.567 6.374-72.654a56.148 56.148 0 0 0-1.547-7.583c-.064-.239-.131-.448-.195-.675-.049-.164-.1-.333-.146-.5a32.397 32.397 0 0 0-.321-1c-1.49-4.477-3.474-8.057-5.689-10.162C63.089-8.378 26.7-1.244 15.579 28.056c-3.435 9.043-1.823 42.8-.266 53.171 1.992 13.265 6.762 22.521 16.4 23.338a15.62 15.62 0 0 0 9.034-.76V90.97z" transform="translate(5.299)" style="fill-rule:evenodd;fill:#28251d"/>
        <path id="Fill-3" d="M47.882 70.183a44.208 44.208 0 0 1-13.837-9.095 15.853 15.853 0 0 1-.953-1.021v7.4c6.727 4.668 16.173 6.109 24.134 6.351v-1.811a25.519 25.519 0 0 1-9.344-1.824" transform="translate(12.949 23.504)" style="fill:#fcc514;fill-rule:evenodd"/>
        <path id="Fill-5" d="M32.517 81.554v.095c.025 1.3 1.056 6.07 15.051 6.07h.1c1.187-.015 12.938-.334 14.456-6.528l-2.493-.949v-8.5c-7.961-.242-17.407-1.683-24.134-6.351v14.863l-8.543 2.66 5.583-1.59a1.6 1.6 0 0 0-.018.23" transform="translate(10.546 25.586)" style="fill:#fee0a3;fill-rule:evenodd"/>
        <path id="Fill-7" d="M52.074 86.51a25.524 25.524 0 0 0 9.344 1.824c4.348.018 8.657-1.145 11.509-4.1 4.064-4.214 6.294-10.6 8.058-16.068C84.253 58.027 84.367 47 83.616 36.42c-4.854-18.546-19.354-18.053-19.354-18.053-8.779-.294-5.443 1.969-9.878 8.431A34.5 34.5 0 0 1 41.675 38.6c-7.492 4.177-10.915 5.8-12.131 10.17-1.322-.946-3.129-1.288-5.555.015 0 0-2.977 1.507-.835 7.395 0 0 2.236 6 6.751 6.031 1.453 3.386 3.285 6.6 4.75 9.992v-.011a15.9 15.9 0 0 0 2.63 4.2c.3.352.618.7.953 1.021a44.208 44.208 0 0 0 13.836 9.097" transform="translate(8.757 7.177)" style="fill:#fee1a5;fill-rule:evenodd"/>
        <g id="Group-11" transform="translate(0 106.739)">
            <path id="Fill-9" d="M104.031 17.8A33.333 33.333 0 0 0 88.4 5.817l-.139-.045-.026-.008L72.682 0a.3.3 0 0 1-.014.038C71.15 6.232 59.4 6.55 58.212 6.566h-.1c-14 0-15.026-4.769-15.051-6.07V.4a1.6 1.6 0 0 1 .018-.23L37.5 1.761l-14.056 4A25.986 25.986 0 0 0 13.329 11.8a7.976 7.976 0 0 0-.192.147l-.16.127C10.944 13.711 2.763 21.11.306 35.971c0 0-.121.746-.306 2.026a83.478 83.478 0 0 0 112.319 1c-2.061-12.6-6.138-18.731-8.288-21.2" style="fill:#c0bebe;fill-rule:evenodd"/>
        </g>
    </g>
    <g id="Group-13" transform="translate(42.13 54.913)">
        <path id="Fill-1-2" data-name="Fill-1" class="cls-7" d="M47.24 89.976s.221-.008.608-.04l.321-.029c2.919-.277 11.8-1.6 13.318-7.526l2.237.722-2.262-.835V66.8c-8.338 7.068-18.379 7.962-29.217 6.808v8.914l.444-.145s-4.32 7.6 14.552 7.6" transform="translate(12.618 26.141)"/>
        <g id="Group-5" transform="translate(0 108.521)">
            <path id="Fill-3-2" data-name="Fill-3" d="M116.427 30.905c-1.709-9.341-5.934-17.736-14.788-21.322a29.374 29.374 0 0 0-6.7-2.856l-18.6-6L74.1 0c-1.51 5.924-10.4 7.25-13.314 7.527l-.32.028c-.388.032-.608.042-.608.042C40.986 7.6 45.3 0 45.3 0l-.442.146-20.1 6.581h-.028c-.035.04-.071.081-.1.121C18.588 9.06 3.613 16.774 0 39.655a83.17 83.17 0 0 0 55.993 21.562 83.247 83.247 0 0 0 61.02-26.517q-.267-1.9-.586-3.8" style="fill:#cccaca;fill-rule:evenodd"/>
        </g>
        <path id="Fill-6" d="M61.462 68.189v-4.924c-3.123 2.962-8.655 4.792-20.039 8.644 0 0-5.209 1.227-9.178 1.874V75c10.838 1.155 20.879.26 29.217-6.808" transform="translate(12.618 24.756)" style="fill:#fdd12c;fill-rule:evenodd"/>
        <path id="Fill-8" class="cls-7" d="M66.546 78.7a10.946 10.946 0 0 0 2.4-3.361c-.077.068-.146.142-.224.21 1.1-4.348 1.739-8.046 2.419-11.516 5.063 1.983 9.014-4.915 9.014-4.915 3.394-6.018.645-8.318.645-8.318a5.664 5.664 0 0 0-3.9-1.677c-3.545 2.351-4.654 9.731-4.654 9.731l-2.911-.589c2.4-6.993 2.721-19.4 2.763-22.4a35.821 35.821 0 0 0-.839-2.257 11.18 11.18 0 0 0-6.08-5.393 4.665 4.665 0 0 1-2.2-.224s-23.018.075-39.233-4.166a114.184 114.184 0 0 0-3.048 49.759c2.923 11.393 8.075 14.522 8.075 14.522l6.908 1.355a44.21 44.21 0 0 0 1.654-.243c3.969-.647 9.178-1.874 9.178-1.874C57.89 83.49 63.422 81.661 66.546 78.7" transform="translate(7.534 9.323)"/>
        <g id="Group-12-2" data-name="Group-12" transform="translate(15.645)">
            <path id="Fill-10" d="M54.861 37.312a4.651 4.651 0 0 0 2.2.225 11.185 11.185 0 0 1 6.081 5.391c.31.743.579 1.5.838 2.258-.042 2.994-.362 15.406-2.763 22.4l2.912.589s1.109-7.379 4.653-9.731a5.66 5.66 0 0 1 3.9 1.678s2.753 2.3-.637 8.317c0 0-3.951 6.9-9.013 4.915-.682 3.47-1.32 7.169-2.421 11.516.078-.067.147-.142.225-.21A66.448 66.448 0 0 0 72.19 71.635a71.473 71.473 0 0 0 6.91-15.628 54.966 54.966 0 0 0 4.281-16.931c.356-7.734.1-14.538-7.537-18.207L74.324 22c.241-.377.479-.746.722-1.141 0 0 3.325-15.7-31.886-20.641 0 0-23.274-2.859-38.172 12.257v.006C-4.223 21.865.443 27.7 9.89 31.336c-.038 4.377-.152 8.754-.152 13.13 0 2.1.031 4.2.106 6.317.154 4.15-.121 9.457 1.3 13.711a113.984 113.984 0 0 1 4.486-31.349c16.217 4.241 39.233 4.164 39.233 4.164" style="fill:#353127;fill-rule:evenodd"/>
        </g>
    </g>
</svg>
