<svg xmlns="http://www.w3.org/2000/svg" xmlns:xlink="http://www.w3.org/1999/xlink" width="116" height="30" viewBox="0 0 116 30"><title>Artboard</title><defs><filter id="a" color-interpolation-filters="auto"><feColorMatrix in="SourceGraphic" values="0 0 0 0 0.035294 0 0 0 0 0.352941 0 0 0 0 0.647059 0 0 0 1.000000 0"/></filter><path id="b" d="M1.87 19.38l.038.088c1.943 4.57 6.442 7.772 11.686 7.772 5.232 0 9.729-3.218 11.68-7.772l.038-.089h1.69v.147l-.138-.053.136.053h.002v-.147h.211l-.075.199c-2.075 5.487-7.365 9.421-13.536 9.422C7.417 29 2.14 25.084.075 19.578L0 19.38h1.87zM23.224 3.572c.684 0 1.237.554 1.238 1.236v.002c0 .64-.487 1.167-1.111 1.23l-.127.006h-.015a1.232 1.232 0 0 1-.859-.362l-.02-.022-.06-.066-.01-.013a1.232 1.232 0 0 1-.123-.184l-.023-.049-.029-.059-.007-.02a1.219 1.219 0 0 1-.08-.313l-.004-.022a1.247 1.247 0 0 1-.006-.117V4.811c0-.64.486-1.168 1.11-1.231l.126-.007zM1.897 9.527c1.935-4.574 6.44-7.775 11.693-7.774 2.753 0 5.302.884 7.383 2.38a2.362 2.362 0 0 0 2.239 3.097c.245.001.494-.045.72-.116.532.75 1.001 1.56 1.364 2.418l.038.089h.097v-.025.025l1.782-.005-.073-.197a14.586 14.586 0 0 0-1.83-3.427c.185-.34.289-.726.289-1.14a2.378 2.378 0 0 0-2.37-2.386c-.424 0-.815.11-1.159.306A14.35 14.35 0 0 0 13.597 0C7.425 0 2.147 3.94.075 9.418L0 9.617H1.86l.038-.09z"/></defs><g fill="none" fill-rule="evenodd"><g filter="url(#a)" transform="translate(3 .5)"><g fill="#FFF"><path d="M2.964 14.493l.001-.002.003-.002a2.553 2.553 0 013.623 0l.001.001.803.778 1.555-1.581-.78-.778a4.512 4.512 0 00-1.603-1.048 4.63 4.63 0 00-1.788-.36c-.61 0-1.217.12-1.81.361a4.567 4.567 0 00-1.582 1.047A4.559 4.559 0 00.34 14.49a4.939 4.939 0 000 3.6c.229.587.58 1.116 1.048 1.584.466.466.993.823 1.577 1.064l.002.001.003.001a4.898 4.898 0 003.599 0l.002-.001a4.779 4.779 0 001.6-1.065l.779-.78-1.556-1.58-.804.78-.003.003a2.31 2.31 0 01-.825.562 2.624 2.624 0 01-.983.188c-.712-.002-1.3-.247-1.812-.754a2.557 2.557 0 01-.755-1.812c0-.327.063-.646.19-.963.125-.313.31-.585.562-.824zM11.762 16.28c.002-.712.247-1.3.755-1.812.409-.407.865-.64 1.391-.716.132-.018.261-.027.388-.027.302 0 .59.05.87.154-.161.16-.36.352-.595.577l-.002.002v.002l-1.082 1.08-1.061 1.061-.517.518a2.424 2.424 0 01-.147-.84zm5.957-3.374a4.554 4.554 0 00-1.603-1.047 4.654 4.654 0 00-1.79-.36 4.81 4.81 0 00-1.809.36c-.585.23-1.114.58-1.582 1.047a4.595 4.595 0 00-1.046 1.582 4.909 4.909 0 000 3.599l.002.005-.002-.003a4.598 4.598 0 001.046 1.581 4.768 4.768 0 003.392 1.408 4.753 4.753 0 003.392-1.408l.78-.78-1.58-1.58-.147.147-.633.632a2.536 2.536 0 01-1.414.738 2.464 2.464 0 01-1.238-.128l5.012-5.013-.78-.78zM27.273 12.907a4.705 4.705 0 00-1.536-1.025 4.504 4.504 0 00-1.855-.382c-.653 0-1.276.129-1.86.384a4.704 4.704 0 00-1.532 1.023 4.907 4.907 0 00-1.023 1.513l-.001.002a4.692 4.692 0 00-.364 1.856h.205-.205v4.802h2.234v-4.801c0-.355.062-.68.187-.98.14-.317.323-.586.547-.811.24-.24.51-.421.81-.547l.003-.001c.315-.138.645-.206.999-.206.353 0 .683.068.997.206l.004.001h.002c.314.127.58.307.803.543l.005.004.004.004c.237.224.416.49.542.803l.002.006.002.004c.137.299.205.62.205.974v4.8h2.233v-4.8a4.5 4.5 0 00-.385-1.86 4.493 4.493 0 00-1.023-1.512zM35.95 18.09l-.004.002c-.24.252-.513.437-.825.563a2.623 2.623 0 01-.983.188c-.713-.002-1.301-.247-1.813-.754a2.52 2.52 0 01-.566-.85 2.589 2.589 0 01-.189-.963c0-.326.064-.646.19-.963.125-.312.31-.584.562-.823l.001-.002.002-.002a2.556 2.556 0 013.624 0l.804.779 1.555-1.581-.779-.778a4.521 4.521 0 00-1.603-1.048 4.64 4.64 0 00-1.788-.36c-.613 0-1.218.12-1.81.361a4.558 4.558 0 00-1.583 1.047 4.56 4.56 0 00-1.046 1.581 4.94 4.94 0 00-.341 1.81c0 .612.114 1.21.341 1.79a4.563 4.563 0 001.047 1.583c.467.466.993.822 1.577 1.064h.002l.004.002a4.897 4.897 0 003.598 0l.003-.002a4.783 4.783 0 001.6-1.064l.778-.78-1.555-1.58-.804.78zM41.31 15.3a2.63 2.63 0 01.547-.81v-.001c.24-.24.514-.42.828-.546l.004-.002.003-.001c.313-.138.644-.206.998-.206.353 0 .684.068.996.206l.004.001.003.002c.315.126.58.304.804.542l.004.004.005.004c.235.223.415.489.541.803l.002.004.002.005c.136.299.205.62.205.974 0 .355-.069.684-.206.998l-.001.003-.002.003a2.44 2.44 0 01-.546.828 2.62 2.62 0 01-.81.546 2.65 2.65 0 01-1.001.19c-.357 0-.69-.064-1.004-.19a2.931 2.931 0 01-.83-.546 2.919 2.919 0 01-.546-.83 2.67 2.67 0 01-.187-1.002c0-.355.062-.68.187-.979zm6.796-.879v-.002a4.487 4.487 0 00-1.023-1.511 4.684 4.684 0 00-1.536-1.025 4.49 4.49 0 00-1.855-.383c-.653 0-1.274.128-1.856.384h-.003l-.001.001c-.58.24-1.093.582-1.533 1.023a4.917 4.917 0 00-1.023 1.512l-.002.004.001-.002a4.703 4.703 0 00-.363 1.856c0 .652.12 1.273.362 1.857l.002.003c.254.58.595 1.091 1.02 1.531l.002.002c.441.44.954.789 1.533 1.044l.003.001h.002a4.809 4.809 0 001.855.364c.664 0 1.286-.121 1.857-.364l.003-.001a5.018 5.018 0 001.532-1.043 4.72 4.72 0 001.025-1.537 4.58 4.58 0 00.383-1.856c0-.663-.128-1.284-.383-1.855l-.002-.003zM58.512 16.973l-.002-.006-.001-.002a2.654 2.654 0 00-.635-.938 2.77 2.77 0 00-.937-.613l-.006-.003-.005-.002a2.712 2.712 0 00-1.137-.24h-3.673a.676.676 0 01-.502-.2.747.747 0 01-.208-.53.675.675 0 01.204-.504.674.674 0 01.506-.204h5.738v-2.234h-.209v.208-.208h-5.53c-.407 0-.799.08-1.166.241a2.847 2.847 0 00-.92.615c-.263.264-.475.58-.635.941l-.001.003v.002c-.148.353-.22.735-.22 1.14 0 .406.072.795.218 1.16l.003.006.002.004c.159.345.37.658.63.933l.002.002.002.002c.262.262.57.475.917.634l.004.002.005.002c.366.146.754.218 1.16.218h3.673a.7.7 0 01.73.71.702.702 0 01-.73.73H50.07v2.235h5.718c.405 0 .788-.074 1.141-.221l.003-.002c.363-.158.677-.372.942-.636.276-.274.49-.591.637-.943.159-.365.24-.755.24-1.162 0-.406-.08-.788-.24-1.14M68.803 11.709V11.5h-2.024v4.779c0 .355-.07.684-.208.998l-.002.004v.003a2.438 2.438 0 01-.545.827 2.674 2.674 0 01-.81.547 2.682 2.682 0 01-1.002.188c-.356 0-.688-.063-1.001-.188a3.017 3.017 0 01-.811-.548 2.92 2.92 0 01-.546-.828 2.678 2.678 0 01-.19-1.003v-4.779h-2.231v4.779c0 .651.12 1.272.363 1.856v.002l.001.002c.254.578.595 1.09 1.02 1.53l.003.003c.44.44.952.788 1.533 1.042l.002.002h.002a4.799 4.799 0 001.855.364c.665 0 1.286-.121 1.856-.365h.003a4.982 4.982 0 001.533-1.043c.44-.441.783-.956 1.024-1.537a4.57 4.57 0 00.384-1.856v-4.779h-.209v.208zM72.67 18.112a2.893 2.893 0 01-.546-.826 2.658 2.658 0 01-.19-1.005c0-.356.063-.68.188-.98.14-.317.321-.586.547-.81.24-.24.513-.42.828-.547l.003-.001.004-.002c.313-.137.643-.206.997-.206h2.546v2.545c0 .356-.068.685-.207 1l-.001.003-.002.003a2.434 2.434 0 01-.545.827 2.662 2.662 0 01-.81.547c-.3.125-.625.188-.981.188s-.688-.063-1.002-.188a2.915 2.915 0 01-.83-.548zm6.607-10.289h-2.233v3.673h-2.547c-.651 0-1.272.128-1.855.383a4.69 4.69 0 00-1.534 1.022l-.002.002a4.73 4.73 0 00-1.043 1.513l-.003.004.002-.001a4.695 4.695 0 00-.365 1.855c0 .652.122 1.273.363 1.857l.002.002v.002a5.01 5.01 0 001.043 1.533c.44.44.953.788 1.533 1.042l.003.001h.001a4.798 4.798 0 001.855.364c.652 0 1.272-.121 1.855-.363l.004-.002a4.726 4.726 0 001.513-1.042 4.706 4.706 0 001.024-1.537 4.582 4.582 0 00.384-1.857v-8.45z"/></g></g><g transform="translate(84.47 .5)"><use fill="#095AA5" xlink:href="#b"/><path fill="#FF690A" d="M23.224 3.573c-.683 0-1.236.555-1.236 1.238v.01c0 .039.002.078.006.116l.004.022a1.228 1.228 0 0 0 .08.313l.007.02.029.06.023.048c.036.065.077.127.123.184l.01.013a1.2 1.2 0 0 0 .06.066l.02.022c.22.22.524.358.86.362h.014c.684 0 1.238-.553 1.238-1.236v-.002c-.001-.682-.554-1.236-1.238-1.236"/></g><path fill="#095AA5" d="M98.216 10.953c.464 0 .903.088 1.304.262.4.173.756.413 1.057.715.302.301.542.657.715 1.057.173.4.261.84.261 1.304v3.352h-3.337c-.455 0-.891-.088-1.297-.261a3.392 3.392 0 0 1-1.794-1.794 3.287 3.287 0 0 1-.261-1.297 3.268 3.268 0 0 1 .984-2.362 3.449 3.449 0 0 1 1.071-.715 3.287 3.287 0 0 1 1.297-.26zm0 1.543a1.812 1.812 0 0 0-1.284.525 1.82 1.82 0 0 0-.387.573c-.092.215-.139.45-.139.697a1.813 1.813 0 0 0 .526 1.284 1.81 1.81 0 0 0 1.284.525h1.795v-1.809a1.76 1.76 0 0 0-.14-.697 1.817 1.817 0 0 0-.958-.96 1.763 1.763 0 0 0-.697-.138zm6.994 7.735h-.779v-1.542h.779c.247 0 .481-.047.697-.14a1.796 1.796 0 0 0 1.08-1.41 3.238 3.238 0 0 1-1.777.518c-.455 0-.891-.088-1.297-.26a3.39 3.39 0 0 1-1.794-1.795 3.28 3.28 0 0 1-.261-1.297v-3.337h1.542v3.337a1.808 1.808 0 0 0 .525 1.285c.163.163.358.293.579.385.44.185.971.186 1.403 0a1.795 1.795 0 0 0 .958-.965c.093-.22.14-.457.14-.705v-3.337h1.542v5.91c0 .465-.088.904-.261 1.306-.173.4-.413.757-.714 1.063a3.268 3.268 0 0 1-2.362.984zm-14.03-9.249c.464 0 .902.088 1.304.261.4.173.757.413 1.063.714a3.27 3.27 0 0 1 .984 2.362c0 .455-.088.891-.261 1.298a3.39 3.39 0 0 1-1.786 1.793 3.27 3.27 0 0 1-1.305.261h-1.795v2.574h-1.542V14.32c0-.465.088-.904.26-1.305a3.365 3.365 0 0 1 1.78-1.772 3.287 3.287 0 0 1 1.297-.26zm-.698 1.682a1.82 1.82 0 0 0-.959.958 1.76 1.76 0 0 0-.14.698v1.81h1.796a1.81 1.81 0 0 0 1.285-.526 1.8 1.8 0 0 0 .525-1.284c0-.248-.047-.482-.14-.698a1.795 1.795 0 0 0-.965-.958 1.843 1.843 0 0 0-1.402 0z"/></g></svg>