<svg width="20" height="24" viewBox="0 0 20 24" fill="none" xmlns="http://www.w3.org/2000/svg">
<g opacity="0.4">
<path fill-rule="evenodd" clip-rule="evenodd" d="M2.68368 12.0261C3.15803 11.5864 4.12735 11.4432 4.83888 11.4841C5.13792 11.5046 5.43697 11.5455 5.71539 11.6068C7.53029 11.975 8.22119 13.1203 8.54086 14.9508C8.69554 15.8405 8.52024 16.7302 8.06651 17.1699C7.65403 17.5483 7.12813 17.4154 6.58159 17.1699C4.78732 16.3314 3.34365 14.8588 2.57025 13.0385C2.46713 12.7522 2.28152 12.3943 2.68368 12.0261ZM17.3369 12.0261C16.8626 11.5864 15.8933 11.4432 15.1817 11.4841C14.8827 11.5046 14.5837 11.5455 14.3052 11.6068C12.4903 11.975 11.7994 13.1203 11.4798 14.9508C11.3251 15.8405 11.5004 16.7302 11.9541 17.1699C12.3666 17.5483 12.8925 17.4154 13.439 17.1699C15.2333 16.3314 16.677 14.8588 17.4504 13.0385C17.5535 12.7522 17.7391 12.3943 17.3369 12.0261ZM10.0052 7.76175C8.5718 7.76175 7.41686 8.90709 7.41686 10.3285C7.41686 11.75 8.5718 12.8953 10.0052 12.8953C11.4385 12.8953 12.5935 11.75 12.5935 10.3285C12.5935 8.91732 11.4385 7.76175 10.0052 7.76175ZM10.0052 1.91231C6.1588 1.91231 2.94148 4.58137 2.13715 8.16057C1.95153 9.90927 3.51895 9.54112 4.66357 9.02981C5.97319 8.43668 7.50967 6.90274 10.0052 6.90274C12.5006 6.90274 14.0371 8.43668 15.3467 9.02981C16.4914 9.55135 18.0588 9.90927 17.8732 8.16057C17.0791 4.5916 13.8618 1.91231 10.0052 1.91231ZM10.0052 23.1625C9.5205 23.1625 9.04615 22.9785 8.67492 22.6205L2.93117 16.9245C-0.977056 13.0487 -0.977056 6.78002 2.93117 2.90426C4.89044 0.971497 7.4478 0 10.0052 0C12.5625 0 15.1199 0.971497 17.0688 2.90426C20.9771 6.78002 20.9771 13.0487 17.0688 16.9245L11.3354 22.6205C10.9745 22.9785 10.4898 23.1625 10.0052 23.1625Z" fill="black"/>
<path d="M9.97487 11.8624C10.8633 11.8624 11.5835 11.1527 11.5835 10.2773C11.5835 9.40192 10.8633 8.69226 9.97487 8.69226C9.08643 8.69226 8.36621 9.40192 8.36621 10.2773C8.36621 11.1527 9.08643 11.8624 9.97487 11.8624Z" fill="black"/>
</g>
</svg>
