<svg width="53" height="28" viewBox="0 0 53 28" fill="none" xmlns="http://www.w3.org/2000/svg">
<rect width="53" height="28" rx="8" fill="url(#paint0_linear_777_36292)"/>
<path d="M16.6777 19H14.3691L10.6426 12.5195H10.5898C10.6641 13.6641 10.7012 14.4805 10.7012 14.9688V19H9.07812V10.4336H11.3691L15.0898 16.8496H15.1309C15.0723 15.7363 15.043 14.9492 15.043 14.4883V10.4336H16.6777V19ZM22.7398 19L22.4996 18.1621H22.4059C22.2145 18.4668 21.943 18.7031 21.5914 18.8711C21.2398 19.0352 20.8395 19.1172 20.3902 19.1172C19.6207 19.1172 19.0406 18.9121 18.65 18.502C18.2594 18.0879 18.0641 17.4941 18.0641 16.7207V12.4492H19.8512V16.2754C19.8512 16.748 19.9352 17.1035 20.1031 17.3418C20.2711 17.5762 20.5387 17.6934 20.9059 17.6934C21.4059 17.6934 21.7672 17.5273 21.9898 17.1953C22.2125 16.8594 22.3238 16.3047 22.3238 15.5312V12.4492H24.1109V19H22.7398ZM28.0988 13.5977C27.7199 13.5977 27.423 13.7188 27.2082 13.9609C26.9934 14.1992 26.8703 14.5391 26.8391 14.9805H29.3469C29.3391 14.5391 29.2238 14.1992 29.0012 13.9609C28.7785 13.7188 28.4777 13.5977 28.0988 13.5977ZM28.3508 19.1172C27.2961 19.1172 26.4719 18.8262 25.8781 18.2441C25.2844 17.6621 24.9875 16.8379 24.9875 15.7715C24.9875 14.6738 25.2609 13.8262 25.8078 13.2285C26.3586 12.627 27.1184 12.3262 28.0871 12.3262C29.0129 12.3262 29.7336 12.5898 30.2492 13.1172C30.7648 13.6445 31.0227 14.373 31.0227 15.3027V16.1699H26.798C26.8176 16.6777 26.968 17.0742 27.2492 17.3594C27.5305 17.6445 27.925 17.7871 28.4328 17.7871C28.8273 17.7871 29.2004 17.7461 29.552 17.6641C29.9035 17.582 30.2707 17.4512 30.6535 17.2715V18.6543C30.341 18.8105 30.007 18.9258 29.6516 19C29.2961 19.0781 28.8625 19.1172 28.3508 19.1172ZM33.4344 19L30.9383 12.4492H32.8074L34.073 16.1816C34.2137 16.6543 34.3016 17.1016 34.3367 17.5234H34.3719C34.3914 17.1484 34.4793 16.7012 34.6355 16.1816L35.8953 12.4492H37.7645L35.2684 19H33.4344ZM39.5316 15.7129C39.5316 16.3613 39.6371 16.8516 39.848 17.1836C40.0629 17.5156 40.4105 17.6816 40.891 17.6816C41.3676 17.6816 41.7094 17.5176 41.9164 17.1895C42.1273 16.8574 42.2328 16.3652 42.2328 15.7129C42.2328 15.0645 42.1273 14.5781 41.9164 14.2539C41.7055 13.9297 41.3598 13.7676 40.8793 13.7676C40.4027 13.7676 40.059 13.9297 39.848 14.2539C39.6371 14.5742 39.5316 15.0605 39.5316 15.7129ZM44.0609 15.7129C44.0609 16.7793 43.7797 17.6133 43.2172 18.2148C42.6547 18.8164 41.8715 19.1172 40.8676 19.1172C40.2387 19.1172 39.684 18.9805 39.2035 18.707C38.723 18.4297 38.3539 18.0332 38.0961 17.5176C37.8383 17.002 37.7094 16.4004 37.7094 15.7129C37.7094 14.6426 37.9887 13.8105 38.5473 13.2168C39.1059 12.623 39.891 12.3262 40.9027 12.3262C41.5316 12.3262 42.0863 12.4629 42.5668 12.7363C43.0473 13.0098 43.4164 13.4023 43.6742 13.9141C43.932 14.4258 44.0609 15.0254 44.0609 15.7129Z" fill="white"/>
<defs>
<linearGradient id="paint0_linear_777_36292" x1="53" y1="15.3194" x2="0.000480946" y2="15.543" gradientUnits="userSpaceOnUse">
<stop stop-color="#00AAE4"/>
<stop offset="1" stop-color="#8255BE"/>
</linearGradient>
</defs>
</svg>
