<svg width="96" height="96" viewBox="0 0 96 96" fill="none" xmlns="http://www.w3.org/2000/svg">
<circle cx="48" cy="48" r="44" stroke="currentColor" stroke-width="8"/>
<path d="M61.4282 62.0485C59.9698 62.0264 58.5426 61.6232 57.2882 60.8791C56.0338 60.135 54.9959 59.0757 54.2774 57.8065C54.1447 57.5757 54.0589 57.3211 54.0246 57.0571C53.9904 56.7931 54.0085 56.525 54.0779 56.268C54.2181 55.749 54.5587 55.307 55.0248 55.0391C55.4909 54.7712 56.0443 54.6995 56.5633 54.8396C57.0822 54.9798 57.5243 55.3204 57.7922 55.7865C58.1745 56.4134 58.7116 56.9315 59.3518 57.291C59.9921 57.6505 60.7141 57.8393 61.4484 57.8393C62.1826 57.8393 62.9046 57.6505 63.5449 57.291C64.1852 56.9315 64.7222 56.4134 65.1045 55.7865C65.3724 55.3204 65.8145 54.9798 66.3335 54.8396C66.8524 54.6995 67.4058 54.7712 67.8719 55.0391C68.338 55.307 68.6786 55.749 68.8188 56.268C68.959 56.787 68.8872 57.3404 68.6193 57.8065C67.9006 59.0843 66.857 60.1496 65.5942 60.8945C64.3314 61.6394 62.8942 62.0375 61.4282 62.0485Z" fill="currentColor"/>
<path d="M33.1479 62.0485C31.6896 62.0264 30.2624 61.6232 29.008 60.8791C27.7536 60.135 26.7156 59.0757 25.9971 57.8065C25.7292 57.3404 25.6575 56.787 25.7977 56.268C25.9378 55.749 26.2784 55.307 26.7445 55.0391C27.2106 54.7712 27.764 54.6995 28.283 54.8396C28.802 54.9798 29.244 55.3204 29.5119 55.7865C29.8942 56.4134 30.4313 56.9315 31.0716 57.291C31.7118 57.6505 32.4338 57.8393 33.1681 57.8393C33.9024 57.8393 34.6243 57.6505 35.2646 57.291C35.9049 56.9315 36.442 56.4134 36.8243 55.7865C37.0921 55.3204 37.5342 54.9798 38.0532 54.8396C38.5722 54.6995 39.1256 54.7712 39.5917 55.0391C40.0578 55.307 40.3984 55.749 40.5385 56.268C40.6787 56.787 40.6069 57.3404 40.3391 57.8065C39.6203 59.0843 38.5767 60.1496 37.3139 60.8945C36.0511 61.6394 34.614 62.0375 33.1479 62.0485Z" fill="currentColor"/>
<path d="M49.9516 78.0068H45.9116C45.3759 78.0068 44.8621 77.794 44.4832 77.4151C44.1044 77.0363 43.8916 76.5225 43.8916 75.9868C43.8916 75.4511 44.1044 74.9373 44.4832 74.5584C44.8621 74.1796 45.3759 73.9668 45.9116 73.9668H49.9516C50.4873 73.9668 51.0011 74.1796 51.3799 74.5584C51.7588 74.9373 51.9716 75.4511 51.9716 75.9868C51.9716 76.5225 51.7588 77.0363 51.3799 77.4151C51.0011 77.794 50.4873 78.0068 49.9516 78.0068Z" fill="currentColor"/>
<path d="M28.1788 43.6273C27.2805 43.6229 26.3858 43.5144 25.5124 43.3041C24.9767 43.1809 24.5119 42.8499 24.2202 42.3839C23.9285 41.918 23.8338 41.3553 23.957 40.8195C24.0803 40.2838 24.4113 39.8189 24.8772 39.5272C25.3432 39.2356 25.9059 39.1409 26.4416 39.2641C28.3966 39.7126 30.4496 39.3697 32.1526 38.31C33.8556 37.2504 35.0703 35.5601 35.5316 33.6081C35.6548 33.0724 35.9858 32.6076 36.4518 32.3159C36.6825 32.1714 36.9394 32.0739 37.2078 32.0287C37.4763 31.9836 37.7509 31.9917 38.0162 32.0527C38.2815 32.1138 38.5321 32.2264 38.7539 32.3843C38.9756 32.5422 39.1641 32.7422 39.3085 32.9729C39.4529 33.2036 39.5505 33.4605 39.5956 33.729C39.6408 33.9974 39.6326 34.2721 39.5716 34.5373C38.9728 37.0808 37.5353 39.3487 35.4906 40.9757C33.4459 42.6027 30.913 43.494 28.3 43.5061L28.1788 43.6273Z" fill="currentColor"/>
<path d="M67.4834 43.626C64.8803 43.5825 62.367 42.6673 60.3455 41.0267C58.324 39.386 56.9112 37.1148 56.333 34.5764C56.2098 34.0407 56.3044 33.4779 56.5961 33.012C56.8878 32.546 57.3527 32.215 57.8884 32.0918C58.4242 31.9686 58.9869 32.0632 59.4528 32.3549C59.9188 32.6466 60.2498 33.1115 60.373 33.6472C60.8343 35.5992 62.049 37.2894 63.752 38.3491C65.455 39.4087 67.508 39.7517 69.463 39.3032C69.7283 39.2422 70.003 39.234 70.2714 39.2792C70.5398 39.3243 70.7967 39.4219 71.0274 39.5663C71.2581 39.7107 71.4582 39.8992 71.616 40.1209C71.7739 40.3427 71.8866 40.5933 71.9476 40.8586C72.0086 41.1239 72.0168 41.3985 71.9716 41.667C71.9265 41.9354 71.8289 42.1923 71.6845 42.423C71.54 42.6537 71.3516 42.8537 71.1298 43.0116C70.9081 43.1695 70.6575 43.2822 70.3922 43.3432C69.4383 43.5593 68.461 43.6543 67.4834 43.626Z" fill="currentColor"/>
</svg>
