<svg xmlns="http://www.w3.org/2000/svg" xmlns:xlink="http://www.w3.org/1999/xlink" width="230" height="229" viewBox="0 0 230 229">
    <defs>
        <circle id="25q26xdyoa" cx="114.605" cy="114.254" r="114.038"/>
    </defs>
    <g fill="none" fill-rule="evenodd">
        <g>
            <g>
                <g>
                    <g transform="translate(-72 -140) translate(72 140) translate(.395 .265)">
                        <mask id="a3fh8z6k3b" fill="#fff">
                            <use xlink:href="#25q26xdyoa"/>
                        </mask>
                        <g mask="url(#a3fh8z6k3b)">
                            <g fill-rule="nonzero">
                                <path fill="#FAFAFA" d="M59.675 136.647L60.384 344.402 407.081 387.93 407.081 87.943z" transform="translate(-167.448 -128.954)"/>
                                <path fill="#F2F6FB" d="M202.725 195.104L198.005 246.365 227.359 273.135 266.501 289.583 294.493 305.177 308.746 285.89 333.34 248.997 303.993 217.62 289.493 191.736 261.296 188.702z" transform="translate(-167.448 -128.954)"/>
                                <path fill="#FFFEFF" d="M154.838 214.807L154.853 219.58 203.756 217.94 203.582 213.173z" transform="translate(-167.448 -128.954)"/>
                                <path fill="#FFFEFF" d="M179.742 218.025L184.729 218.025 184.729 193.219 179.742 193.219z" transform="translate(-167.448 -128.954)"/>
                                <path fill="#F2F6FB" d="M391.324 193.717L376.672 271.649 407.082 258.671 407.082 245.622 401.881 190.742z" transform="translate(-167.448 -128.954)"/>
                                <g>
                                    <path fill="#F2F6FB" d="M69.862 315.935L69.862 322.811 131.451 397.465 171.774 329.552 155.121 321.621z" transform="translate(-167.448 -128.954)"/>
                                    <path fill="#F2F6FB" d="M.648 182.414c15.615 2.379 76.996 8.428 76.996 8.428L69.35 324.198l63.704 75.158 67.868 23.002 14.989-32.52 50.796-9.99-6.041-11.427 20.554-9.916 12.013-13.613 12.16-13.783 11.748-13.314 49.142 27.377-43.786 106.064-65.783-15.335s-41.914 21.537-46.633 20.565c-4.718-.972-124.726-26.373-124.726-26.373l-34.137-13.837 5.64-7.098L11.267 347.4.648 182.414z" transform="translate(-167.448 -128.954)"/>
                                    <path fill="#FFFEFF" d="M368.158 348.976L246.652 281.285 226.066 275.251 195.397 247.28 202.038 188.116 206.995 188.625 200.617 245.452 228.653 271.021 248.663 276.886 248.912 277.025 370.667 344.854z" transform="translate(-167.448 -128.954)"/>
                                    <path fill="#FFFEFF" d="M202.269 425.344L129.496 400.679 168.373 330.597 154.452 323.968 67.202 318.148 67.55 313.391 155.786 319.277 175.176 328.509 136.61 398.03 199.574 419.37 213.298 389.597 207.146 363.655 270.855 343.731 331.584 243.405 335.9 245.794 274.216 347.699 213.014 366.838 218.524 390.078z" transform="translate(-167.448 -128.954)"/>
                                    <path fill="#FFFEFF" d="M164.425 327.528L160.383 324.736 211.027 257.611 215.07 260.404zM182.542 338.069L178.724 335.001 232.764 273.419 236.583 276.487zM231.49 360.622L222.393 342.348 191.474 347.896 190.555 343.211 225.246 336.984 235.991 358.571zM164.791 199.081L155.256 150.766 160.156 149.881 169.692 198.196z" transform="translate(-167.448 -128.954)"/>
                                    <path fill="#FFFEFF" d="M138.558 201.623L129.084 198.646 138.154 172.229 138.665 171.589 274.509 1.223 282.438 7.009 147.103 176.734zM268.177 192.517L258.624 189.777 313.325 15.256 322.878 17.997zM216.513 160.027L199.535 148.027 211.203 132.602 215.242 135.397 206.469 146.997 215.304 153.241 226.23 137.864 230.352 140.544zM259.563 371.626L257.317 367.367 279.643 356.594 316.842 314.434 320.653 317.509 283.126 360.043 282.343 360.634z" transform="translate(-167.448 -128.954)"/>
                                    <path fill="#F2F6FB" d="M288.565 236.55c0 10.186-8.668 18.442-19.361 18.442-10.693 0-19.36-8.256-19.36-18.441 0-10.186 8.667-18.443 19.36-18.443s19.361 8.256 19.361 18.443" transform="translate(-167.448 -128.954)"/>
                                    <path fill="#FFFEFF" d="M269.203 220.492c-9.299 0-16.868 7.204-16.868 16.059 0 8.852 7.569 16.056 16.868 16.056 9.301 0 16.87-7.204 16.87-16.056 0-8.856-7.569-16.06-16.87-16.06m0 36.885c-12.05 0-21.853-9.343-21.853-20.825 0-11.484 9.803-20.828 21.853-20.828 12.053 0 21.855 9.343 21.855 20.828 0 11.482-9.802 20.825-21.855 20.825M202.28 425.319l-72.134-23.436-63.342-76.92 8.222-132.173c-12.935-2.375-66.609-12.32-72.872-14.922l1.985-4.374c4.703 1.953 46.815 10.043 73.973 15.006l2.15.392-8.368 134.544 61.255 74.384 66.41 21.577 14.59-31.648 48.86-9.609-13.185-24.943 4.45-2.152 16.13 30.51-52.733 10.369-15.39 33.395z" transform="translate(-167.448 -128.954)"/>
                                    <path fill="#FFFEFF" d="M285.072 230.811L282.764 226.584 307.74 214.11 310.047 218.338zM266.989 290.378L262.042 289.775 267.047 252.325 271.993 252.928zM260.754 221.39L238.607 187.143 242.847 184.634 264.994 218.882zM196.565 239.809L196.479 235.04 252.293 234.125 252.379 238.894zM317.744 273.783L280.689 248.834 283.56 244.932 320.614 269.882zM390.84 202.792L340.676 168.882 343.552 164.987 393.717 198.896z" transform="translate(-167.448 -128.954)"/>
                                    <path fill="#FFFEFF" d="M208.02 366.59c-13.111-18.419-25.632-30.142-37.218-34.842l1.946-4.39c12.481 5.063 25.735 17.359 39.394 36.548l-4.122 2.683zm338.351-2.485L383.208 285.99c-6.574-1.08-46.495-10.75-96.2-90.13l-.594-.949c-4.404-1.662-27.492-6.06-141.023 7.473-7.171.853-14.43.74-21.575-.34l-106.922-16.16 1.36-8.242L125.177 193.8c6.339.956 12.776 1.059 19.136.3 140.922-16.795 147.695-6.965 149.922-3.737.513.746.792 1.504.9 2.229 50.302 79.85 89.487 85.175 89.88 85.22l.755.086.72.33 163.785 78.413-3.903 7.463zM396.375 177.601l-40.55-42.387-.295-.822c-11.7-32.602-36.417-53.363-73.469-61.71-27.944-6.293-52.596-2.812-52.84-2.777l-.737.107-.731-.132L63.568 40.225l-.697-.417C31.325 20.924 14.567 10.563 13.063 9.01l-2.967-3.06 6.4-5.675 2.836 2.928c2.888 2.23 30.235 18.791 47.47 29.111L228.667 61.55c4.582-.58 28.283-3.097 55.395 3.01 39.285 8.847 66.73 31.76 79.42 66.294l39.33 41.111-6.437 5.636z" transform="translate(-167.448 -128.954)"/>
                                    <path fill="#FFFEFF" d="M321.414 472.296l-8.508-1.85.966-4.07c6.477-27.246 24.723-77.978 41.563-110.075 18.553-35.369 37.03-64.829 39.64-68.957l8.778-29.574-20.956-221.12 8.688-.752 21.101 222.66-9.541 32.156-.311.484c-.197.31-19.851 31.193-39.602 68.846-16.309 31.09-34.618 81.965-40.851 108.184l-.967 4.068z" transform="translate(-167.448 -128.954)"/>
                                    <path fill="#FFFEFF" d="M425.276 160.847l-51-6.353 1.127-8.277 46.468 5.79c18.47-18.939 43.86-31.335 73.59-35.901 22.999-3.532 40.325-1.202 41.051-1.102l4.317.6-1.253 8.26-4.314-.6c-.661-.089-66.774-8.585-108.452 35.944l-1.535 1.64h.001zM372.135 282.031L393.586 173.279 402.159 174.828 384.148 266.148 407.721 253.687 411.941 260.992z" transform="translate(-167.448 -128.954)"/>
                                    <path fill="#FFFEFF" d="M391.119 218.869L388.761 214.668 402.901 207.4 405.26 211.602z" transform="translate(-167.448 -128.954)"/>
                                    <path fill="#F2F6FB" d="M347.118 159.808c0 7.885-6.711 14.277-14.99 14.277-8.277 0-14.988-6.392-14.988-14.277 0-7.886 6.712-14.278 14.988-14.278 8.279 0 14.99 6.392 14.99 14.278" transform="translate(-167.448 -128.954)"/>
                                    <path fill="#FFFEFF" d="M332.13 147.43c-7.17 0-13.005 5.552-13.005 12.378 0 6.825 5.834 12.378 13.004 12.378s13.003-5.553 13.003-12.378c0-6.826-5.833-12.379-13.003-12.379m0 28.556c-9.36 0-16.975-7.257-16.975-16.177s7.615-16.178 16.975-16.178c9.36 0 16.975 7.258 16.975 16.178 0 8.92-7.615 16.177-16.975 16.177" transform="translate(-167.448 -128.954)"/>
                                </g>
                            </g>
                        </g>
                    </g>
                </g>
                <g fill-rule="nonzero">
                    <path fill="#0071CE" d="M54.18 71.689c-14.692 0-26.602-11.932-26.602-26.65 0-14.718 11.91-26.65 26.603-26.65 14.691 0 26.601 11.932 26.601 26.65 0 14.718-11.91 26.65-26.601 26.65m0-71.054C26.283.635 3.668 23.29 3.668 51.237c0 27.946 50.513 82.826 50.513 82.826s50.51-54.88 50.51-82.826c0-27.947-22.614-50.602-50.51-50.602" transform="translate(-72 -140) translate(72 140) translate(62 47)"/>
                    <path fill="#000" stroke="#0071CE" stroke-width="3.301" d="M51.41 20.397c-14.188 0-25.732 11.579-25.732 25.81 0 14.233 11.544 25.812 25.733 25.812 14.188 0 25.732-11.579 25.732-25.811S65.6 20.398 51.411 20.398m0 53.23c-15.074 0-27.337-12.3-27.337-27.42 0-15.12 12.263-27.42 27.337-27.42 15.073 0 27.336 12.3 27.336 27.42 0 15.12-12.263 27.42-27.336 27.42M1.83 52.397c0 11.237 8.654 28.99 25.026 51.337 10.896 14.873 21.92 27.268 24.554 30.187 2.634-2.92 13.657-15.314 24.553-30.187 16.373-22.348 25.027-40.1 25.027-51.338 0-27.421-22.242-49.731-49.58-49.731-27.339 0-49.58 22.31-49.58 49.731M25.573 104.7C18.236 94.685 12.388 85.524 8.19 77.47 2.906 67.33.226 58.895.226 52.397c0-13.714 5.324-26.606 14.992-36.303C24.886 6.397 37.74 1.057 51.411 1.057c13.671 0 26.525 5.34 36.192 15.037 9.668 9.697 14.991 22.59 14.991 36.303 0 6.498-2.678 14.933-7.963 25.073-4.197 8.054-10.046 17.215-17.383 27.23C64.77 121.73 52.126 135.524 52 135.66c-.151.166-.366.26-.59.26-.224 0-.437-.094-.589-.26-.465-.162-12.77-13.931-25.247-30.961z" transform="translate(-72 -140) translate(72 140) translate(62 47)"/>
                </g>
            </g>
        </g>
    </g>
</svg>
