<svg id="graphic-gps" xmlns="http://www.w3.org/2000/svg" width="320" height="320">
    <defs>
        <filter id="Trazado_412" x="41.758" y="36.543" width="236.304" height="267.539" filterUnits="userSpaceOnUse">
            <feOffset dy="10"/>
            <feGaussianBlur stdDeviation="20" result="blur"/>
            <feFlood flood-opacity=".251"/>
            <feComposite operator="in" in2="blur"/>
            <feComposite in="SourceGraphic"/>
        </filter>
        <style>
            .cls-2{fill:#fff}
        </style>
    </defs>
    <rect id="Rectangle" width="319.82" height="320" rx="159.91" style="fill:#d8d8d8"/>
    <path id="Combined-Shape" class="cls-2" d="m210.588 266.256 42.65 23.776A159.118 159.118 0 0 1 160.356 320l4.36-2.107 1.016-.768 29.567-33.53zm-26.427-14.73 20.751 11.567-17.234 19.544-26.464 30.012-14.151 6.832q-6.126-.492-12.116-1.439l-4.951-9.378 24.174-7.564 12.747-21.07zm-60.389 59.085 3.144 5.952q-6.222-1.311-12.259-3.1zm-20.108-100.063 14.738 4.323 60.166 33.537-18.6 30.748-10.158 16.79-45.252 14.161q-1.572-.582-3.128-1.2l-10.8-21.725-22.18 3.991A160.746 160.746 0 0 1 47.932 274.1l7.119-8.119zm-16.74 83.6 5.383 10.829a159.516 159.516 0 0 1-16.351-8.859zm141.512-115.809c35.5 35.285 60.885 41.569 66.985 42.611l.179.03 10.212 4.893a160.559 160.559 0 0 1-47.1 60.044l-46.969-26.182-2.261-1.825-.334.378-21.748-12.121zM74.628 191.466l17.063 15.57 5.253 1.542-49.5 56.442-3.963 4.518a160.762 160.762 0 0 1-14.39-17.685zM59.3 104.717l-2.457 21.912-.7 6.221-2.465 21.973-.38.006.053 2.911-1.457 12.982 18.006 16.43-44.568 59.1A160.467 160.467 0 0 1 8.1 109.979q12.356-1.389 23.481-2.547c2.193-.228 4.344-.448 6.47-.664q11.242-1.141 21.249-2.051zm108.216 71.353 38.943 26.236-24.648 40.744-36.489-20.339 5.21-39.019a28.87 28.87 0 0 0 16.984-7.622zm-48-16.133c1.481 12.119 11.4 21.8 23.988 23.577l.519.069-4.774 35.744-17.915-9.985-.323-.181-25.965-7.615-36.38-33.2.833-7.427zm190.458 55.811-10.116-4.848-.934-.427-.98-.111a29.379 29.379 0 0 1-4.024-.942l-.355-.1 21.912-11.584a158.822 158.822 0 0 1-5.502 18.012zM305.4 93.23l-2.1 10.658L248.76 67a20.107 20.107 0 0 0 2.584-9.849c0-11.581-9.881-21-22.026-21s-22.027 9.425-22.026 21.006 9.881 21 22.026 21a22.524 22.524 0 0 0 15.2-5.814l.391-.365 57.075 38.6-18.676 94.738c-19.713-9.226-57.5-34.929-101.992-105.6a6.857 6.857 0 0 0-1.165-2.893c-.1-.148-.212-.307-.337-.475l-.114-.148c-1.165-1.5-3.621-3.636-12.284-5.133l-.792-.132a138.2 138.2 0 0 0-16.4-1.441l-.709-.026 15.577-49.725L177.255.916A160.042 160.042 0 0 1 305.4 93.23zm-112.282 43.685a372.036 372.036 0 0 0 29.756 35.744l.932.974-14.092 23.292-38.121-25.683a25.755 25.755 0 0 0 2.562-24.079l-.266-.638zm124.23-5.81 2.427 25.66-.395.419.474.409.087.864q.007.77.007 1.543a161.368 161.368 0 0 1-1.776 23.928l-21.355 11.289 12.445-63.129 7.531-3.871q.291 1.44.555 2.888zm-169.683 4.836a22.111 22.111 0 0 1 18.983 10.481l.237.4.067.122a19.835 19.835 0 0 1-.356 20.245l-.3.48-1.721 2.342a22.255 22.255 0 0 1-16.183 7.607l-.576.011-2.947-.36-.024.174c-10.56-1.3-18.788-9.786-19.057-20.131l-.007-.458v-.1c.019-11.477 9.829-20.814 21.884-20.812zm-34.422-35.129 20.844 32.248a27.132 27.132 0 0 0-14.515 20.14l-.07.545-59.306.974 2.478-22.084.05-.454 3.147-28.047c18.993-1.664 34.584-2.712 47.372-3.321zm56.657 1.879.1.037.772 1.233a534.131 534.131 0 0 0 17.481 26.237l1.139 1.6-18.659 9.325a28.751 28.751 0 0 0-23.066-11.368 29.254 29.254 0 0 0-6.676.787l-.8.2-19.546-30.242c34.874-1.315 45.915.966 49.255 2.192zm145.489 19.215-4.585 2.359 2.189-11.086q1.318 4.314 2.396 8.728zM160.039 0q1.994 0 3.976.048L150.959 41.73 136.056 89.3c-6.068.04-13 .216-20.916.561l-1.328.059-.348-.537-1.014.6c-22.675 1.07-53.123 3.484-94.1 7.949l-1.561.171-1.3-6.6A159.921 159.921 0 0 1 160.039 0zm69.28 41.081c9.3 0 16.873 7.208 16.873 16.071a15.312 15.312 0 0 1-1.692 6.968 16.212 16.212 0 0 1-3.9 4.946 17.253 17.253 0 0 1-11.284 4.157c-9.305 0-16.874-7.208-16.874-16.071s7.573-16.071 16.877-16.071z" transform="translate(.051)"/>
    <g id="Path" transform="translate(104.258 89.043)">
        <path id="Trazado_411" data-name="Trazado 411" d="M130.652 64A55.621 55.621 0 0 0 75 119.652c0 35.415 55.652 86.008 55.652 86.008s55.648-50.593 55.648-86.008A55.621 55.621 0 0 0 130.652 64z" transform="translate(-75 -64)"/>
        <g transform="translate(-104.26 -89.04)" style="filter:url(#Trazado_412)">
            <path id="Trazado_412-2" data-name="Trazado 412" d="M130.652 64A55.621 55.621 0 0 0 75 119.652c0 35.415 55.652 86.008 55.652 86.008s55.648-50.593 55.648-86.008A55.621 55.621 0 0 0 130.652 64z" transform="translate(29.26 25.04)" style="fill:#f9ba1b;stroke:#fff;stroke-width:5px"/>
        </g>
    </g>
    <path id="Path-2" data-name="Path" class="cls-2" d="M122.043 84.818a25.043 25.043 0 1 0 25.043 25.043 25.053 25.053 0 0 0-25.043-25.043z" transform="translate(37.866 33.19)"/>
</svg>
