<svg xmlns="http://www.w3.org/2000/svg" xmlns:xlink="http://www.w3.org/1999/xlink" width="375" height="361" viewBox="0 0 375 361">
    <defs>
        <linearGradient id="0ir3bz48ob" x1="11.253%" x2="86.177%" y1="37.913%" y2="69.272%">
            <stop offset="0%" stop-color="#FEFEFE"/>
            <stop offset="100%" stop-color="#F2F6F8"/>
        </linearGradient>
        <linearGradient id="516ytim70d" x1="3.16%" x2="100%" y1="48.208%" y2="52.037%">
            <stop offset="0%" stop-color="#F1F4F6"/>
            <stop offset="100%" stop-color="#E0E6EC"/>
        </linearGradient>
        <linearGradient id="3qcwghx4ef" x1="42.019%" x2="110.337%" y1="53.602%" y2="58.095%">
            <stop offset="0%" stop-color="#004A87" stop-opacity=".129"/>
            <stop offset="100%" stop-color="#005296" stop-opacity="0"/>
            <stop offset="100%" stop-color="#005296" stop-opacity="0"/>
        </linearGradient>
        <linearGradient id="v33hinh6uh" x1="5.225%" x2="95.442%" y1="47.013%" y2="55.662%">
            <stop offset="0%" stop-color="#FFF"/>
            <stop offset="100%" stop-color="#F2F6F8"/>
        </linearGradient>
        <radialGradient id="xyoyavogaa" cx="50%" cy="50%" r="50%" fx="50%" fy="50%" gradientTransform="matrix(0 1 -.9694 0 .985 0)">
            <stop offset="0%" stop-opacity=".101"/>
            <stop offset="100%" stop-opacity="0"/>
        </radialGradient>
        <radialGradient id="escj3c0kme" cx="50%" cy="50%" r="31.811%" fx="50%" fy="50%" gradientTransform="matrix(0 1 -.94008 0 .97 0)">
            <stop offset="0%" stop-opacity=".114"/>
            <stop offset="100%" stop-opacity="0"/>
        </radialGradient>
        <radialGradient id="9np42ytqig" cx="50%" cy="50%" r="25.139%" fx="50%" fy="50%" gradientTransform="matrix(0 1 -2.33774 0 1.669 0)">
            <stop offset="0%" stop-opacity=".101"/>
            <stop offset="100%" stop-opacity="0"/>
        </radialGradient>
        <path id="y2tsw0oiec" d="M25.721 72.982L232.575 104.277 235.942 82.016 29.089 50.722z"/>
        <path id="z4d0ff3gmi" d="M10.285 44.547L217.139 75.842 220.506 53.582 13.653 22.288z"/>
    </defs>
    <g fill="none" fill-rule="evenodd">
        <g>
            <g>
                <g fill="url(#xyoyavogaa)" opacity=".402" transform="translate(0 -236) translate(-69 231) rotate(21 -550.144 1041.969)">
                    <path d="M-.681 44.096c0 7.134 48.075 12.918 107.377 12.918 59.304 0 107.378-5.784 107.378-12.918 0-7.134-48.074-12.918-107.378-12.918C47.394 31.178-.68 36.962-.68 44.096" opacity=".434" transform="rotate(-17 106.697 44.096)"/>
                </g>
                <g transform="translate(0 -236) translate(-69 231) rotate(-9 1219.555 -1445.266)">
                    <path fill="url(#0ir3bz48ob)" d="M2.958 105.886C.206 104.382-.807 100.932.696 98.18L52.698 2.958C54.202.206 57.652-.807 60.405.696l173.642 94.83c2.753 1.503 3.765 4.952 2.262 7.705l-52.003 95.222c-1.503 2.753-4.953 3.765-7.706 2.262L2.958 105.885z"/>
                    <use fill="url(#516ytim70d)" transform="rotate(19 130.832 77.5)" xlink:href="#y2tsw0oiec"/>
                    <path fill="#E1E5EB" d="M54.567 88.228l-21.197-2.88c-2.959-.4-5.032-3.125-4.63-6.084.403-2.959 3.127-5.032 6.086-4.63l21.196 2.88c2.958.402 5.032 3.125 4.63 6.085-.402 2.958-3.127 5.031-6.085 4.63" opacity=".7" transform="rotate(19 44.696 81.431)"/>
                    <path fill="#E1E5EB" d="M86.732 120.045l-65.04-8.835c-2.958-.402-5.032-3.126-4.63-6.085.402-2.958 3.127-5.031 6.086-4.63l65.04 8.835c2.958.403 5.031 3.127 4.63 6.086-.403 2.959-3.127 5.031-6.086 4.63" opacity=".7" transform="rotate(19 54.94 110.27)"/>
                </g>
                <g>
                    <path fill="url(#escj3c0kme)" d="M.237 164.389c0 7.558 52.526 13.687 117.318 13.687 64.794 0 117.318-6.129 117.318-13.687 0-7.56-52.524-13.688-117.318-13.688C52.763 150.701.237 156.83.237 164.39" opacity=".737" transform="translate(0 -236) translate(-69 231) rotate(5 -669.391 1343.448) rotate(-14 117.555 164.388)"/>
                    <path fill="url(#escj3c0kme)" d="M104.265 137.219c0 7.558 52.525 13.687 117.318 13.687 64.794 0 117.318-6.129 117.318-13.687 0-7.56-52.524-13.688-117.318-13.688-64.793 0-117.318 6.129-117.318 13.688" opacity=".737" transform="translate(0 -236) translate(-69 231) rotate(5 -669.391 1343.448) rotate(-14 221.583 137.218)"/>
                    <path fill="#0071CE" d="M268.172 121.536l-200.267 55.22c-3.175.876-6.459-.988-7.334-4.163L30.29 62.77c-.875-3.174.989-6.458 4.163-7.333L234.72.216c3.175-.875 6.458.989 7.333 4.164l30.283 109.822c.875 3.175-.99 6.458-4.164 7.334" transform="translate(0 -236) translate(-69 231) rotate(5 -669.391 1343.448)"/>
                    <g>
                        <path fill="#FFF" fill-rule="nonzero" d="M15.647 8.192c0-.97-1.003-1.763-2.243-1.763-1.239 0-2.242.793-2.242 1.763 0 .973 1.003 1.762 2.242 1.762 1.237 0 2.243-.519 2.243-1.762zm-.666 3.126H9.642l-.647 2.555 1.863.004c-.74 3.189-1.49 6.369-2.224 9.566h3.56c.857-4.033 1.899-8.125 2.787-12.126zm39.983-.064c-2.253-.551-4.662.022-6.08.966l.188-.963-3.45-.003c-.982 3.935-1.958 8.215-2.903 12.189h3.487l.33-2.068c.633-3.433 1.424-7.707 4.797-8.045 1.305-.127 1.709.392 2.669.668l.962-2.744zm-18.311 4.892c-1.036.075-2.052-.014-2.814-.222.63-1.111 1.796-2.308 3.406-2.594 1.036-.183 2.741-.046 3.038.816.486 1.403-2.159 1.903-3.63 2zm-3.485 1.929c3.413.784 8.119.268 9.862-1.854.592-.723.98-2.126.515-3.187-.763-1.746-3.599-2.183-6.078-2.003-4.323.32-8.493 2.97-7.928 8.006.466 4.182 5.774 5.188 10.447 3.782.197-.917.234-1.99.448-2.891-1.925 1.507-7.878 2.094-7.266-1.853zm-14.158-2.52c1.224-1.883 4.48-3.109 6.673-1.187-.522 1.903-.988 5.02-2.375 6.08-1.28.976-3.963.955-4.74-.448-.746-1.344-.245-3.387.442-4.445zm12.117-8.947H27.7c-.35 1.773-.993 3.399-1.35 5.165-5.804-2.354-12.426 1.466-11.787 7.634.298 2.923 3.159 4.256 6.448 4.005 0 0 5.74-.12 7.402-5.795l2.713-11.009zm-23.645.01S5.71 12.684 4.492 17.57l-.499 1.903c-.223.886.367.912.367.912h3.341l-.815 3.052H3.178h.034s-1.778.092-2.592-.775c-.812-.87-.616-1.908-.554-2.426.05-.412 1.63-6.389 1.63-6.389L3.725 6.62h3.758z" transform="translate(0 -236) translate(-69 231) rotate(5 -669.391 1343.448) rotate(-14 409.432 -252.631)"/>
                        <g>
                            <path fill="#FFC220" d="M19.776 20.338h.033c.713 0 1.298.37 1.377.852l.706 8.021c0 .795-.923 1.444-2.082 1.444-1.157 0-2.08-.65-2.08-1.444l.706-8.021c.076-.474.644-.84 1.34-.852zm-4.268-2.505l-.004-.002c.358.62.331 1.319-.047 1.632l-6.544 4.62c-.679.398-1.7-.083-2.279-1.091-.58-1.012-.478-2.14.201-2.54l7.246-3.393c.453-.172 1.071.152 1.427.774zm10.03-.772l7.248 3.393c.683.4.779 1.526.203 2.54-.581 1.005-1.604 1.484-2.28 1.09l-6.545-4.621c-.376-.314-.402-1.012-.047-1.632l-.004.002c.358-.623.972-.947 1.426-.772zm5.17-10.49c.677-.398 1.7.082 2.281 1.093.569.996.482 2.113-.18 2.52l-.023.013-7.247 3.4c-.446.167-1.047-.145-1.407-.745l-.019-.031.004.004c-.35-.61-.33-1.297.028-1.614l.02-.016 6.543-4.624zM6.634 7.662c.573-.998 1.577-1.478 2.256-1.103l.023.014 6.544 4.622c.372.304.404.984.065 1.598l-.018.032.002-.004c-.348.61-.951.935-1.402.784l-.023-.008-7.246-3.4c-.679-.395-.78-1.523-.2-2.535zM19.81 0c1.147 0 2.062.637 2.082 1.418v.026l-.706 8.02c-.077.475-.646.843-1.343.855h-.067c-.685-.011-1.245-.368-1.336-.832l-.004-.023-.706-8.02C17.73.65 18.653 0 19.81 0z" transform="translate(0 -236) translate(-69 231) rotate(5 -669.391 1343.448) rotate(-14 409.432 -252.631) translate(60.627)"/>
                            <path stroke="#FFF" stroke-linecap="round" stroke-linejoin="round" stroke-width="1.251" d="M33.366 1.251h2.304c2.183 0 3.952 1.778 3.952 3.972v20.21c0 2.193-1.77 3.97-3.952 3.97h-2.304m-27.11 0H3.902C1.747 29.404 0 27.649 0 25.484V5.173C0 3.006 1.747 1.25 3.902 1.25h2.354" transform="translate(0 -236) translate(-69 231) rotate(5 -669.391 1343.448) rotate(-14 409.432 -252.631) translate(60.627)"/>
                        </g>
                        <path fill="#FFF" fill-rule="nonzero" d="M110.513 23.345c.244 0 .463-.22.463-.463V17.15h4.025c2.975 0 5.439-2.463 5.439-5.488 0-2.951-2.464-5.39-5.464-5.39h-5.39c-.268 0-.464.22-.464.463v16.147c0 .244.196.463.464.463h.927zm4.341-8h-3.878v-7.22h3.878c2 0 3.708 1.318 3.708 3.488 0 2.244-1.708 3.732-3.708 3.732zm10.286 8.268c1.756 0 2.951-.878 3.537-1.487.073.756.463 1.317 1.195 1.317.268 0 .439-.171.439-.44v-6.438c0-3.025-1.342-4.732-4.22-4.732-1.56 0-2.585.488-3.146.732-.268.121-.44.268-.342.61l.244.658c.098.268.244.414.537.293.512-.171 1.366-.659 2.61-.659 1.61 0 2.61 1.024 2.585 3.098l-.039-.012c-.217-.061-1.306-.354-2.376-.354-2.902 0-4.512 1.585-4.512 3.731 0 2.269 1.512 3.683 3.488 3.683zm.317-1.634c-1.244 0-2.024-.902-2.024-2.049 0-1.439 1.17-2.195 2.731-2.195 1.122 0 2.025.244 2.39.44v2.292c-.487.732-1.707 1.512-3.097 1.512zm10.09 7.171c.196 0 .415-.17.489-.341l7.048-16.098c.171-.366 0-.634-.439-.634h-.902c-.22 0-.415.122-.488.317l-3.805 8.951h-.049l-3.195-8.951c-.073-.195-.268-.317-.488-.317h-1.024c-.439 0-.585.244-.439.61l4.17 10.756-2.121 5.024c-.17.39.024.683.463.683h.78z" transform="translate(0 -236) translate(-69 231) rotate(5 -669.391 1343.448) rotate(-14 409.432 -252.631)"/>
                    </g>
                    <path fill="url(#3qcwghx4ef)" d="M261.233 29.411l.681 114.219c.02 3.24-2.59 5.881-5.83 5.9h-.02l-204.86.532 210.029-120.65z" transform="translate(0 -236) translate(-69 231) rotate(5 -669.391 1343.448) rotate(-15 156.577 89.737)"/>
                </g>
                <g transform="translate(0 -236) translate(-69 231)">
                    <path fill="url(#9np42ytqig)" d="M69.848 137.337c0 12.083 33.767 21.88 75.419 21.88 41.653 0 75.419-9.797 75.419-21.88 0-12.085-33.766-21.881-75.42-21.881-41.651 0-75.418 9.796-75.418 21.88" opacity=".83" transform="rotate(8 145.267 137.336)"/>
                    <path fill="url(#v33hinh6uh)" d="M200.453 148.166L4.83 118.57c-3.1-.469-5.234-3.364-4.765-6.465L16.295 4.83c.469-3.101 3.363-5.235 6.464-4.765L218.382 29.66c3.101.47 5.235 3.364 4.766 6.465L206.918 143.4c-.47 3.101-3.364 5.235-6.465 4.766"/>
                    <use fill="url(#516ytim70d)" xlink:href="#z4d0ff3gmi"/>
                    <path fill="#E1E5EB" d="M86.1 114.533l-65.04-8.835c-2.959-.401-5.032-3.126-4.63-6.085.402-2.958 3.127-5.031 6.086-4.63l65.04 8.835c2.958.403 5.031 3.127 4.629 6.086-.402 2.959-3.126 5.031-6.085 4.63" opacity=".7"/>
                </g>
            </g>
        </g>
    </g>
</svg>
