<svg width="24" height="24" viewBox="0 0 24 24" fill="none" xmlns="http://www.w3.org/2000/svg">
    <path d="M13.3452 10.8734C13.3452 11.6293 12.733 12.242 11.9778 12.242C11.2226 12.242 10.6104 11.6293 10.6104 10.8734C10.6104 10.1175 11.2226 9.50471 11.9778 9.50471C12.733 9.50471 13.3452 10.1175 13.3452 10.8734Z" fill="black"/>
    <path fill-rule="evenodd" clip-rule="evenodd" d="M10.8737 21.532C11.1892 21.8411 11.5924 22 12.0044 22C12.4163 22 12.8283 21.8411 13.1351 21.532L18.0085 16.6137C21.3305 13.2671 21.3305 7.8543 18.0085 4.50773C16.3519 2.83885 14.1781 2 12.0044 2C9.83063 2 7.65687 2.83885 5.99149 4.50773C2.6695 7.8543 2.6695 13.2671 5.99149 16.6137L10.8737 21.532ZM7.61305 11.9161C7.00825 11.8808 6.18433 12.0044 5.78113 12.3841C5.46862 12.6747 5.57367 12.9579 5.66096 13.1933C5.66916 13.2154 5.67719 13.2371 5.68471 13.2583C6.3421 14.83 7.56922 16.1015 9.09436 16.8256C9.55891 17.0375 10.0059 17.1523 10.3565 16.8256C10.7422 16.4459 10.8912 15.6777 10.7597 14.9095C10.488 13.3289 9.90075 12.34 8.35808 12.0221C8.12142 11.9691 7.86723 11.9338 7.61305 11.9161ZM16.4045 11.9161C17.0093 11.8808 17.8332 12.0044 18.2364 12.3841C18.5489 12.6747 18.4439 12.9579 18.3566 13.1933C18.3484 13.2154 18.3403 13.2371 18.3328 13.2583C17.6754 14.83 16.4483 16.1015 14.9232 16.8256C14.4586 17.0375 14.0116 17.1523 13.661 16.8256C13.2753 16.4459 13.1263 15.6777 13.2578 14.9095C13.5295 13.3289 14.1168 12.34 15.6594 12.0221C15.8961 11.9691 16.1503 11.9338 16.4045 11.9161ZM9.80433 10.9183C9.80433 9.69095 10.786 8.70199 12.0044 8.70199C13.2227 8.70199 14.2044 9.69978 14.2044 10.9183C14.2044 12.1457 13.2227 13.1347 12.0044 13.1347C10.786 13.1347 9.80433 12.1457 9.80433 10.9183ZM5.31658 9.04636C6.00026 5.95585 8.73498 3.65121 12.0044 3.65121C15.2825 3.65121 18.0173 5.96468 18.6922 9.04636C18.85 10.5563 17.5177 10.2472 16.5447 9.79691C16.2406 9.65697 15.922 9.45639 15.5764 9.23874C14.657 8.65985 13.546 7.96026 12.0044 7.96026C10.4628 7.96026 9.35177 8.65985 8.4324 9.23874C8.08675 9.45639 7.7682 9.65697 7.46404 9.79691C6.49111 10.2384 5.1588 10.5563 5.31658 9.04636Z" fill="black"/>
    </svg>
    