<svg width="128" height="128" viewBox="0 0 128 128" fill="none" xmlns="http://www.w3.org/2000/svg">
<mask id="mask0" style="mask-type:alpha" maskUnits="userSpaceOnUse" x="0" y="0" width="128" height="128">
<circle cx="64" cy="64" r="64" fill="#C4C4C4"/>
</mask>
<g mask="url(#mask0)">
<path opacity="0.7" d="M124.31 3.74744C126.484 4.7452 128.334 6.25919 130.221 7.68642C135.317 11.4842 139.689 16.1615 143.132 21.4967C143.336 21.7495 143.45 22.062 143.458 22.3861C143.147 22.6312 143.141 23.0194 143.024 23.3491C142.329 25.2164 141.221 26.9032 139.782 28.2837C136.892 31.0319 133.374 32.3615 129.378 32.3658C120.576 32.3745 111.776 32.3745 102.976 32.3658C101.064 32.3658 99.1553 32.4309 97.2398 32.1815C94.436 31.8127 91.8109 30.6023 89.7124 28.711C88.1904 27.3792 87.0729 25.6917 86.2336 23.8306C84.5181 20.0652 84.4942 16.1999 86.1792 12.5364C88.7688 6.9099 93.2696 3.93614 99.6141 3.95783C107.441 3.98386 115.269 3.95783 123.083 3.95783C123.485 3.95133 123.946 4.1075 124.31 3.74744Z" fill="#CFEAF3"/>
<path opacity="0.7" d="M39.0258 81.3013C41.3653 85.0537 44.7681 86.7065 49.1688 86.5482C51.8084 86.4528 54.4567 86.5482 57.1006 86.52C57.8964 86.5092 58.1681 86.7824 58.1681 87.5893C58.1493 97.8865 58.1493 108.183 58.1681 118.479C58.1602 118.624 58.1435 118.769 58.1181 118.913L22.1752 118.893C21.8577 118.893 21.5229 118.817 21.2641 119.11C19.0899 118.11 17.0721 116.845 15.0153 115.639C14.9382 115.594 14.873 115.531 14.825 115.456C14.777 115.38 14.7476 115.295 14.7391 115.206C17.3113 115.206 19.8835 115.223 22.4535 115.177C23.4977 115.178 24.5392 115.074 25.5627 114.867C29.5025 113.984 32.7052 111.939 34.8208 108.466C37.8169 103.547 37.9104 98.4237 34.9882 93.5282C32.1964 88.8496 27.7435 86.6154 22.3013 86.5872C12.3453 86.5308 2.38707 86.5504 -7.57112 86.5872C-10.2184 86.5949 -12.8099 87.3466 -15.0485 88.7563C-16.3248 87.559 -17.1227 86.0124 -18.0772 84.583C-18.7534 83.5744 -19.5144 82.5984 -19.8167 81.3794H37.4081C37.9387 81.3728 38.4844 81.3316 39.0258 81.3013Z" fill="#F1FBFF"/>
<path opacity="0.7" d="M-15.0573 88.7572C-12.8187 87.3476 -10.2272 86.5958 -7.57991 86.5882C2.37828 86.5535 12.3365 86.534 22.2925 86.5882C27.7282 86.6186 32.1876 88.8527 34.9794 93.5291C37.9016 98.4247 37.8059 103.548 34.812 108.467C32.6964 111.938 29.4937 113.985 25.5539 114.868C24.5304 115.075 23.4888 115.179 22.4447 115.178C19.8747 115.224 17.3025 115.202 14.7303 115.207C13.1583 114.957 12.0495 113.834 10.7971 113.038C7.88134 111.177 5.07617 109.149 2.39568 106.964C0.641758 105.533 -1.08607 104.067 -2.78781 102.568C-6.19872 99.5191 -9.36003 96.2037 -12.2416 92.6528C-13.2548 91.436 -14.4876 90.3211 -15.0573 88.7572Z" fill="#CFEAF3"/>
<path opacity="0.7" d="M44.4741 25.0499C43.6762 25.5076 42.8738 25.9609 42.0824 26.4273C40.4821 27.3686 39.6646 29.0063 38.5644 30.3923C36.1227 31.3835 33.544 31.4313 31.0001 31.2295C29.0824 31.0755 27.1734 31.1775 25.2665 31.0473C24.0837 30.9649 23.1466 31.1449 22.6313 32.3618C22.4496 32.7511 22.1821 33.0945 21.8486 33.3661C21.3724 33.7652 20.718 34.1209 20.1766 33.7456C19.7265 33.4333 20.2592 32.9084 20.3592 32.4811C20.4033 32.3431 20.4631 32.2106 20.5375 32.0863C20.9093 31.3315 20.7767 31.0408 19.8352 31.043C10.4706 31.0712 1.10381 31.1081 -8.26298 30.8608C-9.95556 30.8252 -11.6434 30.6693 -13.3138 30.3945C-16.1165 29.9173 -18.0146 28.4922 -18.4951 25.5336C-18.7473 23.9741 -19.13 22.4362 -19.1887 20.8485C-19.1496 20.0112 -18.5691 19.495 -18.0407 18.9506C-17.9668 19.9895 -17.9494 21.0372 -17.8015 22.0675C-17.6493 23.1347 -17.3949 24.191 -16.7905 25.1215C-16.3187 25.8481 -14.2488 25.8199 -13.8487 25.0825C-13.7443 24.8894 -13.8487 24.7397 -13.9313 24.5836C-15.0989 22.2605 -15.3294 19.7726 -15.2794 17.2262C-15.2794 16.7772 -15.1011 16.2848 -15.4642 15.8792C-13.0072 13.1766 -10.3981 10.6409 -7.41936 8.50443C-7.26498 8.86883 -6.96494 8.92305 -6.61271 8.89703C-2.83599 8.6259 0.93638 8.268 4.71962 8.10749C9.80526 7.89058 14.8648 7.40906 19.9048 6.72798C21.1833 6.55662 22.5139 6.45034 23.8641 5.84735C23.6054 5.74974 23.5097 5.70418 23.4097 5.68032C21.8399 5.29423 20.2266 5.63695 18.6567 5.43306C15.3627 4.99925 12.0752 5.35931 8.80727 5.55886C4.17389 5.84083 -0.439936 6.43732 -5.06245 6.9015C-3.97531 5.89289 -2.79903 5.00575 -1.35313 4.55242C-0.516035 4.72378 0.277582 4.37022 1.1125 4.37673C6.92942 4.40854 12.7456 4.40854 18.5611 4.37673C21.1963 4.36155 21.2702 4.99708 19.9744 2.00379C20.1918 1.30319 20.6658 1.58517 21.0963 1.70446C21.4746 1.80641 21.7029 2.21202 22.1312 2.22287C22.7835 3.63058 23.5815 4.72811 25.4318 4.42011C26.3015 4.27261 27.2343 4.42011 28.1366 4.38757C30.724 4.28997 33.3027 3.95376 35.8988 4.38757C38.8406 4.8691 41.1757 6.36575 43.1413 8.50876C44.6872 10.1941 45.0438 12.2872 45.2482 14.4867C45.5656 18.0591 45.4569 21.5794 44.4741 25.0499ZM31.6915 17.6361C31.8503 15.9443 31.6133 14.042 31.2306 12.1745C30.8284 10.1985 30.3174 8.22896 28.7497 6.75183C28.5134 6.50655 28.2156 6.32875 27.8872 6.23684C27.5588 6.14494 27.2118 6.14226 26.882 6.2291C23.8794 6.8321 20.8506 7.27892 17.811 7.65633C16.4499 7.82552 16.4129 7.87324 16.7456 9.17466C18.1968 14.7801 18.1968 20.6614 16.7456 26.2668C16.4064 27.6116 16.4085 27.5986 17.8805 27.8176C20.731 28.2514 23.6032 28.5681 26.4167 29.1776C27.867 29.49 28.6932 28.9824 29.4325 27.9499C29.8558 27.365 30.1954 26.724 30.4413 26.0455C31.3979 23.3491 31.8224 20.4935 31.6915 17.6361ZM13.6624 17.6144C13.5515 15.8618 13.8168 14.055 13.445 12.2612C13.3037 11.578 12.9906 11.1767 12.3144 10.9858C11.0165 10.6456 9.6628 10.5718 8.33545 10.7689C7.3592 10.8882 6.45905 11.1897 6.3199 12.3718C5.91549 15.9568 5.91549 19.5757 6.3199 23.1607C6.40687 23.9611 6.93522 24.4448 7.84189 24.5814C9.1979 24.7896 10.5779 24.7896 11.9339 24.5814C12.871 24.4404 13.295 23.9958 13.4559 23.0631C13.7711 21.2628 13.5733 19.4603 13.6624 17.6144ZM23.7467 29.6613C23.5641 29.3707 23.3401 29.375 23.1358 29.3251C20.3592 28.657 17.5174 28.3425 14.6909 28.0888C9.23126 27.5986 3.74773 27.3578 -1.71623 26.9196C-3.48609 26.7765 -5.26465 26.8763 -7.01712 26.655C-8.19627 26.4873 -9.39575 26.527 -10.5612 26.7721C-10.9243 26.8502 -11.4766 26.9153 -11.4092 27.412C-11.3548 27.7938 -10.8438 27.7569 -10.4916 27.8068C-5.92563 28.4445 -1.33573 28.926 3.25851 29.3793C8.51157 29.8977 13.7625 30.3706 19.0394 30.1342C20.5788 30.0648 22.1791 30.1949 23.7467 29.6613Z" fill="#CFEAF3"/>
<path opacity="0.7" d="M140.853 90.0541C140.379 91.7611 139.235 93.0908 138.268 94.505C134.457 100.038 130.05 105.139 125.127 109.717C124.82 110.003 124.594 110.424 124.089 110.434C123.704 110.526 123.312 110.593 122.917 110.634C119.673 110.773 116.442 111.068 113.205 111.267C109.241 111.517 105.325 112.096 101.405 112.651C101.02 112.705 100.535 112.708 100.318 113.183C102.023 113.92 111.168 113.792 121.322 112.903C120.713 113.623 120.05 114.276 119.134 114.608C118.114 114.391 117.13 114.799 116.118 114.768C112.359 114.649 108.598 114.94 104.838 114.58C102.958 114.402 102.951 114.499 103.638 116.224C103.779 116.575 104.125 117.015 103.669 117.282C103.457 117.399 103.212 117.44 102.974 117.397C102.737 117.354 102.521 117.231 102.364 117.048C101.84 116.503 101.227 116.037 100.894 115.326C100.705 114.92 100.459 114.556 99.9375 114.56C98.0916 114.584 96.2412 114.482 94.4018 114.629C90.6729 114.927 86.944 115.141 83.6239 112.894C81.3605 111.376 79.4928 109.586 78.9536 106.702C78.3958 103.579 78.3137 100.391 78.71 97.2445C78.9623 95.1015 79.5798 93.1233 81.1909 91.5204C83.787 88.9501 86.8745 87.653 90.5294 87.6595C92.9211 87.6595 95.2889 87.9371 97.6784 87.9111C99.3157 87.8959 100.888 88.0217 101.623 86.1325C101.66 86.0392 101.766 85.972 101.84 85.8982C102.336 85.4254 102.875 84.7486 103.592 85.2041C104.31 85.6596 103.553 86.2474 103.403 86.7376C103.051 87.8872 103.003 87.859 104.206 87.8764C111.381 87.9805 118.536 87.6595 125.698 88.0716C128.873 88.2538 132.06 87.9263 135.237 88.2885C137.231 88.5314 139.14 88.9544 140.853 90.0541ZM96.6761 89.6745C96.4755 89.6307 96.2673 89.6344 96.0683 89.6852C95.8694 89.736 95.6851 89.8327 95.5303 89.9673C94.043 91.0237 93.4516 92.6266 93.0081 94.2642C91.8992 98.3681 91.8796 102.53 92.6189 106.693C92.9537 108.589 93.5625 110.408 94.8345 111.92C95.3976 112.588 96.0238 112.905 97.0088 112.725C100.094 112.172 103.201 111.734 106.308 111.313C107.239 111.187 107.43 110.879 107.178 109.968C106.528 107.532 106.151 105.031 106.054 102.511C105.889 99.0643 106.384 95.6806 107.219 92.3468C107.393 91.6483 107.319 91.3729 106.547 91.297C105.473 91.1907 104.414 90.9499 103.345 90.7894C101.033 90.438 98.7069 90.1387 96.6761 89.6745ZM100.309 89.2407C100.309 89.3318 100.29 89.4229 100.279 89.514C100.683 89.6203 101.083 89.7591 101.492 89.8242C104.375 90.2753 107.258 90.6918 110.167 90.9586C115.168 91.4271 120.169 91.6419 125.155 92.0431C126.953 92.1885 128.755 92.132 130.553 92.3598C131.934 92.5355 133.38 92.5962 134.737 92.0952C134.974 92.0084 135.276 91.9108 135.298 91.6397C135.328 91.2883 134.952 91.3143 134.737 91.2644C134.142 91.1213 133.54 91.0127 132.932 90.9391C129.425 90.5421 125.92 90.1344 122.409 89.77C118.06 89.3166 113.729 88.9154 109.363 88.7982C106.841 88.731 104.31 88.9045 101.783 88.9956C101.287 89.0449 100.795 89.1261 100.309 89.2385V89.2407Z" fill="#CFEAF3"/>
<path opacity="0.7" d="M124.309 3.74758C123.946 4.10764 123.485 3.95147 123.068 3.95147C115.241 3.95147 107.413 3.9775 99.5988 3.95147C93.2542 3.92978 88.7535 6.90354 86.1639 12.53C84.4767 16.1936 84.5028 20.0588 86.2183 23.8243C87.0662 25.6853 88.1751 27.3728 89.6971 28.7046C91.7955 30.596 94.4207 31.8063 97.2245 32.1751C99.14 32.4246 101.049 32.3573 102.96 32.3595C111.76 32.3768 120.561 32.3768 129.362 32.3595C133.359 32.3595 136.877 31.0255 139.766 28.2773C141.206 26.8969 142.314 25.2101 143.008 23.3428C143.132 23.0131 143.139 22.6248 143.443 22.3797C144.371 23.0673 144.761 24.1431 145.269 25.0888C147.496 29.2382 149.201 33.5958 150.155 38.2224H88.6513C88.6274 37.0707 88.5969 35.9211 88.586 34.7693C88.5295 29.0213 84.1157 24.5748 78.3452 24.5227C74.4467 24.4793 70.5483 24.4837 66.6498 24.4663C66.6607 17.4928 66.702 10.5215 66.6498 3.54802C66.6498 2.41795 66.9759 2.18152 68.0522 2.18369C85.4015 2.21839 102.75 2.22346 120.098 2.19888C120.548 2.19888 121.044 2.3724 121.448 2.00366C122.503 2.45699 123.388 3.11855 124.309 3.74758Z" fill="#F1FBFF"/>
<path opacity="0.7" d="M140.853 90.0538C139.14 88.9541 137.231 88.5355 135.233 88.3012C132.056 87.9368 128.869 88.2644 125.694 88.0843C118.532 87.67 111.366 87.9932 104.201 87.8891C102.999 87.8718 103.047 87.8891 103.399 86.7504C103.549 86.2602 104.286 85.6658 103.588 85.2168C102.89 84.7679 102.332 85.4338 101.836 85.9109C101.758 85.9847 101.651 86.0519 101.618 86.1452C100.883 88.0344 99.3115 87.9086 97.6742 87.9238C95.2825 87.9499 92.9126 87.6787 90.5252 87.6722C86.8703 87.6722 83.785 88.9628 81.1867 91.5331C79.5756 93.1252 78.9581 95.1142 78.7058 97.2572C78.3095 100.404 78.3916 103.592 78.9494 106.714C79.4821 109.599 81.3563 111.38 83.6197 112.907C86.9398 115.148 90.6687 114.933 94.3976 114.642C96.2436 114.495 98.0939 114.597 99.9333 114.573C100.444 114.573 100.701 114.933 100.89 115.338C101.223 116.05 101.836 116.516 102.36 117.061C102.517 117.244 102.733 117.367 102.97 117.41C103.208 117.452 103.453 117.412 103.664 117.295C104.121 117.028 103.775 116.588 103.634 116.236C102.947 114.512 102.953 114.414 104.834 114.592C108.593 114.952 112.355 114.662 116.114 114.781C117.125 114.811 118.11 114.395 119.13 114.62C118.769 115.488 117.847 115.738 117.206 116.282C116.029 117.28 114.705 118.106 113.429 118.982C113.233 119.066 113.024 119.116 112.812 119.128C112.527 118.802 112.142 118.911 111.794 118.911C97.2872 118.911 82.7812 118.911 68.2758 118.911C68.2541 118.588 68.2171 118.26 68.2171 117.941C68.2171 107.912 68.2367 97.8819 68.2019 87.8501C68.2019 86.8046 68.4867 86.4944 69.5347 86.5204C72.283 86.592 75.0335 86.5205 77.7818 86.553C82.0825 86.6224 85.2765 84.783 87.4617 81.1304C88.0422 81.1456 88.6206 81.1716 89.2011 81.1716H145.637C144.504 84.2386 142.825 87.028 141.232 89.8651C141.162 89.9649 140.977 89.9931 140.853 90.0538Z" fill="#F1FBFF"/>
<path opacity="0.7" d="M37.7211 40.9922C37.7364 41.3501 37.7668 41.7101 37.7668 42.0767C37.7668 53.0478 37.7668 64.0188 37.7668 74.9899C37.754 76.1804 37.823 77.3703 37.9734 78.5514C37.4298 78.5514 36.8862 78.5644 36.3448 78.5644C17.5634 78.5644 -1.21726 78.5644 -19.9972 78.5644C-20.4473 78.5644 -20.9452 78.3909 -21.3431 78.7813C-22.7151 76.5689 -23.5804 74.1222 -24.5132 71.7189C-26.0114 67.87 -27.1178 63.8806 -27.8159 59.8108C-28.5943 55.2558 -28.6856 50.6466 -28.4682 46.0461C-28.3921 44.3803 -28.3073 42.6797 -27.8507 41.0421H36.634C36.9993 41.0399 37.3602 41.0074 37.7211 40.9922ZM7.64436 46.4625C2.35652 46.4625 -2.93349 46.5298 -8.22786 46.4452C-14.4615 46.3454 -19.8341 51.0132 -21.4692 56.7612C-22.3932 59.8651 -22.1616 63.1975 -20.8169 66.1445C-19.034 70.0835 -16.1096 72.7883 -11.9024 74.0897C-9.65418 74.7838 -7.34945 74.7708 -5.05558 74.851C-2.48559 74.94 0.0887527 74.9053 2.65875 74.864C9.5686 74.7556 16.4785 75.0528 23.3883 74.6884C27.3325 74.4714 30.5634 72.9661 33.2421 70.1767C36.5601 66.7366 37.3733 62.533 36.784 57.9889C36.3709 54.8372 34.7663 52.2582 32.4355 50.113C29.9329 47.8225 27.065 46.4604 23.6188 46.4625H7.64436Z" fill="#F1FBFF"/>
<path opacity="0.7" d="M88.6647 46.7289C88.5603 44.3994 88.5559 42.072 88.6647 39.7424C88.9125 41.0612 89.954 41.0439 90.9346 41.0439C110.89 41.0439 130.846 41.0439 150.801 41.0439C151.084 43.3582 151.503 45.6661 151.616 47.9848C151.758 50.9347 151.853 53.8955 151.534 56.8497C151.36 58.4548 151.338 60.0794 151.125 61.6802C150.782 64.5255 150.257 67.3459 149.553 70.1243C148.783 73.0091 147.972 75.8657 146.694 78.5836H88.3733C88.7147 77.0652 88.5277 75.5122 88.6581 73.9808C91.6565 73.957 94.657 74.1977 97.6553 73.8312C98.7729 73.6945 99.9861 73.5427 100.58 74.9461C100.729 75.1954 100.939 75.404 101.188 75.5534C101.469 75.7703 101.762 76.0501 102.158 75.8028C102.32 75.7119 102.445 75.5692 102.515 75.3979C102.585 75.2266 102.595 75.0368 102.543 74.8593C102.186 73.688 102.934 73.8008 103.68 73.7943C114.758 73.6707 125.84 74.0763 136.916 73.5774C139.96 73.4408 142.924 72.8898 145.868 72.1567C146.379 72.0386 146.854 71.801 147.255 71.4634C147.656 71.1259 147.97 70.6981 148.172 70.2154C148.809 68.879 149.318 67.4862 149.694 66.0551C151.084 60.7128 150.512 55.5591 148.209 50.5725C147.803 49.6919 147.196 48.9479 146.229 48.6854C142.334 47.595 138.315 47.0118 134.27 46.9502C124.018 46.8591 113.764 46.9198 103.511 46.9198C102.906 46.9198 102.189 47.076 102.537 46.011C102.641 45.6921 102.639 45.267 102.241 45.0501C101.843 44.8332 101.515 44.9959 101.225 45.2128C100.882 45.4687 100.46 45.742 100.304 46.1064C99.9818 46.8634 99.4469 46.974 98.7403 46.9198C95.3872 46.684 92.0243 46.6203 88.6647 46.7289Z" fill="#F1FBFF"/>
<path opacity="0.7" d="M-19.1988 20.8572C-19.1401 22.4449 -18.7639 23.9828 -18.5052 25.5423C-18.0247 28.5009 -16.1265 29.926 -13.3239 30.4032C-11.6535 30.678 -9.96563 30.8339 -8.27305 30.8695C1.09374 31.1168 10.4605 31.0864 19.8251 31.0517C20.7666 31.0517 20.8992 31.3402 20.5274 32.095C20.453 32.2193 20.3932 32.3518 20.3491 32.4898C20.2491 32.9236 19.7164 33.442 20.1665 33.7543C20.7079 34.1296 21.3624 33.7739 21.8385 33.3747C22.177 33.1019 22.4484 32.7554 22.6321 32.3618C23.1474 31.145 24.0845 30.9649 25.2673 31.0474C27.1742 31.1775 29.0832 31.0756 31.0009 31.2296C33.5448 31.4313 36.1235 31.3836 38.5652 30.3923C37.6803 32.954 37.7651 35.6219 37.7173 38.2725C37.1737 38.2573 36.6301 38.2247 36.0887 38.2247H-27.2175C-27.1827 36.5329 -26.4783 35.0037 -25.9804 33.4376C-24.8775 30.0492 -23.3654 26.8073 -21.4774 23.7832C-20.8339 22.7377 -20.299 21.5665 -19.1988 20.8572Z" fill="#F6FDFF"/>
<path opacity="0.7" d="M8.42487 -0.610409C26.6627 -0.610409 44.8998 -0.600283 63.1362 -0.580039C63.9211 -0.580039 64.1124 -0.857676 64.1059 -1.58864C64.0755 -4.72942 64.0929 -7.87888 64.0929 -11.011H66.702C66.702 -7.87237 66.7216 -4.73376 66.689 -1.59515C66.689 -0.857676 66.8868 -0.588713 67.6652 -0.590881C83.6534 -0.615464 99.6416 -0.624864 115.63 -0.61908C117.545 -0.48243 118.978 0.784293 120.644 1.50875C120.931 1.65626 121.207 1.82293 121.472 2.00763C121.068 2.37637 120.572 2.20285 120.122 2.20285C102.774 2.21441 85.4254 2.20936 68.0762 2.18767C66.9999 2.18767 66.6672 2.42192 66.6738 3.55199C66.7194 10.5255 66.6738 17.4968 66.6738 24.4703H64.132C64.132 17.4643 64.0907 10.4582 64.132 3.45005C64.132 2.45879 63.8711 2.17682 62.8644 2.17899C49.2882 2.21369 35.7113 2.22237 22.1337 2.20502C21.6988 2.19417 21.4814 1.78856 21.0987 1.68662C20.6639 1.56732 20.1877 1.28534 19.9768 1.98594C16.6523 1.98594 13.3257 1.95558 10.0012 1.99896C8.02045 2.02716 6.03099 1.78205 4.06109 2.1855C3.71755 2.25491 3.3088 2.27009 3.224 1.75169C4.84166 0.753925 6.50715 -0.200459 8.42487 -0.610409Z" fill="#CFEAF3"/>
<path opacity="0.7" d="M68.1824 132.116C68.2114 128.646 68.2404 125.175 68.2693 121.705C81.2498 121.705 94.2302 121.714 107.211 121.733C107.693 121.733 108.174 121.403 108.657 121.711C107.172 122.806 105.48 123.535 103.838 124.34C100.091 126.195 96.1923 127.728 92.1842 128.923C88.731 129.933 85.2187 130.73 81.6672 131.309C77.1839 132.057 72.6962 132.179 68.1824 132.116Z" fill="#F1FBFF"/>
<path opacity="0.7" d="M-27.218 38.2201H36.0883C36.6319 38.2201 37.1754 38.2526 37.7168 38.2678C37.7168 39.1766 37.7168 40.0811 37.7168 40.9878C37.3581 41.003 36.9971 41.0355 36.6297 41.0355H-27.8594C-27.7941 40.0638 -27.7376 39.0899 -27.218 38.2201Z" fill="#CFEAF3"/>
<path opacity="0.7" d="M58.1136 121.688C58.1267 124.859 58.1404 128.03 58.1549 131.201C56.5068 131.342 54.9479 130.8 53.3715 130.526C48.462 129.68 43.6916 128.271 38.9648 126.733C35.0959 125.458 31.303 123.965 27.6042 122.26C27.3672 122.152 27.1519 122.024 27.1345 121.722C28.2543 121.722 29.374 121.722 30.4938 121.722L58.1136 121.688Z" fill="#F1FBFF"/>
<path opacity="0.7" d="M150.81 41.0291C130.854 41.0291 110.899 41.0291 90.9433 41.0291C89.9627 41.0291 88.9212 41.0552 88.6734 39.7277C88.5766 39.2306 88.5766 38.7195 88.6734 38.2224H150.177L150.81 41.0291Z" fill="#CFEAF3"/>
<path opacity="0.7" d="M-21.3451 78.7767C-20.9472 78.3928 -20.4493 78.5598 -19.9992 78.5598C-1.21781 78.5512 17.5629 78.5512 36.3428 78.5598C36.8864 78.5598 37.43 78.5598 37.9714 78.5468C38.3236 79.4694 38.6751 80.3919 39.0259 81.3145C38.4845 81.334 37.9387 81.3752 37.4017 81.3752H-19.8231C-20.5231 80.6367 -21.0438 79.7477 -21.3451 78.7767Z" fill="#CFEAF3"/>
<path opacity="0.7" d="M88.3816 78.5667H146.702C146.509 79.4955 146.14 80.3789 145.615 81.1695H89.1796C88.6012 81.1695 88.0229 81.1435 87.4402 81.1283C87.7591 80.2722 88.0729 79.4184 88.3816 78.5667Z" fill="#CFEAF3"/>
<path opacity="0.7" d="M108.657 121.711C108.174 121.403 107.694 121.733 107.211 121.733C94.2306 121.704 81.2501 121.694 68.2697 121.705C68.1715 121.13 68.1715 120.544 68.2697 119.969C68.3183 119.933 68.3577 119.887 68.3849 119.833C68.4121 119.779 68.4263 119.719 68.4263 119.659C68.4263 119.599 68.4121 119.539 68.3849 119.486C68.3577 119.432 68.3183 119.385 68.2697 119.349V118.915C82.775 118.915 97.2811 118.915 111.788 118.915C112.136 118.915 112.521 118.809 112.805 119.132C111.594 120.26 110.135 120.995 108.657 121.711Z" fill="#CFEAF3"/>
<path opacity="0.7" d="M58.1136 121.687L30.485 121.713C29.3653 121.713 28.2456 121.713 27.1258 121.713C26.3148 121.819 25.6582 121.411 24.9907 121.062C23.7491 120.411 22.4272 119.902 21.2552 119.11C21.5053 118.813 21.8488 118.893 22.1663 118.893L58.1092 118.912C58.1121 119.839 58.1136 120.764 58.1136 121.687Z" fill="#CFEAF3"/>
<path opacity="0.7" d="M-5.07681 6.90353C-0.454296 6.43935 4.15953 5.84286 8.79291 5.56089C12.0543 5.36134 15.3484 5.00561 18.6424 5.43509C20.2122 5.63898 21.8255 5.29626 23.3953 5.68235C23.4954 5.70621 23.591 5.75177 23.8498 5.84938C22.5017 6.45237 21.1689 6.55865 19.8904 6.73001C14.8504 7.41109 9.7909 7.89478 4.70527 8.10952C0.922032 8.27003 -2.85034 8.62793 -6.62705 8.89906C-6.97929 8.92509 -7.27934 8.87086 -7.43372 8.50646C-6.67924 7.92949 -5.98131 7.26359 -5.07681 6.90353Z" fill="#80D3F1"/>
<path opacity="0.7" d="M121.307 112.906C111.153 113.796 102.008 113.924 100.303 113.186C100.521 112.711 101.014 112.709 101.39 112.655C105.304 112.099 109.218 111.52 113.19 111.271C116.428 111.067 119.659 110.776 122.903 110.638C123.297 110.597 123.689 110.53 124.075 110.438C123.388 111.51 122.374 112.243 121.307 112.906Z" fill="#80D3F1"/>
<path opacity="0.7" d="M88.665 46.7294C92.0265 46.6155 95.3916 46.6741 98.7471 46.9051C99.4537 46.9507 99.9886 46.8487 100.31 46.0917C100.467 45.7273 100.889 45.454 101.232 45.1981C101.521 44.9812 101.885 44.8358 102.248 45.0354C102.611 45.2349 102.648 45.6861 102.543 45.9963C102.195 47.0613 102.913 46.9051 103.517 46.9051C113.771 46.9051 124.025 46.8444 134.277 46.9355C138.321 46.9971 142.341 47.5803 146.235 48.6707C147.203 48.9332 147.81 49.6772 148.216 50.5578C150.519 55.5466 151.091 60.6981 149.701 66.0405C149.325 67.4715 148.816 68.8643 148.179 70.2007C147.977 70.6834 147.662 71.1112 147.262 71.4487C146.861 71.7863 146.385 72.0239 145.875 72.142C142.931 72.8751 139.956 73.4261 136.923 73.5627C125.847 74.0551 114.765 73.6495 103.687 73.7796C102.941 73.7796 102.193 73.6733 102.55 74.8446C102.602 75.0221 102.592 75.212 102.522 75.3832C102.452 75.5545 102.326 75.6972 102.165 75.7882C101.769 76.0354 101.476 75.7448 101.195 75.5387C100.945 75.3893 100.736 75.1807 100.587 74.9314C99.9929 73.528 98.7797 73.6798 97.6621 73.8165C94.6638 74.1787 91.6633 73.9423 88.665 73.9661C88.6454 72.129 88.6128 70.2918 88.6106 68.4568C88.6106 61.6098 88.6106 54.7629 88.6106 47.9159C88.6149 47.519 88.6476 47.1242 88.665 46.7294ZM92.5787 60.1233C92.5787 61.1796 92.5156 62.0884 92.5787 62.9843C92.7765 65.355 92.9874 67.7301 94.0832 69.91C94.7986 71.3329 95.9249 72.0335 97.549 72.0791C100.158 72.1528 102.641 71.6583 105.137 71.0162C105.896 70.821 106.04 70.6193 105.874 69.8623C105.203 66.8748 104.839 63.8266 104.787 60.7653C104.773 57.483 105.126 54.2093 105.837 51.0046C106.005 50.2172 105.94 49.8854 105.061 49.6533C103.415 49.2195 101.756 48.7857 100.076 48.6924C96.3989 48.4755 94.5029 48.2282 93.294 52.9828C92.6961 55.3134 92.4557 57.7208 92.5808 60.1233H92.5787ZM144.544 60.4486C144.511 57.1951 144.042 54.1064 142.691 51.1564C142.317 50.3344 141.848 50.0719 141.035 50.163C138.773 50.3994 136.506 50.5361 134.231 50.612C132.531 50.6706 132.535 50.7205 132.957 52.3299C132.994 52.4687 132.977 52.6205 133.016 52.7637C133.925 56.0368 134.014 59.3901 133.829 62.7413C133.712 64.8475 133.536 66.9883 132.694 68.9752C132.368 69.743 132.607 70.077 133.346 70.0597C135.955 70.0272 138.532 70.3959 141.126 70.5391C141.996 70.5889 142.43 70.2224 142.759 69.4545C144.009 66.5632 144.518 63.533 144.55 60.4486H144.544ZM140.258 49.4017V48.9549C127.171 47.545 114.024 47.8313 100.882 47.8183C105.379 49.1436 109.999 49.6663 114.645 49.6511C119.596 49.6381 124.541 50.137 129.5 49.7509C131.879 49.5665 134.283 49.7314 136.675 49.6815C137.871 49.6555 139.067 49.4993 140.265 49.4017H140.258ZM101.108 72.8578C107.572 72.7905 114.043 73.0747 120.514 72.7428C124.267 72.5454 128.032 72.8361 131.787 72.4869C134.009 72.27 136.253 72.2873 138.458 71.8752C139.047 71.7667 139.73 71.9923 140.252 71.4978C140.069 71.1984 139.841 71.2136 139.628 71.205C137.671 71.1312 135.732 71.0054 133.783 70.988C126.371 70.9577 118.957 70.8471 111.545 71.1702C108.015 71.3561 104.516 71.9219 101.108 72.8578Z" fill="#CFEAF3"/>
<path opacity="0.7" d="M22.1165 2.22708C35.6926 2.22708 49.2696 2.2184 62.8472 2.20105C63.8539 2.20105 64.1192 2.48085 64.1148 3.47211C64.0822 10.4803 64.1148 17.4863 64.1148 24.4923C63.5082 24.6919 62.895 24.5249 62.2862 24.5292C57.4485 24.5531 52.6085 24.5878 47.7708 24.5639C46.6293 24.5639 45.5726 24.9283 44.4659 25.0476C45.4486 21.5771 45.553 18.059 45.2247 14.4822C45.0203 12.2828 44.6637 10.1896 43.1178 8.5043C41.161 6.36128 38.8171 4.86464 35.8753 4.38311C33.2792 3.9493 30.7005 4.29418 28.1131 4.38311C27.2108 4.41782 26.2867 4.26815 25.4083 4.41564C23.5667 4.73449 22.7622 3.63479 22.1165 2.22708Z" fill="#F1FBFF"/>
<path opacity="0.7" d="M68.2721 119.343C68.3207 119.379 68.3601 119.426 68.3873 119.48C68.4145 119.534 68.4287 119.593 68.4287 119.653C68.4287 119.714 68.4145 119.773 68.3873 119.827C68.3601 119.881 68.3207 119.928 68.2721 119.964C68.2743 119.758 68.2721 119.549 68.2721 119.343Z" fill="#CEF3E5"/>
<path opacity="0.7" d="M31.6919 17.6359C31.8243 20.4914 31.402 23.3455 30.4482 26.041C30.2022 26.7195 29.8627 27.3605 29.4393 27.9454C28.7001 28.9779 27.8738 29.4854 26.4236 29.1731C23.6101 28.5636 20.7379 28.2361 17.8874 27.8131C16.4154 27.5962 16.4132 27.607 16.7524 26.2622C18.2037 20.6569 18.2037 14.7755 16.7524 9.17016C16.4197 7.86873 16.4567 7.82969 17.8178 7.65182C20.8618 7.27441 23.8862 6.82758 26.8889 6.22459C27.2187 6.13775 27.5657 6.14043 27.8941 6.23234C28.2225 6.32425 28.5202 6.50204 28.7566 6.74733C30.3243 8.22011 30.8352 10.1896 31.2375 12.1699C31.6136 14.0418 31.8506 15.9441 31.6919 17.6359Z" fill="#80D3F1"/>
<path opacity="0.7" d="M13.6629 17.6142C13.5737 19.4601 13.7716 21.2625 13.4607 23.0628C13.2998 23.9934 12.8758 24.438 11.9387 24.5812C10.5826 24.7894 9.20268 24.7894 7.84667 24.5812C6.93347 24.4445 6.40512 23.9608 6.32467 23.1605C5.92026 19.5755 5.92026 15.9566 6.32467 12.3716C6.46383 11.1895 7.36398 10.888 8.34023 10.7687C9.66759 10.5716 11.0212 10.6453 12.3192 10.9856C12.9954 11.1765 13.3085 11.5777 13.4498 12.261C13.8172 14.0613 13.552 15.8616 13.6629 17.6142Z" fill="#80D3F1"/>
<path opacity="0.7" d="M23.7473 29.661C22.1797 30.1946 20.5794 30.0644 19.04 30.1339C13.7631 30.3703 8.51218 29.8974 3.25913 29.379C-1.33512 28.9257 -5.92067 28.4442 -10.491 27.8065C-10.8432 27.7566 -11.3607 27.7934 -11.4085 27.4117C-11.476 26.915 -10.9237 26.8499 -10.5606 26.7718C-9.39514 26.5266 -8.19566 26.487 -7.01651 26.6547C-5.26404 26.8716 -3.48548 26.7762 -1.71562 26.9193C3.74834 27.3531 9.23187 27.5982 14.6915 28.0884C17.518 28.3422 20.3598 28.6567 23.1364 29.3248C23.3407 29.3747 23.5647 29.3704 23.7473 29.661Z" fill="#80D3F1"/>
<path opacity="0.7" d="M96.6766 89.674C98.7073 90.1382 101.025 90.4375 103.352 90.7889C104.421 90.9494 105.48 91.1902 106.554 91.2965C107.326 91.3724 107.4 91.6478 107.226 92.3463C106.391 95.6801 105.895 99.0703 106.061 102.51C106.158 105.03 106.535 107.531 107.185 109.968C107.437 110.881 107.246 111.187 106.315 111.312C103.208 111.733 100.101 112.18 97.0157 112.724C96.0243 112.905 95.3981 112.588 94.8415 111.92C93.5695 110.401 92.9607 108.588 92.6259 106.692C91.8866 102.53 91.9062 98.3676 93.0151 94.2637C93.4499 92.6261 94.05 91.0232 95.5372 89.9668C95.6913 89.8332 95.8745 89.7371 96.0722 89.6863C96.27 89.6354 96.4769 89.6313 96.6766 89.674Z" fill="#80D3F1"/>
<path opacity="0.7" d="M100.31 89.2382C100.798 89.1261 101.293 89.0457 101.791 88.9974C104.317 88.9063 106.848 88.7328 109.371 88.8C113.719 88.9172 118.068 89.3184 122.416 89.7718C125.928 90.1362 129.433 90.544 132.94 90.9409C133.547 91.0145 134.15 91.1231 134.744 91.2663C134.962 91.3161 135.336 91.2901 135.305 91.6415C135.284 91.9126 134.981 92.0102 134.744 92.097C133.379 92.5981 131.942 92.5308 130.561 92.3616C128.763 92.1447 126.96 92.1903 125.162 92.045C120.161 91.6393 115.161 91.4246 110.175 90.9604C107.266 90.6893 104.383 90.2772 101.5 89.826C101.091 89.7609 100.691 89.6221 100.286 89.5158C100.291 89.4204 100.302 89.3271 100.31 89.2382Z" fill="#80D3F1"/>
<path opacity="0.7" d="M7.64443 46.4626H23.6189C27.0651 46.4626 29.9243 47.8226 32.4355 50.1132C34.7772 52.2583 36.3819 54.8373 36.7841 57.989C37.3798 62.544 36.5667 66.7367 33.2422 70.1768C30.5526 72.9662 27.3325 74.4824 23.3884 74.6885C16.4785 75.0529 9.56866 74.7557 2.65881 74.8641C0.0888138 74.9054 -2.48553 74.9401 -5.05552 74.8511C-7.34939 74.7709 -9.65412 74.7839 -11.9023 74.0898C-16.1052 72.7884 -19.0296 70.0836 -20.8169 66.1446C-22.1615 63.1976 -22.3932 59.8652 -21.4691 56.7613C-19.8341 51.0133 -14.4615 46.3498 -8.2278 46.4453C-2.93778 46.5299 2.35658 46.4626 7.64443 46.4626Z" fill="#CFEAF3"/>
<path opacity="0.7" d="M92.5806 60.1229C92.4627 57.7224 92.7098 55.3178 93.3133 52.9911C94.5222 48.2365 96.4182 48.4773 100.095 48.7007C101.776 48.8026 103.435 49.2278 105.081 49.6616C105.95 49.8937 106.024 50.2255 105.857 51.0129C105.145 54.2175 104.793 57.4912 104.807 60.7736C104.858 63.8349 105.222 66.883 105.894 69.8706C106.059 70.6276 105.915 70.8293 105.157 71.0245C102.661 71.6752 100.167 72.1611 97.5684 72.0874C95.9442 72.0418 94.8179 71.3412 94.1026 69.9183C93.0155 67.7384 92.798 65.3633 92.598 62.9925C92.5132 62.0881 92.5806 61.1792 92.5806 60.1229Z" fill="#80D3F1"/>
<path opacity="0.7" d="M140.265 49.4016C139.067 49.4992 137.873 49.6553 136.673 49.6814C134.281 49.7313 131.89 49.5664 129.498 49.7508C124.538 50.1369 119.594 49.638 114.643 49.651C109.997 49.6662 105.377 49.1435 100.88 47.8182C114.021 47.8312 127.169 47.5449 140.256 48.9547L140.265 49.4016Z" fill="#80D3F1"/>
<path opacity="0.7" d="M101.108 72.8576C104.516 71.9247 108.015 71.3618 111.545 71.1788C118.957 70.8556 126.371 70.9619 133.783 70.9966C135.74 70.9966 137.679 71.1311 139.628 71.2135C139.845 71.2135 140.062 71.2135 140.252 71.5063C139.73 72.0009 139.047 71.7753 138.458 71.8837C136.253 72.2959 134.009 72.2893 131.787 72.4954C128.032 72.8446 124.266 72.554 120.513 72.7513C114.038 73.0832 107.572 72.7904 101.108 72.8576Z" fill="#80D3F1"/>
<path d="M70.4 100.266H55.4667V106.666H70.4V100.266Z" fill="#008CC9"/>
<path d="M70.4 106.667H55.4667V155.733H70.4V106.667Z" fill="#00A7E3"/>
<path d="M81.2712 23.4667H44.5954C37.6392 23.4667 32 29.1942 32 36.2595V87.4738C32 94.5391 37.6392 100.267 44.5954 100.267H81.2712C88.2275 100.267 93.8667 94.5391 93.8667 87.4738V36.2595C93.8667 29.1942 88.2275 23.4667 81.2712 23.4667Z" fill="#00A7E3"/>
</g>
<path d="M73.6519 81.0668H51.7249V42.9939H73.6519V49.6085H59.7978V57.9679H72.6884V64.5824H59.7978V74.4001H73.6519V81.0668Z" fill="white"/>
</svg>
