<svg width="32" height="32" viewBox="0 0 32 32" fill="none" xmlns="http://www.w3.org/2000/svg">
<circle cx="16" cy="16" r="16" fill="white"/>
<path d="M21.6539 9.36281H18.6925V8.82437C18.6925 7.93224 17.9693 7.20905 17.0772 7.20905H14.9234C14.0313 7.20905 13.3081 7.93224 13.3081 8.82437V9.36281H10.3467C9.60325 9.36281 9.00056 9.96549 9.00056 10.7089V11.7858C9.00056 12.0832 9.24162 12.3242 9.539 12.3242H22.4616C22.759 12.3242 23 12.0832 23 11.7858V10.7089C23 9.96549 22.3973 9.36281 21.6539 9.36281ZM14.385 8.82437C14.385 8.52755 14.6266 8.28593 14.9234 8.28593H17.0772C17.374 8.28593 17.6156 8.52755 17.6156 8.82437V9.36281H14.385V8.82437Z" fill="#979797"/>
<path d="M10.0226 13.4015C9.92656 13.4015 9.85 13.4818 9.85458 13.5778L10.2988 22.9009C10.3398 23.7638 11.0486 24.4395 11.9121 24.4395H20.089C20.9525 24.4395 21.6612 23.7638 21.7023 22.9009L22.1465 13.5778C22.1511 13.4818 22.0745 13.4015 21.9784 13.4015H10.0226ZM18.1543 14.7476C18.1543 14.4501 18.3953 14.2091 18.6927 14.2091C18.9902 14.2091 19.2312 14.4501 19.2312 14.7476V21.7473C19.2312 22.0448 18.9902 22.2857 18.6927 22.2857C18.3953 22.2857 18.1543 22.0448 18.1543 21.7473V14.7476ZM15.4621 14.7476C15.4621 14.4501 15.703 14.2091 16.0005 14.2091C16.298 14.2091 16.539 14.4501 16.539 14.7476V21.7473C16.539 22.0448 16.298 22.2857 16.0005 22.2857C15.703 22.2857 15.4621 22.0448 15.4621 21.7473V14.7476ZM12.7699 14.7476C12.7699 14.4501 13.0108 14.2091 13.3083 14.2091C13.6058 14.2091 13.8468 14.4501 13.8468 14.7476V21.7473C13.8468 22.0448 13.6058 22.2857 13.3083 22.2857C13.0108 22.2857 12.7699 22.0448 12.7699 21.7473V14.7476Z" fill="#979797"/>
</svg>
