<svg width="160" height="160" viewBox="0 0 160 160" fill="none" xmlns="http://www.w3.org/2000/svg">
<path d="M147.312 48.439C142.998 50.849 138.026 52.2225 132.733 52.2225C116.199 52.2225 102.795 38.8191 102.795 22.2851C102.795 18.9924 103.327 15.8238 104.309 12.8605C101.1 12.295 97.7967 12 94.425 12H61.575C30.3295 12 5 37.3295 5 68.575V101.425C5 132.671 30.3295 158 61.575 158H94.425C125.671 158 151 132.671 151 101.425V68.575C151 61.4825 149.695 54.6948 147.312 48.439Z" fill="#F1F1F1"/>
<circle cx="133" cy="22" r="22" fill="#F1F1F1"/>
<path d="M125.5 30L141.5 14" stroke="#B0B0B0" stroke-width="3.81773" stroke-linecap="round" stroke-linejoin="round"/>
<path d="M141.5 30L125.5 14" stroke="#B0B0B0" stroke-width="3.81773" stroke-linecap="round" stroke-linejoin="round"/>
<path d="M104.125 108.125H56.875V71H104.125M104.125 54.125H100.75V47.375H94V54.125H67V47.375H60.25V54.125H56.875C55.0848 54.125 53.3679 54.8362 52.102 56.102C50.8362 57.3679 50.125 59.0848 50.125 60.875V108.125C50.125 109.915 50.8362 111.632 52.102 112.898C53.3679 114.164 55.0848 114.875 56.875 114.875H104.125C105.915 114.875 107.632 114.164 108.898 112.898C110.164 111.632 110.875 109.915 110.875 108.125V60.875C110.875 59.0848 110.164 57.3679 108.898 56.102C107.632 54.8362 105.915 54.125 104.125 54.125ZM95.7888 81.3275L92.2113 77.75L75.7413 94.22L68.5863 87.065L65.0087 90.6425L75.7413 101.375L95.7888 81.3275Z" fill="#B0B0B0"/>
</svg>
