<svg width="81" height="81" viewBox="0 0 81 81" fill="none" xmlns="http://www.w3.org/2000/svg">
<circle cx="40.5" cy="40.5" r="36.75" stroke="white" stroke-width="7.5"/>
<path d="M48.1912 32.571L55.7554 33.6431C57.9003 33.947 58.7597 36.5382 57.21 38.0276L51.7435 43.28C51.1278 43.8715 50.8479 44.7229 50.9942 45.5569L52.295 52.9632C52.6638 55.0634 50.4241 56.668 48.5045 55.6786L41.736 52.1892C40.9737 51.7964 40.0636 51.7971 39.3025 52.1919L32.5422 55.6975C30.6253 56.6915 28.3813 55.092 28.745 52.9911L30.0278 45.5816C30.172 44.7473 29.8902 43.8963 29.273 43.3063L23.7947 38.0666C22.241 36.5808 23.0941 33.9876 25.2387 33.6787L32.8001 32.5892C33.6516 32.4666 34.3872 31.9396 34.7669 31.1803L38.1412 24.4362C39.0981 22.5239 41.8692 22.5204 42.8304 24.4308L46.2208 31.1667C46.6025 31.9249 47.3393 32.4504 48.1912 32.571Z" fill="white"/>
</svg>
