<svg width="257" height="319" viewBox="0 0 257 319" fill="none" xmlns="http://www.w3.org/2000/svg">
<path d="M237.144 300.228C233.346 301.176 229.485 301.85 225.591 302.246C205.125 304.234 184.675 306.088 164.272 307.936L125.299 311.522C101.917 313.684 78.4705 315.872 55.012 317.927C51.1087 318.266 47.184 318.283 43.2775 317.977C34.5298 317.285 29.1139 312.628 27.1725 304.012C26.11 299.253 25.3482 294.432 24.8916 289.577C17.5103 210.377 10.1853 131.172 2.91655 51.962C2.45601 47.1066 2.32067 42.226 2.51141 37.3529C2.90287 28.0842 7.5588 22.5813 16.6712 20.4657C20.7861 19.4841 24.962 18.7805 29.171 18.3599C51.9246 16.1703 74.6861 14.0652 97.4475 11.9602L97.5658 11.9493L101.008 11.6309C104.398 21.6898 109.364 25.8847 117.049 25.5159C125.667 25.1084 129.369 21.1566 132.52 8.68816C145.969 7.4443 159.529 6.05731 173.113 4.93403C184.82 3.97481 196.542 2.76725 208.269 2.63259C219.11 2.53238 224.86 8.14606 226.802 18.9182C227.784 24.5265 228.579 30.1521 229.101 35.8028C236.272 112.654 243.357 189.509 250.358 266.369C250.946 272.475 251.024 278.619 250.591 284.737C249.931 293.252 245.357 298.205 237.144 300.228Z" fill="#F4F4F4"/>
<path d="M226.767 312.409C230.681 312.373 234.587 312.057 238.457 311.464C246.821 310.206 251.832 305.694 253.273 297.276C254.268 291.224 254.756 285.099 254.733 278.966C254.84 201.787 254.862 124.606 254.799 47.4211C254.799 41.7463 254.526 36.0714 254.064 30.3965C253.122 19.4913 247.914 13.3719 237.11 12.4734C227.608 11.7046 218.043 11.642 208.488 11.5794C206.288 11.565 204.089 11.5506 201.891 11.5276C192.796 11.4392 183.7 11.4688 174.641 11.4983C170.125 11.5129 165.618 11.5276 161.125 11.5276C156.839 23.6529 152.789 27.247 144.17 26.8592C136.484 26.5187 131.925 21.8843 129.476 11.556L125.9 11.556C103.042 11.556 80.1831 11.556 57.3246 11.641C53.0947 11.6722 48.8718 11.9882 44.684 12.5868C35.4155 13.8542 30.2726 18.9049 29.0292 28.0982C28.3905 32.9331 28.0759 37.8054 28.0873 42.6826C28.0308 122.225 28.0308 201.768 28.0873 281.311C28.0949 286.188 28.4095 291.059 29.0292 295.896C30.1689 304.654 35.1329 309.79 43.7798 311.284C47.6415 311.948 51.551 312.293 55.469 312.315C76.0597 312.414 96.6504 312.412 117.197 312.41C120.148 312.41 123.098 312.409 126.047 312.409L165.184 312.428C185.671 312.466 206.205 312.504 226.767 312.409Z" fill="white"/>
<path fill-rule="evenodd" clip-rule="evenodd" d="M201.871 13.5275C192.791 13.4393 183.708 13.4688 174.647 13.4983L174.646 13.4983C170.6 13.5114 166.559 13.5246 162.528 13.5271C160.515 18.9441 158.407 22.8525 155.611 25.3716C152.463 28.2078 148.706 29.0653 144.08 28.8572C139.813 28.6679 136.238 27.2604 133.42 24.3423C130.933 21.7667 129.171 18.1526 127.921 13.556H125.9C103.042 13.556 80.1887 13.556 57.3356 13.6409C53.1968 13.6717 49.0647 13.981 44.967 14.5667L44.955 14.5684C40.623 15.1607 37.4652 16.6057 35.2533 18.7925C33.0451 20.9758 31.5907 24.0852 31.0116 28.3633C30.3849 33.1087 30.0761 37.8909 30.0873 42.6779L30.0873 42.684C30.0308 122.226 30.0308 201.767 30.0873 281.309C30.0948 286.101 30.4039 290.887 31.0128 295.64C31.5408 299.694 32.9273 302.737 35.0317 304.928C37.1367 307.12 40.1163 308.621 44.1204 309.313C47.8734 309.959 51.6727 310.294 55.4801 310.315C76.0592 310.414 96.6391 310.412 117.181 310.41H117.199C120.149 310.41 123.099 310.409 126.047 310.409L165.188 310.428C185.674 310.466 206.2 310.504 226.753 310.409C226.755 310.409 226.756 310.409 226.758 310.409L226.767 312.409L226.749 310.409C226.75 310.409 226.751 310.409 226.753 310.409C230.57 310.374 234.38 310.066 238.153 309.487L238.159 309.486C242.054 308.9 244.982 307.586 247.089 305.6C249.185 303.623 250.636 300.821 251.301 296.946C251.3 296.948 251.3 296.95 251.3 296.952L253.273 297.276L251.302 296.939C251.301 296.941 251.301 296.944 251.301 296.946C252.277 291.006 252.756 284.994 252.733 278.973L252.733 278.963C252.84 201.786 252.862 124.606 252.799 47.4228V47.4211C252.799 41.8115 252.529 36.1932 252.071 30.5632C252.071 30.565 252.072 30.5668 252.072 30.5686L254.064 30.3965L252.071 30.5586C252.071 30.5602 252.071 30.5617 252.071 30.5632C251.622 25.3746 250.181 21.6049 247.815 19.038C245.472 16.4965 241.993 14.8869 236.946 14.4667C236.947 14.4668 236.948 14.4668 236.948 14.4669L237.11 12.4734L236.944 14.4665C236.945 14.4666 236.946 14.4667 236.946 14.4667C227.531 13.705 218.042 13.642 208.475 13.5794L208.473 13.5793C206.275 13.565 204.073 13.5505 201.871 13.5275ZM174.641 9.49825C183.696 9.46881 192.802 9.4392 201.911 9.5277L201.912 9.52771C204.105 9.55067 206.301 9.56504 208.501 9.57945L208.538 9.57969C218.069 9.64209 227.695 9.7051 237.271 10.4799L237.275 10.4803C243.031 10.959 247.558 12.8582 250.756 16.3269C253.93 19.7698 255.563 24.5106 256.057 30.2244L256.058 30.2344C256.523 35.9521 256.799 41.6814 256.799 47.4195C256.862 124.604 256.84 201.786 256.733 278.964C256.757 285.207 256.259 291.441 255.247 297.601L255.244 297.614C254.467 302.153 252.692 305.814 249.833 308.51C246.983 311.197 243.225 312.768 238.757 313.441C234.795 314.049 230.794 314.372 226.786 314.409L226.777 314.409C206.207 314.504 185.666 314.466 165.181 314.428L126.047 314.409C126.047 314.409 126.048 314.409 126.047 314.409C123.099 314.409 120.148 314.41 117.197 314.41H117.182C96.6411 314.412 76.0506 314.414 55.4593 314.315H55.4578C51.4299 314.292 47.4108 313.938 43.4407 313.255L43.4392 313.255C38.7964 312.452 34.9705 310.639 32.147 307.699C29.323 304.759 27.6578 300.856 27.0459 296.154L27.0454 296.15C26.415 291.23 26.095 286.275 26.0873 281.314L26.0873 281.313C26.0308 201.77 26.0308 122.227 26.0873 42.6842C26.0758 37.7189 26.3962 32.7585 27.0465 27.8363L27.0473 27.8302C27.7118 22.9165 29.4503 18.9049 32.441 15.9481C35.4273 12.9956 39.4731 11.2817 44.407 10.6061C48.6816 9.99535 52.9922 9.67295 57.3098 9.64103L57.3171 9.64099C80.1794 9.556 103.041 9.556 125.898 9.556L131.057 9.556L131.422 11.0946C132.606 16.0882 134.243 19.4358 136.298 21.5637C138.293 23.6297 140.84 24.7097 144.259 24.8611L144.26 24.8612C148.253 25.0409 150.83 24.2952 152.933 22.4C155.164 20.3898 157.114 16.8726 159.239 10.8611L159.71 9.5276H161.125C165.614 9.5276 170.118 9.51296 174.634 9.49827L174.641 9.49825ZM238.757 313.441C238.756 313.441 238.755 313.441 238.754 313.441L238.457 311.464L238.76 313.44C238.759 313.441 238.758 313.441 238.757 313.441Z" fill="black"/>
<rect x="54" y="55" width="175" height="60" rx="11.8738" fill="#F2F2F2"/>
<rect x="54" y="127" width="175" height="12" rx="6" fill="#F2F2F2"/>
<rect x="54" y="150" width="87" height="12" rx="6" fill="#F2F2F2"/>
<rect x="54" y="224" width="74" height="12" rx="6" fill="#F2F2F2"/>
<rect x="54" y="241" width="56" height="12" rx="6" fill="#F2F2F2"/>
<rect x="54" y="258" width="35" height="12" rx="6" fill="#F2F2F2"/>
<rect x="54" y="169" width="175" height="12" rx="6" fill="#F2F2F2"/>
<path fill-rule="evenodd" clip-rule="evenodd" d="M209.053 217.483C209.053 216.664 209.717 216 210.536 216H227.852C228.671 216 229.335 216.664 229.335 217.483V234.799C229.335 235.618 228.671 236.282 227.852 236.282H216.967V240.736H227.852C228.671 240.736 229.335 241.4 229.335 242.219V252.114C229.335 252.933 228.671 253.597 227.852 253.597C227.033 253.597 226.369 252.933 226.369 252.114V243.703H215.489H215.484H209.545V248.158H222.905C223.724 248.158 224.388 248.822 224.388 249.641V260.526H227.852C228.671 260.526 229.335 261.19 229.335 262.009V274.314C229.335 275.133 228.671 275.797 227.852 275.797H216.967V276.851C216.967 277.67 216.303 278.334 215.483 278.334H193.22C192.401 278.334 191.737 277.67 191.737 276.851V266.957C191.737 266.137 192.401 265.473 193.22 265.473H198.168C198.987 265.473 199.651 266.137 199.651 266.957C199.651 267.776 198.987 268.44 198.168 268.44H194.703V275.368H214V256.071H204.598V260.526H210.473C211.292 260.526 211.956 261.19 211.956 262.009V271.904C211.956 272.723 211.292 273.387 210.473 273.387H203.115C202.296 273.387 201.632 272.723 201.632 271.904V263.492H195.694C194.875 263.492 194.211 262.828 194.211 262.009V256.071H180.852C180.032 256.071 179.368 255.407 179.368 254.588V243.702H172.44V253.105H175.904C176.723 253.105 177.387 253.769 177.387 254.588C177.387 255.407 176.723 256.071 175.904 256.071H170.957C170.138 256.071 169.474 255.407 169.474 254.588V242.219C169.474 241.4 170.138 240.736 170.957 240.736H180.852C181.671 240.736 182.335 241.4 182.335 242.219V245.684H189.263V239.746C189.263 238.927 189.927 238.262 190.746 238.262H194.211V233.374C194.211 232.554 194.875 231.89 195.694 231.89H201.632V221.439H197.177V227.377C197.177 228.196 196.513 228.86 195.694 228.86C194.875 228.86 194.211 228.196 194.211 227.377V219.956C194.211 219.137 194.875 218.473 195.694 218.473H203.115C203.934 218.473 204.598 219.137 204.598 219.956V229.823L204.598 229.851V240.736H214V236.282H210.536C209.717 236.282 209.053 235.618 209.053 234.799V217.483ZM212.019 218.966V233.316H226.369V218.966H212.019ZM201.632 234.857H197.177V239.746C197.177 240.565 196.513 241.229 195.694 241.229H192.229V245.684H195.694H195.706H200.641C201.46 245.684 202.124 246.348 202.124 247.167C202.124 247.986 201.46 248.65 200.641 248.65H197.177V253.105H203.115L203.138 253.105H215.483C216.303 253.105 216.967 253.769 216.967 254.588V260.526H217.541H221.422V251.124H208.062C207.243 251.124 206.579 250.46 206.579 249.641V243.703H203.115C202.296 243.703 201.632 243.039 201.632 242.219V234.857ZM182.335 248.65V253.105H194.211V248.65H190.759L190.747 248.65H182.335ZM197.177 260.526V256.071H201.632V260.526H197.177ZM204.598 270.421V263.492H208.989V270.421H204.598ZM218.948 268.254C218.948 267.435 219.612 266.771 220.431 266.771H222.905C223.724 266.771 224.388 267.435 224.388 268.254C224.388 269.073 223.724 269.737 222.905 269.737H220.431C219.612 269.737 218.948 269.073 218.948 268.254ZM216.967 272.831V263.492H217.541H222.905H226.369V272.831H216.967ZM215.031 220.495C214.212 220.495 213.548 221.159 213.548 221.978V230.304C213.548 231.123 214.212 231.787 215.031 231.787H223.357C224.176 231.787 224.84 231.123 224.84 230.304V221.978C224.84 221.159 224.176 220.495 223.357 220.495H215.031ZM216.514 228.821V223.461H221.874V228.821H216.514ZM167 217.483C167 216.664 167.664 216 168.483 216H185.799C186.618 216 187.282 216.664 187.282 217.483V234.799H185.799V236.282H168.483C167.664 236.282 167 235.618 167 234.799V217.483ZM184.316 233.316V218.966H169.967V233.316H184.316ZM172.978 220.495C172.159 220.495 171.495 221.159 171.495 221.978V230.304C171.495 231.123 172.159 231.787 172.978 231.787H181.304C182.123 231.787 182.788 231.123 182.788 230.304V221.978C182.788 221.159 182.123 220.495 181.304 220.495H172.978ZM174.461 228.821V223.461H179.821V228.821H174.461ZM167 259.535C167 258.716 167.664 258.052 168.483 258.052H185.799C186.618 258.052 187.282 258.716 187.282 259.535V276.851H185.799V278.334H168.483C167.664 278.334 167 277.67 167 276.851V259.535ZM184.316 275.368V261.019H169.966V275.368H184.316ZM172.978 262.547C172.159 262.547 171.495 263.211 171.495 264.03V272.357C171.495 273.176 172.159 273.84 172.978 273.84H181.304C182.123 273.84 182.787 273.176 182.787 272.357V264.03C182.787 263.211 182.123 262.547 181.304 262.547H172.978ZM174.461 270.874V265.513H179.821V270.874H174.461Z" fill="black"/>
</svg>
