<svg width="355" height="80" viewBox="0 0 355 80" fill="none" xmlns="http://www.w3.org/2000/svg">
<g filter="url(#filter0_d_4696_27884)">
<rect x="14" y="14" width="327" height="52" rx="26" fill="white"/>
<path d="M46.8846 32.5121H45.0385V30.6401C45.0385 30.2956 44.7628 30.0161 44.4231 30.0161H33.3462C32.3283 30.0161 31.5 30.856 31.5 31.8881V47.488C31.5 48.8645 32.604 49.9839 33.9615 49.9839H46.8846C47.2243 49.9839 47.5 49.7044 47.5 49.3599V33.1361C47.5 32.7916 47.2243 32.5121 46.8846 32.5121ZM43.1923 46.24H35.8077C35.468 46.24 35.1923 45.9604 35.1923 45.616C35.1923 45.2715 35.468 44.992 35.8077 44.992H43.1923C43.532 44.992 43.8077 45.2715 43.8077 45.616C43.8077 45.9604 43.532 46.24 43.1923 46.24ZM35.1923 37.504C35.1923 36.1038 36.0034 35.008 37.0385 35.008C38.0735 35.008 38.8846 36.1038 38.8846 37.504C38.8846 38.6085 38.3763 39.5158 37.6538 39.8515V43.12C37.6538 43.4644 37.3782 43.744 37.0385 43.744C36.6988 43.744 36.4231 43.4644 36.4231 43.12V39.8515C35.7006 39.5158 35.1923 38.6085 35.1923 37.504ZM43.8077 40.624C43.8077 40.9685 43.532 41.248 43.1923 41.248H41.3462V43.12C41.3462 43.4644 41.0705 43.744 40.7308 43.744C40.3911 43.744 40.1154 43.4644 40.1154 43.12V35.632C40.1154 35.2876 40.3911 35.008 40.7308 35.008C42.428 35.008 43.8077 36.4083 43.8077 38.128V40.624ZM43.8077 32.5121H33.3462C33.0065 32.5121 32.7308 32.2325 32.7308 31.8881C32.7308 31.5436 33.0065 31.2641 33.3462 31.2641H43.8077V32.5121Z" fill="black"/>
<path d="M71.4531 34.5781H73.8984L70.0156 46H67.375L63.5 34.5781H65.9453L68.0938 41.375C68.2135 41.776 68.3359 42.2448 68.4609 42.7812C68.5911 43.3125 68.6719 43.6823 68.7031 43.8906C68.7604 43.4115 68.9557 42.5729 69.2891 41.375L71.4531 34.5781ZM77.9734 38.7969C77.4682 38.7969 77.0724 38.9583 76.7859 39.2812C76.4995 39.599 76.3354 40.0521 76.2937 40.6406H79.6375C79.6271 40.0521 79.4734 39.599 79.1766 39.2812C78.8797 38.9583 78.4786 38.7969 77.9734 38.7969ZM78.3094 46.1562C76.9031 46.1562 75.8042 45.7682 75.0125 44.9922C74.2208 44.2161 73.825 43.1172 73.825 41.6953C73.825 40.2318 74.1896 39.1016 74.9187 38.3047C75.6531 37.5026 76.6661 37.1016 77.9578 37.1016C79.1922 37.1016 80.1531 37.4531 80.8406 38.1562C81.5281 38.8594 81.8719 39.8307 81.8719 41.0703V42.2266H76.2391C76.2651 42.9036 76.4656 43.4323 76.8406 43.8125C77.2156 44.1927 77.7417 44.3828 78.4187 44.3828C78.9448 44.3828 79.4422 44.3281 79.9109 44.2188C80.3797 44.1094 80.8693 43.9349 81.3797 43.6953V45.5391C80.963 45.7474 80.5177 45.901 80.0437 46C79.5698 46.1042 78.9917 46.1562 78.3094 46.1562ZM87.8844 37.1016C88.2073 37.1016 88.4755 37.125 88.6891 37.1719L88.5094 39.4062C88.3167 39.3542 88.0823 39.3281 87.8062 39.3281C87.0458 39.3281 86.4521 39.5234 86.025 39.9141C85.6031 40.3047 85.3922 40.8516 85.3922 41.5547V46H83.0094V37.2656H84.8141L85.1656 38.7344H85.2828C85.5536 38.2448 85.9182 37.8516 86.3766 37.5547C86.8401 37.2526 87.3427 37.1016 87.8844 37.1016ZM96.3781 46.1562C93.6594 46.1562 92.3 44.6641 92.3 41.6797C92.3 40.1953 92.6698 39.0625 93.4094 38.2812C94.149 37.4948 95.2089 37.1016 96.5891 37.1016C97.5995 37.1016 98.5057 37.2995 99.3078 37.6953L98.6047 39.5391C98.2297 39.388 97.8807 39.2656 97.5578 39.1719C97.2349 39.0729 96.912 39.0234 96.5891 39.0234C95.3495 39.0234 94.7297 39.9036 94.7297 41.6641C94.7297 43.3724 95.3495 44.2266 96.5891 44.2266C97.0474 44.2266 97.4719 44.1667 97.8625 44.0469C98.2531 43.9219 98.6437 43.7292 99.0344 43.4688V45.5078C98.649 45.7526 98.2583 45.9219 97.8625 46.0156C97.4719 46.1094 96.9771 46.1562 96.3781 46.1562ZM105.812 46L105.352 44.8125H105.289C104.888 45.3177 104.474 45.6693 104.047 45.8672C103.625 46.0599 103.073 46.1562 102.391 46.1562C101.552 46.1562 100.891 45.9167 100.406 45.4375C99.9271 44.9583 99.6875 44.276 99.6875 43.3906C99.6875 42.4635 100.01 41.7812 100.656 41.3438C101.307 40.901 102.286 40.6562 103.594 40.6094L105.109 40.5625V40.1797C105.109 39.2943 104.656 38.8516 103.75 38.8516C103.052 38.8516 102.232 39.0625 101.289 39.4844L100.5 37.875C101.505 37.349 102.62 37.0859 103.844 37.0859C105.016 37.0859 105.914 37.3411 106.539 37.8516C107.164 38.362 107.477 39.138 107.477 40.1797V46H105.812ZM105.109 41.9531L104.188 41.9844C103.495 42.0052 102.979 42.1302 102.641 42.3594C102.302 42.5885 102.133 42.9375 102.133 43.4062C102.133 44.0781 102.518 44.4141 103.289 44.4141C103.841 44.4141 104.281 44.2552 104.609 43.9375C104.943 43.6198 105.109 43.1979 105.109 42.6719V41.9531ZM114.013 37.1016C114.335 37.1016 114.604 37.125 114.817 37.1719L114.638 39.4062C114.445 39.3542 114.21 39.3281 113.934 39.3281C113.174 39.3281 112.58 39.5234 112.153 39.9141C111.731 40.3047 111.52 40.8516 111.52 41.5547V46H109.138V37.2656H110.942L111.294 38.7344H111.411C111.682 38.2448 112.046 37.8516 112.505 37.5547C112.968 37.2526 113.471 37.1016 114.013 37.1016ZM119.283 44.2578C119.699 44.2578 120.199 44.1667 120.783 43.9844V45.7578C120.189 46.0234 119.46 46.1562 118.595 46.1562C117.642 46.1562 116.947 45.9167 116.509 45.4375C116.077 44.9531 115.861 44.2292 115.861 43.2656V39.0547H114.72V38.0469L116.033 37.25L116.72 35.4062H118.244V37.2656H120.689V39.0547H118.244V43.2656C118.244 43.6042 118.338 43.8542 118.525 44.0156C118.718 44.1771 118.97 44.2578 119.283 44.2578ZM127.303 46L126.842 44.8125H126.78C126.379 45.3177 125.965 45.6693 125.537 45.8672C125.116 46.0599 124.564 46.1562 123.881 46.1562C123.043 46.1562 122.381 45.9167 121.897 45.4375C121.418 44.9583 121.178 44.276 121.178 43.3906C121.178 42.4635 121.501 41.7812 122.147 41.3438C122.798 40.901 123.777 40.6562 125.084 40.6094L126.6 40.5625V40.1797C126.6 39.2943 126.147 38.8516 125.241 38.8516C124.543 38.8516 123.722 39.0625 122.78 39.4844L121.991 37.875C122.996 37.349 124.11 37.0859 125.334 37.0859C126.506 37.0859 127.405 37.3411 128.03 37.8516C128.655 38.362 128.967 39.138 128.967 40.1797V46H127.303ZM126.6 41.9531L125.678 41.9844C124.985 42.0052 124.47 42.1302 124.131 42.3594C123.793 42.5885 123.623 42.9375 123.623 43.4062C123.623 44.0781 124.009 44.4141 124.78 44.4141C125.332 44.4141 125.772 44.2552 126.1 43.9375C126.433 43.6198 126.6 43.1979 126.6 42.6719V41.9531Z" fill="black"/>
<path d="M322.136 39.2708L318.186 35.3208C318.099 35.223 317.992 35.1442 317.872 35.0891C317.753 35.034 317.624 35.0038 317.492 35.0003C317.361 34.9969 317.23 35.0203 317.108 35.069C316.986 35.1178 316.875 35.1909 316.782 35.284C316.69 35.377 316.617 35.488 316.568 35.6102C316.52 35.7323 316.497 35.8631 316.5 35.9945C316.504 36.1259 316.535 36.2551 316.59 36.3743C316.645 36.4935 316.724 36.6002 316.822 36.6878C319.149 39.0378 320.061 39.9408 320.076 39.9548C320.091 39.9688 319.118 40.9748 316.822 43.2698C316.644 43.4517 316.544 43.697 316.545 43.9521C316.546 44.2072 316.648 44.4515 316.828 44.6318C317.009 44.8122 317.253 44.9139 317.508 44.9148C317.763 44.9157 318.009 44.8158 318.19 44.6368L322.14 40.6868C322.231 40.5972 322.302 40.4906 322.35 40.3732C322.399 40.2558 322.424 40.1299 322.423 40.0028C322.424 39.9948 322.424 39.9868 322.423 39.9788C322.424 39.9708 322.424 39.9628 322.423 39.9548C322.423 39.8275 322.397 39.7016 322.348 39.5842C322.299 39.4669 322.227 39.3604 322.136 39.2708Z" fill="black"/>
</g>
<defs>
<filter id="filter0_d_4696_27884" x="0" y="0" width="355" height="80" filterUnits="userSpaceOnUse" color-interpolation-filters="sRGB">
<feFlood flood-opacity="0" result="BackgroundImageFix"/>
<feColorMatrix in="SourceAlpha" type="matrix" values="0 0 0 0 0 0 0 0 0 0 0 0 0 0 0 0 0 0 127 0" result="hardAlpha"/>
<feOffset/>
<feGaussianBlur stdDeviation="7"/>
<feComposite in2="hardAlpha" operator="out"/>
<feColorMatrix type="matrix" values="0 0 0 0 0 0 0 0 0 0 0 0 0 0 0 0 0 0 0.1 0"/>
<feBlend mode="normal" in2="BackgroundImageFix" result="effect1_dropShadow_4696_27884"/>
<feBlend mode="normal" in="SourceGraphic" in2="effect1_dropShadow_4696_27884" result="shape"/>
</filter>
</defs>
</svg>
