<svg width="24" height="24" viewBox="0 0 24 24" fill="none" xmlns="http://www.w3.org/2000/svg">
<path d="M19.1154 7.00044H4.88462C3.29327 7.00044 2 8.40144 2 10.1253V18.8751C2 20.599 3.29327 22 4.88462 22H19.1154C20.7067 22 22 20.599 22 18.8751V10.1253C22 8.40144 20.7067 7.00044 19.1154 7.00044ZM16.1779 2.05267L4.88462 4.44322C4.01923 4.65155 2.76923 5.59423 2.76923 6.74003C2.76923 6.74003 3.49038 5.75047 5.125 5.75047H18.9231V4.6828C18.9231 4.02657 18.6827 3.18805 18.2548 2.72452C17.7115 2.136 16.9327 1.8808 16.1779 2.05267Z" fill="white"/>
</svg>
