<svg width="22" height="22" viewBox="0 0 22 22" fill="none" xmlns="http://www.w3.org/2000/svg">
<path d="M20.3281 3.17124C19.8388 2.68193 19.1715 2.39272 18.4821 2.39272H16.6139V1.63657C16.6139 1.05834 16.1467 0.613403 15.5907 0.613403H14.8567C14.2785 0.613403 13.8336 1.08054 13.8336 1.63657V2.41508L7.25064 2.41493V1.63657C7.25064 1.05835 6.7835 0.613407 6.22748 0.613407H5.49353C4.9153 0.613407 4.47036 1.08055 4.47036 1.63657V2.41509H2.62436C1.17877 2.41509 0 3.59386 0 5.03944V18.7621C0 20.2077 1.17877 21.3865 2.62436 21.3865H14.9014C15.6353 21.3865 16.3248 21.0973 16.8363 20.5858L20.3282 17.0939C20.8397 16.5824 21.1289 15.893 21.1289 15.159V5.03933C21.1067 4.32769 20.8399 3.66058 20.3282 3.17128L20.3281 3.17124ZM1.46771 18.7399V7.77512H19.5941V14.7366H15.3461C14.8789 14.7366 14.4787 15.1146 14.4787 15.604V19.8742H2.602C1.97909 19.852 1.46763 19.3627 1.46763 18.74L1.46771 18.7399Z" fill="white"/>
</svg>
