<svg width="29" height="29" viewBox="0 0 29 29" fill="none" xmlns="http://www.w3.org/2000/svg">
<path d="M26.7792 5.02746L25.5669 3.70842C25.3966 3.52378 25.1864 3.38055 24.9522 3.2897C24.7181 3.19884 24.4662 3.16279 24.216 3.18428C23.9658 3.20577 23.7238 3.28425 23.5086 3.4137C23.2933 3.54315 23.1106 3.72014 22.9743 3.93111L15.5935 15.3084L26.7792 5.02746Z" fill="url(#paint0_linear_3004:24927)"/>
<path d="M8.47502 17.5932L5.13676 19.4099L0.228794 26.8617C0.0573604 27.1174 -0.0215733 27.424 0.00506899 27.7307C0.0106064 27.8051 0.0223864 27.8789 0.0402848 27.9514L10.0473 20.3054C10.501 19.9563 10.9277 19.6005 11.342 19.2178L12.5362 18.1204L22.1067 3.36806C22.1599 3.28645 22.2174 3.20779 22.2792 3.13242L18.8031 0.0251341C18.7799 0.00764899 18.7514 -0.00119386 18.7223 0.00012965C18.6933 0.00145317 18.6657 0.0128601 18.6441 0.0323844L17.511 1.07384C17.494 1.09009 17.4822 1.11103 17.4772 1.13399C17.4721 1.15695 17.474 1.1809 17.4825 1.2028C17.7384 1.98428 18.1118 3.99211 16.0936 5.84664C14.107 7.67217 11.0598 7.66388 9.84015 7.57429C9.73794 7.56812 9.63554 7.58264 9.53907 7.61699C9.44261 7.65134 9.35408 7.70481 9.27877 7.77419L7.46981 9.43659L6.96643 11.6676L7.6055 11.4258C7.66915 11.4017 7.73692 11.3905 7.80493 11.3926C7.87294 11.3948 7.93987 11.4103 8.00188 11.4383C8.06389 11.4663 8.11978 11.5063 8.16635 11.5559C8.21292 11.6055 8.24926 11.6638 8.2733 11.7274C8.29735 11.7911 8.30861 11.8589 8.30646 11.9269C8.30431 11.9949 8.28879 12.0618 8.26078 12.1238C8.23277 12.1858 8.19281 12.2417 8.1432 12.2883C8.09359 12.3349 8.0353 12.3712 7.97164 12.3952L6.69299 12.8784L6.2445 14.8624L7.01822 14.5678C7.14657 14.5188 7.28912 14.5228 7.41451 14.579C7.53989 14.6351 7.63784 14.7387 7.6868 14.8671C7.73577 14.9954 7.73174 15.138 7.6756 15.2634C7.61947 15.3888 7.51582 15.4867 7.38747 15.5357L5.97054 16.0743L5.53242 18.0153L7.97993 16.6833C8.26878 16.5262 8.51531 16.3015 8.69847 16.0284C8.88163 15.7554 8.99598 15.442 9.03174 15.1152L9.62368 9.69346C9.63018 9.62516 9.65019 9.55883 9.68254 9.49832C9.71489 9.43781 9.75895 9.38434 9.81215 9.34101C9.86534 9.29767 9.92662 9.26534 9.99242 9.24589C10.0582 9.22644 10.1272 9.22025 10.1954 9.2277C10.2636 9.23514 10.3297 9.25607 10.3897 9.28926C10.4498 9.32245 10.5026 9.36724 10.5452 9.42103C10.5878 9.47482 10.6193 9.53654 10.6379 9.6026C10.6564 9.66866 10.6616 9.73774 10.6532 9.80584L10.0618 15.225C10.008 15.7184 9.83556 16.1916 9.55925 16.604C9.28294 17.0163 8.91094 17.3558 8.47502 17.5932Z" fill="url(#paint1_linear_3004:24927)"/>
<path d="M28.4638 5.91754L28.0319 5.4473C28.0213 5.43548 28.0085 5.42591 27.9942 5.41915C27.9798 5.41239 27.9643 5.40858 27.9485 5.40794C27.9325 5.40662 27.9164 5.40881 27.9014 5.41436C27.8864 5.41991 27.8728 5.42868 27.8615 5.44005L13.2836 18.8387V18.8413L12.0454 19.9806C11.6057 20.3846 11.1593 20.7605 10.6797 21.1293L0.647841 28.7898C0.949184 28.9773 1.31073 29.0429 1.65875 28.9731L4.43355 28.3998C6.61313 27.9488 8.62955 26.915 10.268 25.4085L28.3421 8.79541C28.7393 8.42962 28.9752 7.92117 28.9981 7.38164C29.0209 6.84211 28.8287 6.31556 28.4638 5.91754Z" fill="url(#paint2_linear_3004:24927)"/>
<path d="M9.91212 6.5411C10.1219 6.55663 10.3932 6.56906 10.7045 6.56906L9.75986 3.75024C9.75013 3.73065 9.73372 3.71518 9.71358 3.70663C9.69345 3.69809 9.67092 3.69702 9.65007 3.70363L7.73391 4.13399C7.54728 4.17359 7.38155 4.28005 7.26795 4.43333C7.15435 4.58662 7.1007 4.77614 7.11711 4.96622L7.41541 8.07868L8.57702 7.01133C8.75615 6.84668 8.96685 6.7201 9.19634 6.63927C9.42583 6.55844 9.66934 6.52504 9.91212 6.5411Z" fill="url(#paint3_linear_3004:24927)"/>
<defs>
<linearGradient id="paint0_linear_3004:24927" x1="28.9999" y1="15.8667" x2="-0.000109048" y2="15.9313" gradientUnits="userSpaceOnUse">
<stop stop-color="#00AAE4"/>
<stop offset="1" stop-color="#8255BE"/>
</linearGradient>
<linearGradient id="paint1_linear_3004:24927" x1="28.9999" y1="15.8667" x2="-0.000109048" y2="15.9313" gradientUnits="userSpaceOnUse">
<stop stop-color="#00AAE4"/>
<stop offset="1" stop-color="#8255BE"/>
</linearGradient>
<linearGradient id="paint2_linear_3004:24927" x1="28.9999" y1="15.8667" x2="-0.000109048" y2="15.9313" gradientUnits="userSpaceOnUse">
<stop stop-color="#00AAE4"/>
<stop offset="1" stop-color="#8255BE"/>
</linearGradient>
<linearGradient id="paint3_linear_3004:24927" x1="28.9999" y1="15.8667" x2="-0.000109048" y2="15.9313" gradientUnits="userSpaceOnUse">
<stop stop-color="#00AAE4"/>
<stop offset="1" stop-color="#8255BE"/>
</linearGradient>
</defs>
</svg>
