<svg width="29" height="21" viewBox="0 0 29 21" fill="none" xmlns="http://www.w3.org/2000/svg">
<path d="M14.2455 16.2811C17.3363 16.2811 19.842 13.7755 19.842 10.6846C19.842 7.59373 17.3363 5.08808 14.2455 5.08808C11.1546 5.08808 8.64897 7.59373 8.64897 10.6846C8.64897 13.7755 11.1546 16.2811 14.2455 16.2811Z" fill="url(#paint0_linear_3004:24924)"/>
<path d="M14.246 2.03558C12.5353 2.03558 10.8631 2.54284 9.44077 3.49323C8.01842 4.44361 6.90984 5.79442 6.25521 7.37485C5.60057 8.95527 5.42929 10.6943 5.76302 12.3721C6.09675 14.0499 6.9205 15.591 8.13011 16.8006C9.33971 18.0102 10.8808 18.834 12.5586 19.1677C14.2364 19.5014 15.9754 19.3302 17.5559 18.6755C19.1363 18.0209 20.4871 16.9123 21.4375 15.49C22.3879 14.0676 22.8951 12.3954 22.8951 10.6847C22.8926 8.39162 21.9805 6.19316 20.359 4.57169C18.7376 2.95021 16.5391 2.03814 14.246 2.03558ZM14.246 17.2988C12.9378 17.2988 11.6591 16.9109 10.5714 16.1841C9.48373 15.4574 8.63599 14.4244 8.13539 13.2158C7.63479 12.0073 7.50381 10.6774 7.75901 9.3944C8.01422 8.11139 8.64414 6.93288 9.56914 6.00789C10.4941 5.0829 11.6726 4.45297 12.9556 4.19776C14.2386 3.94256 15.5685 4.07354 16.7771 4.57414C17.9856 5.07474 19.0186 5.92249 19.7454 7.01016C20.4721 8.09784 20.86 9.3766 20.86 10.6847C20.858 12.4383 20.1605 14.1194 18.9206 15.3594C17.6807 16.5993 15.9995 17.2968 14.246 17.2988Z" fill="url(#paint1_linear_3004:24924)"/>
<path d="M26.456 0.509236C25.0518 0.509236 23.9121 3.68398 23.9121 5.0882C23.9125 5.49445 24.01 5.89472 24.1963 6.2557C24.3827 6.61668 24.6526 6.92791 24.9836 7.16349C25.1214 7.25766 25.2346 7.38349 25.3138 7.53044C25.3929 7.67739 25.4356 7.84117 25.4384 8.00805V13.2586C25.4383 14.2732 25.3541 15.2861 25.1866 16.2868L24.7567 18.8505C24.7406 18.9464 24.7321 19.0433 24.7312 19.1405C24.7322 19.3786 24.7825 19.6138 24.8788 19.8315C24.9752 20.0491 25.1156 20.2444 25.2912 20.4051C25.4668 20.5658 25.6738 20.6884 25.8991 20.7652C26.1245 20.8419 26.3632 20.8712 26.6004 20.8511C26.8376 20.831 27.0681 20.762 27.2773 20.6485C27.4865 20.5349 27.6699 20.3793 27.8159 20.1913C27.962 20.0034 28.0676 19.7872 28.126 19.5564C28.1844 19.3257 28.1944 19.0853 28.1553 18.8505L27.7279 16.2868C27.5596 15.2862 27.4745 14.2733 27.4735 13.2586V8.00805C27.4763 7.84117 27.5191 7.67739 27.5982 7.53044C27.6773 7.38349 27.7906 7.25766 27.9284 7.16349C28.2593 6.92791 28.5292 6.61668 28.7156 6.2557C28.902 5.89472 28.9994 5.49445 28.9998 5.0882C28.9998 3.68398 27.8602 0.509236 26.456 0.509236Z" fill="url(#paint2_linear_3004:24924)"/>
<path d="M3.56142 0C3.42649 0 3.29708 0.0536029 3.20166 0.149017C3.10625 0.24443 3.05265 0.373839 3.05265 0.508774V4.57897H2.54387V0.508774C2.54387 0.373839 2.49027 0.24443 2.39486 0.149017C2.29944 0.0536029 2.17004 0 2.0351 0C1.90017 0 1.77076 0.0536029 1.67534 0.149017C1.57993 0.24443 1.52633 0.373839 1.52633 0.508774V4.57897H1.01755V0.508774C1.01755 0.373839 0.96395 0.24443 0.868536 0.149017C0.773123 0.0536029 0.643714 0 0.508779 0C0.373844 0 0.244435 0.0536029 0.149022 0.149017C0.053608 0.24443 5.12635e-06 0.373839 5.12635e-06 0.508774V6.10529C-0.00107945 6.58715 0.169966 7.05356 0.482323 7.42047C0.814437 7.78748 1.00429 8.2612 1.01755 8.756V13.2581C1.01659 14.2728 0.931507 15.2857 0.763166 16.2864L0.335796 18.8501C0.296716 19.0849 0.306692 19.3252 0.365094 19.556C0.423496 19.7868 0.529059 20.0029 0.675131 20.1909C0.821204 20.3788 1.00462 20.5345 1.21382 20.648C1.42302 20.7616 1.65348 20.8306 1.89066 20.8507C2.12785 20.8707 2.36662 20.8415 2.59194 20.7647C2.81726 20.688 3.02424 20.5654 3.19984 20.4047C3.37544 20.244 3.51586 20.0487 3.61224 19.831C3.70862 19.6134 3.75888 19.3781 3.75984 19.1401C3.75895 19.0429 3.75045 18.9459 3.73441 18.8501L3.30704 16.2864C3.13869 15.2857 3.05361 14.2728 3.05265 13.2581V8.756C3.06591 8.2612 3.25576 7.78748 3.58788 7.42047C3.90023 7.05356 4.07128 6.58715 4.0702 6.10529V0.508774C4.0702 0.373839 4.01659 0.24443 3.92118 0.149017C3.82577 0.0536029 3.69636 0 3.56142 0Z" fill="url(#paint3_linear_3004:24924)"/>
<defs>
<linearGradient id="paint0_linear_3004:24924" x1="28.9998" y1="11.4114" x2="2.54338e-05" y2="11.5013" gradientUnits="userSpaceOnUse">
<stop stop-color="#00AAE4"/>
<stop offset="1" stop-color="#8255BE"/>
</linearGradient>
<linearGradient id="paint1_linear_3004:24924" x1="28.9998" y1="11.4114" x2="2.54338e-05" y2="11.5013" gradientUnits="userSpaceOnUse">
<stop stop-color="#00AAE4"/>
<stop offset="1" stop-color="#8255BE"/>
</linearGradient>
<linearGradient id="paint2_linear_3004:24924" x1="28.9998" y1="11.4114" x2="2.54338e-05" y2="11.5013" gradientUnits="userSpaceOnUse">
<stop stop-color="#00AAE4"/>
<stop offset="1" stop-color="#8255BE"/>
</linearGradient>
<linearGradient id="paint3_linear_3004:24924" x1="28.9998" y1="11.4114" x2="2.54338e-05" y2="11.5013" gradientUnits="userSpaceOnUse">
<stop stop-color="#00AAE4"/>
<stop offset="1" stop-color="#8255BE"/>
</linearGradient>
</defs>
</svg>
