<svg width="26" height="26" viewBox="0 0 26 26" fill="none" xmlns="http://www.w3.org/2000/svg">
<path d="M25.7055 3.30954C25.4401 3.17411 19.197 6.10352e-05 16.792 6.10352e-05C16.5516 6.10352e-05 16.3381 0.163623 16.271 0.394367C16.2493 0.466932 15.7196 2.16664 13.0005 2.16664C10.2814 2.16664 9.75166 0.466983 9.73109 0.399801C9.66716 0.163623 9.45267 6.10352e-05 9.20892 6.10352e-05C6.80399 6.10352e-05 0.560898 3.17416 0.295471 3.30954C0.0799105 3.42004 -0.0370865 3.66053 0.0105451 3.89778L1.09388 9.31432C1.14695 9.57975 1.38419 9.75737 1.6583 9.74874C1.89555 9.73468 3.53782 9.62956 4.70672 9.41182C4.31567 11.4733 4.32323 13.0214 4.3308 14.5239L4.33405 15.1664C4.33405 17.1553 5.39134 21.0985 5.43577 21.2654C5.4997 21.5016 5.7142 21.6662 5.95901 21.6662C8.04977 21.6662 9.75059 23.367 9.75059 25.4578C9.75059 25.7568 9.99327 25.9994 10.2923 25.9994H15.7088C16.0078 25.9994 16.2505 25.7568 16.2505 25.4578C16.2505 23.367 17.9512 21.6662 20.0421 21.6662C20.2869 21.6662 20.5014 21.5026 20.5653 21.2654C20.6108 21.0986 21.667 17.1553 21.667 15.1664L21.6692 14.5239C21.6768 13.0214 21.6855 11.4733 21.2933 9.41182C22.4632 9.62956 24.1045 9.73463 24.3417 9.74874C24.5984 9.75743 24.853 9.57975 24.9061 9.31432L25.9894 3.89778C26.037 3.65947 25.9211 3.42004 25.7055 3.30954ZM13.0005 11.7041C12.1945 10.8818 10.8339 9.2872 10.8339 8.66647C10.8339 8.06955 11.3203 7.58318 11.9172 7.58318C12.1804 7.58318 12.4361 7.68393 12.6387 7.86592C12.8434 8.05117 13.1576 8.05117 13.3634 7.86592C13.5659 7.68393 13.8216 7.58318 14.0849 7.58318C14.6818 7.58318 15.1682 8.0696 15.1682 8.66647C15.1671 9.28725 13.8065 10.8808 13.0005 11.7041Z" fill="url(#paint0_linear_3004:25060)"/>
<defs>
<linearGradient id="paint0_linear_3004:25060" x1="26" y1="14.2249" x2="-9.77571e-05" y2="14.2828" gradientUnits="userSpaceOnUse">
<stop stop-color="#00AAE4"/>
<stop offset="1" stop-color="#8255BE"/>
</linearGradient>
</defs>
</svg>
