<svg width="29" height="30" viewBox="0 0 29 30" fill="none" xmlns="http://www.w3.org/2000/svg">
<path fill-rule="evenodd" clip-rule="evenodd" d="M18.4756 3.57422H10.5826V0.878906C10.5826 0.393105 10.1903 0 9.70555 0C9.2208 0 8.82854 0.393105 8.82854 0.878906V3.57422H0.877008C0.392256 3.57422 0 3.96732 0 4.45312V8.02734C0 8.51314 0.392256 8.90625 0.877008 8.90625H18.4756C18.9604 8.90625 19.3526 8.51314 19.3526 8.02734V4.45312C19.3526 3.96732 18.9604 3.57422 18.4756 3.57422ZM11.4596 19.4531C11.4596 14.5562 15.4036 12.4219 20.2297 12.4219C25.7212 12.4219 28.9997 15.05 28.9997 19.4531C28.9997 20.4221 28.2126 21.2109 27.2457 21.2109H13.2136C12.2467 21.2109 11.4596 20.4221 11.4596 19.4531ZM15.8446 18.5742C15.8446 19.0596 16.2373 19.4531 16.7216 19.4531C17.206 19.4531 17.5986 19.0596 17.5986 18.5742C17.5986 18.0887 17.206 17.6953 16.7216 17.6953C16.2373 17.6953 15.8446 18.0887 15.8446 18.5742ZM19.3526 16.8164C19.3526 17.3018 19.7453 17.6953 20.2297 17.6953C20.714 17.6953 21.1067 17.3018 21.1067 16.8164C21.1067 16.3309 20.714 15.9375 20.2297 15.9375C19.7453 15.9375 19.3526 16.3309 19.3526 16.8164ZM22.8607 18.5742C22.8607 19.0596 23.2533 19.4531 23.7377 19.4531C24.222 19.4531 24.6147 19.0596 24.6147 18.5742C24.6147 18.0887 24.222 17.6953 23.7377 17.6953C23.2533 17.6953 22.8607 18.0887 22.8607 18.5742ZM11.4596 28.2422C11.4596 29.2112 12.2467 30 13.2136 30H27.2457C28.2126 30 28.9997 29.2112 28.9997 28.2422V26.4844H11.4596V28.2422ZM2.34307 14.4556C4.34616 15.1437 5.31923 16.8646 5.31923 18.5745C5.31923 20.1847 4.40819 21.6539 3.0051 22.4176L2.34307 14.4556ZM2.02881 10.6641L2.18585 12.5527C5.11769 13.1679 7.0743 15.7409 7.0743 18.5742C7.0743 20.893 5.74218 23.2632 3.16074 24.2755L3.56971 29.194C3.60737 29.6498 3.98676 30 4.44327 30H9.72771C9.17122 29.2632 8.82831 28.3563 8.82831 27.3633V25.6055C8.82831 24.6659 9.32493 23.8454 10.0651 23.3784C9.30289 22.5874 8.82831 21.5159 8.82831 20.332C8.82831 15.593 11.7271 11.9167 17.3584 10.9267L17.3803 10.6641H2.02881ZM28.1231 23.8477C28.1231 24.1573 28.0598 24.4503 27.9615 24.7266H12.4985C12.4002 24.4503 12.3369 24.1573 12.3369 23.8477C12.3369 23.538 12.4002 23.245 12.4985 22.9688H27.9615C28.0598 23.245 28.1231 23.538 28.1231 23.8477Z" fill="url(#paint0_linear_2689:20676)"/>
<defs>
<linearGradient id="paint0_linear_2689:20676" x1="28.9997" y1="16.4136" x2="-0.000118492" y2="16.4761" gradientUnits="userSpaceOnUse">
<stop stop-color="#00AAE4"/>
<stop offset="1" stop-color="#8255BE"/>
</linearGradient>
</defs>
</svg>
