<svg width="161" height="160" viewBox="0 0 161 160" fill="none" xmlns="http://www.w3.org/2000/svg">
<path d="M147.812 48.439C143.498 50.849 138.526 52.2225 133.233 52.2225C116.699 52.2225 103.295 38.8191 103.295 22.2851C103.295 18.9924 103.827 15.8238 104.809 12.8605C101.6 12.295 98.2967 12 94.925 12H62.075C30.8295 12 5.5 37.3295 5.5 68.575V101.425C5.5 132.671 30.8295 158 62.075 158H94.925C126.171 158 151.5 132.671 151.5 101.425V68.575C151.5 61.4825 150.195 54.6948 147.812 48.439Z" fill="#F1F1F1"/>
<path d="M49.6441 81.0562C49.0523 79.6447 49.0785 78.0498 49.7162 76.6585L63.6673 46.2223C64.854 43.6334 67.8273 42.3868 70.5054 43.3553L101.991 54.7416C103.43 55.2621 104.586 56.3614 105.178 57.773L120.389 94.0534C121.558 96.8416 120.245 100.05 117.457 101.219L72.0203 120.268C69.2321 121.437 66.0241 120.125 64.8551 117.337L49.6441 81.0562Z" stroke="#B0B0B0" stroke-width="5.4743"/>
<path d="M38 70.7215C38 69.1909 38.6408 67.7303 39.7669 66.6937L64.4012 44.0189C66.4966 42.0903 69.7207 42.0903 71.816 44.0189L96.4504 66.6937C97.5765 67.7303 98.2173 69.191 98.2173 70.7215V110.062C98.2173 113.085 95.7663 115.536 92.743 115.536H43.4743C40.4509 115.536 38 113.085 38 110.062V70.7215Z" fill="#F1F1F1" stroke="#B0B0B0" stroke-width="5.4743"/>
<circle cx="67.7664" cy="62.5037" r="5.13215" stroke="#B0B0B0" stroke-width="3.42144"/>
<path d="M66.4504 93.9085C66.4504 95.3251 65.9381 96.4656 64.9135 97.3299C63.8888 98.1852 62.4543 98.6976 60.6099 98.8669V101.607H58.7789V98.9203C56.6049 98.8758 54.6982 98.4926 53.0587 97.7709V94.2426C53.8339 94.6257 54.765 94.9643 55.852 95.2583C56.9479 95.5523 57.9236 95.7261 58.7789 95.7796V91.6364L57.8835 91.2889C56.1193 90.5939 54.8674 89.841 54.1279 89.0302C53.3973 88.2105 53.032 87.1992 53.032 85.9964C53.032 84.7044 53.5354 83.6441 54.5422 82.8155C55.558 81.978 56.9702 81.4701 58.7789 81.2919V79.2471H60.6099V81.2385C62.6503 81.3276 64.4947 81.7374 66.143 82.468L64.8867 85.5954C63.4968 85.0252 62.0712 84.6777 60.6099 84.553V88.4956C62.3474 89.1639 63.5814 89.743 64.312 90.2331C65.0516 90.7231 65.5906 91.2622 65.9292 91.8502C66.2767 92.4383 66.4504 93.1244 66.4504 93.9085ZM62.4276 94.1089C62.4276 93.7347 62.2761 93.4184 61.9732 93.16C61.6702 92.9016 61.2158 92.6343 60.6099 92.3581V95.686C61.8217 95.4811 62.4276 94.9554 62.4276 94.1089ZM57.0548 85.9964C57.0548 86.3884 57.1885 86.7136 57.4558 86.972C57.732 87.2215 58.173 87.4799 58.7789 87.7472V84.6064C57.6295 84.7757 57.0548 85.239 57.0548 85.9964Z" fill="#B0B0B0"/>
<path d="M82.6349 93.9085C82.6349 95.3251 82.1226 96.4656 81.0979 97.3299C80.0733 98.1852 78.6388 98.6976 76.7944 98.8669V101.607H74.9634V98.9203C72.7893 98.8758 70.8826 98.4926 69.2432 97.7709V94.2426C70.0183 94.6257 70.9494 94.9643 72.0365 95.2583C73.1324 95.5523 74.108 95.7261 74.9634 95.7796V91.6364L74.0679 91.2889C72.3038 90.5939 71.0519 89.841 70.3124 89.0302C69.5818 88.2105 69.2164 87.1992 69.2164 85.9964C69.2164 84.7044 69.7199 83.6441 70.7267 82.8155C71.7424 81.978 73.1547 81.4701 74.9634 81.2919V79.2471H76.7944V81.2385C78.8348 81.3276 80.6791 81.7374 82.3275 82.468L81.0712 85.5954C79.6812 85.0252 78.2556 84.6777 76.7944 84.553V88.4956C78.5318 89.1639 79.7659 89.743 80.4965 90.2331C81.236 90.7231 81.7751 91.2622 82.1137 91.8502C82.4611 92.4383 82.6349 93.1244 82.6349 93.9085ZM78.612 94.1089C78.612 93.7347 78.4606 93.4184 78.1576 93.16C77.8547 92.9016 77.4003 92.6343 76.7944 92.3581V95.686C78.0061 95.4811 78.612 94.9554 78.612 94.1089ZM73.2393 85.9964C73.2393 86.3884 73.373 86.7136 73.6403 86.972C73.9165 87.2215 74.3575 87.4799 74.9634 87.7472V84.6064C73.814 84.7757 73.2393 85.239 73.2393 85.9964Z" fill="#B0B0B0"/>
<circle cx="133.5" cy="22" r="22" fill="#F1F1F1"/>
<path d="M126 30L142 14" stroke="#B0B0B0" stroke-width="3.81773" stroke-linecap="round" stroke-linejoin="round"/>
<path d="M142 30L126 14" stroke="#B0B0B0" stroke-width="3.81773" stroke-linecap="round" stroke-linejoin="round"/>
</svg>
