<svg width="26" height="22" viewBox="0 0 26 22" fill="none" xmlns="http://www.w3.org/2000/svg">
<path d="M22.4026 1.82287C22.0569 1.2628 21.5731 0.800986 20.9976 0.481777C20.422 0.162568 19.7741 -0.00331663 19.116 5.0248e-05H6.7981C6.13998 -0.00331663 5.49203 0.162568 4.91649 0.481777C4.34095 0.800986 3.85713 1.2628 3.5115 1.82287L0.169662 7.18086C0.0383972 7.38951 -0.019315 7.63606 0.00570841 7.88129C0.0307318 8.12652 0.137053 8.35634 0.307754 8.53417L12.1561 21.073C12.258 21.1844 12.3816 21.2737 12.5194 21.3355C12.6571 21.3972 12.8061 21.4301 12.957 21.432C13.108 21.4301 13.2569 21.3972 13.3947 21.3355C13.5324 21.2737 13.6561 21.1844 13.758 21.073L25.6063 8.53417C25.777 8.35634 25.8833 8.12652 25.9084 7.88129C25.9334 7.63606 25.8757 7.38951 25.7444 7.18086L22.4026 1.82287ZM10.1399 2.20953H15.7465L16.6855 6.65611H9.28377L10.1399 2.20953ZM5.38956 2.98285C5.53948 2.74506 5.74742 2.54932 5.99383 2.41404C6.24023 2.27876 6.51701 2.20838 6.7981 2.20953H7.90284L7.01905 6.65611H3.09722L5.38956 2.98285ZM3.67721 8.86559H7.18476L9.7809 15.3283L3.67721 8.86559ZM12.957 17.3445L9.55995 8.86559H16.3817L12.957 17.3445ZM16.1608 15.3007L18.7569 8.86559H22.2368L16.1608 15.3007ZM18.9502 6.65611L18.0112 2.20953H19.1436C19.42 2.21302 19.6911 2.2856 19.9323 2.42067C20.1735 2.55574 20.3771 2.749 20.5245 2.98285L22.8168 6.65611H18.9502Z" fill="url(#paint0_linear_3004:24930)"/>
<defs>
<linearGradient id="paint0_linear_3004:24930" x1="25.9141" y1="11.7259" x2="-3.79496e-05" y2="11.7957" gradientUnits="userSpaceOnUse">
<stop stop-color="#00AAE4"/>
<stop offset="1" stop-color="#8255BE"/>
</linearGradient>
</defs>
</svg>
