<svg width="25" height="24" viewBox="0 0 25 24" fill="none" xmlns="http://www.w3.org/2000/svg">
<path d="M19.6528 14.6715H18.6318L17.9773 12.6033C17.6369 11.5561 16.6683 10.823 15.5425 10.823H9.67818C8.57861 10.823 7.58377 11.5299 7.24343 12.6033L6.58893 14.6715H5.5679C5.12284 14.6715 4.75632 15.038 4.75632 15.4831V15.9281C4.75632 16.3732 5.12284 16.7397 5.5679 16.7397H5.85588C5.6988 17.4728 5.59408 18.232 5.59408 18.9912V22.8659C5.59408 23.3109 5.9606 23.6774 6.40567 23.6774H7.74085C8.18591 23.6774 8.55243 23.3109 8.55243 22.8659V21.6354H16.6421V22.8659C16.6421 23.3109 17.0086 23.6774 17.4537 23.6774H18.7888C19.2339 23.6774 19.6004 23.3109 19.6004 22.8659V18.9912C19.6004 18.232 19.5219 17.4728 19.3386 16.7397H19.6266C20.0717 16.7397 20.4382 16.3732 20.4382 15.9281V15.4831C20.4382 15.038 20.0717 14.6715 19.6528 14.6715ZM8.78805 13.1007C8.91895 12.708 9.28548 12.4462 9.67818 12.4462H15.5163C15.9352 12.4462 16.2756 12.708 16.4065 13.1007L17.1657 15.5093C17.1919 15.614 17.1133 15.7187 17.0086 15.7187H8.18591C8.08119 15.7187 7.97647 15.614 8.02883 15.5093L8.78805 13.1007ZM9.70436 19.4363H8.08119C7.81939 19.4363 7.58377 19.2268 7.58377 18.9389V18.1796C7.58377 17.8655 7.84557 17.656 8.15973 17.6822L9.67818 17.9178C9.88762 17.944 10.0447 18.1011 10.0709 18.3105L10.1756 18.8341C10.2541 19.1483 10.0185 19.4363 9.70436 19.4363ZM17.6369 18.9389C17.6369 19.2007 17.4275 19.4363 17.1395 19.4363H15.5163C15.2022 19.4363 14.9666 19.1483 15.0451 18.8341L15.1498 18.3105C15.2022 18.1011 15.3593 17.9702 15.5425 17.9178L17.061 17.6822C17.3489 17.6298 17.6369 17.8655 17.6369 18.1796V18.9389Z" fill="url(#paint0_linear_3004:25074)"/>
<path d="M24.3652 4.80161L13.003 0.298633C12.7412 0.193913 12.4794 0.193913 12.2176 0.298633L0.855487 4.80161C0.436606 4.95869 0.174805 5.35139 0.174805 5.79645V23.2586C0.174805 23.4942 0.358065 23.6775 0.593686 23.6775H1.87651C2.11213 23.6775 2.29539 23.4942 2.29539 23.2586V8.12648H22.8729V23.2586C22.8729 23.4942 23.0562 23.6775 23.2918 23.6775H24.5746C24.8103 23.6775 24.9935 23.4942 24.9935 23.2586V5.79645C25.0459 5.35139 24.7841 4.95869 24.3652 4.80161Z" fill="url(#paint1_linear_3004:25074)"/>
<defs>
<linearGradient id="paint0_linear_3004:25074" x1="25.0002" y1="13.0541" x2="0.174726" y2="13.1127" gradientUnits="userSpaceOnUse">
<stop stop-color="#00AAE4"/>
<stop offset="1" stop-color="#8255BE"/>
</linearGradient>
<linearGradient id="paint1_linear_3004:25074" x1="25.0002" y1="13.0541" x2="0.174726" y2="13.1127" gradientUnits="userSpaceOnUse">
<stop stop-color="#00AAE4"/>
<stop offset="1" stop-color="#8255BE"/>
</linearGradient>
</defs>
</svg>
