<svg width="29" height="27" viewBox="0 0 29 27" fill="none" xmlns="http://www.w3.org/2000/svg">
<path fill-rule="evenodd" clip-rule="evenodd" d="M9.40235 1.6497C8.93396 1.6497 8.55274 2.0198 8.55274 2.47455V3.90321H6.85352V2.47455C6.85352 1.11011 7.99695 0 9.40235 0H19.5977C21.0031 0 22.1465 1.11011 22.1465 2.47455V3.90321H20.4473V2.47455C20.4473 2.0198 20.0661 1.6497 19.5977 1.6497H9.40235ZM26.2967 5.55414H25.6016V9.12847C25.6016 9.58407 25.2212 9.95332 24.752 9.95332H21.3535C20.8842 9.95332 20.5039 9.58407 20.5039 9.12847V5.55414H8.49609V9.12847C8.49609 9.58407 8.11576 9.95332 7.64648 9.95332H4.24805C3.77877 9.95332 3.39844 9.58407 3.39844 9.12847V5.55414H2.70326C1.21268 5.55414 0 6.73148 0 8.17861V24.3757C0 25.8228 1.21268 27.0002 2.70326 27.0002H26.2967C27.7873 27.0002 29 25.8228 29 24.3757V8.17861C29 6.73148 27.7873 5.55414 26.2967 5.55414ZM14.5 23.7008C11.2206 23.7008 8.55273 21.1107 8.55273 17.9268C8.55273 14.743 11.2206 12.1529 14.5 12.1529C17.7794 12.1529 20.4473 14.743 20.4473 17.9268C20.4473 21.1107 17.7794 23.7008 14.5 23.7008ZM5.09766 5.5542H6.79688V8.30369H5.09766V5.5542ZM22.2031 5.5542H23.9023V8.30369H22.2031V5.5542ZM10.252 17.9265C10.252 15.6524 12.1576 13.8022 14.5 13.8022C16.8424 13.8022 18.7481 15.6524 18.7481 17.9265C18.7481 20.2006 16.8424 22.0507 14.5 22.0507C12.1576 22.0507 10.252 20.2006 10.252 17.9265ZM15.3496 18.7513H16.1992C16.6685 18.7513 17.0488 18.3821 17.0488 17.9265C17.0488 17.4709 16.6685 17.1016 16.1992 17.1016H15.3496V16.2768C15.3496 15.8212 14.9693 15.4519 14.5 15.4519C14.0307 15.4519 13.6504 15.8212 13.6504 16.2768V17.1016H12.8008C12.3315 17.1016 11.9512 17.4709 11.9512 17.9265C11.9512 18.3821 12.3315 18.7513 12.8008 18.7513H13.6504V19.5762C13.6504 20.0318 14.0307 20.401 14.5 20.401C14.9693 20.401 15.3496 20.0318 15.3496 19.5762V18.7513Z" fill="url(#paint0_linear_2689:20677)"/>
<defs>
<linearGradient id="paint0_linear_2689:20677" x1="29" y1="14.7723" x2="-8.69061e-05" y2="14.8418" gradientUnits="userSpaceOnUse">
<stop stop-color="#00AAE4"/>
<stop offset="1" stop-color="#8255BE"/>
</linearGradient>
</defs>
</svg>
