<svg width="36" height="22" viewBox="0 0 36 22" fill="none" xmlns="http://www.w3.org/2000/svg">
<path fill-rule="evenodd" clip-rule="evenodd" d="M24.8359 0C25.4022 0 25.8613 0.461725 25.8613 1.03125V6.11875H10.1387V1.03125C10.1387 0.461725 10.5978 0 11.1641 0H24.8359ZM33.3809 3.36902C33.9471 3.36902 34.4062 3.83074 34.4062 4.40027V11.6878H27.9121V3.36902H33.3809ZM32.9707 19.9373H34.4746C35.0409 19.9373 35.5 20.399 35.5 20.9685C35.5 21.5381 35.0409 21.9998 34.4746 21.9998H1.52539C0.959102 21.9998 0.5 21.5381 0.5 20.9685C0.5 20.399 0.959102 19.9373 1.52539 19.9373H3.0293V13.7498H8.08789V19.9373H10.1387V8.18103H25.8613V19.9373H27.9121V13.7498H32.9707V19.9373ZM19.0254 14.3685V19.9373H21.0762V13.3373C21.0762 12.7678 20.6171 12.306 20.0508 12.306H15.9492C15.3829 12.306 14.9238 12.7678 14.9238 13.3373V19.9373H16.9746V14.3685H19.0254ZM8.08789 3.36902H2.61914C2.05285 3.36902 1.59375 3.83074 1.59375 4.40027V11.6878H8.08789V3.36902Z" fill="url(#paint0_linear_2689:20543)"/>
<defs>
<linearGradient id="paint0_linear_2689:20543" x1="35.5" y1="12.0365" x2="0.500135" y2="12.1607" gradientUnits="userSpaceOnUse">
<stop stop-color="#00AAE4"/>
<stop offset="1" stop-color="#8255BE"/>
</linearGradient>
</defs>
</svg>
