<svg width="23" height="22" viewBox="0 0 23 22" fill="none" xmlns="http://www.w3.org/2000/svg">
<path d="M20.0008 0C20.0666 0 20.1296 0.0261167 20.1761 0.0726049C20.2226 0.119093 20.2487 0.182145 20.2487 0.247889V6.02321L16.4833 2.81991V0.247889C16.4833 0.182145 16.5094 0.119093 16.5559 0.0726049C16.6024 0.0261167 16.6655 0 16.7312 0H20.0008ZM11.6602 0.0589285C11.6155 0.0208914 11.5587 4.63062e-06 11.5 4.63062e-06C11.4413 4.63062e-06 11.3845 0.0208914 11.3398 0.0589285L0.0870648 9.63182C0.0623266 9.65286 0.0419755 9.67857 0.027174 9.70747C0.0123725 9.73638 0.00341058 9.76792 0.000800103 9.80029C-0.00181037 9.83266 0.00198176 9.86522 0.0119599 9.89613C0.021938 9.92703 0.0379067 9.95567 0.0589537 9.9804L1.19319 11.3136C1.21422 11.3384 1.23993 11.3587 1.26883 11.3735C1.29774 11.3883 1.32927 11.3973 1.36164 11.3999C1.394 11.4025 1.42657 11.3987 1.45747 11.3887C1.48837 11.3788 1.517 11.3628 1.54173 11.3418L2.41267 10.6008V21.2092C2.41267 21.2775 2.43979 21.343 2.48808 21.3912C2.53636 21.4395 2.60185 21.4667 2.67013 21.4667H8.26262V15.3039H14.7374V21.4667H20.3299C20.3982 21.4667 20.4636 21.4395 20.5119 21.3912C20.5602 21.343 20.5873 21.2775 20.5873 21.2092V10.6008L21.4583 11.3417C21.483 11.3628 21.5117 11.3788 21.5426 11.3887C21.5735 11.3987 21.606 11.4025 21.6384 11.3999C21.6708 11.3973 21.7023 11.3883 21.7312 11.3735C21.7601 11.3587 21.7858 11.3384 21.8068 11.3136L22.9411 9.98038C22.9621 9.95565 22.9781 9.92701 22.988 9.89611C22.998 9.8652 23.0018 9.83264 22.9992 9.80027C22.9966 9.7679 22.9876 9.73636 22.9728 9.70746C22.958 9.67855 22.9377 9.65284 22.9129 9.6318L11.6602 0.0589285Z" fill="url(#paint0_linear_3004:25057)"/>
<defs>
<linearGradient id="paint0_linear_3004:25057" x1="23" y1="11.7448" x2="-6.95726e-05" y2="11.7998" gradientUnits="userSpaceOnUse">
<stop stop-color="#00AAE4"/>
<stop offset="1" stop-color="#8255BE"/>
</linearGradient>
</defs>
</svg>
