<svg width="25" height="23" viewBox="0 0 25 23" fill="none" xmlns="http://www.w3.org/2000/svg">
<path fill-rule="evenodd" clip-rule="evenodd" d="M0.732354 4.07178L2.28785 2.52463C2.94763 1.86344 3.8861 1.48167 4.85582 1.48167C5.827 1.48167 6.76547 1.86344 7.42807 2.5289L10.2506 5.81486V3.60599C10.2506 3.41331 10.1738 3.22776 10.0372 3.09128L8.45327 1.50584C7.49204 0.537523 6.21373 0.00286352 4.85296 0.000727992C4.84869 0 4.84587 0 4.8416 0C3.48365 0 2.20679 0.528932 1.24697 1.48944L0.213274 2.52323C-0.0710913 2.80759 -0.0710913 3.26833 0.213274 3.5527L0.732354 4.07178ZM21.8502 19.8573C23.0083 19.3199 23.6061 18.8467 23.6118 18.841C23.9005 18.563 24.3597 18.568 24.6398 18.8517C24.9199 19.1368 24.9199 19.5926 24.637 19.8748C22.1681 22.3437 15.881 23.0002 12.3859 23.0002C8.75202 23.0002 2.65726 22.2851 0.222808 19.8755C-0.0615578 19.5911 -0.0615578 19.1304 0.222808 18.8453C0.507173 18.5609 0.967914 18.5616 1.25228 18.8446C1.25228 18.8451 1.58799 19.1541 2.32776 19.5557C2.32776 19.5557 2.67561 18.5339 2.84907 18.0377C3.97527 14.8085 5.23509 11.1954 4.42742 8.56482C4.05914 8.93878 3.74634 9.25586 3.74634 9.25586C2.91595 10.0891 1.46705 10.0848 0.645157 9.26013C-0.207987 8.40626 -0.207987 7.01705 0.645157 6.16318L3.26574 3.55681C4.0905 2.7307 5.52659 2.73211 6.34848 3.55681L9.47383 7.20109V13.5359C9.47383 13.9383 9.79945 14.2639 10.2019 14.2639H11.6579V17.176H10.3625C8.81123 17.176 7.42629 18.1727 6.9144 19.6558L6.84569 19.8602L6.84528 19.8614L6.84516 19.8618C6.743 20.1657 6.58637 20.6318 6.46666 20.9849C8.23391 21.3493 10.212 21.5441 12.3859 21.5441C14.2669 21.5441 15.9705 21.4015 17.4821 21.1356V20.8161C17.4821 18.809 15.8497 17.176 13.842 17.176H13.1139V14.2639H14.57C14.9724 14.2639 15.298 13.9383 15.298 13.5359V8.4397H16.754C19.5638 8.4397 21.8502 10.7261 21.8502 13.5359V19.8573ZM13.8425 8.44062H10.9304V12.8088H13.8425V8.44062ZM19.9325 7.79371C20.4555 7.29444 21.1599 6.98323 21.9381 6.98323C23.5435 6.98323 24.8502 8.28925 24.8502 9.89532V14.9915C24.8502 15.3939 24.5246 15.7195 24.1222 15.7195C23.7198 15.7195 23.3942 15.3939 23.3942 14.9915V13.5354C23.3942 11.0457 21.9825 8.9023 19.9325 7.79371Z" fill="url(#paint0_linear_3004:25052)"/>
<defs>
<linearGradient id="paint0_linear_3004:25052" x1="24.8502" y1="12.5839" x2="-7.27762e-05" y2="12.6437" gradientUnits="userSpaceOnUse">
<stop stop-color="#00AAE4"/>
<stop offset="1" stop-color="#8255BE"/>
</linearGradient>
</defs>
</svg>
