<svg width="34" height="34" viewBox="0 0 34 34" fill="none" xmlns="http://www.w3.org/2000/svg%22%3E">
<g id="atom/icon/close" clip-path="url(#clip0_4595_28848)">
<path id="Union" fill-rule="evenodd" clip-rule="evenodd" d="M17.887 9.01268C17.6518 8.77749 17.3328 8.64536 17.0002 8.64536C16.6676 8.64536 16.3486 8.77749 16.1135 9.01268C15.8783 9.24787 15.7461 9.56714 15.7461 9.89975L15.7529 15.7232L9.92986 15.7164C9.76496 15.7158 9.60156 15.7478 9.44908 15.8106C9.29649 15.8734 9.15786 15.9659 9.04118 16.0825C8.9245 16.1992 8.83207 16.3379 8.76924 16.4904C8.70653 16.6427 8.67453 16.8059 8.67507 16.9705C8.67453 17.1352 8.70653 17.2983 8.76923 17.4506C8.83207 17.6032 8.9245 17.7418 9.04118 17.8585C9.15786 17.9752 9.29649 18.0676 9.44908 18.1305C9.60151 18.1932 9.76534 18.2252 9.93019 18.2246L15.7529 18.2178L15.7461 24.041C15.7455 24.2059 15.7775 24.3692 15.8403 24.5217C15.9031 24.6743 15.9956 24.8129 16.1122 24.9296C16.2289 25.0463 16.3676 25.1387 16.5201 25.2015C16.6724 25.2642 16.8356 25.2962 17.0002 25.2957C17.1649 25.2962 17.328 25.2642 17.4803 25.2015C17.6329 25.1387 17.7715 25.0463 17.8882 24.9296C18.0049 24.8129 18.0973 24.6743 18.1602 24.5217C18.2229 24.3692 18.2549 24.2054 18.2543 24.0406L18.2475 18.2178L24.0713 18.2246C24.4039 18.2246 24.7229 18.0925 24.9581 17.8573C25.1933 17.6221 25.3254 17.3031 25.3254 16.9705C25.3254 16.6379 25.1933 16.3189 24.9581 16.0837C24.7229 15.8486 24.4036 15.7164 24.071 15.7164L18.2475 15.7232L18.2543 9.89946C18.2543 9.56685 18.1222 9.24787 17.887 9.01268ZM17.0002 25.0457L17.0013 25.2957L17.0002 25.2957L16.9992 25.2957L17.0002 25.0457Z" fill="url(#paint0_linear_4595_28848)"/>
</g>
<defs>
<linearGradient id="paint0_linear_4595_28848" x1="21.0063" y1="21.8115" x2="12.1395" y2="12.9841" gradientUnits="userSpaceOnUse">
<stop stop-color="#00AAE4"/>
<stop offset="1" stop-color="#8255BE"/>
</linearGradient>
<clipPath id="clip0_4595_28848">
<rect width="24" height="24" fill="white" transform="translate(17) rotate(45)"/>
</clipPath>
</defs>
</svg>