<svg width="22" height="22" viewBox="0 0 22 22" fill="none" xmlns="http://www.w3.org/2000/svg">
<path d="M11 12.375C9.54131 12.375 8.14236 11.7955 7.11091 10.7641C6.07946 9.73264 5.5 8.33369 5.5 6.875C5.5 5.41631 6.07946 4.01736 7.11091 2.98591C8.14236 1.95446 9.54131 1.375 11 1.375C12.4587 1.375 13.8576 1.95446 14.8891 2.98591C15.9205 4.01736 16.5 5.41631 16.5 6.875C16.5 8.33369 15.9205 9.73264 14.8891 10.7641C13.8576 11.7955 12.4587 12.375 11 12.375Z" fill="black"/>
<path d="M11 11C11.1823 11 11.3572 11.0724 11.4861 11.2014C11.6151 11.3303 11.6875 11.5052 11.6875 11.6875V17.1875C11.6875 17.3698 11.6151 17.5447 11.4861 17.6736C11.3572 17.8026 11.1823 17.875 11 17.875C10.8177 17.875 10.6428 17.8026 10.5139 17.6736C10.3849 17.5447 10.3125 17.3698 10.3125 17.1875V11.6875C10.3125 11.5052 10.3849 11.3303 10.5139 11.2014C10.6428 11.0724 10.8177 11 11 11Z" fill="black"/>
<path d="M8.25 13.9452V15.3408C5.79562 15.7341 4.125 16.5838 4.125 17.1874C4.125 17.9973 7.13075 19.2499 11 19.2499C14.8693 19.2499 17.875 17.9973 17.875 17.1874C17.875 16.5824 16.2044 15.7341 13.75 15.3408V13.9452C16.9537 14.4168 19.25 15.6914 19.25 17.1874C19.25 19.0849 15.5568 20.6249 11 20.6249C6.44325 20.6249 2.75 19.0849 2.75 17.1874C2.75 15.6901 5.04625 14.4168 8.25 13.9452Z" fill="black"/>
</svg>
