<svg width="81" height="82" viewBox="0 0 81 82" fill="none" xmlns="http://www.w3.org/2000/svg">
<path d="M0.0213612 40.3009C0.103397 41.6545 0.0213611 43.0081 0.144415 44.4027C0.472558 48.1353 1.33393 51.7859 2.68753 55.3134C3.91806 58.4308 5.51776 61.4251 7.48662 64.1733C10.1528 67.988 13.5163 71.2284 17.3719 73.8536C20.8175 76.1916 24.6321 78.0374 28.6109 79.2679C31.7692 80.2523 35.0097 80.8266 38.3321 80.9497C42.639 81.1958 46.9459 80.7035 51.0887 79.555C55.4366 78.3655 59.5384 76.4377 63.271 73.8946C66.0602 71.9667 68.6033 69.7107 70.8593 67.1676C72.295 65.5679 73.5665 63.8862 74.715 62.0404C76.3557 59.4563 77.6683 56.7081 78.6938 53.8368C79.9653 50.1452 80.7447 46.3305 80.9497 42.4338C81.1138 39.3985 80.8677 36.3632 80.3345 33.3689C79.309 27.4623 76.971 21.8428 73.4435 17.0027C73.0743 16.5925 73.0333 15.9773 73.3614 15.5671C74.592 13.229 74.3869 10.3578 72.7872 8.26588C70.6132 5.68175 67.2087 4.82037 64.0504 6.78923C63.6812 7.07636 63.189 7.07636 62.8608 6.78923C61.9995 6.17396 61.0971 5.64073 60.1537 5.14852C55.7237 2.72846 50.8836 1.08774 45.9204 0.431454C42.5159 -0.0197432 39.1115 -0.0197432 35.707 0.349418C31.8103 0.759598 27.9956 1.78505 24.386 3.34373C20.2842 5.1075 16.4696 7.56857 13.1881 10.6039C10.0708 13.3521 7.48662 16.5925 5.39471 20.1201C3.5489 23.2784 2.15429 26.6419 1.21088 30.1695C0.308487 33.4919 -0.101693 36.8964 0.0213612 40.3009Z" fill="#EEEEEE"/>
<path d="M0.0212978 40.3009C-0.101756 36.8964 0.308423 33.4919 1.25184 30.1695C2.15423 26.6419 3.54884 23.2374 5.43566 20.1201C7.48656 16.5925 10.0707 13.3521 13.106 10.5219C16.3875 7.48654 20.2021 5.02547 24.3039 3.2617C27.9135 1.70301 31.7282 0.677566 35.6249 0.267387C39.0294 -0.101774 42.4338 -0.101774 45.8383 0.349423C50.8425 1.04673 55.6826 2.64643 60.0716 5.06648C61.015 5.5587 61.8763 6.13295 62.7787 6.7072C63.1069 6.99433 63.6401 6.99433 63.9683 6.7072C67.1266 4.77936 70.5311 5.64074 72.7051 8.18385C74.3048 10.3168 74.5099 13.147 73.2793 15.485C72.9512 15.9362 72.9922 16.5105 73.3614 16.9207C76.8889 21.8018 79.2269 27.3802 80.2524 33.2868C80.8266 36.2811 81.0317 39.3165 80.8676 42.3518C80.6626 46.2485 79.8832 50.0632 78.6117 53.7548C77.5862 56.626 76.2736 59.3742 74.6329 61.9584C73.4844 63.7632 72.2129 65.4859 70.7772 67.0856C68.5212 69.6287 65.9781 71.8847 63.1889 73.8125C59.4973 76.3967 55.3545 78.2835 51.0066 79.473C46.8638 80.6215 42.5569 81.1137 38.25 80.8676C34.9686 80.7036 31.6871 80.1293 28.5288 79.1859C24.509 77.9554 20.7354 76.1096 17.2899 73.7715C13.4342 71.1874 10.0707 67.906 7.40453 64.0913C5.43566 61.3431 3.83597 58.3898 2.60543 55.2314C1.25184 51.7449 0.390459 48.0533 0.0623157 44.3207C0.0212977 43.0491 0.0623157 41.6545 0.0212978 40.3009ZM3.95902 40.465C3.95902 41.2443 3.95902 42.0647 3.95902 42.844C3.95902 43.2542 4.04105 43.7054 4.08207 44.1156C4.77938 52.1961 8.2659 59.8254 13.9674 65.609C22.4581 74.3458 32.8356 78.0374 44.9359 76.6838C52.2371 75.9045 59.0871 72.8281 64.5015 67.865C73.8946 59.3332 77.9964 48.6686 76.6428 35.994C75.9455 29.8823 73.6895 24.0988 70.0799 19.1356C69.8748 18.7665 69.4236 18.6024 69.0545 18.7255C65.5269 19.5868 61.9994 17.4539 61.138 13.9264C60.8919 13.024 60.8509 12.0806 61.056 11.1782C61.2201 10.6449 60.9329 10.1117 60.4407 9.9066C52.6063 4.69733 43.0081 2.76948 33.738 4.57427C16.4285 7.73265 3.87698 22.8683 3.95902 40.465ZM67.4958 15.8542C69.4647 15.8952 71.0644 14.3365 71.0644 12.3677C71.0644 12.3267 71.0644 12.3267 71.0644 12.2856C71.0233 10.3168 69.4647 8.7581 67.4958 8.7581C65.5269 8.7581 63.9272 10.3168 63.9272 12.2856V12.3267C63.9683 14.2955 65.5269 15.8542 67.4958 15.8542Z" fill="#FEFDFE"/>
<path d="M3.95841 40.4653C3.87637 22.8686 16.4279 7.77398 33.7374 4.57458C43.0075 2.76979 52.5647 4.69763 60.4401 9.90691C60.9323 10.112 61.1784 10.6452 61.0554 11.1785C60.3991 14.747 62.7371 18.1515 66.3057 18.8078C67.2081 18.9719 68.1515 18.9719 69.0539 18.7258C69.4641 18.6027 69.9153 18.7668 70.1203 19.1359C73.7299 24.0991 75.9859 29.9237 76.6832 35.9943C78.0368 48.6689 73.976 59.3335 64.5419 67.8652C59.1275 72.8284 52.2775 75.9048 44.9763 76.6841C32.8761 78.0377 22.4985 74.3461 14.0078 65.6093C8.30631 59.7847 4.81978 52.1964 4.12248 44.1159C4.08146 43.7057 3.99942 43.2545 3.99942 42.8443C3.95841 42.065 3.95841 41.2446 3.95841 40.4653ZM38.7416 35.8713L38.9057 36.0353L39.603 37.1018C39.562 37.2248 39.644 37.3889 39.7261 37.471L39.7671 43.6236C40.7515 43.8698 41.7769 43.8698 42.7204 43.6236C42.8024 41.7368 42.8024 39.85 42.7204 37.9632C42.7614 37.9222 42.7614 37.8401 42.7204 37.7991C42.6793 37.471 42.6383 37.1018 42.5973 36.7737L42.4743 36.4865L42.4332 36.2404C42.4743 36.1174 42.3922 35.9533 42.3102 35.8713C42.1461 35.297 41.818 34.7638 41.3668 34.3536C41.2437 34.0665 40.9976 33.8614 40.7515 33.7383L40.4234 33.4922L40.2183 33.3281C39.3569 32.6719 38.3314 32.3437 37.306 32.3437H36.6497L36.2395 32.4258C36.1985 32.3847 36.1575 32.3847 36.1165 32.4258L35.7883 32.4668C35.6653 32.4258 35.5012 32.4668 35.4192 32.5898C34.8449 32.6719 34.3527 32.918 33.9015 33.2871L33.6964 33.4512C33.4913 33.4922 33.3273 33.6563 33.2452 33.8204L33.0811 33.9844C32.835 34.1485 32.6299 34.3536 32.5479 34.6407L32.3838 34.8458C31.8916 35.4611 31.5635 36.2404 31.5225 37.0608C31.1943 38.4964 31.3994 39.9731 31.3994 41.4087C31.3584 43.8698 31.3994 43.8698 33.9015 43.7877C34.3527 43.7877 34.4757 43.6236 34.4757 43.2135C34.4347 41.6548 34.4347 40.0551 34.4347 38.4964C34.2296 36.9787 35.2961 35.6252 36.8138 35.4201C37.429 35.338 38.0443 35.4611 38.5365 35.7482L38.7416 35.8713ZM7.73206 42.3931C7.73206 43.4596 7.69104 44.485 7.73206 45.5515C7.77308 46.3308 7.40391 47.3563 7.89613 47.7665C8.38834 48.1356 9.37278 47.8485 10.1111 47.9305C10.6443 47.9715 10.8084 47.8075 10.8084 47.2742C10.7674 46.3308 10.8084 45.3874 10.7674 44.444C10.7674 43.9518 10.8494 43.7057 11.4237 43.7467C12.121 43.7877 12.7773 43.7877 13.4746 43.7467C16.6329 43.7057 19.135 41.1216 19.094 37.9632C19.053 34.8458 16.5099 32.3437 13.3925 32.3027C10.2342 32.3027 7.69104 34.8458 7.69104 37.9632V38.0042C7.69104 39.4808 7.73206 40.9575 7.73206 42.3931ZM69.4641 32.3027C68.4796 32.3027 67.4542 32.3027 66.4697 32.3027C64.5009 32.2617 62.8191 33.8204 62.7781 35.7892C62.7781 35.8302 62.7781 35.8302 62.7781 35.8713C62.7781 37.8811 64.3778 39.4808 66.3467 39.5219H66.3877C67.6593 39.5219 68.9718 39.5219 70.2434 39.5219C70.6536 39.5219 71.1048 39.5629 71.1048 40.0961C71.1048 40.6293 70.6536 40.6704 70.2434 40.6704C68.8488 40.6704 67.4542 40.6704 66.0596 40.6704C65.3212 40.6704 64.3368 40.3422 63.9266 40.8344C63.5575 41.2856 63.8446 42.2701 63.7626 42.9674C63.7215 43.5006 63.8446 43.7467 64.4599 43.7057C66.4287 43.6647 68.3976 43.7057 70.3664 43.6647C70.8176 43.6647 71.2688 43.5826 71.72 43.4596C73.3197 42.9263 74.3452 41.3677 74.1811 39.6859C73.976 37.8401 72.4584 36.4455 70.6126 36.4455C69.341 36.4045 68.0284 36.4455 66.7569 36.4045C66.3467 36.4045 65.8955 36.4455 65.8545 35.8713C65.8545 35.297 66.3057 35.338 66.7159 35.338C68.0694 35.338 69.4641 35.338 70.8176 35.338C73.2787 35.338 73.2787 35.338 73.1967 32.8359C73.1967 32.3847 73.0736 32.2617 72.6224 32.2617C71.556 32.3027 70.4895 32.3027 69.4641 32.3027ZM56.5844 44.2799C59.7428 44.2799 62.3269 41.7368 62.368 38.5784V38.5374C62.3269 35.4201 59.7838 32.918 56.6665 32.877C53.5081 32.877 50.9239 35.379 50.9239 38.5374C50.8829 41.6958 53.385 44.2389 56.5434 44.2799H56.5844ZM19.5452 36.1174C19.5452 36.9787 19.5452 37.8401 19.5452 38.7015C19.6273 41.6958 22.0063 44.1159 24.9596 44.2799C27.4207 44.444 30.456 42.5982 30.8662 39.4808C30.9892 38.0452 31.0302 36.6506 30.9482 35.215C30.9892 32.7949 30.9482 32.7949 28.5282 32.8359C27.9949 32.8359 27.8719 33 27.8719 33.5332C27.9129 35.1329 27.9129 36.7326 27.8719 38.3323C27.9949 39.809 26.8464 41.1216 25.3698 41.2446C25.2877 41.2446 25.2467 41.2446 25.1647 41.2446C23.647 41.2446 22.5806 40.0551 22.5806 38.3323C22.5806 36.7326 22.5395 35.1329 22.5806 33.5332C22.5806 33 22.4575 32.7949 21.9243 32.8359C21.309 32.877 20.6527 32.877 20.0374 32.8359C19.6273 32.8359 19.5042 33 19.5042 33.3692C19.5452 34.2716 19.5452 35.174 19.5452 36.1174ZM43.2126 33.4922C43.2126 34.9278 43.2126 36.4045 43.2126 37.8401C43.1716 40.9575 45.5916 43.5826 48.709 43.7057C50.4727 43.8287 50.4727 43.8287 50.4727 42.106C50.4727 41.8599 50.4727 41.5728 50.4727 41.3266C50.5138 40.8344 50.3497 40.5883 49.8165 40.6293C49.5293 40.6704 49.2422 40.6704 48.9551 40.6293C47.5605 40.6704 46.412 39.6039 46.3299 38.2093C46.2479 37.3479 46.2889 36.4865 46.2479 35.6252C46.2479 35.256 46.371 35.1329 46.7401 35.1329C47.3964 35.174 48.0527 35.1329 48.709 35.1329C50.4727 35.1329 50.4727 35.1329 50.4727 33.3281C50.4727 32.0156 50.5958 32.2207 49.4063 32.2207C48.9961 32.2207 48.5449 32.2207 48.1347 32.2207C46.2889 32.2207 46.2889 32.2207 46.2889 30.3749C46.2889 27.9548 46.2889 27.9958 43.8278 28.0779C43.3356 28.0779 43.2126 28.2419 43.2126 28.7341C43.2536 30.3338 43.2536 31.8925 43.2126 33.4922ZM60.8913 51.8272C60.8913 51.1299 60.8913 50.4736 60.8913 49.7763C60.8913 49.4892 60.8503 49.2841 60.4811 49.2841C60.194 49.2841 59.9889 49.3251 59.9889 49.6943C59.9479 50.1865 60.194 50.7608 59.8659 51.0889C59.4967 51.4171 58.8814 51.1299 58.3892 51.253C58.3072 51.253 58.2251 51.253 58.1431 51.294C56.9536 51.4991 56.0922 52.5656 56.1742 53.7961C56.2973 55.0266 57.3227 56.0111 58.5533 56.0111C59.8248 56.0111 60.8503 55.0266 60.9323 53.7961C60.8913 53.1398 60.8913 52.4835 60.8913 51.8272ZM48.0937 56.0521C48.5449 56.0521 48.9961 56.0521 49.4473 56.0111C50.1856 55.97 50.7599 55.3138 50.7189 54.5754C50.7189 53.8371 50.1036 53.2218 49.3653 53.2218C48.791 53.1808 48.2168 53.2218 47.6425 53.2218C47.3144 53.2218 46.9862 53.1808 46.9452 52.7706C46.9042 52.2784 47.2733 52.2374 47.6425 52.2374C48.3398 52.2374 49.0781 52.2374 49.7754 52.2374C50.1036 52.2374 50.2266 52.1144 50.2266 51.7862C50.2266 51.4991 50.2266 51.253 49.8575 51.253C48.9551 51.253 48.0117 51.253 47.1093 51.335C46.371 51.4171 45.8787 52.0323 45.9198 52.7706C45.9198 53.509 46.535 54.1242 47.3144 54.1242C47.9296 54.1653 48.5039 54.1242 49.1192 54.1242C49.4883 54.1242 49.7754 54.2473 49.7344 54.6575C49.6934 55.0266 49.4063 55.1087 49.1192 55.1087C48.4219 55.1087 47.6835 55.1087 46.9862 55.1087C46.6581 55.1087 46.453 55.1087 46.453 55.5599C46.453 55.9701 46.6171 56.1341 47.0272 56.0931C47.3554 56.0111 47.7245 56.0521 48.0937 56.0521ZM28.8153 51.294C27.7078 51.212 26.6823 51.9093 26.3952 52.9757C26.0671 54.0012 26.5183 55.1497 27.4617 55.7239C28.3641 56.2572 29.5536 56.1341 30.2919 55.4368C30.456 55.2727 30.8662 55.1497 30.497 54.7805C30.2509 54.5344 30.0458 54.2883 29.6767 54.6985C29.4305 54.9856 29.0614 55.1497 28.6922 55.1087C28.5692 55.1087 28.3641 55.0676 28.3231 54.9856C28.2 54.8215 28.3641 54.6985 28.4871 54.5754C28.9793 54.0832 29.4305 53.591 29.9228 53.1398C30.7841 52.2784 30.6611 51.7862 29.4716 51.4171C29.2255 51.335 29.0204 51.294 28.8153 51.294ZM43.2126 51.294C41.9 51.294 40.8335 52.3605 40.8335 53.673C40.8745 54.9856 41.941 56.0521 43.2946 56.0521C44.6072 56.0111 45.6326 54.9036 45.6326 53.591C45.6326 52.3194 44.6072 51.253 43.3356 51.253C43.2946 51.294 43.2536 51.294 43.2126 51.294ZM51.047 52.7706C51.047 53.0578 51.047 53.3449 51.047 53.632C51.006 54.9036 52.0314 56.0111 53.303 56.0521C54.5745 56.0931 55.641 55.1497 55.7641 53.9191C55.8461 53.1808 55.7641 52.4425 55.8051 51.7042C55.8051 51.294 55.559 51.253 55.2718 51.253C54.9437 51.253 54.8207 51.376 54.8207 51.7042C54.8207 52.3195 54.8207 52.8937 54.8207 53.509C54.9027 54.2883 54.2874 55.0266 53.5081 55.1087C53.4671 55.1087 53.426 55.1087 53.385 55.1087C52.6057 55.1087 51.9494 54.4524 51.9494 53.632V53.591C51.9084 52.9757 51.9494 52.4015 51.9494 51.7862C51.9494 51.4581 51.8674 51.253 51.4982 51.253C51.129 51.253 51.006 51.4171 51.006 51.7452C51.088 52.0733 51.088 52.4015 51.047 52.7706ZM35.7883 54.6165C35.7883 54.2883 35.7883 53.9191 35.7883 53.591C35.7473 52.2784 34.6398 51.253 33.3272 51.294C33.2862 51.294 33.2862 51.294 33.2452 51.294C31.9737 51.335 30.9892 52.4015 31.0302 53.673V53.7141C31.0302 54.3293 31.0302 54.9036 31.0302 55.5189C31.0302 55.806 31.0302 56.0931 31.4404 56.0931C31.8916 56.0931 31.9737 55.929 31.9737 55.5189C31.9737 54.9036 31.9326 54.2473 31.9737 53.632C31.9737 52.8527 32.6299 52.2374 33.4093 52.2374C34.1886 52.2374 34.8449 52.8937 34.8039 53.7141V53.7551C34.8039 54.3703 34.8039 55.0266 34.8039 55.6419C34.8039 56.0521 35.009 56.0931 35.3371 56.0931C35.6653 56.0931 35.8293 56.0111 35.8293 55.6419C35.7883 55.2727 35.7883 54.9446 35.7883 54.6165ZM23.8521 51.253C22.7446 51.253 21.8012 51.9913 21.5551 53.0578C21.309 54.0832 21.7602 55.1497 22.6626 55.6829C23.606 56.2162 24.7545 56.0521 25.5338 55.3548C25.7389 55.1497 25.985 54.9856 25.6569 54.6985C25.4108 54.4524 25.2467 54.3293 24.8776 54.6165C24.0982 55.2317 23.4009 55.1907 22.8267 54.5754C22.3344 54.0422 22.3344 53.2218 22.7856 52.6886C23.2368 52.1144 24.0982 51.9913 24.6725 52.4425C24.7135 52.4835 24.7955 52.5245 24.8365 52.5656C25.2057 52.8937 25.4108 52.7706 25.6569 52.4835C26.0671 52.0733 25.5749 51.9503 25.4108 51.7862C25.0006 51.4171 24.4264 51.212 23.8521 51.253ZM36.1165 53.632C36.0755 54.6165 36.6907 55.4778 37.5931 55.847C38.4545 56.2162 39.4799 56.0111 40.1362 55.3548C40.3413 55.1497 40.5874 54.9856 40.2593 54.6575C40.0132 54.4114 39.8081 54.2473 39.521 54.5754C39.1928 54.9856 38.6186 55.1497 38.1264 54.9446C37.5521 54.7805 37.1419 54.2883 37.1009 53.7141C37.0189 53.1398 37.306 52.6066 37.8392 52.3605C38.3725 51.9913 39.0698 52.0733 39.4799 52.5656C39.8081 52.8937 40.0132 52.8527 40.3003 52.5245C40.6695 52.1144 40.2593 51.9503 40.0952 51.7862C39.3979 51.1299 38.3725 51.0069 37.5521 51.4171C36.6087 51.8272 36.0755 52.6886 36.1165 53.632Z" fill="#7F2684"/>
<path d="M67.4953 15.8544C65.5675 15.8544 63.9678 14.2957 63.9268 12.3679C63.9268 12.3679 63.9268 12.3679 63.9268 12.3269C63.9268 10.358 65.4854 8.7583 67.4543 8.7583H67.4953C69.4642 8.7583 71.0228 10.317 71.0639 12.2858C71.0639 14.2547 69.5052 15.8544 67.5363 15.8544C67.5773 15.8544 67.5363 15.8544 67.4953 15.8544Z" fill="#E2890A"/>
<path d="M7.73229 42.3931C7.73229 40.9575 7.73229 39.4809 7.73229 38.0452C7.73229 34.8869 10.2344 32.3438 13.3928 32.3438H13.4338C16.5511 32.3438 19.0943 34.8869 19.1353 38.0042C19.1763 41.1626 16.6742 43.7467 13.5158 43.7878C12.8185 43.7878 12.1622 43.8288 11.4649 43.7878C10.8907 43.7467 10.8086 43.9518 10.8086 44.4851C10.8497 45.4285 10.8086 46.3719 10.8497 47.3153C10.8907 47.8485 10.6856 48.0126 10.1523 47.9716C9.37301 47.9306 8.38858 48.2177 7.93738 47.8075C7.44517 47.3973 7.81433 46.3719 7.77331 45.5925C7.69127 44.5261 7.69127 43.4596 7.73229 42.3931ZM10.7676 38.9476C10.8086 40.6704 10.8086 40.6704 12.4904 40.6704C12.8595 40.6704 13.2287 40.6704 13.5979 40.6704C14.9514 40.5884 16.0179 39.4399 16.1 38.0863C16.1 36.7327 15.1565 35.6252 13.8029 35.3791C12.4904 35.215 11.2188 36.0354 10.8497 37.3069C10.7676 37.8812 10.7266 38.4144 10.7676 38.9476Z" fill="#FEFDFE"/>
<path d="M69.4633 32.3027C70.5297 32.3027 71.5962 32.3027 72.6217 32.3027C73.0728 32.3027 73.1959 32.4258 73.1959 32.877C73.2779 35.3791 73.2779 35.3791 70.8169 35.3791C69.4633 35.3791 68.0687 35.3791 66.7151 35.3791C66.3049 35.3791 65.8537 35.3791 65.8537 35.9123C65.8537 36.4866 66.3459 36.4455 66.7561 36.4455C68.0276 36.4455 69.3402 36.4045 70.6118 36.4866C72.4576 36.4866 74.0163 37.8812 74.1803 39.727C74.3444 41.4087 73.319 42.9674 71.7193 43.5006C71.2681 43.6237 70.8169 43.7057 70.3657 43.7057C68.3968 43.7467 66.4279 43.7057 64.4591 43.7467C63.8438 43.7467 63.7208 43.5417 63.7618 43.0084C63.8028 42.2701 63.5567 41.3267 63.9259 40.8755C64.336 40.3833 65.3205 40.7114 66.0588 40.7114C67.4534 40.6704 68.848 40.7114 70.2426 40.7114C70.6528 40.7114 71.104 40.6704 71.104 40.1372C71.104 39.6039 70.6528 39.5629 70.2426 39.5629C68.9711 39.5629 67.6585 39.5629 66.3869 39.5629C64.377 39.5629 62.7773 37.9632 62.7363 35.9944C62.7363 35.9533 62.7363 35.9533 62.7363 35.9123C62.7363 33.9435 64.377 32.3438 66.3459 32.3438C66.3869 32.3438 66.3869 32.3438 66.4279 32.3438C67.4534 32.2617 68.4378 32.3027 69.4633 32.3027Z" fill="#FEFDFE"/>
<path d="M56.5843 44.2799C53.4259 44.2799 50.9238 41.6958 50.9238 38.5784V38.5374C50.9648 35.379 53.508 32.8359 56.6663 32.877C59.7837 32.918 62.2858 35.4201 62.3678 38.5374C62.3678 41.6958 59.8247 44.2799 56.6663 44.2799C56.6253 44.2799 56.5843 44.2799 56.5843 44.2799ZM56.5843 41.2036C58.0609 41.2446 59.2505 40.0551 59.2915 38.6195C59.2915 38.6195 59.2915 38.6195 59.2915 38.5784C59.2505 37.1018 58.0609 35.9123 56.6253 35.9123C55.1897 35.9533 54.0412 37.1018 54.0002 38.5374C53.9592 39.9731 55.0666 41.1626 56.5023 41.2036C56.5023 41.2036 56.5433 41.2036 56.5843 41.2036Z" fill="#FEFDFE"/>
<path d="M19.5479 36.1165C19.5479 35.2141 19.5479 34.2707 19.5479 33.3683C19.5479 32.9581 19.6709 32.7941 20.0811 32.8351C20.6964 32.8761 21.3526 32.8761 21.9679 32.8351C22.5011 32.7941 22.6652 32.9991 22.6242 33.5324C22.5832 35.1321 22.6242 36.7318 22.6242 38.3315C22.6242 40.0542 23.6907 41.2027 25.2083 41.2438C26.685 41.2438 27.9155 40.0542 27.9155 38.5366C27.9155 38.4545 27.9155 38.4135 27.9155 38.3315C27.9155 36.7318 27.9155 35.1321 27.9155 33.5324C27.9155 33.0402 28.0386 32.8351 28.5718 32.8351C30.9919 32.7941 30.9919 32.7941 30.9919 35.2141C31.0329 36.6497 31.0329 38.0854 30.9098 39.48C30.4996 42.5563 27.4643 44.4021 25.0032 44.2791C22.0089 44.115 19.6709 41.695 19.5889 38.7006C19.5479 37.7982 19.5479 36.9779 19.5479 36.1165Z" fill="#FEFDFE"/>
<path d="M39.8081 43.5827C39.8081 41.5318 39.7671 39.4809 39.7671 37.43C39.8081 37.3069 39.7671 37.1429 39.644 37.0608L38.9467 35.9944L38.7826 35.8303L38.5775 35.6662C37.265 34.8869 35.5832 35.3381 34.8039 36.6506C34.5168 37.1839 34.3937 37.7991 34.4757 38.3734C34.1886 39.3578 34.3527 40.4243 34.3527 41.4087C34.3117 43.3776 34.3527 43.3776 32.3428 43.3366C31.8096 43.3366 31.6045 43.1725 31.6045 42.5982C31.6455 40.7114 31.6045 38.8246 31.6045 36.9378C31.6455 36.1174 31.9737 35.3791 32.4659 34.7228L32.6299 34.5177C32.753 34.2306 32.9171 34.0255 33.1632 33.8614L33.3272 33.6973C33.4093 33.4923 33.6144 33.3692 33.7784 33.3282L33.9835 33.1641C34.3937 32.795 34.9269 32.5488 35.5012 32.4668C35.6242 32.5078 35.7883 32.4668 35.8704 32.3438L36.1985 32.3027C36.2395 32.3027 36.2805 32.3027 36.3216 32.3027L36.7317 32.2207C36.9368 32.3848 37.1829 32.3848 37.388 32.2207C38.4545 32.2207 39.4799 32.5488 40.3003 33.2051L40.5054 33.3692L40.8335 33.6153C40.8335 34.0665 41.0386 34.2716 41.4488 34.2306C41.9 34.6408 42.2281 35.174 42.3512 35.7482C42.3102 35.8713 42.3922 36.0354 42.4742 36.1174L42.5153 36.3635L42.6383 36.6506L42.7614 37.6761L42.7204 37.7171C42.7204 37.7581 42.7614 37.7991 42.7614 37.8402C42.8024 39.727 42.8434 41.6138 42.7614 43.5006L39.8081 43.5827Z" fill="white"/>
<path d="M43.2555 33.4918C43.2555 31.9331 43.2555 30.3334 43.2555 28.7747C43.2555 28.2825 43.3786 28.1594 43.8708 28.1184C46.3319 28.0364 46.3319 28.0364 46.3319 30.4154C46.3319 32.2612 46.3319 32.2612 48.1777 32.2612C48.5879 32.2612 49.0391 32.2612 49.4492 32.2612C50.6388 32.2612 50.5157 32.0971 50.5157 33.3687C50.5157 35.1735 50.5157 35.1735 48.7519 35.1735C48.0957 35.1735 47.4394 35.1735 46.7831 35.1735C46.4139 35.1735 46.2909 35.2965 46.2909 35.6657C46.3319 36.5271 46.2909 37.3885 46.3729 38.2498C46.4549 39.6444 47.6034 40.7109 48.998 40.6699C49.2852 40.7109 49.5723 40.7109 49.8594 40.6699C50.3927 40.5879 50.5567 40.834 50.5157 41.3672C50.5157 41.6133 50.5157 41.9004 50.5157 42.1465C50.5157 43.8693 50.5157 43.8693 48.7519 43.7462C45.6346 43.6232 43.1735 40.998 43.2555 37.8807C43.2145 36.404 43.2555 34.9274 43.2555 33.4918Z" fill="#FAFAFA"/>
<path d="M60.8904 51.8268C60.8904 52.4831 60.9315 53.1394 60.8904 53.7957C60.8084 55.0672 59.783 56.0106 58.5114 56.0106C57.2398 55.9696 56.2144 55.0262 56.1324 53.7957C56.0503 52.5651 56.9117 51.4987 58.1012 51.2936C58.1833 51.2936 58.2653 51.2936 58.3473 51.2526C58.8395 51.1295 59.4548 51.4166 59.824 51.0885C60.1521 50.7603 59.947 50.1861 59.947 49.6939C59.947 49.3247 60.1521 49.2837 60.4392 49.2837C60.8084 49.2837 60.8494 49.4888 60.8494 49.7759C60.8904 50.4732 60.8904 51.1705 60.8904 51.8268ZM59.988 53.1804C59.865 52.8112 60.1521 52.4011 59.7419 52.196C58.9626 52.0319 58.1422 52.196 57.4859 52.6061C57.0758 53.0163 56.9527 53.5906 57.1988 54.1238C57.4039 54.6981 57.9371 55.0672 58.5114 55.0262C59.0856 55.0672 59.6599 54.657 59.824 54.1238C59.906 53.8367 59.988 53.5085 59.988 53.1804Z" fill="#FAFAFA"/>
<path d="M48.0943 56.0515C47.7251 56.0515 47.356 56.0515 46.9868 56.0515C46.5766 56.0926 46.4126 55.9285 46.4126 55.5183C46.4126 55.0671 46.6587 55.0671 46.9458 55.0671C47.6431 55.0671 48.3814 55.0671 49.0787 55.0671C49.4069 55.0671 49.653 54.9851 49.694 54.6159C49.735 54.2057 49.4479 54.0827 49.0787 54.0827C48.4635 54.0827 47.8892 54.0827 47.2739 54.0827C46.5356 54.0827 45.9204 53.4674 45.8793 52.7291C45.8383 51.9908 46.3305 51.3755 47.0689 51.2935C47.9713 51.2114 48.8736 51.2524 49.8171 51.2114C50.1862 51.2114 50.1862 51.4575 50.1862 51.7447C50.1862 52.0728 50.0632 52.1959 49.735 52.1959C49.0377 52.1959 48.2994 52.1959 47.6021 52.1959C47.2329 52.1959 46.8638 52.2369 46.9048 52.7291C46.9458 53.1393 47.2739 53.1803 47.6021 53.1803C48.1763 53.1803 48.7506 53.1803 49.3248 53.1803C50.0632 53.1803 50.6784 53.7956 50.6784 54.5339C50.7195 55.2722 50.1452 55.9285 49.4069 55.9695C48.9967 56.0105 48.5455 56.0105 48.0943 56.0515Z" fill="#FAFAFA"/>
<path d="M28.8159 51.2941C29.021 51.2941 29.2261 51.3352 29.4312 51.3762C30.6207 51.7453 30.7437 52.2376 29.8823 53.0989C29.3901 53.5911 28.8979 54.0834 28.4467 54.5346C28.3237 54.6576 28.1596 54.7807 28.2826 54.9447C28.3647 55.0268 28.5288 55.0268 28.6518 55.0678C29.021 55.1088 29.3901 54.9447 29.6362 54.6576C30.0054 54.2474 30.1695 54.4935 30.4566 54.7397C30.8258 55.1088 30.4566 55.2319 30.2515 55.3959C29.4722 56.1343 28.3237 56.2573 27.4213 55.6831C26.4779 55.1088 26.0677 54.0013 26.3548 52.9349C26.6829 51.9094 27.7084 51.2121 28.8159 51.2941ZM27.3392 54.2474C27.9955 53.6732 28.6108 53.0579 29.185 52.3606C27.8725 52.0325 27.1341 52.7298 27.3392 54.2474Z" fill="#FAFAFA"/>
<path d="M43.213 51.2937C44.4846 51.2527 45.551 52.2371 45.6331 53.5087C45.6331 53.5497 45.6331 53.5907 45.6331 53.6317C45.6331 54.9443 44.6076 56.0518 43.2951 56.0928C41.9825 56.0928 40.916 55.0264 40.834 53.7138C40.834 52.3602 41.9004 51.2937 43.213 51.2937ZM44.7307 53.6317C44.6897 52.8524 44.0744 52.2371 43.2951 52.1961C42.4747 52.1961 41.8184 52.8934 41.8594 53.6728C41.9005 54.4521 42.5157 55.0674 43.2951 55.0674C44.0744 55.0674 44.6897 54.4111 44.7307 53.6317Z" fill="#FAFAFA"/>
<path d="M51.0903 52.7701C51.0903 52.442 51.0903 52.0728 51.0903 51.7447C51.0493 51.3755 51.1724 51.2524 51.5825 51.2524C51.9927 51.2524 52.0748 51.4575 52.0337 51.7857C52.0337 52.4009 51.9927 52.9752 52.0337 53.5905C51.9927 54.3698 52.608 55.0671 53.4284 55.1081H53.4694C54.2897 55.1081 54.905 54.4518 54.905 53.6315C54.905 53.5905 54.905 53.5495 54.905 53.5084C54.905 52.8932 54.905 52.3189 54.905 51.7036C54.905 51.3755 55.0281 51.2524 55.3562 51.2524C55.6433 51.2524 55.9305 51.2524 55.8894 51.7036C55.8484 52.442 55.9305 53.1803 55.8484 53.9186C55.7254 55.1491 54.6179 56.0926 53.3873 56.0515C52.1158 56.0105 51.0903 54.903 51.1314 53.6315C51.0493 53.3444 51.0903 53.0572 51.0903 52.7701Z" fill="#FAFAFA"/>
<path d="M35.7883 54.6158C35.7883 54.9439 35.7883 55.3131 35.7883 55.6412C35.7883 55.9694 35.6242 56.0924 35.296 56.0924C34.9679 56.0924 34.7628 56.0514 34.7628 55.6412C34.8038 55.026 34.7628 54.3697 34.7628 53.7544C34.8038 52.9751 34.1886 52.2778 33.4092 52.2368H33.3682C32.5889 52.2368 31.9326 52.852 31.9326 53.6314C31.8915 54.2466 31.8915 54.9029 31.9326 55.5182C31.9326 55.8874 31.8505 56.0924 31.3993 56.0924C30.9892 56.0924 30.9892 55.8053 30.9892 55.5182C30.9892 54.9029 30.9892 54.3287 30.9892 53.7134C30.9071 52.4419 31.8915 51.3344 33.1631 51.2933H33.2041C34.5167 51.2113 35.6652 52.1957 35.7472 53.5083C35.7472 53.5493 35.7472 53.5493 35.7472 53.5904C35.8293 53.9185 35.7883 54.2466 35.7883 54.6158Z" fill="#FAFAFA"/>
<path d="M23.8524 51.2527C24.4267 51.2117 25.0009 51.4168 25.4111 51.827C25.5752 51.991 26.0674 52.1141 25.6572 52.5243C25.3701 52.8114 25.206 52.9344 24.8369 52.6063C24.3447 52.0731 23.4833 52.0321 22.9501 52.5653C22.909 52.6063 22.868 52.6473 22.827 52.7294C22.3758 53.2626 22.3758 54.0829 22.868 54.6162C23.4423 55.2314 24.1396 55.2725 24.9189 54.6572C25.2881 54.3701 25.4111 54.4931 25.6983 54.7392C26.0674 55.0674 25.7803 55.2314 25.5752 55.3955C24.7959 56.1338 23.6474 56.2569 22.7039 55.7237C21.8015 55.1904 21.3093 54.124 21.5965 53.0985C21.8015 51.991 22.745 51.2527 23.8524 51.2527Z" fill="#FAFAFA"/>
<path d="M36.1174 53.6318C36.0764 52.6884 36.6097 51.827 37.471 51.4578C38.3324 51.0477 39.3168 51.1707 40.0141 51.827C40.2192 51.9911 40.6294 52.1551 40.2192 52.5653C39.9321 52.8524 39.727 52.9345 39.3989 52.6063C38.9477 52.1551 38.2504 52.0731 37.7582 52.4012C37.2659 52.6474 36.9788 53.1806 37.0198 53.7548C37.0609 54.3291 37.471 54.8213 38.0453 54.9854C38.5375 55.1494 39.1118 55.0264 39.4399 54.6162C39.768 54.2881 39.9321 54.4111 40.1782 54.6982C40.5064 55.0264 40.3013 55.1905 40.0552 55.3956C39.3989 56.0518 38.3734 56.2569 37.5121 55.8878C36.6917 55.5186 36.0764 54.6162 36.1174 53.6318Z" fill="#FAFAFA"/>
<path d="M31.5223 37.0605C31.5223 38.9474 31.5633 40.8342 31.5223 42.721C31.5223 43.2953 31.7273 43.4593 32.2606 43.4593C34.2705 43.5004 34.2294 43.5004 34.2705 41.5315C34.2705 40.5061 34.1064 39.4806 34.3935 38.4962C34.3935 40.0549 34.3935 41.6546 34.4345 43.2132C34.4345 43.6644 34.3115 43.7875 33.8603 43.7875C31.3582 43.8695 31.3582 43.9105 31.3582 41.4084C31.3992 39.9318 31.1941 38.4962 31.5223 37.0605Z" fill="#FAFAFA"/>
<path d="M39.8086 43.5825H42.7619C41.8185 43.8286 40.793 43.8286 39.8086 43.5825Z" fill="#FAFAFA"/>
<path d="M41.4495 34.3531C40.9983 34.3531 40.7932 34.148 40.8342 33.7378C41.0803 33.8608 41.2854 34.0659 41.4495 34.3531Z" fill="#FAFAFA"/>
<path d="M37.3477 32.3438C37.1426 32.5078 36.8965 32.5078 36.6914 32.3438H37.3477Z" fill="#FAFAFA"/>
<path d="M42.5144 36.1987C42.3914 36.1167 42.3503 35.9937 42.3914 35.8296C42.4734 35.9526 42.5144 36.0757 42.5144 36.1987Z" fill="#FAFAFA"/>
<path d="M39.6433 37.1016C39.7664 37.1836 39.8074 37.3477 39.7664 37.4707C39.6433 37.3477 39.6023 37.2246 39.6433 37.1016Z" fill="#FAFAFA"/>
<path d="M35.8311 32.4668C35.749 32.5899 35.585 32.6309 35.4619 32.5899C35.5439 32.5078 35.708 32.4668 35.8311 32.4668Z" fill="#FAFAFA"/>
<path d="M38.7432 35.8706L38.9072 36.0347L38.7432 35.8706Z" fill="#FAFAFA"/>
<path d="M42.6387 36.7324L42.5156 36.4453L42.6387 36.7324Z" fill="#FAFAFA"/>
<path d="M42.8018 37.9214C42.8018 37.8804 42.7607 37.8394 42.7607 37.7983L42.8018 37.7573C42.8428 37.7983 42.8428 37.8804 42.8018 37.9214Z" fill="#FAFAFA"/>
<path d="M32.5498 34.6401L32.3857 34.8452L32.5498 34.6401Z" fill="#FAFAFA"/>
<path d="M33.2471 33.8198L33.083 33.9839L33.2471 33.8198Z" fill="#FAFAFA"/>
<path d="M40.4658 33.4922L40.2607 33.3281L40.4658 33.4922Z" fill="#FAFAFA"/>
<path d="M33.9443 33.3281L33.7393 33.4922L33.9443 33.3281Z" fill="#FAFAFA"/>
<path d="M36.2822 32.4253C36.2412 32.4253 36.2002 32.4663 36.1592 32.4253C36.2002 32.3843 36.2412 32.3843 36.2822 32.4253Z" fill="#FAFAFA"/>
<path d="M38.5381 35.7065L38.7432 35.8706L38.5381 35.7065Z" fill="#FAFAFA"/>
<path d="M10.7676 38.9473C10.7676 38.4141 10.8086 37.8808 10.8906 37.3476C11.2598 36.076 12.4903 35.2557 13.8439 35.4198C15.1565 35.6248 16.1409 36.7733 16.1409 38.1269C16.0999 39.4805 15.0334 40.588 13.6388 40.7111C13.2697 40.7521 12.9005 40.7111 12.5313 40.7111C10.7676 40.6701 10.7676 40.6701 10.7676 38.9473Z" fill="#7F2684"/>
<path d="M56.5851 41.2029C55.1495 41.244 54.001 40.0954 53.96 38.6598C53.96 38.6188 53.96 38.5778 53.96 38.5368C54.001 37.1011 55.1495 35.9526 56.5851 35.9116C58.0617 35.9116 59.2513 37.1011 59.2513 38.5778C59.2923 40.0544 58.1028 41.2029 56.5851 41.2029C56.6261 41.2029 56.6261 41.2029 56.5851 41.2029Z" fill="#7F2684"/>
<path d="M59.9878 53.1801C59.9467 53.5083 59.9057 53.8364 59.8237 54.1235C59.6596 54.6978 59.1264 55.067 58.5111 55.0259C57.9369 55.067 57.3626 54.6568 57.1985 54.1235C56.9524 53.5903 57.0755 53.0161 57.4857 52.6059C58.142 52.1547 58.9623 51.9906 59.7416 52.1957C60.1518 52.4418 59.8647 52.811 59.9878 53.1801Z" fill="#7F2684"/>
<path d="M27.3381 54.2472C27.174 52.7295 27.8713 52.0322 29.1839 52.3604C28.6097 53.0577 27.9944 53.6729 27.3381 54.2472Z" fill="#7F2684"/>
<path d="M44.7306 53.6314C44.6896 54.4108 44.0743 55.026 43.295 55.0671C42.5157 55.0671 41.8594 54.4518 41.8594 53.6724C41.8594 52.8521 42.5157 52.1958 43.295 52.1958C44.0743 52.2368 44.6896 52.8931 44.7306 53.6314Z" fill="#7F2684"/>
</svg>
