<svg width="24" height="21" viewBox="0 0 24 21" fill="none" xmlns="http://www.w3.org/2000/svg">
<path d="M19.112 20C19.112 20.2122 19.0277 20.4157 18.8777 20.5657C18.7277 20.7157 18.5242 20.8 18.312 20.8H5.688C5.47583 20.8 5.27234 20.7157 5.12231 20.5657C4.97229 20.4157 4.888 20.2122 4.888 20C4.888 19.7879 4.97229 19.5844 5.12231 19.4343C5.27234 19.2843 5.47583 19.2 5.688 19.2H7.656L8.184 16.216H15.872L16.352 19.176H18.312C18.4191 19.176 18.5251 19.1974 18.6238 19.2391C18.7225 19.2808 18.8117 19.3419 18.8863 19.4188C18.961 19.4956 19.0194 19.5867 19.0581 19.6865C19.0969 19.7864 19.1152 19.893 19.112 20ZM22.592 0.0640227L1.456 2.27293e-05C1.27043 -0.00103168 1.08648 0.0346092 0.914725 0.104896C0.742974 0.175182 0.586811 0.278727 0.455218 0.409577C0.323625 0.540427 0.219196 0.696 0.147938 0.86735C0.0766794 1.0387 0.039997 1.22245 0.04 1.40802L0 13.984C0 14.1689 0.036419 14.352 0.107178 14.5228C0.177936 14.6937 0.281649 14.8489 0.412394 14.9796C0.543139 15.1104 0.698355 15.2141 0.869182 15.2848C1.04001 15.3556 1.2231 15.392 1.408 15.392L22.544 15.456C22.7329 15.4625 22.9212 15.4308 23.0976 15.3629C23.274 15.2951 23.4349 15.1924 23.5708 15.061C23.7067 14.9296 23.8147 14.7722 23.8884 14.5982C23.9622 14.4241 24.0001 14.237 24 14.048V1.47202C24 1.28712 23.9636 1.10403 23.8928 0.933205C23.8221 0.762378 23.7184 0.607161 23.5876 0.476416C23.4569 0.345671 23.3016 0.241959 23.1308 0.1712C22.96 0.100442 22.7769 0.0640227 22.592 0.0640227Z" fill="url(#paint0_linear_3004:25067)"/>
<defs>
<linearGradient id="paint0_linear_3004:25067" x1="24" y1="11.3801" x2="-5.07258e-05" y2="11.4418" gradientUnits="userSpaceOnUse">
<stop stop-color="#00AAE4"/>
<stop offset="1" stop-color="#8255BE"/>
</linearGradient>
</defs>
</svg>
