<svg width="26" height="24" viewBox="0 0 26 24" fill="none" xmlns="http://www.w3.org/2000/svg">
<path d="M24.5072 6.1268H21.924L21.361 3.51049C20.9305 1.4903 19.0759 0 17.0226 0H8.54441C6.45798 0 4.6365 1.4903 4.20597 3.51049L3.64296 6.1268H1.05977C0.46365 6.1268 0 6.59045 0 7.18657V8.54441C0 9.14053 0.46365 9.60418 1.05977 9.60418H2.25201L1.55654 10.3328C1.12601 10.7633 0.894182 11.3263 0.827946 11.9555L0.364296 16.1946C0.298061 16.9563 0.496768 17.6518 0.9273 18.1817V21.9571C0.9273 22.5864 1.42407 23.0831 2.05331 23.0831H4.73585C5.36509 23.0831 5.86186 22.5864 5.86186 21.9571V19.2746H19.7382V21.9571C19.7382 22.5864 20.235 23.0831 20.8642 23.0831H23.5468C24.176 23.0831 24.6728 22.5864 24.6728 21.9571V18.1817C25.1033 17.6187 25.3352 16.9232 25.2358 16.1946L24.7722 11.9555C24.7059 11.3594 24.441 10.7964 24.0436 10.3328L23.3481 9.60418H24.5403C25.1364 9.60418 25.6001 9.14053 25.6001 8.54441V7.18657C25.567 6.59045 25.1033 6.1268 24.5072 6.1268ZM6.45798 3.97414C6.65669 2.98061 7.55087 2.28513 8.54441 2.28513H16.9895C17.983 2.28513 18.8772 2.98061 19.0759 3.97414L19.9038 7.84893H5.63003L6.45798 3.97414ZM5.86186 15.1017C4.83521 15.1017 4.04038 14.2738 4.04038 13.2803C4.04038 12.2536 4.86832 11.4588 5.86186 11.4588C6.88851 11.4588 7.68334 12.2867 7.68334 13.2803C7.68334 14.2738 6.8554 15.1017 5.86186 15.1017ZM15.2673 16.857H10.2997C10.0016 16.857 9.76977 16.6252 9.76977 16.3271C9.76977 16.029 10.0016 15.7972 10.2997 15.7972H15.2673C15.5654 15.7972 15.7972 16.029 15.7972 16.3271C15.7972 16.6252 15.5654 16.857 15.2673 16.857ZM15.2673 14.4725H10.2997C10.0016 14.4725 9.76977 14.2407 9.76977 13.9426C9.76977 13.6446 10.0016 13.4127 10.2997 13.4127H15.2673C15.5654 13.4127 15.7972 13.6446 15.7972 13.9426C15.7972 14.2407 15.5654 14.4725 15.2673 14.4725ZM19.7051 15.1017C18.6785 15.1017 17.8836 14.2738 17.8836 13.2803C17.8836 12.2536 18.7116 11.4588 19.7051 11.4588C20.7318 11.4588 21.5266 12.2867 21.5266 13.2803C21.5597 14.2738 20.7318 15.1017 19.7051 15.1017Z" fill="url(#paint0_linear_3004:25073)"/>
<defs>
<linearGradient id="paint0_linear_3004:25073" x1="25.6001" y1="12.6293" x2="-6.70056e-05" y2="12.6925" gradientUnits="userSpaceOnUse">
<stop stop-color="#00AAE4"/>
<stop offset="1" stop-color="#8255BE"/>
</linearGradient>
</defs>
</svg>
