<svg width="24" height="24" viewBox="0 0 24 24" fill="none" xmlns="http://www.w3.org/2000/svg">
<path d="M8.98398 20.7733V17.7156C8.98398 16.9351 9.65492 16.3023 10.4826 16.3023H13.508C13.9055 16.3023 14.2866 16.4512 14.5677 16.7163C14.8487 16.9813 15.0066 17.3408 15.0066 17.7156V20.7733C15.0041 21.0978 15.139 21.4099 15.3814 21.6402C15.6239 21.8705 15.9537 22 16.2978 22H18.3619C19.3259 22.0023 20.2513 21.6428 20.9339 21.0008C21.6164 20.3588 22 19.487 22 18.5778V9.86686C22 9.13246 21.6548 8.43584 21.0575 7.96467L14.0358 2.67587C12.8144 1.74856 11.0643 1.7785 9.87936 2.74698L3.01791 7.96467C2.39236 8.42195 2.01848 9.12064 2 9.86686V18.5689C2 20.4639 3.62882 22 5.63808 22H7.65504C8.36971 22 8.95052 21.4562 8.9557 20.7822L8.98398 20.7733Z" fill="white"/>
<path fill-rule="evenodd" clip-rule="evenodd" d="M14.0358 2.67587C12.8144 1.74856 11.0643 1.7785 9.87936 2.74698L3.01791 7.96467C2.39236 8.42195 2.01848 9.12064 2 9.86686V18.5689C2 20.4639 3.62882 22 5.63808 22H7.65504C8.36971 22 8.95052 21.4562 8.9557 20.7822L8.98398 20.7733V17.7156C8.98398 16.9351 9.65492 16.3023 10.4826 16.3023H13.508C13.9055 16.3023 14.2866 16.4512 14.5677 16.7163C14.8487 16.9813 15.0066 17.3408 15.0066 17.7156V20.7733C15.0041 21.0978 15.139 21.4099 15.3814 21.6402C15.6239 21.8705 15.9537 22 16.2978 22H18.3619C19.3259 22.0023 20.2513 21.6428 20.9339 21.0008C21.6164 20.3588 22 19.487 22 18.5778V9.86686C22 9.13246 21.6548 8.43584 21.0575 7.96467L14.0358 2.67587ZM19.8302 9.54412L12.8325 4.2734L12.8265 4.26881C12.339 3.89871 11.6122 3.91373 11.145 4.29556L11.1179 4.31775L4.21346 9.5681L4.1982 9.57926C4.05804 9.68172 4.00645 9.80609 4 9.90298V18.5689C4 19.2505 4.62139 20 5.63808 20H6.96165L6.96695 19.3109L6.98398 19.3055V17.7156C6.98398 15.7217 8.66236 14.3023 10.4826 14.3023H13.508C14.3993 14.3023 15.276 14.6351 15.9399 15.2612C16.6077 15.8911 17.0066 16.7713 17.0066 17.7156V20H18.3668C18.8362 20.0011 19.2649 19.8249 19.5635 19.544C19.8582 19.2669 20 18.9165 20 18.5778V9.86686C20 9.77278 19.958 9.64991 19.8302 9.54412Z" fill="#DCDCDC"/>
</svg>
