<svg width="15" height="14" viewBox="0 0 15 14" fill="none" xmlns="http://www.w3.org/2000/svg">
<path d="M2.8932 4.65187C3.00813 4.32342 3.15201 4.04947 3.38261 3.82935C3.6121 3.61027 3.94628 3.42674 4.4711 3.31314C5.37494 3.11757 6.07435 3.40844 6.55629 3.75424C6.79841 3.92797 6.98386 4.11469 7.10853 4.25788C7.17068 4.32926 7.21722 4.38924 7.24765 4.4305C7.26285 4.45111 7.27399 4.467 7.28102 4.47724L7.28844 4.48822L7.28962 4.49L7.28973 4.49017L7.28981 4.4903L7.28991 4.49046L7.50001 4.81779L7.71011 4.49046L7.7102 4.4903L7.71029 4.49017L7.7104 4.49L7.71158 4.48822L7.719 4.47724C7.72603 4.467 7.73717 4.45111 7.75237 4.4305C7.7828 4.38924 7.82934 4.32926 7.89149 4.25788C8.01616 4.11469 8.2016 3.92797 8.44373 3.75424C8.92566 3.40844 9.62507 3.11757 10.5289 3.31314C11.0537 3.42673 11.3879 3.61029 11.6174 3.82938C11.848 4.04953 11.9919 4.32348 12.1068 4.65188C12.4532 5.64218 12.1707 6.96653 11.255 7.94752C10.48 8.77774 9.5146 9.48537 8.73707 9.98767C8.34941 10.2381 8.01085 10.436 7.76961 10.571C7.65664 10.6343 7.56511 10.6837 7.50001 10.7182C7.4349 10.6837 7.34338 10.6343 7.23041 10.571C6.98917 10.436 6.65061 10.2381 6.26295 9.98767C5.48542 9.48537 4.52002 8.77774 3.74498 7.94752L3.5648 8.11573L3.74498 7.94752C2.82917 6.96653 2.54678 5.64219 2.8932 4.65187ZM2.8932 4.65187L2.65723 4.5693L2.8932 4.65187Z" stroke="white" stroke-width="0.5"/>
</svg>
